<svg xmlns="http://www.w3.org/2000/svg" xmlns:xlink="http://www.w3.org/1999/xlink" width="202.787" height="164.467" viewBox="0 0 152.09 123.35"><defs><symbol overflow="visible" id="g"><path style="stroke:none" d="M2.344 0v-.281c-.594 0-.688 0-.688-.406V-6.22l-1.328.094v.281c.61 0 .688.063.688.5v4.657c0 .406-.094.406-.688.406V0c.422-.016.594-.031 1-.031.422 0 .578.015 1.016.031Zm0 0"/></symbol><symbol overflow="visible" id="h"><path style="stroke:none" d="M2.266 0v-.281c-.579 0-.61-.047-.61-.39V-3.97l-1.297.11v.265c.579 0 .657.063.657.5v2.406c0 .407-.094.407-.688.407V0c.39-.016.594-.031.984-.031.141 0 .516 0 .954.031Zm-.5-5.406a.487.487 0 0 0-.485-.485.487.487 0 0 0-.484.485c0 .265.219.484.484.484a.487.487 0 0 0 .485-.484Zm0 0"/></symbol><symbol overflow="visible" id="i"><path style="stroke:none" d="M4.844 1.734V1.47c-.594 0-.688 0-.688-.422V-3.97h-.234l-.328.797c-.422-.719-.938-.797-1.25-.797A2.04 2.04 0 0 0 .313-1.922c0 1.125.906 2.016 1.953 2.016.375 0 .843-.125 1.218-.625v1.578c0 .422-.093.422-.687.422v.265c.422-.015.594-.015 1.031-.015.422 0 .547 0 1.016.015ZM3.516-1.234c0 .156 0 .187-.141.437-.219.39-.594.672-1.063.672-.671 0-1.234-.797-1.234-1.797 0-1.047.64-1.797 1.328-1.797.703 0 1.11.75 1.11 1.25Zm0 0"/></symbol><symbol overflow="visible" id="j"><path style="stroke:none" d="M1.766-.484A.487.487 0 0 0 1.28-.97a.477.477 0 0 0-.484.485C.797-.22 1 0 1.28 0a.487.487 0 0 0 .485-.484Zm0 0"/></symbol><symbol overflow="visible" id="k"><path style="stroke:none" d="M4.219-1.531c0-.782-.625-1.438-1.485-1.625.829-.313 1.235-.969 1.235-1.594 0-.688-.766-1.219-1.703-1.219-.922 0-1.625.532-1.625 1.203 0 .297.187.47.453.47a.435.435 0 0 0 .453-.454c0-.313-.219-.438-.531-.438.234-.375.78-.562 1.234-.562.734 0 .875.594.875 1.016 0 .265-.047.703-.266 1.046-.28.391-.593.407-.859.438-.219.016-.234.016-.313.016-.078 0-.156.015-.156.109 0 .125.078.125.235.125h.406c.781 0 1.125.625 1.125 1.469 0 1.156-.61 1.484-1.063 1.484-.171 0-1.046-.047-1.437-.719a.475.475 0 0 0 .562-.484.468.468 0 0 0-.484-.484c-.219 0-.484.14-.484.515 0 .797.828 1.422 1.875 1.422 1.109 0 1.953-.812 1.953-1.734Zm0 0"/></symbol><symbol overflow="visible" id="l"><path style="stroke:none" d="M3.875 0v-.281h-.281c-.844 0-.875-.11-.875-.438v-5.015c0-.22 0-.235-.219-.235-.563.563-1.39.563-1.672.563v.281c.172 0 .719 0 1.203-.234v4.64c0 .328-.015.438-.86.438h-.28V0c.312-.031 1.125-.031 1.484-.031.375 0 1.172 0 1.5.031Zm0 0"/></symbol><symbol overflow="visible" id="s"><path style="stroke:none" d="M4.14-1.594h-.25c-.015.125-.093.657-.203.797-.062.078-.671.078-.859.078H1.234l.891-.844c1.469-1.265 2.016-1.75 2.016-2.656 0-1.031-.844-1.75-1.954-1.75-1.03 0-1.734.813-1.734 1.625 0 .453.39.5.469.5.203 0 .469-.14.469-.469a.451.451 0 0 0-.47-.468c-.046 0-.062 0-.109.015.22-.64.797-.921 1.282-.921.906 0 1.219.843 1.219 1.468 0 .907-.688 1.657-1.11 2.125L.563-.328c-.11.11-.11.125-.11.328h3.438Zm0 0"/></symbol><symbol overflow="visible" id="m"><path style="stroke:none" d="M6.047-2.047c.172 0 .344 0 .344-.203 0-.188-.188-.188-.344-.188H1.109c-.156 0-.343 0-.343.188 0 .203.171.203.343.203Zm0 0"/></symbol><symbol overflow="visible" id="n"><path style="stroke:none" d="M7.625-2.047c-1.063.75-1.281 1.938-1.281 2.031 0 .125.125.125.187.125.11 0 .172 0 .203-.125.25-1.046.86-1.75 1.844-2.109.047-.016.125-.047.125-.125s-.062-.094-.125-.125c-1.125-.422-1.64-1.219-1.844-2.094-.03-.125-.062-.125-.203-.125-.078 0-.187 0-.187.125 0 .094.218 1.282 1.281 2.032H.844c-.156 0-.328 0-.328.187 0 .203.171.203.328.203Zm0 0"/></symbol><symbol overflow="visible" id="o"><path style="stroke:none" d="M3.563-1.188a4.904 4.904 0 0 0-.422-1.89c-.297-.64-.72-.89-1.188-.89-1.14 0-1.797 1.343-1.797 1.64 0 .094.11.094.125.094.078 0 .11-.016.125-.094.297-.828 1.125-.969 1.422-.969 1.453 0 1.484 1.719 1.484 2.297 0 .531-.03.656-.078.781C3 .578 2.766 1.5 2.766 1.734c0 .063 0 .204.125.204.062 0 .14 0 .296-.547.235-.829.297-1.313.344-1.672.016-.11.485-1.563 1.297-3.156.156-.297.156-.313.156-.329 0-.062-.046-.093-.125-.093-.015 0-.078 0-.109.046-.219.376-.422.829-.61 1.25a25.14 25.14 0 0 0-.577 1.376Zm0 0"/></symbol><symbol overflow="visible" id="t"><path style="stroke:none" d="M4.172-4.438c0-.921-.297-1.89-1.125-1.89-1.313 0-2.672 2.562-2.672 4.547C.375-1.125.563.094 1.5.094c1.313 0 2.672-2.531 2.672-4.532ZM1.344-3.25c.187-.719.375-1.375.734-1.984.219-.36.547-.86.969-.86.484 0 .515.766.515 1.11 0 .53-.14 1.156-.28 1.734Zm1.86.281c-.142.563-.313 1.235-.673 1.875-.234.422-.594.969-1.031.969-.375 0-.5-.469-.5-1.125 0-.578.14-1.156.281-1.719Zm0 0"/></symbol><symbol overflow="visible" id="p"><path style="stroke:none" d="M2.14-3.797c0-.187-.015-.187-.203-.187-.39.39-1 .39-1.218.39v.235c.156 0 .562 0 .922-.172v3.015c0 .204 0 .282-.625.282h-.25V0c.328-.031.796-.031 1.125-.031.328 0 .796 0 1.125.031v-.234h-.25c-.625 0-.625-.078-.625-.282Zm0 0"/></symbol><symbol overflow="visible" id="q"><path style="stroke:none" d="M1.766-1.984c.5 0 .843.343.843.953 0 .656-.39.937-.828.937C1.61-.094 1-.125.734-.469c.235-.031.329-.187.329-.344a.328.328 0 0 0-.344-.343.34.34 0 0 0-.344.36c0 .593.656.921 1.422.921.89 0 1.469-.563 1.469-1.156 0-.438-.329-.907-1.047-1.078.484-.157.86-.547.86-1.032 0-.484-.563-.843-1.282-.843-.703 0-1.234.328-1.234.812 0 .266.203.328.328.328.156 0 .312-.094.312-.312 0-.188-.125-.297-.297-.313.281-.312.828-.312.89-.312.298 0 .688.14.688.64 0 .329-.187.907-.796.938-.11 0-.266.015-.313.015-.063.016-.125.016-.125.11s.063.094.156.094Zm0 0"/></symbol><symbol overflow="visible" id="r"><path style="stroke:none" d="M3.219-1.125H3c-.016.094-.078.484-.156.547-.047.047-.531.047-.625.047h-1.11l.766-.625c.203-.172.734-.547.922-.735.172-.171.422-.484.422-.906 0-.75-.672-1.187-1.485-1.187-.765 0-1.296.515-1.296 1.078 0 .297.25.344.312.344a.32.32 0 0 0 .328-.329c0-.125-.078-.328-.344-.328.141-.297.5-.531.922-.531.625 0 .953.469.953.953 0 .422-.28.86-.687 1.25L.5-.25C.437-.187.437-.187.437 0h2.594Zm0 0"/></symbol><clipPath id="a"><path d="M5 5h142v57H5Zm0 0"/></clipPath><clipPath id="b"><path d="M5.18 61.676H47.7c28.347-11.34 42.519-11.34 70.866 0h28.348V4.98H5.18Zm0 0"/></clipPath><clipPath id="d"><path d="M5 62h142v56H5Zm0 0"/></clipPath><clipPath id="e"><path d="M5.18 61.676H47.7c11.34 22.68 59.53 22.68 70.866 0h28.348v56.695H5.18Zm0 0"/></clipPath><linearGradient id="c" gradientUnits="userSpaceOnUse" x1="0" y1="25.003" x2="0" y2="74.997" gradientTransform="matrix(2.83502 0 0 -1.134 -65.704 90.03)"><stop offset="0" style="stop-color:#bfbfbf;stop-opacity:1"/><stop offset=".016" style="stop-color:silver;stop-opacity:1"/><stop offset=".031" style="stop-color:#c1c1c1;stop-opacity:1"/><stop offset=".047" style="stop-color:#c2c2c2;stop-opacity:1"/><stop offset=".063" style="stop-color:#c3c3c3;stop-opacity:1"/><stop offset=".078" style="stop-color:#c4c4c4;stop-opacity:1"/><stop offset=".094" style="stop-color:#c5c5c5;stop-opacity:1"/><stop offset=".109" style="stop-color:#c6c6c6;stop-opacity:1"/><stop offset=".125" style="stop-color:#c7c7c7;stop-opacity:1"/><stop offset=".141" style="stop-color:#c8c8c8;stop-opacity:1"/><stop offset=".156" style="stop-color:#c9c9c9;stop-opacity:1"/><stop offset=".172" style="stop-color:#cacaca;stop-opacity:1"/><stop offset=".188" style="stop-color:#cbcbcb;stop-opacity:1"/><stop offset=".203" style="stop-color:#ccc;stop-opacity:1"/><stop offset=".219" style="stop-color:#cdcdcd;stop-opacity:1"/><stop offset=".234" style="stop-color:#cecece;stop-opacity:1"/><stop offset=".25" style="stop-color:#cfcfcf;stop-opacity:1"/><stop offset=".266" style="stop-color:#d0d0d0;stop-opacity:1"/><stop offset=".281" style="stop-color:#d1d1d1;stop-opacity:1"/><stop offset=".297" style="stop-color:#d2d2d2;stop-opacity:1"/><stop offset=".313" style="stop-color:#d3d3d3;stop-opacity:1"/><stop offset=".328" style="stop-color:#d4d4d4;stop-opacity:1"/><stop offset=".344" style="stop-color:#d5d5d5;stop-opacity:1"/><stop offset=".359" style="stop-color:#d6d6d6;stop-opacity:1"/><stop offset=".375" style="stop-color:#d7d7d7;stop-opacity:1"/><stop offset=".391" style="stop-color:#d8d8d8;stop-opacity:1"/><stop offset=".406" style="stop-color:#d9d9d9;stop-opacity:1"/><stop offset=".422" style="stop-color:#dadada;stop-opacity:1"/><stop offset=".438" style="stop-color:#dbdbdb;stop-opacity:1"/><stop offset=".453" style="stop-color:#dcdcdc;stop-opacity:1"/><stop offset=".469" style="stop-color:#ddd;stop-opacity:1"/><stop offset=".484" style="stop-color:#dedede;stop-opacity:1"/><stop offset=".5" style="stop-color:#dfdfdf;stop-opacity:1"/><stop offset=".516" style="stop-color:#e0e0e0;stop-opacity:1"/><stop offset=".531" style="stop-color:#e1e1e1;stop-opacity:1"/><stop offset=".547" style="stop-color:#e2e2e2;stop-opacity:1"/><stop offset=".563" style="stop-color:#e3e3e3;stop-opacity:1"/><stop offset=".578" style="stop-color:#e4e4e4;stop-opacity:1"/><stop offset=".594" style="stop-color:#e5e5e5;stop-opacity:1"/><stop offset=".609" style="stop-color:#e6e6e6;stop-opacity:1"/><stop offset=".625" style="stop-color:#e7e7e7;stop-opacity:1"/><stop offset=".641" style="stop-color:#e8e8e8;stop-opacity:1"/><stop offset=".656" style="stop-color:#e9e9e9;stop-opacity:1"/><stop offset=".672" style="stop-color:#eaeaea;stop-opacity:1"/><stop offset=".688" style="stop-color:#ebebeb;stop-opacity:1"/><stop offset=".703" style="stop-color:#ececec;stop-opacity:1"/><stop offset=".719" style="stop-color:#ededed;stop-opacity:1"/><stop offset=".734" style="stop-color:#eee;stop-opacity:1"/><stop offset=".75" style="stop-color:#efefef;stop-opacity:1"/><stop offset=".766" style="stop-color:#f0f0f0;stop-opacity:1"/><stop offset=".781" style="stop-color:#f1f1f1;stop-opacity:1"/><stop offset=".797" style="stop-color:#f2f2f2;stop-opacity:1"/><stop offset=".813" style="stop-color:#f3f3f3;stop-opacity:1"/><stop offset=".828" style="stop-color:#f4f4f4;stop-opacity:1"/><stop offset=".844" style="stop-color:#f5f5f5;stop-opacity:1"/><stop offset=".859" style="stop-color:#f6f6f6;stop-opacity:1"/><stop offset=".875" style="stop-color:#f7f7f7;stop-opacity:1"/><stop offset=".891" style="stop-color:#f8f8f8;stop-opacity:1"/><stop offset=".906" style="stop-color:#f9f9f9;stop-opacity:1"/><stop offset=".922" style="stop-color:#fafafa;stop-opacity:1"/><stop offset=".938" style="stop-color:#fbfbfb;stop-opacity:1"/><stop offset=".953" style="stop-color:#fcfcfc;stop-opacity:1"/><stop offset=".969" style="stop-color:#fdfdfd;stop-opacity:1"/><stop offset=".984" style="stop-color:#fdfdfd;stop-opacity:1"/><stop offset="1" style="stop-color:#fefefe;stop-opacity:1"/></linearGradient><linearGradient id="f" gradientUnits="userSpaceOnUse" x1="0" y1="25.003" x2="0" y2="74.997" gradientTransform="matrix(2.83502 0 0 -1.134 -65.704 146.723)"><stop offset="0" style="stop-color:#000;stop-opacity:1"/><stop offset=".004" style="stop-color:#010101;stop-opacity:1"/><stop offset=".008" style="stop-color:#020202;stop-opacity:1"/><stop offset=".012" style="stop-color:#020202;stop-opacity:1"/><stop offset=".016" style="stop-color:#030303;stop-opacity:1"/><stop offset=".02" style="stop-color:#040404;stop-opacity:1"/><stop offset=".023" style="stop-color:#040404;stop-opacity:1"/><stop offset=".027" style="stop-color:#050505;stop-opacity:1"/><stop offset=".031" style="stop-color:#060606;stop-opacity:1"/><stop offset=".035" style="stop-color:#070707;stop-opacity:1"/><stop offset=".039" style="stop-color:#070707;stop-opacity:1"/><stop offset=".043" style="stop-color:#080808;stop-opacity:1"/><stop offset=".047" style="stop-color:#090909;stop-opacity:1"/><stop offset=".051" style="stop-color:#0a0a0a;stop-opacity:1"/><stop offset=".055" style="stop-color:#0a0a0a;stop-opacity:1"/><stop offset=".059" style="stop-color:#0b0b0b;stop-opacity:1"/><stop offset=".063" style="stop-color:#0c0c0c;stop-opacity:1"/><stop offset=".066" style="stop-color:#0d0d0d;stop-opacity:1"/><stop offset=".07" style="stop-color:#0d0d0d;stop-opacity:1"/><stop offset=".074" style="stop-color:#0e0e0e;stop-opacity:1"/><stop offset=".078" style="stop-color:#0f0f0f;stop-opacity:1"/><stop offset=".082" style="stop-color:#101010;stop-opacity:1"/><stop offset=".086" style="stop-color:#101010;stop-opacity:1"/><stop offset=".09" style="stop-color:#111;stop-opacity:1"/><stop offset=".094" style="stop-color:#121212;stop-opacity:1"/><stop offset=".098" style="stop-color:#131313;stop-opacity:1"/><stop offset=".102" style="stop-color:#131313;stop-opacity:1"/><stop offset=".105" style="stop-color:#141414;stop-opacity:1"/><stop offset=".109" style="stop-color:#151515;stop-opacity:1"/><stop offset=".113" style="stop-color:#161616;stop-opacity:1"/><stop offset=".117" style="stop-color:#161616;stop-opacity:1"/><stop offset=".121" style="stop-color:#171717;stop-opacity:1"/><stop offset=".125" style="stop-color:#181818;stop-opacity:1"/><stop offset=".129" style="stop-color:#191919;stop-opacity:1"/><stop offset=".133" style="stop-color:#191919;stop-opacity:1"/><stop offset=".137" style="stop-color:#1a1a1a;stop-opacity:1"/><stop offset=".141" style="stop-color:#1b1b1b;stop-opacity:1"/><stop offset=".145" style="stop-color:#1c1c1c;stop-opacity:1"/><stop offset=".148" style="stop-color:#1c1c1c;stop-opacity:1"/><stop offset=".152" style="stop-color:#1d1d1d;stop-opacity:1"/><stop offset=".156" style="stop-color:#1e1e1e;stop-opacity:1"/><stop offset=".16" style="stop-color:#1f1f1f;stop-opacity:1"/><stop offset=".164" style="stop-color:#1f1f1f;stop-opacity:1"/><stop offset=".168" style="stop-color:#202020;stop-opacity:1"/><stop offset=".172" style="stop-color:#212121;stop-opacity:1"/><stop offset=".176" style="stop-color:#222;stop-opacity:1"/><stop offset=".18" style="stop-color:#222;stop-opacity:1"/><stop offset=".184" style="stop-color:#232323;stop-opacity:1"/><stop offset=".188" style="stop-color:#242424;stop-opacity:1"/><stop offset=".191" style="stop-color:#252525;stop-opacity:1"/><stop offset=".195" style="stop-color:#252525;stop-opacity:1"/><stop offset=".199" style="stop-color:#262626;stop-opacity:1"/><stop offset=".203" style="stop-color:#272727;stop-opacity:1"/><stop offset=".207" style="stop-color:#282828;stop-opacity:1"/><stop offset=".211" style="stop-color:#282828;stop-opacity:1"/><stop offset=".215" style="stop-color:#292929;stop-opacity:1"/><stop offset=".219" style="stop-color:#2a2a2a;stop-opacity:1"/><stop offset=".223" style="stop-color:#2b2b2b;stop-opacity:1"/><stop offset=".227" style="stop-color:#2b2b2b;stop-opacity:1"/><stop offset=".23" style="stop-color:#2c2c2c;stop-opacity:1"/><stop offset=".234" style="stop-color:#2d2d2d;stop-opacity:1"/><stop offset=".238" style="stop-color:#2e2e2e;stop-opacity:1"/><stop offset=".242" style="stop-color:#2e2e2e;stop-opacity:1"/><stop offset=".246" style="stop-color:#2f2f2f;stop-opacity:1"/><stop offset=".25" style="stop-color:#303030;stop-opacity:1"/><stop offset=".254" style="stop-color:#313131;stop-opacity:1"/><stop offset=".258" style="stop-color:#313131;stop-opacity:1"/><stop offset=".262" style="stop-color:#323232;stop-opacity:1"/><stop offset=".266" style="stop-color:#333;stop-opacity:1"/><stop offset=".27" style="stop-color:#343434;stop-opacity:1"/><stop offset=".273" style="stop-color:#343434;stop-opacity:1"/><stop offset=".277" style="stop-color:#353535;stop-opacity:1"/><stop offset=".281" style="stop-color:#363636;stop-opacity:1"/><stop offset=".285" style="stop-color:#373737;stop-opacity:1"/><stop offset=".289" style="stop-color:#373737;stop-opacity:1"/><stop offset=".293" style="stop-color:#383838;stop-opacity:1"/><stop offset=".297" style="stop-color:#393939;stop-opacity:1"/><stop offset=".301" style="stop-color:#3a3a3a;stop-opacity:1"/><stop offset=".305" style="stop-color:#3a3a3a;stop-opacity:1"/><stop offset=".309" style="stop-color:#3b3b3b;stop-opacity:1"/><stop offset=".313" style="stop-color:#3c3c3c;stop-opacity:1"/><stop offset=".316" style="stop-color:#3d3d3d;stop-opacity:1"/><stop offset=".32" style="stop-color:#3d3d3d;stop-opacity:1"/><stop offset=".324" style="stop-color:#3e3e3e;stop-opacity:1"/><stop offset=".328" style="stop-color:#3f3f3f;stop-opacity:1"/><stop offset=".332" style="stop-color:#404040;stop-opacity:1"/><stop offset=".336" style="stop-color:#404040;stop-opacity:1"/><stop offset=".34" style="stop-color:#414141;stop-opacity:1"/><stop offset=".344" style="stop-color:#424242;stop-opacity:1"/><stop offset=".348" style="stop-color:#424242;stop-opacity:1"/><stop offset=".352" style="stop-color:#434343;stop-opacity:1"/><stop offset=".355" style="stop-color:#444;stop-opacity:1"/><stop offset=".359" style="stop-color:#454545;stop-opacity:1"/><stop offset=".363" style="stop-color:#454545;stop-opacity:1"/><stop offset=".367" style="stop-color:#464646;stop-opacity:1"/><stop offset=".371" style="stop-color:#474747;stop-opacity:1"/><stop offset=".375" style="stop-color:#484848;stop-opacity:1"/><stop offset=".379" style="stop-color:#484848;stop-opacity:1"/><stop offset=".383" style="stop-color:#494949;stop-opacity:1"/><stop offset=".387" style="stop-color:#4a4a4a;stop-opacity:1"/><stop offset=".391" style="stop-color:#4b4b4b;stop-opacity:1"/><stop offset=".395" style="stop-color:#4b4b4b;stop-opacity:1"/><stop offset=".398" style="stop-color:#4c4c4c;stop-opacity:1"/><stop offset=".402" style="stop-color:#4d4d4d;stop-opacity:1"/><stop offset=".406" style="stop-color:#4e4e4e;stop-opacity:1"/><stop offset=".41" style="stop-color:#4e4e4e;stop-opacity:1"/><stop offset=".414" style="stop-color:#4f4f4f;stop-opacity:1"/><stop offset=".418" style="stop-color:#505050;stop-opacity:1"/><stop offset=".422" style="stop-color:#515151;stop-opacity:1"/><stop offset=".426" style="stop-color:#515151;stop-opacity:1"/><stop offset=".43" style="stop-color:#525252;stop-opacity:1"/><stop offset=".434" style="stop-color:#535353;stop-opacity:1"/><stop offset=".438" style="stop-color:#545454;stop-opacity:1"/><stop offset=".441" style="stop-color:#545454;stop-opacity:1"/><stop offset=".445" style="stop-color:#555;stop-opacity:1"/><stop offset=".449" style="stop-color:#565656;stop-opacity:1"/><stop offset=".453" style="stop-color:#575757;stop-opacity:1"/><stop offset=".457" style="stop-color:#575757;stop-opacity:1"/><stop offset=".461" style="stop-color:#585858;stop-opacity:1"/><stop offset=".465" style="stop-color:#595959;stop-opacity:1"/><stop offset=".469" style="stop-color:#5a5a5a;stop-opacity:1"/><stop offset=".473" style="stop-color:#5a5a5a;stop-opacity:1"/><stop offset=".477" style="stop-color:#5b5b5b;stop-opacity:1"/><stop offset=".48" style="stop-color:#5c5c5c;stop-opacity:1"/><stop offset=".484" style="stop-color:#5d5d5d;stop-opacity:1"/><stop offset=".488" style="stop-color:#5d5d5d;stop-opacity:1"/><stop offset=".492" style="stop-color:#5e5e5e;stop-opacity:1"/><stop offset=".496" style="stop-color:#5f5f5f;stop-opacity:1"/><stop offset=".5" style="stop-color:#606060;stop-opacity:1"/><stop offset=".504" style="stop-color:#606060;stop-opacity:1"/><stop offset=".508" style="stop-color:#616161;stop-opacity:1"/><stop offset=".512" style="stop-color:#626262;stop-opacity:1"/><stop offset=".516" style="stop-color:#636363;stop-opacity:1"/><stop offset=".52" style="stop-color:#636363;stop-opacity:1"/><stop offset=".523" style="stop-color:#646464;stop-opacity:1"/><stop offset=".527" style="stop-color:#656565;stop-opacity:1"/><stop offset=".531" style="stop-color:#666;stop-opacity:1"/><stop offset=".535" style="stop-color:#666;stop-opacity:1"/><stop offset=".539" style="stop-color:#676767;stop-opacity:1"/><stop offset=".543" style="stop-color:#686868;stop-opacity:1"/><stop offset=".547" style="stop-color:#696969;stop-opacity:1"/><stop offset=".551" style="stop-color:#696969;stop-opacity:1"/><stop offset=".555" style="stop-color:#6a6a6a;stop-opacity:1"/><stop offset=".559" style="stop-color:#6b6b6b;stop-opacity:1"/><stop offset=".563" style="stop-color:#6c6c6c;stop-opacity:1"/><stop offset=".566" style="stop-color:#6c6c6c;stop-opacity:1"/><stop offset=".57" style="stop-color:#6d6d6d;stop-opacity:1"/><stop offset=".574" style="stop-color:#6e6e6e;stop-opacity:1"/><stop offset=".578" style="stop-color:#6f6f6f;stop-opacity:1"/><stop offset=".582" style="stop-color:#6f6f6f;stop-opacity:1"/><stop offset=".586" style="stop-color:#707070;stop-opacity:1"/><stop offset=".59" style="stop-color:#717171;stop-opacity:1"/><stop offset=".594" style="stop-color:#727272;stop-opacity:1"/><stop offset=".598" style="stop-color:#727272;stop-opacity:1"/><stop offset=".602" style="stop-color:#737373;stop-opacity:1"/><stop offset=".605" style="stop-color:#747474;stop-opacity:1"/><stop offset=".609" style="stop-color:#757575;stop-opacity:1"/><stop offset=".613" style="stop-color:#757575;stop-opacity:1"/><stop offset=".617" style="stop-color:#767676;stop-opacity:1"/><stop offset=".621" style="stop-color:#777;stop-opacity:1"/><stop offset=".625" style="stop-color:#787878;stop-opacity:1"/><stop offset=".629" style="stop-color:#787878;stop-opacity:1"/><stop offset=".633" style="stop-color:#797979;stop-opacity:1"/><stop offset=".637" style="stop-color:#7a7a7a;stop-opacity:1"/><stop offset=".641" style="stop-color:#7b7b7b;stop-opacity:1"/><stop offset=".645" style="stop-color:#7b7b7b;stop-opacity:1"/><stop offset=".648" style="stop-color:#7c7c7c;stop-opacity:1"/><stop offset=".652" style="stop-color:#7d7d7d;stop-opacity:1"/><stop offset=".656" style="stop-color:#7e7e7e;stop-opacity:1"/><stop offset=".66" style="stop-color:#7e7e7e;stop-opacity:1"/><stop offset=".664" style="stop-color:#7f7f7f;stop-opacity:1"/><stop offset=".668" style="stop-color:gray;stop-opacity:1"/><stop offset=".672" style="stop-color:gray;stop-opacity:1"/><stop offset=".676" style="stop-color:#818181;stop-opacity:1"/><stop offset=".68" style="stop-color:#828282;stop-opacity:1"/><stop offset=".684" style="stop-color:#838383;stop-opacity:1"/><stop offset=".688" style="stop-color:#838383;stop-opacity:1"/><stop offset=".691" style="stop-color:#848484;stop-opacity:1"/><stop offset=".695" style="stop-color:#858585;stop-opacity:1"/><stop offset=".699" style="stop-color:#868686;stop-opacity:1"/><stop offset=".703" style="stop-color:#868686;stop-opacity:1"/><stop offset=".707" style="stop-color:#878787;stop-opacity:1"/><stop offset=".711" style="stop-color:#888;stop-opacity:1"/><stop offset=".715" style="stop-color:#898989;stop-opacity:1"/><stop offset=".719" style="stop-color:#898989;stop-opacity:1"/><stop offset=".723" style="stop-color:#8a8a8a;stop-opacity:1"/><stop offset=".727" style="stop-color:#8b8b8b;stop-opacity:1"/><stop offset=".73" style="stop-color:#8c8c8c;stop-opacity:1"/><stop offset=".734" style="stop-color:#8c8c8c;stop-opacity:1"/><stop offset=".738" style="stop-color:#8d8d8d;stop-opacity:1"/><stop offset=".742" style="stop-color:#8e8e8e;stop-opacity:1"/><stop offset=".746" style="stop-color:#8f8f8f;stop-opacity:1"/><stop offset=".75" style="stop-color:#8f8f8f;stop-opacity:1"/><stop offset=".754" style="stop-color:#909090;stop-opacity:1"/><stop offset=".758" style="stop-color:#919191;stop-opacity:1"/><stop offset=".762" style="stop-color:#929292;stop-opacity:1"/><stop offset=".766" style="stop-color:#929292;stop-opacity:1"/><stop offset=".77" style="stop-color:#939393;stop-opacity:1"/><stop offset=".773" style="stop-color:#949494;stop-opacity:1"/><stop offset=".777" style="stop-color:#959595;stop-opacity:1"/><stop offset=".781" style="stop-color:#959595;stop-opacity:1"/><stop offset=".785" style="stop-color:#969696;stop-opacity:1"/><stop offset=".789" style="stop-color:#979797;stop-opacity:1"/><stop offset=".793" style="stop-color:#989898;stop-opacity:1"/><stop offset=".797" style="stop-color:#989898;stop-opacity:1"/><stop offset=".801" style="stop-color:#999;stop-opacity:1"/><stop offset=".805" style="stop-color:#9a9a9a;stop-opacity:1"/><stop offset=".809" style="stop-color:#9b9b9b;stop-opacity:1"/><stop offset=".813" style="stop-color:#9b9b9b;stop-opacity:1"/><stop offset=".816" style="stop-color:#9c9c9c;stop-opacity:1"/><stop offset=".82" style="stop-color:#9d9d9d;stop-opacity:1"/><stop offset=".824" style="stop-color:#9e9e9e;stop-opacity:1"/><stop offset=".828" style="stop-color:#9e9e9e;stop-opacity:1"/><stop offset=".832" style="stop-color:#9f9f9f;stop-opacity:1"/><stop offset=".836" style="stop-color:#a0a0a0;stop-opacity:1"/><stop offset=".84" style="stop-color:#a1a1a1;stop-opacity:1"/><stop offset=".844" style="stop-color:#a1a1a1;stop-opacity:1"/><stop offset=".848" style="stop-color:#a2a2a2;stop-opacity:1"/><stop offset=".852" style="stop-color:#a3a3a3;stop-opacity:1"/><stop offset=".855" style="stop-color:#a4a4a4;stop-opacity:1"/><stop offset=".859" style="stop-color:#a4a4a4;stop-opacity:1"/><stop offset=".863" style="stop-color:#a5a5a5;stop-opacity:1"/><stop offset=".867" style="stop-color:#a6a6a6;stop-opacity:1"/><stop offset=".871" style="stop-color:#a7a7a7;stop-opacity:1"/><stop offset=".875" style="stop-color:#a7a7a7;stop-opacity:1"/><stop offset=".879" style="stop-color:#a8a8a8;stop-opacity:1"/><stop offset=".883" style="stop-color:#a9a9a9;stop-opacity:1"/><stop offset=".887" style="stop-color:#aaa;stop-opacity:1"/><stop offset=".891" style="stop-color:#aaa;stop-opacity:1"/><stop offset=".895" style="stop-color:#ababab;stop-opacity:1"/><stop offset=".898" style="stop-color:#acacac;stop-opacity:1"/><stop offset=".902" style="stop-color:#adadad;stop-opacity:1"/><stop offset=".906" style="stop-color:#adadad;stop-opacity:1"/><stop offset=".91" style="stop-color:#aeaeae;stop-opacity:1"/><stop offset=".914" style="stop-color:#afafaf;stop-opacity:1"/><stop offset=".918" style="stop-color:#b0b0b0;stop-opacity:1"/><stop offset=".922" style="stop-color:#b0b0b0;stop-opacity:1"/><stop offset=".926" style="stop-color:#b1b1b1;stop-opacity:1"/><stop offset=".93" style="stop-color:#b2b2b2;stop-opacity:1"/><stop offset=".934" style="stop-color:#b3b3b3;stop-opacity:1"/><stop offset=".938" style="stop-color:#b3b3b3;stop-opacity:1"/><stop offset=".941" style="stop-color:#b4b4b4;stop-opacity:1"/><stop offset=".945" style="stop-color:#b5b5b5;stop-opacity:1"/><stop offset=".949" style="stop-color:#b6b6b6;stop-opacity:1"/><stop offset=".953" style="stop-color:#b6b6b6;stop-opacity:1"/><stop offset=".957" style="stop-color:#b7b7b7;stop-opacity:1"/><stop offset=".961" style="stop-color:#b8b8b8;stop-opacity:1"/><stop offset=".965" style="stop-color:#b9b9b9;stop-opacity:1"/><stop offset=".969" style="stop-color:#b9b9b9;stop-opacity:1"/><stop offset=".973" style="stop-color:#bababa;stop-opacity:1"/><stop offset=".977" style="stop-color:#bbb;stop-opacity:1"/><stop offset=".98" style="stop-color:#bbb;stop-opacity:1"/><stop offset=".984" style="stop-color:#bcbcbc;stop-opacity:1"/><stop offset=".988" style="stop-color:#bdbdbd;stop-opacity:1"/><stop offset=".992" style="stop-color:#bebebe;stop-opacity:1"/><stop offset=".996" style="stop-color:#bebebe;stop-opacity:1"/><stop offset="1" style="stop-color:#bfbfbf;stop-opacity:1"/></linearGradient></defs><g clip-path="url(#a)"><g clip-path="url(#b)"><path style="stroke:none;fill-rule:nonzero;fill:url(#c)" d="M5.18 61.676V4.98h141.734v56.696Zm0 0"/></g></g><g clip-path="url(#d)"><g clip-path="url(#e)"><path style="stroke:none;fill-rule:nonzero;fill:url(#f)" d="M5.18 118.371V61.676h141.734v56.695Zm0 0"/></g></g><path style="fill:none;stroke-width:.3985;stroke-linecap:butt;stroke-linejoin:miter;stroke:#000;stroke-opacity:1;stroke-miterlimit:10" d="M-70.867 0h28.347M42.52 0h28.347" transform="matrix(1 0 0 -1 76.047 61.676)"/><g style="fill:#000;fill-opacity:1"><use xlink:href="#g" x="65.423" y="21.373"/><use xlink:href="#h" x="67.983" y="21.373"/><use xlink:href="#i" x="70.543" y="21.373"/><use xlink:href="#j" x="75.406" y="21.373"/></g><use xlink:href="#k" x="82.055" y="21.373" style="fill:#000;fill-opacity:1"/><g style="fill:#000;fill-opacity:1"><use xlink:href="#g" x="65.423" y="92.24"/><use xlink:href="#h" x="67.983" y="92.24"/><use xlink:href="#i" x="70.543" y="92.24"/><use xlink:href="#j" x="75.406" y="92.24"/></g><use xlink:href="#l" x="82.055" y="92.24" style="fill:#000;fill-opacity:1"/><path style="fill:none;stroke-width:.79701;stroke-linecap:butt;stroke-linejoin:miter;stroke:#3686c1;stroke-opacity:1;stroke-miterlimit:10" d="M-28.348 0h-31.426" transform="matrix(1 0 0 -1 76.047 61.676)"/><path style="stroke:none;fill-rule:nonzero;fill:#3686c1;fill-opacity:1" d="m13.684 61.676 4.144 2.074-1.555-2.074 1.555-2.07"/><use xlink:href="#m" x="15.677" y="54.08" style="fill:#3686c1;fill-opacity:1"/><use xlink:href="#n" x="15.681" y="54.08" style="fill:#3686c1;fill-opacity:1"/><use xlink:href="#o" x="17.649" y="57.94" style="fill:#3686c1;fill-opacity:1"/><g style="fill:#3686c1;fill-opacity:1"><use xlink:href="#p" x="24.892" y="58.936"/><use xlink:href="#q" x="28.545" y="58.936"/></g><path style="fill:none;stroke-width:.79701;stroke-linecap:butt;stroke-linejoin:miter;stroke:#3686c1;stroke-opacity:1;stroke-miterlimit:10" d="m-28.348 0 25.942 10.375" transform="matrix(1 0 0 -1 76.047 61.676)"/><path style="stroke:none;fill-rule:nonzero;fill:#3686c1;fill-opacity:1" d="m76.047 50.336-4.617-.383 2.21 1.348-.671 2.5"/><use xlink:href="#m" x="67.537" y="42.741" style="fill:#3686c1;fill-opacity:1"/><use xlink:href="#n" x="67.541" y="42.741" style="fill:#3686c1;fill-opacity:1"/><use xlink:href="#o" x="69.509" y="46.601" style="fill:#3686c1;fill-opacity:1"/><g style="fill:#3686c1;fill-opacity:1"><use xlink:href="#r" x="76.752" y="47.597"/><use xlink:href="#q" x="80.405" y="47.597"/></g><path style="fill:none;stroke-width:.79701;stroke-linecap:butt;stroke-linejoin:miter;stroke:#3686c1;stroke-opacity:1;stroke-miterlimit:10" d="m-28.348 0 4.512-9.023" transform="matrix(1 0 0 -1 76.047 61.676)"/><path style="stroke:none;fill-rule:nonzero;fill:#3686c1;fill-opacity:1" d="M53.371 73.016v-4.633l-1.16 2.316-2.547-.465"/><use xlink:href="#m" x="44.86" y="78.346" style="fill:#3686c1;fill-opacity:1"/><use xlink:href="#n" x="44.864" y="78.346" style="fill:#3686c1;fill-opacity:1"/><use xlink:href="#o" x="46.832" y="82.206" style="fill:#3686c1;fill-opacity:1"/><g style="fill:#3686c1;fill-opacity:1"><use xlink:href="#p" x="54.075" y="83.202"/><use xlink:href="#r" x="57.728" y="83.202"/></g><path style="fill-rule:nonzero;fill:gray;fill-opacity:1;stroke-width:.3985;stroke-linecap:butt;stroke-linejoin:miter;stroke:#000;stroke-opacity:1;stroke-miterlimit:10" d="M-28.348 0C0 11.34 14.172 11.34 42.52 0 31.183-22.68-17.008-22.68-28.348 0" transform="matrix(1 0 0 -1 76.047 61.676)"/><path style="fill:none;stroke-width:.3985;stroke-linecap:butt;stroke-linejoin:miter;stroke:#000;stroke-opacity:1;stroke-miterlimit:10" d="M28.348 14.172c-12.383.746-21.512-3.82-27.25-12.508" transform="matrix(1 0 0 -1 76.047 61.676)"/><path style="stroke:none;fill-rule:nonzero;fill:#000;fill-opacity:1" d="m76.047 61.676 3.086-1.781-1.988.117-.672-1.875"/><g style="fill:#000;fill-opacity:1"><use xlink:href="#g" x="106.386" y="49.719"/><use xlink:href="#h" x="108.946" y="49.719"/><use xlink:href="#i" x="111.506" y="49.719"/><use xlink:href="#j" x="116.369" y="49.719"/></g><use xlink:href="#s" x="123.018" y="49.719" style="fill:#000;fill-opacity:1"/><path style="fill:none;stroke-width:.3985;stroke-linecap:butt;stroke-linejoin:miter;stroke:#000;stroke-opacity:1;stroke-miterlimit:10" d="M-25.512-5.668a6.23 6.23 0 0 1 2.996 7.89" transform="matrix(1 0 0 -1 76.047 61.676)"/><use xlink:href="#t" x="55.362" y="64.789" style="fill:#000;fill-opacity:1"/></svg>