<svg xmlns="http://www.w3.org/2000/svg" xmlns:xlink="http://www.w3.org/1999/xlink" width="205.973" height="128" viewBox="0 0 154.48 96"><defs><symbol overflow="visible" id="d"><path style="stroke:none" d="M4.453-.797v-.5h-.25v.484c0 .11 0 .547-.312.547-.329 0-.329-.421-.329-.562v-1.578c0-.516 0-.813-.406-1.188-.328-.297-.765-.422-1.203-.422-.766 0-1.39.375-1.39.954 0 .265.187.421.421.421.25 0 .422-.171.422-.406 0-.39-.406-.437-.406-.437.234-.235.672-.313.922-.313.469 0 .969.344.969 1.14v.282c-.485.031-1.157.063-1.75.36-.641.312-.844.78-.844 1.14 0 .734.875.969 1.469.969a1.31 1.31 0 0 0 1.218-.735c.032.375.297.688.688.688.219 0 .781-.125.781-.844Zm-1.562-.469c0 .875-.672 1.141-1.063 1.141-.422 0-.812-.313-.812-.75 0-.594.515-1.219 1.875-1.281Zm0 0"/></symbol><symbol overflow="visible" id="e"><path style="stroke:none" d="M4.813-1.938c0-1.125-.891-2.03-1.97-2.03-.609 0-1.03.312-1.25.562V-6.22l-1.327.094v.281c.609 0 .687.063.687.5V0h.25l.344-.547c.281.39.719.64 1.203.64 1.078 0 2.063-.859 2.063-2.03Zm-.782-.015c0 .422-.047.906-.281 1.266-.203.28-.563.562-1.047.562-.39 0-.734-.219-.953-.547-.125-.187-.125-.203-.125-.375v-1.812c0-.172 0-.188.094-.329.312-.406.75-.546 1.093-.546.376 0 .735.203.97.593.234.375.25.907.25 1.188Zm0 0"/></symbol><symbol overflow="visible" id="f"><path style="stroke:none" d="M3.313-1.14c0-.407-.172-.657-.376-.86-.296-.297-.624-.36-1.28-.484-.235-.047-.891-.157-.891-.672 0-.281.203-.672 1.015-.672.969 0 1.032.75 1.047.969.016.109.016.171.125.171.125 0 .125-.062.125-.234v-.86c0-.155 0-.234-.094-.234-.046 0-.062 0-.187.11-.016.015-.094.094-.156.14-.266-.203-.547-.25-.86-.25-1.187 0-1.468.657-1.468 1.11 0 .281.124.515.328.719.296.28.64.343 1.093.421.47.094.61.11.813.266.094.078.312.25.312.578 0 .797-.906.797-1.03.797-.907 0-1.141-.766-1.25-1.25-.032-.094-.048-.14-.141-.14-.126 0-.126.077-.126.234v1.14c0 .157 0 .235.094.235.063 0 .063 0 .235-.172a1.18 1.18 0 0 1 .171-.219c.375.375.797.39 1.016.39 1.11 0 1.484-.64 1.484-1.234Zm0 0"/></symbol><symbol overflow="visible" id="g"><path style="stroke:none" d="M3.828-1.063a.123.123 0 0 0-.125-.125c-.094 0-.11.063-.125.11a1.273 1.273 0 0 1-1.234.922c-.438 0-.797-.235-1-.547-.297-.438-.313-.969-.313-1.344h2.563c.187 0 .234 0 .234-.203 0-.922-.5-1.766-1.656-1.766-1.063 0-1.906.938-1.906 2.047 0 1.172.937 2.063 2.03 2.063 1.095 0 1.532-.953 1.532-1.157Zm-.61-1.203H1.048c.078-1.39.875-1.53 1.125-1.53.5 0 1.031.374 1.047 1.53Zm0 0"/></symbol><symbol overflow="visible" id="h"><path style="stroke:none" d="M4.906 0v-.281c-.453 0-.687 0-.687-.281v-1.72c0-.734 0-1-.25-1.312-.203-.25-.547-.375-1-.375-.828 0-1.219.625-1.344.875h-.016v-.875l-1.296.11v.265c.609 0 .687.063.687.516v2.39C1-.28.906-.28.312-.28V0c.422-.016.594-.031 1.032-.031.422 0 .547.015 1.015.031v-.281c-.593 0-.687 0-.687-.406v-1.641c0-.953.672-1.406 1.234-1.406.531 0 .64.437.64.968v2.079c0 .406-.093.406-.687.406V0c.422-.016.594-.031 1.032-.031.421 0 .546.015 1.015.031Zm0 0"/></symbol><symbol overflow="visible" id="i"><path style="stroke:none" d="M3.828-1.063c0-.109-.094-.109-.125-.109-.094 0-.094.016-.156.172-.203.61-.703.844-1.156.844-.579 0-1.313-.469-1.313-1.797 0-1.39.719-1.813 1.25-1.813.125 0 .61.016.938.235-.188.047-.375.172-.375.422a.42.42 0 0 0 .421.421c.235 0 .422-.156.422-.437 0-.547-.625-.89-1.421-.89-1.141 0-2 .952-2 2.077C.313-.78 1.234.095 2.296.095c1.25 0 1.531-1.078 1.531-1.157Zm0 0"/></symbol><symbol overflow="visible" id="j"><path style="stroke:none" d="M4.844 0v-.281c-.61 0-.688-.063-.688-.5V-6.22l-1.328.094v.281c.61 0 .688.063.688.5v1.907c-.047-.047-.454-.532-1.141-.532-1.11 0-2.063.89-2.063 2.047 0 1.11.891 2.016 1.954 2.016A1.59 1.59 0 0 0 3.484-.47v.563Zm-1.36-1.078c0 .156 0 .187-.125.375a1.3 1.3 0 0 1-1.046.578c-.391 0-.75-.219-.985-.594-.234-.39-.25-.906-.25-1.203 0-.422.047-.89.281-1.25a1.262 1.262 0 0 1 1.047-.562c.375 0 .735.187.969.53.11.142.11.142.11.313Zm0 0"/></symbol><symbol overflow="visible" id="k"><path style="stroke:none" d="M7.469 0v-.281c-.453 0-.672 0-.688-.281v-1.72c0-.78 0-1.03-.297-1.359-.187-.218-.546-.328-.953-.328-.656 0-1.093.375-1.343.86-.11-.532-.47-.86-1.22-.86-.718 0-1.155.469-1.343.89h-.016v-.89l-1.296.11v.265c.609 0 .687.063.687.516v2.39C1-.28.906-.28.312-.28V0c.422-.016.594-.031 1.032-.031.422 0 .547.015 1.015.031v-.281c-.593 0-.687 0-.687-.406v-1.641c0-.969.703-1.406 1.234-1.406.5 0 .656.343.656.968v2.079c0 .406-.093.406-.687.406V0c.422-.016.594-.031 1.016-.031.437 0 .546.015 1.03.031v-.281c-.593 0-.702 0-.702-.406v-1.641c0-.969.703-1.406 1.25-1.406.484 0 .64.343.64.968v2.079c0 .406-.093.406-.687.406V0c.422-.016.594-.031 1.031-.031.422 0 .547.015 1.016.031Zm0 0"/></symbol><symbol overflow="visible" id="l"><path style="stroke:none" d="M4.344-1.906c0-1.172-.938-2.11-2.032-2.11-1.14 0-2.046.954-2.046 2.11 0 1.11.921 2 2.03 2 1.142 0 2.048-.906 2.048-2Zm-.782-.078c0 .328 0 .843-.218 1.234a1.18 1.18 0 0 1-1.031.594c-.454 0-.829-.219-1.032-.563-.234-.39-.25-.86-.25-1.265 0-.344 0-.844.219-1.22a1.222 1.222 0 0 1 1.047-.593c.515 0 .875.297 1.062.594.204.375.204.828.204 1.219Zm0 0"/></symbol><symbol overflow="visible" id="m"><path style="stroke:none" d="M4.906 0v-.281c-.61 0-.687-.063-.687-.5V-3.97l-1.36.11v.265c.61 0 .688.063.688.516V-1.5c0 .797-.438 1.375-1.094 1.375-.734 0-.781-.39-.781-.875v-2.969l-1.36.11v.265c.688 0 .688.031.688.828v1.344c0 .594 0 .969.422 1.281.25.172.625.235.984.235.469 0 .906-.203 1.156-.735h.016v.735Zm0 0"/></symbol><symbol overflow="visible" id="n"><path style="stroke:none" d="M2.266 0v-.281c-.579 0-.61-.047-.61-.39V-3.97l-1.297.11v.265c.579 0 .657.063.657.5v2.406c0 .407-.094.407-.688.407V0c.39-.016.594-.031.984-.031.141 0 .516 0 .954.031Zm-.5-5.406a.487.487 0 0 0-.485-.485.487.487 0 0 0-.484.485c0 .265.219.484.484.484a.487.487 0 0 0 .485-.484Zm0 0"/></symbol><symbol overflow="visible" id="o"><path style="stroke:none" d="M2.344 0v-.281c-.594 0-.688 0-.688-.406V-6.22l-1.328.094v.281c.61 0 .688.063.688.5v4.657c0 .406-.094.406-.688.406V0c.422-.016.594-.031 1-.031.422 0 .578.015 1.016.031Zm0 0"/></symbol><symbol overflow="visible" id="p"><path style="stroke:none" d="M2.563-1.656v-.563H.092v.563Zm0 0"/></symbol><symbol overflow="visible" id="q"><path style="stroke:none" d="M4.469-3.61a.457.457 0 0 0-.485-.453c-.25 0-.656.094-.968.422a1.541 1.541 0 0 0-.97-.328c-.858 0-1.5.61-1.5 1.328 0 .454.266.782.407.907a1.262 1.262 0 0 0-.265.75c0 .296.14.625.39.78C.625-.046.266.282.266.704c0 .64.875 1.14 2.03 1.14 1.11 0 2.048-.468 2.048-1.155 0-.375-.172-.766-.5-.985-.5-.312-1.031-.312-1.875-.312-.188 0-.469 0-.547-.016C1.172-.688 1-.922 1-1.203c0-.156.047-.281.125-.406.219.14.5.28.906.28.86 0 1.5-.609 1.5-1.312 0-.437-.25-.75-.36-.875.36-.328.782-.328.876-.328-.031.031-.11.078-.11.235 0 .109.063.265.266.265.125 0 .266-.078.266-.265Zm-1.625.97c0 .203 0 1.078-.813 1.078-.797 0-.797-.891-.797-1.079 0-.25.016-.546.172-.765a.792.792 0 0 1 .625-.313c.813 0 .813.86.813 1.078Zm1 3.328c0 .515-.703.921-1.531.921-.891 0-1.547-.421-1.547-.921 0-.141.093-.735.859-.735h.828c.281 0 1.39.016 1.39.735Zm0 0"/></symbol><symbol overflow="visible" id="u"><path style="stroke:none" d="M4.813-1.938c0-1.125-.891-2.03-1.938-2.03-.484 0-.938.202-1.281.562v-.563l-1.328.11v.265c.64 0 .687.063.687.453v4.188c0 .422-.094.422-.687.422v.265c.421-.015.593-.015 1.03-.015.423 0 .548 0 1.016.015V1.47c-.593 0-.687 0-.687-.422V-.437c.234.234.531.53 1.125.53 1.078 0 2.063-.859 2.063-2.03Zm-.782 0c0 1.016-.61 1.813-1.328 1.813-.406 0-.75-.234-.969-.547-.109-.187-.109-.203-.109-.375v-1.969a1.368 1.368 0 0 1 1.172-.703c.703 0 1.234.813 1.234 1.781Zm0 0"/></symbol><symbol overflow="visible" id="v"><path style="stroke:none" d="M3.344-3.406c0-.281-.266-.563-.672-.563-.531 0-.906.375-1.125.938v-.938l-1.281.11v.265c.609 0 .687.063.687.516v2.39C.953-.28.86-.28.266-.28V0C.75-.016.859-.031 1.312-.031L2.454 0v-.281h-.172c-.656 0-.687-.094-.687-.422v-1.344c0-.375.093-1.687 1.125-1.687-.016.015-.156.125-.156.328a.39.39 0 1 0 .78 0Zm0 0"/></symbol><symbol overflow="visible" id="w"><path style="stroke:none" d="M3.063-1.11v-.515h-.25v.484c0 .672-.282.985-.594.985-.61 0-.61-.781-.61-.953v-2.485h1.313v-.265H1.609v-1.657h-.25c0 .75-.312 1.672-1.187 1.704v.218h.781v2.485c0 1 .719 1.203 1.203 1.203.594 0 .906-.563.906-1.203Zm0 0"/></symbol><clipPath id="a"><path d="M29 12h67v22H29Zm0 0"/></clipPath><clipPath id="b"><path d="M34.125 33.527c-28.348-28.343 85.04-28.343 56.691 0Zm0 0"/></clipPath><clipPath id="r"><path d="M34 51h57v11H34Zm0 0"/></clipPath><clipPath id="s"><path d="M34.125 61.875c14.172-14.172 42.52-14.172 56.691 0Zm0 0"/></clipPath><clipPath id="x"><path d="M5.777 85.242h113.387V90H5.777Zm0 0"/></clipPath><linearGradient id="c" gradientUnits="userSpaceOnUse" x1="0" y1="25.003" x2="0" y2="74.997" gradientTransform="matrix(2.26802 0 0 -.567 -50.93 47.706)"><stop offset="0" style="stop-color:gray;stop-opacity:1"/><stop offset=".008" style="stop-color:gray;stop-opacity:1"/><stop offset=".016" style="stop-color:#818181;stop-opacity:1"/><stop offset=".023" style="stop-color:#828282;stop-opacity:1"/><stop offset=".031" style="stop-color:#838383;stop-opacity:1"/><stop offset=".039" style="stop-color:#848484;stop-opacity:1"/><stop offset=".047" style="stop-color:#858585;stop-opacity:1"/><stop offset=".055" style="stop-color:#868686;stop-opacity:1"/><stop offset=".063" style="stop-color:#878787;stop-opacity:1"/><stop offset=".07" style="stop-color:#888;stop-opacity:1"/><stop offset=".078" style="stop-color:#898989;stop-opacity:1"/><stop offset=".086" style="stop-color:#8a8a8a;stop-opacity:1"/><stop offset=".094" style="stop-color:#8b8b8b;stop-opacity:1"/><stop offset=".102" style="stop-color:#8c8c8c;stop-opacity:1"/><stop offset=".109" style="stop-color:#8d8d8d;stop-opacity:1"/><stop offset=".117" style="stop-color:#8e8e8e;stop-opacity:1"/><stop offset=".125" style="stop-color:#8f8f8f;stop-opacity:1"/><stop offset=".133" style="stop-color:#909090;stop-opacity:1"/><stop offset=".141" style="stop-color:#919191;stop-opacity:1"/><stop offset=".148" style="stop-color:#929292;stop-opacity:1"/><stop offset=".156" style="stop-color:#939393;stop-opacity:1"/><stop offset=".164" style="stop-color:#949494;stop-opacity:1"/><stop offset=".172" style="stop-color:#959595;stop-opacity:1"/><stop offset=".18" style="stop-color:#969696;stop-opacity:1"/><stop offset=".188" style="stop-color:#979797;stop-opacity:1"/><stop offset=".195" style="stop-color:#989898;stop-opacity:1"/><stop offset=".203" style="stop-color:#999;stop-opacity:1"/><stop offset=".211" style="stop-color:#9a9a9a;stop-opacity:1"/><stop offset=".219" style="stop-color:#9b9b9b;stop-opacity:1"/><stop offset=".227" style="stop-color:#9c9c9c;stop-opacity:1"/><stop offset=".234" style="stop-color:#9d9d9d;stop-opacity:1"/><stop offset=".242" style="stop-color:#9e9e9e;stop-opacity:1"/><stop offset=".25" style="stop-color:#9f9f9f;stop-opacity:1"/><stop offset=".258" style="stop-color:#a0a0a0;stop-opacity:1"/><stop offset=".266" style="stop-color:#a1a1a1;stop-opacity:1"/><stop offset=".273" style="stop-color:#a2a2a2;stop-opacity:1"/><stop offset=".281" style="stop-color:#a3a3a3;stop-opacity:1"/><stop offset=".289" style="stop-color:#a4a4a4;stop-opacity:1"/><stop offset=".297" style="stop-color:#a5a5a5;stop-opacity:1"/><stop offset=".305" style="stop-color:#a6a6a6;stop-opacity:1"/><stop offset=".313" style="stop-color:#a7a7a7;stop-opacity:1"/><stop offset=".32" style="stop-color:#a8a8a8;stop-opacity:1"/><stop offset=".328" style="stop-color:#a9a9a9;stop-opacity:1"/><stop offset=".336" style="stop-color:#aaa;stop-opacity:1"/><stop offset=".344" style="stop-color:#ababab;stop-opacity:1"/><stop offset=".352" style="stop-color:#acacac;stop-opacity:1"/><stop offset=".359" style="stop-color:#adadad;stop-opacity:1"/><stop offset=".367" style="stop-color:#aeaeae;stop-opacity:1"/><stop offset=".375" style="stop-color:#afafaf;stop-opacity:1"/><stop offset=".383" style="stop-color:#b0b0b0;stop-opacity:1"/><stop offset=".391" style="stop-color:#b1b1b1;stop-opacity:1"/><stop offset=".398" style="stop-color:#b2b2b2;stop-opacity:1"/><stop offset=".406" style="stop-color:#b3b3b3;stop-opacity:1"/><stop offset=".414" style="stop-color:#b4b4b4;stop-opacity:1"/><stop offset=".422" style="stop-color:#b5b5b5;stop-opacity:1"/><stop offset=".43" style="stop-color:#b6b6b6;stop-opacity:1"/><stop offset=".438" style="stop-color:#b7b7b7;stop-opacity:1"/><stop offset=".445" style="stop-color:#b8b8b8;stop-opacity:1"/><stop offset=".453" style="stop-color:#b9b9b9;stop-opacity:1"/><stop offset=".461" style="stop-color:#bababa;stop-opacity:1"/><stop offset=".469" style="stop-color:#bbb;stop-opacity:1"/><stop offset=".477" style="stop-color:#bcbcbc;stop-opacity:1"/><stop offset=".484" style="stop-color:#bdbdbd;stop-opacity:1"/><stop offset=".492" style="stop-color:#bebebe;stop-opacity:1"/><stop offset=".5" style="stop-color:#bfbfbf;stop-opacity:1"/><stop offset=".508" style="stop-color:silver;stop-opacity:1"/><stop offset=".516" style="stop-color:#c1c1c1;stop-opacity:1"/><stop offset=".523" style="stop-color:#c2c2c2;stop-opacity:1"/><stop offset=".531" style="stop-color:#c3c3c3;stop-opacity:1"/><stop offset=".539" style="stop-color:#c4c4c4;stop-opacity:1"/><stop offset=".547" style="stop-color:#c5c5c5;stop-opacity:1"/><stop offset=".555" style="stop-color:#c6c6c6;stop-opacity:1"/><stop offset=".563" style="stop-color:#c7c7c7;stop-opacity:1"/><stop offset=".57" style="stop-color:#c8c8c8;stop-opacity:1"/><stop offset=".578" style="stop-color:#c9c9c9;stop-opacity:1"/><stop offset=".586" style="stop-color:#cacaca;stop-opacity:1"/><stop offset=".594" style="stop-color:#cbcbcb;stop-opacity:1"/><stop offset=".602" style="stop-color:#ccc;stop-opacity:1"/><stop offset=".609" style="stop-color:#cdcdcd;stop-opacity:1"/><stop offset=".617" style="stop-color:#cecece;stop-opacity:1"/><stop offset=".625" style="stop-color:#cfcfcf;stop-opacity:1"/><stop offset=".633" style="stop-color:#d0d0d0;stop-opacity:1"/><stop offset=".641" style="stop-color:#d1d1d1;stop-opacity:1"/><stop offset=".648" style="stop-color:#d2d2d2;stop-opacity:1"/><stop offset=".656" style="stop-color:#d3d3d3;stop-opacity:1"/><stop offset=".664" style="stop-color:#d4d4d4;stop-opacity:1"/><stop offset=".672" style="stop-color:#d5d5d5;stop-opacity:1"/><stop offset=".68" style="stop-color:#d6d6d6;stop-opacity:1"/><stop offset=".688" style="stop-color:#d7d7d7;stop-opacity:1"/><stop offset=".695" style="stop-color:#d8d8d8;stop-opacity:1"/><stop offset=".703" style="stop-color:#d9d9d9;stop-opacity:1"/><stop offset=".711" style="stop-color:#dadada;stop-opacity:1"/><stop offset=".719" style="stop-color:#dbdbdb;stop-opacity:1"/><stop offset=".727" style="stop-color:#dcdcdc;stop-opacity:1"/><stop offset=".734" style="stop-color:#ddd;stop-opacity:1"/><stop offset=".742" style="stop-color:#dedede;stop-opacity:1"/><stop offset=".75" style="stop-color:#dfdfdf;stop-opacity:1"/><stop offset=".758" style="stop-color:#e0e0e0;stop-opacity:1"/><stop offset=".766" style="stop-color:#e1e1e1;stop-opacity:1"/><stop offset=".773" style="stop-color:#e2e2e2;stop-opacity:1"/><stop offset=".781" style="stop-color:#e3e3e3;stop-opacity:1"/><stop offset=".789" style="stop-color:#e4e4e4;stop-opacity:1"/><stop offset=".797" style="stop-color:#e5e5e5;stop-opacity:1"/><stop offset=".805" style="stop-color:#e6e6e6;stop-opacity:1"/><stop offset=".813" style="stop-color:#e7e7e7;stop-opacity:1"/><stop offset=".82" style="stop-color:#e8e8e8;stop-opacity:1"/><stop offset=".828" style="stop-color:#e9e9e9;stop-opacity:1"/><stop offset=".836" style="stop-color:#eaeaea;stop-opacity:1"/><stop offset=".844" style="stop-color:#ebebeb;stop-opacity:1"/><stop offset=".852" style="stop-color:#ececec;stop-opacity:1"/><stop offset=".859" style="stop-color:#ededed;stop-opacity:1"/><stop offset=".867" style="stop-color:#eee;stop-opacity:1"/><stop offset=".875" style="stop-color:#efefef;stop-opacity:1"/><stop offset=".883" style="stop-color:#f0f0f0;stop-opacity:1"/><stop offset=".891" style="stop-color:#f1f1f1;stop-opacity:1"/><stop offset=".898" style="stop-color:#f2f2f2;stop-opacity:1"/><stop offset=".906" style="stop-color:#f3f3f3;stop-opacity:1"/><stop offset=".914" style="stop-color:#f4f4f4;stop-opacity:1"/><stop offset=".922" style="stop-color:#f5f5f5;stop-opacity:1"/><stop offset=".93" style="stop-color:#f6f6f6;stop-opacity:1"/><stop offset=".938" style="stop-color:#f7f7f7;stop-opacity:1"/><stop offset=".945" style="stop-color:#f8f8f8;stop-opacity:1"/><stop offset=".953" style="stop-color:#f9f9f9;stop-opacity:1"/><stop offset=".961" style="stop-color:#fafafa;stop-opacity:1"/><stop offset=".969" style="stop-color:#fbfbfb;stop-opacity:1"/><stop offset=".977" style="stop-color:#fcfcfc;stop-opacity:1"/><stop offset=".984" style="stop-color:#fcfcfc;stop-opacity:1"/><stop offset=".992" style="stop-color:#fdfdfd;stop-opacity:1"/><stop offset="1" style="stop-color:#fefefe;stop-opacity:1"/></linearGradient><linearGradient id="t" gradientUnits="userSpaceOnUse" x1="0" y1="25.003" x2="0" y2="74.997" gradientTransform="matrix(1.134 0 0 -.2835 5.771 68.964)"><stop offset="0" style="stop-color:gray;stop-opacity:1"/><stop offset=".008" style="stop-color:gray;stop-opacity:1"/><stop offset=".016" style="stop-color:#818181;stop-opacity:1"/><stop offset=".023" style="stop-color:#828282;stop-opacity:1"/><stop offset=".031" style="stop-color:#838383;stop-opacity:1"/><stop offset=".039" style="stop-color:#848484;stop-opacity:1"/><stop offset=".047" style="stop-color:#858585;stop-opacity:1"/><stop offset=".055" style="stop-color:#868686;stop-opacity:1"/><stop offset=".063" style="stop-color:#878787;stop-opacity:1"/><stop offset=".07" style="stop-color:#888;stop-opacity:1"/><stop offset=".078" style="stop-color:#898989;stop-opacity:1"/><stop offset=".086" style="stop-color:#8a8a8a;stop-opacity:1"/><stop offset=".094" style="stop-color:#8b8b8b;stop-opacity:1"/><stop offset=".102" style="stop-color:#8c8c8c;stop-opacity:1"/><stop offset=".109" style="stop-color:#8d8d8d;stop-opacity:1"/><stop offset=".117" style="stop-color:#8e8e8e;stop-opacity:1"/><stop offset=".125" style="stop-color:#8f8f8f;stop-opacity:1"/><stop offset=".133" style="stop-color:#909090;stop-opacity:1"/><stop offset=".141" style="stop-color:#919191;stop-opacity:1"/><stop offset=".148" style="stop-color:#929292;stop-opacity:1"/><stop offset=".156" style="stop-color:#939393;stop-opacity:1"/><stop offset=".164" style="stop-color:#949494;stop-opacity:1"/><stop offset=".172" style="stop-color:#959595;stop-opacity:1"/><stop offset=".18" style="stop-color:#969696;stop-opacity:1"/><stop offset=".188" style="stop-color:#979797;stop-opacity:1"/><stop offset=".195" style="stop-color:#989898;stop-opacity:1"/><stop offset=".203" style="stop-color:#999;stop-opacity:1"/><stop offset=".211" style="stop-color:#9a9a9a;stop-opacity:1"/><stop offset=".219" style="stop-color:#9b9b9b;stop-opacity:1"/><stop offset=".227" style="stop-color:#9c9c9c;stop-opacity:1"/><stop offset=".234" style="stop-color:#9d9d9d;stop-opacity:1"/><stop offset=".242" style="stop-color:#9e9e9e;stop-opacity:1"/><stop offset=".25" style="stop-color:#9f9f9f;stop-opacity:1"/><stop offset=".258" style="stop-color:#a0a0a0;stop-opacity:1"/><stop offset=".266" style="stop-color:#a1a1a1;stop-opacity:1"/><stop offset=".273" style="stop-color:#a2a2a2;stop-opacity:1"/><stop offset=".281" style="stop-color:#a3a3a3;stop-opacity:1"/><stop offset=".289" style="stop-color:#a4a4a4;stop-opacity:1"/><stop offset=".297" style="stop-color:#a5a5a5;stop-opacity:1"/><stop offset=".305" style="stop-color:#a6a6a6;stop-opacity:1"/><stop offset=".313" style="stop-color:#a7a7a7;stop-opacity:1"/><stop offset=".32" style="stop-color:#a8a8a8;stop-opacity:1"/><stop offset=".328" style="stop-color:#a9a9a9;stop-opacity:1"/><stop offset=".336" style="stop-color:#aaa;stop-opacity:1"/><stop offset=".344" style="stop-color:#ababab;stop-opacity:1"/><stop offset=".352" style="stop-color:#acacac;stop-opacity:1"/><stop offset=".359" style="stop-color:#adadad;stop-opacity:1"/><stop offset=".367" style="stop-color:#aeaeae;stop-opacity:1"/><stop offset=".375" style="stop-color:#afafaf;stop-opacity:1"/><stop offset=".383" style="stop-color:#b0b0b0;stop-opacity:1"/><stop offset=".391" style="stop-color:#b1b1b1;stop-opacity:1"/><stop offset=".398" style="stop-color:#b2b2b2;stop-opacity:1"/><stop offset=".406" style="stop-color:#b3b3b3;stop-opacity:1"/><stop offset=".414" style="stop-color:#b4b4b4;stop-opacity:1"/><stop offset=".422" style="stop-color:#b5b5b5;stop-opacity:1"/><stop offset=".43" style="stop-color:#b6b6b6;stop-opacity:1"/><stop offset=".438" style="stop-color:#b7b7b7;stop-opacity:1"/><stop offset=".445" style="stop-color:#b8b8b8;stop-opacity:1"/><stop offset=".453" style="stop-color:#b9b9b9;stop-opacity:1"/><stop offset=".461" style="stop-color:#bababa;stop-opacity:1"/><stop offset=".469" style="stop-color:#bbb;stop-opacity:1"/><stop offset=".477" style="stop-color:#bcbcbc;stop-opacity:1"/><stop offset=".484" style="stop-color:#bdbdbd;stop-opacity:1"/><stop offset=".492" style="stop-color:#bebebe;stop-opacity:1"/><stop offset=".5" style="stop-color:#bfbfbf;stop-opacity:1"/><stop offset=".508" style="stop-color:silver;stop-opacity:1"/><stop offset=".516" style="stop-color:#c1c1c1;stop-opacity:1"/><stop offset=".523" style="stop-color:#c2c2c2;stop-opacity:1"/><stop offset=".531" style="stop-color:#c3c3c3;stop-opacity:1"/><stop offset=".539" style="stop-color:#c4c4c4;stop-opacity:1"/><stop offset=".547" style="stop-color:#c5c5c5;stop-opacity:1"/><stop offset=".555" style="stop-color:#c6c6c6;stop-opacity:1"/><stop offset=".563" style="stop-color:#c7c7c7;stop-opacity:1"/><stop offset=".57" style="stop-color:#c8c8c8;stop-opacity:1"/><stop offset=".578" style="stop-color:#c9c9c9;stop-opacity:1"/><stop offset=".586" style="stop-color:#cacaca;stop-opacity:1"/><stop offset=".594" style="stop-color:#cbcbcb;stop-opacity:1"/><stop offset=".602" style="stop-color:#ccc;stop-opacity:1"/><stop offset=".609" style="stop-color:#cdcdcd;stop-opacity:1"/><stop offset=".617" style="stop-color:#cecece;stop-opacity:1"/><stop offset=".625" style="stop-color:#cfcfcf;stop-opacity:1"/><stop offset=".633" style="stop-color:#d0d0d0;stop-opacity:1"/><stop offset=".641" style="stop-color:#d1d1d1;stop-opacity:1"/><stop offset=".648" style="stop-color:#d2d2d2;stop-opacity:1"/><stop offset=".656" style="stop-color:#d3d3d3;stop-opacity:1"/><stop offset=".664" style="stop-color:#d4d4d4;stop-opacity:1"/><stop offset=".672" style="stop-color:#d5d5d5;stop-opacity:1"/><stop offset=".68" style="stop-color:#d6d6d6;stop-opacity:1"/><stop offset=".688" style="stop-color:#d7d7d7;stop-opacity:1"/><stop offset=".695" style="stop-color:#d8d8d8;stop-opacity:1"/><stop offset=".703" style="stop-color:#d9d9d9;stop-opacity:1"/><stop offset=".711" style="stop-color:#dadada;stop-opacity:1"/><stop offset=".719" style="stop-color:#dbdbdb;stop-opacity:1"/><stop offset=".727" style="stop-color:#dcdcdc;stop-opacity:1"/><stop offset=".734" style="stop-color:#ddd;stop-opacity:1"/><stop offset=".742" style="stop-color:#dedede;stop-opacity:1"/><stop offset=".75" style="stop-color:#dfdfdf;stop-opacity:1"/><stop offset=".758" style="stop-color:#e0e0e0;stop-opacity:1"/><stop offset=".766" style="stop-color:#e1e1e1;stop-opacity:1"/><stop offset=".773" style="stop-color:#e2e2e2;stop-opacity:1"/><stop offset=".781" style="stop-color:#e3e3e3;stop-opacity:1"/><stop offset=".789" style="stop-color:#e4e4e4;stop-opacity:1"/><stop offset=".797" style="stop-color:#e5e5e5;stop-opacity:1"/><stop offset=".805" style="stop-color:#e6e6e6;stop-opacity:1"/><stop offset=".813" style="stop-color:#e7e7e7;stop-opacity:1"/><stop offset=".82" style="stop-color:#e8e8e8;stop-opacity:1"/><stop offset=".828" style="stop-color:#e9e9e9;stop-opacity:1"/><stop offset=".836" style="stop-color:#eaeaea;stop-opacity:1"/><stop offset=".844" style="stop-color:#ebebeb;stop-opacity:1"/><stop offset=".852" style="stop-color:#ececec;stop-opacity:1"/><stop offset=".859" style="stop-color:#ededed;stop-opacity:1"/><stop offset=".867" style="stop-color:#eee;stop-opacity:1"/><stop offset=".875" style="stop-color:#efefef;stop-opacity:1"/><stop offset=".883" style="stop-color:#f0f0f0;stop-opacity:1"/><stop offset=".891" style="stop-color:#f1f1f1;stop-opacity:1"/><stop offset=".898" style="stop-color:#f2f2f2;stop-opacity:1"/><stop offset=".906" style="stop-color:#f3f3f3;stop-opacity:1"/><stop offset=".914" style="stop-color:#f4f4f4;stop-opacity:1"/><stop offset=".922" style="stop-color:#f5f5f5;stop-opacity:1"/><stop offset=".93" style="stop-color:#f6f6f6;stop-opacity:1"/><stop offset=".938" style="stop-color:#f7f7f7;stop-opacity:1"/><stop offset=".945" style="stop-color:#f8f8f8;stop-opacity:1"/><stop offset=".953" style="stop-color:#f9f9f9;stop-opacity:1"/><stop offset=".961" style="stop-color:#fafafa;stop-opacity:1"/><stop offset=".969" style="stop-color:#fbfbfb;stop-opacity:1"/><stop offset=".977" style="stop-color:#fcfcfc;stop-opacity:1"/><stop offset=".984" style="stop-color:#fcfcfc;stop-opacity:1"/><stop offset=".992" style="stop-color:#fdfdfd;stop-opacity:1"/><stop offset="1" style="stop-color:#fefefe;stop-opacity:1"/></linearGradient><linearGradient id="y" gradientUnits="userSpaceOnUse" x1="0" y1="25.003" x2="0" y2="74.997" gradientTransform="matrix(2.26802 0 0 -.09964 -50.93 92.714)"><stop offset="0" style="stop-color:gray;stop-opacity:1"/><stop offset=".008" style="stop-color:gray;stop-opacity:1"/><stop offset=".016" style="stop-color:#818181;stop-opacity:1"/><stop offset=".023" style="stop-color:#828282;stop-opacity:1"/><stop offset=".031" style="stop-color:#838383;stop-opacity:1"/><stop offset=".039" style="stop-color:#848484;stop-opacity:1"/><stop offset=".047" style="stop-color:#858585;stop-opacity:1"/><stop offset=".055" style="stop-color:#868686;stop-opacity:1"/><stop offset=".063" style="stop-color:#878787;stop-opacity:1"/><stop offset=".07" style="stop-color:#888;stop-opacity:1"/><stop offset=".078" style="stop-color:#898989;stop-opacity:1"/><stop offset=".086" style="stop-color:#8a8a8a;stop-opacity:1"/><stop offset=".094" style="stop-color:#8b8b8b;stop-opacity:1"/><stop offset=".102" style="stop-color:#8c8c8c;stop-opacity:1"/><stop offset=".109" style="stop-color:#8d8d8d;stop-opacity:1"/><stop offset=".117" style="stop-color:#8e8e8e;stop-opacity:1"/><stop offset=".125" style="stop-color:#8f8f8f;stop-opacity:1"/><stop offset=".133" style="stop-color:#909090;stop-opacity:1"/><stop offset=".141" style="stop-color:#919191;stop-opacity:1"/><stop offset=".148" style="stop-color:#929292;stop-opacity:1"/><stop offset=".156" style="stop-color:#939393;stop-opacity:1"/><stop offset=".164" style="stop-color:#949494;stop-opacity:1"/><stop offset=".172" style="stop-color:#959595;stop-opacity:1"/><stop offset=".18" style="stop-color:#969696;stop-opacity:1"/><stop offset=".188" style="stop-color:#979797;stop-opacity:1"/><stop offset=".195" style="stop-color:#989898;stop-opacity:1"/><stop offset=".203" style="stop-color:#999;stop-opacity:1"/><stop offset=".211" style="stop-color:#9a9a9a;stop-opacity:1"/><stop offset=".219" style="stop-color:#9b9b9b;stop-opacity:1"/><stop offset=".227" style="stop-color:#9c9c9c;stop-opacity:1"/><stop offset=".234" style="stop-color:#9d9d9d;stop-opacity:1"/><stop offset=".242" style="stop-color:#9e9e9e;stop-opacity:1"/><stop offset=".25" style="stop-color:#9f9f9f;stop-opacity:1"/><stop offset=".258" style="stop-color:#a0a0a0;stop-opacity:1"/><stop offset=".266" style="stop-color:#a1a1a1;stop-opacity:1"/><stop offset=".273" style="stop-color:#a2a2a2;stop-opacity:1"/><stop offset=".281" style="stop-color:#a3a3a3;stop-opacity:1"/><stop offset=".289" style="stop-color:#a4a4a4;stop-opacity:1"/><stop offset=".297" style="stop-color:#a5a5a5;stop-opacity:1"/><stop offset=".305" style="stop-color:#a6a6a6;stop-opacity:1"/><stop offset=".313" style="stop-color:#a7a7a7;stop-opacity:1"/><stop offset=".32" style="stop-color:#a8a8a8;stop-opacity:1"/><stop offset=".328" style="stop-color:#a9a9a9;stop-opacity:1"/><stop offset=".336" style="stop-color:#aaa;stop-opacity:1"/><stop offset=".344" style="stop-color:#ababab;stop-opacity:1"/><stop offset=".352" style="stop-color:#acacac;stop-opacity:1"/><stop offset=".359" style="stop-color:#adadad;stop-opacity:1"/><stop offset=".367" style="stop-color:#aeaeae;stop-opacity:1"/><stop offset=".375" style="stop-color:#afafaf;stop-opacity:1"/><stop offset=".383" style="stop-color:#b0b0b0;stop-opacity:1"/><stop offset=".391" style="stop-color:#b1b1b1;stop-opacity:1"/><stop offset=".398" style="stop-color:#b2b2b2;stop-opacity:1"/><stop offset=".406" style="stop-color:#b3b3b3;stop-opacity:1"/><stop offset=".414" style="stop-color:#b4b4b4;stop-opacity:1"/><stop offset=".422" style="stop-color:#b5b5b5;stop-opacity:1"/><stop offset=".43" style="stop-color:#b6b6b6;stop-opacity:1"/><stop offset=".438" style="stop-color:#b7b7b7;stop-opacity:1"/><stop offset=".445" style="stop-color:#b8b8b8;stop-opacity:1"/><stop offset=".453" style="stop-color:#b9b9b9;stop-opacity:1"/><stop offset=".461" style="stop-color:#bababa;stop-opacity:1"/><stop offset=".469" style="stop-color:#bbb;stop-opacity:1"/><stop offset=".477" style="stop-color:#bcbcbc;stop-opacity:1"/><stop offset=".484" style="stop-color:#bdbdbd;stop-opacity:1"/><stop offset=".492" style="stop-color:#bebebe;stop-opacity:1"/><stop offset=".5" style="stop-color:#bfbfbf;stop-opacity:1"/><stop offset=".508" style="stop-color:silver;stop-opacity:1"/><stop offset=".516" style="stop-color:#c1c1c1;stop-opacity:1"/><stop offset=".523" style="stop-color:#c2c2c2;stop-opacity:1"/><stop offset=".531" style="stop-color:#c3c3c3;stop-opacity:1"/><stop offset=".539" style="stop-color:#c4c4c4;stop-opacity:1"/><stop offset=".547" style="stop-color:#c5c5c5;stop-opacity:1"/><stop offset=".555" style="stop-color:#c6c6c6;stop-opacity:1"/><stop offset=".563" style="stop-color:#c7c7c7;stop-opacity:1"/><stop offset=".57" style="stop-color:#c8c8c8;stop-opacity:1"/><stop offset=".578" style="stop-color:#c9c9c9;stop-opacity:1"/><stop offset=".586" style="stop-color:#cacaca;stop-opacity:1"/><stop offset=".594" style="stop-color:#cbcbcb;stop-opacity:1"/><stop offset=".602" style="stop-color:#ccc;stop-opacity:1"/><stop offset=".609" style="stop-color:#cdcdcd;stop-opacity:1"/><stop offset=".617" style="stop-color:#cecece;stop-opacity:1"/><stop offset=".625" style="stop-color:#cfcfcf;stop-opacity:1"/><stop offset=".633" style="stop-color:#d0d0d0;stop-opacity:1"/><stop offset=".641" style="stop-color:#d1d1d1;stop-opacity:1"/><stop offset=".648" style="stop-color:#d2d2d2;stop-opacity:1"/><stop offset=".656" style="stop-color:#d3d3d3;stop-opacity:1"/><stop offset=".664" style="stop-color:#d4d4d4;stop-opacity:1"/><stop offset=".672" style="stop-color:#d5d5d5;stop-opacity:1"/><stop offset=".68" style="stop-color:#d6d6d6;stop-opacity:1"/><stop offset=".688" style="stop-color:#d7d7d7;stop-opacity:1"/><stop offset=".695" style="stop-color:#d8d8d8;stop-opacity:1"/><stop offset=".703" style="stop-color:#d9d9d9;stop-opacity:1"/><stop offset=".711" style="stop-color:#dadada;stop-opacity:1"/><stop offset=".719" style="stop-color:#dbdbdb;stop-opacity:1"/><stop offset=".727" style="stop-color:#dcdcdc;stop-opacity:1"/><stop offset=".734" style="stop-color:#ddd;stop-opacity:1"/><stop offset=".742" style="stop-color:#dedede;stop-opacity:1"/><stop offset=".75" style="stop-color:#dfdfdf;stop-opacity:1"/><stop offset=".758" style="stop-color:#e0e0e0;stop-opacity:1"/><stop offset=".766" style="stop-color:#e1e1e1;stop-opacity:1"/><stop offset=".773" style="stop-color:#e2e2e2;stop-opacity:1"/><stop offset=".781" style="stop-color:#e3e3e3;stop-opacity:1"/><stop offset=".789" style="stop-color:#e4e4e4;stop-opacity:1"/><stop offset=".797" style="stop-color:#e5e5e5;stop-opacity:1"/><stop offset=".805" style="stop-color:#e6e6e6;stop-opacity:1"/><stop offset=".813" style="stop-color:#e7e7e7;stop-opacity:1"/><stop offset=".82" style="stop-color:#e8e8e8;stop-opacity:1"/><stop offset=".828" style="stop-color:#e9e9e9;stop-opacity:1"/><stop offset=".836" style="stop-color:#eaeaea;stop-opacity:1"/><stop offset=".844" style="stop-color:#ebebeb;stop-opacity:1"/><stop offset=".852" style="stop-color:#ececec;stop-opacity:1"/><stop offset=".859" style="stop-color:#ededed;stop-opacity:1"/><stop offset=".867" style="stop-color:#eee;stop-opacity:1"/><stop offset=".875" style="stop-color:#efefef;stop-opacity:1"/><stop offset=".883" style="stop-color:#f0f0f0;stop-opacity:1"/><stop offset=".891" style="stop-color:#f1f1f1;stop-opacity:1"/><stop offset=".898" style="stop-color:#f2f2f2;stop-opacity:1"/><stop offset=".906" style="stop-color:#f3f3f3;stop-opacity:1"/><stop offset=".914" style="stop-color:#f4f4f4;stop-opacity:1"/><stop offset=".922" style="stop-color:#f5f5f5;stop-opacity:1"/><stop offset=".93" style="stop-color:#f6f6f6;stop-opacity:1"/><stop offset=".938" style="stop-color:#f7f7f7;stop-opacity:1"/><stop offset=".945" style="stop-color:#f8f8f8;stop-opacity:1"/><stop offset=".953" style="stop-color:#f9f9f9;stop-opacity:1"/><stop offset=".961" style="stop-color:#fafafa;stop-opacity:1"/><stop offset=".969" style="stop-color:#fbfbfb;stop-opacity:1"/><stop offset=".977" style="stop-color:#fcfcfc;stop-opacity:1"/><stop offset=".984" style="stop-color:#fcfcfc;stop-opacity:1"/><stop offset=".992" style="stop-color:#fdfdfd;stop-opacity:1"/><stop offset="1" style="stop-color:#fefefe;stop-opacity:1"/></linearGradient></defs><g clip-path="url(#a)"><g clip-path="url(#b)"><path style="stroke:none;fill-rule:nonzero;fill:url(#c)" d="M5.777 33.527V5.184h113.387v28.343Zm0 0"/></g></g><path style="fill:none;stroke-width:.3985;stroke-linecap:butt;stroke-linejoin:miter;stroke:gray;stroke-opacity:1;stroke-miterlimit:10" d="M-28.346.002c-28.348 28.343 85.04 28.343 56.691 0Zm0 0" transform="matrix(1 0 0 -1 62.471 33.529)"/><g style="fill:#000;fill-opacity:1"><use xlink:href="#d" x="106.984" y="14.824"/><use xlink:href="#e" x="111.592" y="14.824"/><use xlink:href="#f" x="116.712" y="14.824"/><use xlink:href="#g" x="120.347" y="14.824"/><use xlink:href="#h" x="124.446" y="14.824"/><use xlink:href="#i" x="129.566" y="14.824"/><use xlink:href="#g" x="133.662" y="14.824"/></g><g style="fill:#000;fill-opacity:1"><use xlink:href="#j" x="106.984" y="25.783"/><use xlink:href="#g" x="112.104" y="25.783"/></g><g style="fill:#000;fill-opacity:1"><use xlink:href="#k" x="119.27" y="25.783"/><use xlink:href="#l" x="126.949" y="25.783"/><use xlink:href="#m" x="131.556" y="25.783"/><use xlink:href="#n" x="136.676" y="25.783"/><use xlink:href="#o" x="139.236" y="25.783"/><use xlink:href="#p" x="141.796" y="25.783"/></g><g style="fill:#000;fill-opacity:1"><use xlink:href="#o" x="106.984" y="36.742"/><use xlink:href="#d" x="109.544" y="36.742"/><use xlink:href="#q" x="114.152" y="36.742"/><use xlink:href="#g" x="118.76" y="36.742"/></g><g clip-path="url(#r)"><g clip-path="url(#s)"><path style="stroke:none;fill-rule:nonzero;fill:url(#t)" d="M34.125 61.875V47.703h56.691v14.172Zm0 0"/></g></g><path style="fill:none;stroke-width:.3985;stroke-linecap:butt;stroke-linejoin:miter;stroke:gray;stroke-opacity:1;stroke-miterlimit:10" d="M-28.346-28.346c14.172 14.172 42.52 14.172 56.691 0Zm0 0" transform="matrix(1 0 0 -1 62.471 33.529)"/><g style="fill:#000;fill-opacity:1"><use xlink:href="#k" x="106.984" y="48.65"/><use xlink:href="#l" x="114.663" y="48.65"/><use xlink:href="#m" x="119.271" y="48.65"/><use xlink:href="#n" x="124.39" y="48.65"/><use xlink:href="#o" x="126.95" y="48.65"/><use xlink:href="#o" x="129.51" y="48.65"/><use xlink:href="#d" x="132.07" y="48.65"/><use xlink:href="#q" x="136.678" y="48.65"/><use xlink:href="#g" x="141.286" y="48.65"/></g><g style="fill:#000;fill-opacity:1"><use xlink:href="#u" x="106.984" y="59.609"/><use xlink:href="#d" x="112.104" y="59.609"/><use xlink:href="#v" x="116.712" y="59.609"/><use xlink:href="#w" x="120.316" y="59.609"/><use xlink:href="#n" x="123.9" y="59.609"/><use xlink:href="#g" x="126.46" y="59.609"/><use xlink:href="#o" x="130.559" y="59.609"/></g><g clip-path="url(#x)"><path style="stroke:none;fill-rule:nonzero;fill:url(#y)" d="M5.777 90.223v-4.98h113.387v4.98Zm0 0"/></g><g style="fill:#000;fill-opacity:1"><use xlink:href="#k" x="106.984" y="76.997"/><use xlink:href="#l" x="114.663" y="76.997"/><use xlink:href="#m" x="119.271" y="76.997"/><use xlink:href="#n" x="124.39" y="76.997"/><use xlink:href="#o" x="126.95" y="76.997"/><use xlink:href="#o" x="129.51" y="76.997"/><use xlink:href="#d" x="132.07" y="76.997"/><use xlink:href="#q" x="136.678" y="76.997"/><use xlink:href="#g" x="141.286" y="76.997"/></g><g style="fill:#000;fill-opacity:1"><use xlink:href="#i" x="106.984" y="87.956"/><use xlink:href="#l" x="111.08" y="87.956"/><use xlink:href="#k" x="115.688" y="87.956"/><use xlink:href="#u" x="123.367" y="87.956"/><use xlink:href="#o" x="128.486" y="87.956"/><use xlink:href="#g" x="131.046" y="87.956"/><use xlink:href="#w" x="135.146" y="87.956"/></g><path style="fill:none;stroke-width:1.59404;stroke-linecap:butt;stroke-linejoin:miter;stroke:#000;stroke-opacity:1;stroke-miterlimit:10" d="M-56.694.002H56.693M-56.694-28.346H56.693M-56.694-56.694H56.693" transform="matrix(1 0 0 -1 62.471 33.529)"/></svg>