<svg xmlns="http://www.w3.org/2000/svg" xmlns:xlink="http://www.w3.org/1999/xlink" width="202.787" height="222.453" viewBox="0 0 152.09 166.84"><defs><symbol overflow="visible" id="a"><path style="stroke:none" d="M4.469-3.61a.457.457 0 0 0-.485-.453c-.25 0-.656.094-.968.422a1.541 1.541 0 0 0-.97-.328c-.858 0-1.5.61-1.5 1.328 0 .454.266.782.407.907a1.262 1.262 0 0 0-.265.75c0 .296.14.625.39.78C.625-.046.266.282.266.704c0 .64.875 1.14 2.03 1.14 1.11 0 2.048-.468 2.048-1.155 0-.375-.172-.766-.5-.985-.5-.312-1.031-.312-1.875-.312-.188 0-.469 0-.547-.016C1.172-.688 1-.922 1-1.203c0-.156.047-.281.125-.406.219.14.5.28.906.28.86 0 1.5-.609 1.5-1.312 0-.437-.25-.75-.36-.875.36-.328.782-.328.876-.328-.031.031-.11.078-.11.235 0 .109.063.265.266.265.125 0 .266-.078.266-.265Zm-1.625.97c0 .203 0 1.078-.813 1.078-.797 0-.797-.891-.797-1.079 0-.25.016-.546.172-.765a.792.792 0 0 1 .625-.313c.813 0 .813.86.813 1.078Zm1 3.328c0 .515-.703.921-1.531.921-.891 0-1.547-.421-1.547-.921 0-.141.093-.735.859-.735h.828c.281 0 1.39.016 1.39.735Zm0 0"/></symbol><symbol overflow="visible" id="b"><path style="stroke:none" d="M4.453-.797v-.5h-.25v.484c0 .11 0 .547-.312.547-.329 0-.329-.421-.329-.562v-1.578c0-.516 0-.813-.406-1.188-.328-.297-.765-.422-1.203-.422-.766 0-1.39.375-1.39.954 0 .265.187.421.421.421.25 0 .422-.171.422-.406 0-.39-.406-.437-.406-.437.234-.235.672-.313.922-.313.469 0 .969.344.969 1.14v.282c-.485.031-1.157.063-1.75.36-.641.312-.844.78-.844 1.14 0 .734.875.969 1.469.969a1.31 1.31 0 0 0 1.218-.735c.032.375.297.688.688.688.219 0 .781-.125.781-.844Zm-1.562-.469c0 .875-.672 1.141-1.063 1.141-.422 0-.812-.313-.812-.75 0-.594.515-1.219 1.875-1.281Zm0 0"/></symbol><symbol overflow="visible" id="c"><path style="stroke:none" d="M3.703-1.703h-.25C3.36-.703 3.25-.25 2.125-.25H1.078l2.516-3.328c.078-.094.078-.11.078-.156 0-.125-.078-.125-.235-.125H.485L.391-2.391h.25c.046-.921.218-1.25 1.218-1.25h1.016L.344-.312c-.078.109-.078.124-.078.171C.266 0 .344 0 .5 0h3.047Zm0 0"/></symbol><symbol overflow="visible" id="f"><path style="stroke:none" d="M2.266 0v-.281c-.579 0-.61-.047-.61-.39V-3.97l-1.297.11v.265c.579 0 .657.063.657.5v2.406c0 .407-.094.407-.688.407V0c.39-.016.594-.031.984-.031.141 0 .516 0 .954.031Zm-.5-5.406a.487.487 0 0 0-.485-.485.487.487 0 0 0-.484.485c0 .265.219.484.484.484a.487.487 0 0 0 .485-.484Zm0 0"/></symbol><symbol overflow="visible" id="g"><path style="stroke:none" d="M4.906 0v-.281c-.453 0-.687 0-.687-.281v-1.72c0-.734 0-1-.25-1.312-.203-.25-.547-.375-1-.375-.828 0-1.219.625-1.344.875h-.016v-.875l-1.296.11v.265c.609 0 .687.063.687.516v2.39C1-.28.906-.28.312-.28V0c.422-.016.594-.031 1.032-.031.422 0 .547.015 1.015.031v-.281c-.593 0-.687 0-.687-.406v-1.641c0-.953.672-1.406 1.234-1.406.531 0 .64.437.64.968v2.079c0 .406-.093.406-.687.406V0c.422-.016.594-.031 1.032-.031.421 0 .546.015 1.015.031Zm0 0"/></symbol><symbol overflow="visible" id="h"><path style="stroke:none" d="M3.063-1.11v-.515h-.25v.484c0 .672-.282.985-.594.985-.61 0-.61-.781-.61-.953v-2.485h1.313v-.265H1.609v-1.657h-.25c0 .75-.312 1.672-1.187 1.704v.218h.781v2.485c0 1 .719 1.203 1.203 1.203.594 0 .906-.563.906-1.203Zm0 0"/></symbol><symbol overflow="visible" id="i"><path style="stroke:none" d="M3.828-1.063a.123.123 0 0 0-.125-.125c-.094 0-.11.063-.125.11a1.273 1.273 0 0 1-1.234.922c-.438 0-.797-.235-1-.547-.297-.438-.313-.969-.313-1.344h2.563c.187 0 .234 0 .234-.203 0-.922-.5-1.766-1.656-1.766-1.063 0-1.906.938-1.906 2.047 0 1.172.937 2.063 2.03 2.063 1.095 0 1.532-.953 1.532-1.157Zm-.61-1.203H1.048c.078-1.39.875-1.53 1.125-1.53.5 0 1.031.374 1.047 1.53Zm0 0"/></symbol><symbol overflow="visible" id="j"><path style="stroke:none" d="M3.344-3.406c0-.281-.266-.563-.672-.563-.531 0-.906.375-1.125.938v-.938l-1.281.11v.265c.609 0 .687.063.687.516v2.39C.953-.28.86-.28.266-.28V0C.75-.016.859-.031 1.312-.031L2.454 0v-.281h-.172c-.656 0-.687-.094-.687-.422v-1.344c0-.375.093-1.687 1.125-1.687-.016.015-.156.125-.156.328a.39.39 0 1 0 .78 0Zm0 0"/></symbol><symbol overflow="visible" id="k"><path style="stroke:none" d="M3.281-5.688c0-.343-.344-.64-.828-.64-.703 0-1.437.531-1.437 1.437v1.032H.312v.265h.704v2.906c0 .407-.094.407-.688.407V0c.469-.016.594-.031 1.047-.031L2.515 0v-.281h-.187c-.656 0-.672-.094-.672-.422v-2.89h1.032v-.266H1.625v-1.016c0-.813.438-1.219.828-1.219.078 0 .172.016.266.047-.094.031-.235.14-.235.375 0 .234.172.39.391.39.25 0 .406-.171.406-.405Zm0 0"/></symbol><symbol overflow="visible" id="l"><path style="stroke:none" d="M3.828-1.063c0-.109-.094-.109-.125-.109-.094 0-.094.016-.156.172-.203.61-.703.844-1.156.844-.579 0-1.313-.469-1.313-1.797 0-1.39.719-1.813 1.25-1.813.125 0 .61.016.938.235-.188.047-.375.172-.375.422a.42.42 0 0 0 .421.421c.235 0 .422-.156.422-.437 0-.547-.625-.89-1.421-.89-1.141 0-2 .952-2 2.077C.313-.78 1.234.095 2.296.095c1.25 0 1.531-1.078 1.531-1.157Zm0 0"/></symbol><symbol overflow="visible" id="m"><path style="stroke:none" d="M2.344 0v-.281c-.594 0-.688 0-.688-.406V-6.22l-1.328.094v.281c.61 0 .688.063.688.5v4.657c0 .406-.094.406-.688.406V0c.422-.016.594-.031 1-.031.422 0 .578.015 1.016.031Zm0 0"/></symbol><symbol overflow="visible" id="n"><path style="stroke:none" d="M4.844 1.734V1.47c-.594 0-.688 0-.688-.422V-3.97h-.234l-.328.797c-.422-.719-.938-.797-1.25-.797A2.04 2.04 0 0 0 .313-1.922c0 1.125.906 2.016 1.953 2.016.375 0 .843-.125 1.218-.625v1.578c0 .422-.093.422-.687.422v.265c.422-.015.594-.015 1.031-.015.422 0 .547 0 1.016.015ZM3.516-1.234c0 .156 0 .187-.141.437-.219.39-.594.672-1.063.672-.671 0-1.234-.797-1.234-1.797 0-1.047.64-1.797 1.328-1.797.703 0 1.11.75 1.11 1.25Zm0 0"/></symbol><symbol overflow="visible" id="o"><path style="stroke:none" d="M4.906 0v-.281c-.61 0-.687-.063-.687-.5V-3.97l-1.36.11v.265c.61 0 .688.063.688.516V-1.5c0 .797-.438 1.375-1.094 1.375-.734 0-.781-.39-.781-.875v-2.969l-1.36.11v.265c.688 0 .688.031.688.828v1.344c0 .594 0 .969.422 1.281.25.172.625.235.984.235.469 0 .906-.203 1.156-.735h.016v.735Zm0 0"/></symbol><symbol overflow="visible" id="p"><path style="stroke:none" d="M4.844 0v-.281c-.61 0-.688-.063-.688-.5V-6.22l-1.328.094v.281c.61 0 .688.063.688.5v1.907c-.047-.047-.454-.532-1.141-.532-1.11 0-2.063.89-2.063 2.047 0 1.11.891 2.016 1.954 2.016A1.59 1.59 0 0 0 3.484-.47v.563Zm-1.36-1.078c0 .156 0 .187-.125.375a1.3 1.3 0 0 1-1.046.578c-.391 0-.75-.219-.985-.594-.234-.39-.25-.906-.25-1.203 0-.422.047-.89.281-1.25a1.262 1.262 0 0 1 1.047-.562c.375 0 .735.187.969.53.11.142.11.142.11.313Zm0 0"/></symbol><symbol overflow="visible" id="d"><path style="stroke:none" d="M7.61-5.781c0-.297-.329-.344-.72-.344H3.298c-.156 0-.86-.078-1.469.531-.047.063-.11.14-.11.219 0 .031.016.063.063.063.266 0 .547-.22.64-.297.11-.016.376-.016.657-.016h.75A18.072 18.072 0 0 1 2.718-2c-.265.61-.702 1.594-.874 1.781-.61 0-.797-.406-.907-.594C.922-.859.891-.875.86-.875c-.203 0-.703.281-.703.438 0 .046.047.124.063.156.172.36.578.562.984.562.531 0 1-.312 1.36-.719.187-.203.921-1.78 1.078-2.28h1.78c0 .093.016.077.079.077.234 0 .61-.234.672-.375a.301.301 0 0 0 .047-.156c0-.031 0-.047-.14-.047H3.843c.187-.469.61-1.969.687-2.406h1.797c.156 0 .5.016.5.234 0 .079-.031.125.094.125.094 0 .687-.218.687-.515Zm0 0"/></symbol><symbol overflow="visible" id="e"><path style="stroke:none" d="M3.219-1.125H3c-.016.094-.078.484-.156.547-.047.047-.531.047-.625.047h-1.11l.766-.625c.203-.172.734-.547.922-.735.172-.171.422-.484.422-.906 0-.75-.672-1.187-1.485-1.187-.765 0-1.296.515-1.296 1.078 0 .297.25.344.312.344a.32.32 0 0 0 .328-.329c0-.125-.078-.328-.344-.328.141-.297.5-.531.922-.531.625 0 .953.469.953.953 0 .422-.28.86-.687 1.25L.5-.25C.437-.187.437-.187.437 0h2.594Zm0 0"/></symbol><symbol overflow="visible" id="q"><path style="stroke:none" d="M2.14-3.797c0-.187-.015-.187-.203-.187-.39.39-1 .39-1.218.39v.235c.156 0 .562 0 .922-.172v3.015c0 .204 0 .282-.625.282h-.25V0c.328-.031.796-.031 1.125-.031.328 0 .796 0 1.125.031v-.234h-.25c-.625 0-.625-.078-.625-.282Zm0 0"/></symbol></defs><path style="stroke:none;fill-rule:nonzero;fill:#bfbfbf;fill-opacity:.5" d="M5.18 76.82v85.04h141.734V76.82Zm0 0"/><g style="fill:#000;fill-opacity:1"><use xlink:href="#a" x="104.998" y="16.341"/><use xlink:href="#b" x="109.606" y="16.341"/><use xlink:href="#c" x="114.214" y="16.341"/></g><use xlink:href="#d" x="121.381" y="16.341" style="fill:#000;fill-opacity:1"/><use xlink:href="#e" x="127.984" y="17.337" style="fill:#000;fill-opacity:1"/><path style="fill:none;stroke-width:.3985;stroke-linecap:butt;stroke-linejoin:miter;stroke:#000;stroke-opacity:1;stroke-dasharray:2.98883,2.98883;stroke-miterlimit:10" d="M-56.693-52.71H85.04M-56.693-62.671H85.04" transform="matrix(1 0 0 -1 61.873 14.149)"/><g style="fill:#000;fill-opacity:1"><use xlink:href="#f" x="101.402" y="73.931"/><use xlink:href="#g" x="103.962" y="73.931"/></g><g style="fill:#000;fill-opacity:1"><use xlink:href="#h" x="108.831" y="73.931"/><use xlink:href="#i" x="112.415" y="73.931"/><use xlink:href="#j" x="116.514" y="73.931"/><use xlink:href="#k" x="120.118" y="73.931"/><use xlink:href="#b" x="122.934" y="73.931"/><use xlink:href="#l" x="127.542" y="73.931"/><use xlink:href="#i" x="131.638" y="73.931"/></g><g style="fill:#000;fill-opacity:1"><use xlink:href="#m" x="98.213" y="129.753"/><use xlink:href="#f" x="100.773" y="129.753"/><use xlink:href="#n" x="103.333" y="129.753"/><use xlink:href="#o" x="108.196" y="129.753"/><use xlink:href="#f" x="113.316" y="129.753"/><use xlink:href="#p" x="115.876" y="129.753"/><use xlink:href="#i" x="120.996" y="129.753"/></g><use xlink:href="#d" x="128.167" y="129.753" style="fill:#000;fill-opacity:1"/><use xlink:href="#q" x="134.77" y="130.749" style="fill:#000;fill-opacity:1"/><path style="fill:none;stroke-width:.3985;stroke-linecap:butt;stroke-linejoin:miter;stroke:#3686c1;stroke-opacity:1;stroke-miterlimit:10" d="M3.986 0h2.989" transform="matrix(1 0 0 -1 61.873 14.149)"/><path style="stroke:none;fill-rule:nonzero;fill:#3686c1;fill-opacity:1" d="m70.84 14.148-3.188-1.593 1.196 1.593-1.196 1.594"/><path style="fill:none;stroke-width:.3985;stroke-linecap:butt;stroke-linejoin:miter;stroke:#3686c1;stroke-opacity:1;stroke-miterlimit:10" d="m3.451 1.993 2.59 1.496" transform="matrix(1 0 0 -1 61.873 14.149)"/><path style="stroke:none;fill-rule:nonzero;fill:#3686c1;fill-opacity:1" d="m69.637 9.664-3.555.215 1.832.781-.238 1.98"/><path style="fill:none;stroke-width:.3985;stroke-linecap:butt;stroke-linejoin:miter;stroke:#3686c1;stroke-opacity:1;stroke-miterlimit:10" d="m1.994 3.45 1.492 2.59" transform="matrix(1 0 0 -1 61.873 14.149)"/><path style="stroke:none;fill-rule:nonzero;fill:#3686c1;fill-opacity:1" d="m66.355 6.383-2.972 1.965 1.976-.239.786 1.832"/><path style="fill:none;stroke-width:.3985;stroke-linecap:butt;stroke-linejoin:miter;stroke:#3686c1;stroke-opacity:1;stroke-miterlimit:10" d="M-.002 3.985v2.988" transform="matrix(1 0 0 -1 61.873 14.149)"/><path style="stroke:none;fill-rule:nonzero;fill:#3686c1;fill-opacity:1" d="M61.871 5.184 60.277 8.37l1.594-1.195L63.47 8.37"/><path style="fill:none;stroke-width:.3985;stroke-linecap:butt;stroke-linejoin:miter;stroke:#3686c1;stroke-opacity:1;stroke-miterlimit:10" d="m-1.994 3.45-1.492 2.59" transform="matrix(1 0 0 -1 61.873 14.149)"/><path style="stroke:none;fill-rule:nonzero;fill:#3686c1;fill-opacity:1" d="m57.39 6.383.212 3.558.785-1.832 1.976.239"/><path style="fill:none;stroke-width:.3985;stroke-linecap:butt;stroke-linejoin:miter;stroke:#3686c1;stroke-opacity:1;stroke-miterlimit:10" d="m-3.451 1.993-2.59 1.496" transform="matrix(1 0 0 -1 61.873 14.149)"/><path style="stroke:none;fill-rule:nonzero;fill:#3686c1;fill-opacity:1" d="m54.11 9.664 1.96 2.977-.238-1.98 1.832-.782"/><path style="fill:none;stroke-width:.3985;stroke-linecap:butt;stroke-linejoin:miter;stroke:#3686c1;stroke-opacity:1;stroke-miterlimit:10" d="M-3.986 0h-2.989" transform="matrix(1 0 0 -1 61.873 14.149)"/><path style="stroke:none;fill-rule:nonzero;fill:#3686c1;fill-opacity:1" d="m52.906 14.148 3.188 1.594-1.196-1.594 1.196-1.593"/><path style="fill:none;stroke-width:.3985;stroke-linecap:butt;stroke-linejoin:miter;stroke:#3686c1;stroke-opacity:1;stroke-miterlimit:10" d="m-3.451-1.992-2.59-1.496" transform="matrix(1 0 0 -1 61.873 14.149)"/><path style="stroke:none;fill-rule:nonzero;fill:#3686c1;fill-opacity:1" d="m54.11 18.633 3.554-.215-1.832-.781.238-1.98"/><path style="fill:none;stroke-width:.3985;stroke-linecap:butt;stroke-linejoin:miter;stroke:#3686c1;stroke-opacity:1;stroke-miterlimit:10" d="m-1.994-3.453-1.492-2.586" transform="matrix(1 0 0 -1 61.873 14.149)"/><path style="stroke:none;fill-rule:nonzero;fill:#3686c1;fill-opacity:1" d="m57.39 21.914 2.973-1.965-1.976.238-.785-1.832"/><path style="fill:none;stroke-width:.3985;stroke-linecap:butt;stroke-linejoin:miter;stroke:#3686c1;stroke-opacity:1;stroke-miterlimit:10" d="M-.002-3.984v-2.988" transform="matrix(1 0 0 -1 61.873 14.149)"/><path style="stroke:none;fill-rule:nonzero;fill:#3686c1;fill-opacity:1" d="m61.871 23.117 1.598-3.191-1.598 1.195-1.594-1.195"/><path style="fill:none;stroke-width:.3985;stroke-linecap:butt;stroke-linejoin:miter;stroke:#3686c1;stroke-opacity:1;stroke-miterlimit:10" d="m1.994-3.453 1.492-2.586" transform="matrix(1 0 0 -1 61.873 14.149)"/><path style="stroke:none;fill-rule:nonzero;fill:#3686c1;fill-opacity:1" d="m66.355 21.914-.21-3.559-.786 1.832-1.976-.238"/><path style="fill:none;stroke-width:.3985;stroke-linecap:butt;stroke-linejoin:miter;stroke:#3686c1;stroke-opacity:1;stroke-miterlimit:10" d="m3.451-1.992 2.59-1.496" transform="matrix(1 0 0 -1 61.873 14.149)"/><path style="stroke:none;fill-rule:nonzero;fill:#3686c1;fill-opacity:1" d="m69.637 18.633-1.961-2.977.238 1.98-1.832.782"/><path style="fill:none;stroke-width:.3985;stroke-linecap:butt;stroke-linejoin:miter;stroke:#3686c1;stroke-opacity:1;stroke-miterlimit:10" d="M3.986-113.386h9.961" transform="matrix(1 0 0 -1 61.873 14.149)"/><path style="stroke:none;fill-rule:nonzero;fill:#3686c1;fill-opacity:1" d="m77.813 127.535-3.188-1.594 1.195 1.594-1.195 1.594"/><path style="fill:none;stroke-width:.3985;stroke-linecap:butt;stroke-linejoin:miter;stroke:#3686c1;stroke-opacity:1;stroke-miterlimit:10" d="m3.451-111.394 8.63 4.98" transform="matrix(1 0 0 -1 61.873 14.149)"/><path style="stroke:none;fill-rule:nonzero;fill:#3686c1;fill-opacity:1" d="m75.68 119.566-3.559.215 1.832.781-.238 1.977"/><path style="fill:none;stroke-width:.3985;stroke-linecap:butt;stroke-linejoin:miter;stroke:#3686c1;stroke-opacity:1;stroke-miterlimit:10" d="m1.994-109.937 4.98 8.629" transform="matrix(1 0 0 -1 61.873 14.149)"/><path style="stroke:none;fill-rule:nonzero;fill:#3686c1;fill-opacity:1" d="m69.844 113.73-2.977 1.965 1.98-.238.782 1.832"/><path style="fill:none;stroke-width:.3985;stroke-linecap:butt;stroke-linejoin:miter;stroke:#3686c1;stroke-opacity:1;stroke-miterlimit:10" d="M-.002-109.402v9.961" transform="matrix(1 0 0 -1 61.873 14.149)"/><path style="stroke:none;fill-rule:nonzero;fill:#3686c1;fill-opacity:1" d="m61.871 111.598-1.594 3.187 1.594-1.195 1.598 1.195"/><path style="fill:none;stroke-width:.3985;stroke-linecap:butt;stroke-linejoin:miter;stroke:#3686c1;stroke-opacity:1;stroke-miterlimit:10" d="m-1.994-109.937-4.98 8.629" transform="matrix(1 0 0 -1 61.873 14.149)"/><path style="stroke:none;fill-rule:nonzero;fill:#3686c1;fill-opacity:1" d="m53.902 113.73.215 3.56.781-1.833 1.98.238"/><path style="fill:none;stroke-width:.3985;stroke-linecap:butt;stroke-linejoin:miter;stroke:#3686c1;stroke-opacity:1;stroke-miterlimit:10" d="m-3.451-111.394-8.629 4.98" transform="matrix(1 0 0 -1 61.873 14.149)"/><path style="stroke:none;fill-rule:nonzero;fill:#3686c1;fill-opacity:1" d="m48.066 119.566 1.965 2.973-.238-1.977 1.832-.78"/><path style="fill:none;stroke-width:.3985;stroke-linecap:butt;stroke-linejoin:miter;stroke:#3686c1;stroke-opacity:1;stroke-miterlimit:10" d="M-3.986-113.386h-9.961" transform="matrix(1 0 0 -1 61.873 14.149)"/><path style="stroke:none;fill-rule:nonzero;fill:#3686c1;fill-opacity:1" d="m45.934 127.535 3.187 1.594-1.195-1.594 1.195-1.594"/><path style="fill:none;stroke-width:.3985;stroke-linecap:butt;stroke-linejoin:miter;stroke:#3686c1;stroke-opacity:1;stroke-miterlimit:10" d="m-3.451-115.378-8.629-4.985" transform="matrix(1 0 0 -1 61.873 14.149)"/><path style="stroke:none;fill-rule:nonzero;fill:#3686c1;fill-opacity:1" d="m48.066 135.508 3.559-.215-1.832-.781.238-1.98"/><path style="fill:none;stroke-width:.3985;stroke-linecap:butt;stroke-linejoin:miter;stroke:#3686c1;stroke-opacity:1;stroke-miterlimit:10" d="m-1.994-116.84-4.98-8.628" transform="matrix(1 0 0 -1 61.873 14.149)"/><path style="stroke:none;fill-rule:nonzero;fill:#3686c1;fill-opacity:1" d="m53.902 141.34 2.977-1.961-1.98.238-.782-1.832"/><path style="fill:none;stroke-width:.3985;stroke-linecap:butt;stroke-linejoin:miter;stroke:#3686c1;stroke-opacity:1;stroke-miterlimit:10" d="M-.002-117.37v-9.965" transform="matrix(1 0 0 -1 61.873 14.149)"/><path style="stroke:none;fill-rule:nonzero;fill:#3686c1;fill-opacity:1" d="m61.871 143.477 1.598-3.188-1.598 1.195-1.594-1.195"/><path style="fill:none;stroke-width:.3985;stroke-linecap:butt;stroke-linejoin:miter;stroke:#3686c1;stroke-opacity:1;stroke-miterlimit:10" d="m1.994-116.84 4.98-8.628" transform="matrix(1 0 0 -1 61.873 14.149)"/><path style="stroke:none;fill-rule:nonzero;fill:#3686c1;fill-opacity:1" d="m69.844 141.34-.215-3.555-.781 1.832-1.98-.238"/><path style="fill:none;stroke-width:.3985;stroke-linecap:butt;stroke-linejoin:miter;stroke:#3686c1;stroke-opacity:1;stroke-miterlimit:10" d="m3.451-115.378 8.63-4.985" transform="matrix(1 0 0 -1 61.873 14.149)"/><path style="stroke:none;fill-rule:nonzero;fill:#3686c1;fill-opacity:1" d="m75.68 135.508-1.965-2.977.238 1.98-1.832.782"/><path style="fill:none;stroke-width:.3985;stroke-linecap:butt;stroke-linejoin:miter;stroke:#3686c1;stroke-opacity:1;stroke-miterlimit:10" d="M3.986-56.695h7.97" transform="matrix(1 0 0 -1 61.873 14.149)"/><path style="stroke:none;fill-rule:nonzero;fill:#3686c1;fill-opacity:1" d="m75.82 70.844-3.187-1.594 1.195 1.594-1.195 1.594"/><path style="fill:none;stroke-width:.3985;stroke-linecap:butt;stroke-linejoin:miter;stroke:#3686c1;stroke-opacity:1;stroke-miterlimit:10" d="m3.451-54.703 5.176 2.993" transform="matrix(1 0 0 -1 61.873 14.149)"/><path style="stroke:none;fill-rule:nonzero;fill:#3686c1;fill-opacity:1" d="m72.227 64.863-3.559.215 1.832.781-.238 1.98"/><path style="fill:none;stroke-width:.3985;stroke-linecap:butt;stroke-linejoin:miter;stroke:#3686c1;stroke-opacity:1;stroke-miterlimit:10" d="m1.994-53.242 1.992 3.45" transform="matrix(1 0 0 -1 61.873 14.149)"/><path style="stroke:none;fill-rule:nonzero;fill:#3686c1;fill-opacity:1" d="M66.855 62.215 63.88 64.18l1.98-.239.782 1.832"/><path style="fill:none;stroke-width:.3985;stroke-linecap:butt;stroke-linejoin:miter;stroke:#3686c1;stroke-opacity:1;stroke-miterlimit:10" d="M-.002-52.71v2.992" transform="matrix(1 0 0 -1 61.873 14.149)"/><path style="stroke:none;fill-rule:nonzero;fill:#3686c1;fill-opacity:1" d="m61.871 61.875-1.594 3.188 1.594-1.196 1.598 1.196"/><path style="fill:none;stroke-width:.3985;stroke-linecap:butt;stroke-linejoin:miter;stroke:#3686c1;stroke-opacity:1;stroke-miterlimit:10" d="m-1.994-53.242-1.992 3.45" transform="matrix(1 0 0 -1 61.873 14.149)"/><path style="stroke:none;fill-rule:nonzero;fill:#3686c1;fill-opacity:1" d="m56.89 62.215.215 3.558.782-1.832 1.98.239"/><path style="fill:none;stroke-width:.3985;stroke-linecap:butt;stroke-linejoin:miter;stroke:#3686c1;stroke-opacity:1;stroke-miterlimit:10" d="m-3.451-54.703-5.176 2.993" transform="matrix(1 0 0 -1 61.873 14.149)"/><path style="stroke:none;fill-rule:nonzero;fill:#3686c1;fill-opacity:1" d="m51.52 64.863 1.964 2.977-.238-1.98 1.832-.782"/><path style="fill:none;stroke-width:.3985;stroke-linecap:butt;stroke-linejoin:miter;stroke:#3686c1;stroke-opacity:1;stroke-miterlimit:10" d="M-3.986-56.695h-7.969" transform="matrix(1 0 0 -1 61.873 14.149)"/><path style="stroke:none;fill-rule:nonzero;fill:#3686c1;fill-opacity:1" d="m47.926 70.844 3.187 1.594-1.195-1.594 1.195-1.594"/><path style="fill:none;stroke-width:.3985;stroke-linecap:butt;stroke-linejoin:miter;stroke:#3686c1;stroke-opacity:1;stroke-miterlimit:10" d="m-3.451-58.687-8.629-4.98" transform="matrix(1 0 0 -1 61.873 14.149)"/><path style="stroke:none;fill-rule:nonzero;fill:#3686c1;fill-opacity:1" d="m48.066 78.813 3.559-.215-1.832-.782.238-1.976"/><path style="fill:none;stroke-width:.3985;stroke-linecap:butt;stroke-linejoin:miter;stroke:#3686c1;stroke-opacity:1;stroke-miterlimit:10" d="m-1.994-60.144-5.977-10.355" transform="matrix(1 0 0 -1 61.873 14.149)"/><path style="stroke:none;fill-rule:nonzero;fill:#3686c1;fill-opacity:1" d="m52.906 86.375 2.977-1.965-1.98.238-.782-1.832"/><path style="fill:none;stroke-width:.3985;stroke-linecap:butt;stroke-linejoin:miter;stroke:#3686c1;stroke-opacity:1;stroke-miterlimit:10" d="M-.002-60.68v-12.952" transform="matrix(1 0 0 -1 61.873 14.149)"/><path style="stroke:none;fill-rule:nonzero;fill:#3686c1;fill-opacity:1" d="m61.871 89.773 1.598-3.191-1.598 1.2-1.594-1.2"/><path style="fill:none;stroke-width:.3985;stroke-linecap:butt;stroke-linejoin:miter;stroke:#3686c1;stroke-opacity:1;stroke-miterlimit:10" d="m1.994-60.144 5.977-10.355" transform="matrix(1 0 0 -1 61.873 14.149)"/><path style="stroke:none;fill-rule:nonzero;fill:#3686c1;fill-opacity:1" d="m70.84 86.375-.215-3.559-.781 1.832-1.98-.238"/><path style="fill:none;stroke-width:.3985;stroke-linecap:butt;stroke-linejoin:miter;stroke:#3686c1;stroke-opacity:1;stroke-miterlimit:10" d="m3.451-58.687 8.63-4.98" transform="matrix(1 0 0 -1 61.873 14.149)"/><path style="stroke:none;fill-rule:nonzero;fill:#3686c1;fill-opacity:1" d="m75.68 78.813-1.965-2.973.238 1.976-1.832.782"/></svg>