<svg xmlns="http://www.w3.org/2000/svg" xmlns:xlink="http://www.w3.org/1999/xlink" width="62.707" height="222.067" viewBox="0 0 47.03 166.55"><defs><symbol overflow="visible" id="d"><path style="stroke:none" d="M2.578-5.922c.031-.125.031-.14.031-.172 0-.078-.046-.125-.14-.125-.125 0-.906.063-1.094.078-.078.016-.188.032-.188.172 0 .125.11.125.25.125.422 0 .422.063.422.14 0 .032 0 .048-.046.22L.53-.328C.5-.203.5-.188.5-.156c0 .14.11.25.266.25a.371.371 0 0 0 .343-.203c.016-.047.094-.375.141-.563l.219-.797c.015-.14.11-.484.14-.61l.11-.39c.047-.219.547-1.265 1.515-1.265.485 0 .485.468.485.625 0 .546-.422 1.64-.516 1.921-.11.266-.14.36-.14.532 0 .484.359.75.765.75.86 0 1.219-1.282 1.219-1.375 0-.047-.031-.11-.125-.11s-.11.047-.14.157c-.22.765-.61 1.109-.923 1.109-.062 0-.234 0-.234-.281 0-.235.094-.469.172-.656.172-.47.531-1.407.531-1.922 0-.797-.594-.985-1.062-.985-.547 0-1 .25-1.36.688Zm0 0"/></symbol><symbol overflow="visible" id="f"><path style="stroke:none" d="M3.625-3.625a.523.523 0 0 0-.453.484c0 .172.125.329.36.329.234 0 .484-.204.484-.547 0-.344-.329-.61-.766-.61-.672 0-1.047.5-1.172.672-.11-.484-.515-.672-.844-.672-.328 0-.53.203-.687.516a3.399 3.399 0 0 0-.281.875c0 .078.062.11.125.11.093 0 .109-.048.156-.235.172-.703.36-1.031.656-1.031.281 0 .281.28.281.421 0 .188-.078.454-.125.688-.062.234-.156.625-.187.734L.812-.42C.75-.204.75-.189.75-.157c0 .11.078.25.266.25.296 0 .359-.235.421-.5.11-.39.11-.406.188-.766.344-1.344.39-1.562.406-1.61.063-.109.469-.952 1.219-.952.203 0 .328.062.375.109Zm0 0"/></symbol><symbol overflow="visible" id="g"><path style="stroke:none" d="M4.172-4.438c0-.921-.297-1.89-1.125-1.89-1.313 0-2.672 2.562-2.672 4.547C.375-1.125.563.094 1.5.094c1.313 0 2.672-2.531 2.672-4.532ZM1.344-3.25c.187-.719.375-1.375.734-1.984.219-.36.547-.86.969-.86.484 0 .515.766.515 1.11 0 .53-.14 1.156-.28 1.734Zm1.86.281c-.142.563-.313 1.235-.673 1.875-.234.422-.594.969-1.031.969-.375 0-.5-.469-.5-1.125 0-.578.14-1.156.281-1.719Zm0 0"/></symbol><symbol overflow="visible" id="h"><path style="stroke:none" d="M3.422-5.5c.047-.219.078-.313.234-.344h.563c.718 0 1.703 0 1.703.907 0 .328-.14 1-.64 1.39-.22.14-.673.375-1.391.375H2.828Zm1.39 2.453c1.22-.312 1.97-.984 1.97-1.719 0-.78-.86-1.359-2.048-1.359H2.141c-.172 0-.282 0-.282.156 0 .125.094.125.282.125.03 0 .187 0 .328.016.156.016.219.031.219.14 0 .032 0 .079-.032.172L1.437-.687c-.078.328-.093.406-.765.406-.172 0-.266 0-.266.172C.406-.016.47 0 .531 0c.156 0 .422-.016.578-.016.188-.015.204-.015.547-.015.297 0 .313 0 .578.015.172 0 .407.016.579.016.062 0 .171 0 .171-.156 0-.125-.093-.125-.28-.125-.032 0-.188 0-.329-.016-.203-.031-.219-.062-.219-.14 0-.032 0-.047.047-.204l.578-2.312h1.11c.796 0 1 .469 1 .812 0 .063 0 .125-.047.313-.219.828-.219.906-.219 1.047 0 .812.766.984 1.219.984.781 0 1.11-.906 1.11-1.062 0-.063-.063-.094-.126-.094-.094 0-.094.031-.14.14-.157.47-.485.782-.813.782-.344 0-.36-.266-.36-.531 0-.22.063-.735.079-.797.015-.141.062-.5.062-.641 0-.516-.328-.86-.843-1.047Zm0 0"/></symbol><symbol overflow="visible" id="e"><path style="stroke:none" d="M4.14-1.594h-.25c-.015.125-.093.657-.203.797-.062.078-.671.078-.859.078H1.234l.891-.844c1.469-1.265 2.016-1.75 2.016-2.656 0-1.031-.844-1.75-1.954-1.75-1.03 0-1.734.813-1.734 1.625 0 .453.39.5.469.5.203 0 .469-.14.469-.469a.451.451 0 0 0-.47-.468c-.046 0-.062 0-.109.015.22-.64.797-.921 1.282-.921.906 0 1.219.843 1.219 1.468 0 .907-.688 1.657-1.11 2.125L.563-.328c-.11.11-.11.125-.11.328h3.438Zm0 0"/></symbol><clipPath id="a"><path d="M12 34h31v128H12Zm0 0"/></clipPath><clipPath id="b"><path d="M16.535 34.012v106.297h-4.25v21.261h29.762V140.31h-4.25V34.012c-8.504 8.504-12.758 8.504-21.262 0"/></clipPath><linearGradient id="c" gradientUnits="userSpaceOnUse" x1="0" y1="25.003" x2="0" y2="74.997" gradientTransform="matrix(.59535 0 0 -2.55151 -2.602 225.366)"><stop offset="0" style="stop-color:gray;stop-opacity:1"/><stop offset=".016" style="stop-color:gray;stop-opacity:1"/><stop offset=".031" style="stop-color:#818181;stop-opacity:1"/><stop offset=".047" style="stop-color:#828282;stop-opacity:1"/><stop offset=".063" style="stop-color:#838383;stop-opacity:1"/><stop offset=".078" style="stop-color:#848484;stop-opacity:1"/><stop offset=".094" style="stop-color:#858585;stop-opacity:1"/><stop offset=".109" style="stop-color:#868686;stop-opacity:1"/><stop offset=".125" style="stop-color:#878787;stop-opacity:1"/><stop offset=".141" style="stop-color:#888;stop-opacity:1"/><stop offset=".156" style="stop-color:#898989;stop-opacity:1"/><stop offset=".172" style="stop-color:#8a8a8a;stop-opacity:1"/><stop offset=".188" style="stop-color:#8b8b8b;stop-opacity:1"/><stop offset=".203" style="stop-color:#8c8c8c;stop-opacity:1"/><stop offset=".219" style="stop-color:#8d8d8d;stop-opacity:1"/><stop offset=".234" style="stop-color:#8e8e8e;stop-opacity:1"/><stop offset=".25" style="stop-color:#8f8f8f;stop-opacity:1"/><stop offset=".266" style="stop-color:#909090;stop-opacity:1"/><stop offset=".281" style="stop-color:#919191;stop-opacity:1"/><stop offset=".297" style="stop-color:#929292;stop-opacity:1"/><stop offset=".313" style="stop-color:#939393;stop-opacity:1"/><stop offset=".328" style="stop-color:#949494;stop-opacity:1"/><stop offset=".344" style="stop-color:#959595;stop-opacity:1"/><stop offset=".359" style="stop-color:#969696;stop-opacity:1"/><stop offset=".375" style="stop-color:#979797;stop-opacity:1"/><stop offset=".391" style="stop-color:#989898;stop-opacity:1"/><stop offset=".406" style="stop-color:#999;stop-opacity:1"/><stop offset=".422" style="stop-color:#9a9a9a;stop-opacity:1"/><stop offset=".438" style="stop-color:#9b9b9b;stop-opacity:1"/><stop offset=".453" style="stop-color:#9c9c9c;stop-opacity:1"/><stop offset=".469" style="stop-color:#9d9d9d;stop-opacity:1"/><stop offset=".484" style="stop-color:#9e9e9e;stop-opacity:1"/><stop offset=".5" style="stop-color:#9f9f9f;stop-opacity:1"/><stop offset=".516" style="stop-color:#a0a0a0;stop-opacity:1"/><stop offset=".531" style="stop-color:#a1a1a1;stop-opacity:1"/><stop offset=".547" style="stop-color:#a2a2a2;stop-opacity:1"/><stop offset=".563" style="stop-color:#a3a3a3;stop-opacity:1"/><stop offset=".578" style="stop-color:#a4a4a4;stop-opacity:1"/><stop offset=".594" style="stop-color:#a5a5a5;stop-opacity:1"/><stop offset=".609" style="stop-color:#a6a6a6;stop-opacity:1"/><stop offset=".625" style="stop-color:#a7a7a7;stop-opacity:1"/><stop offset=".641" style="stop-color:#a8a8a8;stop-opacity:1"/><stop offset=".656" style="stop-color:#a9a9a9;stop-opacity:1"/><stop offset=".672" style="stop-color:#aaa;stop-opacity:1"/><stop offset=".688" style="stop-color:#ababab;stop-opacity:1"/><stop offset=".703" style="stop-color:#acacac;stop-opacity:1"/><stop offset=".719" style="stop-color:#adadad;stop-opacity:1"/><stop offset=".734" style="stop-color:#aeaeae;stop-opacity:1"/><stop offset=".75" style="stop-color:#afafaf;stop-opacity:1"/><stop offset=".766" style="stop-color:#b0b0b0;stop-opacity:1"/><stop offset=".781" style="stop-color:#b1b1b1;stop-opacity:1"/><stop offset=".797" style="stop-color:#b2b2b2;stop-opacity:1"/><stop offset=".813" style="stop-color:#b3b3b3;stop-opacity:1"/><stop offset=".828" style="stop-color:#b4b4b4;stop-opacity:1"/><stop offset=".844" style="stop-color:#b5b5b5;stop-opacity:1"/><stop offset=".859" style="stop-color:#b6b6b6;stop-opacity:1"/><stop offset=".875" style="stop-color:#b7b7b7;stop-opacity:1"/><stop offset=".891" style="stop-color:#b8b8b8;stop-opacity:1"/><stop offset=".906" style="stop-color:#b9b9b9;stop-opacity:1"/><stop offset=".922" style="stop-color:#bababa;stop-opacity:1"/><stop offset=".938" style="stop-color:#bbb;stop-opacity:1"/><stop offset=".953" style="stop-color:#bcbcbc;stop-opacity:1"/><stop offset=".969" style="stop-color:#bdbdbd;stop-opacity:1"/><stop offset=".984" style="stop-color:#bebebe;stop-opacity:1"/><stop offset="1" style="stop-color:#bfbfbf;stop-opacity:1"/></linearGradient></defs><g clip-path="url(#a)"><g clip-path="url(#b)"><path style="stroke:none;fill-rule:nonzero;fill:url(#c)" d="M12.285 161.57V34.012h29.762V161.57Zm0 0"/></g></g><path style="fill:none;stroke-width:1.59404;stroke-linecap:butt;stroke-linejoin:miter;stroke:#000;stroke-opacity:1;stroke-miterlimit:10" d="M-10.63 10.631V-116.93M10.63 10.631V-116.93" transform="matrix(1 0 0 -1 27.166 34.01)"/><path style="fill:none;stroke-width:.3985;stroke-linecap:butt;stroke-linejoin:miter;stroke:#000;stroke-opacity:1;stroke-miterlimit:10" d="M-14.88-104.306v98.062" transform="matrix(1 0 0 -1 27.166 34.01)"/><path style="stroke:none;fill-rule:nonzero;fill:#000;fill-opacity:1" d="m12.285 140.309 1.594-3.188-1.594 1.195-1.594-1.195M12.285 38.262l-1.594 3.187 1.594-1.195 1.594 1.195"/><use xlink:href="#d" x="4.981" y="92.4" style="fill:#000;fill-opacity:1"/><path style="fill:none;stroke-width:.3985;stroke-linecap:butt;stroke-linejoin:miter;stroke:#000;stroke-opacity:1;stroke-miterlimit:10" d="M-8.639 21.26H8.64" transform="matrix(1 0 0 -1 27.166 34.01)"/><path style="stroke:none;fill-rule:nonzero;fill:#000;fill-opacity:1" d="m16.535 12.75 3.188 1.594-1.196-1.594 1.196-1.594M37.797 12.75l-3.188-1.594 1.196 1.594-1.196 1.594"/><use xlink:href="#e" x="22.655" y="10.757" style="fill:#000;fill-opacity:1"/><use xlink:href="#f" x="27.262" y="10.757" style="fill:#000;fill-opacity:1"/><path style="fill:none;stroke-width:.3985;stroke-linecap:butt;stroke-linejoin:miter;stroke:#000;stroke-opacity:1;stroke-dasharray:2.98883,2.98883;stroke-miterlimit:10" d="M-10.63-.002 4.403-15.033" transform="matrix(1 0 0 -1 27.166 34.01)"/><path style="fill:none;stroke-width:.3985;stroke-linecap:butt;stroke-linejoin:miter;stroke:#000;stroke-opacity:1;stroke-miterlimit:10" d="M-10.63-10.63a10.63 10.63 0 0 1 7.515 3.113" transform="matrix(1 0 0 -1 27.166 34.01)"/><use xlink:href="#g" x="18.743" y="51.863" style="fill:#000;fill-opacity:1"/><path style="fill:none;stroke-width:.3985;stroke-linecap:butt;stroke-linejoin:miter;stroke:#000;stroke-opacity:1;stroke-miterlimit:10" d="M-10.63-.002.044 10.674" transform="matrix(1 0 0 -1 27.166 34.01)"/><use xlink:href="#h" x="18.355" y="26.681" style="fill:#000;fill-opacity:1"/></svg>