<svg xmlns="http://www.w3.org/2000/svg" xmlns:xlink="http://www.w3.org/1999/xlink" width="403.52" height="216.48" viewBox="0 0 302.64 162.36"><defs><clipPath id="d"><path d="M32 114h146v48.36H32Zm0 0"/></clipPath><clipPath id="h"><path d="M57 111h96v24H57Zm0 0"/></clipPath><clipPath id="i"><path d="M57.367 114.914c1.985 0 7.938-1.984 7.938-3.969 0 5.953 79.37 5.953 79.37 0 0 1.985 5.954 3.97 7.938 3.97v19.839H57.367Zm0 0"/></clipPath><clipPath id="t"><path d="M204 59h98.64v100H204Zm0 0"/></clipPath><clipPath id="u"><path d="M253 86h11v42h-11Zm0 0"/></clipPath><clipPath id="v"><path d="M297.465 108.96c0-24.108-19.547-43.655-43.656-43.655-24.11 0-43.653 19.547-43.653 43.656 0 24.11 19.543 43.652 43.653 43.652 24.109 0 43.656-19.543 43.656-43.652Zm0 0"/></clipPath><clipPath id="w"><path d="M210 86h54v42h-54Zm0 0"/></clipPath><clipPath id="x"><path d="M297.465 108.96c0-24.108-19.547-43.655-43.656-43.655-24.11 0-43.653 19.547-43.653 43.656 0 24.11 19.543 43.652 43.653 43.652 24.109 0 43.656-19.543 43.656-43.652Zm0 0"/></clipPath><clipPath id="y"><path d="M210 127h74v26h-74Zm0 0"/></clipPath><clipPath id="z"><path d="M297.465 108.96c0-24.108-19.547-43.655-43.656-43.655-24.11 0-43.653 19.547-43.653 43.656 0 24.11 19.543 43.652 43.653 43.652 24.109 0 43.656-19.543 43.656-43.652Zm0 0"/></clipPath><clipPath id="A"><path d="M283.574 146.66c-3.969 0-19.844-13.89-19.844-19.844h-9.921c0 7.938-63.496 19.844-69.45 19.844v19.844h99.215Zm0 0"/></clipPath><clipPath id="C"><path d="M210 121h80v32h-80Zm0 0"/></clipPath><clipPath id="D"><path d="M297.465 108.96c0-24.108-19.547-43.655-43.656-43.655-24.11 0-43.653 19.547-43.653 43.656 0 24.11 19.543 43.652 43.653 43.652 24.109 0 43.656-19.543 43.656-43.652Zm0 0"/></clipPath><clipPath id="E"><path d="M252 115h27v38h-27Zm0 0"/></clipPath><clipPath id="F"><path d="M297.465 108.96c0-24.108-19.547-43.655-43.656-43.655-24.11 0-43.653 19.547-43.653 43.656 0 24.11 19.543 43.652 43.653 43.652 24.109 0 43.656-19.543 43.656-43.652Zm0 0"/></clipPath><clipPath id="G"><path d="M264 142h5v5h-5Zm0 0"/></clipPath><clipPath id="H"><path d="M297.465 108.96c0-24.108-19.547-43.655-43.656-43.655-24.11 0-43.653 19.547-43.653 43.656 0 24.11 19.543 43.652 43.653 43.652 24.109 0 43.656-19.543 43.656-43.652Zm0 0"/></clipPath><clipPath id="I"><path d="M239 115h27v38h-27Zm0 0"/></clipPath><clipPath id="J"><path d="M297.465 108.96c0-24.108-19.547-43.655-43.656-43.655-24.11 0-43.653 19.547-43.653 43.656 0 24.11 19.543 43.652 43.653 43.652 24.109 0 43.656-19.543 43.656-43.652Zm0 0"/></clipPath><clipPath id="K"><path d="M248 142h5v5h-5Zm0 0"/></clipPath><clipPath id="L"><path d="M297.465 108.96c0-24.108-19.547-43.655-43.656-43.655-24.11 0-43.653 19.547-43.653 43.656 0 24.11 19.543 43.652 43.653 43.652 24.109 0 43.656-19.543 43.656-43.652Zm0 0"/></clipPath><clipPath id="M"><path d="M210 65h65v34h-65Zm0 0"/></clipPath><clipPath id="N"><path d="M297.465 108.96c0-24.108-19.547-43.655-43.656-43.655-24.11 0-43.653 19.547-43.653 43.656 0 24.11 19.543 43.652 43.653 43.652 24.109 0 43.656-19.543 43.656-43.652Zm0 0"/></clipPath><symbol overflow="visible" id="a"><path style="stroke:none" d="M6.047-2.047c.172 0 .344 0 .344-.203 0-.188-.188-.188-.344-.188H1.109c-.156 0-.343 0-.343.188 0 .203.171.203.343.203Zm0 0"/></symbol><symbol overflow="visible" id="b"><path style="stroke:none" d="M7.625-2.047c-1.063.75-1.281 1.938-1.281 2.031 0 .125.125.125.187.125.11 0 .172 0 .203-.125.25-1.046.86-1.75 1.844-2.109.047-.016.125-.047.125-.125s-.062-.094-.125-.125c-1.125-.422-1.64-1.219-1.844-2.094-.03-.125-.062-.125-.203-.125-.078 0-.187 0-.187.125 0 .094.218 1.282 1.281 2.032H.844c-.156 0-.328 0-.328.187 0 .203.171.203.328.203Zm0 0"/></symbol><symbol overflow="visible" id="c"><path style="stroke:none" d="M4.375-3.531c0-.14-.125-.25-.281-.25-.157 0-.344.11-.39.36-.204-.345-.485-.548-.845-.548-1.093 0-2.203 1.281-2.203 2.531C.656-.594 1.187 0 1.906 0c.407 0 .766-.219 1.063-.5C2.859 0 2.703.594 2.64.766c-.047.093-.375.843-1.282.843-.171 0-.468 0-.687-.062C.844 1.469 1 1.28 1 1.078 1 .891.844.766.656.766c-.203 0-.5.156-.5.53 0 .438.5.548 1.219.548 1.156 0 1.828-.672 1.969-1.25Zm-1.234 2.36c-.032.171-.047.187-.188.359-.453.515-.844.593-1.015.593-.438 0-.594-.437-.594-.844 0-.343.203-1.343.484-1.875.219-.421.625-.796 1.031-.796.579 0 .735.671.735.75 0 .03-.031.093-.031.14Zm0 0"/></symbol><symbol overflow="visible" id="e"><path style="stroke:none" d="M4.813-1.938c0-1.125-.891-2.03-1.97-2.03-.609 0-1.03.312-1.25.562V-6.22l-1.327.094v.281c.609 0 .687.063.687.5V0h.25l.344-.547c.281.39.719.64 1.203.64 1.078 0 2.063-.859 2.063-2.03Zm-.782-.015c0 .422-.047.906-.281 1.266-.203.28-.563.562-1.047.562-.39 0-.734-.219-.953-.547-.125-.187-.125-.203-.125-.375v-1.812c0-.172 0-.188.094-.329.312-.406.75-.546 1.093-.546.376 0 .735.203.97.593.234.375.25.907.25 1.188Zm0 0"/></symbol><symbol overflow="visible" id="f"><path style="stroke:none" d="M4.344-1.906c0-1.172-.938-2.11-2.032-2.11-1.14 0-2.046.954-2.046 2.11 0 1.11.921 2 2.03 2 1.142 0 2.048-.906 2.048-2Zm-.782-.078c0 .328 0 .843-.218 1.234a1.18 1.18 0 0 1-1.031.594c-.454 0-.829-.219-1.032-.563-.234-.39-.25-.86-.25-1.265 0-.344 0-.844.219-1.22a1.222 1.222 0 0 1 1.047-.593c.515 0 .875.297 1.062.594.204.375.204.828.204 1.219Zm0 0"/></symbol><symbol overflow="visible" id="g"><path style="stroke:none" d="M4.656-3.594v-.265c-.281.015-.562.015-.672.015-.25 0-.53 0-.78-.015v.265c.405.031.405.344.405.39a.589.589 0 0 1-.062.25L2.64-.811l-1.016-2.36c-.047-.125-.047-.187-.047-.187 0-.235.313-.235.5-.235v-.265l-1 .015c-.031 0-.547 0-.89-.015v.265c.406 0 .578.031.687.266L2.281 0l-.219.531C1.86 1 1.61 1.61 1.016 1.61a.661.661 0 0 1-.391-.125c.063-.015.313-.078.313-.39A.36.36 0 0 0 .563.719c-.22 0-.391.14-.391.39 0 .391.39.735.844.735.593 0 .968-.532 1.187-1.016l1.625-3.797c.094-.234.266-.594.828-.625Zm0 0"/></symbol><symbol overflow="visible" id="k"><path style="stroke:none" d="M4.453-.797v-.5h-.25v.484c0 .11 0 .547-.312.547-.329 0-.329-.421-.329-.562v-1.578c0-.516 0-.813-.406-1.188-.328-.297-.765-.422-1.203-.422-.766 0-1.39.375-1.39.954 0 .265.187.421.421.421.25 0 .422-.171.422-.406 0-.39-.406-.437-.406-.437.234-.235.672-.313.922-.313.469 0 .969.344.969 1.14v.282c-.485.031-1.157.063-1.75.36-.641.312-.844.78-.844 1.14 0 .734.875.969 1.469.969a1.31 1.31 0 0 0 1.218-.735c.032.375.297.688.688.688.219 0 .781-.125.781-.844Zm-1.562-.469c0 .875-.672 1.141-1.063 1.141-.422 0-.812-.313-.812-.75 0-.594.515-1.219 1.875-1.281Zm0 0"/></symbol><symbol overflow="visible" id="l"><path style="stroke:none" d="M4.906 0v-.281c-.453 0-.687 0-.687-.281v-1.72c0-.734 0-1-.25-1.312-.203-.25-.547-.375-1-.375-.828 0-1.219.625-1.344.875h-.016v-.875l-1.296.11v.265c.609 0 .687.063.687.516v2.39C1-.28.906-.28.312-.28V0c.422-.016.594-.031 1.032-.031.422 0 .547.015 1.015.031v-.281c-.593 0-.687 0-.687-.406v-1.641c0-.953.672-1.406 1.234-1.406.531 0 .64.437.64.968v2.079c0 .406-.093.406-.687.406V0c.422-.016.594-.031 1.032-.031.421 0 .546.015 1.015.031Zm0 0"/></symbol><symbol overflow="visible" id="m"><path style="stroke:none" d="M3.828-1.063a.123.123 0 0 0-.125-.125c-.094 0-.11.063-.125.11a1.273 1.273 0 0 1-1.234.922c-.438 0-.797-.235-1-.547-.297-.438-.313-.969-.313-1.344h2.563c.187 0 .234 0 .234-.203 0-.922-.5-1.766-1.656-1.766-1.063 0-1.906.938-1.906 2.047 0 1.172.937 2.063 2.03 2.063 1.095 0 1.532-.953 1.532-1.157Zm-.61-1.203H1.048c.078-1.39.875-1.53 1.125-1.53.5 0 1.031.374 1.047 1.53Zm0 0"/></symbol><symbol overflow="visible" id="n"><path style="stroke:none" d="M4.906 0v-.281c-.61 0-.687-.063-.687-.5V-3.97l-1.36.11v.265c.61 0 .688.063.688.516V-1.5c0 .797-.438 1.375-1.094 1.375-.734 0-.781-.39-.781-.875v-2.969l-1.36.11v.265c.688 0 .688.031.688.828v1.344c0 .594 0 .969.422 1.281.25.172.625.235.984.235.469 0 .906-.203 1.156-.735h.016v.735Zm0 0"/></symbol><symbol overflow="visible" id="o"><path style="stroke:none" d="M4.844 0v-.281c-.61 0-.688-.063-.688-.5V-6.22l-1.328.094v.281c.61 0 .688.063.688.5v1.907c-.047-.047-.454-.532-1.141-.532-1.11 0-2.063.89-2.063 2.047 0 1.11.891 2.016 1.954 2.016A1.59 1.59 0 0 0 3.484-.47v.563Zm-1.36-1.078c0 .156 0 .187-.125.375a1.3 1.3 0 0 1-1.046.578c-.391 0-.75-.219-.985-.594-.234-.39-.25-.906-.25-1.203 0-.422.047-.89.281-1.25a1.262 1.262 0 0 1 1.047-.562c.375 0 .735.187.969.53.11.142.11.142.11.313Zm0 0"/></symbol><symbol overflow="visible" id="p"><path style="stroke:none" d="M7.469 0v-.281c-.453 0-.672 0-.688-.281v-1.72c0-.78 0-1.03-.297-1.359-.187-.218-.546-.328-.953-.328-.656 0-1.093.375-1.343.86-.11-.532-.47-.86-1.22-.86-.718 0-1.155.469-1.343.89h-.016v-.89l-1.296.11v.265c.609 0 .687.063.687.516v2.39C1-.28.906-.28.312-.28V0c.422-.016.594-.031 1.032-.031.422 0 .547.015 1.015.031v-.281c-.593 0-.687 0-.687-.406v-1.641c0-.969.703-1.406 1.234-1.406.5 0 .656.343.656.968v2.079c0 .406-.093.406-.687.406V0c.422-.016.594-.031 1.016-.031.437 0 .546.015 1.03.031v-.281c-.593 0-.702 0-.702-.406v-1.641c0-.969.703-1.406 1.25-1.406.484 0 .64.343.64.968v2.079c0 .406-.093.406-.687.406V0c.422-.016.594-.031 1.031-.031.422 0 .547.015 1.016.031Zm0 0"/></symbol><symbol overflow="visible" id="q"><path style="stroke:none" d="M3.828-1.063a.123.123 0 0 0-.125-.125c-.094 0-.11.063-.125.11a1.273 1.273 0 0 1-1.234.922c-.438 0-.797-.235-1-.547-.297-.438-.313-.969-.313-1.344h2.563c.187 0 .234 0 .234-.203 0-.922-.5-1.766-1.656-1.766-1.063 0-1.906.938-1.906 2.047 0 1.172.937 2.063 2.03 2.063 1.095 0 1.532-.953 1.532-1.157Zm-.61-1.203H1.048c.078-1.39.875-1.53 1.125-1.53.5 0 1.031.374 1.047 1.53ZM2.626-4.75 1.531-6.094c-.078-.11-.125-.172-.281-.172-.156 0-.328.157-.328.36 0 .125.062.203.187.297l1.344 1.046Zm0 0"/></symbol><symbol overflow="visible" id="r"><path style="stroke:none" d="M3.063-1.11v-.515h-.25v.484c0 .672-.282.985-.594.985-.61 0-.61-.781-.61-.953v-2.485h1.313v-.265H1.609v-1.657h-.25c0 .75-.312 1.672-1.187 1.704v.218h.781v2.485c0 1 .719 1.203 1.203 1.203.594 0 .906-.563.906-1.203Zm0 0"/></symbol><symbol overflow="visible" id="s"><path style="stroke:none" d="M3.344-3.406c0-.281-.266-.563-.672-.563-.531 0-.906.375-1.125.938v-.938l-1.281.11v.265c.609 0 .687.063.687.516v2.39C.953-.28.86-.28.266-.28V0C.75-.016.859-.031 1.312-.031L2.454 0v-.281h-.172c-.656 0-.687-.094-.687-.422v-1.344c0-.375.093-1.687 1.125-1.687-.016.015-.156.125-.156.328a.39.39 0 1 0 .78 0Zm0 0"/></symbol><linearGradient id="j" gradientUnits="userSpaceOnUse" x1="0" y1="25.002" x2="0" y2="74.998" gradientTransform="matrix(1.90512 0 0 -.47627 9.734 146.663)"><stop offset="0" style="stop-color:gray;stop-opacity:1"/><stop offset=".008" style="stop-color:gray;stop-opacity:1"/><stop offset=".016" style="stop-color:#818181;stop-opacity:1"/><stop offset=".023" style="stop-color:#828282;stop-opacity:1"/><stop offset=".031" style="stop-color:#838383;stop-opacity:1"/><stop offset=".039" style="stop-color:#848484;stop-opacity:1"/><stop offset=".047" style="stop-color:#858585;stop-opacity:1"/><stop offset=".055" style="stop-color:#868686;stop-opacity:1"/><stop offset=".063" style="stop-color:#878787;stop-opacity:1"/><stop offset=".07" style="stop-color:#888;stop-opacity:1"/><stop offset=".078" style="stop-color:#898989;stop-opacity:1"/><stop offset=".086" style="stop-color:#8a8a8a;stop-opacity:1"/><stop offset=".094" style="stop-color:#8b8b8b;stop-opacity:1"/><stop offset=".102" style="stop-color:#8c8c8c;stop-opacity:1"/><stop offset=".109" style="stop-color:#8d8d8d;stop-opacity:1"/><stop offset=".117" style="stop-color:#8e8e8e;stop-opacity:1"/><stop offset=".125" style="stop-color:#8f8f8f;stop-opacity:1"/><stop offset=".133" style="stop-color:#909090;stop-opacity:1"/><stop offset=".141" style="stop-color:#919191;stop-opacity:1"/><stop offset=".148" style="stop-color:#929292;stop-opacity:1"/><stop offset=".156" style="stop-color:#939393;stop-opacity:1"/><stop offset=".164" style="stop-color:#949494;stop-opacity:1"/><stop offset=".172" style="stop-color:#959595;stop-opacity:1"/><stop offset=".18" style="stop-color:#969696;stop-opacity:1"/><stop offset=".188" style="stop-color:#979797;stop-opacity:1"/><stop offset=".195" style="stop-color:#989898;stop-opacity:1"/><stop offset=".203" style="stop-color:#999;stop-opacity:1"/><stop offset=".211" style="stop-color:#9a9a9a;stop-opacity:1"/><stop offset=".219" style="stop-color:#9b9b9b;stop-opacity:1"/><stop offset=".227" style="stop-color:#9c9c9c;stop-opacity:1"/><stop offset=".234" style="stop-color:#9d9d9d;stop-opacity:1"/><stop offset=".242" style="stop-color:#9e9e9e;stop-opacity:1"/><stop offset=".25" style="stop-color:#9f9f9f;stop-opacity:1"/><stop offset=".258" style="stop-color:#a0a0a0;stop-opacity:1"/><stop offset=".266" style="stop-color:#a1a1a1;stop-opacity:1"/><stop offset=".273" style="stop-color:#a2a2a2;stop-opacity:1"/><stop offset=".281" style="stop-color:#a3a3a3;stop-opacity:1"/><stop offset=".289" style="stop-color:#a4a4a4;stop-opacity:1"/><stop offset=".297" style="stop-color:#a5a5a5;stop-opacity:1"/><stop offset=".305" style="stop-color:#a6a6a6;stop-opacity:1"/><stop offset=".313" style="stop-color:#a7a7a7;stop-opacity:1"/><stop offset=".32" style="stop-color:#a8a8a8;stop-opacity:1"/><stop offset=".328" style="stop-color:#a9a9a9;stop-opacity:1"/><stop offset=".336" style="stop-color:#aaa;stop-opacity:1"/><stop offset=".344" style="stop-color:#ababab;stop-opacity:1"/><stop offset=".352" style="stop-color:#acacac;stop-opacity:1"/><stop offset=".359" style="stop-color:#adadad;stop-opacity:1"/><stop offset=".367" style="stop-color:#aeaeae;stop-opacity:1"/><stop offset=".375" style="stop-color:#afafaf;stop-opacity:1"/><stop offset=".383" style="stop-color:#b0b0b0;stop-opacity:1"/><stop offset=".391" style="stop-color:#b1b1b1;stop-opacity:1"/><stop offset=".398" style="stop-color:#b2b2b2;stop-opacity:1"/><stop offset=".406" style="stop-color:#b3b3b3;stop-opacity:1"/><stop offset=".414" style="stop-color:#b4b4b4;stop-opacity:1"/><stop offset=".422" style="stop-color:#b5b5b5;stop-opacity:1"/><stop offset=".43" style="stop-color:#b6b6b6;stop-opacity:1"/><stop offset=".438" style="stop-color:#b7b7b7;stop-opacity:1"/><stop offset=".445" style="stop-color:#b8b8b8;stop-opacity:1"/><stop offset=".453" style="stop-color:#b9b9b9;stop-opacity:1"/><stop offset=".461" style="stop-color:#bababa;stop-opacity:1"/><stop offset=".469" style="stop-color:#bbb;stop-opacity:1"/><stop offset=".477" style="stop-color:#bcbcbc;stop-opacity:1"/><stop offset=".484" style="stop-color:#bdbdbd;stop-opacity:1"/><stop offset=".492" style="stop-color:#bebebe;stop-opacity:1"/><stop offset=".5" style="stop-color:#bfbfbf;stop-opacity:1"/><stop offset=".508" style="stop-color:silver;stop-opacity:1"/><stop offset=".516" style="stop-color:#c1c1c1;stop-opacity:1"/><stop offset=".523" style="stop-color:#c2c2c2;stop-opacity:1"/><stop offset=".531" style="stop-color:#c3c3c3;stop-opacity:1"/><stop offset=".539" style="stop-color:#c4c4c4;stop-opacity:1"/><stop offset=".547" style="stop-color:#c5c5c5;stop-opacity:1"/><stop offset=".555" style="stop-color:#c6c6c6;stop-opacity:1"/><stop offset=".563" style="stop-color:#c7c7c7;stop-opacity:1"/><stop offset=".57" style="stop-color:#c8c8c8;stop-opacity:1"/><stop offset=".578" style="stop-color:#c9c9c9;stop-opacity:1"/><stop offset=".586" style="stop-color:#cacaca;stop-opacity:1"/><stop offset=".594" style="stop-color:#cbcbcb;stop-opacity:1"/><stop offset=".602" style="stop-color:#ccc;stop-opacity:1"/><stop offset=".609" style="stop-color:#cdcdcd;stop-opacity:1"/><stop offset=".617" style="stop-color:#cecece;stop-opacity:1"/><stop offset=".625" style="stop-color:#cfcfcf;stop-opacity:1"/><stop offset=".633" style="stop-color:#d0d0d0;stop-opacity:1"/><stop offset=".641" style="stop-color:#d1d1d1;stop-opacity:1"/><stop offset=".648" style="stop-color:#d2d2d2;stop-opacity:1"/><stop offset=".656" style="stop-color:#d3d3d3;stop-opacity:1"/><stop offset=".664" style="stop-color:#d4d4d4;stop-opacity:1"/><stop offset=".672" style="stop-color:#d5d5d5;stop-opacity:1"/><stop offset=".68" style="stop-color:#d6d6d6;stop-opacity:1"/><stop offset=".688" style="stop-color:#d7d7d7;stop-opacity:1"/><stop offset=".695" style="stop-color:#d8d8d8;stop-opacity:1"/><stop offset=".703" style="stop-color:#d9d9d9;stop-opacity:1"/><stop offset=".711" style="stop-color:#dadada;stop-opacity:1"/><stop offset=".719" style="stop-color:#dbdbdb;stop-opacity:1"/><stop offset=".727" style="stop-color:#dcdcdc;stop-opacity:1"/><stop offset=".734" style="stop-color:#ddd;stop-opacity:1"/><stop offset=".742" style="stop-color:#dedede;stop-opacity:1"/><stop offset=".75" style="stop-color:#dfdfdf;stop-opacity:1"/><stop offset=".758" style="stop-color:#e0e0e0;stop-opacity:1"/><stop offset=".766" style="stop-color:#e1e1e1;stop-opacity:1"/><stop offset=".773" style="stop-color:#e2e2e2;stop-opacity:1"/><stop offset=".781" style="stop-color:#e3e3e3;stop-opacity:1"/><stop offset=".789" style="stop-color:#e4e4e4;stop-opacity:1"/><stop offset=".797" style="stop-color:#e5e5e5;stop-opacity:1"/><stop offset=".805" style="stop-color:#e6e6e6;stop-opacity:1"/><stop offset=".813" style="stop-color:#e7e7e7;stop-opacity:1"/><stop offset=".82" style="stop-color:#e8e8e8;stop-opacity:1"/><stop offset=".828" style="stop-color:#e9e9e9;stop-opacity:1"/><stop offset=".836" style="stop-color:#eaeaea;stop-opacity:1"/><stop offset=".844" style="stop-color:#ebebeb;stop-opacity:1"/><stop offset=".852" style="stop-color:#ececec;stop-opacity:1"/><stop offset=".859" style="stop-color:#ededed;stop-opacity:1"/><stop offset=".867" style="stop-color:#eee;stop-opacity:1"/><stop offset=".875" style="stop-color:#efefef;stop-opacity:1"/><stop offset=".883" style="stop-color:#f0f0f0;stop-opacity:1"/><stop offset=".891" style="stop-color:#f1f1f1;stop-opacity:1"/><stop offset=".898" style="stop-color:#f2f2f2;stop-opacity:1"/><stop offset=".906" style="stop-color:#f3f3f3;stop-opacity:1"/><stop offset=".914" style="stop-color:#f4f4f4;stop-opacity:1"/><stop offset=".922" style="stop-color:#f5f5f5;stop-opacity:1"/><stop offset=".93" style="stop-color:#f6f6f6;stop-opacity:1"/><stop offset=".938" style="stop-color:#f7f7f7;stop-opacity:1"/><stop offset=".945" style="stop-color:#f8f8f8;stop-opacity:1"/><stop offset=".953" style="stop-color:#f9f9f9;stop-opacity:1"/><stop offset=".961" style="stop-color:#fafafa;stop-opacity:1"/><stop offset=".969" style="stop-color:#fbfbfb;stop-opacity:1"/><stop offset=".977" style="stop-color:#fcfcfc;stop-opacity:1"/><stop offset=".984" style="stop-color:#fcfcfc;stop-opacity:1"/><stop offset=".992" style="stop-color:#fdfdfd;stop-opacity:1"/><stop offset="1" style="stop-color:#fefefe;stop-opacity:1"/></linearGradient><linearGradient id="B" gradientUnits="userSpaceOnUse" x1="0" y1="42.501" x2="0" y2="74.997" gradientTransform="matrix(1.9845 0 0 -.7938 134.742 186.35)"><stop offset="0" style="stop-color:#acacac;stop-opacity:1"/><stop offset=".008" style="stop-color:#acacac;stop-opacity:1"/><stop offset=".016" style="stop-color:#adadad;stop-opacity:1"/><stop offset=".023" style="stop-color:#aeaeae;stop-opacity:1"/><stop offset=".031" style="stop-color:#aeaeae;stop-opacity:1"/><stop offset=".039" style="stop-color:#afafaf;stop-opacity:1"/><stop offset=".047" style="stop-color:#b0b0b0;stop-opacity:1"/><stop offset=".055" style="stop-color:#b0b0b0;stop-opacity:1"/><stop offset=".063" style="stop-color:#b1b1b1;stop-opacity:1"/><stop offset=".07" style="stop-color:#b2b2b2;stop-opacity:1"/><stop offset=".078" style="stop-color:#b2b2b2;stop-opacity:1"/><stop offset=".086" style="stop-color:#b3b3b3;stop-opacity:1"/><stop offset=".094" style="stop-color:#b4b4b4;stop-opacity:1"/><stop offset=".102" style="stop-color:#b4b4b4;stop-opacity:1"/><stop offset=".109" style="stop-color:#b5b5b5;stop-opacity:1"/><stop offset=".117" style="stop-color:#b6b6b6;stop-opacity:1"/><stop offset=".125" style="stop-color:#b6b6b6;stop-opacity:1"/><stop offset=".133" style="stop-color:#b7b7b7;stop-opacity:1"/><stop offset=".141" style="stop-color:#b7b7b7;stop-opacity:1"/><stop offset=".148" style="stop-color:#b8b8b8;stop-opacity:1"/><stop offset=".156" style="stop-color:#b9b9b9;stop-opacity:1"/><stop offset=".164" style="stop-color:#b9b9b9;stop-opacity:1"/><stop offset=".172" style="stop-color:#bababa;stop-opacity:1"/><stop offset=".18" style="stop-color:#bbb;stop-opacity:1"/><stop offset=".188" style="stop-color:#bbb;stop-opacity:1"/><stop offset=".195" style="stop-color:#bcbcbc;stop-opacity:1"/><stop offset=".203" style="stop-color:#bdbdbd;stop-opacity:1"/><stop offset=".211" style="stop-color:#bdbdbd;stop-opacity:1"/><stop offset=".219" style="stop-color:#bebebe;stop-opacity:1"/><stop offset=".227" style="stop-color:#bfbfbf;stop-opacity:1"/><stop offset=".234" style="stop-color:#bfbfbf;stop-opacity:1"/><stop offset=".242" style="stop-color:silver;stop-opacity:1"/><stop offset=".25" style="stop-color:#c1c1c1;stop-opacity:1"/><stop offset=".258" style="stop-color:#c1c1c1;stop-opacity:1"/><stop offset=".266" style="stop-color:#c2c2c2;stop-opacity:1"/><stop offset=".273" style="stop-color:#c2c2c2;stop-opacity:1"/><stop offset=".281" style="stop-color:#c3c3c3;stop-opacity:1"/><stop offset=".289" style="stop-color:#c4c4c4;stop-opacity:1"/><stop offset=".297" style="stop-color:#c4c4c4;stop-opacity:1"/><stop offset=".305" style="stop-color:#c5c5c5;stop-opacity:1"/><stop offset=".313" style="stop-color:#c6c6c6;stop-opacity:1"/><stop offset=".32" style="stop-color:#c6c6c6;stop-opacity:1"/><stop offset=".328" style="stop-color:#c7c7c7;stop-opacity:1"/><stop offset=".336" style="stop-color:#c8c8c8;stop-opacity:1"/><stop offset=".344" style="stop-color:#c8c8c8;stop-opacity:1"/><stop offset=".352" style="stop-color:#c9c9c9;stop-opacity:1"/><stop offset=".359" style="stop-color:#cacaca;stop-opacity:1"/><stop offset=".367" style="stop-color:#cacaca;stop-opacity:1"/><stop offset=".375" style="stop-color:#cbcbcb;stop-opacity:1"/><stop offset=".383" style="stop-color:#ccc;stop-opacity:1"/><stop offset=".391" style="stop-color:#ccc;stop-opacity:1"/><stop offset=".398" style="stop-color:#cdcdcd;stop-opacity:1"/><stop offset=".406" style="stop-color:#cdcdcd;stop-opacity:1"/><stop offset=".414" style="stop-color:#cecece;stop-opacity:1"/><stop offset=".422" style="stop-color:#cfcfcf;stop-opacity:1"/><stop offset=".43" style="stop-color:#cfcfcf;stop-opacity:1"/><stop offset=".438" style="stop-color:#d0d0d0;stop-opacity:1"/><stop offset=".445" style="stop-color:#d1d1d1;stop-opacity:1"/><stop offset=".453" style="stop-color:#d1d1d1;stop-opacity:1"/><stop offset=".461" style="stop-color:#d2d2d2;stop-opacity:1"/><stop offset=".469" style="stop-color:#d3d3d3;stop-opacity:1"/><stop offset=".477" style="stop-color:#d3d3d3;stop-opacity:1"/><stop offset=".484" style="stop-color:#d4d4d4;stop-opacity:1"/><stop offset=".492" style="stop-color:#d5d5d5;stop-opacity:1"/><stop offset=".5" style="stop-color:#d5d5d5;stop-opacity:1"/><stop offset=".508" style="stop-color:#d6d6d6;stop-opacity:1"/><stop offset=".516" style="stop-color:#d7d7d7;stop-opacity:1"/><stop offset=".523" style="stop-color:#d7d7d7;stop-opacity:1"/><stop offset=".531" style="stop-color:#d8d8d8;stop-opacity:1"/><stop offset=".539" style="stop-color:#d8d8d8;stop-opacity:1"/><stop offset=".547" style="stop-color:#d9d9d9;stop-opacity:1"/><stop offset=".555" style="stop-color:#dadada;stop-opacity:1"/><stop offset=".563" style="stop-color:#dadada;stop-opacity:1"/><stop offset=".57" style="stop-color:#dbdbdb;stop-opacity:1"/><stop offset=".578" style="stop-color:#dcdcdc;stop-opacity:1"/><stop offset=".586" style="stop-color:#dcdcdc;stop-opacity:1"/><stop offset=".594" style="stop-color:#ddd;stop-opacity:1"/><stop offset=".602" style="stop-color:#dedede;stop-opacity:1"/><stop offset=".609" style="stop-color:#dedede;stop-opacity:1"/><stop offset=".617" style="stop-color:#dfdfdf;stop-opacity:1"/><stop offset=".625" style="stop-color:#e0e0e0;stop-opacity:1"/><stop offset=".633" style="stop-color:#e0e0e0;stop-opacity:1"/><stop offset=".641" style="stop-color:#e1e1e1;stop-opacity:1"/><stop offset=".648" style="stop-color:#e2e2e2;stop-opacity:1"/><stop offset=".656" style="stop-color:#e2e2e2;stop-opacity:1"/><stop offset=".664" style="stop-color:#e3e3e3;stop-opacity:1"/><stop offset=".672" style="stop-color:#e3e3e3;stop-opacity:1"/><stop offset=".68" style="stop-color:#e4e4e4;stop-opacity:1"/><stop offset=".688" style="stop-color:#e5e5e5;stop-opacity:1"/><stop offset=".695" style="stop-color:#e5e5e5;stop-opacity:1"/><stop offset=".703" style="stop-color:#e6e6e6;stop-opacity:1"/><stop offset=".711" style="stop-color:#e7e7e7;stop-opacity:1"/><stop offset=".719" style="stop-color:#e7e7e7;stop-opacity:1"/><stop offset=".727" style="stop-color:#e8e8e8;stop-opacity:1"/><stop offset=".734" style="stop-color:#e9e9e9;stop-opacity:1"/><stop offset=".742" style="stop-color:#e9e9e9;stop-opacity:1"/><stop offset=".75" style="stop-color:#eaeaea;stop-opacity:1"/><stop offset=".758" style="stop-color:#ebebeb;stop-opacity:1"/><stop offset=".766" style="stop-color:#ebebeb;stop-opacity:1"/><stop offset=".773" style="stop-color:#ececec;stop-opacity:1"/><stop offset=".781" style="stop-color:#ededed;stop-opacity:1"/><stop offset=".789" style="stop-color:#ededed;stop-opacity:1"/><stop offset=".797" style="stop-color:#eee;stop-opacity:1"/><stop offset=".805" style="stop-color:#eee;stop-opacity:1"/><stop offset=".813" style="stop-color:#efefef;stop-opacity:1"/><stop offset=".82" style="stop-color:#f0f0f0;stop-opacity:1"/><stop offset=".828" style="stop-color:#f0f0f0;stop-opacity:1"/><stop offset=".836" style="stop-color:#f1f1f1;stop-opacity:1"/><stop offset=".844" style="stop-color:#f2f2f2;stop-opacity:1"/><stop offset=".852" style="stop-color:#f2f2f2;stop-opacity:1"/><stop offset=".859" style="stop-color:#f3f3f3;stop-opacity:1"/><stop offset=".867" style="stop-color:#f4f4f4;stop-opacity:1"/><stop offset=".875" style="stop-color:#f4f4f4;stop-opacity:1"/><stop offset=".883" style="stop-color:#f5f5f5;stop-opacity:1"/><stop offset=".891" style="stop-color:#f6f6f6;stop-opacity:1"/><stop offset=".898" style="stop-color:#f6f6f6;stop-opacity:1"/><stop offset=".906" style="stop-color:#f7f7f7;stop-opacity:1"/><stop offset=".914" style="stop-color:#f8f8f8;stop-opacity:1"/><stop offset=".922" style="stop-color:#f8f8f8;stop-opacity:1"/><stop offset=".93" style="stop-color:#f9f9f9;stop-opacity:1"/><stop offset=".938" style="stop-color:#f9f9f9;stop-opacity:1"/><stop offset=".945" style="stop-color:#fafafa;stop-opacity:1"/><stop offset=".953" style="stop-color:#fbfbfb;stop-opacity:1"/><stop offset=".961" style="stop-color:#fbfbfb;stop-opacity:1"/><stop offset=".969" style="stop-color:#fcfcfc;stop-opacity:1"/><stop offset=".977" style="stop-color:#fdfdfd;stop-opacity:1"/><stop offset=".984" style="stop-color:#fdfdfd;stop-opacity:1"/><stop offset=".992" style="stop-color:#fefefe;stop-opacity:1"/><stop offset="1" style="stop-color:#fff;stop-opacity:1"/></linearGradient></defs><path style="fill:none;stroke-width:.79701;stroke-linecap:butt;stroke-linejoin:miter;stroke:#000;stroke-opacity:1;stroke-miterlimit:10" d="M-99.213 79.371V62.117" transform="matrix(1 0 0 -1 104.99 156.582)"/><path style="stroke:none;fill-rule:nonzero;fill:#000;fill-opacity:1" d="m5.777 97.055 2.07-4.145-2.07 1.555-2.074-1.555"/><use xlink:href="#a" x="7.769" y="85.999" style="fill:#000;fill-opacity:1"/><use xlink:href="#b" x="7.773" y="85.999" style="fill:#000;fill-opacity:1"/><use xlink:href="#c" x="10.019" y="89.86" style="fill:#000;fill-opacity:1"/><g clip-path="url(#d)"><path style="fill:none;stroke-width:1.59404;stroke-linecap:butt;stroke-linejoin:miter;stroke:#000;stroke-opacity:1;stroke-miterlimit:10" d="m-49.607 3.969 99.215 15.875M49.608 3.969l-99.215 15.875" transform="matrix(1 0 0 -1 104.99 156.582)"/></g><path style="fill-rule:nonzero;fill:#000;fill-opacity:1;stroke-width:.3985;stroke-linecap:butt;stroke-linejoin:miter;stroke:#000;stroke-opacity:1;stroke-miterlimit:10" d="M5.951 11.906a5.952 5.952 0 1 1-11.902 0 5.95 5.95 0 1 1 11.902 0Zm0 0" transform="matrix(1 0 0 -1 104.99 156.582)"/><path style="fill-rule:nonzero;fill:gray;fill-opacity:1;stroke-width:.3985;stroke-linecap:butt;stroke-linejoin:miter;stroke:#000;stroke-opacity:1;stroke-miterlimit:10" d="M-59.53 0v3.969H59.53V0ZM-59.53 19.844v3.968H59.53v-3.968Zm0 0" transform="matrix(1 0 0 -1 104.99 156.582)"/><use xlink:href="#e" x="28.878" y="134.704" style="fill:#000;fill-opacity:1"/><use xlink:href="#f" x="34.249" y="134.704" style="fill:#000;fill-opacity:1"/><use xlink:href="#g" x="38.615" y="134.704" style="fill:#000;fill-opacity:1"/><path style="fill:none;stroke-width:1.59404;stroke-linecap:butt;stroke-linejoin:miter;stroke:#000;stroke-opacity:1;stroke-miterlimit:10" d="M-99.213 0H99.213" transform="matrix(1 0 0 -1 104.99 156.582)"/><g clip-path="url(#h)"><g clip-path="url(#i)"><path style="stroke:none;fill-rule:nonzero;fill:url(#j)" d="M57.367 134.754v-23.809h95.246v23.809Zm0 0"/></g></g><path style="fill:none;stroke-width:.3985;stroke-linecap:butt;stroke-linejoin:miter;stroke:gray;stroke-opacity:1;stroke-miterlimit:10" d="M-47.623 41.668c1.985 0 7.938 1.984 7.938 3.969 0-5.953 79.37-5.953 79.37 0 0-1.985 5.954-3.97 7.938-3.97V21.829h-95.246Zm0 0" transform="matrix(1 0 0 -1 104.99 156.582)"/><path style="fill:none;stroke-width:.3985;stroke-linecap:butt;stroke-linejoin:miter;stroke:#000;stroke-opacity:1;stroke-miterlimit:10" d="M-47.623 43.652v-19.84h95.246v19.84M-39.685 45.637v5.953h79.37v-5.953Zm0 0" transform="matrix(1 0 0 -1 104.99 156.582)"/><g style="fill:#000;fill-opacity:1"><use xlink:href="#k" x="34.638" y="108.622"/><use xlink:href="#l" x="39.246" y="108.622"/><use xlink:href="#l" x="44.366" y="108.622"/><use xlink:href="#m" x="49.485" y="108.622"/><use xlink:href="#k" x="53.585" y="108.622"/><use xlink:href="#n" x="58.193" y="108.622"/></g><path style="fill:none;stroke-width:.3985;stroke-linecap:butt;stroke-linejoin:miter;stroke:#000;stroke-opacity:1;stroke-miterlimit:10" d="M-39.685 51.59-.002 91.277v19.844M-.002 91.277 39.686 51.59" transform="matrix(1 0 0 -1 104.99 156.582)"/><path style="fill:none;stroke-width:.79701;stroke-linecap:butt;stroke-linejoin:miter;stroke:gray;stroke-opacity:1;stroke-miterlimit:10" d="M-.002 111.121c-3.144.469-5.668 1.7-5.668 3.117 0 1.414 2.524 2.645 5.668 3.117 3.149.473 5.672.188 5.672-.285 0-.468-2.523-.754-5.672-.281-3.144.473-5.668 1.7-5.668 3.117 0 1.418 2.524 2.645 5.668 3.117 3.149.473 5.672.188 5.672-.28 0-.474-2.523-.759-5.672-.286-3.144.473-5.668 1.703-5.668 3.117 0 1.418 2.524 2.649 5.668 3.121 3.149.473 5.672.188 5.672-.285s-2.523-.754-5.672-.285c-3.144.477-5.668 1.703-5.668 3.121 0 1.414 2.524 2.645 5.668 3.117 3.149.473 5.672.188 5.672-.285 0-.469-2.523-.754-5.672-.281-3.144.472-5.668 1.703-5.668 3.117 0 1.418 2.524 2.645 5.668 3.117 3.149.473 5.672.188 5.672-.281 0-.473-2.523-.758-5.672-.285-3.144.472-5.668 1.703-5.668 3.117 0 1.418 2.524 2.648 5.668 3.121v5.102" transform="matrix(1 0 0 -1 104.99 156.582)"/><g style="fill:#000;fill-opacity:1"><use xlink:href="#o" x="33.76" y="27.837"/><use xlink:href="#g" x="38.88" y="27.837"/><use xlink:href="#l" x="43.743" y="27.837"/><use xlink:href="#k" x="48.863" y="27.837"/><use xlink:href="#p" x="53.471" y="27.837"/><use xlink:href="#f" x="61.15" y="27.837"/><use xlink:href="#p" x="65.757" y="27.837"/><use xlink:href="#q" x="73.436" y="27.837"/><use xlink:href="#r" x="77.536" y="27.837"/><use xlink:href="#s" x="81.12" y="27.837"/><use xlink:href="#m" x="84.724" y="27.837"/></g><path style="fill:none;stroke-width:1.59404;stroke-linecap:butt;stroke-linejoin:miter;stroke:#000;stroke-opacity:1;stroke-miterlimit:10" d="M-79.369 0v150.805H-.002" transform="matrix(1 0 0 -1 104.99 156.582)"/><path style="fill:none;stroke-width:.3985;stroke-linecap:butt;stroke-linejoin:miter;stroke:#000;stroke-opacity:1;stroke-miterlimit:10" d="M45.639 47.621a5.952 5.952 0 0 1-5.953 5.953 5.954 5.954 0 1 1 5.953-5.953Zm0 0" transform="matrix(1 0 0 -1 104.99 156.582)"/><path style="fill:none;stroke-width:.79701;stroke-linecap:butt;stroke-linejoin:miter;stroke:#000;stroke-opacity:1;stroke-miterlimit:10" d="M59.53 47.621h37.093" transform="matrix(1 0 0 -1 104.99 156.582)"/><path style="stroke:none;fill-rule:nonzero;fill:#000;fill-opacity:1" d="m204.203 108.96-4.144-2.073 1.554 2.074-1.554 2.07"/><g clip-path="url(#t)"><path style="fill:none;stroke-width:.3985;stroke-linecap:butt;stroke-linejoin:miter;stroke:#000;stroke-opacity:1;stroke-dasharray:2.98883,2.98883;stroke-miterlimit:10" d="M192.475 47.621c0 24.11-19.547 43.656-43.656 43.656-24.11 0-43.653-19.547-43.653-43.656 0-24.11 19.543-43.652 43.653-43.652 24.109 0 43.656 19.543 43.656 43.652Zm0 0" transform="matrix(1 0 0 -1 104.99 156.582)"/></g><g clip-path="url(#u)"><g clip-path="url(#v)"><path style="fill:none;stroke-width:.3985;stroke-linecap:butt;stroke-linejoin:miter;stroke:#000;stroke-opacity:1;stroke-dasharray:2.98883,2.98883;stroke-miterlimit:10" d="M158.74 29.766v39.683h-9.921V29.766Zm0 0" transform="matrix(1 0 0 -1 104.99 156.582)"/></g></g><g clip-path="url(#w)"><g clip-path="url(#x)"><path style="fill:none;stroke-width:.3985;stroke-linecap:butt;stroke-linejoin:miter;stroke:#000;stroke-opacity:1;stroke-miterlimit:10" d="M158.74 29.766v39.683H79.37V29.766Zm0 0" transform="matrix(1 0 0 -1 104.99 156.582)"/></g></g><g clip-path="url(#y)"><g clip-path="url(#z)"><g clip-path="url(#A)"><path style="stroke:none;fill-rule:nonzero;fill:url(#B)" d="M210.156 152.613v-25.797h73.418v25.797Zm0 0"/></g></g></g><g clip-path="url(#C)"><g clip-path="url(#D)"><path style="fill:none;stroke-width:.3985;stroke-linecap:butt;stroke-linejoin:miter;stroke:gray;stroke-opacity:1;stroke-miterlimit:10" d="M178.584 9.922c-3.969 0-19.844 13.89-19.844 19.844h-9.921c0-7.938-63.496-19.844-69.45-19.844V-9.922h99.215Zm0 0" transform="matrix(1 0 0 -1 104.99 156.582)"/></g></g><g clip-path="url(#E)"><g clip-path="url(#F)"><path style="fill:none;stroke-width:.79701;stroke-linecap:butt;stroke-linejoin:miter;stroke:#3686c1;stroke-opacity:1;stroke-miterlimit:10" d="m158.74 29.766 3.461-17.305" transform="matrix(1 0 0 -1 104.99 156.582)"/></g></g><g clip-path="url(#G)"><g clip-path="url(#H)"><path style="stroke:none;fill-rule:nonzero;fill:#3686c1;fill-opacity:1" d="m267.7 146.66 1.218-4.469-1.727 1.93-2.336-1.117"/></g></g><g clip-path="url(#I)"><g clip-path="url(#J)"><path style="fill:none;stroke-width:.79701;stroke-linecap:butt;stroke-linejoin:miter;stroke:#3686c1;stroke-opacity:1;stroke-miterlimit:10" d="m148.819 29.766-3.461-17.305" transform="matrix(1 0 0 -1 104.99 156.582)"/></g></g><g clip-path="url(#K)"><g clip-path="url(#L)"><path style="stroke:none;fill-rule:nonzero;fill:#3686c1;fill-opacity:1" d="m249.84 146.66 2.847-3.656-2.34 1.117-1.726-1.93"/></g></g><g clip-path="url(#M)"><g clip-path="url(#N)"><path style="fill:none;stroke-width:.79701;stroke-linecap:butt;stroke-linejoin:miter;stroke:#000;stroke-opacity:1;stroke-miterlimit:10" d="m158.74 69.45-79.37 79.37" transform="matrix(1 0 0 -1 104.99 156.582)"/></g></g></svg>