<svg xmlns="http://www.w3.org/2000/svg" width="940pt" height="469pt" viewBox="0 0 940 469"><defs><clipPath id="a"><path d="M0 0v468.75h940V0H0Zm686.742 144.824-5.906-7.008-3.625 2.989 5.988 7.09-2.761-6.926 6.304 3.855Zm-6.773 38.266-7.008 5.902 2.992 3.625 7.09-5.902-6.93 2.754 3.856-6.38Zm0 0"/></clipPath><clipPath id="b"><path d="M0 0v468.75h940V0H0Zm582.965 134.117 1.101-9.215-4.648-.55-1.176 9.132 3.305-6.691 1.418 7.324Zm-12.203 8.266-8.739 2.754 1.414 4.57 8.743-2.836-7.407-.078 5.989-4.41Zm0 0"/></clipPath><clipPath id="c"><path d="M0 0v468.75h940V0H0Zm295.648 116.793-1.89-7.086-3.383.941 1.89 7.012.395-5.433 2.988 4.566Zm0 0"/></clipPath><clipPath id="d"><path d="M0 0v468.75h940V0H0Zm312.973 239.547.472 7.32 3.543-.234-.55-7.328-1.34 5.36-2.125-5.118Zm0 0"/></clipPath><clipPath id="e"><path d="M0 0v468.75h940V0H0Zm353.207 172.066 7.324-1.105-.55-3.461-7.325 1.102 5.512 1.023-4.961 2.441Zm0 0"/></clipPath><clipPath id="f"><path d="M0 0v468.75h940V0H0Zm261.246 176.164h-7.324v3.543h7.324l-5.2-1.734 5.2-1.809Zm0 0"/></clipPath><clipPath id="g"><path d="M0 0v468.75h940V0H0Zm773.746 45.46-3.387-6.538-3.07 1.578 3.305 6.61-.785-5.43 3.937 3.78Zm0 0"/></clipPath><clipPath id="h"><path d="M0 0v468.75h940V0H0Zm781.934 367.887-3.305 6.613 3.07 1.574 3.383-6.535-3.934 3.86.786-5.512Zm0 0"/></clipPath><clipPath id="i"><path d="M0 0v468.75h940V0H0Zm631.625 194.586-7.324-.945-.39 3.464 7.32.946-4.961-2.363 5.355-1.102Zm0 0"/></clipPath><clipPath id="j"><path d="M0 0v468.75h940V0H0Zm0 0"/></clipPath><clipPath id="k"><path d="M0 0v468.75h940V0H0Zm935.945 122.305 4.407-5.825-2.754-2.128-4.41 5.828 4.566-3.07-1.809 5.195Zm0 0"/></clipPath><clipPath id="l"><path d="M0 0v468.75h940V0H0Zm796.422 34.906h11.969V30.18h-11.97l9.446 2.363-9.445 2.363Zm0 0"/></clipPath><clipPath id="m"><path d="M0 0v468.75h940V0H0Zm641.703 209.703h11.969v-4.723h-11.969l9.45 2.36-9.45 2.363Zm0 0"/></clipPath></defs><path style="stroke:none;fill-rule:nonzero;fill:#000;fill-opacity:1" d="M548.2 138.918h7.91l1.074-2.676h-.489c-.625 1.055-.976 1.211-2.715 1.211h-3.847c4.082-3.984 5.547-6.23 5.547-8.594 0-2.129-1.485-3.652-3.535-3.652-1.016 0-1.875.39-2.56 1.211-.546.664-.8 1.289-.995 2.5h.332c.234-.664.39-.957.664-1.309.488-.566 1.23-.918 1.934-.918 1.386 0 2.617 1.387 2.617 2.97 0 1.894-1.446 4.413-3.965 6.952l-1.504 1.543-.469.489v.273ZM567.613 128.918l-1.23 3.437c-.508-2.421-1.738-3.69-3.555-3.69-.918 0-1.894.37-2.637 1.015-1.113.937-1.68 2.382-1.68 4.355 0 3.184 1.583 5.137 4.18 5.137 1.758 0 3.067-.899 3.887-2.676.098.39.235.742.45 1.25.527 1.113.859 1.426 1.503 1.426.664 0 1.114-.41 1.387-1.25.137-.469.195-.899.215-2.031h-.528c-.039 1.035-.41 1.757-.918 1.757-.664 0-1.308-1.054-1.562-2.421l2.266-6.309h-1.778Zm-1.797 5.176-.468 1.308c-.703 2.032-1.504 3.008-2.5 3.008-.625 0-1.23-.39-1.563-.976-.43-.82-.664-2.07-.664-3.516 0-1.445.274-2.656.781-3.535.371-.586.82-.86 1.446-.86 1.425 0 2.343 1.133 2.734 3.418l.234 1.153ZM694.965 174.43h7.91l1.074-2.676h-.488c-.625 1.055-.977 1.21-2.715 1.21h-3.848c4.082-3.984 5.547-6.23 5.547-8.593 0-2.129-1.484-3.652-3.535-3.652-1.015 0-1.875.39-2.558 1.21-.547.665-.801 1.29-.997 2.5h.332c.235-.663.391-.956.665-1.308.488-.566 1.23-.918 1.933-.918 1.387 0 2.617 1.387 2.617 2.969 0 1.894-1.445 4.414-3.965 6.953l-1.503 1.543-.47.488v.274ZM706.04 175.66c0 1.074-.157 2.442-.372 3.203h1.64c.274-.449.333-.996.333-2.558v-2.715c1.054.8 1.933 1.094 3.105 1.094 2.363 0 4.004-1.758 4.004-4.336 0-2.13-1.055-3.633-3.262-4.57 1.524-.821 2.246-1.739 2.246-2.891 0-1.778-1.777-3.262-3.925-3.262-2.149 0-3.77 1.426-3.77 3.32v12.715Zm1.6-12.91c0-1.406.84-2.383 2.012-2.383 1.27 0 2.168 1.172 2.168 2.754 0 1.074-.566 2.207-1.074 2.207-.078 0-.137 0-.45-.078a3.126 3.126 0 0 0-.624-.078c-.469 0-.86.312-.86.703 0 .371.372.605.88.605.117 0 .234-.02.43-.058.233-.059.429-.078.605-.078.253 0 .39.039.507.156.899.86 1.446 2.363 1.446 4.004 0 2.012-.88 3.184-2.364 3.184-.996 0-1.992-.45-2.675-1.231v-9.707Zm0 0"/><g clip-path="url(#a)" clip-rule="evenodd"><path style="fill:none;stroke-width:4.72425;stroke-linecap:butt;stroke-linejoin:miter;stroke:#000;stroke-opacity:1;stroke-miterlimit:10" d="M5403.25 2229.219c75.813 43.562 122.531 124.281 122.531 211.718 0 72.188-31.906 140.657-87.218 187.063" transform="matrix(.125 0 0 -.125 0 468.75)"/></g><path style="stroke:none;fill-rule:evenodd;fill:#000;fill-opacity:1" d="m679.969 183.09-3.856 6.379 6.93-2.754.312-3.313-3.386-.312"/><path style="fill:none;stroke-width:4.72425;stroke-linecap:butt;stroke-linejoin:miter;stroke:#000;stroke-opacity:1;stroke-miterlimit:10" d="m5439.781 2285.281-30.875-51.031 55.438 22.031 2.5 26.5-27.063 2.5Zm0 0" transform="matrix(.125 0 0 -.125 0 468.75)"/><path style="stroke:none;fill-rule:evenodd;fill:#000;fill-opacity:1" d="m686.742 144.824-6.304-3.855 2.761 6.926 3.305.234.238-3.305"/><path style="fill:none;stroke-width:4.72425;stroke-linecap:butt;stroke-linejoin:miter;stroke:#000;stroke-opacity:1;stroke-miterlimit:10" d="m5493.938 2591.406-50.407 30.844 22.063-55.406 26.437-1.875 1.907 26.437Zm0 0" transform="matrix(.125 0 0 -.125 0 468.75)"/><g clip-path="url(#b)" clip-rule="evenodd"><path style="fill:none;stroke-width:4.72425;stroke-linecap:butt;stroke-linejoin:miter;stroke:#000;stroke-opacity:1;stroke-miterlimit:10" d="M4511.281 2573.094c79.75 1.125 143.782 66.031 143.782 145.812 0 8.125-.657 16.282-2 24.282" transform="matrix(.125 0 0 -.125 0 468.75)"/></g><path style="stroke:none;fill-rule:evenodd;fill:#000;fill-opacity:1" d="m570.762 142.383-5.989 4.41 7.407.078 1.574-2.996-2.992-1.492"/><path style="fill:none;stroke-width:4.72425;stroke-linecap:butt;stroke-linejoin:miter;stroke:#000;stroke-opacity:1;stroke-miterlimit:10" d="m4566.094 2610.938-47.907-35.282 59.25-.625 12.594 23.969-23.937 11.938Zm0 0" transform="matrix(.125 0 0 -.125 0 468.75)"/><path style="stroke:none;fill-rule:evenodd;fill:#000;fill-opacity:1" d="m582.965 134.117-1.418-7.324-3.305 6.691 2.047 2.68 2.676-2.047"/><path style="fill:none;stroke-width:4.72425;stroke-linecap:butt;stroke-linejoin:miter;stroke:#000;stroke-opacity:1;stroke-miterlimit:10" d="m4663.719 2677.063-11.344 58.593-26.438-53.531 16.376-21.438 21.406 16.376Zm0 0" transform="matrix(.125 0 0 -.125 0 468.75)"/><path style="fill:none;stroke-width:4.72425;stroke-linecap:butt;stroke-linejoin:miter;stroke:#000;stroke-opacity:1;stroke-dasharray:37.794,37.794;stroke-miterlimit:10" d="M3288 2390.469c0-113.75-697.406-205.969-1557.719-205.969-860.312 0-1557.75 92.219-1557.75 205.969s697.438 205.968 1557.75 205.968c860.313 0 1557.719-92.218 1557.719-205.968Zm0 0" transform="matrix(.125 0 0 -.125 0 468.75)"/><path style="fill:none;stroke-width:4.72425;stroke-linecap:butt;stroke-linejoin:miter;stroke:#000;stroke-opacity:1;stroke-miterlimit:10" d="m1702.531 1723.406 733.219-209.781" transform="matrix(.125 0 0 -.125 0 468.75)"/><path style="stroke:none;fill-rule:evenodd;fill:#d9d9d9;fill-opacity:1" d="M427.535 252.617c0 15.742-95.285 28.5-212.828 28.5-117.539 0-212.828-12.758-212.828-28.5s95.289-28.508 212.828-28.508c117.543 0 212.828 12.766 212.828 28.508"/><path style="fill:none;stroke-width:4.72425;stroke-linecap:butt;stroke-linejoin:miter;stroke:#000;stroke-opacity:1;stroke-miterlimit:10" d="M3420.281 1729.063c0-125.938-762.281-228-1702.625-228-940.312 0-1702.625 102.062-1702.625 228 0 125.937 762.313 228.062 1702.625 228.062 940.344 0 1702.625-102.125 1702.625-228.063ZM1702.531 1723.406H3456.22M1702.531 1723.406l-440.25-440.281" transform="matrix(.125 0 0 -.125 0 468.75)"/><path style="stroke:none;fill-rule:evenodd;fill:#fff;fill-opacity:1" d="M392.578 140.02c0 13.265-80.058 24.02-178.812 24.02-98.758 0-178.813-10.755-178.813-24.02 0-13.262 80.055-24.012 178.813-24.012 98.754 0 178.812 10.75 178.812 24.012"/><path style="fill:none;stroke-width:4.72425;stroke-linecap:butt;stroke-linejoin:miter;stroke:#000;stroke-opacity:1;stroke-dasharray:37.794,37.794;stroke-miterlimit:10" d="M3140.625 2629.844c0-106.125-640.469-192.157-1430.5-192.157-790.063 0-1430.5 86.032-1430.5 192.157 0 106.093 640.438 192.125 1430.5 192.125 790.031 0 1430.5-86.032 1430.5-192.125Zm0 0" transform="matrix(.125 0 0 -.125 0 468.75)"/><path style="fill:none;stroke-width:4.72425;stroke-linecap:butt;stroke-linejoin:bevel;stroke:#000;stroke-opacity:1;stroke-dasharray:37.794,37.794;stroke-miterlimit:10" d="M1698.156 3433.594h3.75l6.344-.625 8.781-.625 10.094-1.282 10.063-.624 8.187-1.25 7.594-1.25 6.906-1.313 6.938-1.25 6.906-1.875 6.937-1.906 7.532-2.5 8.218-2.532 8.844-2.5 8.188-3.156 8.78-3.75 7.594-3.156 8.157-3.188 7.593-3.124 6.282-3.157 6.281-2.531 6.938-3.75 6.937-3.188 7.563-4.406 7.562-3.781 8.188-4.375 7.53-5.031 7.594-5.032 7.532-5.062 6.968-5.031 7.532-5.719 6.312-4.375 6.282-5.688 6.937-5.656 6.938-6.281 6.937-6.938 7.531-6.937 8.188-7.563 7.531-7.562 7.594-8.156 6.906-7.594 6.969-8.156 6.906-7.594 6.281-7.531 6.344-7.563 6.281-7.531 6.282-7.594 6.312-8.218 6.313-8.782 6.906-9.437 6.281-9.469 6.969-10.063 6.281-10.093 6.281-10.688 6.344-10.093 6.281-10.063 5.657-10.094 5.687-10.062 5.656-10.719 4.407-7.563 4.437-8.843 4.406-8.782 4.407-9.437 5.03-9.469 4.407-10.718 5.063-10.688 5.656-11.375 5.031-11.938 5.688-12 5.03-12.562 5.657-13.25 5.031-12.594 5.657-13.218 5.062-13.22 5.031-13.25 5.657-13.218 5.062-13.844 4.406-11.375 4.407-11.937 5.03-11.969 4.407-13.25 5.063-13.844 5.03-13.875 5.032-14.5 5.688-15.718 5.03-15.75 5.657-15.75 5.656-17 5.032-16.376 5.687-17.03 5.031-16.97 5.657-17.03 5.062-16.376 4.406-16.375 5.032-16.406 4.406-16.375 4.406-15.719 3.813-15.75 4.406-15.75 3.125-13.25 3.156-13.812 3.188-13.25 3.093-14.469 3.188-14.5 3.156-14.5 3.125-15.125 3.156-15.75 2.5-16.344 3.157-16.375 3.124-17.031 3.188-17.625 2.531-17.656 3.125-17.594 2.532-17.688 2.5-18.28 2.562-18.22 2.5-18.28 2.531-18.282 2.5-18.25 1.907-18.281 2.5-18.25 1.906-18.282 1.875-18.28 1.875-18.22 2.531-18.937 1.25-16.344 1.875-17.031 1.313-17 1.874-18.281 1.907-18.25 1.25-20.157 1.875-20.156 1.875-22.062 1.906-23.282 1.875-23.937 1.938-26.438 2.5-27.124 1.843-29 2.563-30.22 1.875-31.468 2.531-32.125 2.5-32.156 2.531-32.094 1.875-31.5 2.563-30.219 1.843-27.75 1.876-24.562 1.312-21.407 1.25-17.656 1.25-13.218.625-10.063v-6.313l.625-3.75v-1.312" transform="matrix(.125 0 0 -.125 0 468.75)"/><path style="stroke:none;fill-rule:nonzero;fill:#000;fill-opacity:1" d="M174.98 205.387h-2.87v.351c.663.117.82.254.82.899v7.5c0 .625-.137.761-.84.879v.351h4.082v-.312c-.918-.04-1.172-.332-1.172-1.348v-2.11c.723.704 1.113.9 1.777.9 1.68 0 2.871-1.563 2.871-3.79 0-2.07-1.113-3.496-2.773-3.496-.898 0-1.426.332-1.895 1.21v-1.034Zm.02 1.718c0-.097.137-.332.313-.527.312-.332.664-.508.976-.508.781 0 1.152.899 1.152 2.852 0 1.855-.43 2.754-1.289 2.754-.488 0-.918-.352-1.152-.918v-3.653ZM182.8 214.113h-2.167v.274c.508.097.605.215.605.664v3.32c0 .45-.078.547-.605.664v.274h2.695v-.274c-.39-.058-.527-.215-.527-.644v-4.278Zm-.8-2.578c-.469 0-.86.39-.86.86 0 .507.372.878.86.878a.859.859 0 0 0 .879-.859.875.875 0 0 0-.879-.879ZM185.969 214.113h-2.149v.274c.489.078.606.195.606.664v3.32c0 .469-.098.566-.606.664v.274h2.715v-.274c-.41-.058-.547-.215-.547-.644v-2.989c0-.058.078-.175.176-.273.254-.254.527-.39.781-.39.39 0 .586.312.586.937v2.715c0 .43-.136.605-.527.644v.274h2.637v-.274c-.43-.039-.547-.156-.547-.644v-2.813c0-.976-.586-1.582-1.524-1.582-.664 0-1.191.313-1.601.977v-.86ZM193.277 214.113h-1.054v-1.894h-.293c-.684.976-1.133 1.484-1.856 2.09v.312h.567v3.633c0 .742.488 1.191 1.27 1.191.76 0 1.21-.332 1.66-1.27l-.274-.116c-.234.43-.41.586-.645.586-.312 0-.43-.196-.43-.645v-3.379h1.055v-.508ZM461.832 216.957c-.45.547-.8.762-1.289.762-.45 0-.762-.215-.996-.606-.215-.351-.293-.722-.352-1.504h2.832c-.058-.957-.234-1.484-.586-1.894-.37-.45-.898-.664-1.503-.664-1.407 0-2.364 1.113-2.364 2.754 0 1.64.938 2.715 2.324 2.715.918 0 1.465-.352 2.188-1.407l-.254-.156Zm-2.695-1.758c.039-1.367.254-1.816.8-1.816.313 0 .528.195.606.527.059.215.078.547.117 1.113v.176h-1.523ZM467.742 218.09c-.176-.059-.254-.098-.332-.215l-1.68-2.578 1.133-1.406c.215-.254.45-.391.801-.45v-.273h-1.894v.273c.097.02.195.02.234.02.254.02.332.078.332.254s-.098.37-.43.722a4.353 4.353 0 0 0-.39.508c-.079-.078-.118-.136-.157-.175-.351-.489-.644-.958-.644-1.114 0-.136.156-.195.527-.215v-.273h-2.812v.273c.293.059.351.098.586.45l1.445 2.207c-.332.43-.645.8-.742.957-.625.82-.86 1.015-1.27 1.035v.273h1.895v-.273c-.39-.02-.547-.098-.547-.274 0-.156.293-.625.703-1.152.04-.039.117-.117.195-.215l.47.703c.253.371.37.586.37.723s-.156.195-.508.215v.273h2.715v-.273ZM471.355 213.168h-1.054v-1.895h-.293c-.684.977-1.133 1.485-1.856 2.09v.313h.567v3.633c0 .742.488 1.191 1.27 1.191.761 0 1.21-.332 1.66-1.27l-.274-.117c-.234.43-.41.586-.645.586-.312 0-.43-.195-.43-.644v-3.38h1.055v-.507ZM450.879 207.121h-2.871v.352c.664.117.82.254.82.898v7.5c0 .625-.137.762-.84.879v.352h4.082v-.313c-.918-.039-1.172-.332-1.172-1.348v-2.109c.723.703 1.114.898 1.778.898 1.68 0 2.87-1.562 2.87-3.789 0-2.07-1.112-3.496-2.773-3.496-.898 0-1.425.332-1.894 1.211v-1.035Zm.02 1.719c0-.098.136-.332.312-.528.312-.332.664-.507.976-.507.782 0 1.153.898 1.153 2.851 0 1.856-.43 2.754-1.29 2.754-.488 0-.917-.351-1.152-.918v-3.652Zm0 0"/><path style="stroke:none;fill-rule:evenodd;fill:#d9d9d9;fill-opacity:1" d="m750.043 134.273 23.23 3.622 34.012-1.81 30.395-10.788 18.5-11.336 7.172-6.54 10.707 28.032 5.433 19.684 4.723 33.383-.55 32.84-2.997 20.312-3.617 18.504-15.512 9.527-20.234 9.524-16.145 4.804-20.863 2.914h-16.695l-25.668-3.543 4.175-12.52 2.993-24.484 1.18-24.41-2.36-23.308-4.805-27.399-5.351-17.328-4.805-10.156"/><path style="fill:none;stroke-width:4.72425;stroke-linecap:butt;stroke-linejoin:miter;stroke:#000;stroke-opacity:1;stroke-miterlimit:10" d="m6000.344 2675.813 185.843-28.97 272.094 14.47 243.157 86.312 148 90.688 57.374 52.312 85.657-224.25 43.468-157.469 37.782-267.062-4.407-262.719-23.968-162.5-28.938-148.031-124.093-76.219-161.876-76.188-129.156-38.437-166.906-23.313h-133.563l-205.343 28.344 33.406 100.157 23.938 195.874 9.468 195.282-18.906 186.437-38.438 219.219-42.812 138.625-38.438 81.25-23.343 76.188Zm0 0" transform="matrix(.125 0 0 -.125 0 468.75)"/><path style="fill:none;stroke-width:4.72425;stroke-linecap:butt;stroke-linejoin:miter;stroke:#000;stroke-opacity:1;stroke-dasharray:37.794,37.794;stroke-miterlimit:10" d="M6552.156 2667.625 4775.875 2601.5 6637.188 1496" transform="matrix(.125 0 0 -.125 0 468.75)"/><path style="fill:none;stroke-width:4.72425;stroke-linecap:butt;stroke-linejoin:miter;stroke:#000;stroke-opacity:1;stroke-dasharray:37.794,37.794;stroke-miterlimit:10" d="m6166.656 2062.313-2959.281 936 3847.438-718.688" transform="matrix(.125 0 0 -.125 0 468.75)"/><path style="fill:none;stroke-width:4.72425;stroke-linecap:butt;stroke-linejoin:miter;stroke:#000;stroke-opacity:1;stroke-miterlimit:10" d="M1702.531 1702.625v2032.688" transform="matrix(.125 0 0 -.125 0 468.75)"/><path style="stroke:none;fill-rule:evenodd;fill:#e6e6e6;fill-opacity:1" d="m292.66 161.754 12.52-1.027 13.46-1.336 2.602 14.406 2.438 17.797-11.57.394-14.805 1.102-1.336-13.149-2.211-15.832"/><path style="fill:none;stroke-width:4.72425;stroke-linecap:butt;stroke-linejoin:miter;stroke:#000;stroke-opacity:1;stroke-miterlimit:10" d="m2341.281 2455.969 100.157 8.218 107.687 10.688 20.813-115.25 19.53-142.375-92.593-3.156-118.438-8.813-10.687 105.188-17.688 126.656-8.78 18.844Zm0 0" transform="matrix(.125 0 0 -.125 0 468.75)"/><g clip-path="url(#c)" clip-rule="evenodd"><path style="fill-rule:evenodd;fill:#e6e6e6;fill-opacity:1;stroke-width:4.72425;stroke-linecap:butt;stroke-linejoin:miter;stroke:#000;stroke-opacity:1;stroke-miterlimit:10" d="m2440.781 2467.313-101.406 391.78" transform="matrix(.125 0 0 -.125 0 468.75)"/></g><path style="stroke:none;fill-rule:evenodd;fill:#000;fill-opacity:1" d="m295.648 116.793-2.988-4.566-.394 5.433 2.125 1.262 1.257-2.129"/><path style="fill:none;stroke-width:4.72425;stroke-linecap:butt;stroke-linejoin:miter;stroke:#000;stroke-opacity:1;stroke-miterlimit:10" d="m2365.188 2815.656-23.907 36.532-3.156-43.47 17-10.093 10.063 17.031Zm0 0" transform="matrix(.125 0 0 -.125 0 468.75)"/><g clip-path="url(#d)" clip-rule="evenodd"><path style="fill-rule:evenodd;fill:#e6e6e6;fill-opacity:1;stroke-width:4.72425;stroke-linecap:butt;stroke-linejoin:miter;stroke:#000;stroke-opacity:1;stroke-miterlimit:10" d="m2493.094 2208.438 28.343-423.282" transform="matrix(.125 0 0 -.125 0 468.75)"/></g><path style="stroke:none;fill-rule:evenodd;fill:#000;fill-opacity:1" d="m312.973 239.547 2.125 5.117 1.34-5.36-1.81-1.648-1.655 1.89"/><path style="fill:none;stroke-width:4.72425;stroke-linecap:butt;stroke-linejoin:miter;stroke:#000;stroke-opacity:1;stroke-miterlimit:10" d="m2503.781 1833.625 17-40.938 10.719 42.876-14.469 13.187-13.25-15.125Zm0 0" transform="matrix(.125 0 0 -.125 0 468.75)"/><g clip-path="url(#e)" clip-rule="evenodd"><path style="fill-rule:evenodd;fill:#e6e6e6;fill-opacity:1;stroke-width:4.72425;stroke-linecap:butt;stroke-linejoin:miter;stroke:#000;stroke-opacity:1;stroke-miterlimit:10" d="m2578.125 2350.156 294.75 44.094" transform="matrix(.125 0 0 -.125 0 468.75)"/></g><path style="stroke:none;fill-rule:evenodd;fill:#000;fill-opacity:1" d="m353.207 172.066 4.961-2.441-5.512-1.023-1.414 2.046 1.965 1.418"/><path style="fill:none;stroke-width:4.72425;stroke-linecap:butt;stroke-linejoin:miter;stroke:#000;stroke-opacity:1;stroke-miterlimit:10" d="m2825.656 2373.469 39.688 19.531-44.094 8.188-11.313-16.376 15.72-11.343Zm0 0" transform="matrix(.125 0 0 -.125 0 468.75)"/><g clip-path="url(#f)" clip-rule="evenodd"><path style="fill-rule:evenodd;fill:#e6e6e6;fill-opacity:1;stroke-width:4.72425;stroke-linecap:butt;stroke-linejoin:miter;stroke:#000;stroke-opacity:1;stroke-miterlimit:10" d="M2360.156 2326.219h-319.343" transform="matrix(.125 0 0 -.125 0 468.75)"/></g><path style="stroke:none;fill-rule:evenodd;fill:#000;fill-opacity:1" d="m261.246 176.164-5.2 1.809 5.2 1.734 1.727-1.734-1.727-1.809"/><path style="fill:none;stroke-width:4.72425;stroke-linecap:butt;stroke-linejoin:miter;stroke:#000;stroke-opacity:1;stroke-miterlimit:10" d="m2089.969 2340.688-41.594-14.47 41.594-13.874 13.812 13.875-13.812 14.468Zm0 0" transform="matrix(.125 0 0 -.125 0 468.75)"/><g clip-path="url(#g)" clip-rule="evenodd"><path style="fill-rule:evenodd;fill:#e6e6e6;fill-opacity:1;stroke-width:4.72425;stroke-linecap:butt;stroke-linejoin:miter;stroke:#000;stroke-opacity:1;stroke-miterlimit:10" d="M6533.906 2692.188 6155.313 3423.5" transform="matrix(.125 0 0 -.125 0 468.75)"/></g><path style="stroke:none;fill-rule:evenodd;fill:#000;fill-opacity:1" d="m773.746 45.46-3.937-3.78.785 5.43 2.367.706.785-2.355"/><path style="fill:none;stroke-width:4.72425;stroke-linecap:butt;stroke-linejoin:miter;stroke:#000;stroke-opacity:1;stroke-miterlimit:10" d="m6189.969 3386.313-31.5 30.25 6.312-43.438 18.907-5.656 6.28 18.843Zm0 0" transform="matrix(.125 0 0 -.125 0 468.75)"/><g clip-path="url(#h)" clip-rule="evenodd"><path style="fill-rule:evenodd;fill:#e6e6e6;fill-opacity:1;stroke-width:4.72425;stroke-linecap:butt;stroke-linejoin:miter;stroke:#000;stroke-opacity:1;stroke-miterlimit:10" d="m6624.625 1487.188-378.594-731.282" transform="matrix(.125 0 0 -.125 0 468.75)"/></g><path style="stroke:none;fill-rule:evenodd;fill:#000;fill-opacity:1" d="m781.934 367.887-.786 5.511 3.934-3.859-.785-2.36-2.363.708"/><path style="fill:none;stroke-width:4.72425;stroke-linecap:butt;stroke-linejoin:miter;stroke:#000;stroke-opacity:1;stroke-miterlimit:10" d="m6255.469 806.906-6.282-44.093 31.47 30.875-6.282 18.875-18.906-5.657Zm0 0" transform="matrix(.125 0 0 -.125 0 468.75)"/><g clip-path="url(#i)" clip-rule="evenodd"><path style="fill-rule:evenodd;fill:#e6e6e6;fill-opacity:1;stroke-width:4.72425;stroke-linecap:butt;stroke-linejoin:miter;stroke:#000;stroke-opacity:1;stroke-miterlimit:10" d="M6167.938 2034.563 5002.624 2185.75" transform="matrix(.125 0 0 -.125 0 468.75)"/></g><path style="stroke:none;fill-rule:evenodd;fill:#000;fill-opacity:1" d="m631.625 194.586-5.355 1.101 4.96 2.364 1.891-1.496-1.496-1.97"/><path style="fill:none;stroke-width:4.72425;stroke-linecap:butt;stroke-linejoin:miter;stroke:#000;stroke-opacity:1;stroke-miterlimit:10" d="m5053 2193.313-42.844-8.813 39.688-18.906 15.125 11.968-11.969 15.75Zm0 0" transform="matrix(.125 0 0 -.125 0 468.75)"/><g clip-path="url(#j)"><g clip-path="url(#k)" clip-rule="evenodd"><path style="fill-rule:evenodd;fill:#e6e6e6;fill-opacity:1;stroke-width:4.72425;stroke-linecap:butt;stroke-linejoin:miter;stroke:#000;stroke-opacity:1;stroke-miterlimit:10" d="m7092.625 2268.281 413.813 550.5" transform="matrix(.125 0 0 -.125 0 468.75)"/></g></g><path style="stroke:none;fill-rule:evenodd;fill:#000;fill-opacity:1" d="m935.945 122.305 1.809-5.196-4.567 3.07.32 2.442 2.438-.316"/><path style="fill:none;stroke-width:4.72425;stroke-linecap:butt;stroke-linejoin:miter;stroke:#000;stroke-opacity:1;stroke-miterlimit:10" d="m7487.563 2771.563 14.468 41.562-36.531-24.563 2.563-19.53 19.5 2.53Zm0 0" transform="matrix(.125 0 0 -.125 0 468.75)"/><path style="fill:none;stroke-width:4.72425;stroke-linecap:butt;stroke-linejoin:bevel;stroke:#000;stroke-opacity:1;stroke-dasharray:37.794,37.794;stroke-miterlimit:10" d="m1702.531 3441.781 1.907-.656 5.062-.625 8.156-1.875 12-2.531 15.125-3.75 18.282-3.782 20.093-4.437 20.844-5.031 20.781-4.407 19.532-4.406 18.218-4.406 17.032-3.75 15.124-3.813 13.876-3.156 12.562-3.156 11.344-3.125 10.062-2.563 9.469-2.5 9.438-2.53 11.343-3.75 11.313-3.782 10.75-3.781 10.718-3.782 9.438-3.75 9.406-3.812 8.844-4.406 8.188-3.782 8.218-3.812 6.907-3.75 6.906-3.781 5.656-3.782 6.344-3.78 5.656-3.75 6.906-4.407 6.938-4.438 6.937-5.03 7.563-5.032 8.187-5.063 8.219-6.28 8.156-5.657 8.188-5.688 8.156-6.312 8.219-5.656 7.593-5.657 8.157-5.687 6.312-5.031 6.907-5.657 6.937-5.656 7.563-6.343 8.187-6.282 7.563-6.281 8.187-7.594 8.188-6.906 7.562-7.594 7.531-6.906 7.594-7.563 6.906-6.937 6.344-7.531 6.281-6.938 6.282-7.531 5.687-7.594 6.281-8.156 6.313-8.844 6.281-9.437 6.313-9.469 6.28-10.063 6.345-10.093 6.28-10.063 6.282-10.093 5.656-10.063 5.657-10.094 5.687-9.437 5.688-9.469 5.062-8.781 4.406-8.844 5.657-8.813 5.03-10.062 5.657-10.094 5.688-10.687 6.28-11.344 5.657-11.375 6.344-12.563 5.656-11.968 5.656-12.594 6.282-13.25 5.062-12.594 5.656-13.25 5.657-13.187 5.062-13.875 3.781-10.063 3.782-10.718 3.78-10.72 3.75-11.343 4.407-12.594 3.813-12.593 4.406-13.22 4.406-13.843 3.75-14.5 4.406-14.5 4.438-15.125 4.406-15.125 3.781-15.719 4.407-15.75 3.812-15.75 3.75-15.125 3.781-15.718 3.782-15.126 3.75-15.156 3.187-15.125 3.781-15.062 3.125-15.125 2.532-13.25 2.5-12.594 2.53-13.844 3.157-13.25 2.5-14.5 2.563-14.468 3.124-15.126 2.532-15.124 2.5-16.344 3.156-16.375 2.5-16.407 2.563-17 3.156-17.656 2.5-17.625 2.531-17.656 2.5-17.625 2.531-18.25 2.5-18.25 2.563-17.656 2.5-18.25 2.531-17.657 1.875-17.624 2.5-18.282 1.906-17.656 2.5-18.25 1.907-17.625 1.874-16.375 1.876-15.75 1.937-17.031 1.875-17 1.906-18.282 1.875-18.25 1.875-19.5 1.907-20.812 1.874-22.063 2.532-23.28 2.5-24.563 2.531-25.813 2.5-27.75 2.563-28.343 2.5-29.563 3.156-30.281 2.5-30.188 3.156-30.906 2.5-29.563 2.563-27.75 2.5-26.437 1.906-23.313 1.875-20.187 1.25-16.344 1.25-12.625.656-9.468.625-6.282.625-3.125v-1.281" transform="matrix(.125 0 0 -.125 0 468.75)"/><path style="fill:none;stroke-width:18.897;stroke-linecap:butt;stroke-linejoin:bevel;stroke:#000;stroke-opacity:1;stroke-miterlimit:10" d="M3432.25 1723.406C3432.25 779.625 2667.156 14.5 1723.375 14.5 779.531 14.5 14.406 779.625 14.406 1723.406c0 943.813 765.125 1708.938 1708.969 1708.938 943.781 0 1708.875-765.125 1708.875-1708.938Zm0 0" transform="matrix(.125 0 0 -.125 0 468.75)"/><path style="stroke:none;fill-rule:nonzero;fill:#000;fill-opacity:1" d="M721.074 130.95h-.351c-.45 1.073-.625 1.171-2.149 1.171h-2.265l2.421-2.305c1.192-1.132 1.72-2.129 1.72-3.28 0-1.602-1.153-2.735-2.774-2.735a2.73 2.73 0 0 0-1.992.84c-.586.586-.899 1.093-1.309 2.207h.41c.469-.918 1.035-1.348 1.836-1.348.664 0 1.152.293 1.484.82.176.332.293.743.293 1.094 0 .645-.273 1.484-.761 2.207-.762 1.172-1.29 1.816-3.477 4.14v.352h6.25l.664-3.164Zm0 0"/><path style="fill:none;stroke-width:4.72425;stroke-linecap:butt;stroke-linejoin:bevel;stroke:#000;stroke-opacity:1;stroke-dasharray:37.794,37.794;stroke-miterlimit:10" d="M6542.719 2686.563a1527.275 1527.275 0 0 0 175.187-710.188c0-166.563-27.281-332-80.687-489.781" transform="matrix(.125 0 0 -.125 0 468.75)"/><path style="stroke:none;fill-rule:nonzero;fill:#000;fill-opacity:1" d="M788.559 46.645v6.66c0 .86-.235 1.093-1.153 1.191v.488h5.567v-.488c-1.407-.039-1.641-.273-1.641-1.562v-6.29h1.738v-.878h-1.738v-2.442c0-1.094.293-1.543.996-1.543.371 0 .586.137.586.39 0 .079-.059.216-.176.411-.176.293-.273.527-.273.723 0 .625.527 1.093 1.21 1.093.743 0 1.231-.488 1.231-1.23 0-1.191-1.172-2.012-2.851-2.012-1.348 0-2.383.489-2.93 1.367-.43.704-.566 1.524-.566 3.243h-1.153v.879h1.153ZM802.566 61.27h-.351c-.45 1.074-.625 1.171-2.149 1.171h-2.265l2.422-2.304c1.191-1.133 1.718-2.13 1.718-3.282 0-1.601-1.152-2.734-2.773-2.734a2.73 2.73 0 0 0-1.992.84c-.586.586-.899 1.094-1.309 2.207h.41c.47-.918 1.035-1.348 1.836-1.348.664 0 1.153.293 1.485.82.175.333.293.743.293 1.094 0 .645-.274 1.485-.762 2.207-.762 1.172-1.29 1.817-3.477 4.141v.352h6.25l.664-3.164Zm0 0"/><g clip-path="url(#l)" clip-rule="evenodd"><path style="fill:none;stroke-width:4.72425;stroke-linecap:butt;stroke-linejoin:miter;stroke:#000;stroke-opacity:1;stroke-miterlimit:10" d="M6278.156 3489.656h179.5" transform="matrix(.125 0 0 -.125 0 468.75)"/></g><path style="fill:none;stroke-width:4.72425;stroke-linecap:butt;stroke-linejoin:miter;stroke:#000;stroke-opacity:1;stroke-miterlimit:10" d="m6371.375 3470.75 75.563 18.906-75.563 18.907" transform="matrix(.125 0 0 -.125 0 468.75)"/><g clip-path="url(#m)" clip-rule="evenodd"><path style="fill:none;stroke-width:4.72425;stroke-linecap:butt;stroke-linejoin:miter;stroke:#000;stroke-opacity:1;stroke-miterlimit:10" d="M5040.406 2091.281h179.532" transform="matrix(.125 0 0 -.125 0 468.75)"/></g><path style="fill:none;stroke-width:4.72425;stroke-linecap:butt;stroke-linejoin:miter;stroke:#000;stroke-opacity:1;stroke-miterlimit:10" d="m5133.625 2072.375 75.594 18.906-75.594 18.875" transform="matrix(.125 0 0 -.125 0 468.75)"/><path style="stroke:none;fill-rule:nonzero;fill:#000;fill-opacity:1" d="M542.773 161.953c-.351 0-.625-.117-.82-.371l-4.023-5.703c1.191-.371 1.68-.645 2.246-1.133.586-.547.898-1.348.898-2.246 0-2.305-1.972-3.555-5.644-3.555h-6.426v.489c1.465.097 1.758.41 1.758 1.855v8.828c0 1.465-.215 1.66-1.758 1.836v.508h6.758v-.508c-1.563-.195-1.758-.41-1.758-1.836v-3.926h.527l4.14 6.27h4.102v-.508Zm-8.77-11.484c0-.137.079-.43.138-.547.117-.195.43-.293.937-.293 1.836 0 2.578.86 2.578 2.95 0 1.288-.293 2.07-.937 2.48-.528.351-1.211.488-2.715.507v-5.097ZM550.941 159.234l-3.77 1.621v.391c.138-.039.255-.078.294-.117.41-.156.781-.254.976-.254.371 0 .547.332.547 1.035v5.781c0 1.23-.312 1.485-1.797 1.504v.352h5.625v-.352c-1.347-.039-1.601-.254-1.601-1.425v-8.536h-.274ZM651.328 225.375l-3.77 1.621v.39c.137-.038.255-.077.294-.116.41-.157.78-.254.976-.254.371 0 .547.332.547 1.035v5.781c0 1.23-.313 1.484-1.797 1.504v.351h5.625v-.351c-1.348-.04-1.601-.254-1.601-1.426v-8.535h-.274ZM638.563 221.441v6.66c0 .86-.235 1.094-1.153 1.192v.488h5.567v-.488c-1.407-.04-1.641-.273-1.641-1.563v-6.289h1.738v-.879h-1.738v-2.44c0-1.095.293-1.544.996-1.544.371 0 .586.137.586.39 0 .079-.059.216-.176.41-.176.294-.273.528-.273.724 0 .625.527 1.093 1.21 1.093.743 0 1.231-.488 1.231-1.23 0-1.192-1.172-2.012-2.851-2.012-1.348 0-2.383.488-2.93 1.367-.43.703-.567 1.524-.567 3.243h-1.152v.878h1.153ZM714.027 128.883c-.351 0-.625-.117-.82-.371l-4.023-5.703c1.191-.371 1.68-.645 2.246-1.133.586-.547.898-1.348.898-2.246 0-2.305-1.973-3.555-5.644-3.555h-6.426v.488c1.465.098 1.758.41 1.758 1.856v8.828c0 1.465-.215 1.66-1.758 1.836v.508h6.758v-.508c-1.563-.196-1.758-.41-1.758-1.836v-3.926h.527l4.14 6.27h4.102v-.508Zm-8.77-11.485c0-.136.079-.43.138-.546.117-.196.43-.293.937-.293 1.836 0 2.578.859 2.578 2.949 0 1.289-.293 2.07-.937 2.48-.528.352-1.211.489-2.715.508v-5.098ZM896.66 226.492c.918-.254 1.426-.351 2.656-.488l1.25-.156v-.47c-.918-.058-1.191-.312-1.191-1.151v-11.504h-4.297v.468c1.348.098 1.524.254 1.524 1.172v3.653c-.86-.918-1.465-1.23-2.383-1.23-2.188 0-3.828 2.128-3.828 5.038 0 2.715 1.504 4.688 3.613 4.688 1.055 0 1.719-.313 2.656-1.309v1.29Zm-.058-2.5c0 .117-.196.469-.43.723-.41.469-.82.683-1.27.683-1.054 0-1.562-1.191-1.562-3.73 0-2.598.547-3.77 1.7-3.77.663 0 1.288.489 1.562 1.23v4.864ZM910.613 217.02h-3.027v.488c.86.039 1.094.176 1.094.644 0 .235-.04.41-.215.899l-1.367 3.847-1.426-3.691c-.41-1.035-.41-1.035-.41-1.191 0-.274.234-.45.742-.489l.312-.02v-.487h-5v.488c.47.058.586.117.704.293.058 0 .957 1.953 1.308 2.793l2.402 5.898-.37 1.074c-.333.996-.86 1.641-1.31 1.641a.363.363 0 0 1-.35-.352c0-.02 0-.058.019-.117.02-.097.039-.195.039-.273 0-.586-.469-.996-1.153-.996-.742 0-1.289.527-1.289 1.289 0 .918.801 1.582 1.954 1.582.683 0 1.25-.235 1.68-.664.41-.45.82-1.25 1.523-3.145l2.968-7.93c.352-.84.547-1.035 1.172-1.093v-.488ZM824.617 121.379c.918-.254 1.426-.352 2.656-.488l1.25-.157v-.468c-.918-.059-1.191-.313-1.191-1.153V107.61h-4.297v.47c1.348.097 1.524.253 1.524 1.171v3.652c-.86-.918-1.465-1.23-2.383-1.23-2.188 0-3.828 2.129-3.828 5.039 0 2.715 1.504 4.687 3.613 4.687 1.055 0 1.719-.312 2.656-1.308v1.289Zm-.058-2.5c0 .117-.196.469-.43.723-.41.468-.82.683-1.27.683-1.054 0-1.562-1.191-1.562-3.73 0-2.598.547-3.77 1.7-3.77.663 0 1.288.488 1.562 1.23v4.864ZM838.645 120.637c-.332-.098-.47-.176-.606-.39l-2.969-4.571 2.032-2.52c.37-.449.78-.664 1.386-.761v-.489h-3.36v.489c.196.02.352.039.411.039.45.02.625.136.625.43 0 .292-.215.644-.762 1.288a7.83 7.83 0 0 0-.722.918c-.117-.136-.196-.273-.254-.351-.645-.84-1.172-1.7-1.172-1.953 0-.235.273-.352.937-.371v-.489h-5v.489c.528.078.645.175 1.055.761l2.559 3.946c-.586.742-1.133 1.406-1.309 1.68-1.113 1.484-1.523 1.816-2.266 1.855v.488h3.38v-.488c-.704-.04-.997-.176-.997-.469 0-.313.528-1.152 1.29-2.07.038-.059.175-.215.312-.391l.84 1.25c.468.664.664 1.055.664 1.29 0 .233-.274.35-.899.39v.488h4.825v-.488Zm0 0"/><path style="fill:none;stroke-width:4.72425;stroke-linecap:butt;stroke-linejoin:miter;stroke:#000;stroke-opacity:1;stroke-dasharray:37.794,37.794;stroke-miterlimit:10" d="M7062.375 2251.906c-163.969-159.718-383.906-249.125-612.844-249.125a878.777 878.777 0 0 0-294.187 50.719" transform="matrix(.125 0 0 -.125 0 468.75)"/></svg>