<svg xmlns="http://www.w3.org/2000/svg" xmlns:xlink="http://www.w3.org/1999/xlink" width="277.851" height="164.464" viewBox="0 0 208.388 123.348"><clipPath id="a"><path transform="matrix(1 0 0 -1 104.194 75.847)" d="M-99.214 70.867V-42.52H99.214V70.867zM99.214-42.52"/></clipPath><g clip-path="url(#a)"><path d="M19.154 75.847h25.512V19.153h5.67v56.694h51.023V61.674h5.67v14.173h51.024V19.153h5.67v56.694h25.511c3.132 0 5.67 6.346 5.67 14.173 0 7.828-2.538 14.174-5.67 14.174-85.04 0-42.52-19.843-85.04-19.843s0 19.843-85.04 19.843z" fill="#ccf"/><path stroke-width=".797" stroke-linecap="round" stroke-miterlimit="10" fill="none" stroke="#99f" d="M19.154 75.847h25.512V19.153h5.67v56.694h51.023V61.674h5.67v14.173h51.024V19.153h5.67v56.694h25.511c3.132 0 5.67 6.346 5.67 14.173 0 7.828-2.538 14.174-5.67 14.174-85.04 0-42.52-19.843-85.04-19.843s0 19.843-85.04 19.843z"/><path stroke-width=".996" stroke-miterlimit="10" fill="none" stroke="#929292" d="M19.154 75.847h25.512V-37.54h5.67V75.847h51.023V-37.54h5.67V75.847h51.024V-37.54h5.67V75.847h25.511c3.132 0 5.67 6.346 5.67 14.173 0 7.828-2.538 14.174-5.67 14.174-85.04 0-42.52-19.843-85.04-19.843s0 19.843-85.04 19.843z"/><path stroke-width=".399" stroke-linecap="round" stroke-miterlimit="10" fill="none" stroke="#99f" d="M19.154 81.516c85.04 0 42.52-2.834 85.04-2.834s0 2.834 81.454 2.834"/><path d="M189.234 81.516c-1.062-.199-2.79-.797-3.985-1.494v2.989c1.196-.698 2.923-1.295 3.985-1.495M47.5 81.37c-1.065-.185-2.799-.761-4.003-1.444l.037 2.989c1.187-.713 2.906-1.332 3.966-1.544" fill="#99f"/><path stroke-width=".399" stroke-linecap="round" stroke-miterlimit="10" fill="none" stroke="#99f" d="M19.154 90.02c85.04 0 42.52-9.921 85.04-9.921s0 9.921 81.454 9.921"/><path d="M189.234 90.02c-1.062-.199-2.79-.797-3.985-1.494v2.989c1.196-.698 2.923-1.295 3.985-1.495M47.495 89.512c-1.07-.153-2.82-.676-4.045-1.32l.13 2.985c1.163-.748 2.862-1.42 3.915-1.665" fill="#99f"/><path stroke-width=".399" stroke-linecap="round" stroke-miterlimit="10" fill="none" stroke="#99f" d="M19.154 98.525c85.04 0 42.52-17.009 85.04-17.009s0 17.009 81.454 17.009"/><path d="M189.234 98.525c-1.062-.2-2.79-.797-3.985-1.495v2.989c1.196-.697 2.923-1.295 3.985-1.494M47.483 97.653c-1.074-.12-2.84-.588-4.085-1.194l.222 2.98c1.14-.784 2.818-1.508 3.863-1.786" fill="#99f"/><path d="M24.823 90.02c0-7.827-2.538-14.173-5.67-14.173-3.13 0-5.669 6.346-5.669 14.173 0 7.828 2.538 14.174 5.67 14.174 3.13 0 5.669-6.346 5.669-14.174zm-5.67 0" fill="#ccf"/><path stroke-width=".996" stroke-miterlimit="10" fill="none" stroke="#929292" d="M24.823 90.02c0-7.827-2.538-14.173-5.67-14.173-3.13 0-5.669 6.346-5.669 14.173 0 7.828 2.538 14.174 5.67 14.174 3.13 0 5.669-6.346 5.669-14.174zm-5.67 0"/><clipPath id="b"><path transform="matrix(1 0 0 -1 104.194 75.847)" d="M-79.371-14.173C-79.371-6.346-81.91 0-85.041 0c-3.13 0-5.669-6.346-5.669-14.173 0-7.828 2.538-14.174 5.67-14.174 3.13 0 5.669 6.346 5.669 14.174zm-5.67 0"/></clipPath><g clip-path="url(#b)"><symbol id="d"><path stroke-width=".399" stroke-miterlimit="10" fill="none" stroke="#fff" d="m0 123.348 3.088-3.088"/></symbol><pattern id="e" patternUnits="userSpaceOnUse" patternContentUnits="userSpaceOnUse" x="0" y="0" width="2.989" height="2.989"><clipPath id="c"><path d="M-.996-.996h4.981v4.981H-.996z"/></clipPath><g clip-path="url(#c)"><g transform="matrix(1 0 0 -1 0 123.348)"><use xlink:href="#d"/><use y="-2.989" xlink:href="#d"/><use x="-2.989" xlink:href="#d"/><use x="-2.989" y="-2.989" xlink:href="#d"/></g></g></pattern><path transform="matrix(1 0 0 -1 0 123.348)" fill="url(#e)" d="M13.484 19.154h11.339v28.347H13.484z"/></g><path stroke-width=".797" stroke-miterlimit="10" fill="none" stroke="#000" d="M104.194 80.099h25.757"/><path d="m132.54 80.099-4.144-2.072 1.555 2.072-1.555 2.072"/><symbol id="f"><path d="M.227.486A.247.247 0 0 1 0 .243a.243.243 0 1 1 .242.244L.227.486z"/></symbol><use xlink:href="#f" transform="matrix(4.9813 0 0 -4.9813 102.982 81.295)"/><symbol id="g"><path d="M0 .684V.651l.037.001C.072.652.101.647.101.608v-.53C.101.038.068.033.034.033L0 .034V.001h.324L.39 0c.05 0 .101.007.146.029.058.03.109.087.109.154 0 .108-.109.162-.202.175.07.021.155.046.172.141l.001.016c0 .131-.167.17-.254.17L.296.684H0M.186.342h.146l.047.001.035-.002A.16.16 0 0 0 .545.185c0-.078-.066-.14-.14-.149C.39.034.375.034.36.034H.227C.205.034.186.036.186.071v.271m0 .028v.245c0 .03.016.036.039.036h.134C.426.651.504.628.518.53L.519.516C.519.415.419.37.334.37H.186z"/></symbol><use xlink:href="#g" transform="matrix(7.9701 0 0 -7.9701 94.59 82.843)"/><symbol id="h"><path d="M.611 0c.016 0 .038 0 .038.023S.627.046.611.046H.038C.022.046 0 .046 0 .023S.022 0 .038 0h.573z"/></symbol><symbol id="i"><path d="M.814.241A.375.375 0 0 1 .671.015C.671 0 .685 0 .694 0c.011 0 .02 0 .023.013.026.111.09.195.211.236.008.002.016.005.016.015 0 .01-.009.013-.013.014a.307.307 0 0 0-.212.227C.714.525.714.528.694.528c-.009 0-.023 0-.023-.015A.352.352 0 0 1 .814.287H.038C.022.287 0 .287 0 .264S.022.241.038.241h.776z"/></symbol><use xlink:href="#h" transform="matrix(7.9701 0 0 -7.9701 136.23 77.423)"/><use xlink:href="#i" transform="matrix(7.9701 0 0 -7.9701 137.235 79.344)"/><symbol id="j"><path d="M.467.374c0 .078-.045.078-.049.078C.394.452.366.426.366.4c0-.016.008-.023.017-.031A.105.105 0 0 0 .42.289C.42.243.354.028.239.028.196.028.161.051.161.114c0 .055.03.134.054.194C.227.34.23.348.23.366.23.42.186.451.14.451.041.451 0 .31 0 .298 0 .289.007.285.015.285c.013 0 .014.006.017.016.026.087.069.122.105.122C.152.423.161.414.161.39A.198.198 0 0 0 .142.319C.093.193.089.16.089.129.089.02.178 0 .235 0c.166 0 .232.298.232.374z"/></symbol><use xlink:href="#j" transform="matrix(7.9701 0 0 -7.9701 135.768 82.744)"/><symbol id="k"><path d="M0 .683v-.04l.039.001C.074.644.107.639.107.605L.106.587V.08C.106.044.073.039.04.039L0 .04V0h.408c.099 0 .225.015.28.124a.15.15 0 0 1 .014.058c0 .107-.121.165-.218.175.07.019.186.052.186.155C.67.585.605.635.544.659A.417.417 0 0 1 .38.683H0M.199.339h.153L.405.34c.091 0 .19-.051.19-.154C.595.107.519.053.444.042.426.04.407.04.389.04H.241C.22.04.199.04.199.074v.265m0 .033v.237c0 .03.017.034.04.034h.149C.457.643.522.627.555.561A.12.12 0 0 0 .566.512c0-.081-.093-.14-.172-.14H.199z"/></symbol><use xlink:href="#k" transform="matrix(5.9776 0 0 -5.9776 140.065 83.972)"/><path stroke-width=".797" stroke-miterlimit="10" fill="none" stroke="#000" d="M19.154 81.516h5.913"/><path d="m27.658 81.516-4.145-2.072 1.554 2.072-1.554 2.072"/><use xlink:href="#f" transform="matrix(4.9813 0 0 -4.9813 17.943 82.713)"/><symbol id="l"><path d="M0 .033V0l.053.003H.15L.214 0v.033C.185.033.145.046.145.082c0 .012.005.025.009.037L.189.21c.004.009.004.019.019.019h.25C.47.229.471.218.475.209L.498.148.522.086C.524.079.529.071.529.063c0-.029-.052-.03-.08-.03V0h.274v.033H.7C.677.033.652.034.637.047.624.06.619.08.613.096.541.289.466.48.395.673.388.691.384.714.361.714.339.714.335.691.329.674.264.506.201.337.137.168L.118.116C.094.05.054.034 0 .033m.209.229.123.326.123-.326H.209z"/></symbol><use xlink:href="#l" transform="matrix(7.9701 0 0 -7.9701 16.27 90.982)"/><use xlink:href="#h" transform="matrix(7.9701 0 0 -7.9701 31.348 78.84)"/><use xlink:href="#i" transform="matrix(7.9701 0 0 -7.9701 32.624 80.762)"/><use xlink:href="#j" transform="matrix(7.9701 0 0 -7.9701 30.886 84.16)"/><symbol id="m"><path d="M0 .04V0l.052.003h.18V.04C.202.04.161.052.159.086c0 .01.006.021.01.03l.037.091C.21.216.21.225.226.225h.276C.521.225.533.172.546.144L.569.088A.057.057 0 0 0 .576.066V.063C.569.041.528.04.501.04H.494V0h.112l.02.004h.096L.787 0v.04H.755C.699.04.686.054.669.099.611.244.549.389.49.533L.433.671C.425.69.422.714.393.714.365.714.362.69.354.672L.3.54.127.121C.099.052.057.04 0 .04m.23.225.133.322.133-.322H.23z"/></symbol><use xlink:href="#m" transform="matrix(5.9776 0 0 -5.9776 35.094 85.389)"/><path stroke-width=".199" stroke-dasharray="2.98883,2.98883" stroke-miterlimit="10" fill="none" stroke="#000" d="M50.335 19.153h28.347M101.36 61.674H73.011"/><path stroke-width=".399" stroke-miterlimit="10" fill="none" stroke="#000" d="M75.847 21.544v37.739"/><path d="m75.847 19.552-1.594 3.188 1.594-1.196 1.594 1.196"/><path stroke-width=".399" stroke-miterlimit="10" fill="none" stroke="#000" d="M73.556 19.353h4.583"/><path d="m75.847 61.275 1.594-3.188-1.594 1.196-1.594-1.196"/><path stroke-width=".399" stroke-miterlimit="10" fill="none" stroke="#000" d="M78.139 61.474h-4.583"/><symbol id="n"><path d="M.235.674A.124.124 0 0 1 .239.69c0 .005-.004.014-.016.014L.165.699.109.695C.087.693.077.692.077.674.077.66.091.66.103.66.151.66.151.654.151.645c0-.003 0-.005-.005-.023L.004.053C0 .038 0 .032 0 .031 0 .014.014 0 .033 0c.016 0 .03.01.038.023a.652.652 0 0 1 .016.058L.11.17l.016.068c.015.058.015.06.037.092.034.049.081.093.148.093.036 0 .057-.021.057-.068A.862.862 0 0 0 .307.137C.294.104.294.098.294.085.294.028.341 0 .384 0c.098 0 .139.14.139.153 0 .01-.008.013-.015.013C.496.166.494.159.491.149.467.067.425.028.387.028c-.016 0-.024.01-.024.033a.19.19 0 0 0 .018.07A.815.815 0 0 1 .44.34C.44.415.388.451.316.451A.201.201 0 0 1 .161.374l.074.3z"/></symbol><use xlink:href="#n" transform="matrix(7.9701 0 0 -7.9701 79.29 43.26)"/><symbol id="o"><path d="m.614.698.003.015C.617.72.611.725.604.725.597.725.595.723.584.711L.536.654C.497.711.434.725.383.725.244.725.125.608.125.494c0-.058.031-.092.036-.099C.194.36.223.352.295.335L.361.319C.39.312.454.296.454.213c0-.087-.086-.18-.191-.18-.065 0-.184.02-.184.144 0 .003 0 .024.006.048l.001.01c0 .012-.011.013-.015.013C.058.248.057.244.052.221L.011.058A.662.662 0 0 1 0 .013C0 .005.006 0 .013 0 .02 0 .021.001.032.014L.08.07C.103.04.16 0 .261 0c.145 0 .264.131.264.251a.152.152 0 0 1-.042.11C.453.394.42.402.373.414L.282.436C.252.443.196.463.196.533c0 .078.084.162.186.162.09 0 .152-.047.152-.155C.534.516.53.495.53.491.53.479.539.477.546.477c.012 0 .013.004.017.02l.051.201z"/></symbol><use xlink:href="#o" transform="matrix(7.9701 0 0 -7.9701 14.106 112.795)"/><use xlink:href="#m" transform="matrix(5.9776 0 0 -5.9776 19.125 113.937)"/><use xlink:href="#o" transform="matrix(7.9701 0 0 -7.9701 99.281 92.953)"/><use xlink:href="#k" transform="matrix(5.9776 0 0 -5.9776 104.39 94.094)"/><path stroke-width=".399" stroke-miterlimit="10" fill="none" stroke="#000" d="M104.194 75.847c.94 0 1.7 1.904 1.7 4.252s-.76 4.252-1.7 4.252"/><path stroke-width=".399" stroke-dasharray=".3985,.99628" stroke-miterlimit="10" fill="none" stroke="#000" d="M104.194 75.847c-.94 0-1.7 1.904-1.7 4.252s.76 4.252 1.7 4.252"/></g></svg>