<svg xmlns="http://www.w3.org/2000/svg" xmlns:xlink="http://www.w3.org/1999/xlink" width="184.517" height="149.877" viewBox="0 0 138.388 112.408"><defs><symbol overflow="visible" id="c"><path style="stroke:none" d="M.344-6.11v.282h.344c.296 0 .562.031.562.39v4.75c0 .36-.297.407-.594.407H.344v.265h2.86V-.28h-.407c-.453 0-.735-.031-.735-.438v-2.203h.829c.296 0 .625.016.796.25.141.203.157.469.157.719v.078h.25V-4.25h-.25v.078c0 .453-.063.86-.656.953-.172.016-.329.016-.5.016h-.626V-5.5c0-.328.188-.328.376-.328H3.53c.469 0 1.047.016 1.39.36.345.359.391.905.454 1.374h.25l-.25-2.015Zm0 0"/></symbol><symbol overflow="visible" id="d"><path style="stroke:none" d="M.328-6.14v.28h.11c.312 0 .578.016.578.47v4.718c0 .375-.25.39-.641.39H.328v.266h2.016V-.28h-.235c-.234 0-.453-.047-.453-.36v-5.593Zm0 0"/></symbol><symbol overflow="visible" id="e"><path style="stroke:none" d="M.313-3.86v.266H.39c.25 0 .593.031.593.281.016.11.016.188.016.297v1.782c0 .28.016.53.14.78.266.438.813.548 1.282.548.5 0 .984-.297 1.14-.766l.016.766 1.328-.11V-.28H4.75c-.266 0-.531-.031-.531-.438v-3.25l-1.36.11v.265h.125c.282 0 .563.031.563.453v1.766C3.5-.797 3.14-.141 2.453-.141c-.36 0-.687-.078-.765-.546-.016-.172-.016-.329-.016-.5V-3.97Zm0 0"/></symbol><symbol overflow="visible" id="f"><path style="stroke:none" d="M.36-3.86v.266H.5c.297 0 .516.047.516.453v2.485c0 .36-.25.375-.688.375v.265h1.938V-.28h-.141c-.234 0-.469-.031-.469-.313v-3.375Zm.765-2.156c-.234.047-.422.235-.422.485s.219.468.485.468h.062a.474.474 0 0 0 .422-.468.477.477 0 0 0-.484-.485Zm0 0"/></symbol><symbol overflow="visible" id="g"><path style="stroke:none" d="M2.828-6.14v.28h.094c.36 0 .594.016.594.548v1.875a1.532 1.532 0 0 0-1.172-.532c-1.11 0-2.031.938-2.031 2.047C.313-.906 1.14.094 2.266.094c.421 0 .984-.203 1.218-.578v.578l1.36-.11V-.28h-.14c-.298 0-.548-.031-.548-.453v-5.5Zm-1.75 4.406v-.125c0-.72.188-1.875 1.313-1.875.468 0 1.109.343 1.109.906 0 .11-.016.219-.016.328v1.484c0 .11-.046.188-.109.282-.234.343-.64.593-1.063.593a1.14 1.14 0 0 1-.89-.453c-.25-.328-.297-.734-.344-1.14Zm0 0"/></symbol><symbol overflow="visible" id="h"><path style="stroke:none" d="M1.031-2.063h2.657c.109 0 .156-.046.156-.156 0-1.125-.703-1.797-1.64-1.797-1.095 0-1.954.954-1.954 2.047C.25-.875 1.125.094 2.344.094c.64 0 1.281-.453 1.469-1.078.015-.016.015-.063.015-.094a.107.107 0 0 0-.11-.11c-.171 0-.171.266-.265.391-.219.375-.656.64-1.094.64h-.062C1.828-.171 1.422-.5 1.219-.921c-.172-.36-.188-.75-.188-1.14Zm.016-.218c0-.594.25-1.281.906-1.485a.914.914 0 0 1 .203-.03c.781 0 1.063.796 1.063 1.515Zm0 0"/></symbol><symbol overflow="visible" id="s"><path style="stroke:none" d="M.36-6.14v.28h.343c.297 0 .578.048.578.391v4.782c0 .39-.328.406-.672.406H.36v.265H3V-.28h-.313c-.39 0-.609-.047-.609-.422v-2.125h1.625c.875-.047 2.047-.547 2.047-1.625 0-1.031-1.063-1.625-2.047-1.688Zm1.687 3.062v-2.438c0-.234.094-.343.344-.343h.687c.781 0 1.75.046 1.75 1.406 0 .297-.031.672-.234.906-.328.406-.86.469-1.344.469Zm0 0"/></symbol><symbol overflow="visible" id="t"><path style="stroke:none" d="M1.094-3.484c.25-.22.61-.313.937-.313.313 0 .594.172.781.438.172.25.172.53.172.828v.156c-.734.078-1.468.078-2.093.547-.297.219-.516.578-.516.937 0 .735.875.985 1.469.985.547 0 .968-.281 1.218-.75.079.375.297.703.704.703.546 0 .78-.453.78-.953v-.406h-.25v.453c0 .25-.046.593-.327.593-.297 0-.313-.39-.313-.593v-1.75c0-.938-.812-1.407-1.61-1.407-.562 0-1.39.235-1.39.938 0 .25.14.437.469.437.219-.015.36-.218.36-.421 0-.25-.188-.376-.391-.422Zm1.89 1.328v.875c0 .625-.437 1.14-1.062 1.14h-.063c-.421-.03-.75-.359-.75-.75 0-.859 1.032-1.265 1.875-1.265Zm0 0"/></symbol><symbol overflow="visible" id="u"><path style="stroke:none" d="M.266-3.86v.266h.14c.281 0 .547.031.547.453v2.485c0 .36-.234.375-.687.375v.265L.89-.03h1.562v-.25h-.297c-.312 0-.562-.047-.562-.375v-1.516c.062-.625.234-1.562 1.14-1.562-.125.062-.171.203-.171.328a.39.39 0 1 0 .78 0c0-.375-.359-.563-.687-.563-.547 0-.984.469-1.11.969v-.969Zm0 0"/></symbol><symbol overflow="visible" id="v"><path style="stroke:none" d="M1.36-5.531c0 .656-.298 1.718-1.188 1.718v.22h.781v2.374c0 .282.016.547.156.782.22.39.672.53 1.079.53h.078c.687-.124.796-.859.796-1.39v-.328h-.25c0 .125.016.25.016.39 0 .391-.094 1.079-.625 1.079-.484 0-.594-.563-.594-1.016v-2.422h1.313v-.265H1.609v-1.672Zm0 0"/></symbol><symbol overflow="visible" id="w"><path style="stroke:none" d="M3.25-3.531c-.188.062-.36.172-.36.422 0 .218.157.406.422.406.235 0 .422-.172.422-.438 0-.64-.765-.859-1.312-.875h-.094A2.04 2.04 0 0 0 .313-1.953c0 1.094.859 2.047 2 2.047.624 0 1.203-.328 1.453-.969.015-.063.062-.14.062-.203s-.062-.11-.125-.11c-.156 0-.156.235-.234.36-.219.406-.61.672-1.094.672-.984 0-1.297-1.125-1.297-1.813 0-.734.266-1.797 1.266-1.797.25 0 .515.032.734.141.063.016.11.063.172.094Zm0 0"/></symbol><symbol overflow="visible" id="x"><path style="stroke:none" d="M.953-3.86H.25v.266h.703v2.969c0 .313-.25.344-.547.344h-.14v.265L.922-.03h.734l.625.015V-.28h-.203c-.25 0-.484-.031-.484-.344v-2.969h1.922v2.969c0 .313-.266.344-.563.344h-.125v.265l.625-.015h.735l.656.015V-.28h-.219c-.25 0-.469-.047-.469-.36v-5.593c-.11.015-.218.046-.328.046h-.031c-.063 0-.172-.062-.235-.078a1.613 1.613 0 0 0-.468-.062h-.156c-.922 0-1.985.469-1.985 1.469Zm2.563 0H1.562v-.968c0-.656.422-1.281 1.375-1.281.204 0 .376.03.579.062-.125.094-.204.203-.204.36 0 .218.188.265.204.406.015.047.015.11.015.156 0 .11-.015.219-.015.313Zm0 0"/></symbol><symbol overflow="visible" id="i"><path style="stroke:none" d="M6.047-2.047c.172 0 .344 0 .344-.203 0-.188-.188-.188-.344-.188H1.109c-.156 0-.343 0-.343.188 0 .203.171.203.343.203Zm0 0"/></symbol><symbol overflow="visible" id="j"><path style="stroke:none" d="M7.625-2.047c-1.063.75-1.281 1.938-1.281 2.031 0 .125.125.125.187.125.11 0 .172 0 .203-.125.25-1.046.86-1.75 1.844-2.109.047-.016.125-.047.125-.125s-.062-.094-.125-.125c-1.125-.422-1.64-1.219-1.844-2.094-.03-.125-.062-.125-.203-.125-.078 0-.187 0-.187.125 0 .094.218 1.282 1.281 2.032H.844c-.156 0-.328 0-.328.187 0 .203.171.203.328.203Zm0 0"/></symbol><symbol overflow="visible" id="k"><path style="stroke:none" d="M3.484-1.078c0 .156 0 .187-.125.375a1.3 1.3 0 0 1-1.046.578c-.391 0-.75-.219-.985-.594-.234-.39-.25-.906-.25-1.203 0-.422.047-.89.281-1.25a1.262 1.262 0 0 1 1.047-.562c.375 0 .735.187.969.53.11.142.11.142.11.313Zm.032-2.36c-.047-.046-.454-.53-1.141-.53-1.11 0-2.063.89-2.063 2.046 0 1.11.891 2.016 1.954 2.016A1.59 1.59 0 0 0 3.484-.47v.563L4.844 0v-.281c-.61 0-.688-.063-.688-.5V-6.22l-1.328.094v.281c.61 0 .688.063.688.5Zm0 0"/></symbol><symbol overflow="visible" id="l"><path style="stroke:none" d="M5.86-6.078c.03-.094.03-.125.03-.14 0-.016 0-.11-.109-.11-.047 0-.047.016-.156.14-.125.141-.016.016-.438.5-.328-.5-.843-.64-1.328-.64-1.156 0-2.25 1.031-2.25 2.11 0 .374.125.671.36.921.25.281.484.328 1.125.5l.75.188c.297.093.594.375.594.89 0 .797-.766 1.64-1.672 1.64-.516 0-1.594-.155-1.594-1.312 0-.078 0-.218.062-.484.016-.031.016-.047.016-.063 0-.03-.016-.093-.125-.093-.11 0-.125.047-.156.187L.5.094c0 .062.031.11.094.11C.64.203.656.187.766.062c.062-.063.312-.391.421-.5.47.593 1.297.64 1.563.64 1.234 0 2.313-1.156 2.313-2.297 0-1.11-.875-1.328-1.157-1.39l-.812-.22c-.297-.077-.844-.218-.844-.89 0-.687.719-1.484 1.61-1.484.359 0 .718.11.968.36.344.327.344.812.344 1.046 0 .297-.031.39-.031.469 0 .062.03.11.125.11.093 0 .093-.016.14-.188Zm0 0"/></symbol><symbol overflow="visible" id="p"><path style="stroke:none" d="M2.797-2.922h.875c.64 0 .765.11.765.406 0 .016-.015.188-.062.407-.047.093-.047.109-.047.125 0 .03.031.125.125.125.11 0 .11-.047.14-.188l.5-1.937c.016-.047.032-.094.032-.141 0-.047-.047-.125-.125-.125-.11 0-.125.078-.156.219-.188.703-.438.843-1.157.843H2.86c.125-.5.579-2.343.61-2.453.062-.187.156-.187.437-.187h1.235c1.125 0 1.328.297 1.328 1 0 .297-.047.547-.047.61 0 .077.047.14.125.14.11 0 .11-.063.14-.234l.188-1.657c0-.125-.094-.125-.266-.125h-4.5c-.171 0-.265 0-.265.157 0 .109.093.109.281.109.031 0 .203 0 .344.031.187.016.203.063.203.14 0 .032 0 .048-.047.204L1.437-.687c-.078.328-.093.406-.78.406-.157 0-.266 0-.266.172C.39-.063.42 0 .53 0c.094 0 .516-.016.61-.016.062-.015.39-.015.578-.015.172 0 .422.015.64.015.22 0 .47.016.688.016.062 0 .187 0 .187-.156 0-.125-.093-.125-.28-.125-.017 0-.25 0-.47-.016-.28-.031-.296-.062-.296-.172 0-.015 0-.062.03-.203Zm0 0"/></symbol><symbol overflow="visible" id="m"><path style="stroke:none" d="M.844-1.36h2.031c.094 0 .11-.077.11-.124 0-.641-.422-1.188-1.235-1.188-.719 0-1.469.516-1.469 1.36C.281-.5 1.047.046 1.812.046c.47 0 1-.203 1.157-.703.015-.016.015-.047.015-.078 0-.063-.062-.079-.109-.079-.11 0-.156.204-.234.297a1.005 1.005 0 0 1-.72.36H1.86a1.02 1.02 0 0 1-.89-.531 1.608 1.608 0 0 1-.125-.672Zm.015-.187c.032-.484.375-.922.891-.922.531 0 .781.453.797.922Zm0 0"/></symbol><symbol overflow="visible" id="n"><path style="stroke:none" d="M.25-2.578v.234h.125c.11 0 .219.016.313.047.109.047.171.156.25.219l.421.453c.094.11.297.297.297.36 0 .062-.203.25-.297.343-.156.156-.28.313-.453.453-.203.14-.453.219-.703.219V0H1.36v-.25c-.078 0-.109-.078-.109-.125 0-.14.125-.25.234-.344.11-.125.25-.25.344-.375h.016c.172.25.64.61.64.735 0 .078-.093.109-.156.109V0h1.313v-.25h-.125c-.375 0-.485-.156-.672-.36-.203-.234-.39-.453-.61-.671-.03-.032-.062-.078-.109-.125.219-.172.406-.469.64-.657.204-.187.47-.28.75-.28v-.235H2.36v.234l.063.016c.031.031.062.078.062.125 0 .14-.171.281-.28.39-.079.079-.157.172-.235.25-.094-.156-.532-.484-.563-.64v-.016c0-.078.094-.11.157-.125v-.234Zm0 0"/></symbol><symbol overflow="visible" id="o"><path style="stroke:none" d="M1.078-3.688c0 .485-.266 1.157-.86 1.157v.187h.579v1.5c0 .203.015.39.125.563.156.25.469.328.75.328.437 0 .734-.344.734-.86v-.28h-.234c0 .093.015.171.015.25 0 .265-.093.687-.453.687-.359 0-.437-.36-.437-.64v-1.548h.984v-.234h-.984v-1.11Zm0 0"/></symbol><symbol overflow="visible" id="q"><path style="stroke:none" d="M.406-2.578v.25h.078c.22 0 .36.015.36.375v1.469c0 .218-.11.234-.453.234V0l.328-.031H1.75V-.25h-.14c-.141 0-.282-.016-.282-.203v-2.188Zm.547-1.469a.367.367 0 0 0-.312.36c0 .187.14.359.359.359.203 0 .36-.172.36-.36 0-.187-.141-.359-.36-.359H.953Zm0 0"/></symbol><symbol overflow="visible" id="r"><path style="stroke:none" d="M.375-2.578v.25h.094c.219 0 .375.015.375.375v1.469c0 .234-.156.234-.469.234V0l.344-.031h1.094V-.25h-.141c-.172 0-.328-.016-.328-.203v-1.078c0-.547.437-.907.937-.907h.016c.453 0 .484.376.484.657V-.47c0 .203-.172.219-.344.219h-.14V0l.36-.031H3.75V-.25h-.156c-.156 0-.313-.016-.313-.203v-1.281c0-.22-.015-.485-.187-.672-.203-.188-.485-.235-.735-.235-.406 0-.859.172-1.046.563l-.016-.563Zm0 0"/></symbol><linearGradient id="b" gradientUnits="userSpaceOnUse" x1="0" y1="25.003" x2="0" y2="74.997" gradientTransform="matrix(2.5515 0 0 -2.0412 -58.146 158.263)"><stop offset="0" style="stop-color:gray;stop-opacity:1"/><stop offset=".008" style="stop-color:gray;stop-opacity:1"/><stop offset=".016" style="stop-color:#818181;stop-opacity:1"/><stop offset=".023" style="stop-color:#828282;stop-opacity:1"/><stop offset=".031" style="stop-color:#838383;stop-opacity:1"/><stop offset=".039" style="stop-color:#848484;stop-opacity:1"/><stop offset=".047" style="stop-color:#858585;stop-opacity:1"/><stop offset=".055" style="stop-color:#868686;stop-opacity:1"/><stop offset=".063" style="stop-color:#878787;stop-opacity:1"/><stop offset=".07" style="stop-color:#888;stop-opacity:1"/><stop offset=".078" style="stop-color:#898989;stop-opacity:1"/><stop offset=".086" style="stop-color:#8a8a8a;stop-opacity:1"/><stop offset=".094" style="stop-color:#8b8b8b;stop-opacity:1"/><stop offset=".102" style="stop-color:#8c8c8c;stop-opacity:1"/><stop offset=".109" style="stop-color:#8d8d8d;stop-opacity:1"/><stop offset=".117" style="stop-color:#8e8e8e;stop-opacity:1"/><stop offset=".125" style="stop-color:#8f8f8f;stop-opacity:1"/><stop offset=".133" style="stop-color:#909090;stop-opacity:1"/><stop offset=".141" style="stop-color:#919191;stop-opacity:1"/><stop offset=".148" style="stop-color:#929292;stop-opacity:1"/><stop offset=".156" style="stop-color:#939393;stop-opacity:1"/><stop offset=".164" style="stop-color:#949494;stop-opacity:1"/><stop offset=".172" style="stop-color:#959595;stop-opacity:1"/><stop offset=".18" style="stop-color:#969696;stop-opacity:1"/><stop offset=".188" style="stop-color:#979797;stop-opacity:1"/><stop offset=".195" style="stop-color:#989898;stop-opacity:1"/><stop offset=".203" style="stop-color:#999;stop-opacity:1"/><stop offset=".211" style="stop-color:#9a9a9a;stop-opacity:1"/><stop offset=".219" style="stop-color:#9b9b9b;stop-opacity:1"/><stop offset=".227" style="stop-color:#9c9c9c;stop-opacity:1"/><stop offset=".234" style="stop-color:#9d9d9d;stop-opacity:1"/><stop offset=".242" style="stop-color:#9e9e9e;stop-opacity:1"/><stop offset=".25" style="stop-color:#9f9f9f;stop-opacity:1"/><stop offset=".258" style="stop-color:#a0a0a0;stop-opacity:1"/><stop offset=".266" style="stop-color:#a1a1a1;stop-opacity:1"/><stop offset=".273" style="stop-color:#a2a2a2;stop-opacity:1"/><stop offset=".281" style="stop-color:#a3a3a3;stop-opacity:1"/><stop offset=".289" style="stop-color:#a4a4a4;stop-opacity:1"/><stop offset=".297" style="stop-color:#a5a5a5;stop-opacity:1"/><stop offset=".305" style="stop-color:#a6a6a6;stop-opacity:1"/><stop offset=".313" style="stop-color:#a7a7a7;stop-opacity:1"/><stop offset=".32" style="stop-color:#a8a8a8;stop-opacity:1"/><stop offset=".328" style="stop-color:#a9a9a9;stop-opacity:1"/><stop offset=".336" style="stop-color:#aaa;stop-opacity:1"/><stop offset=".344" style="stop-color:#ababab;stop-opacity:1"/><stop offset=".352" style="stop-color:#acacac;stop-opacity:1"/><stop offset=".359" style="stop-color:#adadad;stop-opacity:1"/><stop offset=".367" style="stop-color:#aeaeae;stop-opacity:1"/><stop offset=".375" style="stop-color:#afafaf;stop-opacity:1"/><stop offset=".383" style="stop-color:#b0b0b0;stop-opacity:1"/><stop offset=".391" style="stop-color:#b1b1b1;stop-opacity:1"/><stop offset=".398" style="stop-color:#b2b2b2;stop-opacity:1"/><stop offset=".406" style="stop-color:#b3b3b3;stop-opacity:1"/><stop offset=".414" style="stop-color:#b4b4b4;stop-opacity:1"/><stop offset=".422" style="stop-color:#b5b5b5;stop-opacity:1"/><stop offset=".43" style="stop-color:#b6b6b6;stop-opacity:1"/><stop offset=".438" style="stop-color:#b7b7b7;stop-opacity:1"/><stop offset=".445" style="stop-color:#b8b8b8;stop-opacity:1"/><stop offset=".453" style="stop-color:#b9b9b9;stop-opacity:1"/><stop offset=".461" style="stop-color:#bababa;stop-opacity:1"/><stop offset=".469" style="stop-color:#bbb;stop-opacity:1"/><stop offset=".477" style="stop-color:#bcbcbc;stop-opacity:1"/><stop offset=".484" style="stop-color:#bdbdbd;stop-opacity:1"/><stop offset=".492" style="stop-color:#bebebe;stop-opacity:1"/><stop offset=".5" style="stop-color:#bfbfbf;stop-opacity:1"/><stop offset=".508" style="stop-color:silver;stop-opacity:1"/><stop offset=".516" style="stop-color:#c1c1c1;stop-opacity:1"/><stop offset=".523" style="stop-color:#c2c2c2;stop-opacity:1"/><stop offset=".531" style="stop-color:#c3c3c3;stop-opacity:1"/><stop offset=".539" style="stop-color:#c4c4c4;stop-opacity:1"/><stop offset=".547" style="stop-color:#c5c5c5;stop-opacity:1"/><stop offset=".555" style="stop-color:#c6c6c6;stop-opacity:1"/><stop offset=".563" style="stop-color:#c7c7c7;stop-opacity:1"/><stop offset=".57" style="stop-color:#c8c8c8;stop-opacity:1"/><stop offset=".578" style="stop-color:#c9c9c9;stop-opacity:1"/><stop offset=".586" style="stop-color:#cacaca;stop-opacity:1"/><stop offset=".594" style="stop-color:#cbcbcb;stop-opacity:1"/><stop offset=".602" style="stop-color:#ccc;stop-opacity:1"/><stop offset=".609" style="stop-color:#cdcdcd;stop-opacity:1"/><stop offset=".617" style="stop-color:#cecece;stop-opacity:1"/><stop offset=".625" style="stop-color:#cfcfcf;stop-opacity:1"/><stop offset=".633" style="stop-color:#d0d0d0;stop-opacity:1"/><stop offset=".641" style="stop-color:#d1d1d1;stop-opacity:1"/><stop offset=".648" style="stop-color:#d2d2d2;stop-opacity:1"/><stop offset=".656" style="stop-color:#d3d3d3;stop-opacity:1"/><stop offset=".664" style="stop-color:#d4d4d4;stop-opacity:1"/><stop offset=".672" style="stop-color:#d5d5d5;stop-opacity:1"/><stop offset=".68" style="stop-color:#d6d6d6;stop-opacity:1"/><stop offset=".688" style="stop-color:#d7d7d7;stop-opacity:1"/><stop offset=".695" style="stop-color:#d8d8d8;stop-opacity:1"/><stop offset=".703" style="stop-color:#d9d9d9;stop-opacity:1"/><stop offset=".711" style="stop-color:#dadada;stop-opacity:1"/><stop offset=".719" style="stop-color:#dbdbdb;stop-opacity:1"/><stop offset=".727" style="stop-color:#dcdcdc;stop-opacity:1"/><stop offset=".734" style="stop-color:#ddd;stop-opacity:1"/><stop offset=".742" style="stop-color:#dedede;stop-opacity:1"/><stop offset=".75" style="stop-color:#dfdfdf;stop-opacity:1"/><stop offset=".758" style="stop-color:#e0e0e0;stop-opacity:1"/><stop offset=".766" style="stop-color:#e1e1e1;stop-opacity:1"/><stop offset=".773" style="stop-color:#e2e2e2;stop-opacity:1"/><stop offset=".781" style="stop-color:#e3e3e3;stop-opacity:1"/><stop offset=".789" style="stop-color:#e4e4e4;stop-opacity:1"/><stop offset=".797" style="stop-color:#e5e5e5;stop-opacity:1"/><stop offset=".805" style="stop-color:#e6e6e6;stop-opacity:1"/><stop offset=".813" style="stop-color:#e7e7e7;stop-opacity:1"/><stop offset=".82" style="stop-color:#e8e8e8;stop-opacity:1"/><stop offset=".828" style="stop-color:#e9e9e9;stop-opacity:1"/><stop offset=".836" style="stop-color:#eaeaea;stop-opacity:1"/><stop offset=".844" style="stop-color:#ebebeb;stop-opacity:1"/><stop offset=".852" style="stop-color:#ececec;stop-opacity:1"/><stop offset=".859" style="stop-color:#ededed;stop-opacity:1"/><stop offset=".867" style="stop-color:#eee;stop-opacity:1"/><stop offset=".875" style="stop-color:#efefef;stop-opacity:1"/><stop offset=".883" style="stop-color:#f0f0f0;stop-opacity:1"/><stop offset=".891" style="stop-color:#f1f1f1;stop-opacity:1"/><stop offset=".898" style="stop-color:#f2f2f2;stop-opacity:1"/><stop offset=".906" style="stop-color:#f3f3f3;stop-opacity:1"/><stop offset=".914" style="stop-color:#f4f4f4;stop-opacity:1"/><stop offset=".922" style="stop-color:#f5f5f5;stop-opacity:1"/><stop offset=".93" style="stop-color:#f6f6f6;stop-opacity:1"/><stop offset=".938" style="stop-color:#f7f7f7;stop-opacity:1"/><stop offset=".945" style="stop-color:#f8f8f8;stop-opacity:1"/><stop offset=".953" style="stop-color:#f9f9f9;stop-opacity:1"/><stop offset=".961" style="stop-color:#fafafa;stop-opacity:1"/><stop offset=".969" style="stop-color:#fbfbfb;stop-opacity:1"/><stop offset=".977" style="stop-color:#fcfcfc;stop-opacity:1"/><stop offset=".984" style="stop-color:#fcfcfc;stop-opacity:1"/><stop offset=".992" style="stop-color:#fdfdfd;stop-opacity:1"/><stop offset="1" style="stop-color:#fefefe;stop-opacity:1"/></linearGradient><clipPath id="a"><path d="M5.648 5.18h127.559V107H5.648Zm0 0"/></clipPath></defs><g clip-path="url(#a)"><path style="stroke:none;fill-rule:nonzero;fill:url(#b)" d="M5.648 107.227V5.18h127.559v102.047Zm0 0"/></g><path style="fill:none;stroke-width:.3985;stroke-linecap:butt;stroke-linejoin:miter;stroke:gray;stroke-opacity:1;stroke-miterlimit:10" d="M-38.269 102.047V0H89.29v102.047Zm0 0" transform="matrix(1 0 0 -1 43.917 107.227)"/><g style="fill:#000;fill-opacity:1"><use xlink:href="#c" x="67.48" y="13.349"/><use xlink:href="#d" x="73.494" y="13.349"/><use xlink:href="#e" x="76.053" y="13.349"/><use xlink:href="#f" x="81.171" y="13.349"/><use xlink:href="#g" x="83.73" y="13.349"/><use xlink:href="#h" x="88.848" y="13.349"/></g><path style="stroke:none;fill-rule:nonzero;fill:#fff;fill-opacity:1" d="M43.918 43.445c2.55-5.101 33.164-7.652 25.512 0-7.657 7.657-1.278 21.688 0 25.516 5.101 15.305-22.961 5.102-25.512 0-2.55-3.828-5.102-15.309 0-25.516"/><path style="fill-rule:nonzero;fill:#bfbfbf;fill-opacity:1;stroke-width:1.99255;stroke-linecap:butt;stroke-linejoin:miter;stroke:#000;stroke-opacity:1;stroke-miterlimit:10" d="M.001 63.782c2.55 5.101 33.164 7.652 25.512 0-7.657-7.657-1.278-21.688 0-25.516 5.101-15.305-22.961-5.102-25.512 0-2.55 3.828-5.102 15.309 0 25.516" transform="matrix(1 0 0 -1 43.917 107.227)"/><path style="fill:none;stroke-width:.79701;stroke-linecap:butt;stroke-linejoin:miter;stroke:#000;stroke-opacity:1;stroke-miterlimit:10" d="m-2.55 58.676-22.972 4.594" transform="matrix(1 0 0 -1 43.917 107.227)"/><path style="stroke:none;fill-rule:nonzero;fill:#000;fill-opacity:1" d="m15.855 43.445 3.657 2.848-1.117-2.336 1.93-1.73"/><use xlink:href="#i" x="4.981" y="35.229" style="fill:#000;fill-opacity:1"/><use xlink:href="#j" x="7.029" y="35.229" style="fill:#000;fill-opacity:1"/><use xlink:href="#k" x="4.981" y="41.456" style="fill:#000;fill-opacity:1"/><use xlink:href="#l" x="10.101" y="41.456" style="fill:#000;fill-opacity:1"/><g style="fill:#000;fill-opacity:1"><use xlink:href="#m" x="16.24" y="37.647"/><use xlink:href="#n" x="19.505" y="37.647"/><use xlink:href="#o" x="23.351" y="37.647"/></g><path style="fill:none;stroke-width:1.59404;stroke-linecap:round;stroke-linejoin:miter;stroke:#00f;stroke-opacity:1;stroke-miterlimit:10" d="m-2.55 58.676 47.309-9.46" transform="matrix(1 0 0 -1 43.917 107.227)"/><path style="stroke:none;fill-rule:nonzero;fill:#00f;fill-opacity:1" d="m92.39 58.754-5.347-4.156 1.633 3.414-2.82 2.523"/><use xlink:href="#i" x="81.585" y="49.54" style="fill:#00f;fill-opacity:1"/><use xlink:href="#j" x="84.655" y="49.54" style="fill:#00f;fill-opacity:1"/><use xlink:href="#k" x="81.585" y="55.766" style="fill:#00f;fill-opacity:1"/><use xlink:href="#p" x="86.705" y="55.766" style="fill:#00f;fill-opacity:1"/><g style="fill:#00f;fill-opacity:1"><use xlink:href="#q" x="93.869" y="56.763"/><use xlink:href="#r" x="95.972" y="56.763"/></g><use xlink:href="#o" x="99.814" y="56.763" style="fill:#00f;fill-opacity:1"/><path style="fill:none;stroke-width:.3985;stroke-linecap:butt;stroke-linejoin:miter;stroke:#000;stroke-opacity:1;stroke-miterlimit:10" d="M10.267 51.024c-14.926 0-14.926-38.27-1.993-38.27" transform="matrix(1 0 0 -1 43.917 107.227)"/><path style="stroke:none;fill-rule:nonzero;fill:#000;fill-opacity:1" d="m54.184 94.473-3.188-1.594 1.195 1.594-1.195 1.593"/><use xlink:href="#s" x="56.174" y="97.559" style="fill:#000;fill-opacity:1"/><use xlink:href="#t" x="62.192" y="97.559" style="fill:#000;fill-opacity:1"/><g style="fill:#000;fill-opacity:1"><use xlink:href="#u" x="66.79" y="97.559"/><use xlink:href="#v" x="70.394" y="97.559"/><use xlink:href="#f" x="73.977" y="97.559"/><use xlink:href="#w" x="76.536" y="97.559"/><use xlink:href="#e" x="80.631" y="97.559"/></g><g style="fill:#000;fill-opacity:1"><use xlink:href="#d" x="85.758" y="97.559"/><use xlink:href="#h" x="88.317" y="97.559"/></g><g style="fill:#000;fill-opacity:1"><use xlink:href="#g" x="95.482" y="97.559"/><use xlink:href="#h" x="100.6" y="97.559"/></g><g style="fill:#000;fill-opacity:1"><use xlink:href="#x" x="107.774" y="97.559"/><use xlink:href="#e" x="112.892" y="97.559"/><use xlink:href="#f" x="118.01" y="97.559"/><use xlink:href="#g" x="120.569" y="97.559"/><use xlink:href="#h" x="125.687" y="97.559"/></g><path style="fill:none;stroke-width:1.99255;stroke-linecap:butt;stroke-linejoin:miter;stroke:#bfbfbf;stroke-opacity:1;stroke-miterlimit:10" d="m-2.55 56.125 1.02 5.102" transform="matrix(1 0 0 -1 43.917 107.227)"/></svg>