<svg xmlns="http://www.w3.org/2000/svg" xmlns:xlink="http://www.w3.org/1999/xlink" width="199.049" height="155.683" viewBox="0 0 149.287 116.762"><defs><symbol overflow="visible" id="a"><path style="stroke:none" d="M6.36-4.797c.093-.312.109-.375.656-.375.187 0 .28 0 .28-.156 0-.016 0-.11-.14-.11s-.328.016-.484.016h-.5c-.766 0-.969-.016-1.031-.016-.032 0-.157 0-.157.141 0 .125.094.125.235.125.25 0 .484 0 .484.125 0 .031 0 .031-.031.14l-.469 1.938H2.625l.469-1.86c.062-.28.078-.343.672-.343.156 0 .25 0 .25-.156 0-.016 0-.11-.141-.11-.14 0-.344.016-.484.016h-.5c-.766 0-.985-.016-1.032-.016-.03 0-.156 0-.156.141 0 .125.094.125.219.125.266 0 .5 0 .5.125 0 .031 0 .031-.031.14L1.328-.624c-.078.297-.094.36-.687.36-.141 0-.25 0-.25.156C.39-.08.42 0 .53 0c.14 0 .344-.016.485-.031h.515C2.297-.031 2.5 0 2.563 0c.046 0 .156 0 .156-.156 0-.11-.11-.11-.235-.11-.03 0-.171 0-.312-.015-.156-.016-.188-.031-.188-.11 0-.046.032-.093.032-.125l.546-2.187h2.563L4.578-.516c-.078.25-.219.25-.703.25-.094 0-.188 0-.188.157 0 .03.016.109.126.109.14 0 .343-.016.484-.031h.516c.765 0 .968.031 1.03.031C5.892 0 6 0 6-.156c0-.11-.11-.11-.234-.11-.032 0-.172 0-.313-.015-.156-.016-.172-.031-.172-.11 0-.046.016-.093.016-.125Zm0 0"/></symbol><symbol overflow="visible" id="c"><path style="stroke:none" d="M.422.969c-.078.25-.094.312-.406.312-.11 0-.204 0-.204.157 0 .062.063.109.11.109.078 0 .11-.031.703-.031.563 0 .734.03.797.03.031 0 .14 0 .14-.155 0-.11-.109-.11-.203-.11-.375 0-.375-.047-.375-.125 0-.047.141-.61.375-1.547.11.188.36.47.782.47.984 0 2-1.126 2-2.282C4.14-3 3.64-3.516 3-3.516c-.484 0-.86.329-1.094.563-.172-.563-.703-.563-.781-.563-.281 0-.484.188-.61.438-.187.36-.28.765-.28.781 0 .078.062.11.124.11.11 0 .11-.032.172-.25.094-.407.235-.86.563-.86.203 0 .265.188.265.375 0 .078-.03.281-.046.344Zm1.453-3.422c.047-.14.047-.156.172-.297.297-.36.64-.547.922-.547.406 0 .547.39.547.75 0 .297-.172 1.156-.407 1.625-.203.422-.593.781-.968.781-.532 0-.672-.625-.672-.687 0-.016.015-.094.031-.125Zm0 0"/></symbol><symbol overflow="visible" id="b"><path style="stroke:none" d="M2.016-2.656c.625 0 1.03.453 1.03 1.297 0 1-.562 1.28-.983 1.28-.438 0-1.047-.155-1.329-.577.297 0 .5-.188.5-.438 0-.265-.187-.437-.453-.437-.203 0-.437.125-.437.453 0 .75.812 1.25 1.734 1.25 1.047 0 1.797-.734 1.797-1.531 0-.672-.531-1.266-1.344-1.454.625-.218 1.11-.75 1.11-1.39 0-.64-.72-1.094-1.547-1.094-.86 0-1.5.453-1.5 1.063 0 .296.187.421.406.421.25 0 .406-.171.406-.406 0-.297-.265-.406-.437-.406.344-.438.953-.469 1.094-.469.203 0 .812.063.812.89 0 .548-.234.891-.344 1.016-.234.25-.422.266-.906.297-.156 0-.219.016-.219.125 0 .11.078.11.219.11Zm0 0"/></symbol><symbol overflow="visible" id="e"><path style="stroke:none" d="M4.031-4.86c.078-.077.078-.093.078-.265H2.08a8.79 8.79 0 0 1-.642-.031c-.421-.032-.421-.11-.453-.235h-.25L.47-3.703h.25c.015-.125.11-.672.219-.735.078-.046.687-.046.796-.046h1.688l-.813 1.109C1.703-2.172 1.5-.906 1.5-.281c0 .078 0 .453.375.453s.375-.36.375-.453v-.39c0-1.141.203-2.079.594-2.61Zm0 0"/></symbol><symbol overflow="visible" id="f"><path style="stroke:none" d="M5.797-5.625c.062-.094.062-.14.062-.172a.173.173 0 0 0-.171-.172c-.094 0-.141.047-.188.11-.344.437-.86.765-1.594.765-.297 0-.937-.062-1.578-.61-.14-.124-.312-.265-.625-.265-.64 0-1.234.672-1.234 1.594 0 .953.61 1.61 1.234 1.61.625 0 1.11-.72 1.11-1.594 0-.391-.094-.688-.157-.844.61.328 1.172.328 1.266.328.187 0 .64-.031 1.031-.234h.016L1.266.094c-.094.11-.094.125-.094.172 0 .093.094.187.187.187.079 0 .125-.031.188-.125Zm-4.078 2.64c-.14 0-.703-.078-.703-1.374 0-1.329.546-1.391.703-1.391.422 0 .843.547.843 1.375 0 .844-.437 1.39-.843 1.39Zm4.86 1.829c0-.922-.5-1.61-1.11-1.61-.64 0-1.235.672-1.235 1.61 0 .937.61 1.61 1.235 1.61.625 0 1.11-.72 1.11-1.61ZM5.483.219c-.14 0-.718-.063-.718-1.375 0-1.313.562-1.39.718-1.39.407 0 .844.562.844 1.39 0 .843-.437 1.375-.844 1.375Zm0 0"/></symbol><symbol overflow="visible" id="g"><path style="stroke:none" d="M1.11-4.484c.109.03.421.125.765.125 1 0 1.594-.704 1.594-.829 0-.093-.047-.109-.094-.109-.016 0-.031 0-.094.031a2.982 2.982 0 0 1-1.11.22c-.468 0-.858-.11-1.108-.22-.079-.03-.094-.03-.11-.03-.094 0-.094.077-.094.234v2.328c0 .14 0 .234.125.234.063 0 .079-.031.125-.094.094-.11.391-.515 1.079-.515.437 0 .656.359.734.515.125.281.14.656.14.953 0 .297 0 .735-.218 1.079-.156.25-.485.484-.906.484A1.271 1.271 0 0 1 .734-.922c.016.016.079.016.079.016.218 0 .406-.14.406-.39a.388.388 0 0 0-.39-.407c-.157 0-.407.078-.407.422 0 .718.625 1.453 1.531 1.453 1 0 1.844-.781 1.844-1.766 0-.922-.672-1.75-1.61-1.75-.39 0-.765.125-1.078.406Zm0 0"/></symbol><symbol overflow="visible" id="d"><path style="stroke:none" d="M3.297-1.906c0-.438 0-2.078-1.469-2.078S.36-2.344.36-1.906c0 .422 0 2.031 1.47 2.031 1.468 0 1.468-1.61 1.468-2.031ZM1.828-.063a.84.84 0 0 1-.812-.625C.922-1.03.922-1.609.922-1.984c0-.407 0-.86.094-1.188.14-.531.593-.61.812-.61.266 0 .672.126.797.579.094.312.094.75.094 1.219 0 .375 0 .984-.094 1.312a.825.825 0 0 1-.797.61Zm0 0"/></symbol><symbol overflow="visible" id="l"><path style="stroke:none" d="M1.25-.766c.188-.218.672-.671 1.063-1 .671-.562.874-.75.984-.875.734-.718.984-1.171.984-1.218 0-.016 0-.11-.125-.11-.078 0-.093.031-.14.11-.11.171-.36.562-.657.562-.187 0-.296-.11-.5-.328-.218-.234-.39-.344-.625-.344-.687 0-1.109.828-1.109 1.047 0 .031.016.11.11.11.093 0 .124-.063.124-.079.172-.437.704-.437.782-.437.203 0 .421.062.609.14.36.11.516.11.656.11-.281.312-.781.75-1.36 1.234-.437.375-.718.657-.921.844-.328.36-.734.906-.734 1 0 .063.046.094.125.094.078 0 .093-.032.14-.078.344-.547.688-.579.781-.579.22 0 .344.125.547.36.204.234.407.297.579.297.921 0 1.468-1.14 1.468-1.39 0-.079-.062-.11-.125-.11-.094 0-.11.062-.125.11-.25.655-.89.765-1.125.765-.156 0-.344-.047-.61-.14-.187-.048-.39-.126-.577-.126-.094 0-.188.031-.219.031Zm0 0"/></symbol><symbol overflow="visible" id="m"><path style="stroke:none" d="M.406 1.125c-.062.25-.078.344-.453.344-.11 0-.219 0-.219.156 0 .031.032.11.125.11l.375-.016H1.078c.156 0 .297.015.438.015.046 0 .171 0 .171-.156 0-.11-.093-.11-.25-.11-.421 0-.421-.062-.421-.155a2.9 2.9 0 0 1 .109-.438l.328-1.328c.094.187.344.547.86.547C3.359.094 4.5-1.172 4.5-2.516c0-.906-.563-1.453-1.234-1.453-.188 0-.641.047-1.188.656-.125-.5-.547-.656-.844-.656-.375 0-.578.281-.703.531-.14.313-.265.813-.265.86 0 .078.062.11.125.11.093 0 .109-.048.156-.235.172-.703.36-1.031.656-1.031.281 0 .281.28.281.421 0 .063-.015.204-.03.266Zm1.625-3.89c.047-.172.047-.188.172-.329.235-.312.64-.64 1.047-.64.422 0 .594.421.594.843 0 .391-.25 1.516-.531 1.985-.313.515-.688.781-1.016.781-.578 0-.735-.703-.735-.766 0-.062.032-.109.032-.156Zm0 0"/></symbol><clipPath id="h"><path d="M33.04 16H142v86.21H33.04Zm0 0"/></clipPath><clipPath id="i"><path d="M33.04 16H121v86.21H33.04Zm0 0"/></clipPath><clipPath id="j"><path d="M33.04 72H54v30.21H33.04Zm0 0"/></clipPath><clipPath id="k"><path d="M33.04 98H95v4.21H33.04Zm0 0"/></clipPath></defs><path style="fill:none;stroke-width:.19925;stroke-linecap:butt;stroke-linejoin:miter;stroke:gray;stroke-opacity:1;stroke-miterlimit:10" d="M20.566 236.908v4.254m41.137-4.254v4.254M-2.125 318.713h4.25m-4.25-50.395h4.25m-4.25-25.297h4.25" transform="matrix(1 0 0 -1 33.039 341.248)"/><path style="fill:none;stroke-width:.3985;stroke-linecap:butt;stroke-linejoin:miter;stroke:#000;stroke-opacity:1;stroke-miterlimit:10" d="M0 239.037h109.074" transform="matrix(1 0 0 -1 33.039 341.248)"/><path style="stroke:none;fill-rule:nonzero;fill:#000;fill-opacity:1" d="m144.11 102.21-3.192-1.593 1.195 1.594-1.195 1.594"/><path style="fill:none;stroke-width:.3985;stroke-linecap:butt;stroke-linejoin:miter;stroke:#000;stroke-opacity:1;stroke-miterlimit:10" d="M0 239.037v87.645" transform="matrix(1 0 0 -1 33.039 341.248)"/><path style="stroke:none;fill-rule:nonzero;fill:#000;fill-opacity:1" d="m33.04 12.574-1.595 3.188 1.594-1.196 1.594 1.196"/><use xlink:href="#a" x="49.822" y="111.781" style="fill:#000;fill-opacity:1"/><use xlink:href="#b" x="88.841" y="111.781" style="fill:#000;fill-opacity:1"/><use xlink:href="#a" x="93.075" y="111.781" style="fill:#000;fill-opacity:1"/><use xlink:href="#c" x="20.507" y="23.479" style="fill:#000;fill-opacity:1"/><use xlink:href="#d" x="24.769" y="24.586" style="fill:#000;fill-opacity:1"/><g style="fill:#000;fill-opacity:1"><use xlink:href="#b" x="4.981" y="75.148"/><use xlink:href="#e" x="9.216" y="75.148"/><use xlink:href="#f" x="13.45" y="75.148"/></g><use xlink:href="#c" x="20.507" y="75.148" style="fill:#000;fill-opacity:1"/><use xlink:href="#d" x="24.769" y="76.255" style="fill:#000;fill-opacity:1"/><g style="fill:#000;fill-opacity:1"><use xlink:href="#g" x="9.216" y="100.446"/><use xlink:href="#f" x="13.451" y="100.446"/></g><use xlink:href="#c" x="20.507" y="100.446" style="fill:#000;fill-opacity:1"/><use xlink:href="#d" x="24.769" y="101.553" style="fill:#000;fill-opacity:1"/><g clip-path="url(#h)"><path style="fill:none;stroke-width:.3985;stroke-linecap:butt;stroke-linejoin:miter;stroke:#3686c1;stroke-opacity:1;stroke-miterlimit:10" d="m0 318.713 1.04-3.906 1.038-3.73 1.04-3.548 1.038-3.37 1.04-3.216 1.038-3.043 1.036-2.902 1.039-2.758 1.039-2.62 1.039-2.485 1.039-2.375 1.039-2.25 1.039-2.145 1.039-2.031 1.04-1.938 1.038-1.84 1.04-1.753 1.038-1.657 1.04-1.586 1.038-1.5 1.036-1.433 1.039-1.356 1.039-1.296 1.039-1.23 1.039-1.165 1.039-1.113 1.039-1.055 1.039-1.004 1.04-.953 1.038-.91 1.04-.86 1.038-.824 1.04-.777 1.038-.742 1.036-.703 1.039-.668 1.039-.637 1.039-.606 1.039-.574 1.039-.55 1.039-.52 1.039-.5 1.039-.473 1.04-.445 1.038-.422 1.04-.402 1.038-.387 1.04-.363 1.035-.348 1.039-.332 1.039-.312 1.039-.301 1.039-.281 1.039-.27 1.039-.258 1.039-.246 1.039-.23 1.04-.22 1.038-.21 1.04-.2 1.038-.19 1.04-.18 1.034-.172 1.04-.16 1.039-.157 1.039-.148 1.039-.14 1.039-.134 1.039-.125 1.039-.12 1.039-.114 1.039-.11 2.078-.202 1.04-.09 1.034-.09 1.04-.086 2.078-.156 1.039-.075 2.078-.132 1.039-.063 2.078-.117 3.117-.152 1.04-.047 1.034-.043 1.04-.04 1.038-.042 3.118-.106 3.117-.093 1.039-.028" transform="matrix(1 0 0 -1 33.039 341.248)"/></g><g clip-path="url(#i)"><path style="fill:none;stroke-width:.3985;stroke-linecap:butt;stroke-linejoin:miter;stroke:#ff9d00;stroke-opacity:1;stroke-miterlimit:10" d="m0 318.713 5.875-22.762 5.879-22.766 5.875-22.765 5.879-22.766 11.75-45.531 5.879-22.766 5.875-22.765 5.879-22.766 5.875-22.765 5.879-22.766 11.75-45.531L82.274.002" transform="matrix(1 0 0 -1 33.039 341.248)"/></g><g clip-path="url(#j)"><path style="fill:none;stroke-width:.3985;stroke-linecap:butt;stroke-linejoin:miter;stroke:gray;stroke-opacity:1;stroke-miterlimit:10" d="M0 268.318h20.566v-29.28" transform="matrix(1 0 0 -1 33.039 341.248)"/></g><g clip-path="url(#k)"><path style="fill:none;stroke-width:.3985;stroke-linecap:butt;stroke-linejoin:miter;stroke:gray;stroke-opacity:1;stroke-miterlimit:10" d="M0 243.021h61.703v-3.984" transform="matrix(1 0 0 -1 33.039 341.248)"/></g><use xlink:href="#l" x="137.44" y="100.223" style="fill:#000;fill-opacity:1"/><use xlink:href="#m" x="30.726" y="8.842" style="fill:#000;fill-opacity:1"/></svg>