<svg xmlns="http://www.w3.org/2000/svg" xmlns:xlink="http://www.w3.org/1999/xlink" width="163.579" height="161.972" viewBox="0 0 122.684 121.479"><defs><clipPath id="a"><path d="M5.18 5.18h99.215V116H5.18Zm0 0"/></clipPath><clipPath id="w"><path d="M52 90.594h2.797V93H52Zm0 0"/></clipPath><clipPath id="x"><path d="M54.785 66.691c1.985-3.968 25.797-5.953 19.844 0-5.953 5.954-.992 16.868 0 19.844 3.969 11.906-17.86 3.969-19.844 0-1.984-2.976-3.965-11.906 0-19.844"/></clipPath><clipPath id="y"><path d="M52.8 90.594h4.985V93h-4.984Zm0 0"/></clipPath><clipPath id="z"><path d="M54.785 66.691c1.985-3.968 25.797-5.953 19.844 0-5.953 5.954-.992 16.868 0 19.844 3.969 11.906-17.86 3.969-19.844 0-1.984-2.976-3.965-11.906 0-19.844"/></clipPath><clipPath id="A"><path d="M55.793 90.594h4.98V93h-4.98Zm0 0"/></clipPath><clipPath id="B"><path d="M54.785 66.691c1.985-3.968 25.797-5.953 19.844 0-5.953 5.954-.992 16.868 0 19.844 3.969 11.906-17.86 3.969-19.844 0-1.984-2.976-3.965-11.906 0-19.844"/></clipPath><clipPath id="C"><path d="M58.781 90.594h4.98V93h-4.98Zm0 0"/></clipPath><clipPath id="D"><path d="M54.785 66.691c1.985-3.968 25.797-5.953 19.844 0-5.953 5.954-.992 16.868 0 19.844 3.969 11.906-17.86 3.969-19.844 0-1.984-2.976-3.965-11.906 0-19.844"/></clipPath><clipPath id="E"><path d="M61.77 90.594h4.98V93h-4.98Zm0 0"/></clipPath><clipPath id="F"><path d="M54.785 66.691c1.985-3.968 25.797-5.953 19.844 0-5.953 5.954-.992 16.868 0 19.844 3.969 11.906-17.86 3.969-19.844 0-1.984-2.976-3.965-11.906 0-19.844"/></clipPath><clipPath id="G"><path d="M64.758 90.594h4.98V93h-4.98Zm0 0"/></clipPath><clipPath id="H"><path d="M54.785 66.691c1.985-3.968 25.797-5.953 19.844 0-5.953 5.954-.992 16.868 0 19.844 3.969 11.906-17.86 3.969-19.844 0-1.984-2.976-3.965-11.906 0-19.844"/></clipPath><clipPath id="I"><path d="M67.746 90.594h4.98V93h-4.98Zm0 0"/></clipPath><clipPath id="J"><path d="M54.785 66.691c1.985-3.968 25.797-5.953 19.844 0-5.953 5.954-.992 16.868 0 19.844 3.969 11.906-17.86 3.969-19.844 0-1.984-2.976-3.965-11.906 0-19.844"/></clipPath><clipPath id="K"><path d="M70.734 90.594h4.985V93h-4.985Zm0 0"/></clipPath><clipPath id="L"><path d="M54.785 66.691c1.985-3.968 25.797-5.953 19.844 0-5.953 5.954-.992 16.868 0 19.844 3.969 11.906-17.86 3.969-19.844 0-1.984-2.976-3.965-11.906 0-19.844"/></clipPath><clipPath id="M"><path d="M73.723 90.594H76V93h-2.277Zm0 0"/></clipPath><clipPath id="N"><path d="M54.785 66.691c1.985-3.968 25.797-5.953 19.844 0-5.953 5.954-.992 16.868 0 19.844 3.969 11.906-17.86 3.969-19.844 0-1.984-2.976-3.965-11.906 0-19.844"/></clipPath><clipPath id="O"><path d="M52 87.605h2.797v4.98H52Zm0 0"/></clipPath><clipPath id="P"><path d="M54.785 66.691c1.985-3.968 25.797-5.953 19.844 0-5.953 5.954-.992 16.868 0 19.844 3.969 11.906-17.86 3.969-19.844 0-1.984-2.976-3.965-11.906 0-19.844"/></clipPath><clipPath id="Q"><path d="M52.8 87.605h4.985v4.98h-4.984Zm0 0"/></clipPath><clipPath id="R"><path d="M54.785 66.691c1.985-3.968 25.797-5.953 19.844 0-5.953 5.954-.992 16.868 0 19.844 3.969 11.906-17.86 3.969-19.844 0-1.984-2.976-3.965-11.906 0-19.844"/></clipPath><clipPath id="S"><path d="M55.793 87.605h4.98v4.98h-4.98Zm0 0"/></clipPath><clipPath id="T"><path d="M54.785 66.691c1.985-3.968 25.797-5.953 19.844 0-5.953 5.954-.992 16.868 0 19.844 3.969 11.906-17.86 3.969-19.844 0-1.984-2.976-3.965-11.906 0-19.844"/></clipPath><clipPath id="U"><path d="M58.781 87.605h4.98v4.98h-4.98Zm0 0"/></clipPath><clipPath id="V"><path d="M54.785 66.691c1.985-3.968 25.797-5.953 19.844 0-5.953 5.954-.992 16.868 0 19.844 3.969 11.906-17.86 3.969-19.844 0-1.984-2.976-3.965-11.906 0-19.844"/></clipPath><clipPath id="W"><path d="M61.77 87.605h4.98v4.98h-4.98Zm0 0"/></clipPath><clipPath id="X"><path d="M54.785 66.691c1.985-3.968 25.797-5.953 19.844 0-5.953 5.954-.992 16.868 0 19.844 3.969 11.906-17.86 3.969-19.844 0-1.984-2.976-3.965-11.906 0-19.844"/></clipPath><clipPath id="Y"><path d="M64.758 87.605h4.98v4.98h-4.98Zm0 0"/></clipPath><clipPath id="Z"><path d="M54.785 66.691c1.985-3.968 25.797-5.953 19.844 0-5.953 5.954-.992 16.868 0 19.844 3.969 11.906-17.86 3.969-19.844 0-1.984-2.976-3.965-11.906 0-19.844"/></clipPath><clipPath id="aa"><path d="M67.746 87.605h4.98v4.98h-4.98Zm0 0"/></clipPath><clipPath id="ab"><path d="M54.785 66.691c1.985-3.968 25.797-5.953 19.844 0-5.953 5.954-.992 16.868 0 19.844 3.969 11.906-17.86 3.969-19.844 0-1.984-2.976-3.965-11.906 0-19.844"/></clipPath><clipPath id="ac"><path d="M70.734 87.605h4.985v4.98h-4.985Zm0 0"/></clipPath><clipPath id="ad"><path d="M54.785 66.691c1.985-3.968 25.797-5.953 19.844 0-5.953 5.954-.992 16.868 0 19.844 3.969 11.906-17.86 3.969-19.844 0-1.984-2.976-3.965-11.906 0-19.844"/></clipPath><clipPath id="ae"><path d="M73.723 87.605H76v4.98h-2.277Zm0 0"/></clipPath><clipPath id="af"><path d="M54.785 66.691c1.985-3.968 25.797-5.953 19.844 0-5.953 5.954-.992 16.868 0 19.844 3.969 11.906-17.86 3.969-19.844 0-1.984-2.976-3.965-11.906 0-19.844"/></clipPath><clipPath id="ag"><path d="M52 84.617h2.797v4.98H52Zm0 0"/></clipPath><clipPath id="ah"><path d="M54.785 66.691c1.985-3.968 25.797-5.953 19.844 0-5.953 5.954-.992 16.868 0 19.844 3.969 11.906-17.86 3.969-19.844 0-1.984-2.976-3.965-11.906 0-19.844"/></clipPath><clipPath id="ai"><path d="M52.8 84.617h4.985v4.98h-4.984Zm0 0"/></clipPath><clipPath id="aj"><path d="M54.785 66.691c1.985-3.968 25.797-5.953 19.844 0-5.953 5.954-.992 16.868 0 19.844 3.969 11.906-17.86 3.969-19.844 0-1.984-2.976-3.965-11.906 0-19.844"/></clipPath><clipPath id="ak"><path d="M55.793 84.617h4.98v4.98h-4.98Zm0 0"/></clipPath><clipPath id="al"><path d="M54.785 66.691c1.985-3.968 25.797-5.953 19.844 0-5.953 5.954-.992 16.868 0 19.844 3.969 11.906-17.86 3.969-19.844 0-1.984-2.976-3.965-11.906 0-19.844"/></clipPath><clipPath id="am"><path d="M58.781 84.617h4.98v4.98h-4.98Zm0 0"/></clipPath><clipPath id="an"><path d="M54.785 66.691c1.985-3.968 25.797-5.953 19.844 0-5.953 5.954-.992 16.868 0 19.844 3.969 11.906-17.86 3.969-19.844 0-1.984-2.976-3.965-11.906 0-19.844"/></clipPath><clipPath id="ao"><path d="M61.77 84.617h4.98v4.98h-4.98Zm0 0"/></clipPath><clipPath id="ap"><path d="M54.785 66.691c1.985-3.968 25.797-5.953 19.844 0-5.953 5.954-.992 16.868 0 19.844 3.969 11.906-17.86 3.969-19.844 0-1.984-2.976-3.965-11.906 0-19.844"/></clipPath><clipPath id="aq"><path d="M64.758 84.617h4.98v4.98h-4.98Zm0 0"/></clipPath><clipPath id="ar"><path d="M54.785 66.691c1.985-3.968 25.797-5.953 19.844 0-5.953 5.954-.992 16.868 0 19.844 3.969 11.906-17.86 3.969-19.844 0-1.984-2.976-3.965-11.906 0-19.844"/></clipPath><clipPath id="as"><path d="M67.746 84.617h4.98v4.98h-4.98Zm0 0"/></clipPath><clipPath id="at"><path d="M54.785 66.691c1.985-3.968 25.797-5.953 19.844 0-5.953 5.954-.992 16.868 0 19.844 3.969 11.906-17.86 3.969-19.844 0-1.984-2.976-3.965-11.906 0-19.844"/></clipPath><clipPath id="au"><path d="M70.734 84.617h4.985v4.98h-4.985Zm0 0"/></clipPath><clipPath id="av"><path d="M54.785 66.691c1.985-3.968 25.797-5.953 19.844 0-5.953 5.954-.992 16.868 0 19.844 3.969 11.906-17.86 3.969-19.844 0-1.984-2.976-3.965-11.906 0-19.844"/></clipPath><clipPath id="aw"><path d="M73.723 84.617H76v4.98h-2.277Zm0 0"/></clipPath><clipPath id="ax"><path d="M54.785 66.691c1.985-3.968 25.797-5.953 19.844 0-5.953 5.954-.992 16.868 0 19.844 3.969 11.906-17.86 3.969-19.844 0-1.984-2.976-3.965-11.906 0-19.844"/></clipPath><clipPath id="ay"><path d="M52 81.629h2.797v4.98H52Zm0 0"/></clipPath><clipPath id="az"><path d="M54.785 66.691c1.985-3.968 25.797-5.953 19.844 0-5.953 5.954-.992 16.868 0 19.844 3.969 11.906-17.86 3.969-19.844 0-1.984-2.976-3.965-11.906 0-19.844"/></clipPath><clipPath id="aA"><path d="M52.8 81.629h4.985v4.98h-4.984Zm0 0"/></clipPath><clipPath id="aB"><path d="M54.785 66.691c1.985-3.968 25.797-5.953 19.844 0-5.953 5.954-.992 16.868 0 19.844 3.969 11.906-17.86 3.969-19.844 0-1.984-2.976-3.965-11.906 0-19.844"/></clipPath><clipPath id="aC"><path d="M55.793 81.629h4.98v4.98h-4.98Zm0 0"/></clipPath><clipPath id="aD"><path d="M54.785 66.691c1.985-3.968 25.797-5.953 19.844 0-5.953 5.954-.992 16.868 0 19.844 3.969 11.906-17.86 3.969-19.844 0-1.984-2.976-3.965-11.906 0-19.844"/></clipPath><clipPath id="aE"><path d="M58.781 81.629h4.98v4.98h-4.98Zm0 0"/></clipPath><clipPath id="aF"><path d="M54.785 66.691c1.985-3.968 25.797-5.953 19.844 0-5.953 5.954-.992 16.868 0 19.844 3.969 11.906-17.86 3.969-19.844 0-1.984-2.976-3.965-11.906 0-19.844"/></clipPath><clipPath id="aG"><path d="M61.77 81.629h4.98v4.98h-4.98Zm0 0"/></clipPath><clipPath id="aH"><path d="M54.785 66.691c1.985-3.968 25.797-5.953 19.844 0-5.953 5.954-.992 16.868 0 19.844 3.969 11.906-17.86 3.969-19.844 0-1.984-2.976-3.965-11.906 0-19.844"/></clipPath><clipPath id="aI"><path d="M64.758 81.629h4.98v4.98h-4.98Zm0 0"/></clipPath><clipPath id="aJ"><path d="M54.785 66.691c1.985-3.968 25.797-5.953 19.844 0-5.953 5.954-.992 16.868 0 19.844 3.969 11.906-17.86 3.969-19.844 0-1.984-2.976-3.965-11.906 0-19.844"/></clipPath><clipPath id="aK"><path d="M67.746 81.629h4.98v4.98h-4.98Zm0 0"/></clipPath><clipPath id="aL"><path d="M54.785 66.691c1.985-3.968 25.797-5.953 19.844 0-5.953 5.954-.992 16.868 0 19.844 3.969 11.906-17.86 3.969-19.844 0-1.984-2.976-3.965-11.906 0-19.844"/></clipPath><clipPath id="aM"><path d="M70.734 81.629h4.985v4.98h-4.985Zm0 0"/></clipPath><clipPath id="aN"><path d="M54.785 66.691c1.985-3.968 25.797-5.953 19.844 0-5.953 5.954-.992 16.868 0 19.844 3.969 11.906-17.86 3.969-19.844 0-1.984-2.976-3.965-11.906 0-19.844"/></clipPath><clipPath id="aO"><path d="M73.723 81.629H76v4.98h-2.277Zm0 0"/></clipPath><clipPath id="aP"><path d="M54.785 66.691c1.985-3.968 25.797-5.953 19.844 0-5.953 5.954-.992 16.868 0 19.844 3.969 11.906-17.86 3.969-19.844 0-1.984-2.976-3.965-11.906 0-19.844"/></clipPath><clipPath id="aQ"><path d="M52 78.64h2.797v4.981H52Zm0 0"/></clipPath><clipPath id="aR"><path d="M54.785 66.691c1.985-3.968 25.797-5.953 19.844 0-5.953 5.954-.992 16.868 0 19.844 3.969 11.906-17.86 3.969-19.844 0-1.984-2.976-3.965-11.906 0-19.844"/></clipPath><clipPath id="aS"><path d="M52.8 78.64h4.985v4.981h-4.984Zm0 0"/></clipPath><clipPath id="aT"><path d="M54.785 66.691c1.985-3.968 25.797-5.953 19.844 0-5.953 5.954-.992 16.868 0 19.844 3.969 11.906-17.86 3.969-19.844 0-1.984-2.976-3.965-11.906 0-19.844"/></clipPath><clipPath id="aU"><path d="M55.793 78.64h4.98v4.981h-4.98Zm0 0"/></clipPath><clipPath id="aV"><path d="M54.785 66.691c1.985-3.968 25.797-5.953 19.844 0-5.953 5.954-.992 16.868 0 19.844 3.969 11.906-17.86 3.969-19.844 0-1.984-2.976-3.965-11.906 0-19.844"/></clipPath><clipPath id="aW"><path d="M58.781 78.64h4.98v4.981h-4.98Zm0 0"/></clipPath><clipPath id="aX"><path d="M54.785 66.691c1.985-3.968 25.797-5.953 19.844 0-5.953 5.954-.992 16.868 0 19.844 3.969 11.906-17.86 3.969-19.844 0-1.984-2.976-3.965-11.906 0-19.844"/></clipPath><clipPath id="aY"><path d="M61.77 78.64h4.98v4.981h-4.98Zm0 0"/></clipPath><clipPath id="aZ"><path d="M54.785 66.691c1.985-3.968 25.797-5.953 19.844 0-5.953 5.954-.992 16.868 0 19.844 3.969 11.906-17.86 3.969-19.844 0-1.984-2.976-3.965-11.906 0-19.844"/></clipPath><clipPath id="ba"><path d="M64.758 78.64h4.98v4.981h-4.98Zm0 0"/></clipPath><clipPath id="bb"><path d="M54.785 66.691c1.985-3.968 25.797-5.953 19.844 0-5.953 5.954-.992 16.868 0 19.844 3.969 11.906-17.86 3.969-19.844 0-1.984-2.976-3.965-11.906 0-19.844"/></clipPath><clipPath id="bc"><path d="M67.746 78.64h4.98v4.981h-4.98Zm0 0"/></clipPath><clipPath id="bd"><path d="M54.785 66.691c1.985-3.968 25.797-5.953 19.844 0-5.953 5.954-.992 16.868 0 19.844 3.969 11.906-17.86 3.969-19.844 0-1.984-2.976-3.965-11.906 0-19.844"/></clipPath><clipPath id="be"><path d="M70.734 78.64h4.985v4.981h-4.985Zm0 0"/></clipPath><clipPath id="bf"><path d="M54.785 66.691c1.985-3.968 25.797-5.953 19.844 0-5.953 5.954-.992 16.868 0 19.844 3.969 11.906-17.86 3.969-19.844 0-1.984-2.976-3.965-11.906 0-19.844"/></clipPath><clipPath id="bg"><path d="M73.723 78.64H76v4.981h-2.277Zm0 0"/></clipPath><clipPath id="bh"><path d="M54.785 66.691c1.985-3.968 25.797-5.953 19.844 0-5.953 5.954-.992 16.868 0 19.844 3.969 11.906-17.86 3.969-19.844 0-1.984-2.976-3.965-11.906 0-19.844"/></clipPath><clipPath id="bi"><path d="M52 75.648h2.797v4.985H52Zm0 0"/></clipPath><clipPath id="bj"><path d="M54.785 66.691c1.985-3.968 25.797-5.953 19.844 0-5.953 5.954-.992 16.868 0 19.844 3.969 11.906-17.86 3.969-19.844 0-1.984-2.976-3.965-11.906 0-19.844"/></clipPath><clipPath id="bk"><path d="M52.8 75.648h4.985v4.985h-4.984Zm0 0"/></clipPath><clipPath id="bl"><path d="M54.785 66.691c1.985-3.968 25.797-5.953 19.844 0-5.953 5.954-.992 16.868 0 19.844 3.969 11.906-17.86 3.969-19.844 0-1.984-2.976-3.965-11.906 0-19.844"/></clipPath><clipPath id="bm"><path d="M55.793 75.648h4.98v4.985h-4.98Zm0 0"/></clipPath><clipPath id="bn"><path d="M54.785 66.691c1.985-3.968 25.797-5.953 19.844 0-5.953 5.954-.992 16.868 0 19.844 3.969 11.906-17.86 3.969-19.844 0-1.984-2.976-3.965-11.906 0-19.844"/></clipPath><clipPath id="bo"><path d="M58.781 75.648h4.98v4.985h-4.98Zm0 0"/></clipPath><clipPath id="bp"><path d="M54.785 66.691c1.985-3.968 25.797-5.953 19.844 0-5.953 5.954-.992 16.868 0 19.844 3.969 11.906-17.86 3.969-19.844 0-1.984-2.976-3.965-11.906 0-19.844"/></clipPath><clipPath id="bq"><path d="M61.77 75.648h4.98v4.985h-4.98Zm0 0"/></clipPath><clipPath id="br"><path d="M54.785 66.691c1.985-3.968 25.797-5.953 19.844 0-5.953 5.954-.992 16.868 0 19.844 3.969 11.906-17.86 3.969-19.844 0-1.984-2.976-3.965-11.906 0-19.844"/></clipPath><clipPath id="bs"><path d="M64.758 75.648h4.98v4.985h-4.98Zm0 0"/></clipPath><clipPath id="bt"><path d="M54.785 66.691c1.985-3.968 25.797-5.953 19.844 0-5.953 5.954-.992 16.868 0 19.844 3.969 11.906-17.86 3.969-19.844 0-1.984-2.976-3.965-11.906 0-19.844"/></clipPath><clipPath id="bu"><path d="M67.746 75.648h4.98v4.985h-4.98Zm0 0"/></clipPath><clipPath id="bv"><path d="M54.785 66.691c1.985-3.968 25.797-5.953 19.844 0-5.953 5.954-.992 16.868 0 19.844 3.969 11.906-17.86 3.969-19.844 0-1.984-2.976-3.965-11.906 0-19.844"/></clipPath><clipPath id="bw"><path d="M70.734 75.648h4.985v4.985h-4.985Zm0 0"/></clipPath><clipPath id="bx"><path d="M54.785 66.691c1.985-3.968 25.797-5.953 19.844 0-5.953 5.954-.992 16.868 0 19.844 3.969 11.906-17.86 3.969-19.844 0-1.984-2.976-3.965-11.906 0-19.844"/></clipPath><clipPath id="by"><path d="M73.723 75.648H76v4.985h-2.277Zm0 0"/></clipPath><clipPath id="bz"><path d="M54.785 66.691c1.985-3.968 25.797-5.953 19.844 0-5.953 5.954-.992 16.868 0 19.844 3.969 11.906-17.86 3.969-19.844 0-1.984-2.976-3.965-11.906 0-19.844"/></clipPath><clipPath id="bA"><path d="M52 72.66h2.797v4.985H52Zm0 0"/></clipPath><clipPath id="bB"><path d="M54.785 66.691c1.985-3.968 25.797-5.953 19.844 0-5.953 5.954-.992 16.868 0 19.844 3.969 11.906-17.86 3.969-19.844 0-1.984-2.976-3.965-11.906 0-19.844"/></clipPath><clipPath id="bC"><path d="M52.8 72.66h4.985v4.985h-4.984Zm0 0"/></clipPath><clipPath id="bD"><path d="M54.785 66.691c1.985-3.968 25.797-5.953 19.844 0-5.953 5.954-.992 16.868 0 19.844 3.969 11.906-17.86 3.969-19.844 0-1.984-2.976-3.965-11.906 0-19.844"/></clipPath><clipPath id="bE"><path d="M55.793 72.66h4.98v4.985h-4.98Zm0 0"/></clipPath><clipPath id="bF"><path d="M54.785 66.691c1.985-3.968 25.797-5.953 19.844 0-5.953 5.954-.992 16.868 0 19.844 3.969 11.906-17.86 3.969-19.844 0-1.984-2.976-3.965-11.906 0-19.844"/></clipPath><clipPath id="bG"><path d="M58.781 72.66h4.98v4.985h-4.98Zm0 0"/></clipPath><clipPath id="bH"><path d="M54.785 66.691c1.985-3.968 25.797-5.953 19.844 0-5.953 5.954-.992 16.868 0 19.844 3.969 11.906-17.86 3.969-19.844 0-1.984-2.976-3.965-11.906 0-19.844"/></clipPath><clipPath id="bI"><path d="M61.77 72.66h4.98v4.985h-4.98Zm0 0"/></clipPath><clipPath id="bJ"><path d="M54.785 66.691c1.985-3.968 25.797-5.953 19.844 0-5.953 5.954-.992 16.868 0 19.844 3.969 11.906-17.86 3.969-19.844 0-1.984-2.976-3.965-11.906 0-19.844"/></clipPath><clipPath id="bK"><path d="M64.758 72.66h4.98v4.985h-4.98Zm0 0"/></clipPath><clipPath id="bL"><path d="M54.785 66.691c1.985-3.968 25.797-5.953 19.844 0-5.953 5.954-.992 16.868 0 19.844 3.969 11.906-17.86 3.969-19.844 0-1.984-2.976-3.965-11.906 0-19.844"/></clipPath><clipPath id="bM"><path d="M67.746 72.66h4.98v4.985h-4.98Zm0 0"/></clipPath><clipPath id="bN"><path d="M54.785 66.691c1.985-3.968 25.797-5.953 19.844 0-5.953 5.954-.992 16.868 0 19.844 3.969 11.906-17.86 3.969-19.844 0-1.984-2.976-3.965-11.906 0-19.844"/></clipPath><clipPath id="bO"><path d="M70.734 72.66h4.985v4.985h-4.985Zm0 0"/></clipPath><clipPath id="bP"><path d="M54.785 66.691c1.985-3.968 25.797-5.953 19.844 0-5.953 5.954-.992 16.868 0 19.844 3.969 11.906-17.86 3.969-19.844 0-1.984-2.976-3.965-11.906 0-19.844"/></clipPath><clipPath id="bQ"><path d="M73.723 72.66H76v4.985h-2.277Zm0 0"/></clipPath><clipPath id="bR"><path d="M54.785 66.691c1.985-3.968 25.797-5.953 19.844 0-5.953 5.954-.992 16.868 0 19.844 3.969 11.906-17.86 3.969-19.844 0-1.984-2.976-3.965-11.906 0-19.844"/></clipPath><clipPath id="bS"><path d="M52 69.672h2.797v4.98H52Zm0 0"/></clipPath><clipPath id="bT"><path d="M54.785 66.691c1.985-3.968 25.797-5.953 19.844 0-5.953 5.954-.992 16.868 0 19.844 3.969 11.906-17.86 3.969-19.844 0-1.984-2.976-3.965-11.906 0-19.844"/></clipPath><clipPath id="bU"><path d="M52.8 69.672h4.985v4.98h-4.984Zm0 0"/></clipPath><clipPath id="bV"><path d="M54.785 66.691c1.985-3.968 25.797-5.953 19.844 0-5.953 5.954-.992 16.868 0 19.844 3.969 11.906-17.86 3.969-19.844 0-1.984-2.976-3.965-11.906 0-19.844"/></clipPath><clipPath id="bW"><path d="M55.793 69.672h4.98v4.98h-4.98Zm0 0"/></clipPath><clipPath id="bX"><path d="M54.785 66.691c1.985-3.968 25.797-5.953 19.844 0-5.953 5.954-.992 16.868 0 19.844 3.969 11.906-17.86 3.969-19.844 0-1.984-2.976-3.965-11.906 0-19.844"/></clipPath><clipPath id="bY"><path d="M58.781 69.672h4.98v4.98h-4.98Zm0 0"/></clipPath><clipPath id="bZ"><path d="M54.785 66.691c1.985-3.968 25.797-5.953 19.844 0-5.953 5.954-.992 16.868 0 19.844 3.969 11.906-17.86 3.969-19.844 0-1.984-2.976-3.965-11.906 0-19.844"/></clipPath><clipPath id="ca"><path d="M61.77 69.672h4.98v4.98h-4.98Zm0 0"/></clipPath><clipPath id="cb"><path d="M54.785 66.691c1.985-3.968 25.797-5.953 19.844 0-5.953 5.954-.992 16.868 0 19.844 3.969 11.906-17.86 3.969-19.844 0-1.984-2.976-3.965-11.906 0-19.844"/></clipPath><clipPath id="cc"><path d="M64.758 69.672h4.98v4.98h-4.98Zm0 0"/></clipPath><clipPath id="cd"><path d="M54.785 66.691c1.985-3.968 25.797-5.953 19.844 0-5.953 5.954-.992 16.868 0 19.844 3.969 11.906-17.86 3.969-19.844 0-1.984-2.976-3.965-11.906 0-19.844"/></clipPath><clipPath id="ce"><path d="M67.746 69.672h4.98v4.98h-4.98Zm0 0"/></clipPath><clipPath id="cf"><path d="M54.785 66.691c1.985-3.968 25.797-5.953 19.844 0-5.953 5.954-.992 16.868 0 19.844 3.969 11.906-17.86 3.969-19.844 0-1.984-2.976-3.965-11.906 0-19.844"/></clipPath><clipPath id="cg"><path d="M70.734 69.672h4.985v4.98h-4.985Zm0 0"/></clipPath><clipPath id="ch"><path d="M54.785 66.691c1.985-3.968 25.797-5.953 19.844 0-5.953 5.954-.992 16.868 0 19.844 3.969 11.906-17.86 3.969-19.844 0-1.984-2.976-3.965-11.906 0-19.844"/></clipPath><clipPath id="ci"><path d="M73.723 69.672H76v4.98h-2.277Zm0 0"/></clipPath><clipPath id="cj"><path d="M54.785 66.691c1.985-3.968 25.797-5.953 19.844 0-5.953 5.954-.992 16.868 0 19.844 3.969 11.906-17.86 3.969-19.844 0-1.984-2.976-3.965-11.906 0-19.844"/></clipPath><clipPath id="ck"><path d="M52 66.684h2.797v4.98H52Zm0 0"/></clipPath><clipPath id="cl"><path d="M54.785 66.691c1.985-3.968 25.797-5.953 19.844 0-5.953 5.954-.992 16.868 0 19.844 3.969 11.906-17.86 3.969-19.844 0-1.984-2.976-3.965-11.906 0-19.844"/></clipPath><clipPath id="cm"><path d="M52.8 66.684h4.985v4.98h-4.984Zm0 0"/></clipPath><clipPath id="cn"><path d="M54.785 66.691c1.985-3.968 25.797-5.953 19.844 0-5.953 5.954-.992 16.868 0 19.844 3.969 11.906-17.86 3.969-19.844 0-1.984-2.976-3.965-11.906 0-19.844"/></clipPath><clipPath id="co"><path d="M55.793 66.684h4.98v4.98h-4.98Zm0 0"/></clipPath><clipPath id="cp"><path d="M54.785 66.691c1.985-3.968 25.797-5.953 19.844 0-5.953 5.954-.992 16.868 0 19.844 3.969 11.906-17.86 3.969-19.844 0-1.984-2.976-3.965-11.906 0-19.844"/></clipPath><clipPath id="cq"><path d="M58.781 66.684h4.98v4.98h-4.98Zm0 0"/></clipPath><clipPath id="cr"><path d="M54.785 66.691c1.985-3.968 25.797-5.953 19.844 0-5.953 5.954-.992 16.868 0 19.844 3.969 11.906-17.86 3.969-19.844 0-1.984-2.976-3.965-11.906 0-19.844"/></clipPath><clipPath id="cs"><path d="M61.77 66.684h4.98v4.98h-4.98Zm0 0"/></clipPath><clipPath id="ct"><path d="M54.785 66.691c1.985-3.968 25.797-5.953 19.844 0-5.953 5.954-.992 16.868 0 19.844 3.969 11.906-17.86 3.969-19.844 0-1.984-2.976-3.965-11.906 0-19.844"/></clipPath><clipPath id="cu"><path d="M64.758 66.684h4.98v4.98h-4.98Zm0 0"/></clipPath><clipPath id="cv"><path d="M54.785 66.691c1.985-3.968 25.797-5.953 19.844 0-5.953 5.954-.992 16.868 0 19.844 3.969 11.906-17.86 3.969-19.844 0-1.984-2.976-3.965-11.906 0-19.844"/></clipPath><clipPath id="cw"><path d="M67.746 66.684h4.98v4.98h-4.98Zm0 0"/></clipPath><clipPath id="cx"><path d="M54.785 66.691c1.985-3.968 25.797-5.953 19.844 0-5.953 5.954-.992 16.868 0 19.844 3.969 11.906-17.86 3.969-19.844 0-1.984-2.976-3.965-11.906 0-19.844"/></clipPath><clipPath id="cy"><path d="M70.734 66.684h4.985v4.98h-4.985Zm0 0"/></clipPath><clipPath id="cz"><path d="M54.785 66.691c1.985-3.968 25.797-5.953 19.844 0-5.953 5.954-.992 16.868 0 19.844 3.969 11.906-17.86 3.969-19.844 0-1.984-2.976-3.965-11.906 0-19.844"/></clipPath><clipPath id="cA"><path d="M73.723 66.684H76v4.98h-2.277Zm0 0"/></clipPath><clipPath id="cB"><path d="M54.785 66.691c1.985-3.968 25.797-5.953 19.844 0-5.953 5.954-.992 16.868 0 19.844 3.969 11.906-17.86 3.969-19.844 0-1.984-2.976-3.965-11.906 0-19.844"/></clipPath><clipPath id="cC"><path d="M52 63.695h2.797v4.98H52Zm0 0"/></clipPath><clipPath id="cD"><path d="M54.785 66.691c1.985-3.968 25.797-5.953 19.844 0-5.953 5.954-.992 16.868 0 19.844 3.969 11.906-17.86 3.969-19.844 0-1.984-2.976-3.965-11.906 0-19.844"/></clipPath><clipPath id="cE"><path d="M52.8 63.695h4.985v4.98h-4.984Zm0 0"/></clipPath><clipPath id="cF"><path d="M54.785 66.691c1.985-3.968 25.797-5.953 19.844 0-5.953 5.954-.992 16.868 0 19.844 3.969 11.906-17.86 3.969-19.844 0-1.984-2.976-3.965-11.906 0-19.844"/></clipPath><clipPath id="cG"><path d="M55.793 63.695h4.98v4.98h-4.98Zm0 0"/></clipPath><clipPath id="cH"><path d="M54.785 66.691c1.985-3.968 25.797-5.953 19.844 0-5.953 5.954-.992 16.868 0 19.844 3.969 11.906-17.86 3.969-19.844 0-1.984-2.976-3.965-11.906 0-19.844"/></clipPath><clipPath id="cI"><path d="M58.781 63.695h4.98v4.98h-4.98Zm0 0"/></clipPath><clipPath id="cJ"><path d="M54.785 66.691c1.985-3.968 25.797-5.953 19.844 0-5.953 5.954-.992 16.868 0 19.844 3.969 11.906-17.86 3.969-19.844 0-1.984-2.976-3.965-11.906 0-19.844"/></clipPath><clipPath id="cK"><path d="M61.77 63.695h4.98v4.98h-4.98Zm0 0"/></clipPath><clipPath id="cL"><path d="M54.785 66.691c1.985-3.968 25.797-5.953 19.844 0-5.953 5.954-.992 16.868 0 19.844 3.969 11.906-17.86 3.969-19.844 0-1.984-2.976-3.965-11.906 0-19.844"/></clipPath><clipPath id="cM"><path d="M64.758 63.695h4.98v4.98h-4.98Zm0 0"/></clipPath><clipPath id="cN"><path d="M54.785 66.691c1.985-3.968 25.797-5.953 19.844 0-5.953 5.954-.992 16.868 0 19.844 3.969 11.906-17.86 3.969-19.844 0-1.984-2.976-3.965-11.906 0-19.844"/></clipPath><clipPath id="cO"><path d="M67.746 63.695h4.98v4.98h-4.98Zm0 0"/></clipPath><clipPath id="cP"><path d="M54.785 66.691c1.985-3.968 25.797-5.953 19.844 0-5.953 5.954-.992 16.868 0 19.844 3.969 11.906-17.86 3.969-19.844 0-1.984-2.976-3.965-11.906 0-19.844"/></clipPath><clipPath id="cQ"><path d="M70.734 63.695h4.985v4.98h-4.985Zm0 0"/></clipPath><clipPath id="cR"><path d="M54.785 66.691c1.985-3.968 25.797-5.953 19.844 0-5.953 5.954-.992 16.868 0 19.844 3.969 11.906-17.86 3.969-19.844 0-1.984-2.976-3.965-11.906 0-19.844"/></clipPath><clipPath id="cS"><path d="M73.723 63.695H76v4.98h-2.277Zm0 0"/></clipPath><clipPath id="cT"><path d="M54.785 66.691c1.985-3.968 25.797-5.953 19.844 0-5.953 5.954-.992 16.868 0 19.844 3.969 11.906-17.86 3.969-19.844 0-1.984-2.976-3.965-11.906 0-19.844"/></clipPath><clipPath id="cU"><path d="M52 62h2.797v3.688H52Zm0 0"/></clipPath><clipPath id="cV"><path d="M54.785 66.691c1.985-3.968 25.797-5.953 19.844 0-5.953 5.954-.992 16.868 0 19.844 3.969 11.906-17.86 3.969-19.844 0-1.984-2.976-3.965-11.906 0-19.844"/></clipPath><clipPath id="cW"><path d="M52.8 62h4.985v3.688h-4.984Zm0 0"/></clipPath><clipPath id="cX"><path d="M54.785 66.691c1.985-3.968 25.797-5.953 19.844 0-5.953 5.954-.992 16.868 0 19.844 3.969 11.906-17.86 3.969-19.844 0-1.984-2.976-3.965-11.906 0-19.844"/></clipPath><clipPath id="cY"><path d="M55.793 62h4.98v3.688h-4.98Zm0 0"/></clipPath><clipPath id="cZ"><path d="M54.785 66.691c1.985-3.968 25.797-5.953 19.844 0-5.953 5.954-.992 16.868 0 19.844 3.969 11.906-17.86 3.969-19.844 0-1.984-2.976-3.965-11.906 0-19.844"/></clipPath><clipPath id="da"><path d="M58.781 62h4.98v3.688h-4.98Zm0 0"/></clipPath><clipPath id="db"><path d="M54.785 66.691c1.985-3.968 25.797-5.953 19.844 0-5.953 5.954-.992 16.868 0 19.844 3.969 11.906-17.86 3.969-19.844 0-1.984-2.976-3.965-11.906 0-19.844"/></clipPath><clipPath id="dc"><path d="M61.77 62h4.98v3.688h-4.98Zm0 0"/></clipPath><clipPath id="dd"><path d="M54.785 66.691c1.985-3.968 25.797-5.953 19.844 0-5.953 5.954-.992 16.868 0 19.844 3.969 11.906-17.86 3.969-19.844 0-1.984-2.976-3.965-11.906 0-19.844"/></clipPath><clipPath id="de"><path d="M64.758 62h4.98v3.688h-4.98Zm0 0"/></clipPath><clipPath id="df"><path d="M54.785 66.691c1.985-3.968 25.797-5.953 19.844 0-5.953 5.954-.992 16.868 0 19.844 3.969 11.906-17.86 3.969-19.844 0-1.984-2.976-3.965-11.906 0-19.844"/></clipPath><clipPath id="dg"><path d="M67.746 62h4.98v3.688h-4.98Zm0 0"/></clipPath><clipPath id="dh"><path d="M54.785 66.691c1.985-3.968 25.797-5.953 19.844 0-5.953 5.954-.992 16.868 0 19.844 3.969 11.906-17.86 3.969-19.844 0-1.984-2.976-3.965-11.906 0-19.844"/></clipPath><clipPath id="di"><path d="M70.734 62h4.985v3.688h-4.985Zm0 0"/></clipPath><clipPath id="dj"><path d="M54.785 66.691c1.985-3.968 25.797-5.953 19.844 0-5.953 5.954-.992 16.868 0 19.844 3.969 11.906-17.86 3.969-19.844 0-1.984-2.976-3.965-11.906 0-19.844"/></clipPath><clipPath id="dk"><path d="M73.723 62H76v3.688h-2.277Zm0 0"/></clipPath><clipPath id="dl"><path d="M54.785 66.691c1.985-3.968 25.797-5.953 19.844 0-5.953 5.954-.992 16.868 0 19.844 3.969 11.906-17.86 3.969-19.844 0-1.984-2.976-3.965-11.906 0-19.844"/></clipPath><clipPath id="dm"><path d="M52 62h2.797v.7H52Zm0 0"/></clipPath><clipPath id="dn"><path d="M54.785 66.691c1.985-3.968 25.797-5.953 19.844 0-5.953 5.954-.992 16.868 0 19.844 3.969 11.906-17.86 3.969-19.844 0-1.984-2.976-3.965-11.906 0-19.844"/></clipPath><clipPath id="do"><path d="M52.8 62h4.985v.7h-4.984Zm0 0"/></clipPath><clipPath id="dp"><path d="M54.785 66.691c1.985-3.968 25.797-5.953 19.844 0-5.953 5.954-.992 16.868 0 19.844 3.969 11.906-17.86 3.969-19.844 0-1.984-2.976-3.965-11.906 0-19.844"/></clipPath><clipPath id="dq"><path d="M55.793 62h4.98v.7h-4.98Zm0 0"/></clipPath><clipPath id="dr"><path d="M54.785 66.691c1.985-3.968 25.797-5.953 19.844 0-5.953 5.954-.992 16.868 0 19.844 3.969 11.906-17.86 3.969-19.844 0-1.984-2.976-3.965-11.906 0-19.844"/></clipPath><clipPath id="ds"><path d="M58.781 62h4.98v.7h-4.98Zm0 0"/></clipPath><clipPath id="dt"><path d="M54.785 66.691c1.985-3.968 25.797-5.953 19.844 0-5.953 5.954-.992 16.868 0 19.844 3.969 11.906-17.86 3.969-19.844 0-1.984-2.976-3.965-11.906 0-19.844"/></clipPath><clipPath id="du"><path d="M61.77 62h4.98v.7h-4.98Zm0 0"/></clipPath><clipPath id="dv"><path d="M54.785 66.691c1.985-3.968 25.797-5.953 19.844 0-5.953 5.954-.992 16.868 0 19.844 3.969 11.906-17.86 3.969-19.844 0-1.984-2.976-3.965-11.906 0-19.844"/></clipPath><clipPath id="dw"><path d="M64.758 62h4.98v.7h-4.98Zm0 0"/></clipPath><clipPath id="dx"><path d="M54.785 66.691c1.985-3.968 25.797-5.953 19.844 0-5.953 5.954-.992 16.868 0 19.844 3.969 11.906-17.86 3.969-19.844 0-1.984-2.976-3.965-11.906 0-19.844"/></clipPath><clipPath id="dy"><path d="M67.746 62h4.98v.7h-4.98Zm0 0"/></clipPath><clipPath id="dz"><path d="M54.785 66.691c1.985-3.968 25.797-5.953 19.844 0-5.953 5.954-.992 16.868 0 19.844 3.969 11.906-17.86 3.969-19.844 0-1.984-2.976-3.965-11.906 0-19.844"/></clipPath><clipPath id="dA"><path d="M70.734 62h4.985v.7h-4.985Zm0 0"/></clipPath><clipPath id="dB"><path d="M54.785 66.691c1.985-3.968 25.797-5.953 19.844 0-5.953 5.954-.992 16.868 0 19.844 3.969 11.906-17.86 3.969-19.844 0-1.984-2.976-3.965-11.906 0-19.844"/></clipPath><clipPath id="dC"><path d="M73.723 62H76v.7h-2.277Zm0 0"/></clipPath><clipPath id="dD"><path d="M54.785 66.691c1.985-3.968 25.797-5.953 19.844 0-5.953 5.954-.992 16.868 0 19.844 3.969 11.906-17.86 3.969-19.844 0-1.984-2.976-3.965-11.906 0-19.844"/></clipPath><clipPath id="dE"><path d="M24 34h80v87.48H24Zm0 0"/></clipPath><symbol overflow="visible" id="c"><path style="stroke:none" d="M.313-5.453v.266c.109 0 .218-.016.328-.016.28 0 .515.062.515.375v4.203c0 .313-.25.36-.515.36H.312v.25h2.422v-.25h-.312c-.297 0-.531-.047-.531-.36v-4.203c0-.313.265-.375.546-.375.11 0 .204.016.297.016v-.266Zm0 0"/></symbol><symbol overflow="visible" id="d"><path style="stroke:none" d="M.75-.266c.25.22.563.344.906.344.625 0 1.39-.234 1.39-1.125v-.062c-.03-.485-.421-.829-.858-.97-.454-.14-1.485-.093-1.485-.702 0-.469.61-.578.953-.578.485 0 .875.25.938.812 0 .063 0 .14.11.14.108 0 .14-.077.14-.171v-.86c0-.062-.047-.109-.125-.109-.14 0-.203.188-.297.188h-.016c-.125-.047-.234-.125-.375-.157-.125-.015-.234-.03-.36-.03-.577 0-1.39.155-1.39 1v.062c.016.28.203.484.422.656.625.406 1.828.14 1.922.953 0 .563-.5.719-.938.719-.609 0-1.03-.422-1.125-.969-.03-.094-.03-.203-.156-.203-.125 0-.125.078-.125.156v.969c0 .031-.015.078-.015.11 0 .077.03.171.109.171.078 0 .156-.094.188-.14L.609-.11C.656-.172.703-.22.75-.266Zm0 0"/></symbol><symbol overflow="visible" id="e"><path style="stroke:none" d="M1.984-3.547c-.906.094-1.75.75-1.75 1.875 0 1.078.985 1.75 1.907 1.75C3.062.078 4-.64 4-1.688c0-1.03-.86-1.859-1.906-1.859Zm-1.046 2v-.203c0-.422.03-.969.375-1.281.218-.203.515-.297.812-.297.813 0 1.156.672 1.156 1.5 0 .437-.015.922-.312 1.281-.219.25-.531.375-.86.375-.593 0-1.046-.422-1.14-1.047-.016-.11-.016-.218-.031-.328Zm0 0"/></symbol><symbol overflow="visible" id="f"><path style="stroke:none" d="M.266-5.453v.266H.39c.25 0 .484.03.484.39v4.781h.234L1.406-.5c.313.344.657.578 1.125.578.969 0 1.89-.765 1.89-1.797 0-.937-.765-1.797-1.796-1.797-.453 0-.844.172-1.156.485v-2.5Zm3.437 3.906c-.031.328-.078.672-.312.953a1.178 1.178 0 0 1-.907.438c-.343 0-1-.313-1-.766V-2.484c0-.47.61-.813 1.079-.813.89 0 1.14.938 1.14 1.578v.172Zm0 0"/></symbol><symbol overflow="visible" id="g"><path style="stroke:none" d="M1.063-3.125v-.016c.265-.125.484-.187.78-.187.532 0 .891.406.891 1.015v.188c-.984 0-2.39.313-2.39 1.313 0 .671.812.89 1.328.89.453 0 .937-.203 1.156-.656 0 .344.281.61.61.61.406 0 .734-.298.734-.72v-.468h-.25v.39c0 .204-.031.5-.281.5s-.282-.296-.282-.468v-1.641c0-.797-.812-1.172-1.515-1.172-.422 0-1.235.125-1.235.766 0 .172.11.375.344.375.266 0 .406-.156.406-.36 0-.171-.093-.328-.296-.359Zm1.671 1.203v.781c0 .563-.421.985-.968.985-.36 0-.735-.235-.766-.61v-.046c0-.86 1.078-1.063 1.734-1.11Zm0 0"/></symbol><symbol overflow="visible" id="h"><path style="stroke:none" d="M.266-3.422v.266H.39c.25 0 .484.015.484.39v2.157c0 .328-.203.343-.61.343v.25L.75-.03h.906l.563.015v-.25h-.281c-.25 0-.47-.03-.47-.328v-1.328c0-.578.313-1.375 1-1.375A.427.427 0 0 0 2.345-3c0 .219.187.36.36.36.202 0 .358-.172.358-.36 0-.344-.343-.516-.624-.516-.47 0-.938.422-1.016.844l-.016-.844-.39.032Zm0 0"/></symbol><symbol overflow="visible" id="i"><path style="stroke:none" d="M.938-1.828h2.437c.094 0 .14-.047.14-.14 0-.407-.109-.876-.406-1.157-.28-.297-.671-.422-1.078-.422-.937 0-1.797.703-1.797 1.781C.234-.859.954.078 2.11.078c.594 0 1.235-.375 1.391-.969.016-.015.016-.046.016-.062 0-.063-.047-.125-.11-.125-.156 0-.172.25-.25.36a1.175 1.175 0 0 1-.984.53c-.422 0-.828-.218-1.047-.609-.156-.312-.188-.672-.188-1.031Zm.015-.219c.078-.453.156-.937.625-1.172a.867.867 0 0 1 .438-.11c.515 0 .859.423.937 1 .016.095.016.188.031.282Zm0 0"/></symbol><symbol overflow="visible" id="j"><path style="stroke:none" d="M.344-6.11v.282h.344c.296 0 .562.031.562.39v4.75c0 .36-.297.407-.594.407H.344v.265h2.86V-.28h-.407c-.453 0-.735-.031-.735-.438v-2.203h.829c.296 0 .625.016.796.25.141.203.157.469.157.719v.078h.25V-4.25h-.25v.078c0 .453-.063.86-.656.953-.172.016-.329.016-.5.016h-.626V-5.5c0-.328.188-.328.376-.328H3.53c.469 0 1.047.016 1.39.36.345.359.391.905.454 1.374h.25l-.25-2.015Zm0 0"/></symbol><symbol overflow="visible" id="k"><path style="stroke:none" d="M.328-6.14v.28h.11c.312 0 .578.016.578.47v4.718c0 .375-.25.39-.641.39H.328v.266h2.016V-.28h-.235c-.234 0-.453-.047-.453-.36v-5.593Zm0 0"/></symbol><symbol overflow="visible" id="l"><path style="stroke:none" d="M.313-3.86v.266H.39c.25 0 .593.031.593.281.016.11.016.188.016.297v1.782c0 .28.016.53.14.78.266.438.813.548 1.282.548.5 0 .984-.297 1.14-.766l.016.766 1.328-.11V-.28H4.75c-.266 0-.531-.031-.531-.438v-3.25l-1.36.11v.265h.125c.282 0 .563.031.563.453v1.766C3.5-.797 3.14-.141 2.453-.141c-.36 0-.687-.078-.765-.546-.016-.172-.016-.329-.016-.5V-3.97Zm0 0"/></symbol><symbol overflow="visible" id="m"><path style="stroke:none" d="M.36-3.86v.266H.5c.297 0 .516.047.516.453v2.485c0 .36-.25.375-.688.375v.265h1.938V-.28h-.141c-.234 0-.469-.031-.469-.313v-3.375Zm.765-2.156c-.234.047-.422.235-.422.485s.219.468.485.468h.062a.474.474 0 0 0 .422-.468.477.477 0 0 0-.484-.485Zm0 0"/></symbol><symbol overflow="visible" id="n"><path style="stroke:none" d="M2.828-6.14v.28h.094c.36 0 .594.016.594.548v1.875a1.532 1.532 0 0 0-1.172-.532c-1.11 0-2.031.938-2.031 2.047C.313-.906 1.14.094 2.266.094c.421 0 .984-.203 1.218-.578v.578l1.36-.11V-.28h-.14c-.298 0-.548-.031-.548-.453v-5.5Zm-1.75 4.406v-.125c0-.72.188-1.875 1.313-1.875.468 0 1.109.343 1.109.906 0 .11-.016.219-.016.328v1.484c0 .11-.046.188-.109.282-.234.343-.64.593-1.063.593a1.14 1.14 0 0 1-.89-.453c-.25-.328-.297-.734-.344-1.14Zm0 0"/></symbol><symbol overflow="visible" id="o"><path style="stroke:none" d="M1.031-2.063h2.657c.109 0 .156-.046.156-.156 0-1.125-.703-1.797-1.64-1.797-1.095 0-1.954.954-1.954 2.047C.25-.875 1.125.094 2.344.094c.64 0 1.281-.453 1.469-1.078.015-.016.015-.063.015-.094a.107.107 0 0 0-.11-.11c-.171 0-.171.266-.265.391-.219.375-.656.64-1.094.64h-.062C1.828-.171 1.422-.5 1.219-.921c-.172-.36-.188-.75-.188-1.14Zm.016-.218c0-.594.25-1.281.906-1.485a.914.914 0 0 1 .203-.03c.781 0 1.063.796 1.063 1.515Zm0 0"/></symbol><symbol overflow="visible" id="p"><path style="stroke:none" d="M1.094-3.484c.25-.22.61-.313.937-.313.313 0 .594.172.781.438.172.25.172.53.172.828v.156c-.734.078-1.468.078-2.093.547-.297.219-.516.578-.516.937 0 .735.875.985 1.469.985.547 0 .968-.281 1.218-.75.079.375.297.703.704.703.546 0 .78-.453.78-.953v-.406h-.25v.453c0 .25-.046.593-.327.593-.297 0-.313-.39-.313-.593v-1.75c0-.938-.812-1.407-1.61-1.407-.562 0-1.39.235-1.39.938 0 .25.14.437.469.437.219-.015.36-.218.36-.421 0-.25-.188-.376-.391-.422Zm1.89 1.328v.875c0 .625-.437 1.14-1.062 1.14h-.063c-.421-.03-.75-.359-.75-.75 0-.859 1.032-1.265 1.875-1.265Zm0 0"/></symbol><symbol overflow="visible" id="q"><path style="stroke:none" d="M.266-3.86v.266h.14c.281 0 .547.031.547.453v2.485c0 .36-.234.375-.687.375v.265L.89-.03h1.562v-.25h-.297c-.312 0-.562-.047-.562-.375v-1.516c.062-.625.234-1.562 1.14-1.562-.125.062-.171.203-.171.328a.39.39 0 1 0 .78 0c0-.375-.359-.563-.687-.563-.547 0-.984.469-1.11.969v-.969Zm0 0"/></symbol><symbol overflow="visible" id="r"><path style="stroke:none" d="M.266-3.86v.266h.171c.266 0 .516.031.516.39v4.282c0 .375-.265.375-.687.375v.281l.64-.03h1.406v-.25h-.218c-.25 0-.469-.032-.469-.36V-.438c.297.329.656.532 1.125.532 1.078 0 2.063-.875 2.063-2.031 0-1.016-.797-2.032-1.938-2.032-.5 0-.953.219-1.281.563v-.563Zm3.75 2.063C3.984-1.094 3.562-.14 2.672-.14c-.469 0-1.047-.453-1.047-.843v-1.47c0-.124-.016-.233-.016-.343 0-.5.657-.922 1.172-.922.844 0 1.25 1.063 1.25 1.75 0 .047 0 .11-.015.172Zm0 0"/></symbol><symbol overflow="visible" id="s"><path style="stroke:none" d="M2.172-4.016c-1.047.11-1.906.954-1.906 2.094C.266-1 .953.094 2.312.094c1.047 0 2.032-.844 2.032-2 0-1.078-.844-2.125-2.047-2.125-.047 0-.078.015-.125.015ZM1.047-1.719v-.375c0-.719.219-1.703 1.266-1.703.703 0 1.156.563 1.234 1.281.015.188.015.375.015.563 0 .469-.03 1-.359 1.375a1.19 1.19 0 0 1-.906.422c-.656 0-1.11-.5-1.235-1.219 0-.11 0-.219-.015-.344Zm0 0"/></symbol><symbol overflow="visible" id="t"><path style="stroke:none" d="M.813-.313c.296.297.656.407 1.046.407.735 0 1.454-.375 1.454-1.25v-.094c-.032-.516-.422-.89-.876-1.063a3.528 3.528 0 0 0-.703-.156c-.375-.078-.968-.187-.968-.703 0-.515.656-.656 1.03-.656.579 0 .985.344 1.032.969 0 .078.016.171.125.171.063 0 .125-.03.125-.109v-1.078c0-.063-.015-.14-.094-.14-.14 0-.234.218-.343.218h-.016c-.063-.015-.125-.062-.188-.094-.187-.093-.421-.125-.64-.125-.625 0-1.484.204-1.484 1.125 0 .907 1.046 1.047 1.687 1.172.39.078.828.313.86.75 0 .64-.532.828-1.016.828h-.078C1.109-.17.75-.656.594-1.28c-.031-.094-.031-.25-.156-.25-.11 0-.126.078-.126.156v1.156c0 .047-.015.078-.015.125 0 .094.016.188.11.188.093 0 .156-.11.218-.172l.031-.047c.063-.063.11-.11.156-.188Zm0 0"/></symbol><symbol overflow="visible" id="u"><path style="stroke:none" d="M4.86-5.328c-.016.016-.407.375-.407.516 0 .109.078.187.188.187.093 0 .14-.063.171-.11.11-.124.313-.374.72-.577.093-.047.187-.094.187-.22 0-.093-.094-.14-.125-.187a.8.8 0 0 1-.39-.484c-.032-.11-.079-.219-.204-.219a.193.193 0 0 0-.188.203c0 .157.172.453.204.5H1.969c-.14 0-.328 0-.328.188 0 .203.171.203.328.203Zm0 0"/></symbol><symbol overflow="visible" id="v"><path style="stroke:none" d="M4.375-3.531c0-.14-.125-.25-.281-.25-.157 0-.344.11-.39.36-.204-.345-.485-.548-.845-.548-1.093 0-2.203 1.281-2.203 2.531C.656-.594 1.187 0 1.906 0c.407 0 .766-.219 1.063-.5C2.859 0 2.703.594 2.64.766c-.047.093-.375.843-1.282.843-.171 0-.468 0-.687-.062C.844 1.469 1 1.28 1 1.078 1 .891.844.766.656.766c-.203 0-.5.156-.5.53 0 .438.5.548 1.219.548 1.156 0 1.828-.672 1.969-1.25Zm-1.234 2.36c-.032.171-.047.187-.188.359-.453.515-.844.593-1.015.593-.438 0-.594-.437-.594-.844 0-.343.203-1.343.484-1.875.219-.421.625-.796 1.031-.796.579 0 .735.671.735.75 0 .03-.031.093-.031.14Zm0 0"/></symbol><symbol overflow="visible" id="dG"><path style="stroke:none" d="M5.86-6.078c.03-.094.03-.125.03-.14 0-.016 0-.11-.109-.11-.047 0-.047.016-.156.14-.125.141-.016.016-.438.5-.328-.5-.843-.64-1.328-.64-1.156 0-2.25 1.031-2.25 2.11 0 .374.125.671.36.921.25.281.484.328 1.125.5l.75.188c.297.093.594.375.594.89 0 .797-.766 1.64-1.672 1.64-.516 0-1.594-.155-1.594-1.312 0-.078 0-.218.062-.484.016-.031.016-.047.016-.063 0-.03-.016-.093-.125-.093-.11 0-.125.047-.156.187L.5.094c0 .062.031.11.094.11C.64.203.656.187.766.062c.062-.063.312-.391.421-.5.47.593 1.297.64 1.563.64 1.234 0 2.313-1.156 2.313-2.297 0-1.11-.875-1.328-1.157-1.39l-.812-.22c-.297-.077-.844-.218-.844-.89 0-.687.719-1.484 1.61-1.484.359 0 .718.11.968.36.344.327.344.812.344 1.046 0 .297-.031.39-.031.469 0 .062.03.11.125.11.093 0 .093-.016.14-.188Zm0 0"/></symbol><symbol overflow="visible" id="dH"><path style="stroke:none" d="M1.688-1.406c.109-.422.28-1.078.28-1.157.016-.046.25-.484.563-.796.266-.235.61-.375.953-.375.485 0 .485.468.485.625 0 .546-.422 1.64-.516 1.921-.11.266-.14.36-.14.532 0 .484.359.75.765.75.86 0 1.219-1.282 1.219-1.375 0-.047-.031-.11-.125-.11s-.11.047-.14.157c-.22.765-.595 1.109-.923 1.109-.062 0-.218 0-.218-.281 0-.235.078-.469.156-.656.172-.47.531-1.407.531-1.922 0-.797-.594-.985-1.062-.985-.829 0-1.266.594-1.422.781a.84.84 0 0 0-.86-.78c-.375 0-.578.28-.703.53-.14.313-.265.813-.265.86 0 .078.062.11.125.11.093 0 .109-.048.156-.235.172-.703.36-1.031.656-1.031.281 0 .281.28.281.421 0 .188-.078.454-.125.688-.062.234-.156.625-.187.734L.812-.42C.75-.204.75-.189.75-.157c0 .11.078.25.266.25a.402.402 0 0 0 .328-.188c.031-.047.093-.344.14-.515Zm0 0"/></symbol><symbol overflow="visible" id="dF"><path style="stroke:none" d="M3.484-1.078c0 .156 0 .187-.125.375a1.3 1.3 0 0 1-1.046.578c-.391 0-.75-.219-.985-.594-.234-.39-.25-.906-.25-1.203 0-.422.047-.89.281-1.25a1.262 1.262 0 0 1 1.047-.562c.375 0 .735.187.969.53.11.142.11.142.11.313Zm.032-2.36c-.047-.046-.454-.53-1.141-.53-1.11 0-2.063.89-2.063 2.046 0 1.11.891 2.016 1.954 2.016A1.59 1.59 0 0 0 3.484-.47v.563L4.844 0v-.281c-.61 0-.688-.063-.688-.5V-6.22l-1.328.094v.281c.61 0 .688.063.688.5Zm0 0"/></symbol><symbol overflow="visible" id="dK"><path style="stroke:none" d="M2.063-5.828h2.78v5.125c0 .328-.015.422-.702.422h-.22V0c.407-.031.907-.031 1.329-.031.406 0 .906 0 1.313.031v-.281h-.204c-.687 0-.703-.094-.703-.422v-4.688c0-.328.016-.437.703-.437h.204v-.266H.343v.266h.204c.687 0 .703.11.703.437v4.688c0 .328-.016.422-.703.422H.344V0c.406-.031.906-.031 1.312-.031.422 0 .922 0 1.328.031v-.281h-.218c-.688 0-.704-.094-.704-.422Zm0 0"/></symbol><symbol overflow="visible" id="dI"><path style="stroke:none" d="M6.047-2.047c.172 0 .344 0 .344-.203 0-.188-.188-.188-.344-.188H1.109c-.156 0-.343 0-.343.188 0 .203.171.203.343.203Zm0 0"/></symbol><symbol overflow="visible" id="dJ"><path style="stroke:none" d="M7.625-2.047c-1.063.75-1.281 1.938-1.281 2.031 0 .125.125.125.187.125.11 0 .172 0 .203-.125.25-1.046.86-1.75 1.844-2.109.047-.016.125-.047.125-.125s-.062-.094-.125-.125c-1.125-.422-1.64-1.219-1.844-2.094-.03-.125-.062-.125-.203-.125-.078 0-.187 0-.187.125 0 .094.218 1.282 1.281 2.032H.844c-.156 0-.328 0-.328.187 0 .203.171.203.328.203Zm0 0"/></symbol><linearGradient id="b" gradientUnits="userSpaceOnUse" x1="0" y1="25.003" x2="0" y2="74.997" gradientTransform="matrix(1.9845 0 0 -2.22264 -44.438 171.87)"><stop offset="0" style="stop-color:gray;stop-opacity:1"/><stop offset=".008" style="stop-color:gray;stop-opacity:1"/><stop offset=".016" style="stop-color:#818181;stop-opacity:1"/><stop offset=".023" style="stop-color:#828282;stop-opacity:1"/><stop offset=".031" style="stop-color:#838383;stop-opacity:1"/><stop offset=".039" style="stop-color:#848484;stop-opacity:1"/><stop offset=".047" style="stop-color:#858585;stop-opacity:1"/><stop offset=".055" style="stop-color:#868686;stop-opacity:1"/><stop offset=".063" style="stop-color:#878787;stop-opacity:1"/><stop offset=".07" style="stop-color:#888;stop-opacity:1"/><stop offset=".078" style="stop-color:#898989;stop-opacity:1"/><stop offset=".086" style="stop-color:#8a8a8a;stop-opacity:1"/><stop offset=".094" style="stop-color:#8b8b8b;stop-opacity:1"/><stop offset=".102" style="stop-color:#8c8c8c;stop-opacity:1"/><stop offset=".109" style="stop-color:#8d8d8d;stop-opacity:1"/><stop offset=".117" style="stop-color:#8e8e8e;stop-opacity:1"/><stop offset=".125" style="stop-color:#8f8f8f;stop-opacity:1"/><stop offset=".133" style="stop-color:#909090;stop-opacity:1"/><stop offset=".141" style="stop-color:#919191;stop-opacity:1"/><stop offset=".148" style="stop-color:#929292;stop-opacity:1"/><stop offset=".156" style="stop-color:#939393;stop-opacity:1"/><stop offset=".164" style="stop-color:#949494;stop-opacity:1"/><stop offset=".172" style="stop-color:#959595;stop-opacity:1"/><stop offset=".18" style="stop-color:#969696;stop-opacity:1"/><stop offset=".188" style="stop-color:#979797;stop-opacity:1"/><stop offset=".195" style="stop-color:#989898;stop-opacity:1"/><stop offset=".203" style="stop-color:#999;stop-opacity:1"/><stop offset=".211" style="stop-color:#9a9a9a;stop-opacity:1"/><stop offset=".219" style="stop-color:#9b9b9b;stop-opacity:1"/><stop offset=".227" style="stop-color:#9c9c9c;stop-opacity:1"/><stop offset=".234" style="stop-color:#9d9d9d;stop-opacity:1"/><stop offset=".242" style="stop-color:#9e9e9e;stop-opacity:1"/><stop offset=".25" style="stop-color:#9f9f9f;stop-opacity:1"/><stop offset=".258" style="stop-color:#a0a0a0;stop-opacity:1"/><stop offset=".266" style="stop-color:#a1a1a1;stop-opacity:1"/><stop offset=".273" style="stop-color:#a2a2a2;stop-opacity:1"/><stop offset=".281" style="stop-color:#a3a3a3;stop-opacity:1"/><stop offset=".289" style="stop-color:#a4a4a4;stop-opacity:1"/><stop offset=".297" style="stop-color:#a5a5a5;stop-opacity:1"/><stop offset=".305" style="stop-color:#a6a6a6;stop-opacity:1"/><stop offset=".313" style="stop-color:#a7a7a7;stop-opacity:1"/><stop offset=".32" style="stop-color:#a8a8a8;stop-opacity:1"/><stop offset=".328" style="stop-color:#a9a9a9;stop-opacity:1"/><stop offset=".336" style="stop-color:#aaa;stop-opacity:1"/><stop offset=".344" style="stop-color:#ababab;stop-opacity:1"/><stop offset=".352" style="stop-color:#acacac;stop-opacity:1"/><stop offset=".359" style="stop-color:#adadad;stop-opacity:1"/><stop offset=".367" style="stop-color:#aeaeae;stop-opacity:1"/><stop offset=".375" style="stop-color:#afafaf;stop-opacity:1"/><stop offset=".383" style="stop-color:#b0b0b0;stop-opacity:1"/><stop offset=".391" style="stop-color:#b1b1b1;stop-opacity:1"/><stop offset=".398" style="stop-color:#b2b2b2;stop-opacity:1"/><stop offset=".406" style="stop-color:#b3b3b3;stop-opacity:1"/><stop offset=".414" style="stop-color:#b4b4b4;stop-opacity:1"/><stop offset=".422" style="stop-color:#b5b5b5;stop-opacity:1"/><stop offset=".43" style="stop-color:#b6b6b6;stop-opacity:1"/><stop offset=".438" style="stop-color:#b7b7b7;stop-opacity:1"/><stop offset=".445" style="stop-color:#b8b8b8;stop-opacity:1"/><stop offset=".453" style="stop-color:#b9b9b9;stop-opacity:1"/><stop offset=".461" style="stop-color:#bababa;stop-opacity:1"/><stop offset=".469" style="stop-color:#bbb;stop-opacity:1"/><stop offset=".477" style="stop-color:#bcbcbc;stop-opacity:1"/><stop offset=".484" style="stop-color:#bdbdbd;stop-opacity:1"/><stop offset=".492" style="stop-color:#bebebe;stop-opacity:1"/><stop offset=".5" style="stop-color:#bfbfbf;stop-opacity:1"/><stop offset=".508" style="stop-color:silver;stop-opacity:1"/><stop offset=".516" style="stop-color:#c1c1c1;stop-opacity:1"/><stop offset=".523" style="stop-color:#c2c2c2;stop-opacity:1"/><stop offset=".531" style="stop-color:#c3c3c3;stop-opacity:1"/><stop offset=".539" style="stop-color:#c4c4c4;stop-opacity:1"/><stop offset=".547" style="stop-color:#c5c5c5;stop-opacity:1"/><stop offset=".555" style="stop-color:#c6c6c6;stop-opacity:1"/><stop offset=".563" style="stop-color:#c7c7c7;stop-opacity:1"/><stop offset=".57" style="stop-color:#c8c8c8;stop-opacity:1"/><stop offset=".578" style="stop-color:#c9c9c9;stop-opacity:1"/><stop offset=".586" style="stop-color:#cacaca;stop-opacity:1"/><stop offset=".594" style="stop-color:#cbcbcb;stop-opacity:1"/><stop offset=".602" style="stop-color:#ccc;stop-opacity:1"/><stop offset=".609" style="stop-color:#cdcdcd;stop-opacity:1"/><stop offset=".617" style="stop-color:#cecece;stop-opacity:1"/><stop offset=".625" style="stop-color:#cfcfcf;stop-opacity:1"/><stop offset=".633" style="stop-color:#d0d0d0;stop-opacity:1"/><stop offset=".641" style="stop-color:#d1d1d1;stop-opacity:1"/><stop offset=".648" style="stop-color:#d2d2d2;stop-opacity:1"/><stop offset=".656" style="stop-color:#d3d3d3;stop-opacity:1"/><stop offset=".664" style="stop-color:#d4d4d4;stop-opacity:1"/><stop offset=".672" style="stop-color:#d5d5d5;stop-opacity:1"/><stop offset=".68" style="stop-color:#d6d6d6;stop-opacity:1"/><stop offset=".688" style="stop-color:#d7d7d7;stop-opacity:1"/><stop offset=".695" style="stop-color:#d8d8d8;stop-opacity:1"/><stop offset=".703" style="stop-color:#d9d9d9;stop-opacity:1"/><stop offset=".711" style="stop-color:#dadada;stop-opacity:1"/><stop offset=".719" style="stop-color:#dbdbdb;stop-opacity:1"/><stop offset=".727" style="stop-color:#dcdcdc;stop-opacity:1"/><stop offset=".734" style="stop-color:#ddd;stop-opacity:1"/><stop offset=".742" style="stop-color:#dedede;stop-opacity:1"/><stop offset=".75" style="stop-color:#dfdfdf;stop-opacity:1"/><stop offset=".758" style="stop-color:#e0e0e0;stop-opacity:1"/><stop offset=".766" style="stop-color:#e1e1e1;stop-opacity:1"/><stop offset=".773" style="stop-color:#e2e2e2;stop-opacity:1"/><stop offset=".781" style="stop-color:#e3e3e3;stop-opacity:1"/><stop offset=".789" style="stop-color:#e4e4e4;stop-opacity:1"/><stop offset=".797" style="stop-color:#e5e5e5;stop-opacity:1"/><stop offset=".805" style="stop-color:#e6e6e6;stop-opacity:1"/><stop offset=".813" style="stop-color:#e7e7e7;stop-opacity:1"/><stop offset=".82" style="stop-color:#e8e8e8;stop-opacity:1"/><stop offset=".828" style="stop-color:#e9e9e9;stop-opacity:1"/><stop offset=".836" style="stop-color:#eaeaea;stop-opacity:1"/><stop offset=".844" style="stop-color:#ebebeb;stop-opacity:1"/><stop offset=".852" style="stop-color:#ececec;stop-opacity:1"/><stop offset=".859" style="stop-color:#ededed;stop-opacity:1"/><stop offset=".867" style="stop-color:#eee;stop-opacity:1"/><stop offset=".875" style="stop-color:#efefef;stop-opacity:1"/><stop offset=".883" style="stop-color:#f0f0f0;stop-opacity:1"/><stop offset=".891" style="stop-color:#f1f1f1;stop-opacity:1"/><stop offset=".898" style="stop-color:#f2f2f2;stop-opacity:1"/><stop offset=".906" style="stop-color:#f3f3f3;stop-opacity:1"/><stop offset=".914" style="stop-color:#f4f4f4;stop-opacity:1"/><stop offset=".922" style="stop-color:#f5f5f5;stop-opacity:1"/><stop offset=".93" style="stop-color:#f6f6f6;stop-opacity:1"/><stop offset=".938" style="stop-color:#f7f7f7;stop-opacity:1"/><stop offset=".945" style="stop-color:#f8f8f8;stop-opacity:1"/><stop offset=".953" style="stop-color:#f9f9f9;stop-opacity:1"/><stop offset=".961" style="stop-color:#fafafa;stop-opacity:1"/><stop offset=".969" style="stop-color:#fbfbfb;stop-opacity:1"/><stop offset=".977" style="stop-color:#fcfcfc;stop-opacity:1"/><stop offset=".984" style="stop-color:#fcfcfc;stop-opacity:1"/><stop offset=".992" style="stop-color:#fdfdfd;stop-opacity:1"/><stop offset="1" style="stop-color:#fefefe;stop-opacity:1"/></linearGradient></defs><g clip-path="url(#a)"><path style="stroke:none;fill-rule:nonzero;fill:url(#b)" d="M5.18 116.297V5.18h99.215v111.117Zm0 0"/></g><path style="fill:none;stroke-width:.3985;stroke-linecap:butt;stroke-linejoin:miter;stroke:gray;stroke-opacity:1;stroke-miterlimit:10" d="M-49.607 111.118V.001h99.215v111.117Zm0 0" transform="matrix(1 0 0 -1 54.787 116.298)"/><path style="fill:none;stroke-width:.3985;stroke-linecap:butt;stroke-linejoin:miter;stroke:#000;stroke-opacity:1;stroke-dasharray:2.98883,2.98883;stroke-miterlimit:10" d="M-49.607 99.212h99.215" transform="matrix(1 0 0 -1 54.787 116.298)"/><g style="fill:#000;fill-opacity:1"><use xlink:href="#c" x="91.083" y="15.094"/><use xlink:href="#d" x="94.132" y="15.094"/><use xlink:href="#e" x="97.471" y="15.094"/><use xlink:href="#f" x="101.704" y="15.094"/><use xlink:href="#g" x="106.407" y="15.094"/><use xlink:href="#h" x="110.64" y="15.094"/><use xlink:href="#i" x="113.94" y="15.094"/></g><path style="fill:none;stroke-width:.3985;stroke-linecap:butt;stroke-linejoin:miter;stroke:#000;stroke-opacity:1;stroke-dasharray:2.98883,2.98883;stroke-miterlimit:10" d="M-49.607 79.372h99.215M-49.607 59.528h99.215M-49.607 39.685h99.215M-49.607 19.841h99.215" transform="matrix(1 0 0 -1 54.787 116.298)"/><g style="fill:#000;fill-opacity:1"><use xlink:href="#j" x="29.828" y="112.563"/><use xlink:href="#k" x="35.842" y="112.563"/><use xlink:href="#l" x="38.401" y="112.563"/><use xlink:href="#m" x="43.519" y="112.563"/><use xlink:href="#n" x="46.078" y="112.563"/><use xlink:href="#o" x="51.196" y="112.563"/></g><g style="fill:#000;fill-opacity:1"><use xlink:href="#p" x="58.37" y="112.563"/><use xlink:href="#l" x="62.977" y="112.563"/></g><g style="fill:#000;fill-opacity:1"><use xlink:href="#q" x="71.161" y="112.563"/><use xlink:href="#o" x="74.765" y="112.563"/><use xlink:href="#r" x="78.863" y="112.563"/></g><g style="fill:#000;fill-opacity:1"><use xlink:href="#s" x="84.241" y="112.563"/><use xlink:href="#t" x="88.848" y="112.563"/></g><path style="fill:none;stroke-width:.79701;stroke-linecap:butt;stroke-linejoin:miter;stroke:#000;stroke-opacity:1;stroke-miterlimit:10" d="M39.686 39.685v-7.332" transform="matrix(1 0 0 -1 54.787 116.298)"/><path style="stroke:none;fill-rule:nonzero;fill:#000;fill-opacity:1" d="m94.473 86.535 2.07-4.144-2.07 1.554-2.075-1.554"/><use xlink:href="#u" x="96.085" y="83.91" style="fill:#000;fill-opacity:1"/><use xlink:href="#v" x="96.461" y="83.91" style="fill:#000;fill-opacity:1"/><path style="stroke:none;fill-rule:nonzero;fill:#fff;fill-opacity:1" d="M54.785 66.691c1.985-3.968 25.797-5.953 19.844 0-5.953 5.954-.992 16.868 0 19.844 3.969 11.906-17.86 3.969-19.844 0-1.984-2.976-3.965-11.906 0-19.844"/><g clip-path="url(#w)"><g clip-path="url(#x)"><path style="fill:none;stroke-width:.3985;stroke-linecap:butt;stroke-linejoin:miter;stroke:#000;stroke-opacity:1;stroke-miterlimit:10" d="m-.002.001 3.09 3.086" transform="matrix(1 0 0 -1 50.81 94.58)"/></g></g><g clip-path="url(#y)"><g clip-path="url(#z)"><path style="fill:none;stroke-width:.3985;stroke-linecap:butt;stroke-linejoin:miter;stroke:#000;stroke-opacity:1;stroke-miterlimit:10" d="m.002.001 3.086 3.086" transform="matrix(1 0 0 -1 53.799 94.58)"/></g></g><g clip-path="url(#A)"><g clip-path="url(#B)"><path style="fill:none;stroke-width:.3985;stroke-linecap:butt;stroke-linejoin:miter;stroke:#000;stroke-opacity:1;stroke-miterlimit:10" d="m.001.001 3.086 3.086" transform="matrix(1 0 0 -1 56.788 94.58)"/></g></g><g clip-path="url(#C)"><g clip-path="url(#D)"><path style="fill:none;stroke-width:.3985;stroke-linecap:butt;stroke-linejoin:miter;stroke:#000;stroke-opacity:1;stroke-miterlimit:10" d="m0 .001 3.087 3.086" transform="matrix(1 0 0 -1 59.777 94.58)"/></g></g><g clip-path="url(#E)"><g clip-path="url(#F)"><path style="fill:none;stroke-width:.3985;stroke-linecap:butt;stroke-linejoin:miter;stroke:#000;stroke-opacity:1;stroke-miterlimit:10" d="m0 .001 3.09 3.086" transform="matrix(1 0 0 -1 62.765 94.58)"/></g></g><g clip-path="url(#G)"><g clip-path="url(#H)"><path style="fill:none;stroke-width:.3985;stroke-linecap:butt;stroke-linejoin:miter;stroke:#000;stroke-opacity:1;stroke-miterlimit:10" d="m0 .001 3.09 3.086" transform="matrix(1 0 0 -1 65.754 94.58)"/></g></g><g clip-path="url(#I)"><g clip-path="url(#J)"><path style="fill:none;stroke-width:.3985;stroke-linecap:butt;stroke-linejoin:miter;stroke:#000;stroke-opacity:1;stroke-miterlimit:10" d="m0 .001 3.089 3.086" transform="matrix(1 0 0 -1 68.743 94.58)"/></g></g><g clip-path="url(#K)"><g clip-path="url(#L)"><path style="fill:none;stroke-width:.3985;stroke-linecap:butt;stroke-linejoin:miter;stroke:#000;stroke-opacity:1;stroke-miterlimit:10" d="m-.001.001 3.09 3.086" transform="matrix(1 0 0 -1 71.732 94.58)"/></g></g><g clip-path="url(#M)"><g clip-path="url(#N)"><path style="fill:none;stroke-width:.3985;stroke-linecap:butt;stroke-linejoin:miter;stroke:#000;stroke-opacity:1;stroke-miterlimit:10" d="m.002.001 3.086 3.086" transform="matrix(1 0 0 -1 74.72 94.58)"/></g></g><g clip-path="url(#O)"><g clip-path="url(#P)"><path style="fill:none;stroke-width:.3985;stroke-linecap:butt;stroke-linejoin:miter;stroke:#000;stroke-opacity:1;stroke-miterlimit:10" d="m-.002 0 3.09 3.087" transform="matrix(1 0 0 -1 50.81 91.59)"/></g></g><g clip-path="url(#Q)"><g clip-path="url(#R)"><path style="fill:none;stroke-width:.3985;stroke-linecap:butt;stroke-linejoin:miter;stroke:#000;stroke-opacity:1;stroke-miterlimit:10" d="m.002 0 3.086 3.087" transform="matrix(1 0 0 -1 53.799 91.59)"/></g></g><g clip-path="url(#S)"><g clip-path="url(#T)"><path style="fill:none;stroke-width:.3985;stroke-linecap:butt;stroke-linejoin:miter;stroke:#000;stroke-opacity:1;stroke-miterlimit:10" d="m.001 0 3.086 3.087" transform="matrix(1 0 0 -1 56.788 91.59)"/></g></g><g clip-path="url(#U)"><g clip-path="url(#V)"><path style="fill:none;stroke-width:.3985;stroke-linecap:butt;stroke-linejoin:miter;stroke:#000;stroke-opacity:1;stroke-miterlimit:10" d="m0 0 3.087 3.087" transform="matrix(1 0 0 -1 59.777 91.59)"/></g></g><g clip-path="url(#W)"><g clip-path="url(#X)"><path style="fill:none;stroke-width:.3985;stroke-linecap:butt;stroke-linejoin:miter;stroke:#000;stroke-opacity:1;stroke-miterlimit:10" d="m0 0 3.09 3.087" transform="matrix(1 0 0 -1 62.765 91.59)"/></g></g><g clip-path="url(#Y)"><g clip-path="url(#Z)"><path style="fill:none;stroke-width:.3985;stroke-linecap:butt;stroke-linejoin:miter;stroke:#000;stroke-opacity:1;stroke-miterlimit:10" d="m0 0 3.09 3.087" transform="matrix(1 0 0 -1 65.754 91.59)"/></g></g><g clip-path="url(#aa)"><g clip-path="url(#ab)"><path style="fill:none;stroke-width:.3985;stroke-linecap:butt;stroke-linejoin:miter;stroke:#000;stroke-opacity:1;stroke-miterlimit:10" d="m0 0 3.089 3.087" transform="matrix(1 0 0 -1 68.743 91.59)"/></g></g><g clip-path="url(#ac)"><g clip-path="url(#ad)"><path style="fill:none;stroke-width:.3985;stroke-linecap:butt;stroke-linejoin:miter;stroke:#000;stroke-opacity:1;stroke-miterlimit:10" d="m-.001 0 3.09 3.087" transform="matrix(1 0 0 -1 71.732 91.59)"/></g></g><g clip-path="url(#ae)"><g clip-path="url(#af)"><path style="fill:none;stroke-width:.3985;stroke-linecap:butt;stroke-linejoin:miter;stroke:#000;stroke-opacity:1;stroke-miterlimit:10" d="m.002 0 3.086 3.087" transform="matrix(1 0 0 -1 74.72 91.59)"/></g></g><g clip-path="url(#ag)"><g clip-path="url(#ah)"><path style="fill:none;stroke-width:.3985;stroke-linecap:butt;stroke-linejoin:miter;stroke:#000;stroke-opacity:1;stroke-miterlimit:10" d="m-.002 0 3.09 3.09" transform="matrix(1 0 0 -1 50.81 88.602)"/></g></g><g clip-path="url(#ai)"><g clip-path="url(#aj)"><path style="fill:none;stroke-width:.3985;stroke-linecap:butt;stroke-linejoin:miter;stroke:#000;stroke-opacity:1;stroke-miterlimit:10" d="m.002 0 3.086 3.09" transform="matrix(1 0 0 -1 53.799 88.602)"/></g></g><g clip-path="url(#ak)"><g clip-path="url(#al)"><path style="fill:none;stroke-width:.3985;stroke-linecap:butt;stroke-linejoin:miter;stroke:#000;stroke-opacity:1;stroke-miterlimit:10" d="m.001 0 3.086 3.09" transform="matrix(1 0 0 -1 56.788 88.602)"/></g></g><g clip-path="url(#am)"><g clip-path="url(#an)"><path style="fill:none;stroke-width:.3985;stroke-linecap:butt;stroke-linejoin:miter;stroke:#000;stroke-opacity:1;stroke-miterlimit:10" d="m0 0 3.087 3.09" transform="matrix(1 0 0 -1 59.777 88.602)"/></g></g><g clip-path="url(#ao)"><g clip-path="url(#ap)"><path style="fill:none;stroke-width:.3985;stroke-linecap:butt;stroke-linejoin:miter;stroke:#000;stroke-opacity:1;stroke-miterlimit:10" d="m0 0 3.09 3.09" transform="matrix(1 0 0 -1 62.765 88.602)"/></g></g><g clip-path="url(#aq)"><g clip-path="url(#ar)"><path style="fill:none;stroke-width:.3985;stroke-linecap:butt;stroke-linejoin:miter;stroke:#000;stroke-opacity:1;stroke-miterlimit:10" d="m0 0 3.09 3.09" transform="matrix(1 0 0 -1 65.754 88.602)"/></g></g><g clip-path="url(#as)"><g clip-path="url(#at)"><path style="fill:none;stroke-width:.3985;stroke-linecap:butt;stroke-linejoin:miter;stroke:#000;stroke-opacity:1;stroke-miterlimit:10" d="m0 0 3.089 3.09" transform="matrix(1 0 0 -1 68.743 88.602)"/></g></g><g clip-path="url(#au)"><g clip-path="url(#av)"><path style="fill:none;stroke-width:.3985;stroke-linecap:butt;stroke-linejoin:miter;stroke:#000;stroke-opacity:1;stroke-miterlimit:10" d="m-.001 0 3.09 3.09" transform="matrix(1 0 0 -1 71.732 88.602)"/></g></g><g clip-path="url(#aw)"><g clip-path="url(#ax)"><path style="fill:none;stroke-width:.3985;stroke-linecap:butt;stroke-linejoin:miter;stroke:#000;stroke-opacity:1;stroke-miterlimit:10" d="m.002 0 3.086 3.09" transform="matrix(1 0 0 -1 74.72 88.602)"/></g></g><g clip-path="url(#ay)"><g clip-path="url(#az)"><path style="fill:none;stroke-width:.3985;stroke-linecap:butt;stroke-linejoin:miter;stroke:#000;stroke-opacity:1;stroke-miterlimit:10" d="m-.002 0 3.09 3.09" transform="matrix(1 0 0 -1 50.81 85.613)"/></g></g><g clip-path="url(#aA)"><g clip-path="url(#aB)"><path style="fill:none;stroke-width:.3985;stroke-linecap:butt;stroke-linejoin:miter;stroke:#000;stroke-opacity:1;stroke-miterlimit:10" d="m.002 0 3.086 3.09" transform="matrix(1 0 0 -1 53.799 85.613)"/></g></g><g clip-path="url(#aC)"><g clip-path="url(#aD)"><path style="fill:none;stroke-width:.3985;stroke-linecap:butt;stroke-linejoin:miter;stroke:#000;stroke-opacity:1;stroke-miterlimit:10" d="m.001 0 3.086 3.09" transform="matrix(1 0 0 -1 56.788 85.613)"/></g></g><g clip-path="url(#aE)"><g clip-path="url(#aF)"><path style="fill:none;stroke-width:.3985;stroke-linecap:butt;stroke-linejoin:miter;stroke:#000;stroke-opacity:1;stroke-miterlimit:10" d="m0 0 3.087 3.09" transform="matrix(1 0 0 -1 59.777 85.613)"/></g></g><g clip-path="url(#aG)"><g clip-path="url(#aH)"><path style="fill:none;stroke-width:.3985;stroke-linecap:butt;stroke-linejoin:miter;stroke:#000;stroke-opacity:1;stroke-miterlimit:10" d="m0 0 3.09 3.09" transform="matrix(1 0 0 -1 62.765 85.613)"/></g></g><g clip-path="url(#aI)"><g clip-path="url(#aJ)"><path style="fill:none;stroke-width:.3985;stroke-linecap:butt;stroke-linejoin:miter;stroke:#000;stroke-opacity:1;stroke-miterlimit:10" d="m0 0 3.09 3.09" transform="matrix(1 0 0 -1 65.754 85.613)"/></g></g><g clip-path="url(#aK)"><g clip-path="url(#aL)"><path style="fill:none;stroke-width:.3985;stroke-linecap:butt;stroke-linejoin:miter;stroke:#000;stroke-opacity:1;stroke-miterlimit:10" d="m0 0 3.089 3.09" transform="matrix(1 0 0 -1 68.743 85.613)"/></g></g><g clip-path="url(#aM)"><g clip-path="url(#aN)"><path style="fill:none;stroke-width:.3985;stroke-linecap:butt;stroke-linejoin:miter;stroke:#000;stroke-opacity:1;stroke-miterlimit:10" d="m-.001 0 3.09 3.09" transform="matrix(1 0 0 -1 71.732 85.613)"/></g></g><g clip-path="url(#aO)"><g clip-path="url(#aP)"><path style="fill:none;stroke-width:.3985;stroke-linecap:butt;stroke-linejoin:miter;stroke:#000;stroke-opacity:1;stroke-miterlimit:10" d="m.002 0 3.086 3.09" transform="matrix(1 0 0 -1 74.72 85.613)"/></g></g><g clip-path="url(#aQ)"><g clip-path="url(#aR)"><path style="fill:none;stroke-width:.3985;stroke-linecap:butt;stroke-linejoin:miter;stroke:#000;stroke-opacity:1;stroke-miterlimit:10" d="m-.002 0 3.09 3.09" transform="matrix(1 0 0 -1 50.81 82.624)"/></g></g><g clip-path="url(#aS)"><g clip-path="url(#aT)"><path style="fill:none;stroke-width:.3985;stroke-linecap:butt;stroke-linejoin:miter;stroke:#000;stroke-opacity:1;stroke-miterlimit:10" d="m.002 0 3.086 3.09" transform="matrix(1 0 0 -1 53.799 82.624)"/></g></g><g clip-path="url(#aU)"><g clip-path="url(#aV)"><path style="fill:none;stroke-width:.3985;stroke-linecap:butt;stroke-linejoin:miter;stroke:#000;stroke-opacity:1;stroke-miterlimit:10" d="m.001 0 3.086 3.09" transform="matrix(1 0 0 -1 56.788 82.624)"/></g></g><g clip-path="url(#aW)"><g clip-path="url(#aX)"><path style="fill:none;stroke-width:.3985;stroke-linecap:butt;stroke-linejoin:miter;stroke:#000;stroke-opacity:1;stroke-miterlimit:10" d="m0 0 3.087 3.09" transform="matrix(1 0 0 -1 59.777 82.624)"/></g></g><g clip-path="url(#aY)"><g clip-path="url(#aZ)"><path style="fill:none;stroke-width:.3985;stroke-linecap:butt;stroke-linejoin:miter;stroke:#000;stroke-opacity:1;stroke-miterlimit:10" d="m0 0 3.09 3.09" transform="matrix(1 0 0 -1 62.765 82.624)"/></g></g><g clip-path="url(#ba)"><g clip-path="url(#bb)"><path style="fill:none;stroke-width:.3985;stroke-linecap:butt;stroke-linejoin:miter;stroke:#000;stroke-opacity:1;stroke-miterlimit:10" d="m0 0 3.09 3.09" transform="matrix(1 0 0 -1 65.754 82.624)"/></g></g><g clip-path="url(#bc)"><g clip-path="url(#bd)"><path style="fill:none;stroke-width:.3985;stroke-linecap:butt;stroke-linejoin:miter;stroke:#000;stroke-opacity:1;stroke-miterlimit:10" d="m0 0 3.089 3.09" transform="matrix(1 0 0 -1 68.743 82.624)"/></g></g><g clip-path="url(#be)"><g clip-path="url(#bf)"><path style="fill:none;stroke-width:.3985;stroke-linecap:butt;stroke-linejoin:miter;stroke:#000;stroke-opacity:1;stroke-miterlimit:10" d="m-.001 0 3.09 3.09" transform="matrix(1 0 0 -1 71.732 82.624)"/></g></g><g clip-path="url(#bg)"><g clip-path="url(#bh)"><path style="fill:none;stroke-width:.3985;stroke-linecap:butt;stroke-linejoin:miter;stroke:#000;stroke-opacity:1;stroke-miterlimit:10" d="m.002 0 3.086 3.09" transform="matrix(1 0 0 -1 74.72 82.624)"/></g></g><g clip-path="url(#bi)"><g clip-path="url(#bj)"><path style="fill:none;stroke-width:.3985;stroke-linecap:butt;stroke-linejoin:miter;stroke:#000;stroke-opacity:1;stroke-miterlimit:10" d="m-.002-.001 3.09 3.09" transform="matrix(1 0 0 -1 50.81 79.635)"/></g></g><g clip-path="url(#bk)"><g clip-path="url(#bl)"><path style="fill:none;stroke-width:.3985;stroke-linecap:butt;stroke-linejoin:miter;stroke:#000;stroke-opacity:1;stroke-miterlimit:10" d="m.002-.001 3.086 3.09" transform="matrix(1 0 0 -1 53.799 79.635)"/></g></g><g clip-path="url(#bm)"><g clip-path="url(#bn)"><path style="fill:none;stroke-width:.3985;stroke-linecap:butt;stroke-linejoin:miter;stroke:#000;stroke-opacity:1;stroke-miterlimit:10" d="m.001-.001 3.086 3.09" transform="matrix(1 0 0 -1 56.788 79.635)"/></g></g><g clip-path="url(#bo)"><g clip-path="url(#bp)"><path style="fill:none;stroke-width:.3985;stroke-linecap:butt;stroke-linejoin:miter;stroke:#000;stroke-opacity:1;stroke-miterlimit:10" d="m0-.001 3.087 3.09" transform="matrix(1 0 0 -1 59.777 79.635)"/></g></g><g clip-path="url(#bq)"><g clip-path="url(#br)"><path style="fill:none;stroke-width:.3985;stroke-linecap:butt;stroke-linejoin:miter;stroke:#000;stroke-opacity:1;stroke-miterlimit:10" d="m0-.001 3.09 3.09" transform="matrix(1 0 0 -1 62.765 79.635)"/></g></g><g clip-path="url(#bs)"><g clip-path="url(#bt)"><path style="fill:none;stroke-width:.3985;stroke-linecap:butt;stroke-linejoin:miter;stroke:#000;stroke-opacity:1;stroke-miterlimit:10" d="m0-.001 3.09 3.09" transform="matrix(1 0 0 -1 65.754 79.635)"/></g></g><g clip-path="url(#bu)"><g clip-path="url(#bv)"><path style="fill:none;stroke-width:.3985;stroke-linecap:butt;stroke-linejoin:miter;stroke:#000;stroke-opacity:1;stroke-miterlimit:10" d="m0-.001 3.089 3.09" transform="matrix(1 0 0 -1 68.743 79.635)"/></g></g><g clip-path="url(#bw)"><g clip-path="url(#bx)"><path style="fill:none;stroke-width:.3985;stroke-linecap:butt;stroke-linejoin:miter;stroke:#000;stroke-opacity:1;stroke-miterlimit:10" d="m-.001-.001 3.09 3.09" transform="matrix(1 0 0 -1 71.732 79.635)"/></g></g><g clip-path="url(#by)"><g clip-path="url(#bz)"><path style="fill:none;stroke-width:.3985;stroke-linecap:butt;stroke-linejoin:miter;stroke:#000;stroke-opacity:1;stroke-miterlimit:10" d="m.002-.001 3.086 3.09" transform="matrix(1 0 0 -1 74.72 79.635)"/></g></g><g clip-path="url(#bA)"><g clip-path="url(#bB)"><path style="fill:none;stroke-width:.3985;stroke-linecap:butt;stroke-linejoin:miter;stroke:#000;stroke-opacity:1;stroke-miterlimit:10" d="m-.002-.002 3.09 3.09" transform="matrix(1 0 0 -1 50.81 76.647)"/></g></g><g clip-path="url(#bC)"><g clip-path="url(#bD)"><path style="fill:none;stroke-width:.3985;stroke-linecap:butt;stroke-linejoin:miter;stroke:#000;stroke-opacity:1;stroke-miterlimit:10" d="m.002-.002 3.086 3.09" transform="matrix(1 0 0 -1 53.799 76.647)"/></g></g><g clip-path="url(#bE)"><g clip-path="url(#bF)"><path style="fill:none;stroke-width:.3985;stroke-linecap:butt;stroke-linejoin:miter;stroke:#000;stroke-opacity:1;stroke-miterlimit:10" d="m.001-.002 3.086 3.09" transform="matrix(1 0 0 -1 56.788 76.647)"/></g></g><g clip-path="url(#bG)"><g clip-path="url(#bH)"><path style="fill:none;stroke-width:.3985;stroke-linecap:butt;stroke-linejoin:miter;stroke:#000;stroke-opacity:1;stroke-miterlimit:10" d="m0-.002 3.087 3.09" transform="matrix(1 0 0 -1 59.777 76.647)"/></g></g><g clip-path="url(#bI)"><g clip-path="url(#bJ)"><path style="fill:none;stroke-width:.3985;stroke-linecap:butt;stroke-linejoin:miter;stroke:#000;stroke-opacity:1;stroke-miterlimit:10" d="m0-.002 3.09 3.09" transform="matrix(1 0 0 -1 62.765 76.647)"/></g></g><g clip-path="url(#bK)"><g clip-path="url(#bL)"><path style="fill:none;stroke-width:.3985;stroke-linecap:butt;stroke-linejoin:miter;stroke:#000;stroke-opacity:1;stroke-miterlimit:10" d="m0-.002 3.09 3.09" transform="matrix(1 0 0 -1 65.754 76.647)"/></g></g><g clip-path="url(#bM)"><g clip-path="url(#bN)"><path style="fill:none;stroke-width:.3985;stroke-linecap:butt;stroke-linejoin:miter;stroke:#000;stroke-opacity:1;stroke-miterlimit:10" d="m0-.002 3.089 3.09" transform="matrix(1 0 0 -1 68.743 76.647)"/></g></g><g clip-path="url(#bO)"><g clip-path="url(#bP)"><path style="fill:none;stroke-width:.3985;stroke-linecap:butt;stroke-linejoin:miter;stroke:#000;stroke-opacity:1;stroke-miterlimit:10" d="m-.001-.002 3.09 3.09" transform="matrix(1 0 0 -1 71.732 76.647)"/></g></g><g clip-path="url(#bQ)"><g clip-path="url(#bR)"><path style="fill:none;stroke-width:.3985;stroke-linecap:butt;stroke-linejoin:miter;stroke:#000;stroke-opacity:1;stroke-miterlimit:10" d="m.002-.002 3.086 3.09" transform="matrix(1 0 0 -1 74.72 76.647)"/></g></g><g clip-path="url(#bS)"><g clip-path="url(#bT)"><path style="fill:none;stroke-width:.3985;stroke-linecap:butt;stroke-linejoin:miter;stroke:#000;stroke-opacity:1;stroke-miterlimit:10" d="m-.002.001 3.09 3.086" transform="matrix(1 0 0 -1 50.81 73.658)"/></g></g><g clip-path="url(#bU)"><g clip-path="url(#bV)"><path style="fill:none;stroke-width:.3985;stroke-linecap:butt;stroke-linejoin:miter;stroke:#000;stroke-opacity:1;stroke-miterlimit:10" d="m.002.001 3.086 3.086" transform="matrix(1 0 0 -1 53.799 73.658)"/></g></g><g clip-path="url(#bW)"><g clip-path="url(#bX)"><path style="fill:none;stroke-width:.3985;stroke-linecap:butt;stroke-linejoin:miter;stroke:#000;stroke-opacity:1;stroke-miterlimit:10" d="m.001.001 3.086 3.086" transform="matrix(1 0 0 -1 56.788 73.658)"/></g></g><g clip-path="url(#bY)"><g clip-path="url(#bZ)"><path style="fill:none;stroke-width:.3985;stroke-linecap:butt;stroke-linejoin:miter;stroke:#000;stroke-opacity:1;stroke-miterlimit:10" d="m0 .001 3.087 3.086" transform="matrix(1 0 0 -1 59.777 73.658)"/></g></g><g clip-path="url(#ca)"><g clip-path="url(#cb)"><path style="fill:none;stroke-width:.3985;stroke-linecap:butt;stroke-linejoin:miter;stroke:#000;stroke-opacity:1;stroke-miterlimit:10" d="m0 .001 3.09 3.086" transform="matrix(1 0 0 -1 62.765 73.658)"/></g></g><g clip-path="url(#cc)"><g clip-path="url(#cd)"><path style="fill:none;stroke-width:.3985;stroke-linecap:butt;stroke-linejoin:miter;stroke:#000;stroke-opacity:1;stroke-miterlimit:10" d="m0 .001 3.09 3.086" transform="matrix(1 0 0 -1 65.754 73.658)"/></g></g><g clip-path="url(#ce)"><g clip-path="url(#cf)"><path style="fill:none;stroke-width:.3985;stroke-linecap:butt;stroke-linejoin:miter;stroke:#000;stroke-opacity:1;stroke-miterlimit:10" d="m0 .001 3.089 3.086" transform="matrix(1 0 0 -1 68.743 73.658)"/></g></g><g clip-path="url(#cg)"><g clip-path="url(#ch)"><path style="fill:none;stroke-width:.3985;stroke-linecap:butt;stroke-linejoin:miter;stroke:#000;stroke-opacity:1;stroke-miterlimit:10" d="m-.001.001 3.09 3.086" transform="matrix(1 0 0 -1 71.732 73.658)"/></g></g><g clip-path="url(#ci)"><g clip-path="url(#cj)"><path style="fill:none;stroke-width:.3985;stroke-linecap:butt;stroke-linejoin:miter;stroke:#000;stroke-opacity:1;stroke-miterlimit:10" d="m.002.001 3.086 3.086" transform="matrix(1 0 0 -1 74.72 73.658)"/></g></g><g clip-path="url(#ck)"><g clip-path="url(#cl)"><path style="fill:none;stroke-width:.3985;stroke-linecap:butt;stroke-linejoin:miter;stroke:#000;stroke-opacity:1;stroke-miterlimit:10" d="m-.002 0 3.09 3.087" transform="matrix(1 0 0 -1 50.81 70.669)"/></g></g><g clip-path="url(#cm)"><g clip-path="url(#cn)"><path style="fill:none;stroke-width:.3985;stroke-linecap:butt;stroke-linejoin:miter;stroke:#000;stroke-opacity:1;stroke-miterlimit:10" d="m.002 0 3.086 3.087" transform="matrix(1 0 0 -1 53.799 70.669)"/></g></g><g clip-path="url(#co)"><g clip-path="url(#cp)"><path style="fill:none;stroke-width:.3985;stroke-linecap:butt;stroke-linejoin:miter;stroke:#000;stroke-opacity:1;stroke-miterlimit:10" d="m.001 0 3.086 3.087" transform="matrix(1 0 0 -1 56.788 70.669)"/></g></g><g clip-path="url(#cq)"><g clip-path="url(#cr)"><path style="fill:none;stroke-width:.3985;stroke-linecap:butt;stroke-linejoin:miter;stroke:#000;stroke-opacity:1;stroke-miterlimit:10" d="m0 0 3.087 3.087" transform="matrix(1 0 0 -1 59.777 70.669)"/></g></g><g clip-path="url(#cs)"><g clip-path="url(#ct)"><path style="fill:none;stroke-width:.3985;stroke-linecap:butt;stroke-linejoin:miter;stroke:#000;stroke-opacity:1;stroke-miterlimit:10" d="m0 0 3.09 3.087" transform="matrix(1 0 0 -1 62.765 70.669)"/></g></g><g clip-path="url(#cu)"><g clip-path="url(#cv)"><path style="fill:none;stroke-width:.3985;stroke-linecap:butt;stroke-linejoin:miter;stroke:#000;stroke-opacity:1;stroke-miterlimit:10" d="m0 0 3.09 3.087" transform="matrix(1 0 0 -1 65.754 70.669)"/></g></g><g clip-path="url(#cw)"><g clip-path="url(#cx)"><path style="fill:none;stroke-width:.3985;stroke-linecap:butt;stroke-linejoin:miter;stroke:#000;stroke-opacity:1;stroke-miterlimit:10" d="m0 0 3.089 3.087" transform="matrix(1 0 0 -1 68.743 70.669)"/></g></g><g clip-path="url(#cy)"><g clip-path="url(#cz)"><path style="fill:none;stroke-width:.3985;stroke-linecap:butt;stroke-linejoin:miter;stroke:#000;stroke-opacity:1;stroke-miterlimit:10" d="m-.001 0 3.09 3.087" transform="matrix(1 0 0 -1 71.732 70.669)"/></g></g><g clip-path="url(#cA)"><g clip-path="url(#cB)"><path style="fill:none;stroke-width:.3985;stroke-linecap:butt;stroke-linejoin:miter;stroke:#000;stroke-opacity:1;stroke-miterlimit:10" d="m.002 0 3.086 3.087" transform="matrix(1 0 0 -1 74.72 70.669)"/></g></g><g clip-path="url(#cC)"><g clip-path="url(#cD)"><path style="fill:none;stroke-width:.3985;stroke-linecap:butt;stroke-linejoin:miter;stroke:#000;stroke-opacity:1;stroke-miterlimit:10" d="m-.002 0 3.09 3.09" transform="matrix(1 0 0 -1 50.81 67.68)"/></g></g><g clip-path="url(#cE)"><g clip-path="url(#cF)"><path style="fill:none;stroke-width:.3985;stroke-linecap:butt;stroke-linejoin:miter;stroke:#000;stroke-opacity:1;stroke-miterlimit:10" d="m.002 0 3.086 3.09" transform="matrix(1 0 0 -1 53.799 67.68)"/></g></g><g clip-path="url(#cG)"><g clip-path="url(#cH)"><path style="fill:none;stroke-width:.3985;stroke-linecap:butt;stroke-linejoin:miter;stroke:#000;stroke-opacity:1;stroke-miterlimit:10" d="m.001 0 3.086 3.09" transform="matrix(1 0 0 -1 56.788 67.68)"/></g></g><g clip-path="url(#cI)"><g clip-path="url(#cJ)"><path style="fill:none;stroke-width:.3985;stroke-linecap:butt;stroke-linejoin:miter;stroke:#000;stroke-opacity:1;stroke-miterlimit:10" d="m0 0 3.087 3.09" transform="matrix(1 0 0 -1 59.777 67.68)"/></g></g><g clip-path="url(#cK)"><g clip-path="url(#cL)"><path style="fill:none;stroke-width:.3985;stroke-linecap:butt;stroke-linejoin:miter;stroke:#000;stroke-opacity:1;stroke-miterlimit:10" d="m0 0 3.09 3.09" transform="matrix(1 0 0 -1 62.765 67.68)"/></g></g><g clip-path="url(#cM)"><g clip-path="url(#cN)"><path style="fill:none;stroke-width:.3985;stroke-linecap:butt;stroke-linejoin:miter;stroke:#000;stroke-opacity:1;stroke-miterlimit:10" d="m0 0 3.09 3.09" transform="matrix(1 0 0 -1 65.754 67.68)"/></g></g><g clip-path="url(#cO)"><g clip-path="url(#cP)"><path style="fill:none;stroke-width:.3985;stroke-linecap:butt;stroke-linejoin:miter;stroke:#000;stroke-opacity:1;stroke-miterlimit:10" d="m0 0 3.089 3.09" transform="matrix(1 0 0 -1 68.743 67.68)"/></g></g><g clip-path="url(#cQ)"><g clip-path="url(#cR)"><path style="fill:none;stroke-width:.3985;stroke-linecap:butt;stroke-linejoin:miter;stroke:#000;stroke-opacity:1;stroke-miterlimit:10" d="m-.001 0 3.09 3.09" transform="matrix(1 0 0 -1 71.732 67.68)"/></g></g><g clip-path="url(#cS)"><g clip-path="url(#cT)"><path style="fill:none;stroke-width:.3985;stroke-linecap:butt;stroke-linejoin:miter;stroke:#000;stroke-opacity:1;stroke-miterlimit:10" d="m.002 0 3.086 3.09" transform="matrix(1 0 0 -1 74.72 67.68)"/></g></g><g clip-path="url(#cU)"><g clip-path="url(#cV)"><path style="fill:none;stroke-width:.3985;stroke-linecap:butt;stroke-linejoin:miter;stroke:#000;stroke-opacity:1;stroke-miterlimit:10" d="m-.002 0 3.09 3.09" transform="matrix(1 0 0 -1 50.81 64.691)"/></g></g><g clip-path="url(#cW)"><g clip-path="url(#cX)"><path style="fill:none;stroke-width:.3985;stroke-linecap:butt;stroke-linejoin:miter;stroke:#000;stroke-opacity:1;stroke-miterlimit:10" d="m.002 0 3.086 3.09" transform="matrix(1 0 0 -1 53.799 64.691)"/></g></g><g clip-path="url(#cY)"><g clip-path="url(#cZ)"><path style="fill:none;stroke-width:.3985;stroke-linecap:butt;stroke-linejoin:miter;stroke:#000;stroke-opacity:1;stroke-miterlimit:10" d="m.001 0 3.086 3.09" transform="matrix(1 0 0 -1 56.788 64.691)"/></g></g><g clip-path="url(#da)"><g clip-path="url(#db)"><path style="fill:none;stroke-width:.3985;stroke-linecap:butt;stroke-linejoin:miter;stroke:#000;stroke-opacity:1;stroke-miterlimit:10" d="m0 0 3.087 3.09" transform="matrix(1 0 0 -1 59.777 64.691)"/></g></g><g clip-path="url(#dc)"><g clip-path="url(#dd)"><path style="fill:none;stroke-width:.3985;stroke-linecap:butt;stroke-linejoin:miter;stroke:#000;stroke-opacity:1;stroke-miterlimit:10" d="m0 0 3.09 3.09" transform="matrix(1 0 0 -1 62.765 64.691)"/></g></g><g clip-path="url(#de)"><g clip-path="url(#df)"><path style="fill:none;stroke-width:.3985;stroke-linecap:butt;stroke-linejoin:miter;stroke:#000;stroke-opacity:1;stroke-miterlimit:10" d="m0 0 3.09 3.09" transform="matrix(1 0 0 -1 65.754 64.691)"/></g></g><g clip-path="url(#dg)"><g clip-path="url(#dh)"><path style="fill:none;stroke-width:.3985;stroke-linecap:butt;stroke-linejoin:miter;stroke:#000;stroke-opacity:1;stroke-miterlimit:10" d="m0 0 3.089 3.09" transform="matrix(1 0 0 -1 68.743 64.691)"/></g></g><g clip-path="url(#di)"><g clip-path="url(#dj)"><path style="fill:none;stroke-width:.3985;stroke-linecap:butt;stroke-linejoin:miter;stroke:#000;stroke-opacity:1;stroke-miterlimit:10" d="m-.001 0 3.09 3.09" transform="matrix(1 0 0 -1 71.732 64.691)"/></g></g><g clip-path="url(#dk)"><g clip-path="url(#dl)"><path style="fill:none;stroke-width:.3985;stroke-linecap:butt;stroke-linejoin:miter;stroke:#000;stroke-opacity:1;stroke-miterlimit:10" d="m.002 0 3.086 3.09" transform="matrix(1 0 0 -1 74.72 64.691)"/></g></g><g clip-path="url(#dm)"><g clip-path="url(#dn)"><path style="fill:none;stroke-width:.3985;stroke-linecap:butt;stroke-linejoin:miter;stroke:#000;stroke-opacity:1;stroke-miterlimit:10" d="m-.002 0 3.09 3.09" transform="matrix(1 0 0 -1 50.81 61.702)"/></g></g><g clip-path="url(#do)"><g clip-path="url(#dp)"><path style="fill:none;stroke-width:.3985;stroke-linecap:butt;stroke-linejoin:miter;stroke:#000;stroke-opacity:1;stroke-miterlimit:10" d="m.002 0 3.086 3.09" transform="matrix(1 0 0 -1 53.799 61.702)"/></g></g><g clip-path="url(#dq)"><g clip-path="url(#dr)"><path style="fill:none;stroke-width:.3985;stroke-linecap:butt;stroke-linejoin:miter;stroke:#000;stroke-opacity:1;stroke-miterlimit:10" d="m.001 0 3.086 3.09" transform="matrix(1 0 0 -1 56.788 61.702)"/></g></g><g clip-path="url(#ds)"><g clip-path="url(#dt)"><path style="fill:none;stroke-width:.3985;stroke-linecap:butt;stroke-linejoin:miter;stroke:#000;stroke-opacity:1;stroke-miterlimit:10" d="m0 0 3.087 3.09" transform="matrix(1 0 0 -1 59.777 61.702)"/></g></g><g clip-path="url(#du)"><g clip-path="url(#dv)"><path style="fill:none;stroke-width:.3985;stroke-linecap:butt;stroke-linejoin:miter;stroke:#000;stroke-opacity:1;stroke-miterlimit:10" d="m0 0 3.09 3.09" transform="matrix(1 0 0 -1 62.765 61.702)"/></g></g><g clip-path="url(#dw)"><g clip-path="url(#dx)"><path style="fill:none;stroke-width:.3985;stroke-linecap:butt;stroke-linejoin:miter;stroke:#000;stroke-opacity:1;stroke-miterlimit:10" d="m0 0 3.09 3.09" transform="matrix(1 0 0 -1 65.754 61.702)"/></g></g><g clip-path="url(#dy)"><g clip-path="url(#dz)"><path style="fill:none;stroke-width:.3985;stroke-linecap:butt;stroke-linejoin:miter;stroke:#000;stroke-opacity:1;stroke-miterlimit:10" d="m0 0 3.089 3.09" transform="matrix(1 0 0 -1 68.743 61.702)"/></g></g><g clip-path="url(#dA)"><g clip-path="url(#dB)"><path style="fill:none;stroke-width:.3985;stroke-linecap:butt;stroke-linejoin:miter;stroke:#000;stroke-opacity:1;stroke-miterlimit:10" d="m-.001 0 3.09 3.09" transform="matrix(1 0 0 -1 71.732 61.702)"/></g></g><g clip-path="url(#dC)"><g clip-path="url(#dD)"><path style="fill:none;stroke-width:.3985;stroke-linecap:butt;stroke-linejoin:miter;stroke:#000;stroke-opacity:1;stroke-miterlimit:10" d="m.002 0 3.086 3.09" transform="matrix(1 0 0 -1 74.72 61.702)"/></g></g><g clip-path="url(#dE)"><path style="fill:none;stroke-width:1.99255;stroke-linecap:butt;stroke-linejoin:miter;stroke:#000;stroke-opacity:1;stroke-miterlimit:10" d="M-.002 49.607c1.985 3.968 25.797 5.953 19.844 0-5.953-5.954-.992-16.868 0-19.844 3.969-11.906-17.86-3.969-19.844 0-1.984 2.976-3.965 11.906 0 19.844" transform="matrix(1 0 0 -1 54.787 116.298)"/></g><path style="fill:none;stroke-width:.79701;stroke-linecap:butt;stroke-linejoin:miter;stroke:#000;stroke-opacity:1;stroke-miterlimit:10" d="m-1.986 45.638-17.301 3.46" transform="matrix(1 0 0 -1 54.787 116.298)"/><path style="stroke:none;fill-rule:nonzero;fill:#000;fill-opacity:1" d="m32.96 66.691 3.657 2.844L35.5 67.2l1.93-1.726"/><use xlink:href="#dF" x="24.551" y="64.7" style="fill:#000;fill-opacity:1"/><use xlink:href="#dG" x="29.67" y="64.7" style="fill:#000;fill-opacity:1"/><use xlink:href="#u" x="35.595" y="64.7" style="fill:#000;fill-opacity:1"/><use xlink:href="#dH" x="35.809" y="64.7" style="fill:#000;fill-opacity:1"/><path style="fill:none;stroke-width:1.99255;stroke-linecap:butt;stroke-linejoin:miter;stroke:#bfbfbf;stroke-opacity:1;stroke-miterlimit:10" d="m-1.986 43.653.797 3.97" transform="matrix(1 0 0 -1 54.787 116.298)"/><path style="fill:none;stroke-width:1.59404;stroke-linecap:round;stroke-linejoin:miter;stroke:#00f;stroke-opacity:1;stroke-miterlimit:10" d="M9.92 39.685v35.902" transform="matrix(1 0 0 -1 54.787 116.298)"/><path style="stroke:none;fill-rule:nonzero;fill:#00f;fill-opacity:1" d="m64.707 36.926-3.027 6.058 3.027-2.273 3.031 2.273"/><use xlink:href="#dI" x="66.701" y="35.534" style="fill:#00f;fill-opacity:1"/><use xlink:href="#dJ" x="66.705" y="35.534" style="fill:#00f;fill-opacity:1"/><use xlink:href="#dK" x="67.853" y="41.661" style="fill:#00f;fill-opacity:1"/></svg>