<svg xmlns="http://www.w3.org/2000/svg" xmlns:xlink="http://www.w3.org/1999/xlink" width="636.615" height="166.612" viewBox="0 0 477.461 124.959"><clipPath id="a"><path transform="matrix(1 0 0 -1 172.445 66.732)" d="M-91.993-53.247c-75.472 27.583-63.742 68.708 26.202 91.853C24.153 61.75 158.255 58.153 233.727 30.57c66.312-24.234 66.312-59.582 0-83.817z"/></clipPath><g clip-path="url(#a)"><path d="M80.452 119.979C4.98 92.396 16.71 51.27 106.654 28.126 196.598 4.981 330.7 8.58 406.173 36.162c66.31 24.234 66.31 59.582 0 83.817z" fill="#ccf"/><path stroke-width="2.989" stroke-linecap="square" stroke-miterlimit="10" fill="none" stroke="#929292" d="M172.445 63.897h170.08c9.394 0 17.01 7.615 17.01 17.008V95.08h17.007"/><path stroke-width="2.989" stroke-linecap="square" stroke-miterlimit="10" fill="none" stroke="#929292" d="M172.445 69.567h170.08c6.263 0 11.34 5.076 11.34 11.338v19.843h22.677"/><path stroke-width="2.989" stroke-linecap="square" stroke-miterlimit="10" fill="none" stroke="#929292" d="M172.445 63.897c0-6.262 12.691-11.338 28.347-11.338h56.693m5.67 0h79.37c15.657 0 28.348 12.69 28.348 28.346h5.669M172.445 69.567c0 6.262 12.691 11.338 28.347 11.338h56.693m5.67 0h79.37v28.347h28.348v-8.504m0-5.67v-8.503h5.669"/><path d="M376.542 69.567v39.685h14.173V69.567zm14.173 39.685" fill="#929292"/><path stroke-width="2.989" stroke-linecap="square" stroke-miterlimit="10" fill="none" stroke="#929292" d="M376.542 69.567v39.685h14.173V69.567zm14.173 39.685"/><symbol id="b"><path d="M.421.694c-.011.02-.023.02-.03.02-.007 0-.019 0-.03-.02L.007.025C0 .014 0 .012 0 .01 0 0 .008 0 .024 0h.734c.017 0 .024 0 .024.01 0 .002 0 .004-.007.015L.421.694M.358.616.643.079h-.57l.285.537z"/></symbol><use xlink:href="#b" transform="matrix(7.9701 0 0 -7.9701 378.372 91.357)" fill="#fff"/><symbol id="c"><path d="M.076.073C.068.041.066.033.026.033.012.033 0 .033 0 .014 0 .005.009 0 .014 0c.01 0 .014.003.088.003C.174.003.195 0 .202 0c.004 0 .019 0 .019.019 0 .014-.014.014-.026.014-.048 0-.048.006-.048.015 0 .007.018.078.048.195A.112.112 0 0 1 .293.184c.123 0 .251.142.251.287C.544.57.48.635.4.635.34.635.292.594.263.564.242.635.175.635.165.635.129.635.104.612.088.581A.4.4 0 0 1 .054.482c0-.009.007-.013.015-.013.013 0 .014.004.021.03.013.051.031.108.072.108C.187.607.194.584.194.56A.265.265 0 0 0 .188.518L.076.073M.26.502c.005.017.005.019.02.037.038.045.081.068.117.068.05 0 .069-.049.069-.094A.618.618 0 0 0 .414.31C.388.256.34.212.293.212.225.212.209.29.209.297a.11.11 0 0 0 .003.016L.26.502z"/></symbol><use xlink:href="#c" transform="matrix(7.9701 0 0 -7.9701 384.832 92.903)" fill="#fff"/><path stroke-width=".797" stroke-linecap="round" stroke-miterlimit="10" fill="none" stroke="#99f" d="M30.711 66.732h141.734"/><path d="M115.751 66.732c-1.381-.259-3.626-1.036-5.18-1.943v3.886c1.554-.907 3.799-1.684 5.18-1.943" fill="#99f"/><symbol id="d"><path d="M.227.486A.247.247 0 0 1 0 .243a.243.243 0 1 1 .242.244L.227.486z"/></symbol><use xlink:href="#d" transform="matrix(4.9813 0 0 -4.9813 57.847 67.928)"/><symbol id="e"><path d="M0 .033V0l.053.003H.15L.214 0v.033C.185.033.145.046.145.082c0 .012.005.025.009.037L.189.21c.004.009.004.019.019.019h.25C.47.229.471.218.475.209L.498.148.522.086C.524.079.529.071.529.063c0-.029-.052-.03-.08-.03V0h.274v.033H.7C.677.033.652.034.637.047.624.06.619.08.613.096.541.289.466.48.395.673.388.691.384.714.361.714.339.714.335.691.329.674.264.506.201.337.137.168L.118.116C.094.05.054.034 0 .033m.209.229.123.326.123-.326H.209z"/></symbol><use xlink:href="#e" transform="matrix(7.9701 0 0 -7.9701 52.273 75.202)"/><symbol id="f"><path d="M.49.326a.355.355 0 0 1-.264.125A.224.224 0 0 1 0 .225C0 .108.092 0 .223 0c.122 0 .224.081.285.166L.545.125A.355.355 0 0 1 .809 0c.129 0 .226.103.226.226a.224.224 0 0 1-.223.225C.69.451.588.37.527.285L.49.326M.561.247c.057.078.142.161.26.161a.18.18 0 0 0 .181-.182C1.002.129.918.06.826.06.747.06.678.107.561.247M.474.204C.417.126.332.043.214.043a.18.18 0 0 0-.181.182c0 .097.084.166.176.166.079 0 .148-.047.265-.187z"/></symbol><use xlink:href="#f" transform="matrix(5.9776 0 0 -5.9776 58.884 76.266)"/><use xlink:href="#d" transform="matrix(4.9813 0 0 -4.9813 171.233 67.928)"/><use xlink:href="#e" transform="matrix(7.9701 0 0 -7.9701 163.402 75.202)"/><path stroke-width=".797" stroke-linecap="round" stroke-miterlimit="10" fill="none" stroke="#99f" d="M30.711 45.472h28.347c113.387 0 116.222-9.922 201.262-9.922h80.378"/><path d="M345.36 35.55c-1.38-.259-3.626-1.036-5.18-1.942v3.885c1.554-.907 3.8-1.684 5.18-1.943M115.738 44.425c-1.391-.202-3.667-.885-5.257-1.726l.162 3.882c1.515-.97 3.725-1.84 5.095-2.156" fill="#99f"/><path stroke-width=".797" stroke-linecap="round" stroke-miterlimit="10" fill="none" stroke="#99f" d="M30.711 52.559h28.347c141.734 0 87.875-11.339 201.262-11.339h80.378"/><path d="M345.36 41.22c-1.38-.259-3.626-1.036-5.18-1.943v3.886c1.554-.907 3.8-1.684 5.18-1.943M115.745 51.703c-1.39-.208-3.661-.902-5.248-1.751l.143 3.883c1.52-.964 3.734-1.823 5.105-2.132" fill="#99f"/><path stroke-width=".797" stroke-linecap="round" stroke-miterlimit="10" fill="none" stroke="#99f" d="M30.711 59.645h28.347c170.08 0 59.528-11.338 201.262-11.338h80.378"/><path d="M345.36 48.307c-1.38-.26-3.626-1.036-5.18-1.943v3.885c1.554-.906 3.8-1.683 5.18-1.942M115.75 59.033c-1.387-.222-3.652-.938-5.23-1.802l.105 3.884c1.529-.948 3.752-1.786 5.126-2.082" fill="#99f"/><use xlink:href="#d" transform="matrix(4.9813 0 0 -4.9813 57.847 60.841)"/><symbol id="g"><path d="M0 .684V.651l.037.001C.072.652.101.647.101.608v-.53C.101.038.068.033.034.033L0 .034V.001h.324L.39 0c.05 0 .101.007.146.029.058.03.109.087.109.154 0 .108-.109.162-.202.175.07.021.155.046.172.141l.001.016c0 .131-.167.17-.254.17L.296.684H0M.186.342h.146l.047.001.035-.002A.16.16 0 0 0 .545.185c0-.078-.066-.14-.14-.149C.39.034.375.034.36.034H.227C.205.034.186.036.186.071v.271m0 .028v.245c0 .03.016.036.039.036h.134C.426.651.504.628.518.53L.519.516C.519.415.419.37.334.37H.186z"/></symbol><use xlink:href="#g" transform="matrix(7.9701 0 0 -7.9701 52.536 55.66)"/><use xlink:href="#f" transform="matrix(5.9776 0 0 -5.9776 58.709 56.716)"/><use xlink:href="#d" transform="matrix(4.9813 0 0 -4.9813 259.107 49.503)"/><symbol id="h"><path d="M.098.21A.232.232 0 0 0 .026.032C.021.027.014.021.014.014V.011A.013.013 0 0 1 .027 0C.044 0 .07.036.082.054a.26.26 0 0 1 .045.141C.127.238.11.304.056.304H.054C.019.304 0 .277 0 .248 0 .218.023.193.056.193.074.193.083.2.098.21z"/></symbol><use xlink:href="#g" transform="matrix(7.9701 0 0 -7.9701 256.522 45.318)"/><use xlink:href="#h" transform="matrix(7.9701 0 0 -7.9701 262.874 42.202)"/><path d="M388.726 78.07a.845.845 0 1 0-1.69 0 .845.845 0 0 0 1.69 0zm-.845 0"/><symbol id="i"><path d="M0 .429V.396h.019c.029 0 .057-.004.057-.05V.075C.076.034.05.033 0 .033V0l.061.003h.105L.229 0v.033H.208C.177.033.153.036.153.074v.183c0 .074.047.155.145.155.057 0 .073-.048.073-.109V.071C.371.036.344.033.315.033h-.02V0l.063.003h.105L.524 0v.033H.503C.472.033.448.036.448.074v.183c0 .074.047.155.145.155C.65.412.666.364.666.303V.071C.666.036.639.033.61.033H.59V0l.063.003h.105L.819 0v.033H.802c-.03 0-.059.003-.059.039v.214a.207.207 0 0 1-.016.095C.703.425.651.44.604.44.543.44.468.41.444.348H.443C.434.417.363.44.304.44.242.44.169.405.147.344L.146.44.109.437 0 .429z"/></symbol><symbol id="j"><path d="M.09.402v.001c.032.015.06.024.097.024C.255.427.3.376.3.299V.276c-.124 0-.3-.04-.3-.165C0 .027.101 0 .166 0 .222 0 .284.025.31.081h.001c0-.042.035-.076.076-.076A.09.09 0 0 1 .48.096v.059H.449V.106C.449.08.444.043.413.043.381.043.377.08.377.102V.27l.001.037c0 .1-.103.148-.19.148C.134.455.033.439.033.359.033.337.046.31.076.31c.032 0 .051.021.051.047 0 .02-.012.04-.037.045M.3.25V.152A.121.121 0 0 0 .178.028C.133.028.086.059.082.106V.11c0 .109.135.135.218.14z"/></symbol><symbol id="k"><path d="M0 .429V.396h.019c.029 0 .057-.004.057-.05V.075C.076.034.05.033 0 .033V0l.061.003h.105L.229 0v.033H.208C.177.033.153.036.153.074v.184c0 .074.049.154.145.154.057 0 .072-.05.072-.11V.071C.37.036.343.033.314.033h-.02V0l.063.003h.105L.523 0v.033h-.02C.474.033.447.036.447.072v.213A.208.208 0 0 1 .43.383C.405.427.353.44.306.44.245.44.169.407.147.344L.146.44.109.437 0 .429z"/></symbol><symbol id="l"><path d="M.221.455C.106.443 0 .36 0 .218 0 .084.124 0 .239 0c.116 0 .233.09.233.221a.236.236 0 0 1-.238.234H.221M.089.203.088.229c0 .052.005.121.048.16a.15.15 0 0 0 .101.038C.339.427.383.342.383.238.383.183.381.122.343.077A.144.144 0 0 0 .236.031C.162.031.104.083.093.162L.089.203z"/></symbol><symbol id="m"><path d="M.089.239h.305c.013 0 .019.007.019.019 0 .05-.015.108-.051.145a.192.192 0 0 1-.137.053A.222.222 0 0 1 0 .231C0 .117.091 0 .235 0 .31 0 .39.047.411.121L.413.13a.015.015 0 0 1-.015.015C.379.145.376.113.367.101A.147.147 0 0 0 .243.033a.147.147 0 0 0-.13.077.272.272 0 0 0-.024.129M.09.266C.1.323.11.385.169.414a.114.114 0 0 0 .054.014C.288.428.332.374.342.302L.345.266H.09m.226.235c.005.007.015.018.015.023a2.763 2.763 0 0 1-.113.11C.206.645.194.66.176.661H.175C.153.661.136.64.136.619c0-.027.028-.037.047-.047l.055-.03C.263.529.29.509.316.501z"/></symbol><symbol id="n"><path d="M.135.625C.135.554.101.435 0 .435V.407h.089V.149c0-.032.002-.064.019-.092C.132.016.182 0 .228 0c.084 0 .105.089.105.155v.036H.302L.303.149C.303.105.292.031.233.031.179.031.166.089.166.139v.268h.149V.44H.166v.185H.135z"/></symbol><symbol id="o"><path d="M0 .429V.396h.016c.03 0 .06-.003.06-.05V.075C.076.034.05.033 0 .033V0l.06.003h.114L.245 0v.033L.21.032C.178.032.15.037.15.073v.168c0 .071.039.171.126.171A.052.052 0 0 1 .26.376C.26.348.283.331.306.331c.025 0 .044.02.044.045C.35.419.308.44.271.44.214.44.155.387.144.335L.143.44.093.436 0 .429z"/></symbol><symbol id="p"><path d="M.089.239h.305c.013 0 .019.007.019.019 0 .05-.015.108-.051.145a.192.192 0 0 1-.137.053A.222.222 0 0 1 0 .231C0 .117.091 0 .235 0 .31 0 .39.047.411.121L.413.13a.015.015 0 0 1-.015.015C.379.145.376.113.367.101A.147.147 0 0 0 .243.033a.147.147 0 0 0-.13.077.272.272 0 0 0-.024.129M.09.266C.1.323.11.385.169.414a.114.114 0 0 0 .054.014C.288.428.332.374.342.302L.345.266H.09z"/></symbol><symbol id="q"><path d="M.294.693V.66h.011C.344.66.37.658.37.599V.393A.187.187 0 0 1 .236.45C.113.45 0 .354 0 .225 0 .102.103 0 .225 0a.19.19 0 0 1 .142.063V0L.52.01v.033H.504c-.03 0-.06.003-.06.05v.611L.294.693M.089.203v.014c0 .07.013.155.09.19A.141.141 0 0 0 .36.357C.363.352.366.348.367.342V.126C.367.075.285.028.233.028c-.074 0-.127.059-.139.13L.089.203z"/></symbol><symbol id="r"><path d="M.004.429V.396H.02C.052.396.076.39.076.347V.075C.076.034.05.033 0 .033V0l.061.003h.101L.218 0v.033H.204C.175.033.15.035.15.069V.44L.113.437.004.429M.09.67A.055.055 0 0 1 .096.56C.13.56.153.587.153.616a.055.055 0 0 1-.054.055L.09.67z"/></symbol><symbol id="s"><path d="M.082.43H0V.397h.082V.07C.082.035.052.033.02.033H.006V0l.06.003H.17L.232 0v.033H.214C.183.033.156.036.156.07v.327h.221V.07C.377.035.347.033.315.033H.301V0l.06.003h.114L.546 0v.033H.515C.474.033.451.037.451.078v.319h.12V.43H.448v.092c0 .066.019.154.094.154A.092.092 0 0 0 .57.671a.045.045 0 0 1-.023-.04c0-.027.022-.045.047-.045.031 0 .044.023.044.045 0 .051-.053.073-.096.073a.171.171 0 0 1-.097-.03C.441.671.436.666.431.666H.43c-.006 0-.018.015-.031.02a.176.176 0 0 1-.075.018H.312c-.104 0-.23-.046-.23-.17V.43M.38.577C.377.564.377.551.377.538V.43H.153v.103c0 .095.076.143.156.143h.008C.342.674.361.668.385.661.368.651.355.64.355.618.355.601.364.584.38.577z"/></symbol><symbol id="t"><path d="M.089.239h.305c.013 0 .019.007.019.019 0 .05-.015.108-.051.145a.192.192 0 0 1-.137.053A.222.222 0 0 1 0 .231C0 .117.091 0 .235 0 .31 0 .39.047.411.121L.413.13a.015.015 0 0 1-.015.015C.379.145.376.113.367.101A.147.147 0 0 0 .243.033a.147.147 0 0 0-.13.077.272.272 0 0 0-.024.129M.09.266C.1.323.11.385.169.414a.114.114 0 0 0 .054.014C.288.428.332.374.342.302L.345.266H.09m.036.235c.026.008.053.028.078.041l.055.03c.019.01.047.02.047.047C.306.64.289.661.267.661H.266C.233.659.167.578.122.538.118.534.111.53.111.524c0-.005.01-.016.015-.023z"/></symbol><symbol id="u"><path d="M0 .683V.65h.013C.046.65.076.649.076.598V.097L.077.075C.077.035.045.033.01.033H0V0l.06.003h.104L.226 0v.033H.203C.175.033.15.036.15.072v.622L0 .683z"/></symbol><use xlink:href="#i" transform="matrix(7.9701 0 0 -7.9701 405.865 63.021)"/><use xlink:href="#j" transform="matrix(7.9701 0 0 -7.9701 412.95 63.1)"/><use xlink:href="#k" transform="matrix(7.9701 0 0 -7.9701 417.15 63.021)"/><use xlink:href="#l" transform="matrix(7.9701 0 0 -7.9701 421.765 63.1)"/><use xlink:href="#i" transform="matrix(7.9701 0 0 -7.9701 426.085 63.021)"/><use xlink:href="#m" transform="matrix(7.9701 0 0 -7.9701 433.05 63.109)"/><use xlink:href="#n" transform="matrix(7.9701 0 0 -7.9701 436.741 63.1)"/><use xlink:href="#o" transform="matrix(7.9701 0 0 -7.9701 440.144 63.021)"/><use xlink:href="#p" transform="matrix(7.9701 0 0 -7.9701 443.404 63.109)"/><use xlink:href="#q" transform="matrix(7.9701 0 0 -7.9701 405.825 72.566)"/><use xlink:href="#r" transform="matrix(7.9701 0 0 -7.9701 410.575 72.486)"/><use xlink:href="#s" transform="matrix(7.9701 0 0 -7.9701 412.823 72.486)"/><use xlink:href="#t" transform="matrix(7.9701 0 0 -7.9701 417.772 72.574)"/><use xlink:href="#o" transform="matrix(7.9701 0 0 -7.9701 421.574 72.486)"/><use xlink:href="#p" transform="matrix(7.9701 0 0 -7.9701 424.834 72.574)"/><use xlink:href="#k" transform="matrix(7.9701 0 0 -7.9701 428.683 72.486)"/><use xlink:href="#n" transform="matrix(7.9701 0 0 -7.9701 432.995 72.566)"/><use xlink:href="#r" transform="matrix(7.9701 0 0 -7.9701 436.454 72.486)"/><use xlink:href="#p" transform="matrix(7.9701 0 0 -7.9701 438.71 72.574)"/><use xlink:href="#u" transform="matrix(7.9701 0 0 -7.9701 442.567 72.486)"/><path stroke-width=".399" stroke-miterlimit="10" fill="none" stroke="#929292" d="m389.818 77.43 12.743-4.217"/><path stroke-width=".797" stroke-miterlimit="10" fill="none" stroke="#000" d="M59.058 66.732h25.756"/><path d="M87.405 66.732 83.26 64.66l1.554 2.072-1.554 2.072"/><symbol id="v"><path d="M.611 0c.016 0 .038 0 .038.023S.627.046.611.046H.038C.022.046 0 .046 0 .023S.022 0 .038 0h.573z"/></symbol><symbol id="w"><path d="M.814.241A.375.375 0 0 1 .671.015C.671 0 .685 0 .694 0c.011 0 .02 0 .023.013.026.111.09.195.211.236.008.002.016.005.016.015 0 .01-.009.013-.013.014a.307.307 0 0 0-.212.227C.714.525.714.528.694.528c-.009 0-.023 0-.023-.015A.352.352 0 0 1 .814.287H.038C.022.287 0 .287 0 .264S.022.241.038.241h.776z"/></symbol><use xlink:href="#v" transform="matrix(7.9701 0 0 -7.9701 80.607 70.924)"/><use xlink:href="#w" transform="matrix(7.9701 0 0 -7.9701 80.376 72.845)"/><symbol id="x"><path d="M.467.374c0 .078-.045.078-.049.078C.394.452.366.426.366.4c0-.016.008-.023.017-.031A.105.105 0 0 0 .42.289C.42.243.354.028.239.028.196.028.161.051.161.114c0 .055.03.134.054.194C.227.34.23.348.23.366.23.42.186.451.14.451.041.451 0 .31 0 .298 0 .289.007.285.015.285c.013 0 .014.006.017.016.026.087.069.122.105.122C.152.423.161.414.161.39A.198.198 0 0 0 .142.319C.093.193.089.16.089.129.089.02.178 0 .235 0c.166 0 .232.298.232.374z"/></symbol><use xlink:href="#x" transform="matrix(7.9701 0 0 -7.9701 82.174 76.245)"/><use xlink:href="#f" transform="matrix(5.9776 0 0 -5.9776 87.657 77.22)"/><use xlink:href="#d" transform="matrix(4.9813 0 0 -4.9813 259.107 56.59)"/><use xlink:href="#g" transform="matrix(7.9701 0 0 -7.9701 261.569 61.758)"/></g></svg>