<svg xmlns="http://www.w3.org/2000/svg" xmlns:xlink="http://www.w3.org/1999/xlink" width="185.611" height="201.173" viewBox="0 0 139.208 150.88"><defs><symbol overflow="visible" id="c"><path style="stroke:none" d="M2.578-5.922c.031-.125.031-.14.031-.172 0-.078-.046-.125-.14-.125-.125 0-.906.063-1.094.078-.078.016-.188.032-.188.172 0 .125.11.125.25.125.422 0 .422.063.422.14 0 .032 0 .048-.046.22L.53-.328C.5-.203.5-.188.5-.156c0 .14.11.25.266.25a.371.371 0 0 0 .343-.203c.016-.047.094-.375.141-.563l.219-.797c.015-.14.11-.484.14-.61l.11-.39c.047-.219.547-1.265 1.515-1.265.485 0 .485.468.485.625 0 .546-.422 1.64-.516 1.921-.11.266-.14.36-.14.532 0 .484.359.75.765.75.86 0 1.219-1.282 1.219-1.375 0-.047-.031-.11-.125-.11s-.11.047-.14.157c-.22.765-.61 1.109-.923 1.109-.062 0-.234 0-.234-.281 0-.235.094-.469.172-.656.172-.47.531-1.407.531-1.922 0-.797-.594-.985-1.062-.985-.547 0-1 .25-1.36.688Zm0 0"/></symbol><symbol overflow="visible" id="s"><path style="stroke:none" d="M4.86-5.328c-.016.016-.407.375-.407.516 0 .109.078.187.188.187.093 0 .14-.063.171-.11.11-.124.313-.374.72-.577.093-.047.187-.094.187-.22 0-.093-.094-.14-.125-.187a.8.8 0 0 1-.39-.484c-.032-.11-.079-.219-.204-.219a.193.193 0 0 0-.188.203c0 .157.172.453.204.5H1.969c-.14 0-.328 0-.328.188 0 .203.171.203.328.203Zm0 0"/></symbol><symbol overflow="visible" id="t"><path style="stroke:none" d="M4.375-3.531c0-.14-.125-.25-.281-.25-.157 0-.344.11-.39.36-.204-.345-.485-.548-.845-.548-1.093 0-2.203 1.281-2.203 2.531C.656-.594 1.187 0 1.906 0c.407 0 .766-.219 1.063-.5C2.859 0 2.703.594 2.64.766c-.047.093-.375.843-1.282.843-.171 0-.468 0-.687-.062C.844 1.469 1 1.28 1 1.078 1 .891.844.766.656.766c-.203 0-.5.156-.5.53 0 .438.5.548 1.219.548 1.156 0 1.828-.672 1.969-1.25Zm-1.234 2.36c-.032.171-.047.187-.188.359-.453.515-.844.593-1.015.593-.438 0-.594-.437-.594-.844 0-.343.203-1.343.484-1.875.219-.421.625-.796 1.031-.796.579 0 .735.671.735.75 0 .03-.031.093-.031.14Zm0 0"/></symbol><symbol overflow="visible" id="u"><path style="stroke:none" d="M4.313-3.313c0-.624-.329-.656-.407-.656-.234 0-.469.235-.469.438 0 .14.094.219.157.265.234.22.312.516.312.75 0 .391-.562 2.391-1.594 2.391-.687 0-.687-.625-.687-.797 0-.375.14-.844.453-1.656.14-.375.172-.469.172-.625a.739.739 0 0 0-.766-.766c-.859 0-1.218 1.281-1.218 1.39 0 .079.062.11.125.11.093 0 .109-.062.14-.172.188-.656.547-1.093.922-1.093.172 0 .219.109.219.296 0 .141-.047.313-.125.516-.313.875-.531 1.438-.531 1.89 0 .845.64 1.126 1.25 1.126 1.515 0 2.046-2.828 2.046-3.406Zm0 0"/></symbol><symbol overflow="visible" id="w"><path style="stroke:none" d="M1.469-.688c-.094.329-.11.407-.782.407-.171 0-.265 0-.265.172C.422 0 .516 0 .672 0h3.265c1.454 0 2.516-1.063 2.516-1.922 0-.64-.531-1.187-1.406-1.281 1.016-.203 1.89-.875 1.89-1.672 0-.703-.656-1.25-1.718-1.25H2.156c-.172 0-.265 0-.265.156 0 .125.078.125.265.125.031 0 .188 0 .344.016.14.016.203.031.203.14 0 .032 0 .079-.031.172Zm1.39-2.609L3.406-5.5c.078-.328.094-.344.485-.344h1.203c.937 0 1.015.703 1.015.922 0 .813-.828 1.625-1.843 1.625ZM2.438-.28H2.25c-.094-.016-.11-.031-.11-.094 0-.016 0-.031.032-.203l.625-2.5h1.687c.563 0 1.125.25 1.125 1.062 0 .891-.812 1.735-1.89 1.735Zm0 0"/></symbol><symbol overflow="visible" id="d"><path style="stroke:none" d="M.75-.266c.25.22.563.344.906.344.625 0 1.39-.234 1.39-1.125v-.062c-.03-.485-.421-.829-.858-.97-.454-.14-1.485-.093-1.485-.702 0-.469.61-.578.953-.578.485 0 .875.25.938.812 0 .063 0 .14.11.14.108 0 .14-.077.14-.171v-.86c0-.062-.047-.109-.125-.109-.14 0-.203.188-.297.188h-.016c-.125-.047-.234-.125-.375-.157-.125-.015-.234-.03-.36-.03-.577 0-1.39.155-1.39 1v.062c.016.28.203.484.422.656.625.406 1.828.14 1.922.953 0 .563-.5.719-.938.719-.609 0-1.03-.422-1.125-.969-.03-.094-.03-.203-.156-.203-.125 0-.125.078-.125.156v.969c0 .031-.015.078-.015.11 0 .077.03.171.109.171.078 0 .156-.094.188-.14L.609-.11C.656-.172.703-.22.75-.266Zm0 0"/></symbol><symbol overflow="visible" id="e"><path style="stroke:none" d="M.938-1.828h2.437c.094 0 .14-.047.14-.14 0-.407-.109-.876-.406-1.157-.28-.297-.671-.422-1.078-.422-.937 0-1.797.703-1.797 1.781C.234-.859.954.078 2.11.078c.594 0 1.235-.375 1.391-.969.016-.015.016-.046.016-.062 0-.063-.047-.125-.11-.125-.156 0-.172.25-.25.36a1.175 1.175 0 0 1-.984.53c-.422 0-.828-.218-1.047-.609-.156-.312-.188-.672-.188-1.031Zm.015-.219c.078-.453.156-.937.625-1.172a.867.867 0 0 1 .438-.11c.515 0 .859.423.937 1 .016.095.016.188.031.282Zm0 0"/></symbol><symbol overflow="visible" id="f"><path style="stroke:none" d="M2.922-3.172c-.156.063-.25.188-.25.344 0 .234.172.375.422.375.219 0 .328-.203.328-.375 0-.578-.688-.688-1.172-.719h-.094c-1.031 0-1.875.797-1.875 1.828 0 .985.828 1.797 1.844 1.797.563 0 1.11-.297 1.328-.844.016-.062.063-.125.063-.187 0-.078-.047-.11-.11-.11-.156 0-.125.172-.234.313-.188.36-.547.578-.953.578C1.39-.172.984-.953.984-1.766c0-.64.266-1.546 1.188-1.546.219 0 .531.015.75.14Zm0 0"/></symbol><symbol overflow="visible" id="g"><path style="stroke:none" d="M1.234-4.906c0 .562-.265 1.515-1.078 1.515v.22h.719v2.062c0 .25.016.5.14.734.204.313.594.453.954.453.672 0 .843-.719.843-1.234v-.297h-.25c0 .11.016.219.016.344 0 .343-.094.937-.562.937-.438 0-.532-.469-.532-.86v-2.14h1.188v-.265H1.484v-1.47Zm0 0"/></symbol><symbol overflow="visible" id="h"><path style="stroke:none" d="M.36-3.422v.266h.124c.25 0 .454.047.454.39v2.157c0 .328-.22.343-.61.343v.25L.812-.03h.813l.438.015v-.25h-.11c-.234 0-.437-.015-.437-.296v-2.954l-.282.032Zm.687-1.922a.45.45 0 0 0-.39.438c0 .218.187.437.437.437a.453.453 0 0 0 .453-.453.446.446 0 0 0-.438-.437c-.015 0-.046.015-.062.015Zm0 0"/></symbol><symbol overflow="visible" id="i"><path style="stroke:none" d="M1.984-3.547c-.906.094-1.75.75-1.75 1.875 0 1.078.985 1.75 1.907 1.75C3.062.078 4-.64 4-1.688c0-1.03-.86-1.859-1.906-1.859Zm-1.046 2v-.203c0-.422.03-.969.375-1.281.218-.203.515-.297.812-.297.813 0 1.156.672 1.156 1.5 0 .437-.015.922-.312 1.281-.219.25-.531.375-.86.375-.593 0-1.046-.422-1.14-1.047-.016-.11-.016-.218-.031-.328Zm0 0"/></symbol><symbol overflow="visible" id="j"><path style="stroke:none" d="M.313-3.422v.266h.156c.234 0 .453.031.453.39v2.157c0 .328-.203.343-.61.343v.25l.5-.015h.829l.5.015v-.25h-.172c-.235 0-.438-.03-.438-.328v-1.469c0-.593.39-1.234 1.157-1.234.453 0 .578.406.578.875v1.844c0 .281-.22.312-.438.312h-.172v.25l.5-.015H4l.484.015v-.25h-.156c-.234 0-.453-.03-.453-.312v-1.703c0-.266 0-.531-.125-.781-.203-.344-.625-.454-1-.454-.484 0-1.078.266-1.266.766v-.766l-.296.032Zm0 0"/></symbol><symbol overflow="visible" id="k"><path style="stroke:none" d="M3.219-3c-.188.031-.36.172-.36.375 0 .14.094.25.266.25.125 0 .375-.094.375-.453 0-.485-.516-.688-1.016-.688-1.062 0-1.406.766-1.406 1.172 0 .078 0 .36.297.578.188.141.328.172.734.25.282.063.735.141.735.547 0 .219-.156.469-.375.625-.297.188-.688.203-.813.203C1.47-.14.922-.17.72-.5a.449.449 0 0 0 .469-.438c0-.234-.22-.296-.313-.296-.125 0-.453.109-.453.546 0 .47.5.766 1.234.766 1.39 0 1.688-.984 1.688-1.312 0-.72-.781-.875-1.078-.922-.391-.078-.704-.125-.704-.469 0-.14.141-.672.922-.672.297 0 .61.094.735.297Zm0 0"/></symbol><symbol overflow="visible" id="l"><path style="stroke:none" d="M5.344-5.39a.294.294 0 0 0 .031-.126c0-.046-.047-.093-.11-.093-.046 0-.062.015-.156.109-.093.11-.296.36-.39.453-.297-.453-.813-.562-1.219-.562-1.094 0-2.047.937-2.047 1.843 0 .454.25.735.281.782.266.28.5.343 1.079.484.265.063.28.063.515.125.235.063.75.188.75.844 0 .687-.687 1.437-1.531 1.437-.516 0-1.469-.156-1.469-1.156 0-.016 0-.188.047-.375l.016-.078c0-.094-.094-.11-.125-.11-.094 0-.11.032-.141.22L.547-.298C.516-.172.453.047.453.063c0 .062.047.109.11.109.046 0 .062-.016.14-.11l.39-.453c.188.235.641.563 1.438.563 1.156 0 2.11-1.047 2.11-2 0-.375-.125-.656-.344-.875-.234-.266-.5-.328-.875-.422-.219-.063-.531-.14-.719-.188-.234-.046-.687-.203-.687-.765 0-.625.671-1.297 1.484-1.297.719 0 1.203.375 1.203 1.234 0 .204-.031.36-.031.391 0 .094.078.11.14.11.094 0 .094-.032.125-.157Zm0 0"/></symbol><symbol overflow="visible" id="m"><path style="stroke:none" d="M.344-6.14v.28h.344c.296 0 .562.048.562.391v4.782c0 .39-.313.406-.656.406h-.25v.265h4.765l.25-2.312h-.25C5.016-1.5 4.938-.625 3.83-.344c-.25.063-.5.063-.767.063h-.671c-.204 0-.329-.094-.329-.313v-4.843c0-.329.188-.375.376-.391.25-.031.515-.031.765-.031v-.282Zm0 0"/></symbol><symbol overflow="visible" id="n"><path style="stroke:none" d="M.36-3.86v.266H.5c.297 0 .516.047.516.453v2.485c0 .36-.25.375-.688.375v.265h1.938V-.28h-.141c-.234 0-.469-.031-.469-.313v-3.375Zm.765-2.156c-.234.047-.422.235-.422.485s.219.468.485.468h.062a.474.474 0 0 0 .422-.468.477.477 0 0 0-.484-.485Zm0 0"/></symbol><symbol overflow="visible" id="o"><path style="stroke:none" d="M3.484-.531v1.625c0 .328-.187.36-.687.36v.28l.64-.03h1.407v-.25h-.188c-.281 0-.5-.032-.5-.376v-5.047l-.218.016-.11.203-.234.578c-.094-.11-.156-.234-.235-.328a1.316 1.316 0 0 0-1.03-.469c-1.079 0-2.017.906-2.017 2.016 0 1.047.813 2.047 1.954 2.047.453 0 .984-.235 1.218-.625ZM1.078-1.797v-.11c0-.734.39-1.765 1.297-1.812h.031c.578 0 1.016.563 1.11 1.094v1.406c0 .735-.922 1.078-1.204 1.078h-.046C1.609-.188 1.25-.859 1.14-1.42c-.032-.126-.032-.25-.063-.376Zm0 0"/></symbol><symbol overflow="visible" id="p"><path style="stroke:none" d="M.313-3.86v.266H.39c.25 0 .593.031.593.281.016.11.016.188.016.297v1.782c0 .28.016.53.14.78.266.438.813.548 1.282.548.5 0 .984-.297 1.14-.766l.016.766 1.328-.11V-.28H4.75c-.266 0-.531-.031-.531-.438v-3.25l-1.36.11v.265h.125c.282 0 .563.031.563.453v1.766C3.5-.797 3.14-.141 2.453-.141c-.36 0-.687-.078-.765-.546-.016-.172-.016-.329-.016-.5V-3.97Zm0 0"/></symbol><symbol overflow="visible" id="q"><path style="stroke:none" d="M2.828-6.14v.28h.094c.36 0 .594.016.594.548v1.875a1.532 1.532 0 0 0-1.172-.532c-1.11 0-2.031.938-2.031 2.047C.313-.906 1.14.094 2.266.094c.421 0 .984-.203 1.218-.578v.578l1.36-.11V-.28h-.14c-.298 0-.548-.031-.548-.453v-5.5Zm-1.75 4.406v-.125c0-.72.188-1.875 1.313-1.875.468 0 1.109.343 1.109.906 0 .11-.016.219-.016.328v1.484c0 .11-.046.188-.109.282-.234.343-.64.593-1.063.593a1.14 1.14 0 0 1-.89-.453c-.25-.328-.297-.734-.344-1.14Zm0 0"/></symbol><symbol overflow="visible" id="r"><path style="stroke:none" d="M1.031-2.063h2.657c.109 0 .156-.046.156-.156 0-1.125-.703-1.797-1.64-1.797-1.095 0-1.954.954-1.954 2.047C.25-.875 1.125.094 2.344.094c.64 0 1.281-.453 1.469-1.078.015-.016.015-.063.015-.094a.107.107 0 0 0-.11-.11c-.171 0-.171.266-.265.391-.219.375-.656.64-1.094.64h-.062C1.828-.171 1.422-.5 1.219-.921c-.172-.36-.188-.75-.188-1.14Zm.016-.218c0-.594.25-1.281.906-1.485a.914.914 0 0 1 .203-.03c.781 0 1.063.796 1.063 1.515Zm0 0"/></symbol><symbol overflow="visible" id="z"><path style="stroke:none" d="M.313-.281v.265L.859-.03h1.36v-.25c-.25 0-.64-.125-.64-.453 0-.125.046-.235.093-.344.156-.422.281-.984.437-.984H4.25c.156 0 .266.5.36.75.077.234.265.593.265.75 0 .28-.5.28-.734.28v.266h2.453V-.28h-.25c-.203 0-.422-.031-.516-.125-.125-.125-.156-.297-.219-.438-.64-1.734-1.234-3.484-1.875-5.218l-.078-.188c-.031-.094-.062-.188-.219-.188-.187 0-.218.22-.265.36C2.625-4.547 2.078-3 1.516-1.484l-.157.453c-.187.562-.562.75-1.046.75Zm1.812-2.063L3.188-5.28 4.25-2.344Zm0 0"/></symbol><symbol overflow="visible" id="A"><path style="stroke:none" d="M.375-6.14v.28h.328c.313 0 .578.048.578.391v4.782c0 .39-.328.406-.656.406h-.25v.265h3.39c.485 0 .907-.046 1.344-.265.5-.266.907-.781.907-1.375 0-.953-.97-1.438-1.782-1.547.157-.047.329-.094.47-.14.53-.22 1.046-.657 1.046-1.298 0-.578-.469-1.046-.969-1.265-.437-.203-.906-.235-1.375-.235Zm1.656 3.062H3.25c.14 0 .281-.016.422-.016.89 0 1.453.656 1.453 1.422 0 .875-.734 1.39-1.578 1.39H2.375c-.234 0-.344-.109-.344-.343Zm0-.235V-5.53c0-.235.11-.328.344-.328h1.156c.625 0 1.36.28 1.36 1.25 0 .812-.782 1.312-1.5 1.312-.11 0-.22-.015-.329-.015Zm0 0"/></symbol><symbol overflow="visible" id="v"><path style="stroke:none" d="M3.063 2.14c0-.046-.032-.078-.079-.14C1.828.937 1.47-.672 1.47-2.25c0-1.375.265-3.063 1.531-4.266.047-.046.063-.062.063-.109a.107.107 0 0 0-.11-.11c-.11 0-.922.657-1.406 1.626-.422.859-.64 1.796-.64 2.859 0 .64.077 1.672.577 2.719.532 1.11 1.36 1.765 1.47 1.765.062 0 .108-.03.108-.093Zm0 0"/></symbol><symbol overflow="visible" id="x"><path style="stroke:none" d="M2.672-2.25c0-.734-.11-1.719-.578-2.719C1.563-6.079.734-6.734.625-6.734c-.094 0-.11.078-.11.109 0 .047.016.063.079.125.531.469 1.515 1.688 1.515 4.25C2.11-.969 1.875.813.58 2.031c-.016.016-.063.063-.063.11 0 .015.015.093.109.093.11 0 .922-.64 1.406-1.625.422-.859.64-1.78.64-2.859Zm0 0"/></symbol><symbol overflow="visible" id="y"><path style="stroke:none" d="M4.094-2.25c0-1-.828-1.781-1.782-1.781A1.794 1.794 0 0 0 .516-2.25c0 1 .828 1.797 1.78 1.797A1.807 1.807 0 0 0 4.095-2.25Zm0 0"/></symbol><linearGradient id="b" gradientUnits="userSpaceOnUse" x1="0" y1="25.003" x2="0" y2="74.997" gradientTransform="matrix(2.0242 0 0 -2.22264 -45.133 193.488)"><stop offset="0" style="stop-color:gray;stop-opacity:1"/><stop offset=".008" style="stop-color:gray;stop-opacity:1"/><stop offset=".016" style="stop-color:#818181;stop-opacity:1"/><stop offset=".023" style="stop-color:#828282;stop-opacity:1"/><stop offset=".031" style="stop-color:#838383;stop-opacity:1"/><stop offset=".039" style="stop-color:#848484;stop-opacity:1"/><stop offset=".047" style="stop-color:#858585;stop-opacity:1"/><stop offset=".055" style="stop-color:#868686;stop-opacity:1"/><stop offset=".063" style="stop-color:#878787;stop-opacity:1"/><stop offset=".07" style="stop-color:#888;stop-opacity:1"/><stop offset=".078" style="stop-color:#898989;stop-opacity:1"/><stop offset=".086" style="stop-color:#8a8a8a;stop-opacity:1"/><stop offset=".094" style="stop-color:#8b8b8b;stop-opacity:1"/><stop offset=".102" style="stop-color:#8c8c8c;stop-opacity:1"/><stop offset=".109" style="stop-color:#8d8d8d;stop-opacity:1"/><stop offset=".117" style="stop-color:#8e8e8e;stop-opacity:1"/><stop offset=".125" style="stop-color:#8f8f8f;stop-opacity:1"/><stop offset=".133" style="stop-color:#909090;stop-opacity:1"/><stop offset=".141" style="stop-color:#919191;stop-opacity:1"/><stop offset=".148" style="stop-color:#929292;stop-opacity:1"/><stop offset=".156" style="stop-color:#939393;stop-opacity:1"/><stop offset=".164" style="stop-color:#949494;stop-opacity:1"/><stop offset=".172" style="stop-color:#959595;stop-opacity:1"/><stop offset=".18" style="stop-color:#969696;stop-opacity:1"/><stop offset=".188" style="stop-color:#979797;stop-opacity:1"/><stop offset=".195" style="stop-color:#989898;stop-opacity:1"/><stop offset=".203" style="stop-color:#999;stop-opacity:1"/><stop offset=".211" style="stop-color:#9a9a9a;stop-opacity:1"/><stop offset=".219" style="stop-color:#9b9b9b;stop-opacity:1"/><stop offset=".227" style="stop-color:#9c9c9c;stop-opacity:1"/><stop offset=".234" style="stop-color:#9d9d9d;stop-opacity:1"/><stop offset=".242" style="stop-color:#9e9e9e;stop-opacity:1"/><stop offset=".25" style="stop-color:#9f9f9f;stop-opacity:1"/><stop offset=".258" style="stop-color:#a0a0a0;stop-opacity:1"/><stop offset=".266" style="stop-color:#a1a1a1;stop-opacity:1"/><stop offset=".273" style="stop-color:#a2a2a2;stop-opacity:1"/><stop offset=".281" style="stop-color:#a3a3a3;stop-opacity:1"/><stop offset=".289" style="stop-color:#a4a4a4;stop-opacity:1"/><stop offset=".297" style="stop-color:#a5a5a5;stop-opacity:1"/><stop offset=".305" style="stop-color:#a6a6a6;stop-opacity:1"/><stop offset=".313" style="stop-color:#a7a7a7;stop-opacity:1"/><stop offset=".32" style="stop-color:#a8a8a8;stop-opacity:1"/><stop offset=".328" style="stop-color:#a9a9a9;stop-opacity:1"/><stop offset=".336" style="stop-color:#aaa;stop-opacity:1"/><stop offset=".344" style="stop-color:#ababab;stop-opacity:1"/><stop offset=".352" style="stop-color:#acacac;stop-opacity:1"/><stop offset=".359" style="stop-color:#adadad;stop-opacity:1"/><stop offset=".367" style="stop-color:#aeaeae;stop-opacity:1"/><stop offset=".375" style="stop-color:#afafaf;stop-opacity:1"/><stop offset=".383" style="stop-color:#b0b0b0;stop-opacity:1"/><stop offset=".391" style="stop-color:#b1b1b1;stop-opacity:1"/><stop offset=".398" style="stop-color:#b2b2b2;stop-opacity:1"/><stop offset=".406" style="stop-color:#b3b3b3;stop-opacity:1"/><stop offset=".414" style="stop-color:#b4b4b4;stop-opacity:1"/><stop offset=".422" style="stop-color:#b5b5b5;stop-opacity:1"/><stop offset=".43" style="stop-color:#b6b6b6;stop-opacity:1"/><stop offset=".438" style="stop-color:#b7b7b7;stop-opacity:1"/><stop offset=".445" style="stop-color:#b8b8b8;stop-opacity:1"/><stop offset=".453" style="stop-color:#b9b9b9;stop-opacity:1"/><stop offset=".461" style="stop-color:#bababa;stop-opacity:1"/><stop offset=".469" style="stop-color:#bbb;stop-opacity:1"/><stop offset=".477" style="stop-color:#bcbcbc;stop-opacity:1"/><stop offset=".484" style="stop-color:#bdbdbd;stop-opacity:1"/><stop offset=".492" style="stop-color:#bebebe;stop-opacity:1"/><stop offset=".5" style="stop-color:#bfbfbf;stop-opacity:1"/><stop offset=".508" style="stop-color:silver;stop-opacity:1"/><stop offset=".516" style="stop-color:#c1c1c1;stop-opacity:1"/><stop offset=".523" style="stop-color:#c2c2c2;stop-opacity:1"/><stop offset=".531" style="stop-color:#c3c3c3;stop-opacity:1"/><stop offset=".539" style="stop-color:#c4c4c4;stop-opacity:1"/><stop offset=".547" style="stop-color:#c5c5c5;stop-opacity:1"/><stop offset=".555" style="stop-color:#c6c6c6;stop-opacity:1"/><stop offset=".563" style="stop-color:#c7c7c7;stop-opacity:1"/><stop offset=".57" style="stop-color:#c8c8c8;stop-opacity:1"/><stop offset=".578" style="stop-color:#c9c9c9;stop-opacity:1"/><stop offset=".586" style="stop-color:#cacaca;stop-opacity:1"/><stop offset=".594" style="stop-color:#cbcbcb;stop-opacity:1"/><stop offset=".602" style="stop-color:#ccc;stop-opacity:1"/><stop offset=".609" style="stop-color:#cdcdcd;stop-opacity:1"/><stop offset=".617" style="stop-color:#cecece;stop-opacity:1"/><stop offset=".625" style="stop-color:#cfcfcf;stop-opacity:1"/><stop offset=".633" style="stop-color:#d0d0d0;stop-opacity:1"/><stop offset=".641" style="stop-color:#d1d1d1;stop-opacity:1"/><stop offset=".648" style="stop-color:#d2d2d2;stop-opacity:1"/><stop offset=".656" style="stop-color:#d3d3d3;stop-opacity:1"/><stop offset=".664" style="stop-color:#d4d4d4;stop-opacity:1"/><stop offset=".672" style="stop-color:#d5d5d5;stop-opacity:1"/><stop offset=".68" style="stop-color:#d6d6d6;stop-opacity:1"/><stop offset=".688" style="stop-color:#d7d7d7;stop-opacity:1"/><stop offset=".695" style="stop-color:#d8d8d8;stop-opacity:1"/><stop offset=".703" style="stop-color:#d9d9d9;stop-opacity:1"/><stop offset=".711" style="stop-color:#dadada;stop-opacity:1"/><stop offset=".719" style="stop-color:#dbdbdb;stop-opacity:1"/><stop offset=".727" style="stop-color:#dcdcdc;stop-opacity:1"/><stop offset=".734" style="stop-color:#ddd;stop-opacity:1"/><stop offset=".742" style="stop-color:#dedede;stop-opacity:1"/><stop offset=".75" style="stop-color:#dfdfdf;stop-opacity:1"/><stop offset=".758" style="stop-color:#e0e0e0;stop-opacity:1"/><stop offset=".766" style="stop-color:#e1e1e1;stop-opacity:1"/><stop offset=".773" style="stop-color:#e2e2e2;stop-opacity:1"/><stop offset=".781" style="stop-color:#e3e3e3;stop-opacity:1"/><stop offset=".789" style="stop-color:#e4e4e4;stop-opacity:1"/><stop offset=".797" style="stop-color:#e5e5e5;stop-opacity:1"/><stop offset=".805" style="stop-color:#e6e6e6;stop-opacity:1"/><stop offset=".813" style="stop-color:#e7e7e7;stop-opacity:1"/><stop offset=".82" style="stop-color:#e8e8e8;stop-opacity:1"/><stop offset=".828" style="stop-color:#e9e9e9;stop-opacity:1"/><stop offset=".836" style="stop-color:#eaeaea;stop-opacity:1"/><stop offset=".844" style="stop-color:#ebebeb;stop-opacity:1"/><stop offset=".852" style="stop-color:#ececec;stop-opacity:1"/><stop offset=".859" style="stop-color:#ededed;stop-opacity:1"/><stop offset=".867" style="stop-color:#eee;stop-opacity:1"/><stop offset=".875" style="stop-color:#efefef;stop-opacity:1"/><stop offset=".883" style="stop-color:#f0f0f0;stop-opacity:1"/><stop offset=".891" style="stop-color:#f1f1f1;stop-opacity:1"/><stop offset=".898" style="stop-color:#f2f2f2;stop-opacity:1"/><stop offset=".906" style="stop-color:#f3f3f3;stop-opacity:1"/><stop offset=".914" style="stop-color:#f4f4f4;stop-opacity:1"/><stop offset=".922" style="stop-color:#f5f5f5;stop-opacity:1"/><stop offset=".93" style="stop-color:#f6f6f6;stop-opacity:1"/><stop offset=".938" style="stop-color:#f7f7f7;stop-opacity:1"/><stop offset=".945" style="stop-color:#f8f8f8;stop-opacity:1"/><stop offset=".953" style="stop-color:#f9f9f9;stop-opacity:1"/><stop offset=".961" style="stop-color:#fafafa;stop-opacity:1"/><stop offset=".969" style="stop-color:#fbfbfb;stop-opacity:1"/><stop offset=".977" style="stop-color:#fcfcfc;stop-opacity:1"/><stop offset=".984" style="stop-color:#fcfcfc;stop-opacity:1"/><stop offset=".992" style="stop-color:#fdfdfd;stop-opacity:1"/><stop offset="1" style="stop-color:#fefefe;stop-opacity:1"/></linearGradient><clipPath id="a"><path d="M5.477 27h99.214v104.965H5.477Zm0 104.965h101.199v5.95H5.476Zm0 0"/></clipPath></defs><g clip-path="url(#a)"><path style="stroke:none;fill-rule:nonzero;fill:url(#b)" d="M5.477 137.914V26.797h101.199v111.117Zm0 0"/></g><path style="fill:none;stroke-width:.3985;stroke-linecap:butt;stroke-linejoin:miter;stroke:gray;stroke-opacity:1;stroke-miterlimit:10" d="M-49.608 111.12V.001H51.59v5.95h-1.985v105.167Zm0 0" transform="matrix(1 0 0 -1 55.085 137.916)"/><path style="fill:none;stroke-width:.99628;stroke-linecap:butt;stroke-linejoin:miter;stroke:#000;stroke-opacity:1;stroke-miterlimit:10" d="M-49.608 119.057V.002H51.59M49.606 119.057V5.95h1.985" transform="matrix(1 0 0 -1 55.085 137.916)"/><path style="fill:none;stroke-width:.3985;stroke-linecap:butt;stroke-linejoin:miter;stroke:#000;stroke-opacity:1;stroke-dasharray:2.98883,2.98883;stroke-miterlimit:10" d="M0 1.994v107.133" transform="matrix(1 0 0 -1 55.085 137.916)"/><path style="stroke:none;fill-rule:nonzero;fill:#000;fill-opacity:1" d="m55.086 137.914 1.594-3.187-1.594 1.195-1.594-1.195M55.086 26.797l-1.594 3.187 1.594-1.195 1.594 1.195"/><use xlink:href="#c" x="57.078" y="85.471" style="fill:#000;fill-opacity:1"/><g style="fill:#000;fill-opacity:1"><use xlink:href="#d" x="88.6" y="130.655"/><use xlink:href="#e" x="91.939" y="130.655"/><use xlink:href="#f" x="95.702" y="130.655"/><use xlink:href="#g" x="99.465" y="130.655"/><use xlink:href="#h" x="102.757" y="130.655"/><use xlink:href="#i" x="105.109" y="130.655"/><use xlink:href="#j" x="109.342" y="130.655"/></g><use xlink:href="#k" x="116.867" y="130.655" style="fill:#000;fill-opacity:1"/><g style="fill:#000;fill-opacity:1"><use xlink:href="#d" x="38.154" y="24.806"/><use xlink:href="#e" x="41.493" y="24.806"/><use xlink:href="#f" x="45.256" y="24.806"/><use xlink:href="#g" x="49.019" y="24.806"/><use xlink:href="#h" x="52.311" y="24.806"/><use xlink:href="#i" x="54.663" y="24.806"/><use xlink:href="#j" x="58.896" y="24.806"/></g><use xlink:href="#l" x="66.421" y="24.806" style="fill:#000;fill-opacity:1"/><path style="fill:none;stroke-width:.3985;stroke-linecap:butt;stroke-linejoin:miter;stroke:#000;stroke-opacity:1;stroke-miterlimit:10" d="M39.685 101.205v27.773" transform="matrix(1 0 0 -1 55.085 137.916)"/><path style="stroke:none;fill-rule:nonzero;fill:#000;fill-opacity:1" d="m94.77 38.703 1.593-3.187-1.593 1.195-1.594-1.195"/><g style="fill:#000;fill-opacity:1"><use xlink:href="#m" x="96.762" y="11.156"/><use xlink:href="#n" x="102.519" y="11.156"/><use xlink:href="#o" x="105.078" y="11.156"/><use xlink:href="#p" x="109.941" y="11.156"/><use xlink:href="#n" x="115.059" y="11.156"/><use xlink:href="#q" x="117.618" y="11.156"/><use xlink:href="#r" x="122.736" y="11.156"/></g><path style="fill:none;stroke-width:.79701;stroke-linecap:butt;stroke-linejoin:miter;stroke:#000;stroke-opacity:1;stroke-miterlimit:10" d="M59.528 39.686V22.432" transform="matrix(1 0 0 -1 55.085 137.916)"/><path style="stroke:none;fill-rule:nonzero;fill:#000;fill-opacity:1" d="m114.613 118.074 2.07-4.144-2.07 1.554-2.074-1.554"/><use xlink:href="#s" x="116.225" y="110.489" style="fill:#000;fill-opacity:1"/><use xlink:href="#t" x="116.601" y="110.489" style="fill:#000;fill-opacity:1"/><path style="fill:none;stroke-width:.79701;stroke-linecap:butt;stroke-linejoin:miter;stroke:#000;stroke-opacity:1;stroke-miterlimit:10" d="M49.606 2.975H66.86" transform="matrix(1 0 0 -1 55.085 137.916)"/><path style="stroke:none;fill-rule:nonzero;fill:#000;fill-opacity:1" d="m124.535 134.941-4.144-2.074 1.554 2.074-1.554 2.07"/><use xlink:href="#s" x="114.503" y="143.657" style="fill:#000;fill-opacity:1"/><use xlink:href="#u" x="114.843" y="143.657" style="fill:#000;fill-opacity:1"/><use xlink:href="#v" x="119.639" y="143.657" style="fill:#000;fill-opacity:1"/><use xlink:href="#w" x="123.223" y="143.657" style="fill:#000;fill-opacity:1"/><use xlink:href="#x" x="130.643" y="143.657" style="fill:#000;fill-opacity:1"/><path style="fill:none;stroke-width:.3985;stroke-linecap:butt;stroke-linejoin:miter;stroke:#00f;stroke-opacity:1;stroke-miterlimit:10" d="M-19.843 111.123c0-39.687 11.906-108.148 71.434-108.148" transform="matrix(1 0 0 -1 55.085 137.916)"/><path style="stroke:none;fill-rule:nonzero;fill:#00f;fill-opacity:1" d="m37.195 55.05 1.137-3.378-1.414 1.406-1.742-.96"/><use xlink:href="#y" x="32.939" y="28.813" style="fill:#00f;fill-opacity:1"/><use xlink:href="#z" x="26.342" y="29.884" style="fill:#00f;fill-opacity:1"/><use xlink:href="#y" x="104.373" y="136.956" style="fill:#00f;fill-opacity:1"/><use xlink:href="#A" x="103.414" y="143.108" style="fill:#00f;fill-opacity:1"/></svg>