<svg xmlns="http://www.w3.org/2000/svg" xmlns:xlink="http://www.w3.org/1999/xlink" width="218.555" height="110.912" viewBox="0 0 163.916 83.184"><defs><symbol overflow="visible" id="a"><path style="stroke:none" d="M6.047-2.047c.172 0 .344 0 .344-.203 0-.188-.188-.188-.344-.188H1.109c-.156 0-.343 0-.343.188 0 .203.171.203.343.203Zm0 0"/></symbol><symbol overflow="visible" id="b"><path style="stroke:none" d="M7.625-2.047c-1.063.75-1.281 1.938-1.281 2.031 0 .125.125.125.187.125.11 0 .172 0 .203-.125.25-1.046.86-1.75 1.844-2.109.047-.016.125-.047.125-.125s-.062-.094-.125-.125c-1.125-.422-1.64-1.219-1.844-2.094-.03-.125-.062-.125-.203-.125-.078 0-.187 0-.187.125 0 .094.218 1.282 1.281 2.032H.844c-.156 0-.328 0-.328.187 0 .203.171.203.328.203Zm0 0"/></symbol><symbol overflow="visible" id="c"><path style="stroke:none" d="M4.766-3.313c.125 0 .453 0 .453-.312 0-.234-.203-.234-.36-.234H2.75C1.39-3.86.344-2.453.344-1.344.344-.437.984.094 1.75.094c1.094 0 2.297-1.078 2.297-2.438 0-.578-.234-.922-.266-.969Zm-3 3.188c-.344 0-.829-.188-.829-.969 0-.625.36-2.218 1.657-2.218.437 0 .844.203.844.859 0 .234-.094 1.047-.516 1.625-.297.422-.75.703-1.156.703Zm0 0"/></symbol><symbol overflow="visible" id="f"><path style="stroke:none" d="M4.5-3.453c.016-.047.031-.094.031-.156 0-.11-.078-.25-.281-.25a.371.371 0 0 0-.344.234c-.015.031-.11.406-.156.61l-.453 1.78c-.063.266-.063.282-.094.36 0 .047-.375.75-1.031.75-.547 0-.547-.563-.547-.734 0-.407.11-.844.5-1.844.078-.219.125-.344.125-.5a.739.739 0 0 0-.766-.766c-.859 0-1.218 1.281-1.218 1.39 0 .079.062.11.125.11.093 0 .109-.062.14-.172.188-.671.547-1.093.922-1.093.219 0 .219.171.219.296 0 .141-.047.313-.125.516-.422 1.125-.531 1.5-.531 1.922 0 1 .812 1.094 1.14 1.094.438 0 .75-.235.906-.39-.109.452-.203.859-.562 1.312-.266.359-.625.593-1.016.593-.25 0-.546-.078-.671-.328a.5.5 0 0 0 .53-.484c0-.203-.14-.328-.343-.328S.5.64.5 1.047c0 .469.422.797.984.797.907 0 1.891-.782 2.141-1.828Zm0 0"/></symbol><symbol overflow="visible" id="j"><path style="stroke:none" d="M1.688-1.406c.109-.422.28-1.078.28-1.157.016-.046.25-.484.563-.796.266-.235.61-.375.953-.375.485 0 .485.468.485.625 0 .546-.422 1.64-.516 1.921-.11.266-.14.36-.14.532 0 .484.359.75.765.75.86 0 1.219-1.282 1.219-1.375 0-.047-.031-.11-.125-.11s-.11.047-.14.157c-.22.765-.595 1.109-.923 1.109-.062 0-.218 0-.218-.281 0-.235.078-.469.156-.656.172-.47.531-1.407.531-1.922 0-.797-.594-.985-1.062-.985-.829 0-1.266.594-1.422.781a.84.84 0 0 0-.86-.78c-.375 0-.578.28-.703.53-.14.313-.265.813-.265.86 0 .078.062.11.125.11.093 0 .109-.048.156-.235.172-.703.36-1.031.656-1.031.281 0 .281.28.281.421 0 .188-.078.454-.125.688-.062.234-.156.625-.187.734L.812-.42C.75-.204.75-.189.75-.157c0 .11.078.25.266.25a.402.402 0 0 0 .328-.188c.031-.047.093-.344.14-.515Zm0 0"/></symbol><symbol overflow="visible" id="k"><path style="stroke:none" d="M1.906-3.594h.86c.156 0 .265 0 .265-.156 0-.11-.094-.11-.25-.11h-.797l.36-1.5c0-.14-.11-.25-.266-.25-.297 0-.36.25-.39.344l-.344 1.407H.5c-.172 0-.281 0-.281.156 0 .11.093.11.25.11h.812L.656-1.142c-.062.266-.062.282-.062.407 0 .53.406.828.875.828.922 0 1.453-1.282 1.453-1.375 0-.047-.031-.11-.11-.11-.093 0-.109.032-.171.188-.266.64-.72 1.078-1.157 1.078-.187 0-.296-.11-.296-.406 0-.203.03-.313.062-.453Zm0 0"/></symbol><symbol overflow="visible" id="d"><path style="stroke:none" d="M1.61-2.344h.656c.109 0 .203 0 .203-.14 0-.094-.078-.094-.188-.094h-.61l.204-.828c.031-.094.031-.125.031-.125 0-.156-.11-.203-.218-.203-.063 0-.22.03-.282.234l-.234.922h-.64c-.126 0-.126 0-.157.015-.031.032-.047.11-.047.141.016.078.063.078.188.078h.609L.765-.922a2.594 2.594 0 0 0-.078.406c0 .344.313.579.672.579.688 0 1.094-.829 1.094-.922a.102.102 0 0 0-.11-.094c-.077 0-.093.031-.124.11-.203.452-.547.702-.844.702-.219 0-.219-.218-.219-.296 0-.079 0-.094.032-.204Zm0 0"/></symbol><symbol overflow="visible" id="e"><path style="stroke:none" d="M3.063 2.14c0-.046-.032-.078-.079-.14C1.828.937 1.47-.672 1.47-2.25c0-1.375.265-3.063 1.531-4.266.047-.046.063-.062.063-.109a.107.107 0 0 0-.11-.11c-.11 0-.922.657-1.406 1.626-.422.859-.64 1.796-.64 2.859 0 .64.077 1.672.577 2.719.532 1.11 1.36 1.765 1.47 1.765.062 0 .108-.03.108-.093Zm0 0"/></symbol><symbol overflow="visible" id="g"><path style="stroke:none" d="M6.328-2.047c.125 0 .313 0 .313-.203 0-.188-.172-.188-.313-.188H3.781V-5c0-.14 0-.313-.203-.313-.187 0-.187.188-.187.313v2.563H.828c-.125 0-.312 0-.312.187 0 .203.171.203.312.203h2.563V.516c0 .14 0 .312.203.312.187 0 .187-.187.187-.312v-2.563Zm0 0"/></symbol><symbol overflow="visible" id="i"><path style="stroke:none" d="M2.672-2.25c0-.734-.11-1.719-.578-2.719C1.563-6.079.734-6.734.625-6.734c-.094 0-.11.078-.11.109 0 .047.016.063.079.125.531.469 1.515 1.688 1.515 4.25C2.11-.969 1.875.813.58 2.031c-.016.016-.063.063-.063.11 0 .015.015.093.109.093.11 0 .922-.64 1.406-1.625.422-.859.64-1.78.64-2.859Zm0 0"/></symbol><symbol overflow="visible" id="h"><path style="stroke:none" d="M2.828-6.14v.28h.094c.36 0 .594.016.594.548v1.875a1.532 1.532 0 0 0-1.172-.532c-1.11 0-2.031.938-2.031 2.047C.313-.906 1.14.094 2.266.094c.421 0 .984-.203 1.218-.578v.578l1.36-.11V-.28h-.14c-.298 0-.548-.031-.548-.453v-5.5Zm-1.75 4.406v-.125c0-.72.188-1.875 1.313-1.875.468 0 1.109.343 1.109.906 0 .11-.016.219-.016.328v1.484c0 .11-.046.188-.109.282-.234.343-.64.593-1.063.593a1.14 1.14 0 0 1-.89-.453c-.25-.328-.297-.734-.344-1.14Zm0 0"/></symbol></defs><path style="fill:none;stroke-width:.3985;stroke-linecap:butt;stroke-linejoin:miter;stroke:gray;stroke-opacity:1;stroke-miterlimit:10" d="M-68.033-30.615H68.033" transform="matrix(1 0 0 -1 79.865 41.799)"/><path style="fill:none;stroke-width:.79701;stroke-linecap:butt;stroke-linejoin:miter;stroke:#000;stroke-opacity:1;stroke-miterlimit:10" d="M-34.017-30.615h-28.024" transform="matrix(1 0 0 -1 79.865 41.799)"/><path style="stroke:none;fill-rule:nonzero;fill:#000;fill-opacity:1" d="m15.234 72.414 4.145 2.07-1.555-2.07 1.555-2.074"/><path style="fill:none;stroke-width:.3985;stroke-linecap:butt;stroke-linejoin:miter;stroke:gray;stroke-opacity:1;stroke-miterlimit:10" d="M-68.033-17.01H68.033" transform="matrix(1 0 0 -1 79.865 41.799)"/><path style="fill:none;stroke-width:.79701;stroke-linecap:butt;stroke-linejoin:miter;stroke:#000;stroke-opacity:1;stroke-miterlimit:10" d="M-34.017-17.01h-14.418" transform="matrix(1 0 0 -1 79.865 41.799)"/><path style="stroke:none;fill-rule:nonzero;fill:#000;fill-opacity:1" d="m28.84 58.809 4.144 2.07-1.554-2.07 1.554-2.075"/><path style="fill:none;stroke-width:.3985;stroke-linecap:butt;stroke-linejoin:miter;stroke:gray;stroke-opacity:1;stroke-miterlimit:10" d="M-68.033-3.4H68.033" transform="matrix(1 0 0 -1 79.865 41.799)"/><path style="fill:none;stroke-width:.79701;stroke-linecap:butt;stroke-linejoin:miter;stroke:#000;stroke-opacity:1;stroke-miterlimit:10" d="M-34.017-3.4h-.809" transform="matrix(1 0 0 -1 79.865 41.799)"/><path style="stroke:none;fill-rule:nonzero;fill:#000;fill-opacity:1" d="m42.445 45.2 4.145 2.073-1.55-2.074 1.55-2.07"/><path style="fill:none;stroke-width:.3985;stroke-linecap:butt;stroke-linejoin:miter;stroke:gray;stroke-opacity:1;stroke-miterlimit:10" d="M-68.033 23.81H68.033" transform="matrix(1 0 0 -1 79.865 41.799)"/><path style="fill:none;stroke-width:.79701;stroke-linecap:butt;stroke-linejoin:miter;stroke:#000;stroke-opacity:1;stroke-miterlimit:10" d="M-34.017 23.81h21.222" transform="matrix(1 0 0 -1 79.865 41.799)"/><path style="stroke:none;fill-rule:nonzero;fill:#000;fill-opacity:1" d="m69.66 17.988-4.144-2.074 1.554 2.074-1.554 2.07"/><path style="fill:none;stroke-width:.3985;stroke-linecap:butt;stroke-linejoin:miter;stroke:gray;stroke-opacity:1;stroke-miterlimit:10" d="M-68.033 10.205H68.033" transform="matrix(1 0 0 -1 79.865 41.799)"/><path style="fill:none;stroke-width:.79701;stroke-linecap:butt;stroke-linejoin:miter;stroke:#000;stroke-opacity:1;stroke-miterlimit:10" d="M-34.017 10.205h7.617" transform="matrix(1 0 0 -1 79.865 41.799)"/><path style="stroke:none;fill-rule:nonzero;fill:#000;fill-opacity:1" d="m56.055 31.594-4.145-2.07 1.555 2.07-1.555 2.074"/><path style="fill-rule:nonzero;fill:#bfbfbf;fill-opacity:.7;stroke-width:.3985;stroke-linecap:butt;stroke-linejoin:miter;stroke:gray;stroke-opacity:.7;stroke-miterlimit:10" d="M6.803 17.01h34.016l-6.801-27.215H-.002Zm0 0" transform="matrix(1 0 0 -1 79.865 41.799)"/><path style="fill:none;stroke-width:1.59404;stroke-linecap:round;stroke-linejoin:miter;stroke:#00f;stroke-opacity:1;stroke-miterlimit:10" d="M23.81 17.01h30.231" transform="matrix(1 0 0 -1 79.865 41.799)"/><path style="stroke:none;fill-rule:nonzero;fill:#00f;fill-opacity:1" d="m137.691 24.79-6.054-3.028 2.27 3.027-2.27 3.031"/><use xlink:href="#a" x="116.449" y="30.122" style="fill:#00f;fill-opacity:1"/><use xlink:href="#b" x="116.453" y="30.122" style="fill:#00f;fill-opacity:1"/><use xlink:href="#c" x="116.748" y="33.982" style="fill:#00f;fill-opacity:1"/><use xlink:href="#d" x="122.017" y="34.979" style="fill:#00f;fill-opacity:1"/><use xlink:href="#e" x="125.665" y="33.982" style="fill:#00f;fill-opacity:1"/><use xlink:href="#f" x="129.248" y="33.982" style="fill:#00f;fill-opacity:1"/><use xlink:href="#g" x="136.156" y="33.982" style="fill:#00f;fill-opacity:1"/><use xlink:href="#h" x="145.372" y="33.982" style="fill:#00f;fill-opacity:1"/><use xlink:href="#f" x="150.49" y="33.982" style="fill:#00f;fill-opacity:1"/><use xlink:href="#i" x="155.35" y="33.982" style="fill:#00f;fill-opacity:1"/><path style="fill:none;stroke-width:1.59404;stroke-linecap:round;stroke-linejoin:miter;stroke:#00f;stroke-opacity:1;stroke-miterlimit:10" d="M17.006-10.205H-13.22" transform="matrix(1 0 0 -1 79.865 41.799)"/><path style="stroke:none;fill-rule:nonzero;fill:#00f;fill-opacity:1" d="m62.855 52.004 6.06 3.027-2.27-3.027 2.27-3.027"/><use xlink:href="#a" x="52.236" y="57.334" style="fill:#00f;fill-opacity:1"/><use xlink:href="#b" x="52.24" y="57.334" style="fill:#00f;fill-opacity:1"/><use xlink:href="#c" x="52.535" y="61.195" style="fill:#00f;fill-opacity:1"/><use xlink:href="#d" x="57.804" y="62.191" style="fill:#00f;fill-opacity:1"/><use xlink:href="#e" x="61.451" y="61.195" style="fill:#00f;fill-opacity:1"/><use xlink:href="#f" x="65.035" y="61.195" style="fill:#00f;fill-opacity:1"/><use xlink:href="#i" x="69.895" y="61.195" style="fill:#00f;fill-opacity:1"/><path style="fill:none;stroke-width:.79701;stroke-linecap:butt;stroke-linejoin:miter;stroke:#000;stroke-opacity:1;stroke-miterlimit:10" d="M23.81 17.01v14.414" transform="matrix(1 0 0 -1 79.865 41.799)"/><path style="stroke:none;fill-rule:nonzero;fill:#000;fill-opacity:1" d="m103.676 7.781-2.07 4.145 2.07-1.551 2.074 1.55"/><use xlink:href="#a" x="92.468" y="13.114" style="fill:#000;fill-opacity:1"/><use xlink:href="#b" x="92.472" y="13.114" style="fill:#000;fill-opacity:1"/><use xlink:href="#j" x="94.296" y="16.974" style="fill:#000;fill-opacity:1"/><path style="fill:none;stroke-width:.79701;stroke-linecap:butt;stroke-linejoin:miter;stroke:#000;stroke-opacity:1;stroke-miterlimit:10" d="M17.006-10.205v-14.418" transform="matrix(1 0 0 -1 79.865 41.799)"/><path style="stroke:none;fill-rule:nonzero;fill:#000;fill-opacity:1" d="m96.871 69.012 2.074-4.145-2.074 1.555-2.07-1.555"/><use xlink:href="#a" x="98.866" y="74.342" style="fill:#000;fill-opacity:1"/><use xlink:href="#b" x="98.87" y="74.342" style="fill:#000;fill-opacity:1"/><use xlink:href="#j" x="100.694" y="78.203" style="fill:#000;fill-opacity:1"/><path style="fill:none;stroke-width:.79701;stroke-linecap:butt;stroke-linejoin:miter;stroke:#000;stroke-opacity:1;stroke-miterlimit:10" d="M23.81 17.01H38.23" transform="matrix(1 0 0 -1 79.865 41.799)"/><path style="stroke:none;fill-rule:nonzero;fill:#000;fill-opacity:1" d="m120.684 24.79-4.145-2.071 1.555 2.07-1.555 2.074"/><use xlink:href="#a" x="116.076" y="17.284" style="fill:#000;fill-opacity:1"/><use xlink:href="#b" x="116.08" y="17.284" style="fill:#000;fill-opacity:1"/><use xlink:href="#k" x="119.02" y="22.799" style="fill:#000;fill-opacity:1"/><path style="fill:none;stroke-width:.79701;stroke-linecap:butt;stroke-linejoin:miter;stroke:#000;stroke-opacity:1;stroke-miterlimit:10" d="M17.006-10.205H2.592" transform="matrix(1 0 0 -1 79.865 41.799)"/><path style="stroke:none;fill-rule:nonzero;fill:#000;fill-opacity:1" d="m79.863 52.004 4.145 2.07-1.551-2.07 1.55-2.07"/><use xlink:href="#a" x="75.258" y="44.496" style="fill:#000;fill-opacity:1"/><use xlink:href="#b" x="75.262" y="44.496" style="fill:#000;fill-opacity:1"/><use xlink:href="#k" x="78.201" y="50.011" style="fill:#000;fill-opacity:1"/><path style="fill:none;stroke-width:.3985;stroke-linecap:butt;stroke-linejoin:miter;stroke:#000;stroke-opacity:1;stroke-miterlimit:10" d="M-68.033-34.017v66.039" transform="matrix(1 0 0 -1 79.865 41.799)"/><path style="stroke:none;fill-rule:nonzero;fill:#000;fill-opacity:1" d="m11.832 7.781-1.594 3.192 1.594-1.196 1.594 1.196"/><use xlink:href="#f" x="4.981" y="8.842" style="fill:#000;fill-opacity:1"/></svg>