<svg xmlns="http://www.w3.org/2000/svg" xmlns:xlink="http://www.w3.org/1999/xlink" width="379.835" height="321.035" viewBox="0 0 284.876 240.776"><path d="M213.976 30.464h28.347l8.628-4.982h28.347v19.926H250.95l-8.628-4.982h-28.347z" fill="#ccf"/><path stroke-width="1.196" stroke-miterlimit="10" fill="none" stroke="#000" d="M213.976 30.464h28.347l8.628-4.982h28.347M213.976 40.426h28.347l8.628 4.982h28.347"/><path stroke-width=".399" stroke-miterlimit="10" fill="none" stroke="#000" d="M218.957 20.5v7.971"/><path d="m218.957 30.464 1.594-3.188-1.594 1.195-1.594-1.195"/><symbol id="a"><path d="m.614.698.003.015C.617.72.611.725.604.725.597.725.595.723.584.711L.536.654C.497.711.434.725.383.725.244.725.125.608.125.494c0-.058.031-.092.036-.099C.194.36.223.352.295.335L.361.319C.39.312.454.296.454.213c0-.087-.086-.18-.191-.18-.065 0-.184.02-.184.144 0 .003 0 .024.006.048l.001.01c0 .012-.011.013-.015.013C.058.248.057.244.052.221L.011.058A.662.662 0 0 1 0 .013C0 .005.006 0 .013 0 .02 0 .021.001.032.014L.08.07C.103.04.16 0 .261 0c.145 0 .264.131.264.251a.152.152 0 0 1-.042.11C.453.394.42.402.373.414L.282.436C.252.443.196.463.196.533c0 .078.084.162.186.162.09 0 .152-.047.152-.155C.534.516.53.495.53.491.53.479.539.477.546.477c.012 0 .013.004.017.02l.051.201z"/></symbol><use xlink:href="#a" transform="matrix(7.9701 0 0 -7.9701 214.761 16.573)"/><symbol id="b"><path d="M.238.635c0 .03-.004.03-.034.03C.138.601.036.601 0 .601V.562c.026 0 .092 0 .152.028V.085c0-.033 0-.046-.103-.046H.006V0c.055.004.133.004.189.004.056 0 .134 0 .189-.004v.039H.341C.238.039.238.052.238.085v.55z"/></symbol><use xlink:href="#b" transform="matrix(5.9776 0 0 -5.9776 220.18 17.513)"/><path stroke-width=".399" stroke-miterlimit="10" fill="none" stroke="#000" d="M218.957 42.419v7.97"/><path d="m218.957 40.426-1.594 3.188 1.594-1.195 1.594 1.195"/><path stroke-width=".399" stroke-miterlimit="10" fill="none" stroke="#000" d="M273.504 15.52v7.97"/><path d="m273.504 25.482 1.594-3.188-1.594 1.196-1.594-1.196"/><use xlink:href="#a" transform="matrix(7.9701 0 0 -7.9701 269.307 11.591)"/><symbol id="c"><path d="M.466.187H.429C.427.173.417.107.402.096.395.09.314.09.3.09H.113l.128.104c.034.027.123.091.154.121.03.03.071.081.071.152 0 .125-.113.198-.247.198C.09.665 0 .58 0 .486 0 .435.043.429.054.429c.025 0 .054.018.054.054 0 .022-.013.054-.057.054.023.051.084.089.153.089A.154.154 0 0 0 .365.467C.365.396.318.323.248.259L.011.042C.001.032 0 .031 0 0h.435l.031.187z"/></symbol><use xlink:href="#c" transform="matrix(5.9776 0 0 -5.9776 274.433 12.531)"/><path stroke-width=".399" stroke-miterlimit="10" fill="none" stroke="#000" d="M273.504 47.4v7.97"/><path d="m273.504 45.408-1.594 3.188 1.594-1.196 1.594 1.196"/><path stroke-width=".399" stroke-dasharray="2.98883,2.98883" stroke-miterlimit="10" fill="none" stroke="#000" d="M242.323 40.426 266.872 54.6"/><path stroke-width=".399" stroke-miterlimit="10" fill="none" stroke="#000" d="M259.579 50.39a9.965 9.965 0 0 0 1.335-4.982"/><symbol id="d"><path d="M.466.15a.565.565 0 0 1 .126.24c0 .009-.006.013-.015.013C.564.403.563.399.557.378a.495.495 0 0 0-.091-.18C.464.198.464.223.464.239.462.415.348.451.28.451.139.451 0 .314 0 .173 0 .074.069 0 .175 0a.37.37 0 0 1 .223.084C.42.005.478 0 .496 0c.057 0 .09.051.09.07 0 .012-.012.012-.015.012C.56.082.558.079.555.072.539.03.505.028.5.028c-.014 0-.03 0-.034.122M.391.117A.334.334 0 0 0 .178.028c-.052 0-.097.03-.097.11 0 .035.016.138.063.205.04.056.094.08.135.08.055 0 .086-.039.099-.1C.393.255.385.175.391.117z"/></symbol><use xlink:href="#d" transform="matrix(7.9701 0 0 -7.9701 263.652 50.61)"/><path stroke-width="4.981" stroke-miterlimit="10" fill="none" stroke="#99f" d="M218.957 35.445h-.77"/><path d="M216.941 32.954h3.736l2.491 2.491-2.49 2.49h-3.737zM223.168 32.954h2.49l2.491 2.491-2.49 2.49h-2.491l2.49-2.49zM228.15 32.954h2.49l2.49 2.491-2.49 2.49h-2.49l2.49-2.49z" fill="#99f"/><path d="M179.652 14.322H8.964a3.985 3.985 0 0 0-3.985 3.985v34.276c0 2.2 1.784 3.985 3.985 3.985h170.688c2.2 0 3.985-1.784 3.985-3.985V18.307c0-2.2-1.785-3.985-3.985-3.985zM4.979 56.568" fill="#ffe6cc"/><symbol id="e"><path d="M0 .687V.635h.107V.053H0V.001h.355L.429 0C.616 0 .82.089.82.34a.337.337 0 0 1-.324.345C.473.687.45.687.428.687H0M.251.053v.582h.172C.514.635.612.59.645.5A.428.428 0 0 0 .666.349C.666.26.664.16.579.098.52.056.444.053.374.053H.251z"/></symbol><symbol id="f"><path d="M.004.443V.391h.019C.045.391.066.388.066.36V.052H0V0l.069.003h.11L.241 0v.052H.182v.399h-.14L.004.443m.098.252A.082.082 0 0 1 .031.614C.031.57.07.535.113.535H.12a.082.082 0 0 1 .071.081.082.082 0 0 1-.082.079H.102z"/></symbol><symbol id="g"><path d="M0 .449V.397h.05C.068.397.069.383.074.373L.241.04C.254.014.263 0 .296 0c.034 0 .04.024.051.045l.159.319C.519.392.53.397.585.397v.052L.542.446H.465L.412.449V.397C.425.397.451.396.453.388V.386C.453.38.448.373.446.369L.339.155C.335.147.33.139.327.13H.325L.192.397H.24v.052L.17.446H.06L0 .449z"/></symbol><symbol id="h"><path d="M.136.219h.327c.024 0 .029.012.029.028C.492.364.426.462.26.462A.279.279 0 0 1 .063.391.221.221 0 0 1 0 .233C0 .069.146 0 .281 0 .36 0 .452.027.488.107c.002.005.004.01.004.016-.001.016-.016.02-.029.02C.44.143.441.132.425.106.394.063.339.047.289.047.241.047.191.064.163.105a.207.207 0 0 0-.027.114m0 .039c.001.04.005.083.03.116A.122.122 0 0 0 .265.42C.358.42.393.337.393.258H.136z"/></symbol><symbol id="i"><path d="M0 .443V.391h.023C.045.391.066.388.066.359V.052H0V0l.065.003h.199v.049H.182v.175C.187.304.22.407.31.409A.073.073 0 0 1 .294.364c0-.037.028-.066.065-.066.034 0 .067.025.067.066 0 .057-.057.082-.104.087h-.01A.153.153 0 0 1 .17.341l-.001.11H.057L0 .443z"/></symbol><symbol id="j"><path d="M.078.4A.144.144 0 0 1 .045.313c0-.037.014-.075.042-.098C.047.205 0 .178 0 .128 0 .083.038.051.075.034A.447.447 0 0 1 .27 0c.102 0 .273.015.273.135 0 .138-.152.154-.261.154H.174C.136.289.102.31.102.35c0 .002 0 .024.009.027h.002C.119.377.136.369.146.365A.301.301 0 0 1 .225.354c.078 0 .183.014.215.103a.116.116 0 0 1 .009.041c0 .04-.011.066-.04.1.02.007.038.016.059.018A.085.085 0 0 1 .464.593c0-.028.024-.047.048-.047a.05.05 0 0 1 .049.049C.561.631.528.66.493.66A.196.196 0 0 1 .396.634C.391.63.384.624.378.623H.376C.368.623.344.638.328.642a.38.38 0 0 1-.095.011H.22C.134.65.026.607.026.504.026.466.046.419.078.4M.094.123.093.13c0 .049.056.055.093.055H.3C.353.185.443.183.45.133V.13C.45.088.406.067.373.056A.34.34 0 0 0 .268.043c-.061 0-.164.013-.174.08m.049.359v.026c0 .028.002.061.025.08A.104.104 0 0 0 .237.61C.284.61.325.59.331.537L.332.502C.332.474.331.442.31.421A.102.102 0 0 0 .24.396a.11.11 0 0 0-.078.028C.148.44.145.461.143.482z"/></symbol><symbol id="k"><path d="M0 .443V.391h.023C.045.391.066.388.066.359V.052H0V0l.067.003h.116L.254 0v.052H.188v.154L.187.247a.16.16 0 0 0 .161.162c.044 0 .057-.04.057-.098V.052H.339V0l.067.003h.116L.593 0v.052H.527v.239a.19.19 0 0 1-.02.1c-.03.051-.093.06-.148.06C.289.451.205.413.177.349L.176.451H.059L0 .443z"/></symbol><symbol id="l"><path d="M.152.642C.152.556.106.441 0 .441V.399h.086V.143c0-.032.002-.063.022-.09C.142.008.205 0 .254 0 .33 0 .385.052.385.139L.384.181H.328V.14C.328.104.32.047.266.047.217.047.208.092.208.135v.264h.156v.052H.208v.191H.152z"/></symbol><use xlink:href="#e" transform="matrix(7.9701 0 0 -7.9701 73.759 24.111)"/><use xlink:href="#f" transform="matrix(7.9701 0 0 -7.9701 81.306 24.103)"/><use xlink:href="#g" transform="matrix(7.9701 0 0 -7.9701 83.793 24.143)"/><use xlink:href="#h" transform="matrix(7.9701 0 0 -7.9701 88.703 24.159)"/><use xlink:href="#i" transform="matrix(7.9701 0 0 -7.9701 93.27 24.103)"/><use xlink:href="#j" transform="matrix(7.9701 0 0 -7.9701 97.207 25.713)"/><use xlink:href="#h" transform="matrix(7.9701 0 0 -7.9701 102.084 24.159)"/><use xlink:href="#k" transform="matrix(7.9701 0 0 -7.9701 106.723 24.103)"/><use xlink:href="#l" transform="matrix(7.9701 0 0 -7.9701 111.617 24.159)"/><symbol id="m"><path d="M.488.402.482.415a6.978 6.978 0 0 0 .247.178.3.3 0 0 0 .133.057C.87.651.884.652.884.67.883.677.877.683.87.683L.834.68h-.04a.74.74 0 0 0-.051.001L.69.683c-.007 0-.021 0-.021-.019C.669.663.67.651.685.65.693.649.709.647.709.635.709.619.689.602.687.601L.679.594a.063.063 0 0 0-.012-.01L.259.288l.079.317C.347.641.349.65.422.65c.02 0 .032 0 .032.019C.454.67.453.683.437.683L.375.68H.312C.216.68.19.683.183.683c-.005 0-.02 0-.02-.019C.163.65.175.65.192.65.225.65.254.65.254.634L.25.616.116.079C.107.041.105.033.031.033.012.033 0 .033 0 .014 0 .01.003 0 .016 0l.062.003h.129L.271 0c.005 0 .02 0 .02.018 0 .015-.012.015-.029.015-.007 0-.021 0-.038.002C.203.037.2.039.2.049.2.055.207.08.21.096l.038.151.161.116.12-.247.019-.039C.554.067.554.065.554.061.554.034.517.033.506.033c-.01 0-.024 0-.024-.019C.482.013.483 0 .499 0l.057.003h.058C.706.003.703 0 .716 0 .72 0 .735 0 .735.019c0 .014-.014.014-.02.014C.676.034.663.041.647.075L.488.402z"/></symbol><use xlink:href="#m" transform="matrix(7.9701 0 0 -7.9701 37.429 45.144)"/><symbol id="n"><path d="M.672.212c.015 0 .035 0 .035.023S.683.258.668.258H.039C.024.258 0 .258 0 .235S.02.212.035.212h.637M.668 0c.015 0 .039 0 .039.023S.687.046.672.046H.035C.02.046 0 .046 0 .023S.024 0 .039 0h.629z"/></symbol><use xlink:href="#n" transform="matrix(7.9701 0 0 -7.9701 47.565 44.18)"/><symbol id="o"><path d="M.433 2.082c.002.003.002.006.002.008l-.002.006c-.003.003-.006.003-.006.003H.405c-.003 0-.006 0-.008-.003C.103 1.838 0 1.439 0 1.048 0 .66.103.261.397.003.399 0 .402 0 .405 0h.022S.43 0 .433.003a.012.012 0 0 1 .002.006c0 .003 0 .005-.002.008C.161.28.078.668.078 1.048c0 .383.083.771.355 1.034z"/></symbol><use xlink:href="#o" transform="matrix(7.9701 0 0 -7.9701 57.412 50.76)"/><symbol id="p"><path d="M.218.637c0 .027-.002.028-.029.028C.148.625.095.601 0 .601V.568c.027 0 .081 0 .139.027V.082C.139.045.136.033.041.033H.006V0c.041.003.127.003.172.003C.223.003.31.003.351 0v.033H.316C.221.033.218.045.218.082v.555z"/></symbol><use xlink:href="#p" transform="matrix(7.9701 0 0 -7.9701 62.112 45.144)"/><symbol id="q"><path d="M.611 0c.016 0 .038 0 .038.023S.627.046.611.046H.038C.022.046 0 .046 0 .023S.022 0 .038 0h.573z"/></symbol><use xlink:href="#q" transform="matrix(7.9701 0 0 -7.9701 68.164 43.335)"/><use xlink:href="#a" transform="matrix(7.9701 0 0 -7.9701 77.581 39.761)"/><use xlink:href="#b" transform="matrix(5.9776 0 0 -5.9776 83 40.701)"/><path stroke-width=".359" stroke-miterlimit="10" fill="none" stroke="#000" d="M77.127 43.152h9.301"/><use xlink:href="#a" transform="matrix(7.9701 0 0 -7.9701 77.581 51.282)"/><use xlink:href="#c" transform="matrix(5.9776 0 0 -5.9776 82.707 52.222)"/><symbol id="r"><path d="M.039 2.096c-.003.003-.006.003-.006.003H.011c-.003 0-.006 0-.008-.003C0 2.093 0 2.09 0 2.09c0-.002 0-.005.003-.008.271-.263.354-.651.354-1.034C.357.668.274.28.003.017 0 .014 0 .012 0 .009c0 0 0-.003.003-.006C.005 0 .008 0 .011 0h.022s.003 0 .006.003C.333.261.435.66.435 1.048c0 .391-.102.79-.396 1.048z"/></symbol><use xlink:href="#r" transform="matrix(7.9701 0 0 -7.9701 88.023 50.76)"/><use xlink:href="#c" transform="matrix(5.9776 0 0 -5.9776 93.367 36.487)"/><symbol id="s"><path d="M.06.043A.165.165 0 0 1 .174 0c.079 0 .175.029.175.141v.007C.344.209.295.252.241.27.183.288.055.282.055.359c0 .058.076.071.118.071C.234.43.284.4.291.329.291.321.292.31.306.31c.013 0 .017.011.017.022L.322.35v.09c0 .008-.005.015-.014.015C.29.455.281.431.27.431H.268C.253.436.239.446.221.45a.231.231 0 0 1-.046.005C.104.455.001.434.001.328V.321C.004.285.027.26.055.239.133.187.283.22.295.119.295.049.233.028.177.028.102.028.049.082.036.151.033.161.033.176.017.176.002.176.001.166.001.157V.034L0 .02C0 .01.003 0 .014 0c.009 0 .018.011.023.017l.006.006.017.02z"/></symbol><symbol id="t"><path d="M.004.429V.396H.02C.052.396.076.39.076.347V.075C.076.034.05.033 0 .033V0l.061.003h.101L.218 0v.033H.204C.175.033.15.035.15.069V.44L.113.437.004.429M.09.67A.055.055 0 0 1 .096.56C.13.56.153.587.153.616a.055.055 0 0 1-.054.055L.09.67z"/></symbol><use xlink:href="#s" transform="matrix(7.9701 0 0 -7.9701 107.237 45.216)"/><use xlink:href="#t" transform="matrix(7.9701 0 0 -7.9701 110.632 45.136)"/><symbol id="u"><path d="M.628.289C.64.295.649.301.649.314.649.327.64.333.628.339L.041.621C.028.628.026.628.023.628A.023.023 0 0 1 0 .605C0 .592.009.586.021.58L.573.314.021.048C.009.042 0 .036 0 .023 0 .01.01 0 .023 0c.003 0 .005 0 .018.007l.587.282z"/></symbol><use xlink:href="#d" transform="matrix(7.9701 0 0 -7.9701 115.829 45.224)"/><use xlink:href="#u" transform="matrix(7.9701 0 0 -7.9701 123.966 45.654)"/><symbol id="v"><path d="M.229.204c.016.015.058.048.074.062.062.057.121.112.121.203 0 .119-.1.196-.225.196C.079.665 0 .574 0 .485 0 .436.039.429.053.429c.021 0 .052.015.052.053 0 .052-.05.052-.062.052a.155.155 0 0 0 .145.098C.281.632.329.553.329.469.329.365.256.289.138.168L.012.038C0 .027 0 .025 0 0h.395l.029.179H.393A.316.316 0 0 0 .37.09C.364.082.288.082.272.082H.094l.135.122z"/></symbol><use xlink:href="#v" transform="matrix(7.9701 0 0 -7.9701 132.631 45.144)"/><use xlink:href="#v" transform="matrix(7.9701 0 0 -7.9701 136.864 45.144)"/><symbol id="w"><path d="M.095.208A.236.236 0 0 0 .019.024C.015.021.013.019.013.014.013.006.021 0 .028 0 .04 0 .123.079.123.196.123.26.099.304.055.304A.054.054 0 0 1 0 .249C0 .221.019.193.056.193c.024 0 .039.014.039.015z"/></symbol><use xlink:href="#w" transform="matrix(7.9701 0 0 -7.9701 141.41 46.682)"/><symbol id="x"><path d="M.087.583A.36.36 0 0 1 .182.569c.125 0 .201.088.201.103 0 .011-.007.014-.012.014-.002 0-.004 0-.013-.005a.382.382 0 0 0-.278 0C.07.686.068.686.067.686.054.686.054.675.054.657V.364c0-.018 0-.03.016-.03.008 0 .011.004.016.012.012.015.05.066.135.066.056 0 .083-.046.092-.065A.293.293 0 0 0 .332.226.25.25 0 0 0 .303.091.134.134 0 0 0 .191.03a.162.162 0 0 0-.152.106l.01-.001c.028 0 .05.018.05.049 0 .037-.029.05-.049.05C.032.234 0 .224 0 .181 0 .091.078 0 .193 0c.125 0 .231.097.231.221C.424.337.34.44.222.44A.198.198 0 0 1 .087.39v.193z"/></symbol><use xlink:href="#x" transform="matrix(7.9701 0 0 -7.9701 143.451 45.311)"/><symbol id="y"><path d="M.452.227a.226.226 0 1 1-.452 0 .226.226 0 1 1 .452 0M.226.052a.174.174 0 0 0-.174.175.174.174 0 1 0 .348 0A.174.174 0 0 0 .226.052z"/></symbol><use xlink:href="#y" transform="matrix(5.9776 0 0 -5.9776 147.819 41.696)"/><path d="M213.976 82.176h28.347l8.628 4.981h28.347v9.963H250.95l-8.628 4.981h-28.347z" fill="#ccf"/><path stroke-width="1.196" stroke-miterlimit="10" fill="none" stroke="#000" d="M213.976 82.176h28.347l8.628 4.981h28.347M213.976 102.101h28.347l8.628-4.981h28.347"/><path stroke-width=".399" stroke-miterlimit="10" fill="none" stroke="#000" d="M218.957 77.194v2.99"/><path d="m218.957 82.176 1.594-3.188-1.594 1.195-1.594-1.195"/><use xlink:href="#a" transform="matrix(7.9701 0 0 -7.9701 214.761 73.265)"/><use xlink:href="#b" transform="matrix(5.9776 0 0 -5.9776 220.18 74.205)"/><path stroke-width=".399" stroke-miterlimit="10" fill="none" stroke="#000" d="M218.957 104.094v2.989"/><path d="m218.957 102.101-1.594 3.188 1.594-1.195 1.594 1.195"/><path stroke-width=".399" stroke-miterlimit="10" fill="none" stroke="#000" d="M273.504 77.194v7.97"/><path d="m273.504 87.157 1.594-3.188-1.594 1.196-1.594-1.196"/><use xlink:href="#a" transform="matrix(7.9701 0 0 -7.9701 269.307 73.265)"/><use xlink:href="#c" transform="matrix(5.9776 0 0 -5.9776 274.433 74.205)"/><path stroke-width=".399" stroke-miterlimit="10" fill="none" stroke="#000" d="M273.504 99.113v7.97"/><path d="m273.504 97.12-1.594 3.188 1.594-1.195 1.594 1.195"/><path stroke-width=".399" stroke-dasharray="2.98883,2.98883" stroke-miterlimit="10" fill="none" stroke="#000" d="m242.323 102.101-24.55 14.174"/><path stroke-width=".399" stroke-miterlimit="10" fill="none" stroke="#000" d="M232.36 102.101c0 1.749.46 3.468 1.335 4.982"/><use xlink:href="#d" transform="matrix(7.9701 0 0 -7.9701 224.884 107.304)"/><path stroke-width="4.981" stroke-miterlimit="10" fill="none" stroke="#99f" d="M218.957 92.139h-.77"/><path d="M216.941 89.648h3.736l2.491 2.49-2.49 2.491h-3.737zM223.168 89.648h2.49l2.491 2.49-2.49 2.491h-2.491l2.49-2.49zM228.15 89.648h2.49l2.49 2.49-2.49 2.491h-2.49l2.49-2.49z" fill="#99f"/><path d="M179.652 71.016H8.964A3.985 3.985 0 0 0 4.979 75v34.276c0 2.2 1.784 3.985 3.985 3.985h170.688c2.2 0 3.985-1.784 3.985-3.985V75c0-2.201-1.785-3.985-3.985-3.985zM4.979 113.262" fill="#ffe6cc"/><symbol id="z"><path d="M.401.714.328.707C.157.68 0 .561 0 .357 0 .271.03.186.089.124A.46.46 0 0 1 .426 0C.552 0 .705.058.74.189A.175.175 0 0 1 .748.24c0 .013-.002.025-.024.025H.715C.703.265.692.261.692.244V.237C.681.116.558.052.447.052a.308.308 0 0 0-.216.077C.172.188.16.278.16.357c0 .061.006.129.037.184.046.08.138.116.226.12h.023A.234.234 0 0 0 .681.458C.684.442.692.437.707.437h.014c.015 0 .027.003.027.022v.23c0 .013-.004.026-.022.026C.712.715.702.703.692.695L.657.664C.652.659.643.649.637.649H.635c-.004 0-.014.008-.02.012A.335.335 0 0 1 .43.714H.401z"/></symbol><symbol id="A"><path d="M.251.462A.305.305 0 0 1 .072.396.232.232 0 0 1 0 .226C0 .165.024.106.07.064A.297.297 0 0 1 .27 0c.127 0 .273.062.273.225a.237.237 0 0 1-.054.152C.434.443.346.462.264.462H.251M.136.197v.05c0 .071.002.174.136.174.071 0 .124-.037.133-.118C.407.28.407.257.407.234V.217C.407.174.405.122.379.09A.138.138 0 0 0 .272.047C.231.047.189.059.163.092.139.122.14.161.136.197z"/></symbol><use xlink:href="#z" transform="matrix(7.9701 0 0 -7.9701 70.468 80.908)"/><use xlink:href="#A" transform="matrix(7.9701 0 0 -7.9701 77.25 80.852)"/><use xlink:href="#k" transform="matrix(7.9701 0 0 -7.9701 82.296 80.796)"/><use xlink:href="#g" transform="matrix(7.9701 0 0 -7.9701 87.245 80.836)"/><use xlink:href="#h" transform="matrix(7.9701 0 0 -7.9701 92.155 80.852)"/><use xlink:href="#i" transform="matrix(7.9701 0 0 -7.9701 96.721 80.796)"/><use xlink:href="#j" transform="matrix(7.9701 0 0 -7.9701 100.659 82.406)"/><use xlink:href="#h" transform="matrix(7.9701 0 0 -7.9701 105.536 80.852)"/><use xlink:href="#k" transform="matrix(7.9701 0 0 -7.9701 110.175 80.796)"/><use xlink:href="#l" transform="matrix(7.9701 0 0 -7.9701 115.069 80.852)"/><use xlink:href="#m" transform="matrix(7.9701 0 0 -7.9701 21.258 101.837)"/><use xlink:href="#n" transform="matrix(7.9701 0 0 -7.9701 31.394 100.873)"/><use xlink:href="#p" transform="matrix(7.9701 0 0 -7.9701 41.823 96.287)"/><path stroke-width=".359" stroke-miterlimit="10" fill="none" stroke="#000" d="M41.058 99.844h4.234"/><use xlink:href="#v" transform="matrix(7.9701 0 0 -7.9701 41.48 107.807)"/><use xlink:href="#o" transform="matrix(7.9701 0 0 -7.9701 49.278 107.453)"/><use xlink:href="#p" transform="matrix(7.9701 0 0 -7.9701 53.978 101.837)"/><use xlink:href="#q" transform="matrix(7.9701 0 0 -7.9701 60.03 100.028)"/><use xlink:href="#a" transform="matrix(7.9701 0 0 -7.9701 69.447 96.454)"/><use xlink:href="#c" transform="matrix(5.9776 0 0 -5.9776 74.573 97.394)"/><path stroke-width=".359" stroke-miterlimit="10" fill="none" stroke="#000" d="M68.993 99.844h9.301"/><use xlink:href="#a" transform="matrix(7.9701 0 0 -7.9701 69.447 107.974)"/><use xlink:href="#b" transform="matrix(5.9776 0 0 -5.9776 74.866 108.914)"/><use xlink:href="#r" transform="matrix(7.9701 0 0 -7.9701 79.889 107.453)"/><use xlink:href="#c" transform="matrix(5.9776 0 0 -5.9776 85.233 93.179)"/><symbol id="B"><path d="M.338.11.149.498C.144.509.14.514.132.514.128.514.126.513.116.506L.014.435C0 .426 0 .421 0 .418 0 .412.005.404.014.404c.004 0 .006 0 .018.01l.05.035.21-.431C.301 0 .305 0 .315 0c.017 0 .02.005.028.021l.483.937c.008.014.008.016.008.02 0 .012-.01.023-.023.023S.794.993.787.98L.338.11z"/></symbol><use xlink:href="#B" transform="matrix(7.9701 0 0 -7.9701 90.955 102.361)"/><path stroke-width=".359" stroke-miterlimit="10" fill="none" stroke="#000" d="M97.422 94.571h17.248"/><symbol id="C"><path d="M.321.43c0 .016 0 .026-.013.026C.303.456.3.456.284.44.282.439.273.43.27.43.269.43.267.43.261.434a.16.16 0 0 1-.09.022C.031.456 0 .38 0 .332 0 .282.037.253.04.25.08.22.103.216.17.204.217.195.294.181.294.113.294.074.268.028.176.028c-.101 0-.13.078-.143.131C.029.172.028.177.016.177 0 .177 0 .169 0 .15V.026C0 .01 0 0 .013 0 .019 0 .02.001.038.02l.021.023A.165.165 0 0 1 .177 0c.127 0 .171.073.171.139C.348.187.319.257.2.279a1.245 1.245 0 0 1-.068.012C.101.298.054.319.054.359c0 .03.022.072.117.072.112 0 .117-.082.119-.11C.291.313.298.31.305.31c.016 0 .016.007.016.026V.43z"/></symbol><symbol id="D"><path d="M.153.616a.056.056 0 0 1-.056.056.056.056 0 1 1 .056-.056M.003.43V.397C.067.397.076.391.076.342V.078C.076.033.064.033 0 .033V0c.039.003.095.003.11.003.013 0 .073 0 .108-.003v.033C.153.033.149.038.149.077v.364L.003.43z"/></symbol><symbol id="E"><path d="M.445.303c0 .084-.038.138-.143.138A.173.173 0 0 1 .146.345H.145v.096L0 .43V.397C.068.397.076.39.076.341V.078C.076.033.064.033 0 .033V0c.043.003.087.003.114.003.029 0 .071 0 .114-.003v.033c-.064 0-.076 0-.076.045v.181c0 .105.08.154.141.154C.354.413.369.37.369.307V.078C.369.033.357.033.293.033V0C.336.003.38.003.407.003.436.003.478.003.521 0v.033c-.064 0-.076 0-.076.045v.225z"/></symbol><use xlink:href="#C" transform="matrix(7.9701 0 0 -7.9701 97.701 101.917)"/><use xlink:href="#D" transform="matrix(7.9701 0 0 -7.9701 101.096 101.837)"/><use xlink:href="#E" transform="matrix(7.9701 0 0 -7.9701 103.44 101.837)"/><use xlink:href="#d" transform="matrix(7.9701 0 0 -7.9701 109.582 101.917)"/><use xlink:href="#s" transform="matrix(7.9701 0 0 -7.9701 123.407 101.909)"/><use xlink:href="#t" transform="matrix(7.9701 0 0 -7.9701 126.802 101.829)"/><use xlink:href="#d" transform="matrix(7.9701 0 0 -7.9701 132 101.917)"/><use xlink:href="#u" transform="matrix(7.9701 0 0 -7.9701 140.137 102.347)"/><use xlink:href="#v" transform="matrix(7.9701 0 0 -7.9701 148.801 101.837)"/><use xlink:href="#v" transform="matrix(7.9701 0 0 -7.9701 153.034 101.837)"/><use xlink:href="#w" transform="matrix(7.9701 0 0 -7.9701 157.581 103.375)"/><use xlink:href="#x" transform="matrix(7.9701 0 0 -7.9701 159.622 102.004)"/><use xlink:href="#y" transform="matrix(5.9776 0 0 -5.9776 163.99 98.389)"/><path d="M213.976 140.862h34.016l29.459 17.008-7.97 13.805-25.887-14.946-29.618.073z" fill="#ccf"/><path stroke-width="1.196" stroke-miterlimit="10" fill="none" stroke="#000" d="M213.976 140.862h34.016l29.459 17.008M213.976 156.802h29.892l25.886 14.946"/><path stroke-width=".399" stroke-dasharray="6.97394,.99628,.99628,.99628" stroke-miterlimit="10" fill="none" stroke="#000" d="M213.976 148.832H245.9l27.647 15.962"/><path stroke-width=".399" stroke-dasharray="2.98883,2.98883" stroke-miterlimit="10" fill="none" stroke="#000" d="M247.992 140.862h28.347"/><path stroke-width=".399" stroke-miterlimit="10" fill="none" stroke="#000" d="M257.955 140.862c0 1.748-.46 3.467-1.335 4.981"/><use xlink:href="#d" transform="matrix(7.9701 0 0 -7.9701 260.693 146.064)"/><path stroke-width="4.981" stroke-miterlimit="10" fill="none" stroke="#99f" d="M218.957 148.832h-.77"/><path d="M216.941 146.342h3.736l2.491 2.49-2.49 2.49h-3.737zM223.168 146.342h2.49l2.491 2.49-2.49 2.49h-2.491l2.49-2.49zM228.15 146.342h2.49l2.49 2.49-2.49 2.49h-2.49l2.49-2.49z" fill="#99f"/><path d="M179.652 133.909H8.964a3.985 3.985 0 0 0-3.985 3.985v29.847c0 2.2 1.784 3.985 3.985 3.985h170.688c2.2 0 3.985-1.784 3.985-3.985v-29.847c0-2.2-1.785-3.985-3.985-3.985zM4.979 171.726" fill="#ffe6cc"/><symbol id="F"><path d="M0 .45V.398h.02C.04.398.062.396.066.375V.142c0-.026.001-.051.013-.074C.113.001.209 0 .267 0 .323 0 .38.022.41.07L.411 0h.138l.044.007v.052h-.02C.549.059.527.062.527.091v.367H.379L.339.45V.398l.023.001C.383.399.405.395.405.368V.153C.399.084.341.042.273.042h-.01c-.022 0-.062.002-.07.029C.188.084.188.098.188.111v.347H.04L0 .45z"/></symbol><symbol id="G"><path d="M.344.693V.641h.023C.389.641.41.638.41.608V.415a.26.26 0 0 1-.141.043C.144.458 0 .394 0 .228 0 .078.124 0 .255 0c.056 0 .103.018.149.048V0h.143l.045.007v.052L.567.058C.545.058.526.063.526.093v.608H.383L.344.693M.136.191v.046c0 .072.014.179.139.179A.161.161 0 0 0 .394.365C.398.36.403.355.404.349V.133A.035.035 0 0 0 .398.111.17.17 0 0 0 .265.042C.197.042.149.087.139.155L.136.191z"/></symbol><symbol id="H"><path d="M0 .693V.641l.025.001C.047.642.066.637.066.607v-.6h.055l.048.055C.199.025.257.004.307 0h.012C.39 0 .465.016.521.065a.224.224 0 0 1 .071.167c0 .134-.108.226-.255.226A.297.297 0 0 1 .182.412v.289H.039L0 .693M.455.197C.451.154.449.118.421.085A.139.139 0 0 0 .317.042a.152.152 0 0 0-.123.064.04.04 0 0 0-.006.023v.217C.19.361.214.378.229.387a.184.184 0 0 0 .097.029c.109 0 .13-.093.13-.173V.22L.455.197z"/></symbol><symbol id="I"><path d="M.172.463C.161.461.149.461.138.46.066.449 0 .409 0 .33 0 .187.219.199.282.169c.02-.01.04-.028.041-.052C.323.052.251.043.205.043.146.043.088.064.063.131.056.146.058.166.031.166H.025C.003.166 0 .155 0 .142V.026C0 .013.002.001.021.001c.024 0 .044.028.059.028h.001C.088.028.094.023.1.02A.256.256 0 0 1 .206 0C.295 0 .4.035.4.149.4.26.286.289.191.305.16.31.077.317.077.366c0 .05.065.057.095.059A.253.253 0 0 0 .2.426C.245.426.302.413.312.362.317.341.313.328.34.328h.005C.368.328.37.337.37.352v.085C.37.449.367.464.349.464.331.464.318.45.303.447.298.447.292.45.287.452L.26.458a.314.314 0 0 1-.061.005H.172z"/></symbol><symbol id="J"><path d="M.404.24V.052H.338V0l.067.003h.116L.592 0v.052H.526v.593H.485C.47.645.468.632.462.623L.441.59A.176.176 0 0 1 .427.567a.206.206 0 0 1-.164.078C.136.645 0 .572 0 .416 0 .28.105.187.258.187c.054 0 .105.019.146.053M.136.397v.012c0 .08.03.189.142.189A.145.145 0 0 0 .41.483V.336C.41.308.37.267.339.249a.153.153 0 0 0-.072-.02C.173.229.144.321.136.397z"/></symbol><use xlink:href="#z" transform="matrix(7.9701 0 0 -7.9701 62.929 143.8)"/><use xlink:href="#A" transform="matrix(7.9701 0 0 -7.9701 69.712 143.745)"/><use xlink:href="#F" transform="matrix(7.9701 0 0 -7.9701 74.757 143.745)"/><use xlink:href="#G" transform="matrix(7.9701 0 0 -7.9701 80.065 143.745)"/><use xlink:href="#h" transform="matrix(7.9701 0 0 -7.9701 85.429 143.745)"/><use xlink:href="#H" transform="matrix(7.9701 0 0 -7.9701 92.817 143.745)"/><use xlink:href="#i" transform="matrix(7.9701 0 0 -7.9701 98.237 143.689)"/><use xlink:href="#F" transform="matrix(7.9701 0 0 -7.9701 102.341 143.745)"/><use xlink:href="#I" transform="matrix(7.9701 0 0 -7.9701 107.65 143.753)"/><use xlink:href="#J" transform="matrix(7.9701 0 0 -7.9701 111.499 145.235)"/><use xlink:href="#F" transform="matrix(7.9701 0 0 -7.9701 116.759 143.745)"/><use xlink:href="#h" transform="matrix(7.9701 0 0 -7.9701 122.011 143.745)"/><use xlink:href="#m" transform="matrix(7.9701 0 0 -7.9701 49.85 161.465)"/><use xlink:href="#n" transform="matrix(7.9701 0 0 -7.9701 59.986 160.5)"/><use xlink:href="#C" transform="matrix(7.9701 0 0 -7.9701 68.73 161.545)"/><use xlink:href="#D" transform="matrix(7.9701 0 0 -7.9701 72.125 161.465)"/><use xlink:href="#E" transform="matrix(7.9701 0 0 -7.9701 74.468 161.465)"/><use xlink:href="#c" transform="matrix(5.9776 0 0 -5.9776 79.282 158.154)"/><use xlink:href="#d" transform="matrix(7.9701 0 0 -7.9701 84.766 161.545)"/><symbol id="K"><path d="M.377.331h.294c.014 0 .036 0 .036.023S.685.377.671.377H.377v.295c0 .014 0 .036-.023.036S.331.686.331.672V.377H.036C.022.377 0 .377 0 .354S.022.331.036.331h.295V.036C.331.022.331 0 .354 0s.023.022.023.036v.295z"/></symbol><use xlink:href="#K" transform="matrix(7.9701 0 0 -7.9701 92.206 162.294)"/><use xlink:href="#v" transform="matrix(7.9701 0 0 -7.9701 100.623 161.465)"/><use xlink:href="#C" transform="matrix(7.9701 0 0 -7.9701 106.122 161.545)"/><use xlink:href="#D" transform="matrix(7.9701 0 0 -7.9701 109.517 161.465)"/><use xlink:href="#E" transform="matrix(7.9701 0 0 -7.9701 111.86 161.465)"/><symbol id="L"><path d="M.518.164v.039H.401v.442c0 .023 0 .03-.025.03C.358.675.356.672.347.66L0 .203V.164h.311v-.08c0-.033 0-.045-.084-.045H.198V0c.02.001.114.004.158.004S.494.001.514 0v.039H.485C.401.039.401.051.401.084v.08h.117m-.2.402V.203H.043l.275.363z"/></symbol><use xlink:href="#L" transform="matrix(5.9776 0 0 -5.9776 116.522 158.154)"/><symbol id="M"><path d="M.335.011.347 0h.022C.372 0 .38.001.38.01.38.014.378.016.376.019A.847.847 0 0 0 .224.22C.116.412.076.659.076.899c0 .444.126.705.301.882.003.003.003.006.003.008 0 .01-.007.01-.019.01-.013 0-.015 0-.024-.008a.956.956 0 0 1-.271-.432A1.518 1.518 0 0 1 0 .9C0 .663.043.395.2.163.227.124.264.083.264.082A.393.393 0 0 1 .296.047L.335.011z"/></symbol><use xlink:href="#M" transform="matrix(7.9701 0 0 -7.9701 123.244 166.558)"/><use xlink:href="#d" transform="matrix(7.9701 0 0 -7.9701 128.116 155.995)"/><path stroke-width=".359" stroke-miterlimit="10" fill="none" stroke="#000" d="M127.765 159.473h5.439"/><use xlink:href="#v" transform="matrix(7.9701 0 0 -7.9701 128.79 167.436)"/><symbol id="N"><path d="M.38.9c0 .287-.067.592-.264.817a1.049 1.049 0 0 1-.075.076c-.007.006-.009.006-.022.006-.01 0-.019 0-.019-.01 0-.004.004-.008.006-.01.034-.035.088-.09.15-.2C.264 1.387.304 1.14.304.9c0-.434-.12-.699-.3-.882C.002.016 0 .013 0 .01 0 0 .009 0 .019 0c.013 0 .015 0 .024.008A.956.956 0 0 1 .314.44C.358.577.38.739.38.9z"/></symbol><use xlink:href="#N" transform="matrix(7.9701 0 0 -7.9701 134.686 166.558)"/><path d="M213.976 197.556h17.008a29.891 29.891 0 0 1 25.884 14.944l8.504 14.729-13.804 7.97-8.505-14.729a13.95 13.95 0 0 0-12.079-6.974h-17.008z" fill="#ccf"/><path stroke-width="1.196" stroke-miterlimit="10" fill="none" stroke="#000" d="M213.976 197.556h17.008a29.891 29.891 0 0 1 25.884 14.944l8.504 14.729M213.976 213.496h17.008a13.95 13.95 0 0 1 12.08 6.974l8.504 14.73"/><path stroke-width=".399" stroke-dasharray="6.97394,.99628,.99628,.99628" stroke-miterlimit="10" fill="none" stroke="#000" d="M213.976 205.526h17.008a21.92 21.92 0 0 1 18.982 10.959l8.504 14.73"/><path stroke-width=".399" stroke-dasharray="2.98883,2.98883" stroke-miterlimit="10" fill="none" stroke="#000" d="M230.984 197.556h42.52M230.984 197.556a29.891 29.891 0 0 1 25.884 14.944l-14.173-24.55"/><path stroke-width=".399" stroke-miterlimit="10" fill="none" stroke="#000" d="M258.183 197.556c0 3.559-1.9 6.848-4.982 8.628"/><use xlink:href="#d" transform="matrix(7.9701 0 0 -7.9701 259.19 205.753)"/><path stroke-width="4.981" stroke-miterlimit="10" fill="none" stroke="#99f" d="M218.957 205.526h-.77"/><path d="M216.941 203.035h3.736l2.491 2.49-2.49 2.492h-3.737zM223.168 203.035h2.49l2.491 2.49-2.49 2.492h-2.491l2.49-2.491zM228.15 203.035h2.49l2.49 2.49-2.49 2.492h-2.49l2.49-2.491z" fill="#99f"/><path stroke-width=".399" stroke-miterlimit="10" fill="none" stroke="#000" d="m230.984 227.444 9.166-15.876"/><path d="M241.943 208.462c-.704.821-2.085 2.018-3.286 2.704l2.588 1.495c-.006-1.384.34-3.179.698-4.199"/><symbol id="O"><path d="M.191.413A.21.21 0 0 1 0 .207C0 .112.073 0 .207 0a.207.207 0 0 1-.001.414L.191.413z"/></symbol><use xlink:href="#O" transform="matrix(7.9701 0 0 -7.9701 229.337 228.927)"/><path d="M230.062 225.469h8.42v-7.439h-8.42z" fill="#fff"/><symbol id="P"><path d="M.337.634c.009.034.01.037.051.037h.081C.551.671.628.65.628.569.628.525.605.455.559.422A.276.276 0 0 0 .396.377H.273l.064.257m.17-.273C.63.392.726.467.726.552c0 .087-.098.152-.237.152H.194c-.018 0-.031 0-.031-.019 0-.014.013-.014.029-.014.033 0 .062 0 .062-.016L.25.637.116.1C.107.062.105.054.031.054.012.054 0 .054 0 .035 0 .031.003.021.016.021l.062.003H.14C.233.024.262.021.268.021c.006 0 .02 0 .02.019 0 .014-.013.014-.03.014-.003 0-.021 0-.038.002C.199.058.197.061.197.07L.2.086l.065.263h.13C.485.349.513.301.513.26.513.246.506.218.501.197A.465.465 0 0 1 .483.11c0-.077.066-.11.14-.11.087 0 .128.098.128.117 0 .004-.003.014-.016.014C.724.131.721.122.72.118.698.049.655.028.626.028.589.028.585.056.585.089s.006.077.01.11c.004.03.004.036.004.046C.599.305.56.34.507.361z"/></symbol><use xlink:href="#P" transform="matrix(7.9701 0 0 -7.9701 231.464 224.637)"/><path stroke-width=".399" stroke-miterlimit="10" fill="none" stroke="#000" d="M208.995 199.548v11.956"/><path d="m208.995 197.556-1.594 3.188 1.594-1.196 1.594 1.196M208.995 213.496l1.594-3.188-1.594 1.196-1.594-1.196"/><path d="M205.82 209.29h6.35v-7.528h-6.35z" fill="#fff"/><symbol id="Q"><path d="M.495.674A.124.124 0 0 1 .499.69c0 .005-.004.014-.016.014L.425.699.369.695C.347.693.337.692.337.674.337.66.351.66.363.66.411.66.411.654.411.645A.63.63 0 0 0 .398.586L.349.391a.11.11 0 0 1-.099.06C.131.451 0 .312 0 .164 0 .06.067 0 .144 0c.064 0 .119.051.137.071C.299.002.367 0 .379 0c.046 0 .069.038.077.055.02.036.034.094.034.098C.49.159.486.166.474.166S.46.16.454.135C.44.08.421.028.382.028.359.028.35.047.35.075c0 .019.003.03.006.043l.139.556M.281.118C.231.049.179.028.147.028.101.028.078.07.078.122c0 .047.027.154.049.198.029.061.078.103.124.103C.316.423.335.35.335.338L.304.21C.291.163.291.161.281.118z"/></symbol><use xlink:href="#Q" transform="matrix(7.9701 0 0 -7.9701 207.159 208.37)"/><path d="M179.652 192.016H8.964a3.985 3.985 0 0 0-3.985 3.985v34.99a3.985 3.985 0 0 0 3.985 3.985h170.688c2.2 0 3.985-1.784 3.985-3.985V196c0-2.2-1.785-3.985-3.985-3.985zM4.979 234.976" fill="#ffe6cc"/><symbol id="R"><path d="M.156.413A.463.463 0 0 0 .23.42C.287.42.346.397.346.298V.275C.21.275 0 .25 0 .119 0 .014.142 0 .204 0c.051 0 .104.013.141.05a.079.079 0 0 1 .019.025C.367.062.366.051.374.04.393.009.441.007.48.007h.055c.013 0 .022.005.025.018v.012c0 .02-.016.022-.028.022H.523C.509.059.473.06.468.077v.188L.469.3c0 .12-.121.162-.213.162h-.03C.152.462.041.456.041.362c0-.033.024-.069.067-.069.037 0 .069.029.069.069a.075.075 0 0 1-.021.051m.19-.176V.149C.346.096.312.042.223.042.179.042.124.068.124.12c0 .091.141.117.222.117z"/></symbol><use xlink:href="#z" transform="matrix(7.9701 0 0 -7.9701 64.192 201.907)"/><use xlink:href="#A" transform="matrix(7.9701 0 0 -7.9701 70.975 201.85)"/><use xlink:href="#F" transform="matrix(7.9701 0 0 -7.9701 76.02 201.85)"/><use xlink:href="#G" transform="matrix(7.9701 0 0 -7.9701 81.328 201.85)"/><use xlink:href="#h" transform="matrix(7.9701 0 0 -7.9701 86.692 201.85)"/><use xlink:href="#R" transform="matrix(7.9701 0 0 -7.9701 93.984 201.85)"/><use xlink:href="#i" transform="matrix(7.9701 0 0 -7.9701 98.822 201.795)"/><use xlink:href="#i" transform="matrix(7.9701 0 0 -7.9701 102.855 201.795)"/><use xlink:href="#A" transform="matrix(7.9701 0 0 -7.9701 106.792 201.85)"/><use xlink:href="#k" transform="matrix(7.9701 0 0 -7.9701 111.837 201.795)"/><use xlink:href="#G" transform="matrix(7.9701 0 0 -7.9701 117.145 201.85)"/><use xlink:href="#f" transform="matrix(7.9701 0 0 -7.9701 122.7 201.795)"/><use xlink:href="#m" transform="matrix(7.9701 0 0 -7.9701 31.216 221.918)"/><use xlink:href="#n" transform="matrix(7.9701 0 0 -7.9701 41.352 220.954)"/><use xlink:href="#v" transform="matrix(7.9701 0 0 -7.9701 51.438 216.368)"/><use xlink:href="#d" transform="matrix(7.9701 0 0 -7.9701 55.6 216.448)"/><path stroke-width=".359" stroke-miterlimit="10" fill="none" stroke="#000" d="M51.016 219.925h9.673"/><symbol id="S"><path d="M.255.375H.37C.349.284.331.21.331.136c0-.007 0-.05.011-.086C.355.008.365 0 .383 0c.022 0 .045.019.045.043C.428.05.427.052.423.061a.386.386 0 0 0-.036.176c0 .023 0 .065.015.138h.121c.016 0 .027 0 .037.008a.044.044 0 0 1 .015.03C.575.441.55.441.533.441H.172c-.021 0-.059 0-.108-.048A.298.298 0 0 1 0 .304C0 .295.007.292.015.292c.01 0 .012.003.018.011.049.072.108.072.131.072h.058a1.767 1.767 0 0 0-.119-.3C.096.06.086.04.086.031.086.01.103 0 .119 0c.038 0 .048.038.069.12l.067.255z"/></symbol><use xlink:href="#S" transform="matrix(7.9701 0 0 -7.9701 53.51 227.968)"/><symbol id="T"><path d="M.042.042v2.616h.219V2.7H0V0h.261v.042H.042z"/></symbol><use xlink:href="#T" transform="matrix(7.9701 0 0 -7.9701 65.488 230.692)"/><symbol id="U"><path d="M.448.34a.478.478 0 0 1-.044.236.196.196 0 0 1-.18.11C.098.686.052.592.038.564A.54.54 0 0 1 0 .34C0 .274.003.173.051.093A.199.199 0 0 1 .224 0c.048 0 .134.015.184.114.037.072.04.161.04.226M.224.028C.19.028.121.044.1.149.089.206.089.3.089.352c0 .069 0 .139.011.194.021.102.099.112.124.112C.258.658.327.641.347.55.359.495.359.42.359.352c0-.059 0-.149-.012-.205C.326.042.257.028.224.028z"/></symbol><use xlink:href="#U" transform="matrix(7.9701 0 0 -7.9701 68.05 222.085)"/><use xlink:href="#w" transform="matrix(7.9701 0 0 -7.9701 72.691 223.456)"/><symbol id="V"><path d="M.209.355C.288.355.338.297.338.192.338.067.267.03.214.03.159.03.084.05.049.103.085.103.11.126.11.159a.053.053 0 0 1-.055.055C.028.214 0 .197 0 .157 0 .062.102 0 .216 0c.133 0 .226.092.226.192 0 .083-.066.159-.168.181.079.028.138.096.138.176 0 .08-.09.137-.194.137C.111.686.03.628.03.552.03.515.055.499.081.499c.031 0 .051.022.051.051C.132.587.1.601.078.602.12.657.197.66.215.66.241.66.317.652.317.549A.193.193 0 0 0 .274.421C.244.39.221.388.16.384.141.383.133.382.133.369c0-.014.009-.014.026-.014h.05z"/></symbol><use xlink:href="#p" transform="matrix(7.9701 0 0 -7.9701 75.075 221.918)"/><use xlink:href="#V" transform="matrix(7.9701 0 0 -7.9701 78.893 222.085)"/><use xlink:href="#p" transform="matrix(7.9701 0 0 -7.9701 83.54 221.918)"/><use xlink:href="#K" transform="matrix(7.9701 0 0 -7.9701 89.358 222.747)"/><use xlink:href="#p" transform="matrix(7.9701 0 0 -7.9701 98.117 221.918)"/><use xlink:href="#w" transform="matrix(7.9701 0 0 -7.9701 102.33 223.456)"/><symbol id="W"><path d="M.288.382c.056.027.124.077.124.155 0 .095-.097.149-.19.149C.116.686.03.613.03.519a.15.15 0 0 1 .038-.1C.085.398.089.396.151.357.027.302 0 .229 0 .173 0 .063.111 0 .22 0c.123 0 .222.083.222.189a.179.179 0 0 1-.05.122C.375.327.374.328.288.382M.133.476C.104.493.08.522.08.557.08.62.149.66.22.66.298.66.362.607.362.537.362.479.317.43.258.401L.133.476M.182.339A9.7 9.7 0 0 0 .317.256C.333.247.385.215.385.155.385.078.304.03.222.03.133.03.057.091.057.173c0 .075.056.134.125.166z"/></symbol><symbol id="X"><path d="M.364.647c0 .02 0 .028-.021.028C.33.675.329.674.319.66L0 .197V.164h.282V.081C.282.044.279.033.202.033H.179V0c.085.003.087.003.144.003C.38.003.382.003.467 0v.033H.444c-.077 0-.08.011-.08.048v.083H.47v.033H.364v.45M.289.566V.197H.035l.254.369z"/></symbol><symbol id="Y"><path d="M.447.63c.009.011.009.013.009.035H.202C.177.665.146.666.121.668.069.672.068.681.065.697H.034L0 .486h.031C.033.501.044.57.058.578a.657.657 0 0 0 .101.005h.212L.268.445A.675.675 0 0 1 .13.056C.13.046.13 0 .177 0s.047.045.047.057v.048c0 .144.024.262.073.327l.15.198z"/></symbol><use xlink:href="#W" transform="matrix(7.9701 0 0 -7.9701 104.3 222.085)"/><use xlink:href="#X" transform="matrix(7.9701 0 0 -7.9701 108.421 221.918)"/><use xlink:href="#Y" transform="matrix(7.9701 0 0 -7.9701 112.884 222.085)"/><use xlink:href="#o" transform="matrix(7.9701 0 0 -7.9701 119.443 227.534)"/><use xlink:href="#Q" transform="matrix(7.9701 0 0 -7.9701 128.068 216.448)"/><path stroke-width=".359" stroke-miterlimit="10" fill="none" stroke="#000" d="M124.572 219.925h10.662"/><use xlink:href="#v" transform="matrix(7.9701 0 0 -7.9701 124.994 227.888)"/><use xlink:href="#P" transform="matrix(7.9701 0 0 -7.9701 129.213 228.055)"/><use xlink:href="#r" transform="matrix(7.9701 0 0 -7.9701 136.827 227.534)"/><symbol id="Z"><path d="M.492.625c.009.01.009.012.009.04H.243C.202.665.178.666.139.669.09.672.078.673.073.697H.036L0 .478h.037C.04.499.05.558.065.569c.008.006.094.006.109.006H.4L.311.468A.654.654 0 0 1 .146.057C.146.048.146 0 .194 0c.049 0 .049.046.049.059v.028c0 .192.041.29.091.35l.158.188z"/></symbol><use xlink:href="#Z" transform="matrix(5.9776 0 0 -5.9776 142.215 213.386)"/><symbol id="aa"><path d="M.445.952C.452.968.452.97.452.974A.026.026 0 0 1 .426 1C.409 1 .404.988.398.974L.007.048C0 .032 0 .03 0 .026 0 .012.012 0 .026 0c.017 0 .022.012.028.026l.391.926z"/></symbol><use xlink:href="#aa" transform="matrix(5.9776 0 0 -5.9776 145.952 214.754)"/><use xlink:href="#c" transform="matrix(5.9776 0 0 -5.9776 149.645 213.26)"/><symbol id="ab"><path d="M.219.042H0V0h.261v2.7H0v-.042h.219V.042z"/></symbol><use xlink:href="#ab" transform="matrix(7.9701 0 0 -7.9701 153.541 230.692)"/></svg>