<svg xmlns="http://www.w3.org/2000/svg" xmlns:xlink="http://www.w3.org/1999/xlink" width="171.023" height="91" viewBox="0 0 128.267 68.25"><defs><symbol overflow="visible" id="a"><path style="stroke:none" d="M6.047-2.047c.172 0 .344 0 .344-.203 0-.188-.188-.188-.344-.188H1.109c-.156 0-.343 0-.343.188 0 .203.171.203.343.203Zm0 0"/></symbol><symbol overflow="visible" id="b"><path style="stroke:none" d="M7.625-2.047c-1.063.75-1.281 1.938-1.281 2.031 0 .125.125.125.187.125.11 0 .172 0 .203-.125.25-1.046.86-1.75 1.844-2.109.047-.016.125-.047.125-.125s-.062-.094-.125-.125c-1.125-.422-1.64-1.219-1.844-2.094-.03-.125-.062-.125-.203-.125-.078 0-.187 0-.187.125 0 .094.218 1.282 1.281 2.032H.844c-.156 0-.328 0-.328.187 0 .203.171.203.328.203Zm0 0"/></symbol><symbol overflow="visible" id="c"><path style="stroke:none" d="M4.766-3.313c.125 0 .453 0 .453-.312 0-.234-.203-.234-.36-.234H2.75C1.39-3.86.344-2.453.344-1.344.344-.437.984.094 1.75.094c1.094 0 2.297-1.078 2.297-2.438 0-.578-.234-.922-.266-.969Zm-3 3.188c-.344 0-.829-.188-.829-.969 0-.625.36-2.218 1.657-2.218.437 0 .844.203.844.859 0 .234-.094 1.047-.516 1.625-.297.422-.75.703-1.156.703Zm0 0"/></symbol><symbol overflow="visible" id="f"><path style="stroke:none" d="M1.688-1.406c.109-.422.28-1.078.28-1.157.016-.046.25-.484.563-.796.266-.235.61-.375.953-.375.485 0 .485.468.485.625 0 .546-.422 1.64-.516 1.921-.11.266-.14.36-.14.532 0 .484.359.75.765.75.86 0 1.219-1.282 1.219-1.375 0-.047-.031-.11-.125-.11s-.11.047-.14.157c-.22.765-.595 1.109-.923 1.109-.062 0-.218 0-.218-.281 0-.235.078-.469.156-.656.172-.47.531-1.407.531-1.922 0-.797-.594-.985-1.062-.985-.829 0-1.266.594-1.422.781a.84.84 0 0 0-.86-.78c-.375 0-.578.28-.703.53-.14.313-.265.813-.265.86 0 .078.062.11.125.11.093 0 .109-.048.156-.235.172-.703.36-1.031.656-1.031.281 0 .281.28.281.421 0 .188-.078.454-.125.688-.062.234-.156.625-.187.734L.812-.42C.75-.204.75-.189.75-.157c0 .11.078.25.266.25a.402.402 0 0 0 .328-.188c.031-.047.093-.344.14-.515Zm0 0"/></symbol><symbol overflow="visible" id="g"><path style="stroke:none" d="M1.906-3.594h.86c.156 0 .265 0 .265-.156 0-.11-.094-.11-.25-.11h-.797l.36-1.5c0-.14-.11-.25-.266-.25-.297 0-.36.25-.39.344l-.344 1.407H.5c-.172 0-.281 0-.281.156 0 .11.093.11.25.11h.812L.656-1.142c-.062.266-.062.282-.062.407 0 .53.406.828.875.828.922 0 1.453-1.282 1.453-1.375 0-.047-.031-.11-.11-.11-.093 0-.109.032-.171.188-.266.64-.72 1.078-1.157 1.078-.187 0-.296-.11-.296-.406 0-.203.03-.313.062-.453Zm0 0"/></symbol><symbol overflow="visible" id="d"><path style="stroke:none" d="M1.61-2.344h.656c.109 0 .203 0 .203-.14 0-.094-.078-.094-.188-.094h-.61l.204-.828c.031-.094.031-.125.031-.125 0-.156-.11-.203-.218-.203-.063 0-.22.03-.282.234l-.234.922h-.64c-.126 0-.126 0-.157.015-.031.032-.047.11-.047.141.016.078.063.078.188.078h.609L.765-.922a2.594 2.594 0 0 0-.078.406c0 .344.313.579.672.579.688 0 1.094-.829 1.094-.922a.102.102 0 0 0-.11-.094c-.077 0-.093.031-.124.11-.203.452-.547.702-.844.702-.219 0-.219-.218-.219-.296 0-.079 0-.094.032-.204Zm0 0"/></symbol><symbol overflow="visible" id="e"><path style="stroke:none" d="M1.75-2.078c-.031-.453-.453-.563-.672-.563-.234 0-.39.141-.484.329-.156.25-.235.562-.235.593 0 .063.063.078.11.078.094 0 .11-.03.14-.125.11-.484.266-.671.454-.671.218 0 .218.234.218.296 0 .094-.062.344-.11.5-.046.172-.093.407-.124.547C1-.954.969-.797.922-.64c-.047.172-.11.47-.11.5 0 .141.094.203.204.203.109 0 .218-.078.265-.171 0-.032.063-.235.094-.36L1.5-1c.047-.156.063-.266.11-.406.046-.203.25-.516.484-.735a.977.977 0 0 1 .687-.296c.39 0 .39.296.39.421 0 .344-.25.985-.358 1.25a.769.769 0 0 0-.079.313c0 .297.266.516.594.516.61 0 .906-.797.906-.922 0-.016 0-.094-.109-.094-.078 0-.094.031-.125.156-.094.313-.344.656-.656.656-.11 0-.156-.093-.156-.218 0-.11.046-.22.093-.344.094-.235.36-.906.36-1.235 0-.5-.375-.703-.829-.703-.296 0-.671.094-1.062.563Zm0 0"/></symbol></defs><path style="fill:none;stroke-width:1.59404;stroke-linecap:butt;stroke-linejoin:miter;stroke:#000;stroke-opacity:1;stroke-miterlimit:10" d="M-56.694-28.348H56.693M-56.694 28.348H56.693" transform="matrix(1 0 0 -1 62.471 34.125)"/><path style="fill:none;stroke-width:.3985;stroke-linecap:butt;stroke-linejoin:miter;stroke:gray;stroke-opacity:1;stroke-miterlimit:10" d="M-56.694-25.512H56.693" transform="matrix(1 0 0 -1 62.471 34.125)"/><path style="fill:none;stroke-width:.79701;stroke-linecap:butt;stroke-linejoin:miter;stroke:#000;stroke-opacity:1;stroke-miterlimit:10" d="M-28.346-25.512h-22.922" transform="matrix(1 0 0 -1 62.471 34.125)"/><path style="stroke:none;fill-rule:nonzero;fill:#000;fill-opacity:1" d="m8.613 59.637 4.145 2.074-1.555-2.074 1.555-2.07"/><path style="fill:none;stroke-width:.3985;stroke-linecap:butt;stroke-linejoin:miter;stroke:gray;stroke-opacity:1;stroke-miterlimit:10" d="M-56.694-19.844H56.693" transform="matrix(1 0 0 -1 62.471 34.125)"/><path style="fill:none;stroke-width:.79701;stroke-linecap:butt;stroke-linejoin:miter;stroke:#000;stroke-opacity:1;stroke-miterlimit:10" d="M-28.346-19.844H-45.6" transform="matrix(1 0 0 -1 62.471 34.125)"/><path style="stroke:none;fill-rule:nonzero;fill:#000;fill-opacity:1" d="m14.281 53.969 4.145 2.07-1.555-2.07 1.555-2.074"/><path style="fill:none;stroke-width:.3985;stroke-linecap:butt;stroke-linejoin:miter;stroke:gray;stroke-opacity:1;stroke-miterlimit:10" d="M-56.694-14.172H56.693" transform="matrix(1 0 0 -1 62.471 34.125)"/><path style="fill:none;stroke-width:.79701;stroke-linecap:butt;stroke-linejoin:miter;stroke:#000;stroke-opacity:1;stroke-miterlimit:10" d="M-28.346-14.172h-11.582" transform="matrix(1 0 0 -1 62.471 34.125)"/><path style="stroke:none;fill-rule:nonzero;fill:#000;fill-opacity:1" d="m19.95 48.297 4.144 2.074-1.551-2.074 1.55-2.07"/><path style="fill:none;stroke-width:.3985;stroke-linecap:butt;stroke-linejoin:miter;stroke:gray;stroke-opacity:1;stroke-miterlimit:10" d="M-56.694-8.504H56.693" transform="matrix(1 0 0 -1 62.471 34.125)"/><path style="fill:none;stroke-width:.79701;stroke-linecap:butt;stroke-linejoin:miter;stroke:#000;stroke-opacity:1;stroke-miterlimit:10" d="M-28.346-8.504h-5.914" transform="matrix(1 0 0 -1 62.471 34.125)"/><path style="stroke:none;fill-rule:nonzero;fill:#000;fill-opacity:1" d="m25.621 42.629 4.145 2.074-1.555-2.074 1.555-2.07"/><path style="fill:none;stroke-width:.3985;stroke-linecap:butt;stroke-linejoin:miter;stroke:gray;stroke-opacity:1;stroke-miterlimit:10" d="M-56.694-2.836H56.693" transform="matrix(1 0 0 -1 62.471 34.125)"/><path style="fill:none;stroke-width:.79701;stroke-linecap:butt;stroke-linejoin:miter;stroke:#000;stroke-opacity:1;stroke-miterlimit:10" d="M-28.346-2.836h-.246" transform="matrix(1 0 0 -1 62.471 34.125)"/><path style="stroke:none;fill-rule:nonzero;fill:#000;fill-opacity:1" d="m31.29 36.96 4.144 2.071-1.555-2.07 1.555-2.074"/><path style="fill:none;stroke-width:.3985;stroke-linecap:butt;stroke-linejoin:miter;stroke:gray;stroke-opacity:1;stroke-miterlimit:10" d="M-56.694 25.512H56.693" transform="matrix(1 0 0 -1 62.471 34.125)"/><path style="fill:none;stroke-width:.79701;stroke-linecap:butt;stroke-linejoin:miter;stroke:#000;stroke-opacity:1;stroke-miterlimit:10" d="M-28.346 25.512h22.922" transform="matrix(1 0 0 -1 62.471 34.125)"/><path style="stroke:none;fill-rule:nonzero;fill:#000;fill-opacity:1" d="M59.637 8.613 55.492 6.54l1.555 2.074-1.555 2.07"/><path style="fill:none;stroke-width:.3985;stroke-linecap:butt;stroke-linejoin:miter;stroke:gray;stroke-opacity:1;stroke-miterlimit:10" d="M-56.694 19.844H56.693" transform="matrix(1 0 0 -1 62.471 34.125)"/><path style="fill:none;stroke-width:.79701;stroke-linecap:butt;stroke-linejoin:miter;stroke:#000;stroke-opacity:1;stroke-miterlimit:10" d="M-28.346 19.844h17.25" transform="matrix(1 0 0 -1 62.471 34.125)"/><path style="stroke:none;fill-rule:nonzero;fill:#000;fill-opacity:1" d="m53.969 14.281-4.145-2.07 1.551 2.07-1.55 2.074"/><path style="fill:none;stroke-width:.3985;stroke-linecap:butt;stroke-linejoin:miter;stroke:gray;stroke-opacity:1;stroke-miterlimit:10" d="M-56.694 14.172H56.693" transform="matrix(1 0 0 -1 62.471 34.125)"/><path style="fill:none;stroke-width:.79701;stroke-linecap:butt;stroke-linejoin:miter;stroke:#000;stroke-opacity:1;stroke-miterlimit:10" d="M-28.346 14.172h11.582" transform="matrix(1 0 0 -1 62.471 34.125)"/><path style="stroke:none;fill-rule:nonzero;fill:#000;fill-opacity:1" d="m48.297 19.953-4.145-2.074 1.555 2.074-1.555 2.07"/><path style="fill:none;stroke-width:.3985;stroke-linecap:butt;stroke-linejoin:miter;stroke:gray;stroke-opacity:1;stroke-miterlimit:10" d="M-56.694 8.504H56.693" transform="matrix(1 0 0 -1 62.471 34.125)"/><path style="fill:none;stroke-width:.79701;stroke-linecap:butt;stroke-linejoin:miter;stroke:#000;stroke-opacity:1;stroke-miterlimit:10" d="M-28.346 8.504h5.914" transform="matrix(1 0 0 -1 62.471 34.125)"/><path style="stroke:none;fill-rule:nonzero;fill:#000;fill-opacity:1" d="m42.629 25.621-4.145-2.074 1.555 2.074-1.555 2.07"/><path style="fill:none;stroke-width:.3985;stroke-linecap:butt;stroke-linejoin:miter;stroke:gray;stroke-opacity:1;stroke-miterlimit:10" d="M-56.694 2.836H56.693" transform="matrix(1 0 0 -1 62.471 34.125)"/><path style="fill:none;stroke-width:.79701;stroke-linecap:butt;stroke-linejoin:miter;stroke:#000;stroke-opacity:1;stroke-miterlimit:10" d="M-28.346 2.836h.242" transform="matrix(1 0 0 -1 62.471 34.125)"/><path style="stroke:none;fill-rule:nonzero;fill:#000;fill-opacity:1" d="m36.96 31.29-4.144-2.071 1.551 2.07-1.55 2.074"/><path style="fill-rule:nonzero;fill:#bfbfbf;fill-opacity:.7;stroke-width:.3985;stroke-linecap:butt;stroke-linejoin:miter;stroke:gray;stroke-opacity:.7;stroke-miterlimit:10" d="M14.174 14.172h14.171L25.513 2.836H11.338Zm0 0" transform="matrix(1 0 0 -1 62.471 34.125)"/><path style="fill:none;stroke-width:1.59404;stroke-linecap:round;stroke-linejoin:miter;stroke:#00f;stroke-opacity:1;stroke-miterlimit:10" d="M21.26 14.172h24.562" transform="matrix(1 0 0 -1 62.471 34.125)"/><path style="stroke:none;fill-rule:nonzero;fill:#00f;fill-opacity:1" d="m112.078 19.953-6.058-3.031 2.273 3.031-2.273 3.027"/><use xlink:href="#a" x="114.07" y="19.193" style="fill:#00f;fill-opacity:1"/><use xlink:href="#b" x="114.074" y="19.193" style="fill:#00f;fill-opacity:1"/><use xlink:href="#c" x="114.369" y="23.053" style="fill:#00f;fill-opacity:1"/><use xlink:href="#d" x="119.638" y="24.049" style="fill:#00f;fill-opacity:1"/><path style="fill:none;stroke-width:1.59404;stroke-linecap:round;stroke-linejoin:miter;stroke:#00f;stroke-opacity:1;stroke-miterlimit:10" d="M21.26 14.172v-18.89" transform="matrix(1 0 0 -1 62.471 34.125)"/><path style="stroke:none;fill-rule:nonzero;fill:#00f;fill-opacity:1" d="m83.73 42.629 3.028-6.059-3.028 2.274-3.027-2.274"/><use xlink:href="#a" x="85.724" y="41.87" style="fill:#00f;fill-opacity:1"/><use xlink:href="#b" x="86.875" y="41.87" style="fill:#00f;fill-opacity:1"/><use xlink:href="#c" x="85.724" y="45.73" style="fill:#00f;fill-opacity:1"/><use xlink:href="#e" x="90.993" y="46.727" style="fill:#00f;fill-opacity:1"/><path style="fill:none;stroke-width:.79701;stroke-linecap:butt;stroke-linejoin:miter;stroke:#000;stroke-opacity:1;stroke-miterlimit:10" d="M21.26 14.172v11.586" transform="matrix(1 0 0 -1 62.471 34.125)"/><path style="stroke:none;fill-rule:nonzero;fill:#000;fill-opacity:1" d="m83.73 5.777-2.07 4.145 2.07-1.555 2.075 1.555"/><use xlink:href="#a" x="72.523" y="11.109" style="fill:#000;fill-opacity:1"/><use xlink:href="#b" x="72.527" y="11.109" style="fill:#000;fill-opacity:1"/><use xlink:href="#f" x="74.351" y="14.97" style="fill:#000;fill-opacity:1"/><path style="fill:none;stroke-width:.79701;stroke-linecap:butt;stroke-linejoin:miter;stroke:#000;stroke-opacity:1;stroke-miterlimit:10" d="M21.26 14.172h11.582" transform="matrix(1 0 0 -1 62.471 34.125)"/><path style="stroke:none;fill-rule:nonzero;fill:#000;fill-opacity:1" d="m97.906 19.953-4.144-2.074 1.55 2.074-1.55 2.07"/><use xlink:href="#a" x="93.297" y="12.444" style="fill:#000;fill-opacity:1"/><use xlink:href="#b" x="93.301" y="12.444" style="fill:#000;fill-opacity:1"/><use xlink:href="#g" x="96.24" y="17.959" style="fill:#000;fill-opacity:1"/></svg>