<svg xmlns="http://www.w3.org/2000/svg" width="91pt" height="144" viewBox="0 0 91 108"><defs><clipPath id="a"><path d="M0 0v107.5h91.25V0H0Zm15.445 25.36 2.364 1.066.785-1.715-2.364-1.082 1.56 1.754-2.345-.024Zm0 0"/></clipPath><clipPath id="b"><path d="M0 0v107.5h91.25V0H0Zm37.945 99.86 3.922-.962-.71-2.761-3.923.988 3.805.512-3.094 2.222Zm0 0"/></clipPath><clipPath id="c"><path d="M0 0v107.5h91.25V0H0Zm31.566 9.75-3.484 1.047.336 1.137 3.488-1.04-2.996.274 2.656-1.418Zm0 0"/></clipPath><clipPath id="d"><path d="M0 0v107.5h91.25V0H0Zm43.695 48.91-2.52 2.637.864.805 2.523-2.633-2.46 1.75 1.593-2.559Zm0 0"/></clipPath></defs><g clip-path="url(#a)" clip-rule="evenodd"><path style="fill:none;stroke-width:1.18125;stroke-linecap:butt;stroke-linejoin:miter;stroke:#000;stroke-opacity:1;stroke-miterlimit:10" d="M112.063 708.75c-1.876-4.531-2.813-9.406-2.813-14.344 0-19.562 14.844-35.937 34.313-37.875" transform="matrix(.125 0 0 -.125 0 107.5)"/></g><path style="stroke:none;fill-rule:evenodd;fill:#000;fill-opacity:1" d="m15.445 25.36 2.344.023-1.559-1.754-1.039.57.254 1.16"/><path style="fill:none;stroke-width:1.18125;stroke-linecap:butt;stroke-linejoin:miter;stroke:#000;stroke-opacity:1;stroke-miterlimit:10" d="m123.563 657.125 18.75-.188-12.47 14.032-8.312-4.563 2.031-9.281Zm0 0" transform="matrix(.125 0 0 -.125 0 107.5)"/><g clip-path="url(#b)" clip-rule="evenodd"><path style="fill:none;stroke-width:1.18125;stroke-linecap:butt;stroke-linejoin:miter;stroke:#000;stroke-opacity:1;stroke-miterlimit:10" d="M92.375 81.75a387.902 387.902 0 0 1 122.688-19.938c38.937 0 77.625 5.876 114.812 17.407" transform="matrix(.125 0 0 -.125 0 107.5)"/></g><path style="stroke:none;fill-rule:evenodd;fill:#000;fill-opacity:1" d="m37.945 99.86 3.094-2.223-3.805-.512-.785 1.656 1.496 1.078"/><path style="fill:none;stroke-width:1.18125;stroke-linecap:butt;stroke-linejoin:miter;stroke:#000;stroke-opacity:1;stroke-miterlimit:10" d="m303.563 61.125 24.75 17.781L297.875 83l-6.281-13.25 11.969-8.625Zm0 0" transform="matrix(.125 0 0 -.125 0 107.5)"/><path style="stroke:none;fill-rule:evenodd;fill:gray;fill-opacity:1" d="M51.57 53.223c0 3.91-10.312 7.086-23.035 7.086-12.719 0-23.031-3.176-23.031-7.086 0-3.918 10.312-7.09 23.031-7.09 12.723 0 23.035 3.172 23.035 7.09"/><path style="fill:none;stroke-width:2.3625;stroke-linecap:butt;stroke-linejoin:miter;stroke:#000;stroke-opacity:1;stroke-miterlimit:10" d="M412.563 434.219c0-31.281-82.5-56.688-184.282-56.688-101.75 0-184.25 25.406-184.25 56.688 0 31.344 82.5 56.719 184.25 56.719 101.781 0 184.281-25.375 184.281-56.72Zm0 0" transform="matrix(.125 0 0 -.125 0 107.5)"/><path style="fill-rule:evenodd;fill:gray;fill-opacity:1;stroke-width:2.3625;stroke-linecap:butt;stroke-linejoin:miter;stroke:#000;stroke-opacity:1;stroke-miterlimit:10" d="M43.875 431.875V141.281M412.563 431.875V141.281" transform="matrix(.125 0 0 -.125 0 107.5)"/><path style="stroke:none;fill-rule:evenodd;fill:#fff;fill-opacity:1" d="M51.555 89.266c0 3.918-10.32 7.093-23.04 7.093-12.718 0-23.03-3.175-23.03-7.093 0-3.914 10.312-7.082 23.03-7.082 12.72 0 23.04 3.168 23.04 7.082"/><path style="fill:none;stroke-width:2.3625;stroke-linecap:butt;stroke-linejoin:miter;stroke:#000;stroke-opacity:1;stroke-miterlimit:10" d="M412.406 145.875c0-31.344-82.531-56.75-184.281-56.75s-184.25 25.406-184.25 56.75c0 31.313 82.5 56.656 184.25 56.656s184.281-25.344 184.281-56.656Zm0 0" transform="matrix(.125 0 0 -.125 0 107.5)"/><g clip-path="url(#c)" clip-rule="evenodd"><path style="fill-rule:evenodd;fill:#fff;fill-opacity:1;stroke-width:1.18125;stroke-linecap:butt;stroke-linejoin:miter;stroke:#8e8e8e;stroke-opacity:1;stroke-miterlimit:10" d="M228.281 769.719 355.875 807.5" transform="matrix(.125 0 0 -.125 0 107.5)"/></g><path style="stroke:none;fill-rule:evenodd;fill:#fff;fill-opacity:1" d="m31.566 9.75-2.656 1.418 2.996-.273-.734-.418.394-.727"/><path style="fill:none;stroke-width:1.18125;stroke-linecap:butt;stroke-linejoin:miter;stroke:#8e8e8e;stroke-opacity:1;stroke-miterlimit:10" d="m252.531 782-21.25-11.344 23.938 2.188-5.844 3.343 3.156 5.813Zm0 0" transform="matrix(.125 0 0 -.125 0 107.5)"/><g clip-path="url(#d)" clip-rule="evenodd"><path style="fill-rule:evenodd;fill:#fff;fill-opacity:1;stroke-width:1.18125;stroke-linecap:butt;stroke-linejoin:miter;stroke:#8e8e8e;stroke-opacity:1;stroke-miterlimit:10" d="m334.625 446.063 92.094 96.875" transform="matrix(.125 0 0 -.125 0 107.5)"/></g><path style="stroke:none;fill-rule:evenodd;fill:#fff;fill-opacity:1" d="m43.695 48.91-1.593 2.559 2.46-1.75-.847.039-.02-.848"/><path style="fill:none;stroke-width:1.18125;stroke-linecap:butt;stroke-linejoin:miter;stroke:#8e8e8e;stroke-opacity:1;stroke-miterlimit:10" d="M349.563 468.719 336.78 448.25l19.688 14-6.75-.313-.156 6.782Zm0 0" transform="matrix(.125 0 0 -.125 0 107.5)"/><path style="fill-rule:evenodd;fill:#fff;fill-opacity:1;stroke-width:4.725;stroke-linecap:butt;stroke-linejoin:miter;stroke:#000;stroke-opacity:1;stroke-miterlimit:10" d="M228.281 708.281v139.407" transform="matrix(.125 0 0 -.125 0 107.5)"/><path style="fill-rule:evenodd;fill:#fff;fill-opacity:1;stroke-width:1.18125;stroke-linecap:butt;stroke-linejoin:miter;stroke:#000;stroke-opacity:1;stroke-dasharray:9.45,9.45;stroke-miterlimit:10" d="M191.906 426.219V149.813M263.719 427.156V150.75" transform="matrix(.125 0 0 -.125 0 107.5)"/><path style="fill-rule:evenodd;fill:#fff;fill-opacity:1;stroke-width:1.18125;stroke-linecap:butt;stroke-linejoin:miter;stroke:#000;stroke-opacity:1;stroke-miterlimit:10" d="M263.719 705.938V429.53M192.844 701.219V424.812" transform="matrix(.125 0 0 -.125 0 107.5)"/><path style="stroke:none;fill-rule:nonzero;fill:#000;fill-opacity:1" d="m11.98 21.918-.293.82c-.117-.586-.41-.879-.84-.879a.958.958 0 0 0-.624.235c-.254.234-.391.566-.391 1.035 0 .742.371 1.21.996 1.21.41 0 .723-.214.899-.624.039.078.058.176.117.293.117.254.195.332.351.332.157 0 .274-.098.332-.293.04-.117.04-.215.059-.488h-.137c0 .253-.097.43-.215.43-.156 0-.312-.255-.37-.587l.546-1.484h-.43Zm-.43 1.23-.097.293c-.176.489-.351.723-.605.723a.408.408 0 0 1-.352-.234c-.117-.196-.176-.489-.176-.84 0-.332.078-.625.196-.82.078-.137.195-.215.332-.215.351 0 .566.273.664.82l.039.273ZM57.379 40.313v-1.094h-.117c-.059.37-.137.449-.508.449h-.684v-1.055c0-.136.02-.156.137-.156h.645c.546 0 .644.078.722.488h.117l-.02-.664h-2.5v.078c.352.04.411.098.411.43v2.05c0 .391-.059.45-.41.47v.097H56.5v-.097c-.371-.02-.43-.079-.43-.41v-1.036h.684c.371 0 .45.059.508.45h.117ZM57.84 38.457h.176c.136 0 .195.059.195.293v2.246c0 .254-.078.313-.371.332v.078h1.113v-.078c-.293-.02-.351-.058-.351-.312v-2.832h-.02c-.254.078-.43.117-.742.195v.078ZM61.32 41.172h-.02c-.214 0-.273-.059-.273-.274v-1.62h-.742v.077c.293.02.352.06.352.293v1.114c0 .136-.04.195-.098.254a.718.718 0 0 1-.41.156c-.195 0-.332-.156-.332-.352v-1.543h-.703v.059c.234.02.293.098.293.312v1.192c0 .37.234.605.566.605.176 0 .371-.058.488-.195l.215-.195v.39h.02c.234-.097.41-.136.644-.215v-.058ZM62.238 39.238l-.722.254v.078l.039-.02h.156c.117 0 .156.079.156.274v1.094c0 .352-.039.39-.37.41v.078h1.112v-.078c-.312-.02-.351-.058-.351-.41v-1.68h-.02Zm-.215-1.054a.226.226 0 0 0-.234.234c0 .137.098.234.234.234.137 0 .254-.097.254-.234s-.117-.234-.254-.234ZM64.352 41.445l.703-.234v-.078h-.118c-.156 0-.195-.04-.195-.274v-2.675h-.039c-.215.078-.39.117-.683.195v.078h.097c.176 0 .215.04.215.234v.743c-.176-.157-.293-.196-.488-.196-.547 0-.977.528-.977 1.192 0 .605.352 1.015.86 1.015.273 0 .449-.078.605-.312v.312h.02Zm-.02-.527c0 .039-.02.098-.078.156a.471.471 0 0 1-.332.137c-.39 0-.664-.39-.664-.957 0-.547.234-.899.605-.899.235 0 .469.235.469.489v1.074ZM67.027 40.625c-.234.371-.43.508-.742.508-.273 0-.469-.137-.605-.41-.078-.176-.118-.332-.137-.625h1.465c-.04-.313-.078-.45-.195-.606a.857.857 0 0 0-.606-.254.97.97 0 0 0-.644.235c-.215.195-.352.527-.352.918 0 .664.332 1.054.879 1.054.45 0 .8-.273 1.015-.78l-.078-.04Zm-1.465-.684c.06-.37.215-.546.508-.546.274 0 .39.136.45.546h-.957ZM70.617 39.277h-.644v.078c.156 0 .215.06.215.137 0 .059 0 .098-.02.156l-.469 1.211-.488-1.21a.604.604 0 0 1-.04-.157c0-.097.06-.137.216-.137v-.078h-.918v.078c.176 0 .195.06.43.547l.566 1.348c0 .02.02.059.039.098.02.078.058.117.078.117.02 0 .059-.059.137-.235l.605-1.503c.137-.332.156-.372.293-.372v-.078ZM71.555 39.238l-.723.254v.078l.04-.02h.155c.118 0 .157.079.157.274v1.094c0 .352-.04.39-.371.41v.078h1.113v-.078c-.313-.02-.352-.058-.352-.41v-1.68h-.02Zm-.215-1.054a.226.226 0 0 0-.235.234c0 .137.098.234.235.234.137 0 .254-.097.254-.234s-.117-.234-.254-.234ZM73.531 39.922l-.02-.645h-.038l-.02.02c-.039.02-.039.039-.058.039-.04 0-.079-.02-.137-.04a.842.842 0 0 0-.332-.058c-.371 0-.645.235-.645.586 0 .254.156.45.567.684l.273.156c.156.078.234.195.234.352 0 .195-.136.332-.39.332-.156 0-.313-.059-.39-.157-.098-.117-.138-.234-.216-.507h-.058v.742h.058c.02-.04.04-.059.098-.059.04 0 .117.02.215.04.137.019.273.038.351.038.372 0 .665-.273.665-.605 0-.235-.118-.39-.391-.547l-.508-.313c-.137-.078-.215-.195-.215-.312 0-.195.156-.332.371-.332.274 0 .41.156.528.586h.058ZM75.586 39.395c-.215-.118-.352-.176-.547-.176-.586 0-1.035.547-1.035 1.21 0 .606.312 1.016.762 1.016.273 0 .527-.117.742-.332v.88c0 .273-.098.331-.43.35v.098h1.113v-.078c-.254-.058-.293-.097-.293-.293v-2.832h-.058l-.254.157Zm-.078 1.406c0 .117-.02.176-.078.215a.593.593 0 0 1-.41.156.534.534 0 0 1-.372-.156c-.136-.137-.234-.43-.234-.743 0-.566.234-.918.645-.918.293 0 .449.157.449.47v.976ZM78.516 41.172h-.02c-.215 0-.273-.059-.273-.274v-1.62h-.743v.077c.293.02.352.06.352.293v1.114c0 .136-.039.195-.098.254a.718.718 0 0 1-.41.156c-.195 0-.332-.156-.332-.352v-1.543h-.703v.059c.234.02.293.098.293.312v1.192c0 .37.234.605.566.605.176 0 .372-.058.489-.195l.215-.195v.39h.02c.233-.097.41-.136.644-.215v-.058ZM80.547 40.625c-.234.371-.43.508-.742.508-.274 0-.47-.137-.606-.41-.078-.176-.117-.332-.136-.625h1.464c-.039-.313-.078-.45-.195-.606a.857.857 0 0 0-.605-.254.97.97 0 0 0-.645.235c-.215.195-.352.527-.352.918 0 .664.332 1.054.88 1.054.449 0 .8-.273 1.015-.78l-.078-.04Zm-1.465-.684c.059-.37.215-.546.508-.546.273 0 .39.136.45.546h-.958ZM82.977 41.172h-.02c-.215 0-.273-.059-.273-.274v-1.62h-.743v.077c.293.02.352.06.352.293v1.114c0 .136-.04.195-.098.254a.718.718 0 0 1-.41.156c-.195 0-.332-.156-.332-.352v-1.543h-.703v.059c.234.02.293.098.293.312v1.192c0 .37.234.605.566.605.176 0 .371-.058.489-.195l.215-.195v.39h.019c.234-.097.41-.136.645-.215v-.058ZM84.379 41.406h.957v-.078c-.156 0-.234-.078-.39-.273l-.606-.938.39-.566a.51.51 0 0 1 .391-.196v-.078h-.742v.078c.137 0 .176.04.176.098 0 .059-.059.156-.176.313-.02.02-.078.117-.137.195l-.058-.078c-.137-.215-.235-.371-.235-.43 0-.058.078-.098.215-.098v-.078h-.977v.078h.04c.136 0 .214.06.37.274l.43.684-.527.78c-.137.196-.195.235-.352.235v.078h.684v-.078c-.137 0-.176-.02-.176-.078 0-.02.02-.098.078-.195l.371-.586.45.664c0 .039.02.058.02.097 0 .079-.04.098-.196.098v.078ZM50.586 5.762V4.668h-.117c-.059.371-.137.45-.508.45h-.684V4.061c0-.136.02-.156.137-.156h.645c.546 0 .644.078.722.489h.117l-.02-.665h-2.5v.079c.352.039.411.097.411.43v2.05c0 .39-.059.45-.41.469v.097h1.328v-.097c-.371-.02-.43-.078-.43-.41V5.313h.684c.371 0 .45.058.508.449h.117ZM51.77 4.688l-.723.253v.079l.039-.02h.156c.117 0 .156.078.156.273v1.094c0 .352-.039.39-.37.41v.078h1.113v-.078c-.313-.02-.352-.058-.352-.41v-1.68h-.02Zm-.215-1.055a.226.226 0 0 0-.235.234c0 .137.098.235.235.235.136 0 .254-.098.254-.235 0-.137-.118-.234-.254-.234ZM52.36 3.906h.175c.137 0 .195.059.195.293v2.246c0 .254-.078.313-.37.332v.078h1.113v-.078c-.293-.02-.352-.058-.352-.312V3.633h-.02c-.253.078-.43.117-.742.195v.078ZM56.379 6.895l.703-.235v-.078h-.117c-.156 0-.195-.039-.195-.273V3.633h-.04c-.214.078-.39.117-.683.195v.078h.098c.175 0 .214.04.214.235v.742c-.175-.156-.293-.196-.488-.196-.547 0-.976.528-.976 1.192 0 .605.351 1.016.859 1.016.273 0 .45-.079.605-.313v.313h.02Zm-.02-.528c0 .04-.02.098-.078.156a.471.471 0 0 1-.332.137c-.39 0-.664-.39-.664-.957 0-.547.235-.898.606-.898.234 0 .468.234.468.488v1.074ZM59.055 6.074c-.235.371-.43.508-.742.508-.274 0-.47-.137-.606-.41-.078-.176-.117-.332-.137-.625h1.465c-.039-.313-.078-.45-.195-.606a.857.857 0 0 0-.606-.253.97.97 0 0 0-.644.234c-.215.195-.352.527-.352.918 0 .664.332 1.055.88 1.055.448 0 .8-.274 1.015-.782l-.078-.039Zm-1.465-.683c.058-.371.215-.547.508-.547.273 0 .39.136.449.547h-.957ZM61.61 4.727h-.489V4.18c0-.04 0-.059-.02-.059a.35.35 0 0 0-.097.137c-.176.254-.39.488-.469.508-.039.02-.078.058-.078.078 0 .02 0 .02.02.039h.253v1.426c0 .39.137.586.41.586.235 0 .43-.098.587-.352l-.079-.059c-.097.118-.175.176-.273.176-.176 0-.254-.137-.254-.43V4.883h.488v-.156ZM62.902 4.688c-.625 0-1.054.449-1.054 1.093 0 .645.449 1.114 1.035 1.114.605 0 1.054-.489 1.054-1.153 0-.605-.449-1.054-1.035-1.054Zm-.078.117c.41 0 .684.468.684 1.113 0 .527-.215.86-.567.86-.195 0-.351-.118-.468-.313a2.127 2.127 0 0 1-.196-.918c0-.45.215-.742.547-.742ZM64.113 5.02c.059-.02.098-.02.157-.02.117 0 .156.078.156.273v1.192c0 .234-.02.254-.332.312v.078h1.133v-.078c-.313 0-.391-.078-.391-.351V5.37c0-.156.195-.39.332-.39.02 0 .059.019.117.078.078.058.117.078.195.078.098 0 .176-.078.176-.196 0-.156-.097-.253-.254-.253-.195 0-.332.097-.566.43v-.43h-.02c-.254.097-.43.156-.703.253v.079ZM67.133 5.371l-.02-.644h-.039l-.02.02c-.038.019-.038.038-.058.038-.039 0-.078-.02-.137-.039a.842.842 0 0 0-.332-.059c-.37 0-.644.235-.644.586 0 .254.156.45.566.684l.274.156c.156.078.234.196.234.352 0 .195-.137.332-.39.332-.157 0-.313-.059-.391-.156-.098-.118-.137-.235-.215-.508h-.059v.742h.059c.02-.04.039-.059.098-.059.039 0 .117.02.214.04.137.019.274.039.352.039.371 0 .664-.274.664-.606 0-.234-.117-.39-.39-.547l-.508-.312c-.137-.078-.215-.196-.215-.313 0-.195.156-.332.37-.332.274 0 .411.156.528.586h.059ZM68.309 4.688l-.723.253v.079l.039-.02h.156c.117 0 .156.078.156.273v1.094c0 .352-.039.39-.37.41v.078h1.113v-.078c-.313-.02-.352-.058-.352-.41v-1.68h-.02Zm-.215-1.055a.226.226 0 0 0-.235.234c0 .137.098.235.235.235.136 0 .254-.098.254-.235 0-.137-.118-.234-.254-.234ZM69.992 4.688c-.625 0-1.055.449-1.055 1.093 0 .645.45 1.114 1.036 1.114.605 0 1.054-.489 1.054-1.153 0-.605-.449-1.054-1.035-1.054Zm-.078.117c.41 0 .684.468.684 1.113 0 .527-.215.86-.567.86-.195 0-.351-.118-.469-.313a2.127 2.127 0 0 1-.195-.918c0-.45.215-.742.547-.742ZM71.242 4.98c.02-.02.078-.02.117-.02.137 0 .176.06.176.294v1.172c0 .273-.039.332-.293.351v.078h1.016v-.078c-.254-.02-.313-.078-.313-.234V5.215c.215-.215.332-.274.489-.274.214 0 .332.137.332.45v.996c0 .293-.059.37-.293.39v.078h.976v-.078c-.215-.02-.273-.078-.273-.312V5.39c0-.45-.215-.704-.567-.704-.214 0-.37.079-.683.372v-.372h-.04c-.234.079-.39.137-.644.215v.078ZM28.203 104.957c.176.059.274.098.371.195.215.196.332.567.332.977 0 .312-.058.605-.156.781a.363.363 0 0 1-.293.176c-.234 0-.39-.195-.45-.566.098-.332.138-.47.138-.704 0-.332-.098-.527-.254-.527-.157 0-.254.195-.254.527 0 .235.02.371.136.704-.058.37-.214.566-.449.566a.37.37 0 0 1-.312-.176c-.078-.176-.137-.469-.137-.781 0-.371.098-.742.273-.938.118-.117.235-.175.43-.234v-.117c-.254 0-.41.039-.566.097-.39.157-.645.645-.645 1.231 0 .644.371 1.152.86 1.152.273 0 .507-.156.664-.468.156.312.37.468.664.468.488 0 .86-.507.86-1.152 0-.547-.235-1.016-.606-1.211-.157-.078-.332-.117-.606-.117v.117Zm0 0"/><path style="stroke:none;fill-rule:evenodd;fill:#fff;fill-opacity:1" d="M32.887 53.75c0 1.14-1.985 2.07-4.43 2.07-2.445 0-4.43-.93-4.43-2.07 0-1.137 1.985-2.066 4.43-2.066 2.445 0 4.43.93 4.43 2.066"/><path style="fill:none;stroke-width:1.18125;stroke-linecap:butt;stroke-linejoin:miter;stroke:#000;stroke-opacity:1;stroke-dasharray:9.45,9.45;stroke-miterlimit:10" d="M263.094 430c0-9.125-15.875-16.563-35.438-16.563-19.562 0-35.437 7.438-35.437 16.563 0 9.094 15.875 16.531 35.437 16.531 19.563 0 35.438-7.437 35.438-16.531Zm0 0" transform="matrix(.125 0 0 -.125 0 107.5)"/><path style="stroke:none;fill-rule:evenodd;fill:#fff;fill-opacity:1" d="M32.926 88.598c0 1.144-1.985 2.066-4.43 2.066-2.445 0-4.43-.922-4.43-2.066 0-1.141 1.985-2.067 4.43-2.067 2.445 0 4.43.926 4.43 2.067"/><path style="fill:none;stroke-width:1.18125;stroke-linecap:butt;stroke-linejoin:miter;stroke:#000;stroke-opacity:1;stroke-dasharray:9.45,9.45;stroke-miterlimit:10" d="M263.406 151.219c0-9.156-15.875-16.531-35.437-16.531-19.563 0-35.438 7.375-35.438 16.53 0 9.126 15.875 16.532 35.438 16.532 19.562 0 35.437-7.406 35.437-16.531Zm0 0" transform="matrix(.125 0 0 -.125 0 107.5)"/><path style="stroke:none;fill-rule:evenodd;fill:#fff;fill-opacity:1" d="M32.965 19.258c0 1.14-1.985 2.07-4.43 2.07-2.445 0-4.43-.93-4.43-2.07 0-1.137 1.985-2.067 4.43-2.067 2.445 0 4.43.93 4.43 2.067"/><path style="fill:none;stroke-width:1.18125;stroke-linecap:butt;stroke-linejoin:miter;stroke:#000;stroke-opacity:1;stroke-miterlimit:10" d="M263.719 705.938c0-9.125-15.875-16.563-35.438-16.563-19.562 0-35.437 7.438-35.437 16.563 0 9.093 15.875 16.53 35.437 16.53 19.563 0 35.438-7.437 35.438-16.53Zm0 0" transform="matrix(.125 0 0 -.125 0 107.5)"/><path style="fill-rule:evenodd;fill:#fff;fill-opacity:1;stroke-width:1.18125;stroke-linecap:butt;stroke-linejoin:miter;stroke:#000;stroke-opacity:1;stroke-miterlimit:10" d="m228.281 713-96.844-63.781M225.938 710.656H1.5" transform="matrix(.125 0 0 -.125 0 107.5)"/></svg>