<svg xmlns="http://www.w3.org/2000/svg" xmlns:xlink="http://www.w3.org/1999/xlink" width="344.493" height="119.66" viewBox="0 0 258.37 89.745"><defs><symbol overflow="visible" id="c"><path style="stroke:none" d="M1.25-.766c.188-.218.672-.671 1.063-1 .671-.562.874-.75.984-.875.734-.718.984-1.171.984-1.218 0-.016 0-.11-.125-.11-.078 0-.093.031-.14.11-.11.171-.36.562-.657.562-.187 0-.296-.11-.5-.328-.218-.234-.39-.344-.625-.344-.687 0-1.109.828-1.109 1.047 0 .031.016.11.11.11.093 0 .124-.063.124-.079.172-.437.704-.437.782-.437.203 0 .421.062.609.14.36.11.516.11.656.11-.281.312-.781.75-1.36 1.234-.437.375-.718.657-.921.844-.328.36-.734.906-.734 1 0 .063.046.094.125.094.078 0 .093-.032.14-.078.344-.547.688-.579.781-.579.22 0 .344.125.547.36.204.234.407.297.579.297.921 0 1.468-1.14 1.468-1.39 0-.079-.062-.11-.125-.11-.094 0-.11.062-.125.11-.25.655-.89.765-1.125.765-.156 0-.344-.047-.61-.14-.187-.048-.39-.126-.577-.126-.094 0-.188.031-.219.031Zm0 0"/></symbol><symbol overflow="visible" id="d"><path style="stroke:none" d="M3.422-5.422c.078-.344.11-.422.937-.422.25 0 .329 0 .329-.172 0-.109-.11-.109-.141-.109-.203 0-.438.016-.656.016-.22 0-.422.015-.641.015-.203 0-.422 0-.625-.015-.156 0-.438-.016-.594-.016-.047 0-.172 0-.172.156 0 .125.079.125.266.125.031 0 .203 0 .344.016.156.016.219.031.219.14 0 .032-.016.079-.047.172L1.437-.687c-.078.328-.093.406-.78.406-.157 0-.266 0-.266.172C.39 0 .484 0 .64 0h4.234c.219 0 .234-.016.297-.203.094-.219.734-1.922.734-2 0-.063-.062-.11-.125-.11-.093 0-.093.032-.172.22-.296.796-.687 1.812-2.265 1.812H2.28c-.094-.016-.125-.031-.125-.094 0-.016 0-.031.047-.203Zm0 0"/></symbol><symbol overflow="visible" id="g"><path style="stroke:none" d="M4.313-3.313c0-.624-.329-.656-.407-.656-.234 0-.469.235-.469.438 0 .14.094.219.157.265.234.22.312.516.312.75 0 .391-.562 2.391-1.594 2.391-.687 0-.687-.625-.687-.797 0-.375.14-.844.453-1.656.14-.375.172-.469.172-.625a.739.739 0 0 0-.766-.766c-.859 0-1.218 1.281-1.218 1.39 0 .079.062.11.125.11.093 0 .109-.062.14-.172.188-.656.547-1.093.922-1.093.172 0 .219.109.219.296 0 .141-.047.313-.125.516-.313.875-.531 1.438-.531 1.89 0 .845.64 1.126 1.25 1.126 1.515 0 2.046-2.828 2.046-3.406Zm0 0"/></symbol><symbol overflow="visible" id="e"><path style="stroke:none" d="M6.047-2.047c.172 0 .344 0 .344-.203 0-.188-.188-.188-.344-.188H1.109c-.156 0-.343 0-.343.188 0 .203.171.203.343.203Zm0 0"/></symbol><symbol overflow="visible" id="f"><path style="stroke:none" d="M7.625-2.047c-1.063.75-1.281 1.938-1.281 2.031 0 .125.125.125.187.125.11 0 .172 0 .203-.125.25-1.046.86-1.75 1.844-2.109.047-.016.125-.047.125-.125s-.062-.094-.125-.125c-1.125-.422-1.64-1.219-1.844-2.094-.03-.125-.062-.125-.203-.125-.078 0-.187 0-.187.125 0 .094.218 1.282 1.281 2.032H.844c-.156 0-.328 0-.328.187 0 .203.171.203.328.203Zm0 0"/></symbol><symbol overflow="visible" id="h"><path style="stroke:none" d="M3.063 2.14c0-.046-.032-.078-.079-.14C1.828.937 1.47-.672 1.47-2.25c0-1.375.265-3.063 1.531-4.266.047-.046.063-.062.063-.109a.107.107 0 0 0-.11-.11c-.11 0-.922.657-1.406 1.626-.422.859-.64 1.796-.64 2.859 0 .64.077 1.672.577 2.719.532 1.11 1.36 1.765 1.47 1.765.062 0 .108-.03.108-.093Zm0 0"/></symbol><symbol overflow="visible" id="j"><path style="stroke:none" d="M2.672-2.25c0-.734-.11-1.719-.578-2.719C1.563-6.079.734-6.734.625-6.734c-.094 0-.11.078-.11.109 0 .047.016.063.079.125.531.469 1.515 1.688 1.515 4.25C2.11-.969 1.875.813.58 2.031c-.016.016-.063.063-.063.11 0 .015.015.093.109.093.11 0 .922-.64 1.406-1.625.422-.859.64-1.78.64-2.859Zm0 0"/></symbol><symbol overflow="visible" id="i"><path style="stroke:none" d="M.39-6.14v.28h.313c.313 0 .61.032.61.376 0 .062-.016.125-.016.171v4.375c0 .594-.516.657-.906.657v.265H2.5V-.28c-.422 0-.938-.078-.938-.672 0-.094.016-.172.016-.25l.016-4.578c.047.187.125.375.203.547.531 1.28 1.031 2.593 1.547 3.89L3.75-.312c.047.109.078.296.234.296.157 0 .188-.203.235-.312.64-1.64 1.297-3.297 1.953-4.922.078-.188.172-.39.234-.594v5.14c0 .376-.281.423-.562.423H5.5v.265h2.547V-.28h-.344c-.281 0-.562-.031-.562-.406V-5.47c0-.343.296-.39.593-.39h.313v-.282H6.5l-.172.032-.094.14L4.22-.89c-.063-.14-.11-.296-.172-.453l-.375-.937c-.453-1.14-.906-2.297-1.36-3.438l-.093-.234c-.078-.14-.125-.188-.281-.188Zm0 0"/></symbol><symbol overflow="visible" id="k"><path style="stroke:none" d="M3.75-1.984c0-.922-.734-1.657-1.64-1.657-.907 0-1.641.735-1.641 1.657a1.64 1.64 0 1 0 3.281 0Zm0 0"/></symbol><linearGradient id="b" gradientUnits="userSpaceOnUse" x1="0" y1="25.003" x2="0" y2="74.997" gradientTransform="matrix(4.53604 0 0 -1.134 -107.638 112.32)"><stop offset="0" style="stop-color:#bfbfbf;stop-opacity:1"/><stop offset=".008" style="stop-color:silver;stop-opacity:1"/><stop offset=".016" style="stop-color:#c1c1c1;stop-opacity:1"/><stop offset=".023" style="stop-color:#c2c2c2;stop-opacity:1"/><stop offset=".031" style="stop-color:#c3c3c3;stop-opacity:1"/><stop offset=".039" style="stop-color:#c4c4c4;stop-opacity:1"/><stop offset=".047" style="stop-color:#c5c5c5;stop-opacity:1"/><stop offset=".055" style="stop-color:#c6c6c6;stop-opacity:1"/><stop offset=".063" style="stop-color:#c7c7c7;stop-opacity:1"/><stop offset=".07" style="stop-color:#c8c8c8;stop-opacity:1"/><stop offset=".078" style="stop-color:#c9c9c9;stop-opacity:1"/><stop offset=".086" style="stop-color:#cacaca;stop-opacity:1"/><stop offset=".094" style="stop-color:#cbcbcb;stop-opacity:1"/><stop offset=".102" style="stop-color:#ccc;stop-opacity:1"/><stop offset=".109" style="stop-color:#cdcdcd;stop-opacity:1"/><stop offset=".117" style="stop-color:#cecece;stop-opacity:1"/><stop offset=".125" style="stop-color:#cfcfcf;stop-opacity:1"/><stop offset=".133" style="stop-color:#d0d0d0;stop-opacity:1"/><stop offset=".141" style="stop-color:#d1d1d1;stop-opacity:1"/><stop offset=".148" style="stop-color:#d2d2d2;stop-opacity:1"/><stop offset=".156" style="stop-color:#d3d3d3;stop-opacity:1"/><stop offset=".164" style="stop-color:#d4d4d4;stop-opacity:1"/><stop offset=".172" style="stop-color:#d5d5d5;stop-opacity:1"/><stop offset=".18" style="stop-color:#d6d6d6;stop-opacity:1"/><stop offset=".188" style="stop-color:#d7d7d7;stop-opacity:1"/><stop offset=".195" style="stop-color:#d8d8d8;stop-opacity:1"/><stop offset=".203" style="stop-color:#d9d9d9;stop-opacity:1"/><stop offset=".211" style="stop-color:#dadada;stop-opacity:1"/><stop offset=".219" style="stop-color:#dbdbdb;stop-opacity:1"/><stop offset=".227" style="stop-color:#dcdcdc;stop-opacity:1"/><stop offset=".234" style="stop-color:#ddd;stop-opacity:1"/><stop offset=".242" style="stop-color:#dedede;stop-opacity:1"/><stop offset=".25" style="stop-color:#dfdfdf;stop-opacity:1"/><stop offset=".258" style="stop-color:#e0e0e0;stop-opacity:1"/><stop offset=".266" style="stop-color:#e1e1e1;stop-opacity:1"/><stop offset=".273" style="stop-color:#e2e2e2;stop-opacity:1"/><stop offset=".281" style="stop-color:#e3e3e3;stop-opacity:1"/><stop offset=".289" style="stop-color:#e4e4e4;stop-opacity:1"/><stop offset=".297" style="stop-color:#e5e5e5;stop-opacity:1"/><stop offset=".305" style="stop-color:#e6e6e6;stop-opacity:1"/><stop offset=".313" style="stop-color:#e7e7e7;stop-opacity:1"/><stop offset=".32" style="stop-color:#e8e8e8;stop-opacity:1"/><stop offset=".328" style="stop-color:#e9e9e9;stop-opacity:1"/><stop offset=".336" style="stop-color:#eaeaea;stop-opacity:1"/><stop offset=".344" style="stop-color:#ebebeb;stop-opacity:1"/><stop offset=".352" style="stop-color:#ececec;stop-opacity:1"/><stop offset=".359" style="stop-color:#ededed;stop-opacity:1"/><stop offset=".367" style="stop-color:#eee;stop-opacity:1"/><stop offset=".375" style="stop-color:#efefef;stop-opacity:1"/><stop offset=".383" style="stop-color:#f0f0f0;stop-opacity:1"/><stop offset=".391" style="stop-color:#f1f1f1;stop-opacity:1"/><stop offset=".398" style="stop-color:#f2f2f2;stop-opacity:1"/><stop offset=".406" style="stop-color:#f3f3f3;stop-opacity:1"/><stop offset=".414" style="stop-color:#f4f4f4;stop-opacity:1"/><stop offset=".422" style="stop-color:#f5f5f5;stop-opacity:1"/><stop offset=".43" style="stop-color:#f6f6f6;stop-opacity:1"/><stop offset=".438" style="stop-color:#f7f7f7;stop-opacity:1"/><stop offset=".445" style="stop-color:#f8f8f8;stop-opacity:1"/><stop offset=".453" style="stop-color:#f9f9f9;stop-opacity:1"/><stop offset=".461" style="stop-color:#fafafa;stop-opacity:1"/><stop offset=".469" style="stop-color:#fbfbfb;stop-opacity:1"/><stop offset=".477" style="stop-color:#fcfcfc;stop-opacity:1"/><stop offset=".484" style="stop-color:#fdfdfd;stop-opacity:1"/><stop offset=".492" style="stop-color:#fefefe;stop-opacity:1"/><stop offset=".5" style="stop-color:#fefefe;stop-opacity:1"/><stop offset=".508" style="stop-color:#fefefe;stop-opacity:1"/><stop offset=".516" style="stop-color:#fefefe;stop-opacity:1"/><stop offset=".523" style="stop-color:#fdfdfd;stop-opacity:1"/><stop offset=".531" style="stop-color:#fcfcfc;stop-opacity:1"/><stop offset=".539" style="stop-color:#fbfbfb;stop-opacity:1"/><stop offset=".547" style="stop-color:#fafafa;stop-opacity:1"/><stop offset=".555" style="stop-color:#f9f9f9;stop-opacity:1"/><stop offset=".563" style="stop-color:#f8f8f8;stop-opacity:1"/><stop offset=".57" style="stop-color:#f7f7f7;stop-opacity:1"/><stop offset=".578" style="stop-color:#f6f6f6;stop-opacity:1"/><stop offset=".586" style="stop-color:#f5f5f5;stop-opacity:1"/><stop offset=".594" style="stop-color:#f4f4f4;stop-opacity:1"/><stop offset=".602" style="stop-color:#f3f3f3;stop-opacity:1"/><stop offset=".609" style="stop-color:#f2f2f2;stop-opacity:1"/><stop offset=".617" style="stop-color:#f1f1f1;stop-opacity:1"/><stop offset=".625" style="stop-color:#f0f0f0;stop-opacity:1"/><stop offset=".633" style="stop-color:#efefef;stop-opacity:1"/><stop offset=".641" style="stop-color:#eee;stop-opacity:1"/><stop offset=".648" style="stop-color:#ededed;stop-opacity:1"/><stop offset=".656" style="stop-color:#ececec;stop-opacity:1"/><stop offset=".664" style="stop-color:#ebebeb;stop-opacity:1"/><stop offset=".672" style="stop-color:#eaeaea;stop-opacity:1"/><stop offset=".68" style="stop-color:#e9e9e9;stop-opacity:1"/><stop offset=".688" style="stop-color:#e8e8e8;stop-opacity:1"/><stop offset=".695" style="stop-color:#e7e7e7;stop-opacity:1"/><stop offset=".703" style="stop-color:#e6e6e6;stop-opacity:1"/><stop offset=".711" style="stop-color:#e5e5e5;stop-opacity:1"/><stop offset=".719" style="stop-color:#e4e4e4;stop-opacity:1"/><stop offset=".727" style="stop-color:#e3e3e3;stop-opacity:1"/><stop offset=".734" style="stop-color:#e2e2e2;stop-opacity:1"/><stop offset=".742" style="stop-color:#e1e1e1;stop-opacity:1"/><stop offset=".75" style="stop-color:#e0e0e0;stop-opacity:1"/><stop offset=".758" style="stop-color:#dfdfdf;stop-opacity:1"/><stop offset=".766" style="stop-color:#dedede;stop-opacity:1"/><stop offset=".773" style="stop-color:#ddd;stop-opacity:1"/><stop offset=".781" style="stop-color:#dcdcdc;stop-opacity:1"/><stop offset=".789" style="stop-color:#dbdbdb;stop-opacity:1"/><stop offset=".797" style="stop-color:#dadada;stop-opacity:1"/><stop offset=".805" style="stop-color:#d9d9d9;stop-opacity:1"/><stop offset=".813" style="stop-color:#d8d8d8;stop-opacity:1"/><stop offset=".82" style="stop-color:#d7d7d7;stop-opacity:1"/><stop offset=".828" style="stop-color:#d6d6d6;stop-opacity:1"/><stop offset=".836" style="stop-color:#d5d5d5;stop-opacity:1"/><stop offset=".844" style="stop-color:#d4d4d4;stop-opacity:1"/><stop offset=".852" style="stop-color:#d3d3d3;stop-opacity:1"/><stop offset=".859" style="stop-color:#d2d2d2;stop-opacity:1"/><stop offset=".867" style="stop-color:#d1d1d1;stop-opacity:1"/><stop offset=".875" style="stop-color:#d0d0d0;stop-opacity:1"/><stop offset=".883" style="stop-color:#cfcfcf;stop-opacity:1"/><stop offset=".891" style="stop-color:#cecece;stop-opacity:1"/><stop offset=".898" style="stop-color:#cdcdcd;stop-opacity:1"/><stop offset=".906" style="stop-color:#ccc;stop-opacity:1"/><stop offset=".914" style="stop-color:#cbcbcb;stop-opacity:1"/><stop offset=".922" style="stop-color:#cacaca;stop-opacity:1"/><stop offset=".93" style="stop-color:#c9c9c9;stop-opacity:1"/><stop offset=".938" style="stop-color:#c8c8c8;stop-opacity:1"/><stop offset=".945" style="stop-color:#c7c7c7;stop-opacity:1"/><stop offset=".953" style="stop-color:#c6c6c6;stop-opacity:1"/><stop offset=".961" style="stop-color:#c5c5c5;stop-opacity:1"/><stop offset=".969" style="stop-color:#c4c4c4;stop-opacity:1"/><stop offset=".977" style="stop-color:#c3c3c3;stop-opacity:1"/><stop offset=".984" style="stop-color:#c2c2c2;stop-opacity:1"/><stop offset=".992" style="stop-color:#c1c1c1;stop-opacity:1"/><stop offset="1" style="stop-color:silver;stop-opacity:1"/></linearGradient><clipPath id="a"><path d="M5.777 27.273h226.774V83.97H5.777Zm0 0"/></clipPath></defs><g clip-path="url(#a)"><path style="stroke:none;fill-rule:nonzero;fill:url(#b)" d="M5.777 83.969V27.273h226.774V83.97Zm0 0"/></g><path style="fill:none;stroke-width:1.59404;stroke-linecap:butt;stroke-linejoin:miter;stroke:#000;stroke-opacity:1;stroke-miterlimit:10" d="M-113.387-28.349h226.774M-113.387 28.347h226.774" transform="matrix(1 0 0 -1 119.164 55.62)"/><path style="fill:none;stroke-width:.3985;stroke-linecap:butt;stroke-linejoin:miter;stroke:#000;stroke-opacity:1;stroke-dasharray:2.98883,2.98883;stroke-miterlimit:10" d="M-113.387-.001h238.953" transform="matrix(1 0 0 -1 119.164 55.62)"/><path style="stroke:none;fill-rule:nonzero;fill:#000;fill-opacity:1" d="m246.727 55.621-3.192-1.594 1.195 1.594-1.195 1.594"/><use xlink:href="#c" x="248.716" y="57.55" style="fill:#000;fill-opacity:1"/><path style="fill:none;stroke-width:.3985;stroke-linecap:butt;stroke-linejoin:miter;stroke:#000;stroke-opacity:1;stroke-miterlimit:10" d="M-110.996 42.518h221.992" transform="matrix(1 0 0 -1 119.164 55.62)"/><path style="stroke:none;fill-rule:nonzero;fill:#000;fill-opacity:1" d="m6.176 13.102 3.187 1.593-1.195-1.593 1.195-1.598"/><path style="fill:none;stroke-width:.3985;stroke-linecap:square;stroke-linejoin:miter;stroke:#000;stroke-opacity:1;stroke-miterlimit:10" d="M.1-2.592v5.184" transform="matrix(-1 0 0 1 6.076 13.1)"/><path style="stroke:none;fill-rule:nonzero;fill:#000;fill-opacity:1" d="m232.152 13.102-3.187-1.598 1.195 1.598-1.195 1.593"/><path style="fill:none;stroke-width:.3985;stroke-linecap:square;stroke-linejoin:miter;stroke:#000;stroke-opacity:1;stroke-miterlimit:10" d="M.1-2.592v5.184" transform="matrix(1 0 0 -1 232.252 13.1)"/><use xlink:href="#d" x="116.029" y="11.108" style="fill:#000;fill-opacity:1"/><path style="fill:none;stroke-width:.79701;stroke-linecap:butt;stroke-linejoin:miter;stroke:#000;stroke-opacity:1;stroke-miterlimit:10" d="M0 14.175h25.758" transform="matrix(1 0 0 -1 119.164 55.62)"/><path style="stroke:none;fill-rule:nonzero;fill:#000;fill-opacity:1" d="m147.512 41.445-4.145-2.07 1.555 2.07-1.555 2.075"/><use xlink:href="#e" x="149.503" y="40.065" style="fill:#000;fill-opacity:1"/><use xlink:href="#f" x="149.507" y="40.065" style="fill:#000;fill-opacity:1"/><use xlink:href="#g" x="151.712" y="43.925" style="fill:#000;fill-opacity:1"/><use xlink:href="#h" x="158.718" y="43.925" style="fill:#000;fill-opacity:1"/><use xlink:href="#i" x="162.302" y="43.925" style="fill:#000;fill-opacity:1"/><use xlink:href="#j" x="170.746" y="43.925" style="fill:#000;fill-opacity:1"/><use xlink:href="#k" x="117.047" y="43.267" style="fill:#000;fill-opacity:1"/><use xlink:href="#i" x="114.942" y="39.454" style="fill:#000;fill-opacity:1"/></svg>