<svg xmlns="http://www.w3.org/2000/svg" xmlns:xlink="http://www.w3.org/1999/xlink" width="258.2" height="162.3" viewBox="0 0 193.65 121.725"><defs><symbol overflow="visible" id="c"><path style="stroke:none" d="M.281-.266v.25L.703-.03h.781l.5.015v-.25c-.218 0-.546-.109-.546-.39 0-.094.046-.203.078-.297l.28-.735c.032-.062.032-.14.141-.14h2c.094 0 .11.078.141.156l.172.484c.063.172.125.329.203.5.016.047.047.11.047.172 0 .235-.406.25-.64.25v.25h2.187v-.25h-.188c-.171 0-.375-.015-.5-.109-.093-.11-.14-.266-.187-.39C4.594-2.313 4-3.829 3.438-5.376c-.063-.14-.094-.328-.282-.328-.172 0-.203.187-.25.328-.515 1.328-1.015 2.688-1.531 4.031l-.14.407c-.204.53-.516.656-.954.671Zm1.672-1.828.984-2.594.97 2.594Zm0 0"/></symbol><symbol overflow="visible" id="d"><path style="stroke:none" d="M1.516-4.797c0 .531-.172 1.078-.579 1.422-.03.047-.093.094-.093.14v.032c.015.062.062.094.11.094.124 0 .343-.297.437-.438.218-.312.359-.719.359-1.125 0-.344-.14-.86-.578-.86h-.016c-.265 0-.422.204-.422.438 0 .235.188.438.438.438.156 0 .219-.047.344-.14Zm0 0"/></symbol><symbol overflow="visible" id="g"><path style="stroke:none" d="M.375-5.453v.266c.094 0 .203-.016.297-.016.281 0 .5.047.5.36v4.218c0 .328-.25.36-.531.36H.375v.25h2.578c.172 0 .36.015.531.015.391 0 .797-.063 1.157-.234.468-.235.875-.688.875-1.22 0-.859-.875-1.296-1.61-1.405.563-.157 1.235-.36 1.375-1.11v-.14c0-1.032-1.328-1.344-2.015-1.344h-.532ZM1.859-2.72h1.157c.125 0 .25-.015.375-.015.093 0 .187.015.28.015.595.094 1.048.656 1.048 1.25 0 .61-.532 1.11-1.11 1.188-.125.015-.25.015-.359.015H2.187c-.171 0-.328-.015-.328-.296Zm0-.234v-1.953c0-.235.125-.282.313-.282h1.062c.532 0 1.157.188 1.266.97 0 .03.016.062.016.109 0 .796-.797 1.156-1.485 1.156Zm0 0"/></symbol><symbol overflow="visible" id="h"><path style="stroke:none" d="M2.625-5.453v.266h.078c.313 0 .531.015.531.484v1.64c-.296-.28-.656-.453-1.078-.453-.984 0-1.875.766-1.875 1.797 0 .985.813 1.797 1.797 1.797.422 0 .844-.187 1.125-.515v.515l1.219-.094v-.25h-.125c-.234 0-.484-.03-.484-.406v-4.86ZM.985-1.547v-.11c0-.562.109-1.234.718-1.515.156-.078.344-.125.5-.125.36 0 .75.203.938.531.03.032.062.063.062.11v1.719c0 .406-.656.78-1.062.78-.594 0-1.016-.468-1.11-1.03-.015-.125-.031-.235-.047-.36Zm0 0"/></symbol><symbol overflow="visible" id="t"><path style="stroke:none" d="M.39-5.453v.266c.094 0 .188-.016.282-.016.281 0 .531.047.531.344 0 .046-.016.109-.016.156v3.86c0 .53-.453.577-.796.577v.25L.92-.03h.845l.5.015v-.25c-.36 0-.813-.062-.813-.609 0-.063.016-.14.016-.219v-4.015c.047.156.14.312.203.484.61 1.422 1.203 2.906 1.766 4.344.046.094.078.265.234.265.14 0 .172-.156.219-.265a212.682 212.682 0 0 1 1.796-4.36c.063-.171.157-.359.204-.53v4.359c0 .062.015.14.015.203 0 .296-.265.343-.531.343h-.281v.25l.593-.015H7.36v-.235h-.296c-.266 0-.516-.03-.516-.328v-4.25c0-.312.266-.36.531-.36.11 0 .203.016.281.016v-.265H5.97c-.125 0-.219.047-.25.172l-.094.218C5.094-3.766 4.547-2.469 4.031-1.14c-.062.125-.125.25-.156.375-.156-.359-.313-.734-.453-1.093C2.984-2.938 2.547-4 2.109-5.063l-.078-.203c-.047-.109-.11-.187-.219-.187Zm0 0"/></symbol><symbol overflow="visible" id="u"><path style="stroke:none" d="M1.063-3.125v-.016c.265-.125.484-.187.78-.187.532 0 .891.406.891 1.015v.188c-.984 0-2.39.313-2.39 1.313 0 .671.812.89 1.328.89.453 0 .937-.203 1.156-.656 0 .344.281.61.61.61.406 0 .734-.298.734-.72v-.468h-.25v.39c0 .204-.031.5-.281.5s-.282-.296-.282-.468v-1.641c0-.797-.812-1.172-1.515-1.172-.422 0-1.235.125-1.235.766 0 .172.11.375.344.375.266 0 .406-.156.406-.36 0-.171-.093-.328-.296-.359Zm1.671 1.203v.781c0 .563-.421.985-.968.985-.36 0-.735-.235-.766-.61v-.046c0-.86 1.078-1.063 1.734-1.11Zm0 0"/></symbol><symbol overflow="visible" id="v"><path style="stroke:none" d="M2.922-3.172c-.156.063-.25.188-.25.344 0 .234.172.375.422.375.219 0 .328-.203.328-.375 0-.578-.688-.688-1.172-.719h-.094c-1.031 0-1.875.797-1.875 1.828 0 .985.828 1.797 1.844 1.797.563 0 1.11-.297 1.328-.844.016-.062.063-.125.063-.187 0-.078-.047-.11-.11-.11-.156 0-.125.172-.234.313-.188.36-.547.578-.953.578C1.39-.172.984-.953.984-1.766c0-.64.266-1.546 1.188-1.546.219 0 .531.015.75.14Zm0 0"/></symbol><symbol overflow="visible" id="w"><path style="stroke:none" d="M.313-5.453v.266h.156c.25 0 .453.03.453.39V-.78c0 .047.015.11.015.172 0 .328-.25.343-.578.343H.313v.25l.5-.015h.828l.5.015v-.25h-.172c-.235 0-.438-.03-.438-.328v-1.469c0-.593.39-1.234 1.157-1.234.453 0 .578.406.578.875v1.844c0 .281-.22.312-.438.312h-.172v.25l.5-.015H4l.484.015v-.25h-.156c-.219 0-.453-.03-.453-.312v-1.719c0-.25 0-.5-.11-.719-.187-.375-.609-.5-1-.5-.468 0-1.046.235-1.25.704v-2.72Zm0 0"/></symbol><symbol overflow="visible" id="x"><path style="stroke:none" d="M.36-3.422v.266h.124c.25 0 .454.047.454.39v2.157c0 .328-.22.343-.61.343v.25L.812-.03h.813l.438.015v-.25h-.11c-.234 0-.437-.015-.437-.296v-2.954l-.282.032Zm.687-1.922a.45.45 0 0 0-.39.438c0 .218.187.437.437.437a.453.453 0 0 0 .453-.453.446.446 0 0 0-.438-.437c-.015 0-.046.015-.062.015Zm0 0"/></symbol><symbol overflow="visible" id="y"><path style="stroke:none" d="M.313-3.422v.266h.156c.234 0 .453.031.453.39v2.157c0 .328-.203.343-.61.343v.25l.5-.015h.829l.5.015v-.25h-.172c-.235 0-.438-.03-.438-.328v-1.469c0-.593.39-1.234 1.157-1.234.453 0 .578.406.578.875v1.844c0 .281-.22.312-.438.312h-.172v.25l.5-.015H4l.484.015v-.25h-.156c-.234 0-.453-.03-.453-.312v-1.703c0-.266 0-.531-.125-.781-.203-.344-.625-.454-1-.454-.484 0-1.078.266-1.266.766v-.766l-.296.032Zm0 0"/></symbol><symbol overflow="visible" id="z"><path style="stroke:none" d="M.938-1.828h2.437c.094 0 .14-.047.14-.14 0-.407-.109-.876-.406-1.157-.28-.297-.671-.422-1.078-.422-.937 0-1.797.703-1.797 1.781C.234-.859.954.078 2.11.078c.594 0 1.235-.375 1.391-.969.016-.015.016-.046.016-.062 0-.063-.047-.125-.11-.125-.156 0-.172.25-.25.36a1.175 1.175 0 0 1-.984.53c-.422 0-.828-.218-1.047-.609-.156-.312-.188-.672-.188-1.031Zm.015-.219c.078-.453.156-.937.625-1.172a.867.867 0 0 1 .438-.11c.515 0 .859.423.937 1 .016.095.016.188.031.282Zm0 0"/></symbol><symbol overflow="visible" id="A"><path style="stroke:none" d="M.172-3.438v.266h.125c.266 0 .406.063.547.344l.172.406c.328.719.656 1.453.968 2.172l.079.156c.015.016.015.047.015.078v.032c0 .046-.031.093-.062.14L1.89.437c-.172.407-.422.954-.954.954a.796.796 0 0 1-.328-.094c.125-.047.25-.14.25-.344C.86.75.688.625.516.625a.337.337 0 0 0-.344.344c0 .422.422.656.766.656.625 0 .968-.594 1.203-1.11l.203-.484c.375-.844.734-1.687 1.125-2.5.14-.312.297-.703.812-.703v-.265l-.328.03h-.578l-.406-.03v.265c.234 0 .344.172.344.328 0 .156-.094.297-.157.438l-.562 1.265c-.063.141-.11.266-.172.407-.078-.188-.172-.375-.266-.579L1.5-2.78c-.016-.063-.047-.125-.047-.188V-3c.016-.172.266-.172.406-.172v-.265l-.5.03H.594Zm0 0"/></symbol><symbol overflow="visible" id="B"><path style="stroke:none" d="M.266-3.422v.266H.39c.25 0 .484.015.484.39v2.157c0 .328-.203.343-.61.343v.25L.75-.03h.906l.563.015v-.25h-.281c-.25 0-.47-.03-.47-.328v-1.328c0-.578.313-1.375 1-1.375A.427.427 0 0 0 2.345-3c0 .219.187.36.36.36.202 0 .358-.172.358-.36 0-.344-.343-.516-.624-.516-.47 0-.938.422-1.016.844l-.016-.844-.39.032Zm0 0"/></symbol><symbol overflow="visible" id="C"><path style="stroke:none" d="M.313-3.422v.266h.109c.203 0 .453.015.484.234.016.078.016.172.016.25v1.578c0 .235.015.469.125.672.234.39.734.5 1.125.5.375 0 .719-.125.937-.406a.714.714 0 0 0 .172-.25l.016.656 1.187-.094v-.25h-.156c-.219 0-.453-.03-.453-.39v-2.86l-1.219.094v.266h.094c.281 0 .516.015.516.39v1.36c0 .64-.344 1.25-1.032 1.25-.28 0-.64-.063-.687-.469-.016-.14-.016-.297-.016-.438v-2.453Zm0 0"/></symbol><symbol overflow="visible" id="D"><path style="stroke:none" d="M.328-5.453v.266h.11c.25 0 .5.015.5.421v4.157c0 .328-.25.343-.532.343H.328v.25L.812-.03h.829l.484.015v-.25h-.188c-.218 0-.421-.03-.421-.312v-4.953Zm0 0"/></symbol><symbol overflow="visible" id="E"><path style="stroke:none" d="M3.203-.484 3.22.969c0 .281-.188.312-.61.312v.25l.5-.015h.829l.5.015v-.25h-.172c-.235 0-.438-.031-.438-.343v-4.454L3.61-3.5l-.312.672c-.25-.422-.672-.688-1.172-.688-1 0-1.844.813-1.844 1.797 0 1 .828 1.797 1.797 1.797.39 0 .922-.203 1.125-.562ZM.984-1.61v-.079c0-.53.204-1.156.735-1.437a.97.97 0 0 1 .5-.14c.484 0 .953.468 1.015.953v1.203c0 .484-.562.843-.859.921-.078.016-.156.032-.25.032h-.047c-.562-.032-.922-.578-1.031-1.063a2.916 2.916 0 0 1-.063-.39Zm0 0"/></symbol><symbol overflow="visible" id="F"><path style="stroke:none" d="M.36-5.453v.266c.093 0 .203-.016.296-.016.281 0 .5.047.5.36v4.218c0 .328-.25.36-.531.36H.359v.25h2.344v-.25h-.297c-.281 0-.515-.047-.515-.36V-2.5h1.578c.797-.047 1.734-.516 1.812-1.375v-.063c0-1.046-1.172-1.515-2.125-1.515h-.484Zm1.515 2.719v-2.204c0-.203.14-.25.313-.25h.671c.704 0 1.594.047 1.594 1.25 0 1.032-.781 1.204-1.453 1.204Zm0 0"/></symbol><symbol overflow="visible" id="G"><path style="stroke:none" d="M.75-.266c.25.22.563.344.906.344.625 0 1.39-.234 1.39-1.125v-.062c-.03-.485-.421-.829-.858-.97-.454-.14-1.485-.093-1.485-.702 0-.469.61-.578.953-.578.485 0 .875.25.938.812 0 .063 0 .14.11.14.108 0 .14-.077.14-.171v-.86c0-.062-.047-.109-.125-.109-.14 0-.203.188-.297.188h-.016c-.125-.047-.234-.125-.375-.157-.125-.015-.234-.03-.36-.03-.577 0-1.39.155-1.39 1v.062c.016.28.203.484.422.656.625.406 1.828.14 1.922.953 0 .563-.5.719-.938.719-.609 0-1.03-.422-1.125-.969-.03-.094-.03-.203-.156-.203-.125 0-.125.078-.125.156v.969c0 .031-.015.078-.015.11 0 .077.03.171.109.171.078 0 .156-.094.188-.14L.609-.11C.656-.172.703-.22.75-.266Zm0 0"/></symbol><symbol overflow="visible" id="H"><path style="stroke:none" d="M.938-3.438H.28v.266h.656v2.61c0 .28-.25.296-.5.296H.329v.25L.812-.03h.907l.562.015v-.25h-.25c-.328 0-.515-.03-.515-.359v-2.547h.968v-.265H1.5v-.735c0-.516.156-1.219.75-1.219.063 0 .156.016.219.032a.367.367 0 0 0 .172.687.37.37 0 0 0 .375-.375c0-.39-.422-.578-.75-.578-.75 0-1.329.547-1.329 1.36Zm0 0"/></symbol><symbol overflow="visible" id="I"><path style="stroke:none" d="M1.984-3.547c-.906.094-1.75.75-1.75 1.875 0 1.078.985 1.75 1.907 1.75C3.062.078 4-.64 4-1.688c0-1.03-.86-1.859-1.906-1.859Zm-1.046 2v-.203c0-.422.03-.969.375-1.281.218-.203.515-.297.812-.297.813 0 1.156.672 1.156 1.5 0 .437-.015.922-.312 1.281-.219.25-.531.375-.86.375-.593 0-1.046-.422-1.14-1.047-.016-.11-.016-.218-.031-.328Zm0 0"/></symbol><symbol overflow="visible" id="J"><path style="stroke:none" d="M1.11-3.422a.436.436 0 0 0-.376.438c0 .218.172.437.422.437A.457.457 0 0 0 1.625-3a.447.447 0 0 0-.438-.438c-.03 0-.046.016-.078.016Zm0 2.531a.448.448 0 0 0-.376.438c0 .219.172.437.422.437.282 0 .469-.203.469-.437a.447.447 0 0 0-.438-.438H1.11Zm0 0"/></symbol><symbol overflow="visible" id="L"><path style="stroke:none" d="M1.234-4.906c0 .562-.265 1.515-1.078 1.515v.22h.719v2.062c0 .25.016.5.14.734.204.313.594.453.954.453.672 0 .843-.719.843-1.234v-.297h-.25c0 .11.016.219.016.344 0 .343-.094.937-.562.937-.438 0-.532-.469-.532-.86v-2.14h1.188v-.265H1.484v-1.47Zm0 0"/></symbol><symbol overflow="visible" id="M"><path style="stroke:none" d="M.969-.172C.609-.109.234.218.234.61c0 .829 1.313 1.016 1.875 1.016C2.766 1.625 4 1.422 4 .594c0-1-1.063-1.156-1.86-1.156h-.687c-.312 0-.516-.25-.516-.532v-.031c.016-.11.047-.25.125-.266.032 0 .11.047.157.079a1.6 1.6 0 0 0 .656.14c.64 0 1.375-.422 1.375-1.156a1.07 1.07 0 0 0-.219-.656c-.031-.032-.078-.079-.078-.11 0-.125.469-.281.735-.281a.259.259 0 0 0-.079.188c0 .14.11.25.25.25.141 0 .25-.11.25-.25 0-.266-.234-.422-.468-.422-.282 0-.61.14-.782.296-.015.016-.046.047-.093.047H2.75c-.031 0-.094-.046-.156-.078a1.609 1.609 0 0 0-.703-.172c-.641 0-1.375.422-1.375 1.172 0 .25.093.516.265.703.031.032.078.079.078.11v.015c0 .063-.14.22-.171.344A.885.885 0 0 0 .64-.89c0 .313.109.454.328.72ZM.703.656V.594c0-.438.453-.625.828-.625h.61c.593 0 1.296.047 1.375.594v.046c0 .313-.375.563-.594.641a2.2 2.2 0 0 1-.828.14c-.516 0-1.328-.218-1.39-.734Zm.438-2.86v-.093c0-.453.14-.984.734-.984.5 0 .75.422.75.969 0 .468-.219.906-.75.906a.711.711 0 0 1-.547-.266c-.14-.156-.172-.344-.187-.531Zm0 0"/></symbol><symbol overflow="visible" id="i"><path style="stroke:none" d="M1.594-1.313c.031-.109.11-.421.125-.53.031-.079.078-.282.093-.36.016-.031.282-.547.625-.813.266-.218.532-.28.766-.28.281 0 .453.187.453.546 0 .188-.047.375-.14.734a16.99 16.99 0 0 0-.235.954l-.125.484a2.282 2.282 0 0 0-.094.406c0 .188.157.25.25.25.141 0 .266-.094.329-.187.015-.047.078-.329.125-.485l.171-.719c.032-.109.11-.421.141-.53.11-.438.11-.438.281-.704.266-.39.641-.75 1.172-.75.297 0 .469.172.469.547 0 .438-.344 1.36-.5 1.734-.078.204-.094.266-.094.422 0 .453.375.672.719.672.781 0 1.11-1.11 1.11-1.219 0-.078-.079-.109-.126-.109-.093 0-.109.063-.14.14-.188.657-.516.97-.828.97-.125 0-.188-.079-.188-.266 0-.188.063-.36.14-.563.126-.297.47-1.219.47-1.656 0-.61-.407-.89-.985-.89-.547 0-1 .28-1.36.78-.062-.64-.577-.78-.984-.78-.375 0-.859.124-1.296.703-.063-.485-.438-.704-.813-.704-.281 0-.484.172-.61.438a2.882 2.882 0 0 0-.28.781c0 .078.062.11.124.11.11 0 .11-.032.172-.25.094-.391.235-.86.563-.86.218 0 .265.203.265.375 0 .156-.046.297-.109.563-.016.062-.14.53-.172.64L.781-.516C.75-.39.703-.203.703-.172c0 .188.156.25.266.25.14 0 .265-.094.312-.187.032-.047.094-.329.125-.485Zm0 0"/></symbol><symbol overflow="visible" id="k"><path style="stroke:none" d="M.297 1.281c-.031.125-.031.172-.031.188 0 .203.156.25.25.25.046 0 .218-.016.328-.219.047-.094.203-.828.484-1.922.094.172.36.5.844.5.969 0 2.047-1.062 2.047-2.265 0-.891-.594-1.329-1.219-1.329-.734 0-1.672.657-1.953 1.813ZM2.157-.14c-.548 0-.72-.578-.72-.687 0-.031.204-.844.22-.906C2.015-3.141 2.765-3.297 3-3.297c.375 0 .594.344.594.781 0 .297-.156 1.094-.39 1.579-.235.453-.657.796-1.048.796Zm0 0"/></symbol><symbol overflow="visible" id="l"><path style="stroke:none" d="M3.953-2.906c0-.61-.344-.61-.39-.61-.188 0-.407.204-.407.407 0 .125.063.187.14.25a.847.847 0 0 1 .282.64c0 .36-.515 2.078-1.437 2.078-.344 0-.625-.187-.625-.687 0-.438.25-1.063.437-1.547.094-.25.125-.313.125-.469 0-.422-.36-.672-.719-.672-.796 0-1.125 1.125-1.125 1.22 0 .077.063.108.125.108.11 0 .11-.046.141-.124.203-.704.547-.985.828-.985.125 0 .188.078.188.266 0 .187-.063.375-.141.562C.985-1.453.953-1.188.953-.953c0 .875.703 1.031 1.156 1.031 1.329 0 1.844-2.375 1.844-2.984Zm0 0"/></symbol><symbol overflow="visible" id="n"><path style="stroke:none" d="M1.766-3.172h.78c.142 0 .235 0 .235-.156 0-.11-.094-.11-.234-.11h-.719l.281-1.124c.032-.125.032-.157.032-.172 0-.172-.125-.25-.266-.25-.266 0-.328.218-.406.578l-.25.968H.453c-.156 0-.25 0-.25.157 0 .11.094.11.234.11h.72L.671-1.267c-.047.204-.11.485-.11.594 0 .485.391.75.813.75.844 0 1.328-1.125 1.328-1.219 0-.093-.062-.109-.11-.109-.093 0-.093.031-.155.156-.157.39-.563.953-1.047.953-.157 0-.266-.109-.266-.375 0-.156.031-.234.047-.343Zm0 0"/></symbol><symbol overflow="visible" id="o"><path style="stroke:none" d="M5.344-5.39a.294.294 0 0 0 .031-.126c0-.046-.047-.093-.11-.093-.046 0-.062.015-.156.109-.093.11-.296.36-.39.453-.297-.453-.813-.562-1.219-.562-1.094 0-2.047.937-2.047 1.843 0 .454.25.735.281.782.266.28.5.343 1.079.484.265.063.28.063.515.125.235.063.75.188.75.844 0 .687-.687 1.437-1.531 1.437-.516 0-1.469-.156-1.469-1.156 0-.016 0-.188.047-.375l.016-.078c0-.094-.094-.11-.125-.11-.094 0-.11.032-.141.22L.547-.298C.516-.172.453.047.453.063c0 .062.047.109.11.109.046 0 .062-.016.14-.11l.39-.453c.188.235.641.563 1.438.563 1.156 0 2.11-1.047 2.11-2 0-.375-.125-.656-.344-.875-.234-.266-.5-.328-.875-.422-.219-.063-.531-.14-.719-.188-.234-.046-.687-.203-.687-.765 0-.625.671-1.297 1.484-1.297.719 0 1.203.375 1.203 1.234 0 .204-.031.36-.031.391 0 .094.078.11.14.11.094 0 .094-.032.125-.157Zm0 0"/></symbol><symbol overflow="visible" id="O"><path style="stroke:none" d="M.422.969c-.078.25-.094.312-.406.312-.11 0-.204 0-.204.157 0 .062.063.109.11.109.078 0 .11-.031.703-.031.563 0 .734.03.797.03.031 0 .14 0 .14-.155 0-.11-.109-.11-.203-.11-.375 0-.375-.047-.375-.125 0-.047.141-.61.375-1.547.11.188.36.47.782.47.984 0 2-1.126 2-2.282C4.14-3 3.64-3.516 3-3.516c-.484 0-.86.329-1.094.563-.172-.563-.703-.563-.781-.563-.281 0-.484.188-.61.438-.187.36-.28.765-.28.781 0 .078.062.11.124.11.11 0 .11-.032.172-.25.094-.407.235-.86.563-.86.203 0 .265.188.265.375 0 .078-.03.281-.046.344Zm1.453-3.422c.047-.14.047-.156.172-.297.297-.36.64-.547.922-.547.406 0 .547.39.547.75 0 .297-.172 1.156-.407 1.625-.203.422-.593.781-.968.781-.532 0-.672-.625-.672-.687 0-.016.015-.094.031-.125Zm0 0"/></symbol><symbol overflow="visible" id="j"><path style="stroke:none" d="M5.828-2.656c.11 0 .281 0 .281-.188 0-.172-.203-.172-.312-.172H.78c-.125 0-.312 0-.312.172 0 .188.156.188.281.188ZM5.797-.97c.11 0 .312 0 .312-.172 0-.187-.171-.187-.28-.187H.75c-.125 0-.281 0-.281.187 0 .172.187.172.312.172Zm0 0"/></symbol><symbol overflow="visible" id="N"><path style="stroke:none" d="M3.766-5.531c-.094-.157-.188-.157-.25-.157-.047 0-.141 0-.235.157L.47-.203c-.063.094-.063.11-.063.125C.406 0 .47 0 .594 0h5.86c.124 0 .187 0 .187-.078 0-.016 0-.031-.063-.125Zm-.5.625L5.53-.625H.984Zm0 0"/></symbol><symbol overflow="visible" id="m"><path style="stroke:none" d="M1.36-.734c-.235.343-.438.468-.766.5-.094 0-.156 0-.156.14C.438-.03.483 0 .515 0c.171 0 .375-.031.546-.031.141 0 .5.031.641.031.063 0 .125-.031.125-.156 0-.078-.078-.078-.094-.078-.156-.016-.28-.047-.28-.172 0-.078.062-.188.077-.219l.5-.734h1.797l.156.968c0 .157-.343.157-.406.157-.078 0-.172 0-.172.14 0 .032.031.094.094.094.188 0 .625-.031.797-.031.125 0 .234.015.36.015.124 0 .25.016.359.016.046 0 .14 0 .14-.156 0-.078-.078-.078-.172-.078-.375 0-.375-.047-.406-.203L3.984-4.11c-.015-.11-.015-.157-.156-.157-.125 0-.156.047-.219.125Zm.827-.86 1.297-1.953.297 1.953Zm0 0"/></symbol><symbol overflow="visible" id="P"><path style="stroke:none" d="M3.594-1.625a.94.94 0 0 0 .047-.313c0-.484-.344-.703-.829-.703-.53 0-.89.36-1.046.563-.047-.406-.407-.563-.688-.563-.281 0-.422.204-.5.329-.14.25-.219.562-.219.593 0 .063.063.078.11.078.094 0 .11-.03.14-.125.125-.5.266-.671.454-.671.218 0 .218.234.218.296 0 .094-.062.344-.11.5-.046.172-.093.407-.124.547C1-.954.969-.797.922-.64c-.047.172-.11.47-.11.5 0 .141.094.203.204.203.109 0 .218-.078.265-.171 0-.032.063-.235.094-.36L1.5-1c.047-.156.063-.266.11-.406.046-.219.28-.563.5-.766.25-.219.5-.265.671-.265.39 0 .39.312.39.421a.957.957 0 0 1-.046.297L2.453 1c-.015.047-.031.063-.031.094 0 .062.062.187.219.187.218 0 .28-.203.296-.281Zm0 0"/></symbol><symbol overflow="visible" id="Q"><path style="stroke:none" d="M1.25-.5c-.047.219-.063.266-.516.266-.125 0-.14 0-.156.015-.031.016-.062.094-.062.14C.53 0 .594 0 .719 0H3.14C4.187 0 5-.672 5-1.281c0-.36-.328-.766-1.078-.86.687-.109 1.375-.546 1.375-1.093 0-.422-.469-.86-1.313-.86H1.688c-.11 0-.204 0-.204.157 0 .093.094.093.204.093.109 0 .25 0 .375.031 0 .063 0 .11-.016.204Zm.984-1.719.36-1.422c.047-.203.047-.203.297-.203h1c.609 0 .796.375.796.625 0 .485-.625 1-1.359 1Zm-.28 1.985c-.11 0-.126 0-.204-.016l.438-1.781h1.296c.766 0 .891.484.891.734 0 .563-.64 1.063-1.39 1.063Zm0 0"/></symbol><symbol overflow="visible" id="p"><path style="stroke:none" d="M5.563-1.813c.14 0 .312 0 .312-.171 0-.188-.172-.188-.313-.188H1c-.125 0-.297 0-.297.188 0 .171.172.171.297.171Zm0 0"/></symbol><symbol overflow="visible" id="q"><path style="stroke:none" d="M6.953-1.813a2.931 2.931 0 0 0-.703.75c-.344.516-.438 1.016-.438 1.047 0 .125.11.125.188.125.094 0 .156 0 .188-.093.203-.891.718-1.563 1.671-1.891.063-.016.141-.031.141-.11 0-.093-.078-.109-.11-.124-1.062-.36-1.53-1.11-1.687-1.797-.047-.172-.047-.188-.203-.188-.078 0-.188 0-.188.125 0 .016.079.531.438 1.063.234.328.5.578.703.734H.766c-.125 0-.297 0-.297.188 0 .171.172.171.297.171Zm0 0"/></symbol><symbol overflow="visible" id="K"><path style="stroke:none" d="M2.922-5.438c-.469 0-1.156.094-1.766.407-.906.5-.984 1.078-.984 1.093 0 .047.047.063.094.063.171 0 .546-.203.609-.39.11-.329.219-.657 1.453-.72C2.125-2.436 1.297-.421 1.016.266 1 .298 1 .313 1 .329c0 .063.047.063.078.063.172 0 .516-.188.61-.344 0 0 .171-.406.437-1.156.406-1.141.75-2.47.875-3.875h.469c.687 0 2.031.187 2.031 1.156 0 .422-.25.906-.61 1.203-.593.469-1.406.516-1.593.531-.172 0-.266 0-.438.11-.14.078-.296.203-.296.28 0 .063.046.063.14.063.563 0 1.531-.187 2.36-.78.921-.642 1.156-1.345 1.156-1.75 0-.985-1.282-1.266-2.14-1.266Zm0 0"/></symbol><symbol overflow="visible" id="r"><path style="stroke:none" d="M.328-.25V0l.313-.031h1.078V-.25c-.188 0-.438-.063-.438-.266 0-.062.032-.125.047-.187.078-.172.156-.36.234-.547.016-.047.016-.11.11-.11h1.656c.11 0 .188.329.266.485.047.125.094.234.14.344a.368.368 0 0 1 .032.125v.015c-.032.141-.282.141-.438.141h-.047V0h.672l.11-.031h.578L5.03 0v-.25h-.187c-.344 0-.422-.078-.516-.344-.344-.875-.719-1.734-1.078-2.61l-.328-.812c-.063-.125-.078-.265-.25-.265s-.188.14-.235.25l-.312.797c-.36.828-.703 1.671-1.047 2.5-.156.421-.406.484-.75.484Zm1.375-1.344L2.5-3.516l.797 1.922Zm0 0"/></symbol><symbol overflow="visible" id="s"><path style="stroke:none" d="M.406-4.094v.235h.235c.218 0 .406.03.406.234V-.485c0 .22-.203.25-.39.25-.095 0-.173-.015-.25-.015V0h2.452c.594 0 1.344-.094 1.672-.75a.852.852 0 0 0 .078-.344c0-.64-.718-.984-1.296-1.047.421-.109 1.109-.312 1.109-.921 0-.438-.39-.75-.75-.891-.328-.125-.656-.14-.985-.14ZM1.61-2.03h.907c.109 0 .218-.016.328-.016.531 0 1.125.313 1.125.922 0 .484-.453.797-.906.875H1.859c-.125 0-.25 0-.25-.203Zm0-.203v-1.422c0-.172.094-.203.235-.203h.89c.407 0 .797.093 1 .5a.634.634 0 0 1 .063.296c0 .485-.547.829-1.031.829Zm0 0"/></symbol><linearGradient id="b" gradientUnits="userSpaceOnUse" x1="0" y1="25.002" x2="0" y2="74.998" gradientTransform="matrix(.7938 0 0 -.23813 -5.963 85.446)"><stop offset="0" style="stop-color:#bfbfbf;stop-opacity:1"/><stop offset=".008" style="stop-color:silver;stop-opacity:1"/><stop offset=".016" style="stop-color:#c1c1c1;stop-opacity:1"/><stop offset=".023" style="stop-color:#c2c2c2;stop-opacity:1"/><stop offset=".031" style="stop-color:#c3c3c3;stop-opacity:1"/><stop offset=".039" style="stop-color:#c4c4c4;stop-opacity:1"/><stop offset=".047" style="stop-color:#c5c5c5;stop-opacity:1"/><stop offset=".055" style="stop-color:#c6c6c6;stop-opacity:1"/><stop offset=".063" style="stop-color:#c7c7c7;stop-opacity:1"/><stop offset=".07" style="stop-color:#c8c8c8;stop-opacity:1"/><stop offset=".078" style="stop-color:#c9c9c9;stop-opacity:1"/><stop offset=".086" style="stop-color:#cacaca;stop-opacity:1"/><stop offset=".094" style="stop-color:#cbcbcb;stop-opacity:1"/><stop offset=".102" style="stop-color:#ccc;stop-opacity:1"/><stop offset=".109" style="stop-color:#cdcdcd;stop-opacity:1"/><stop offset=".117" style="stop-color:#cecece;stop-opacity:1"/><stop offset=".125" style="stop-color:#cfcfcf;stop-opacity:1"/><stop offset=".133" style="stop-color:#d0d0d0;stop-opacity:1"/><stop offset=".141" style="stop-color:#d1d1d1;stop-opacity:1"/><stop offset=".148" style="stop-color:#d2d2d2;stop-opacity:1"/><stop offset=".156" style="stop-color:#d3d3d3;stop-opacity:1"/><stop offset=".164" style="stop-color:#d4d4d4;stop-opacity:1"/><stop offset=".172" style="stop-color:#d5d5d5;stop-opacity:1"/><stop offset=".18" style="stop-color:#d6d6d6;stop-opacity:1"/><stop offset=".188" style="stop-color:#d7d7d7;stop-opacity:1"/><stop offset=".195" style="stop-color:#d8d8d8;stop-opacity:1"/><stop offset=".203" style="stop-color:#d9d9d9;stop-opacity:1"/><stop offset=".211" style="stop-color:#dadada;stop-opacity:1"/><stop offset=".219" style="stop-color:#dbdbdb;stop-opacity:1"/><stop offset=".227" style="stop-color:#dcdcdc;stop-opacity:1"/><stop offset=".234" style="stop-color:#ddd;stop-opacity:1"/><stop offset=".242" style="stop-color:#dedede;stop-opacity:1"/><stop offset=".25" style="stop-color:#dfdfdf;stop-opacity:1"/><stop offset=".258" style="stop-color:#e0e0e0;stop-opacity:1"/><stop offset=".266" style="stop-color:#e1e1e1;stop-opacity:1"/><stop offset=".273" style="stop-color:#e2e2e2;stop-opacity:1"/><stop offset=".281" style="stop-color:#e3e3e3;stop-opacity:1"/><stop offset=".289" style="stop-color:#e4e4e4;stop-opacity:1"/><stop offset=".297" style="stop-color:#e5e5e5;stop-opacity:1"/><stop offset=".305" style="stop-color:#e6e6e6;stop-opacity:1"/><stop offset=".313" style="stop-color:#e7e7e7;stop-opacity:1"/><stop offset=".32" style="stop-color:#e8e8e8;stop-opacity:1"/><stop offset=".328" style="stop-color:#e9e9e9;stop-opacity:1"/><stop offset=".336" style="stop-color:#eaeaea;stop-opacity:1"/><stop offset=".344" style="stop-color:#ebebeb;stop-opacity:1"/><stop offset=".352" style="stop-color:#ececec;stop-opacity:1"/><stop offset=".359" style="stop-color:#ededed;stop-opacity:1"/><stop offset=".367" style="stop-color:#eee;stop-opacity:1"/><stop offset=".375" style="stop-color:#efefef;stop-opacity:1"/><stop offset=".383" style="stop-color:#f0f0f0;stop-opacity:1"/><stop offset=".391" style="stop-color:#f1f1f1;stop-opacity:1"/><stop offset=".398" style="stop-color:#f2f2f2;stop-opacity:1"/><stop offset=".406" style="stop-color:#f3f3f3;stop-opacity:1"/><stop offset=".414" style="stop-color:#f4f4f4;stop-opacity:1"/><stop offset=".422" style="stop-color:#f5f5f5;stop-opacity:1"/><stop offset=".43" style="stop-color:#f6f6f6;stop-opacity:1"/><stop offset=".438" style="stop-color:#f7f7f7;stop-opacity:1"/><stop offset=".445" style="stop-color:#f8f8f8;stop-opacity:1"/><stop offset=".453" style="stop-color:#f9f9f9;stop-opacity:1"/><stop offset=".461" style="stop-color:#fafafa;stop-opacity:1"/><stop offset=".469" style="stop-color:#fbfbfb;stop-opacity:1"/><stop offset=".477" style="stop-color:#fcfcfc;stop-opacity:1"/><stop offset=".484" style="stop-color:#fdfdfd;stop-opacity:1"/><stop offset=".492" style="stop-color:#fefefe;stop-opacity:1"/><stop offset=".5" style="stop-color:#fefefe;stop-opacity:1"/><stop offset=".508" style="stop-color:#fefefe;stop-opacity:1"/><stop offset=".516" style="stop-color:#fefefe;stop-opacity:1"/><stop offset=".523" style="stop-color:#fdfdfd;stop-opacity:1"/><stop offset=".531" style="stop-color:#fcfcfc;stop-opacity:1"/><stop offset=".539" style="stop-color:#fbfbfb;stop-opacity:1"/><stop offset=".547" style="stop-color:#fafafa;stop-opacity:1"/><stop offset=".555" style="stop-color:#f9f9f9;stop-opacity:1"/><stop offset=".563" style="stop-color:#f8f8f8;stop-opacity:1"/><stop offset=".57" style="stop-color:#f7f7f7;stop-opacity:1"/><stop offset=".578" style="stop-color:#f6f6f6;stop-opacity:1"/><stop offset=".586" style="stop-color:#f5f5f5;stop-opacity:1"/><stop offset=".594" style="stop-color:#f4f4f4;stop-opacity:1"/><stop offset=".602" style="stop-color:#f3f3f3;stop-opacity:1"/><stop offset=".609" style="stop-color:#f2f2f2;stop-opacity:1"/><stop offset=".617" style="stop-color:#f1f1f1;stop-opacity:1"/><stop offset=".625" style="stop-color:#f0f0f0;stop-opacity:1"/><stop offset=".633" style="stop-color:#efefef;stop-opacity:1"/><stop offset=".641" style="stop-color:#eee;stop-opacity:1"/><stop offset=".648" style="stop-color:#ededed;stop-opacity:1"/><stop offset=".656" style="stop-color:#ececec;stop-opacity:1"/><stop offset=".664" style="stop-color:#ebebeb;stop-opacity:1"/><stop offset=".672" style="stop-color:#eaeaea;stop-opacity:1"/><stop offset=".68" style="stop-color:#e9e9e9;stop-opacity:1"/><stop offset=".688" style="stop-color:#e8e8e8;stop-opacity:1"/><stop offset=".695" style="stop-color:#e7e7e7;stop-opacity:1"/><stop offset=".703" style="stop-color:#e6e6e6;stop-opacity:1"/><stop offset=".711" style="stop-color:#e5e5e5;stop-opacity:1"/><stop offset=".719" style="stop-color:#e4e4e4;stop-opacity:1"/><stop offset=".727" style="stop-color:#e3e3e3;stop-opacity:1"/><stop offset=".734" style="stop-color:#e2e2e2;stop-opacity:1"/><stop offset=".742" style="stop-color:#e1e1e1;stop-opacity:1"/><stop offset=".75" style="stop-color:#e0e0e0;stop-opacity:1"/><stop offset=".758" style="stop-color:#dfdfdf;stop-opacity:1"/><stop offset=".766" style="stop-color:#dedede;stop-opacity:1"/><stop offset=".773" style="stop-color:#ddd;stop-opacity:1"/><stop offset=".781" style="stop-color:#dcdcdc;stop-opacity:1"/><stop offset=".789" style="stop-color:#dbdbdb;stop-opacity:1"/><stop offset=".797" style="stop-color:#dadada;stop-opacity:1"/><stop offset=".805" style="stop-color:#d9d9d9;stop-opacity:1"/><stop offset=".813" style="stop-color:#d8d8d8;stop-opacity:1"/><stop offset=".82" style="stop-color:#d7d7d7;stop-opacity:1"/><stop offset=".828" style="stop-color:#d6d6d6;stop-opacity:1"/><stop offset=".836" style="stop-color:#d5d5d5;stop-opacity:1"/><stop offset=".844" style="stop-color:#d4d4d4;stop-opacity:1"/><stop offset=".852" style="stop-color:#d3d3d3;stop-opacity:1"/><stop offset=".859" style="stop-color:#d2d2d2;stop-opacity:1"/><stop offset=".867" style="stop-color:#d1d1d1;stop-opacity:1"/><stop offset=".875" style="stop-color:#d0d0d0;stop-opacity:1"/><stop offset=".883" style="stop-color:#cfcfcf;stop-opacity:1"/><stop offset=".891" style="stop-color:#cecece;stop-opacity:1"/><stop offset=".898" style="stop-color:#cdcdcd;stop-opacity:1"/><stop offset=".906" style="stop-color:#ccc;stop-opacity:1"/><stop offset=".914" style="stop-color:#cbcbcb;stop-opacity:1"/><stop offset=".922" style="stop-color:#cacaca;stop-opacity:1"/><stop offset=".93" style="stop-color:#c9c9c9;stop-opacity:1"/><stop offset=".938" style="stop-color:#c8c8c8;stop-opacity:1"/><stop offset=".945" style="stop-color:#c7c7c7;stop-opacity:1"/><stop offset=".953" style="stop-color:#c6c6c6;stop-opacity:1"/><stop offset=".961" style="stop-color:#c5c5c5;stop-opacity:1"/><stop offset=".969" style="stop-color:#c4c4c4;stop-opacity:1"/><stop offset=".977" style="stop-color:#c3c3c3;stop-opacity:1"/><stop offset=".984" style="stop-color:#c2c2c2;stop-opacity:1"/><stop offset=".992" style="stop-color:#c1c1c1;stop-opacity:1"/><stop offset="1" style="stop-color:silver;stop-opacity:1"/></linearGradient><linearGradient id="f" gradientUnits="userSpaceOnUse" x1="0" y1="25.002" x2="0" y2="74.998" gradientTransform="matrix(.7938 0 0 -.15875 113.093 41.792)"><stop offset="0" style="stop-color:#bfbfbf;stop-opacity:1"/><stop offset=".008" style="stop-color:silver;stop-opacity:1"/><stop offset=".016" style="stop-color:#c1c1c1;stop-opacity:1"/><stop offset=".023" style="stop-color:#c2c2c2;stop-opacity:1"/><stop offset=".031" style="stop-color:#c3c3c3;stop-opacity:1"/><stop offset=".039" style="stop-color:#c4c4c4;stop-opacity:1"/><stop offset=".047" style="stop-color:#c5c5c5;stop-opacity:1"/><stop offset=".055" style="stop-color:#c6c6c6;stop-opacity:1"/><stop offset=".063" style="stop-color:#c7c7c7;stop-opacity:1"/><stop offset=".07" style="stop-color:#c8c8c8;stop-opacity:1"/><stop offset=".078" style="stop-color:#c9c9c9;stop-opacity:1"/><stop offset=".086" style="stop-color:#cacaca;stop-opacity:1"/><stop offset=".094" style="stop-color:#cbcbcb;stop-opacity:1"/><stop offset=".102" style="stop-color:#ccc;stop-opacity:1"/><stop offset=".109" style="stop-color:#cdcdcd;stop-opacity:1"/><stop offset=".117" style="stop-color:#cecece;stop-opacity:1"/><stop offset=".125" style="stop-color:#cfcfcf;stop-opacity:1"/><stop offset=".133" style="stop-color:#d0d0d0;stop-opacity:1"/><stop offset=".141" style="stop-color:#d1d1d1;stop-opacity:1"/><stop offset=".148" style="stop-color:#d2d2d2;stop-opacity:1"/><stop offset=".156" style="stop-color:#d3d3d3;stop-opacity:1"/><stop offset=".164" style="stop-color:#d4d4d4;stop-opacity:1"/><stop offset=".172" style="stop-color:#d5d5d5;stop-opacity:1"/><stop offset=".18" style="stop-color:#d6d6d6;stop-opacity:1"/><stop offset=".188" style="stop-color:#d7d7d7;stop-opacity:1"/><stop offset=".195" style="stop-color:#d8d8d8;stop-opacity:1"/><stop offset=".203" style="stop-color:#d9d9d9;stop-opacity:1"/><stop offset=".211" style="stop-color:#dadada;stop-opacity:1"/><stop offset=".219" style="stop-color:#dbdbdb;stop-opacity:1"/><stop offset=".227" style="stop-color:#dcdcdc;stop-opacity:1"/><stop offset=".234" style="stop-color:#ddd;stop-opacity:1"/><stop offset=".242" style="stop-color:#dedede;stop-opacity:1"/><stop offset=".25" style="stop-color:#dfdfdf;stop-opacity:1"/><stop offset=".258" style="stop-color:#e0e0e0;stop-opacity:1"/><stop offset=".266" style="stop-color:#e1e1e1;stop-opacity:1"/><stop offset=".273" style="stop-color:#e2e2e2;stop-opacity:1"/><stop offset=".281" style="stop-color:#e3e3e3;stop-opacity:1"/><stop offset=".289" style="stop-color:#e4e4e4;stop-opacity:1"/><stop offset=".297" style="stop-color:#e5e5e5;stop-opacity:1"/><stop offset=".305" style="stop-color:#e6e6e6;stop-opacity:1"/><stop offset=".313" style="stop-color:#e7e7e7;stop-opacity:1"/><stop offset=".32" style="stop-color:#e8e8e8;stop-opacity:1"/><stop offset=".328" style="stop-color:#e9e9e9;stop-opacity:1"/><stop offset=".336" style="stop-color:#eaeaea;stop-opacity:1"/><stop offset=".344" style="stop-color:#ebebeb;stop-opacity:1"/><stop offset=".352" style="stop-color:#ececec;stop-opacity:1"/><stop offset=".359" style="stop-color:#ededed;stop-opacity:1"/><stop offset=".367" style="stop-color:#eee;stop-opacity:1"/><stop offset=".375" style="stop-color:#efefef;stop-opacity:1"/><stop offset=".383" style="stop-color:#f0f0f0;stop-opacity:1"/><stop offset=".391" style="stop-color:#f1f1f1;stop-opacity:1"/><stop offset=".398" style="stop-color:#f2f2f2;stop-opacity:1"/><stop offset=".406" style="stop-color:#f3f3f3;stop-opacity:1"/><stop offset=".414" style="stop-color:#f4f4f4;stop-opacity:1"/><stop offset=".422" style="stop-color:#f5f5f5;stop-opacity:1"/><stop offset=".43" style="stop-color:#f6f6f6;stop-opacity:1"/><stop offset=".438" style="stop-color:#f7f7f7;stop-opacity:1"/><stop offset=".445" style="stop-color:#f8f8f8;stop-opacity:1"/><stop offset=".453" style="stop-color:#f9f9f9;stop-opacity:1"/><stop offset=".461" style="stop-color:#fafafa;stop-opacity:1"/><stop offset=".469" style="stop-color:#fbfbfb;stop-opacity:1"/><stop offset=".477" style="stop-color:#fcfcfc;stop-opacity:1"/><stop offset=".484" style="stop-color:#fdfdfd;stop-opacity:1"/><stop offset=".492" style="stop-color:#fefefe;stop-opacity:1"/><stop offset=".5" style="stop-color:#fefefe;stop-opacity:1"/><stop offset=".508" style="stop-color:#fefefe;stop-opacity:1"/><stop offset=".516" style="stop-color:#fefefe;stop-opacity:1"/><stop offset=".523" style="stop-color:#fdfdfd;stop-opacity:1"/><stop offset=".531" style="stop-color:#fcfcfc;stop-opacity:1"/><stop offset=".539" style="stop-color:#fbfbfb;stop-opacity:1"/><stop offset=".547" style="stop-color:#fafafa;stop-opacity:1"/><stop offset=".555" style="stop-color:#f9f9f9;stop-opacity:1"/><stop offset=".563" style="stop-color:#f8f8f8;stop-opacity:1"/><stop offset=".57" style="stop-color:#f7f7f7;stop-opacity:1"/><stop offset=".578" style="stop-color:#f6f6f6;stop-opacity:1"/><stop offset=".586" style="stop-color:#f5f5f5;stop-opacity:1"/><stop offset=".594" style="stop-color:#f4f4f4;stop-opacity:1"/><stop offset=".602" style="stop-color:#f3f3f3;stop-opacity:1"/><stop offset=".609" style="stop-color:#f2f2f2;stop-opacity:1"/><stop offset=".617" style="stop-color:#f1f1f1;stop-opacity:1"/><stop offset=".625" style="stop-color:#f0f0f0;stop-opacity:1"/><stop offset=".633" style="stop-color:#efefef;stop-opacity:1"/><stop offset=".641" style="stop-color:#eee;stop-opacity:1"/><stop offset=".648" style="stop-color:#ededed;stop-opacity:1"/><stop offset=".656" style="stop-color:#ececec;stop-opacity:1"/><stop offset=".664" style="stop-color:#ebebeb;stop-opacity:1"/><stop offset=".672" style="stop-color:#eaeaea;stop-opacity:1"/><stop offset=".68" style="stop-color:#e9e9e9;stop-opacity:1"/><stop offset=".688" style="stop-color:#e8e8e8;stop-opacity:1"/><stop offset=".695" style="stop-color:#e7e7e7;stop-opacity:1"/><stop offset=".703" style="stop-color:#e6e6e6;stop-opacity:1"/><stop offset=".711" style="stop-color:#e5e5e5;stop-opacity:1"/><stop offset=".719" style="stop-color:#e4e4e4;stop-opacity:1"/><stop offset=".727" style="stop-color:#e3e3e3;stop-opacity:1"/><stop offset=".734" style="stop-color:#e2e2e2;stop-opacity:1"/><stop offset=".742" style="stop-color:#e1e1e1;stop-opacity:1"/><stop offset=".75" style="stop-color:#e0e0e0;stop-opacity:1"/><stop offset=".758" style="stop-color:#dfdfdf;stop-opacity:1"/><stop offset=".766" style="stop-color:#dedede;stop-opacity:1"/><stop offset=".773" style="stop-color:#ddd;stop-opacity:1"/><stop offset=".781" style="stop-color:#dcdcdc;stop-opacity:1"/><stop offset=".789" style="stop-color:#dbdbdb;stop-opacity:1"/><stop offset=".797" style="stop-color:#dadada;stop-opacity:1"/><stop offset=".805" style="stop-color:#d9d9d9;stop-opacity:1"/><stop offset=".813" style="stop-color:#d8d8d8;stop-opacity:1"/><stop offset=".82" style="stop-color:#d7d7d7;stop-opacity:1"/><stop offset=".828" style="stop-color:#d6d6d6;stop-opacity:1"/><stop offset=".836" style="stop-color:#d5d5d5;stop-opacity:1"/><stop offset=".844" style="stop-color:#d4d4d4;stop-opacity:1"/><stop offset=".852" style="stop-color:#d3d3d3;stop-opacity:1"/><stop offset=".859" style="stop-color:#d2d2d2;stop-opacity:1"/><stop offset=".867" style="stop-color:#d1d1d1;stop-opacity:1"/><stop offset=".875" style="stop-color:#d0d0d0;stop-opacity:1"/><stop offset=".883" style="stop-color:#cfcfcf;stop-opacity:1"/><stop offset=".891" style="stop-color:#cecece;stop-opacity:1"/><stop offset=".898" style="stop-color:#cdcdcd;stop-opacity:1"/><stop offset=".906" style="stop-color:#ccc;stop-opacity:1"/><stop offset=".914" style="stop-color:#cbcbcb;stop-opacity:1"/><stop offset=".922" style="stop-color:#cacaca;stop-opacity:1"/><stop offset=".93" style="stop-color:#c9c9c9;stop-opacity:1"/><stop offset=".938" style="stop-color:#c8c8c8;stop-opacity:1"/><stop offset=".945" style="stop-color:#c7c7c7;stop-opacity:1"/><stop offset=".953" style="stop-color:#c6c6c6;stop-opacity:1"/><stop offset=".961" style="stop-color:#c5c5c5;stop-opacity:1"/><stop offset=".969" style="stop-color:#c4c4c4;stop-opacity:1"/><stop offset=".977" style="stop-color:#c3c3c3;stop-opacity:1"/><stop offset=".984" style="stop-color:#c2c2c2;stop-opacity:1"/><stop offset=".992" style="stop-color:#c1c1c1;stop-opacity:1"/><stop offset="1" style="stop-color:silver;stop-opacity:1"/></linearGradient><clipPath id="a"><path d="M13.883 68H53.57v11H13.883Zm0 0"/></clipPath><clipPath id="e"><path d="M132.941 30h39.684v7.824h-39.684Zm0 0"/></clipPath></defs><g clip-path="url(#a)"><path style="stroke:none;fill-rule:nonzero;fill:url(#b)" d="M13.883 79.492V67.586H53.57v11.906Zm0 0"/></g><path style="fill:none;stroke-width:.3985;stroke-linecap:butt;stroke-linejoin:miter;stroke:#000;stroke-opacity:1;stroke-miterlimit:10" d="M-79.372-25.795h39.687M-79.372-13.889h39.687" transform="matrix(1 0 0 -1 93.255 53.697)"/><path style="fill-rule:nonzero;fill:gray;fill-opacity:1;stroke-width:.3985;stroke-linecap:butt;stroke-linejoin:miter;stroke:#000;stroke-opacity:1;stroke-miterlimit:10" d="M-63.497-25.795v11.906h7.937v-11.906Zm0 0" transform="matrix(1 0 0 -1 93.255 53.697)"/><use xlink:href="#c" x="26.588" y="65.594" style="fill:#000;fill-opacity:1"/><g style="fill:#000;fill-opacity:1"><use xlink:href="#c" x="33.349" y="65.594"/><use xlink:href="#d" x="39.69" y="65.594"/></g><g clip-path="url(#e)"><path style="stroke:none;fill-rule:nonzero;fill:url(#f)" d="M132.941 37.824v-7.937h39.684v7.937Zm0 0"/></g><path style="fill:none;stroke-width:.3985;stroke-linecap:butt;stroke-linejoin:miter;stroke:#000;stroke-opacity:1;stroke-miterlimit:10" d="M79.37 23.81H39.686M79.37 15.873H39.686" transform="matrix(1 0 0 -1 93.255 53.697)"/><path style="fill-rule:nonzero;fill:gray;fill-opacity:1;stroke-width:.3985;stroke-linecap:butt;stroke-linejoin:miter;stroke:#000;stroke-opacity:1;stroke-miterlimit:10" d="M65.48 23.81v-7.937H53.576v7.937Zm0 0" transform="matrix(1 0 0 -1 93.255 53.697)"/><g style="fill:#000;fill-opacity:1"><use xlink:href="#g" x="154.563" y="45.305"/><use xlink:href="#d" x="160.556" y="45.305"/></g><use xlink:href="#g" x="143.833" y="45.305" style="fill:#000;fill-opacity:1"/><path style="fill-rule:nonzero;fill:#fff;fill-opacity:1;stroke-width:.79701;stroke-linecap:butt;stroke-linejoin:miter;stroke:#000;stroke-opacity:1;stroke-miterlimit:10" d="M-39.685-39.686v79.371h79.371v-79.37Zm0 0" transform="matrix(1 0 0 -1 93.255 53.697)"/><path style="fill:none;stroke-width:.3985;stroke-linecap:butt;stroke-linejoin:miter;stroke:gray;stroke-opacity:1;stroke-miterlimit:10" d="M-59.528-19.842H-.001v39.684h59.527" transform="matrix(1 0 0 -1 93.255 53.697)"/><path style="stroke:none;fill-rule:nonzero;fill:gray;fill-opacity:1" d="m107.43 33.855-3.188-1.593 1.195 1.593-1.195 1.594"/><path style="fill:none;stroke-width:.3985;stroke-linecap:butt;stroke-linejoin:miter;stroke:#000;stroke-opacity:1;stroke-miterlimit:10" d="M-59.528-59.53c-8.04 12.38-8.684 24.551-2.887 35.926" transform="matrix(1 0 0 -1 93.255 53.697)"/><path style="stroke:none;fill-rule:nonzero;fill:#000;fill-opacity:1" d="m31.742 75.523-2.867 2.118 1.965-.34.875 1.789"/><use xlink:href="#h" x="35.72" y="115.194" style="fill:#000;fill-opacity:1"/><use xlink:href="#i" x="40.423" y="115.194" style="fill:#000;fill-opacity:1"/><use xlink:href="#j" x="50.266" y="115.194" style="fill:#000;fill-opacity:1"/><g style="fill:#000;fill-opacity:1"><use xlink:href="#k" x="59.205" y="115.194"/><use xlink:href="#l" x="63.542" y="115.194"/></g><use xlink:href="#m" x="67.665" y="116.533" style="fill:#000;fill-opacity:1"/><use xlink:href="#h" x="73.687" y="115.194" style="fill:#000;fill-opacity:1"/><use xlink:href="#n" x="78.39" y="115.194" style="fill:#000;fill-opacity:1"/><use xlink:href="#o" x="82.859" y="115.194" style="fill:#000;fill-opacity:1"/><use xlink:href="#m" x="88.01" y="116.533" style="fill:#000;fill-opacity:1"/><path style="fill:none;stroke-width:.79701;stroke-linecap:butt;stroke-linejoin:miter;stroke:#000;stroke-opacity:1;stroke-miterlimit:10" d="M-59.528-19.842h9.316" transform="matrix(1 0 0 -1 93.255 53.697)"/><path style="stroke:none;fill-rule:nonzero;fill:#000;fill-opacity:1" d="m45.633 73.54-4.145-2.071 1.555 2.07-1.555 2.074"/><use xlink:href="#p" x="38.472" y="78.545" style="fill:#000;fill-opacity:1"/><use xlink:href="#q" x="38.475" y="78.545" style="fill:#000;fill-opacity:1"/><use xlink:href="#l" x="40.501" y="81.976" style="fill:#000;fill-opacity:1"/><use xlink:href="#r" x="46.94" y="83.29" style="fill:#000;fill-opacity:1"/><path style="fill:none;stroke-width:.79701;stroke-linecap:butt;stroke-linejoin:miter;stroke:#000;stroke-opacity:1;stroke-miterlimit:10" d="M59.526 19.842H76.78" transform="matrix(1 0 0 -1 93.255 53.697)"/><path style="stroke:none;fill-rule:nonzero;fill:#000;fill-opacity:1" d="m172.625 33.855-4.145-2.074 1.555 2.074-1.555 2.07"/><use xlink:href="#p" x="174.617" y="32.988" style="fill:#000;fill-opacity:1"/><use xlink:href="#q" x="174.62" y="32.988" style="fill:#000;fill-opacity:1"/><use xlink:href="#l" x="176.646" y="36.419" style="fill:#000;fill-opacity:1"/><use xlink:href="#s" x="183.085" y="37.734" style="fill:#000;fill-opacity:1"/><g style="fill:#000;fill-opacity:1"><use xlink:href="#t" x="54.57" y="10.47"/><use xlink:href="#u" x="62.323" y="10.47"/><use xlink:href="#v" x="66.555" y="10.47"/></g><g style="fill:#000;fill-opacity:1"><use xlink:href="#w" x="70.079" y="10.47"/><use xlink:href="#x" x="74.782" y="10.47"/><use xlink:href="#y" x="77.134" y="10.47"/><use xlink:href="#z" x="81.837" y="10.47"/></g><use xlink:href="#w" x="88.429" y="10.47" style="fill:#000;fill-opacity:1"/><g style="fill:#000;fill-opacity:1"><use xlink:href="#A" x="92.893" y="10.47"/><use xlink:href="#h" x="97.361" y="10.47"/><use xlink:href="#B" x="102.065" y="10.47"/><use xlink:href="#u" x="105.364" y="10.47"/><use xlink:href="#C" x="109.597" y="10.47"/><use xlink:href="#D" x="114.3" y="10.47"/><use xlink:href="#x" x="116.652" y="10.47"/><use xlink:href="#E" x="119.004" y="10.47"/><use xlink:href="#C" x="123.472" y="10.47"/><use xlink:href="#z" x="128.175" y="10.47"/></g><g style="fill:#000;fill-opacity:1"><use xlink:href="#F" x="64.908" y="21.946"/><use xlink:href="#C" x="70.666" y="21.946"/><use xlink:href="#x" x="75.369" y="21.946"/><use xlink:href="#G" x="77.721" y="21.946"/><use xlink:href="#G" x="81.06" y="21.946"/><use xlink:href="#u" x="84.4" y="21.946"/><use xlink:href="#y" x="88.633" y="21.946"/><use xlink:href="#v" x="93.336" y="21.946"/><use xlink:href="#z" x="97.098" y="21.946"/></g><g style="fill:#000;fill-opacity:1"><use xlink:href="#H" x="64.908" y="31.41"/><use xlink:href="#I" x="67.495" y="31.41"/><use xlink:href="#C" x="71.728" y="31.41"/><use xlink:href="#B" x="76.431" y="31.41"/><use xlink:href="#y" x="79.731" y="31.41"/><use xlink:href="#x" x="84.434" y="31.41"/><use xlink:href="#z" x="86.786" y="31.41"/></g><use xlink:href="#J" x="93.37" y="31.41" style="fill:#000;fill-opacity:1"/><use xlink:href="#K" x="99.955" y="31.41" style="fill:#000;fill-opacity:1"/><use xlink:href="#F" x="64.908" y="80.394" style="fill:#000;fill-opacity:1"/><g style="fill:#000;fill-opacity:1"><use xlink:href="#z" x="70.434" y="80.394"/><use xlink:href="#B" x="74.197" y="80.394"/></g><g style="fill:#000;fill-opacity:1"><use xlink:href="#L" x="77.489" y="80.394"/><use xlink:href="#z" x="80.781" y="80.394"/><use xlink:href="#G" x="84.544" y="80.394"/></g><g style="fill:#000;fill-opacity:1"><use xlink:href="#h" x="90.713" y="80.394"/><use xlink:href="#z" x="95.416" y="80.394"/></g><use xlink:href="#v" x="64.908" y="89.858" style="fill:#000;fill-opacity:1"/><g style="fill:#000;fill-opacity:1"><use xlink:href="#w" x="68.44" y="89.858"/><use xlink:href="#u" x="73.143" y="89.858"/><use xlink:href="#B" x="77.376" y="89.858"/><use xlink:href="#M" x="80.675" y="89.858"/><use xlink:href="#z" x="84.908" y="89.858"/></g><use xlink:href="#J" x="91.492" y="89.858" style="fill:#000;fill-opacity:1"/><use xlink:href="#N" x="98.074" y="89.858" style="fill:#000;fill-opacity:1"/><use xlink:href="#O" x="105.131" y="89.858" style="fill:#000;fill-opacity:1"/><use xlink:href="#P" x="109.394" y="90.854" style="fill:#000;fill-opacity:1"/><path style="fill:none;stroke-width:1.59404;stroke-linecap:round;stroke-linejoin:miter;stroke:#00f;stroke-opacity:1;stroke-miterlimit:10" d="M-77.388-19.842h10.106" transform="matrix(1 0 0 -1 93.255 53.697)"/><path style="stroke:none;fill-rule:nonzero;fill:#00f;fill-opacity:1" d="m29.758 73.54-6.055-3.028 2.27 3.027-2.27 3.027"/><use xlink:href="#O" x="4.981" y="74.48" style="fill:#00f;fill-opacity:1"/><use xlink:href="#m" x="9.244" y="75.82" style="fill:#00f;fill-opacity:1"/><path style="fill:none;stroke-width:1.59404;stroke-linecap:round;stroke-linejoin:miter;stroke:#00f;stroke-opacity:1;stroke-miterlimit:10" d="M75.401 21.826h-6.133" transform="matrix(1 0 0 -1 93.255 53.697)"/><path style="stroke:none;fill-rule:nonzero;fill:#00f;fill-opacity:1" d="m158.734 31.871 6.059 3.027-2.27-3.027 2.27-3.031"/><use xlink:href="#O" x="162.371" y="26.335" style="fill:#00f;fill-opacity:1"/><use xlink:href="#Q" x="166.634" y="27.675" style="fill:#00f;fill-opacity:1"/></svg>