<svg xmlns="http://www.w3.org/2000/svg" xmlns:xlink="http://www.w3.org/1999/xlink" width="212.944" height="91" viewBox="0 0 159.708 68.25"><defs><symbol overflow="visible" id="a"><path style="stroke:none" d="M4.406-3.625a.504.504 0 0 0-.422.484c0 .172.125.329.344.329.25 0 .5-.22.5-.532 0-.422-.453-.625-.875-.625-.531 0-.844.485-.953.672a1.042 1.042 0 0 0-1-.672c-.953 0-1.484 1.156-1.484 1.39 0 .079.062.11.125.11.078 0 .109-.047.125-.11.28-.89.875-1.155 1.218-1.155.266 0 .485.171.485.593 0 .313-.375 1.75-.5 2.188-.063.265-.344.828-.828.828-.188 0-.375-.063-.454-.11.235-.046.422-.265.422-.484 0-.234-.171-.328-.343-.328-.266 0-.5.219-.5.531 0 .438.484.61.859.61.531 0 .828-.422.969-.672.219.594.75.672.984.672.969 0 1.485-1.157 1.485-1.375 0-.047-.032-.11-.11-.11-.11 0-.11.032-.156.172-.203.64-.719 1.094-1.188 1.094-.25 0-.5-.156-.5-.594 0-.203.125-.687.204-1.031.046-.156.28-1.125.296-1.188.11-.328.375-.796.844-.796.156 0 .328.015.453.109Zm0 0"/></symbol></defs><path style="fill:none;stroke-width:1.59404;stroke-linecap:butt;stroke-linejoin:miter;stroke:#000;stroke-opacity:1;stroke-miterlimit:10" d="M-56.694-28.348H56.693M-56.694 28.348H56.693" transform="matrix(1 0 0 -1 62.471 34.125)"/><path style="fill:none;stroke-width:.79701;stroke-linecap:butt;stroke-linejoin:miter;stroke:#000;stroke-opacity:1;stroke-miterlimit:10" d="M-28.346-25.512h8.184" transform="matrix(1 0 0 -1 62.471 34.125)"/><path style="stroke:none;fill-rule:nonzero;fill:#000;fill-opacity:1" d="m44.898 59.637-4.144-2.07 1.555 2.07-1.555 2.074"/><path style="fill:none;stroke-width:.79701;stroke-linecap:butt;stroke-linejoin:miter;stroke:#000;stroke-opacity:1;stroke-miterlimit:10" d="M-28.346-19.844h26.324" transform="matrix(1 0 0 -1 62.471 34.125)"/><path style="stroke:none;fill-rule:nonzero;fill:#000;fill-opacity:1" d="m63.04 53.969-4.145-2.074 1.554 2.074-1.554 2.07"/><path style="fill:none;stroke-width:.79701;stroke-linecap:butt;stroke-linejoin:miter;stroke:#000;stroke-opacity:1;stroke-miterlimit:10" d="M-28.346-14.172h39.93" transform="matrix(1 0 0 -1 62.471 34.125)"/><path style="stroke:none;fill-rule:nonzero;fill:#000;fill-opacity:1" d="m76.645 48.297-4.145-2.07 1.555 2.07L72.5 50.37"/><path style="fill:none;stroke-width:.79701;stroke-linecap:butt;stroke-linejoin:miter;stroke:#000;stroke-opacity:1;stroke-miterlimit:10" d="M-28.346-8.504h49" transform="matrix(1 0 0 -1 62.471 34.125)"/><path style="stroke:none;fill-rule:nonzero;fill:#000;fill-opacity:1" d="m85.715 42.629-4.145-2.07 1.555 2.07-1.555 2.074"/><path style="fill:none;stroke-width:.79701;stroke-linecap:butt;stroke-linejoin:miter;stroke:#000;stroke-opacity:1;stroke-miterlimit:10" d="M-28.346-2.836h53.535" transform="matrix(1 0 0 -1 62.471 34.125)"/><path style="stroke:none;fill-rule:nonzero;fill:#000;fill-opacity:1" d="m90.25 36.96-4.145-2.073 1.555 2.074-1.555 2.07"/><path style="fill:none;stroke-width:.79701;stroke-linecap:butt;stroke-linejoin:miter;stroke:#000;stroke-opacity:1;stroke-miterlimit:10" d="M-28.346 25.512h8.184" transform="matrix(1 0 0 -1 62.471 34.125)"/><path style="stroke:none;fill-rule:nonzero;fill:#000;fill-opacity:1" d="M44.898 8.613 40.754 6.54l1.555 2.074-1.555 2.07"/><path style="fill:none;stroke-width:.79701;stroke-linecap:butt;stroke-linejoin:miter;stroke:#000;stroke-opacity:1;stroke-miterlimit:10" d="M-28.346 19.844h26.324" transform="matrix(1 0 0 -1 62.471 34.125)"/><path style="stroke:none;fill-rule:nonzero;fill:#000;fill-opacity:1" d="m63.04 14.281-4.145-2.07 1.554 2.07-1.554 2.074"/><path style="fill:none;stroke-width:.79701;stroke-linecap:butt;stroke-linejoin:miter;stroke:#000;stroke-opacity:1;stroke-miterlimit:10" d="M-28.346 14.172h39.93" transform="matrix(1 0 0 -1 62.471 34.125)"/><path style="stroke:none;fill-rule:nonzero;fill:#000;fill-opacity:1" d="M76.645 19.953 72.5 17.88l1.555 2.074-1.555 2.07"/><path style="fill:none;stroke-width:.79701;stroke-linecap:butt;stroke-linejoin:miter;stroke:#000;stroke-opacity:1;stroke-miterlimit:10" d="M-28.346 8.504h49" transform="matrix(1 0 0 -1 62.471 34.125)"/><path style="stroke:none;fill-rule:nonzero;fill:#000;fill-opacity:1" d="m85.715 25.621-4.145-2.074 1.555 2.074-1.555 2.07"/><path style="fill:none;stroke-width:.79701;stroke-linecap:butt;stroke-linejoin:miter;stroke:#000;stroke-opacity:1;stroke-miterlimit:10" d="M-28.346 2.836h53.535" transform="matrix(1 0 0 -1 62.471 34.125)"/><path style="stroke:none;fill-rule:nonzero;fill:#000;fill-opacity:1" d="m90.25 31.29-4.145-2.071 1.555 2.07-1.555 2.074"/><path style="fill:none;stroke-width:.3985;stroke-linecap:butt;stroke-linejoin:miter;stroke:#000;stroke-opacity:1;stroke-dasharray:2.98883,2.98883;stroke-miterlimit:10" d="M-56.694 0H83.05" transform="matrix(1 0 0 -1 62.471 34.125)"/><path style="stroke:none;fill-rule:nonzero;fill:#000;fill-opacity:1" d="m147.512 34.125-3.188-1.594 1.196 1.594-1.196 1.594"/><use xlink:href="#a" x="149.503" y="36.055" style="fill:#000;fill-opacity:1"/></svg>