<svg xmlns="http://www.w3.org/2000/svg" xmlns:xlink="http://www.w3.org/1999/xlink" width="127.2" height="149.815" viewBox="0 0 95.4 112.361"><defs><symbol overflow="visible" id="a"><path style="stroke:none" d="M4.094-2.25c0-1-.828-1.781-1.782-1.781A1.794 1.794 0 0 0 .516-2.25c0 1 .828 1.797 1.78 1.797A1.807 1.807 0 0 0 4.095-2.25Zm0 0"/></symbol><symbol overflow="visible" id="e"><path style="stroke:none" d="M6.047-2.047c.172 0 .344 0 .344-.203 0-.188-.188-.188-.344-.188H1.109c-.156 0-.343 0-.343.188 0 .203.171.203.343.203Zm0 0"/></symbol><symbol overflow="visible" id="f"><path style="stroke:none" d="M7.625-2.047c-1.063.75-1.281 1.938-1.281 2.031 0 .125.125.125.187.125.11 0 .172 0 .203-.125.25-1.046.86-1.75 1.844-2.109.047-.016.125-.047.125-.125s-.062-.094-.125-.125c-1.125-.422-1.64-1.219-1.844-2.094-.03-.125-.062-.125-.203-.125-.078 0-.187 0-.187.125 0 .094.218 1.282 1.281 2.032H.844c-.156 0-.328 0-.328.187 0 .203.171.203.328.203Zm0 0"/></symbol><symbol overflow="visible" id="b"><path style="stroke:none" d="M.39-6.14v.28h.313c.313 0 .61.032.61.376 0 .062-.016.125-.016.171v4.375c0 .594-.516.657-.906.657v.265H2.5V-.28c-.422 0-.938-.078-.938-.672 0-.094.016-.172.016-.25l.016-4.578c.047.187.125.375.203.547.531 1.28 1.031 2.593 1.547 3.89L3.75-.312c.047.109.078.296.234.296.157 0 .188-.203.235-.312.64-1.64 1.297-3.297 1.953-4.922.078-.188.172-.39.234-.594v5.14c0 .376-.281.423-.562.423H5.5v.265h2.547V-.28h-.344c-.281 0-.562-.031-.562-.406V-5.47c0-.343.296-.39.593-.39h.313v-.282H6.5l-.172.032-.094.14L4.22-.89c-.063-.14-.11-.296-.172-.453l-.375-.937c-.453-1.14-.906-2.297-1.36-3.438l-.093-.234c-.078-.14-.125-.188-.281-.188Zm0 0"/></symbol><symbol overflow="visible" id="c"><path style="stroke:none" d="M2.828-6.14v.28h.094c.36 0 .594.016.594.548v1.875a1.532 1.532 0 0 0-1.172-.532c-1.11 0-2.031.938-2.031 2.047C.313-.906 1.14.094 2.266.094c.421 0 .984-.203 1.218-.578v.578l1.36-.11V-.28h-.14c-.298 0-.548-.031-.548-.453v-5.5Zm-1.75 4.406v-.125c0-.72.188-1.875 1.313-1.875.468 0 1.109.343 1.109.906 0 .11-.016.219-.016.328v1.484c0 .11-.046.188-.109.282-.234.343-.64.593-1.063.593a1.14 1.14 0 0 1-.89-.453c-.25-.328-.297-.734-.344-1.14Zm0 0"/></symbol><symbol overflow="visible" id="d"><path style="stroke:none" d="M5.86-6.078c.03-.094.03-.125.03-.14 0-.016 0-.11-.109-.11-.047 0-.047.016-.156.14-.125.141-.016.016-.438.5-.328-.5-.843-.64-1.328-.64-1.156 0-2.25 1.031-2.25 2.11 0 .374.125.671.36.921.25.281.484.328 1.125.5l.75.188c.297.093.594.375.594.89 0 .797-.766 1.64-1.672 1.64-.516 0-1.594-.155-1.594-1.312 0-.078 0-.218.062-.484.016-.031.016-.047.016-.063 0-.03-.016-.093-.125-.093-.11 0-.125.047-.156.187L.5.094c0 .062.031.11.094.11C.64.203.656.187.766.062c.062-.063.312-.391.421-.5.47.593 1.297.64 1.563.64 1.234 0 2.313-1.156 2.313-2.297 0-1.11-.875-1.328-1.157-1.39l-.812-.22c-.297-.077-.844-.218-.844-.89 0-.687.719-1.484 1.61-1.484.359 0 .718.11.968.36.344.327.344.812.344 1.046 0 .297-.031.39-.031.469 0 .062.03.11.125.11.093 0 .093-.016.14-.188Zm0 0"/></symbol><symbol overflow="visible" id="g"><path style="stroke:none" d="M4.313-3.313c0-.624-.329-.656-.407-.656-.234 0-.469.235-.469.438 0 .14.094.219.157.265.234.22.312.516.312.75 0 .391-.562 2.391-1.594 2.391-.687 0-.687-.625-.687-.797 0-.375.14-.844.453-1.656.14-.375.172-.469.172-.625a.739.739 0 0 0-.766-.766c-.859 0-1.218 1.281-1.218 1.39 0 .079.062.11.125.11.093 0 .109-.062.14-.172.188-.656.547-1.093.922-1.093.172 0 .219.109.219.296 0 .141-.047.313-.125.516-.313.875-.531 1.438-.531 1.89 0 .845.64 1.126 1.25 1.126 1.515 0 2.046-2.828 2.046-3.406Zm0 0"/></symbol><symbol overflow="visible" id="h"><path style="stroke:none" d="M1.906-3.594h.86c.156 0 .265 0 .265-.156 0-.11-.094-.11-.25-.11h-.797l.36-1.5c0-.14-.11-.25-.266-.25-.297 0-.36.25-.39.344l-.344 1.407H.5c-.172 0-.281 0-.281.156 0 .11.093.11.25.11h.812L.656-1.142c-.062.266-.062.282-.062.407 0 .53.406.828.875.828.922 0 1.453-1.282 1.453-1.375 0-.047-.031-.11-.11-.11-.093 0-.109.032-.171.188-.266.64-.72 1.078-1.157 1.078-.187 0-.296-.11-.296-.406 0-.203.03-.313.062-.453Zm0 0"/></symbol><clipPath id="i"><path d="M56 8h39.398v69H56Zm0 0"/></clipPath></defs><path style="fill-rule:nonzero;fill:gray;fill-opacity:1;stroke-width:.3985;stroke-linecap:butt;stroke-linejoin:miter;stroke:#000;stroke-opacity:1;stroke-miterlimit:10" d="M14.173.002c0 15.652-6.343 28.343-14.172 28.343-7.828 0-14.175-12.69-14.175-28.343 0-15.657 6.347-28.348 14.175-28.348 7.829 0 14.172 12.691 14.172 28.348Zm0 0" transform="matrix(1 0 0 -1 19.354 70.865)"/><use xlink:href="#a" x="17.05" y="72.882" style="fill:#000;fill-opacity:1"/><use xlink:href="#b" x="15.132" y="63.892" style="fill:#000;fill-opacity:1"/><use xlink:href="#c" x="13.725" y="107.38" style="fill:#000;fill-opacity:1"/><use xlink:href="#d" x="18.843" y="107.38" style="fill:#000;fill-opacity:1"/><path style="fill:none;stroke-width:.3985;stroke-linecap:butt;stroke-linejoin:miter;stroke:#000;stroke-opacity:1;stroke-miterlimit:10" d="m-1.983 28.345 54.91 27.458" transform="matrix(1 0 0 -1 19.354 70.865)"/><path style="stroke:none;fill-rule:nonzero;fill:#000;fill-opacity:1" d="M74.063 14.172H70.5l1.781.89-.355 1.961"/><use xlink:href="#e" x="52.872" y="8.319" style="fill:#000;fill-opacity:1"/><use xlink:href="#f" x="52.876" y="8.319" style="fill:#000;fill-opacity:1"/><use xlink:href="#g" x="55.081" y="12.18" style="fill:#000;fill-opacity:1"/><use xlink:href="#c" x="63.624" y="12.18" style="fill:#000;fill-opacity:1"/><use xlink:href="#h" x="68.742" y="12.18" style="fill:#000;fill-opacity:1"/><path style="fill:none;stroke-width:.3985;stroke-linecap:butt;stroke-linejoin:miter;stroke:#000;stroke-opacity:1;stroke-miterlimit:10" d="M1.986-28.346 56.896-.893" transform="matrix(1 0 0 -1 19.354 70.865)"/><path style="stroke:none;fill-rule:nonzero;fill:#000;fill-opacity:1" d="M78.031 70.863H74.47l1.781.895-.355 1.957"/><g clip-path="url(#i)"><path style="fill:none;stroke-width:.3985;stroke-linecap:butt;stroke-linejoin:miter;stroke:#000;stroke-opacity:1;stroke-dasharray:2.98883,2.98883;stroke-miterlimit:10" d="M70.869 28.345c0 15.657-6.348 28.348-14.176 28.348S42.52 44.002 42.52 28.345C42.521 12.69 48.865.002 56.693.002s14.176 12.687 14.176 28.343Zm0 0" transform="matrix(1 0 0 -1 19.354 70.865)"/></g><path style="fill:none;stroke-width:.3985;stroke-linecap:butt;stroke-linejoin:miter;stroke:gray;stroke-opacity:1;stroke-miterlimit:10" d="m14.173.002 54.91 27.453" transform="matrix(1 0 0 -1 19.354 70.865)"/><path style="stroke:none;fill-rule:nonzero;fill:gray;fill-opacity:1" d="M90.223 42.52h-3.567l1.781.89-.355 1.961"/><path style="fill:none;stroke-width:.3985;stroke-linecap:butt;stroke-linejoin:miter;stroke:gray;stroke-opacity:1;stroke-miterlimit:10" d="m12.189 14.174 54.91 27.457" transform="matrix(1 0 0 -1 19.354 70.865)"/><path style="stroke:none;fill-rule:nonzero;fill:gray;fill-opacity:1" d="M88.238 28.344h-3.566l1.781.89-.355 1.961"/><path style="fill:none;stroke-width:.3985;stroke-linecap:butt;stroke-linejoin:miter;stroke:gray;stroke-opacity:1;stroke-miterlimit:10" d="m12.189-14.174 54.91 27.457" transform="matrix(1 0 0 -1 19.354 70.865)"/><path style="stroke:none;fill-rule:nonzero;fill:gray;fill-opacity:1" d="M88.238 56.691h-3.566l1.781.891-.355 1.961"/></svg>