<svg xmlns="http://www.w3.org/2000/svg" xmlns:xlink="http://www.w3.org/1999/xlink" width="247.072" height="240.055" viewBox="0 0 185.304 180.041"><clipPath id="a"><path transform="matrix(1 0 0 -1 84.351 64.509)" d="M-11.339 59.528c-45.355 0-68.032 0-68.032-56.693 0-113.387 96.786-85.04 136.065-56.694C95.973-25.512 34.016 59.528-11.339 59.528"/></clipPath><g clip-path="url(#a)"><path d="M-17.698 175.061V-51.713h181.42V175.06zm181.42-226.774" fill="#ccf"/><path d="M-.69 149.55V7.814h141.735V149.55zM141.046 7.814" fill="#ccf"/><clipPath id="b"><path transform="matrix(1 0 0 -1 84.351 64.509)" d="M8.504 0c0 15.656-3.807 28.347-8.504 28.347-4.697 0-8.504-12.691-8.504-28.347S-4.697-28.347 0-28.347c4.697 0 8.504 12.691 8.504 28.347zM0 0"/></clipPath><g clip-path="url(#b)"><symbol id="d"><path stroke-width=".399" stroke-miterlimit="10" fill="none" stroke="#bfbfbf" d="m0 180.041 3.088-3.088"/></symbol><pattern id="e" patternUnits="userSpaceOnUse" patternContentUnits="userSpaceOnUse" x="0" y="0" width="2.989" height="2.989"><clipPath id="c"><path d="M-.996-.996h4.981v4.981H-.996z"/></clipPath><g clip-path="url(#c)"><g transform="matrix(1 0 0 -1 0 180.041)"><use xlink:href="#d"/><use y="-2.989" xlink:href="#d"/><use x="-2.989" xlink:href="#d"/><use x="-2.989" y="-2.989" xlink:href="#d"/></g></g></pattern><path transform="matrix(1 0 0 -1 0 180.041)" fill="url(#e)" d="M67.877 79.215h32.948v72.634H67.877z"/></g><path stroke-width=".797" stroke-linecap="round" stroke-miterlimit="10" fill="none" stroke="#99f" d="M92.855 64.509c0-15.656-3.807-28.347-8.504-28.347-4.697 0-8.504 12.691-8.504 28.347s3.807 28.347 8.504 28.347c4.697 0 8.504-12.691 8.504-28.347zm-8.504 0"/><path stroke-width=".399" stroke-dasharray="2.98883,2.98883" stroke-miterlimit="10" fill="none" stroke="#000" d="M35.253 64.509c4.697 0 8.504 12.691 8.504 28.347s-3.807 28.347-8.504 28.347"/><path stroke-width=".797" stroke-miterlimit="10" fill="none" stroke="#000" d="m84.351 64.509 10.031-5.792"/><path d="M96.626 57.422 92 57.7l2.382 1.017-.31 2.572"/><symbol id="f"><path d="M.611 0c.016 0 .038 0 .038.023S.627.046.611.046H.038C.022.046 0 .046 0 .023S.022 0 .038 0h.573z"/></symbol><symbol id="g"><path d="M.814.241A.375.375 0 0 1 .671.015C.671 0 .685 0 .694 0c.011 0 .02 0 .023.013.026.111.09.195.211.236.008.002.016.005.016.015 0 .01-.009.013-.013.014a.307.307 0 0 0-.212.227C.714.525.714.528.694.528c-.009 0-.023 0-.023-.015A.352.352 0 0 1 .814.287H.038C.022.287 0 .287 0 .264S.022.241.038.241h.776z"/></symbol><use xlink:href="#f" transform="scale(7.96991 -7.96991) rotate(29.999 18.11 16.528)"/><use xlink:href="#g" transform="scale(7.96991 -7.96991) rotate(29.999 18.574 16.595)"/><symbol id="h"><path d="M.467.374c0 .078-.045.078-.049.078C.394.452.366.426.366.4c0-.016.008-.023.017-.031A.105.105 0 0 0 .42.289C.42.243.354.028.239.028.196.028.161.051.161.114c0 .055.03.134.054.194C.227.34.23.348.23.366.23.42.186.451.14.451.041.451 0 .31 0 .298 0 .289.007.285.015.285c.013 0 .014.006.017.016.026.087.069.122.105.122C.152.423.161.414.161.39A.198.198 0 0 0 .142.319C.093.193.089.16.089.129.089.02.178 0 .235 0c.166 0 .232.298.232.374z"/></symbol><use xlink:href="#h" transform="scale(7.96991 -7.96991) rotate(29.999 19.257 17.229)"/><symbol id="i"><path d="M.23 0c.008 0 .02 0 .02.012C.25.016.249.017.236.03.099.159.065.345.065.5c0 .288.119.423.17.469C.249.982.25.983.25.988.25.993.246 1 .236 1 .22 1 .17.949.162.94A.633.633 0 0 1 0 .5C0 .276.094.096.23 0z"/></symbol><use xlink:href="#i" transform="scale(7.96991 -7.96991) rotate(29.999 19.264 18.993)"/><symbol id="j"><path d="M0 .683V.65l.036.001C.07.651.102.646.102.609L.101.59V.105C.101.039.043.033 0 .033V0l.066.003h.107L.236 0v.033C.191.033.134.041.134.108l.001.028.001.504C.142.62.152.6.16.58.237.4.312.215.383.035.388.022.393.001.411 0 .429 0 .434.021.44.034.512.217.588.4.664.582.672.603.685.627.69.648L.691.1.692.076C.692.038.658.032.625.032L.59.033V0l.074.003h.21v.03L.838.032C.804.032.772.037.772.074l.001.019v.513c0 .04.033.045.067.045L.874.65v.033H.701C.684.683.673.678.668.661L.657.635C.591.471.521.308.456.143.45.127.441.111.437.095.417.14.399.187.38.233L.216.635.206.66C.2.673.193.683.178.683H0z"/></symbol><use xlink:href="#j" transform="scale(7.96991 -7.96991) rotate(29.999 18.616 19.537)"/><symbol id="k"><path d="M.095.208A.236.236 0 0 0 .019.024C.015.021.013.019.013.014.013.006.021 0 .028 0 .04 0 .123.079.123.196.123.26.099.304.055.304A.054.054 0 0 1 0 .249C0 .221.019.193.056.193c.024 0 .039.014.039.015z"/></symbol><symbol id="l"><path d="M.196.408h.098c.019 0 .031 0 .031.019 0 .014-.013.014-.03.014H.204L.24.583c.004.015.004.02.004.021 0 .021-.016.031-.033.031C.177.635.17.608.159.563L.128.441H.032C.013.441 0 .441 0 .422 0 .408.013.408.03.408h.09L.06.168C.054.143.045.108.045.094.045.034.094 0 .147 0c.107 0 .168.141.168.153C.315.164.306.166.3.166.289.166.288.162.281.147.261.099.211.028.15.028.129.028.117.042.117.075c0 .019.003.03.006.043l.073.29z"/></symbol><use xlink:href="#k" transform="scale(7.96991 -7.96991) rotate(29.999 18.47 21.53)"/><use xlink:href="#l" transform="scale(7.96991 -7.96991) rotate(29.999 17.927 22.194)"/><symbol id="m"><path d="M.249.5a.691.691 0 0 1-.078.327C.122.919.031 1 .013 1 .003 1 0 .993 0 .988 0 .984 0 .982.012.97.152.837.184.654.184.5.184.213.065.077.014.031.001.018 0 .017 0 .012 0 .007.003 0 .013 0c.016 0 .066.051.074.06C.221.2.249.38.249.5z"/></symbol><use xlink:href="#m" transform="scale(7.96991 -7.96991) rotate(29.999 18.165 23.096)"/><path stroke-width=".399" stroke-miterlimit="10" fill="none" stroke="#000" d="M112.698 50.336h14.944M122.66 50.336c0-1.749-.46-3.468-1.334-4.982"/><symbol id="n"><path d="M.466.15a.565.565 0 0 1 .126.24c0 .009-.006.013-.015.013C.564.403.563.399.557.378a.495.495 0 0 0-.091-.18C.464.198.464.223.464.239.462.415.348.451.28.451.139.451 0 .314 0 .173 0 .074.069 0 .175 0a.37.37 0 0 1 .223.084C.42.005.478 0 .496 0c.057 0 .09.051.09.07 0 .012-.012.012-.015.012C.56.082.558.079.555.072.539.03.505.028.5.028c-.014 0-.03 0-.034.122M.391.117A.334.334 0 0 0 .178.028c-.052 0-.097.03-.097.11 0 .035.016.138.063.205.04.056.094.08.135.08.055 0 .086-.039.099-.1C.393.255.385.175.391.117z"/></symbol><use xlink:href="#n" transform="matrix(7.9701 0 0 -7.9701 125.66 49.553)"/><path stroke-width=".797" stroke-miterlimit="10" fill="none" stroke="#000" d="M84.351 64.509h25.757"/><path d="m112.698 64.509-4.145-2.072 1.555 2.072-1.555 2.072"/><use xlink:href="#j" transform="matrix(7.9701 0 0 -7.9701 80.866 72.979)"/><symbol id="o"><path d="M.191.413A.21.21 0 0 1 0 .207C0 .112.073 0 .207 0a.207.207 0 0 1-.001.414L.191.413z"/></symbol><use xlink:href="#o" transform="matrix(7.9701 0 0 -7.9701 82.705 65.994)"/><use xlink:href="#f" transform="matrix(7.9701 0 0 -7.9701 116.388 62.49)"/><use xlink:href="#g" transform="matrix(7.9701 0 0 -7.9701 116.157 64.41)"/><symbol id="p"><path d="m.17.174.016.068C.2.296.2.297.223.33c.033.049.08.093.147.093.036 0 .057-.021.057-.068A.862.862 0 0 0 .366.137C.353.104.353.098.353.085.353.028.4 0 .443 0c.098 0 .139.14.139.153 0 .01-.008.013-.015.013C.555.166.553.159.55.149.526.067.484.028.446.028.43.028.422.038.422.061a.19.19 0 0 0 .018.07.815.815 0 0 1 .059.209c0 .075-.052.111-.124.111A.203.203 0 0 1 .213.364C.206.419.162.451.111.451.075.451.05.428.034.397A.395.395 0 0 1 0 .298C0 .289.007.285.015.285c.013 0 .014.004.021.03.012.049.03.108.072.108C.134.423.14.398.14.376.14.358.135.339.127.306A5.408 5.408 0 0 0 .106.225L.069.075a.447.447 0 0 1-.01-.044C.059.008.078 0 .091 0c.018 0 .033.012.04.024.003.006.011.04.016.061L.17.174z"/></symbol><use xlink:href="#p" transform="matrix(7.9701 0 0 -7.9701 117.591 67.81)"/><path stroke-width=".399" stroke-miterlimit="10" fill="none" stroke="#000" d="m82.625 31.49-47.113 27.2"/><path d="m84.351 30.493-3.558.213 1.832.783-.238 1.978"/><path stroke-width=".39899202" stroke-miterlimit="10" fill="none" stroke="#000" d="m36.571 60.724-2.291-3.968"/><use xlink:href="#f" transform="scale(7.96991 -7.96991) rotate(29.999 12.748 8.948)"/><use xlink:href="#g" transform="scale(7.96991 -7.96991) rotate(29.999 13.212 9.014)"/><use xlink:href="#h" transform="scale(7.96991 -7.96991) rotate(29.999 13.896 9.648)"/><symbol id="q"><path d="M.294.693V.66C.362.66.37.653.37.604V.393a.179.179 0 0 1-.134.058A.232.232 0 0 1 0 .225C0 .102.1 0 .226 0c.059 0 .108.028.141.063V0l.152.01v.033C.451.043.443.05.443.099v.605L.294.693M.367.134c0-.018 0-.022-.015-.042A.15.15 0 0 0 .231.028a.13.13 0 0 0-.11.061.233.233 0 0 0-.032.135c0 .058.009.099.032.134a.145.145 0 0 0 .12.065.144.144 0 0 0 .126-.076V.134z"/></symbol><use xlink:href="#q" transform="scale(7.96991 -7.96991) rotate(29.999 13.49 11.165)"/><use xlink:href="#l" transform="scale(7.96991 -7.96991) rotate(29.999 13.2 12.248)"/><path stroke-width=".797" stroke-miterlimit="10" fill="none" stroke="#929292" d="m-.69 135.376 10.032-5.792"/><path d="m11.585 128.29-4.625.277 2.382 1.017-.31 2.572" fill="#929292"/><path stroke-width=".797" stroke-miterlimit="10" fill="none" stroke="#929292" d="m-.69 107.03 10.032-5.792"/><path d="m11.585 99.943-4.625.277 2.382 1.018-.31 2.571" fill="#929292"/><path stroke-width=".797" stroke-miterlimit="10" fill="none" stroke="#929292" d="m-.69 78.682 10.032-5.791"/><path d="m11.585 71.596-4.625.277 2.382 1.018-.31 2.571" fill="#929292"/><path stroke-width=".797" stroke-miterlimit="10" fill="none" stroke="#929292" d="m-.69 50.336 10.032-5.792"/><path d="m11.585 43.249-4.625.278 2.382 1.017-.31 2.572" fill="#929292"/><path stroke-width=".797" stroke-miterlimit="10" fill="none" stroke="#929292" d="m-.69 21.989 10.032-5.792"/><path d="m11.585 14.902-4.625.278 2.382 1.017-.31 2.572" fill="#929292"/><path stroke-width=".797" stroke-miterlimit="10" fill="none" stroke="#929292" d="m27.657 135.376 10.032-5.792"/><path d="m39.932 128.29-4.625.277 2.382 1.017-.31 2.572" fill="#929292"/><path stroke-width=".797" stroke-miterlimit="10" fill="none" stroke="#929292" d="m27.657 107.03 10.032-5.792"/><path d="m39.932 99.943-4.625.277 2.382 1.018-.31 2.571" fill="#929292"/><path stroke-width=".797" stroke-miterlimit="10" fill="none" stroke="#929292" d="m27.657 78.682 10.032-5.791"/><path d="m39.932 71.596-4.625.277 2.382 1.018-.31 2.571" fill="#929292"/><path stroke-width=".797" stroke-miterlimit="10" fill="none" stroke="#929292" d="m27.657 50.336 10.032-5.792"/><path d="m39.932 43.249-4.625.278 2.382 1.017-.31 2.572" fill="#929292"/><path stroke-width=".797" stroke-miterlimit="10" fill="none" stroke="#929292" d="m27.657 21.989 10.032-5.792"/><path d="m39.932 14.902-4.625.278 2.382 1.017-.31 2.572" fill="#929292"/><path stroke-width=".797" stroke-miterlimit="10" fill="none" stroke="#929292" d="m56.004 135.376 10.032-5.792"/><path d="m68.279 128.29-4.625.277 2.382 1.017-.31 2.572" fill="#929292"/><path stroke-width=".797" stroke-miterlimit="10" fill="none" stroke="#929292" d="m56.004 107.03 10.032-5.792"/><path d="m68.279 99.943-4.625.277 2.382 1.018-.31 2.571" fill="#929292"/><path stroke-width=".797" stroke-miterlimit="10" fill="none" stroke="#929292" d="m56.004 78.682 10.032-5.791"/><path d="m68.279 71.596-4.625.277 2.382 1.018-.31 2.571" fill="#929292"/><path stroke-width=".797" stroke-miterlimit="10" fill="none" stroke="#929292" d="m56.004 50.336 10.032-5.792"/><path d="m68.279 43.249-4.625.278 2.382 1.017-.31 2.572" fill="#929292"/><path stroke-width=".797" stroke-miterlimit="10" fill="none" stroke="#929292" d="m56.004 21.989 10.032-5.792"/><path d="m68.279 14.902-4.625.278 2.382 1.017-.31 2.572" fill="#929292"/><path stroke-width=".797" stroke-miterlimit="10" fill="none" stroke="#929292" d="m84.351 135.376 10.031-5.792"/><path d="m96.626 128.29-4.626.277 2.382 1.017-.31 2.572" fill="#929292"/><path stroke-width=".797" stroke-miterlimit="10" fill="none" stroke="#929292" d="m84.351 107.03 10.031-5.792"/><path d="M96.626 99.943 92 100.22l2.382 1.018-.31 2.571" fill="#929292"/><path stroke-width=".797" stroke-miterlimit="10" fill="none" stroke="#929292" d="m84.351 78.682 10.031-5.791"/><path d="M96.626 71.596 92 71.873l2.382 1.018-.31 2.571" fill="#929292"/><path stroke-width=".797" stroke-miterlimit="10" fill="none" stroke="#929292" d="m84.351 50.336 10.031-5.792"/><path d="M96.626 43.249 92 43.527l2.382 1.017-.31 2.572" fill="#929292"/><path stroke-width=".797" stroke-miterlimit="10" fill="none" stroke="#929292" d="m84.351 21.989 10.031-5.792"/><path d="M96.626 14.902 92 15.18l2.382 1.017-.31 2.572" fill="#929292"/><path stroke-width=".797" stroke-miterlimit="10" fill="none" stroke="#929292" d="m112.698 135.376 10.031-5.792"/><path d="m124.972 128.29-4.625.277 2.382 1.017-.31 2.572" fill="#929292"/><path stroke-width=".797" stroke-miterlimit="10" fill="none" stroke="#929292" d="m112.698 107.03 10.031-5.792"/><path d="m124.972 99.943-4.625.277 2.382 1.018-.31 2.571" fill="#929292"/><path stroke-width=".797" stroke-miterlimit="10" fill="none" stroke="#929292" d="m112.698 78.682 10.031-5.791"/><path d="m124.972 71.596-4.625.277 2.382 1.018-.31 2.571" fill="#929292"/><path stroke-width=".797" stroke-miterlimit="10" fill="none" stroke="#929292" d="m112.698 50.336 10.031-5.792"/><path d="m124.972 43.249-4.625.278 2.382 1.017-.31 2.572" fill="#929292"/><path stroke-width=".797" stroke-miterlimit="10" fill="none" stroke="#929292" d="m112.698 21.989 10.031-5.792"/><path d="m124.972 14.902-4.625.278 2.382 1.017-.31 2.572" fill="#929292"/><path d="M85.828 92.425c-4.626 2.719-9.036-7.576-9.852-22.994-.816-15.418 2.273-30.12 6.898-32.838L33.776 64.939c-4.625 2.719-7.714 17.421-6.898 32.84.815 15.417 5.226 25.712 9.851 22.993z" fill="#ccf" fill-opacity=".75"/><path stroke-width=".797" stroke-linecap="round" stroke-miterlimit="10" fill="none" stroke="#99f" stroke-opacity=".75" d="M85.828 92.425c-4.626 2.719-9.036-7.576-9.852-22.994-.816-15.418 2.273-30.12 6.898-32.838L33.776 64.939c-4.625 2.719-7.714 17.421-6.898 32.84.815 15.417 5.226 25.712 9.851 22.993z"/><path d="M85.196 85.77a.845.845 0 1 0-1.69 0 .845.845 0 0 0 1.69 0zm-.845 0"/><symbol id="r"><path d="M.294.693V.66h.011C.344.66.37.658.37.599V.393A.187.187 0 0 1 .236.45C.113.45 0 .354 0 .225 0 .102.103 0 .225 0a.19.19 0 0 1 .142.063V0L.52.01v.033H.504c-.03 0-.06.003-.06.05v.611L.294.693M.089.203v.014c0 .07.013.155.09.19A.141.141 0 0 0 .36.357C.363.352.366.348.367.342V.126C.367.075.285.028.233.028c-.074 0-.127.059-.139.13L.089.203z"/></symbol><symbol id="s"><path d="M.064.069A.305.305 0 0 1 .267 0a.207.207 0 0 1 .065.401C.292.414.251.42.21.43.185.436.159.44.136.452a.133.133 0 0 0-.073.114c0 .079.076.129.149.129C.316.695.395.62.41.499.41.486.413.477.427.477c.015 0 .015.01.015.019v.212C.442.715.44.725.43.725.416.725.404.7.396.686L.377.655a.227.227 0 0 1-.165.07C.113.725 0 .659 0 .533 0 .454.05.387.123.357.165.341.212.333.255.323.279.318.304.314.327.303A.143.143 0 0 0 .408.18.145.145 0 0 0 .261.033C.162.033.054.078.034.198L.031.225v.007c0 .009-.005.016-.016.016C.001.248 0 .237 0 .228V.017C0 .01.002 0 .013 0c.013 0 .04.044.051.069z"/></symbol><use xlink:href="#r" transform="matrix(7.9701 0 0 -7.9701 101.661 102.425)"/><use xlink:href="#s" transform="matrix(7.9701 0 0 -7.9701 106.555 102.512)"/><path stroke-width=".399" stroke-miterlimit="10" fill="none" stroke="#929292" d="m86.072 86.865 12.321 7.846"/></g></svg>