<svg xmlns="http://www.w3.org/2000/svg" xmlns:xlink="http://www.w3.org/1999/xlink" width="559.429" height="109.663" viewBox="0 0 419.572 82.247"><clipPath id="a"><path transform="matrix(1 0 0 -1 29.076 41.124)" d="M-24.095-36.142v72.284H96.38v-72.284zM96.38 36.142"/></clipPath><g clip-path="url(#a)"><path d="M4.981 77.266V4.982h120.475v72.284zM125.456 4.982" fill="#ccf"/><path stroke-width=".797" stroke-miterlimit="10" fill="none" stroke="#929292" d="m17.029 71.243-1.723 4.306"/><path d="m14.344 77.954 3.463-3.078-2.501.673-1.347-2.212" fill="#929292"/><path stroke-width=".797" stroke-miterlimit="10" fill="none" stroke="#929292" d="m17.029 59.195-2.573 3.86"/><path d="m13.019 65.21 4.023-2.3-2.586.145-.863-2.443" fill="#929292"/><path stroke-width=".797" stroke-miterlimit="10" fill="none" stroke="#929292" d="m17.029 47.148-4.15 2.074"/><path d="M10.563 50.38h4.633l-2.317-1.158.463-2.548" fill="#929292"/><path stroke-width=".797" stroke-miterlimit="10" fill="none" stroke="#929292" d="m17.029 35.1-4.15-2.074"/><path d="m10.563 31.867 2.78 3.707-.464-2.548 2.317-1.159" fill="#929292"/><path stroke-width=".797" stroke-miterlimit="10" fill="none" stroke="#929292" d="m17.029 23.053-2.573-3.86"/><path d="m13.019 17.039.575 4.597.862-2.442 2.586.143" fill="#929292"/><path stroke-width=".797" stroke-miterlimit="10" fill="none" stroke="#929292" d="M17.029 11.005 15.306 6.7"/><path d="m14.344 4.295-.385 4.617L15.306 6.7l2.501.673" fill="#929292"/><path stroke-width=".797" stroke-miterlimit="10" fill="none" stroke="#929292" d="m35.1 71.243.91 4.548"/><path d="m36.519 78.33 1.218-4.47-1.727 1.931-2.336-1.117" fill="#929292"/><path stroke-width=".797" stroke-miterlimit="10" fill="none" stroke="#929292" d="m35.1 59.195 1.466 4.4"/><path d="m37.385 66.053.656-4.587-1.475 2.13-2.457-.82" fill="#929292"/><path stroke-width=".797" stroke-miterlimit="10" fill="none" stroke="#929292" d="m35.1 47.148 3.28 3.28"/><path d="m40.21 52.26-1.464-4.396-.367 2.564-2.564.366" fill="#929292"/><path stroke-width=".797" stroke-miterlimit="10" fill="none" stroke="#929292" d="m35.1 35.1 3.28-3.28"/><path d="m40.21 29.99-4.395 1.464 2.564.367.367 2.564" fill="#929292"/><path stroke-width=".797" stroke-miterlimit="10" fill="none" stroke="#929292" d="m35.1 23.053 1.466-4.4"/><path d="m37.385 16.196-3.276 3.276 2.457-.82 1.475 2.13" fill="#929292"/><path stroke-width=".797" stroke-miterlimit="10" fill="none" stroke="#929292" d="m35.1 11.005.91-4.549"/><path d="m36.519 3.916-2.845 3.657 2.336-1.117 1.727 1.93" fill="#929292"/><path stroke-width=".797" stroke-miterlimit="10" fill="none" stroke="#929292" d="m53.17 71.243 2.898 3.622"/><path d="m57.686 76.887-.97-4.53-.648 2.508-2.589.08" fill="#929292"/><path stroke-width=".797" stroke-miterlimit="10" fill="none" stroke="#929292" d="m53.17 59.195 3.712 2.783"/><path d="m58.954 63.532-2.072-4.144v2.59l-2.487.725" fill="#929292"/><path stroke-width=".797" stroke-miterlimit="10" fill="none" stroke="#929292" d="m53.17 47.148 4.502 1.125"/><path d="m60.185 48.9-3.518-3.015 1.005 2.388-2.01 1.633" fill="#929292"/><path stroke-width=".797" stroke-miterlimit="10" fill="none" stroke="#929292" d="m53.17 35.1 4.502-1.124"/><path d="m60.185 33.349-4.523-1.007 2.01 1.634-1.006 2.387" fill="#929292"/><path stroke-width=".797" stroke-miterlimit="10" fill="none" stroke="#929292" d="m53.17 23.053 3.712-2.783"/><path d="m58.954 18.716-4.559.829 2.487.725v2.59" fill="#929292"/><path stroke-width=".797" stroke-miterlimit="10" fill="none" stroke="#929292" d="m53.17 11.005 2.898-3.62"/><path d="M57.686 5.362 53.48 7.303l2.589.082.647 2.508" fill="#929292"/><path stroke-width=".797" stroke-miterlimit="10" fill="none" stroke="#929292" d="m71.242 71.243 3.774 2.695"/><path d="m77.124 75.444-2.168-4.095.06 2.59-2.469.782" fill="#929292"/><path stroke-width=".797" stroke-miterlimit="10" fill="none" stroke="#929292" d="m71.242 59.195 4.262 1.827"/><path d="m77.885 62.042-2.993-3.537.612 2.517-2.244 1.292" fill="#929292"/><path stroke-width=".797" stroke-miterlimit="10" fill="none" stroke="#929292" d="m71.242 47.148 4.592.656"/><path d="m78.398 48.17-3.81-2.637 1.246 2.27-1.831 1.832" fill="#929292"/><path stroke-width=".797" stroke-miterlimit="10" fill="none" stroke="#929292" d="m71.242 35.1 4.592-.655"/><path d="m78.398 34.079-4.395-1.466 1.831 1.832-1.246 2.27" fill="#929292"/><path stroke-width=".797" stroke-miterlimit="10" fill="none" stroke="#929292" d="m71.242 23.053 4.262-1.826"/><path d="m77.885 20.207-4.625-.273 2.244 1.293-.612 2.517" fill="#929292"/><path stroke-width=".797" stroke-miterlimit="10" fill="none" stroke="#929292" d="m71.242 11.005 3.774-2.694"/><path d="m77.124 6.806-4.577.722 2.469.783-.06 2.59" fill="#929292"/><path stroke-width=".797" stroke-miterlimit="10" fill="none" stroke="#929292" d="m89.313 71.243 4.149 2.074"/><path d="m95.779 74.475-2.78-3.706.463 2.548-2.317 1.158" fill="#929292"/><path stroke-width=".797" stroke-miterlimit="10" fill="none" stroke="#929292" d="m89.313 59.195 4.444 1.333"/><path d="m96.238 61.272-3.375-3.175.894 2.43-2.084 1.54" fill="#929292"/><path stroke-width=".797" stroke-miterlimit="10" fill="none" stroke="#929292" d="m89.313 47.148 4.614.46"/><path d="m96.504 47.866-3.917-2.473 1.34 2.216-1.752 1.907" fill="#929292"/><path stroke-width=".797" stroke-miterlimit="10" fill="none" stroke="#929292" d="m89.313 35.1 4.614-.46"/><path d="m96.504 34.382-4.33-1.65 1.753 1.908-1.34 2.216" fill="#929292"/><path stroke-width=".797" stroke-miterlimit="10" fill="none" stroke="#929292" d="m89.313 23.053 4.444-1.333"/><path d="m96.237 20.975-4.564-.794 2.084 1.539-.893 2.43" fill="#929292"/><path stroke-width=".797" stroke-miterlimit="10" fill="none" stroke="#929292" d="m89.313 11.005 4.149-2.074"/><path d="M95.779 7.773h-4.634l2.317 1.158-.463 2.548" fill="#929292"/><path stroke-width=".797" stroke-miterlimit="10" fill="none" stroke="#929292" d="m107.385 71.243 4.329 1.665"/><path d="m114.131 73.838-3.124-3.422.707 2.492-2.194 1.376" fill="#929292"/><path stroke-width=".797" stroke-miterlimit="10" fill="none" stroke="#929292" d="m107.385 59.195 4.519 1.043"/><path d="m114.428 60.82-3.573-2.95 1.049 2.368-1.98 1.67" fill="#929292"/><path stroke-width=".797" stroke-miterlimit="10" fill="none" stroke="#929292" d="m107.385 47.148 4.624.355"/><path d="m114.591 47.702-3.973-2.384 1.391 2.185-1.708 1.947" fill="#929292"/><path stroke-width=".797" stroke-miterlimit="10" fill="none" stroke="#929292" d="m107.385 35.1 4.624-.355"/><path d="m114.591 34.546-4.29-1.748 1.708 1.947-1.39 2.185" fill="#929292"/><path stroke-width=".797" stroke-miterlimit="10" fill="none" stroke="#929292" d="m107.385 23.053 4.519-1.043"/><path d="m114.428 21.428-4.504-1.088 1.98 1.67-1.049 2.368" fill="#929292"/><path stroke-width=".797" stroke-miterlimit="10" fill="none" stroke="#929292" d="m107.385 11.005 4.329-1.665"/><path d="m114.131 8.41-4.612-.446 2.195 1.376-.707 2.492" fill="#929292"/><path stroke-width=".797" stroke-linecap="round" stroke-miterlimit="10" fill="none" stroke="#99f" d="m29.076 41.124 94.917-16.736"/><path d="m70.95 33.741-4.441-1.32 1.89 1.77-1.17 2.31" fill="#99f"/><path stroke-width=".797" stroke-linecap="round" stroke-miterlimit="10" fill="none" stroke="#99f" d="m29.076 41.124 83.468-48.19"/><path d="m65.899 19.865-4.625.277 2.382 1.018-.31 2.571" fill="#99f"/><path stroke-width=".797" stroke-linecap="round" stroke-miterlimit="10" fill="none" stroke="#99f" d="m29.076 41.124 61.952-73.83"/><path d="m56.407 8.553-4.251 1.842 2.586.142.588 2.522" fill="#99f"/><path stroke-width=".797" stroke-linecap="round" stroke-miterlimit="10" fill="none" stroke="#99f" d="M29.076 41.124 62.04-49.444"/><path d="m43.618 1.169-3.364 3.185 2.478-.751 1.416 2.169" fill="#99f"/><path stroke-width=".797" stroke-linecap="round" stroke-miterlimit="10" fill="none" stroke="#99f" d="M29.076 41.124v-96.38"/><path d="m29.076-1.396-2.072 4.144 2.072-1.554 2.072 1.554" fill="#99f"/><path stroke-width=".797" stroke-linecap="round" stroke-miterlimit="10" fill="none" stroke="#99f" d="M29.076 41.124-3.888-49.444"/><path d="m14.534 1.169-.53 4.603 1.416-2.17 2.478.752" fill="#99f"/><path stroke-width=".797" stroke-linecap="round" stroke-miterlimit="10" fill="none" stroke="#99f" d="m29.076 41.124-61.952-73.83"/><path d="m1.745 8.553 1.077 4.506.588-2.522 2.586-.142" fill="#99f"/><path stroke-width=".797" stroke-linecap="round" stroke-miterlimit="10" fill="none" stroke="#99f" d="m29.076 41.124-83.468-48.19M29.076 41.124l-94.917-16.736M29.076 41.124-65.841 57.86M29.076 41.124l-83.468 48.19M29.076 41.124l-61.952 73.83"/><path d="m1.745 73.695 4.251-1.842-2.586-.142-.588-2.522" fill="#99f"/><path stroke-width=".797" stroke-linecap="round" stroke-miterlimit="10" fill="none" stroke="#99f" d="m29.076 41.124-32.964 90.568"/><path d="m14.534 81.08 3.364-3.186-2.478.751-1.416-2.169" fill="#99f"/><path stroke-width=".797" stroke-linecap="round" stroke-miterlimit="10" fill="none" stroke="#99f" d="M29.076 41.124v96.38"/><path d="m29.076 83.644 2.072-4.144-2.072 1.554-2.072-1.554" fill="#99f"/><path stroke-width=".797" stroke-linecap="round" stroke-miterlimit="10" fill="none" stroke="#99f" d="m29.076 41.124 32.964 90.568"/><path d="m43.618 81.08.53-4.604-1.416 2.17-2.478-.752" fill="#99f"/><path stroke-width=".797" stroke-linecap="round" stroke-miterlimit="10" fill="none" stroke="#99f" d="m29.076 41.124 61.952 73.83"/><path d="M56.407 73.695 55.33 69.19l-.588 2.522-2.586.142" fill="#99f"/><path stroke-width=".797" stroke-linecap="round" stroke-miterlimit="10" fill="none" stroke="#99f" d="m29.076 41.124 83.468 48.19"/><path d="m65.899 62.383-2.553-3.866.31 2.571-2.382 1.018" fill="#99f"/><path stroke-width=".797" stroke-linecap="round" stroke-miterlimit="10" fill="none" stroke="#99f" d="m29.076 41.124 94.917 16.736"/><path d="m70.95 48.507-3.722-2.76 1.171 2.31-1.89 1.77" fill="#99f"/><clipPath id="b"><path transform="matrix(1 0 0 -1 29.076 41.124)" d="M11.864-2.092c.244 1.384.244 2.8 0 4.184L23.73 4.184c.488-2.767.488-5.601 0-8.368z"/></clipPath><g clip-path="url(#b)"><symbol id="d"><path stroke-width=".399" stroke-miterlimit="10" fill="none" stroke="#fff" d="m0 82.247 3.088-3.088"/></symbol><pattern id="e" patternUnits="userSpaceOnUse" patternContentUnits="userSpaceOnUse" x="0" y="0" width="2.989" height="2.989"><clipPath id="c"><path d="M-.996-.996h4.981v4.981H-.996z"/></clipPath><g clip-path="url(#c)"><g transform="matrix(1 0 0 -1 0 82.247)"><use xlink:href="#d"/><use y="-2.989" xlink:href="#d"/><use x="-2.989" xlink:href="#d"/><use x="-2.989" y="-2.989" xlink:href="#d"/></g></g></pattern><path transform="matrix(1 0 0 -1 0 82.247)" fill="url(#e)" d="M32.97 28.969h28.293v24.308H32.97z"/></g><path stroke-width=".797" stroke-miterlimit="10" fill="none" stroke="#929292" d="M40.94 43.216c.244-1.384.244-2.8 0-4.184l11.865-2.092c.488 2.767.488 5.601 0 8.368z"/></g><clipPath id="f"><path transform="matrix(1 0 0 -1 29.076 41.124)" d="M120.475-36.142v72.284H240.95v-72.284zM240.95 36.142"/></clipPath><g clip-path="url(#f)"><path d="M149.55 77.266V4.982h120.476v72.284zM270.027 4.982" fill="#ccf"/><path stroke-width=".797" stroke-miterlimit="10" fill="none" stroke="#929292" d="m161.598 71.243-1.722 4.306"/><path d="m158.914 77.954 3.463-3.078-2.501.673-1.347-2.212" fill="#929292"/><path stroke-width=".797" stroke-miterlimit="10" fill="none" stroke="#929292" d="m161.598 59.195-2.573 3.86"/><path d="m157.589 65.21 4.022-2.3-2.586.145-.862-2.443" fill="#929292"/><path stroke-width=".797" stroke-miterlimit="10" fill="none" stroke="#929292" d="m161.598 47.148-4.15 2.074"/><path d="M155.132 50.38h4.633l-2.316-1.158.463-2.548" fill="#929292"/><path stroke-width=".797" stroke-miterlimit="10" fill="none" stroke="#929292" d="m161.598 35.1-4.15-2.074"/><path d="m155.132 31.867 2.78 3.707-.463-2.548 2.316-1.159" fill="#929292"/><path stroke-width=".797" stroke-miterlimit="10" fill="none" stroke="#929292" d="m161.598 23.053-2.573-3.86"/><path d="m157.589 17.039.574 4.597.862-2.442 2.587.143" fill="#929292"/><path stroke-width=".797" stroke-miterlimit="10" fill="none" stroke="#929292" d="M161.598 11.005 159.876 6.7"/><path d="m158.914 4.295-.385 4.617 1.347-2.212 2.5.673" fill="#929292"/><path stroke-width=".797" stroke-miterlimit="10" fill="none" stroke="#929292" d="m179.67 71.243.91 4.548"/><path d="m181.089 78.33 1.218-4.47-1.727 1.931-2.337-1.117" fill="#929292"/><path stroke-width=".797" stroke-miterlimit="10" fill="none" stroke="#929292" d="m179.67 59.195 1.466 4.4"/><path d="m181.955 66.053.656-4.587-1.475 2.13-2.457-.82" fill="#929292"/><path stroke-width=".797" stroke-miterlimit="10" fill="none" stroke="#929292" d="m179.67 47.148 3.28 3.28"/><path d="m184.78 52.26-1.464-4.396-.367 2.564-2.564.366" fill="#929292"/><path stroke-width=".797" stroke-miterlimit="10" fill="none" stroke="#929292" d="m179.67 35.1 3.28-3.28"/><path d="m184.78 29.99-4.395 1.464 2.564.367.366 2.564" fill="#929292"/><path stroke-width=".797" stroke-miterlimit="10" fill="none" stroke="#929292" d="m179.67 23.053 1.466-4.4"/><path d="m181.955 16.196-3.276 3.276 2.457-.82 1.475 2.13" fill="#929292"/><path stroke-width=".797" stroke-miterlimit="10" fill="none" stroke="#929292" d="m179.67 11.005.91-4.549"/><path d="m181.089 3.916-2.846 3.657 2.337-1.117 1.727 1.93" fill="#929292"/><path stroke-width=".797" stroke-miterlimit="10" fill="none" stroke="#929292" d="m197.74 71.243 2.898 3.622"/><path d="m202.256 76.887-.97-4.53-.648 2.508-2.589.08" fill="#929292"/><path stroke-width=".797" stroke-miterlimit="10" fill="none" stroke="#929292" d="m197.74 59.195 3.711 2.783"/><path d="m203.524 63.532-2.073-4.144v2.59l-2.486.725" fill="#929292"/><path stroke-width=".797" stroke-miterlimit="10" fill="none" stroke="#929292" d="m197.74 47.148 4.502 1.125"/><path d="m204.755 48.9-3.519-3.015 1.006 2.388-2.01 1.633" fill="#929292"/><path stroke-width=".797" stroke-miterlimit="10" fill="none" stroke="#929292" d="m197.74 35.1 4.502-1.124"/><path d="m204.755 33.349-4.523-1.007 2.01 1.634-1.006 2.387" fill="#929292"/><path stroke-width=".797" stroke-miterlimit="10" fill="none" stroke="#929292" d="m197.74 23.053 3.711-2.783"/><path d="m203.524 18.716-4.56.829 2.487.725v2.59" fill="#929292"/><path stroke-width=".797" stroke-miterlimit="10" fill="none" stroke="#929292" d="m197.74 11.005 2.898-3.62"/><path d="m202.256 5.362-4.207 1.941 2.589.082.647 2.508" fill="#929292"/><path stroke-width=".797" stroke-miterlimit="10" fill="none" stroke="#929292" d="m215.812 71.243 3.774 2.695"/><path d="m221.693 75.444-2.168-4.095.06 2.59-2.468.782" fill="#929292"/><path stroke-width=".797" stroke-miterlimit="10" fill="none" stroke="#929292" d="m215.812 59.195 4.262 1.827"/><path d="m222.455 62.042-2.993-3.537.612 2.517-2.245 1.292" fill="#929292"/><path stroke-width=".797" stroke-miterlimit="10" fill="none" stroke="#929292" d="m215.812 47.148 4.592.656"/><path d="m222.968 48.17-3.81-2.637 1.246 2.27-1.831 1.832" fill="#929292"/><path stroke-width=".797" stroke-miterlimit="10" fill="none" stroke="#929292" d="m215.812 35.1 4.592-.655"/><path d="m222.968 34.079-4.395-1.466 1.83 1.832-1.245 2.27" fill="#929292"/><path stroke-width=".797" stroke-miterlimit="10" fill="none" stroke="#929292" d="m215.812 23.053 4.262-1.826"/><path d="m222.455 20.207-4.626-.273 2.245 1.293-.613 2.517" fill="#929292"/><path stroke-width=".797" stroke-miterlimit="10" fill="none" stroke="#929292" d="m215.812 11.005 3.773-2.694"/><path d="m221.693 6.806-4.576.722 2.468.783-.06 2.59" fill="#929292"/><path stroke-width=".797" stroke-miterlimit="10" fill="none" stroke="#929292" d="m233.883 71.243 4.149 2.074"/><path d="m240.348 74.475-2.78-3.706.464 2.548-2.317 1.158" fill="#929292"/><path stroke-width=".797" stroke-miterlimit="10" fill="none" stroke="#929292" d="m233.883 59.195 4.443 1.333"/><path d="m240.807 61.272-3.374-3.175.893 2.43-2.084 1.54" fill="#929292"/><path stroke-width=".797" stroke-miterlimit="10" fill="none" stroke="#929292" d="m233.883 47.148 4.614.46"/><path d="m241.074 47.866-3.917-2.473 1.34 2.216-1.753 1.907" fill="#929292"/><path stroke-width=".797" stroke-miterlimit="10" fill="none" stroke="#929292" d="m233.883 35.1 4.614-.46"/><path d="m241.074 34.382-4.33-1.65 1.753 1.908-1.34 2.216" fill="#929292"/><path stroke-width=".797" stroke-miterlimit="10" fill="none" stroke="#929292" d="m233.883 23.053 4.443-1.333"/><path d="m240.807 20.975-4.565-.794 2.084 1.539-.893 2.43" fill="#929292"/><path stroke-width=".797" stroke-miterlimit="10" fill="none" stroke="#929292" d="m233.883 11.005 4.149-2.074"/><path d="M240.348 7.773h-4.633l2.317 1.158-.464 2.548" fill="#929292"/><path stroke-width=".797" stroke-miterlimit="10" fill="none" stroke="#929292" d="m251.954 71.243 4.33 1.665"/><path d="m258.701 73.838-3.124-3.422.707 2.492-2.195 1.376" fill="#929292"/><path stroke-width=".797" stroke-miterlimit="10" fill="none" stroke="#929292" d="m251.954 59.195 4.52 1.043"/><path d="m258.998 60.82-3.573-2.95 1.049 2.368-1.98 1.67" fill="#929292"/><path stroke-width=".797" stroke-miterlimit="10" fill="none" stroke="#929292" d="m251.954 47.148 4.625.355"/><path d="m259.161 47.702-3.973-2.384 1.39 2.185-1.708 1.947" fill="#929292"/><path stroke-width=".797" stroke-miterlimit="10" fill="none" stroke="#929292" d="m251.954 35.1 4.625-.355"/><path d="m259.161 34.546-4.29-1.748 1.708 1.947-1.391 2.185" fill="#929292"/><path stroke-width=".797" stroke-miterlimit="10" fill="none" stroke="#929292" d="m251.954 23.053 4.52-1.043"/><path d="m258.998 21.428-4.504-1.088 1.98 1.67-1.049 2.368" fill="#929292"/><path stroke-width=".797" stroke-miterlimit="10" fill="none" stroke="#929292" d="m251.954 11.005 4.33-1.665"/><path d="m258.701 8.41-4.612-.446 2.195 1.376-.707 2.492" fill="#929292"/><path stroke-width=".797" stroke-miterlimit="10" fill="none" stroke="#929292" d="m270.026 71.243 4.427 1.383"/><path d="m276.925 73.399-3.338-3.214.866 2.441-2.101 1.514" fill="#929292"/><path stroke-width=".797" stroke-miterlimit="10" fill="none" stroke="#929292" d="m270.026 59.195 4.558.855"/><path d="m277.13 60.527-3.692-2.8 1.146 2.323-1.91 1.75" fill="#929292"/><path stroke-width=".797" stroke-miterlimit="10" fill="none" stroke="#929292" d="m270.026 47.148 4.628.289"/><path d="m277.24 47.598-4.008-2.326 1.422 2.165-1.68 1.971" fill="#929292"/><path stroke-width=".797" stroke-miterlimit="10" fill="none" stroke="#929292" d="m270.026 35.1 4.628-.289"/><path d="m277.24 34.65-4.266-1.81 1.68 1.971-1.422 2.165" fill="#929292"/><path stroke-width=".797" stroke-miterlimit="10" fill="none" stroke="#929292" d="m270.026 23.053 4.558-.855"/><path d="m277.13 21.721-4.455-1.273 1.91 1.75-1.147 2.323" fill="#929292"/><path stroke-width=".797" stroke-miterlimit="10" fill="none" stroke="#929292" d="m270.026 11.005 4.427-1.383"/><path d="m276.925 8.85-4.573-.742 2.1 1.514-.865 2.441" fill="#929292"/><path stroke-width=".797" stroke-linecap="round" stroke-miterlimit="10" fill="none" stroke="#99f" d="m173.646 41.124 94.916-16.736"/><path d="m215.52 33.741-4.441-1.32 1.89 1.77-1.17 2.31" fill="#99f"/><path stroke-width=".797" stroke-linecap="round" stroke-miterlimit="10" fill="none" stroke="#99f" d="m173.646 41.124 83.467-48.19"/><path d="m210.469 19.865-4.625.277 2.382 1.018-.31 2.571" fill="#99f"/><path stroke-width=".797" stroke-linecap="round" stroke-miterlimit="10" fill="none" stroke="#99f" d="m173.646 41.124 61.952-73.83"/><path d="m200.977 8.553-4.252 1.842 2.587.142.588 2.522" fill="#99f"/><path stroke-width=".797" stroke-linecap="round" stroke-miterlimit="10" fill="none" stroke="#99f" d="m173.646 41.124 32.964-90.568"/><path d="m188.188 1.169-3.365 3.185 2.48-.751 1.415 2.169" fill="#99f"/><path stroke-width=".797" stroke-linecap="round" stroke-miterlimit="10" fill="none" stroke="#99f" d="M173.646 41.124v-96.38"/><path d="m173.646-1.396-2.072 4.144 2.072-1.554 2.072 1.554" fill="#99f"/><path stroke-width=".797" stroke-linecap="round" stroke-miterlimit="10" fill="none" stroke="#99f" d="M173.646 41.124 140.68-49.444"/><path d="m159.103 1.169-.53 4.603 1.416-2.17 2.479.752" fill="#99f"/><path stroke-width=".797" stroke-linecap="round" stroke-miterlimit="10" fill="none" stroke="#99f" d="m173.646 41.124-61.952-73.83"/><path d="m146.315 8.553 1.076 4.506.589-2.522 2.586-.142" fill="#99f"/><path stroke-width=".797" stroke-linecap="round" stroke-miterlimit="10" fill="none" stroke="#99f" d="M173.646 41.124 90.178-7.066"/><path d="m136.823 19.865 2.553 3.866-.31-2.571 2.382-1.018" fill="#99f"/><path stroke-width=".797" stroke-linecap="round" stroke-miterlimit="10" fill="none" stroke="#99f" d="M173.646 41.124 78.729 24.388"/><path d="m131.772 33.741 3.721 2.76-1.17-2.31 1.89-1.77" fill="#99f"/><path stroke-width=".797" stroke-linecap="round" stroke-miterlimit="10" fill="none" stroke="#99f" d="M173.646 41.124 78.729 57.86"/><path d="m131.772 48.507 4.441 1.32-1.89-1.77 1.17-2.31" fill="#99f"/><path stroke-width=".797" stroke-linecap="round" stroke-miterlimit="10" fill="none" stroke="#99f" d="m173.646 41.124-83.468 48.19"/><path d="m136.823 62.383 4.625-.277-2.382-1.018.31-2.571" fill="#99f"/><path stroke-width=".797" stroke-linecap="round" stroke-miterlimit="10" fill="none" stroke="#99f" d="m173.646 41.124-61.952 73.83"/><path d="m146.315 73.695 4.251-1.842-2.586-.142-.589-2.522" fill="#99f"/><path stroke-width=".797" stroke-linecap="round" stroke-miterlimit="10" fill="none" stroke="#99f" d="m173.646 41.124-32.965 90.568"/><path d="m159.103 81.08 3.365-3.186-2.479.751-1.415-2.169" fill="#99f"/><path stroke-width=".797" stroke-linecap="round" stroke-miterlimit="10" fill="none" stroke="#99f" d="M173.646 41.124v96.38"/><path d="m173.646 83.644 2.072-4.144-2.072 1.554-2.072-1.554" fill="#99f"/><path stroke-width=".797" stroke-linecap="round" stroke-miterlimit="10" fill="none" stroke="#99f" d="m173.646 41.124 32.964 90.568"/><path d="m188.188 81.08.53-4.604-1.416 2.17-2.479-.752" fill="#99f"/><path stroke-width=".797" stroke-linecap="round" stroke-miterlimit="10" fill="none" stroke="#99f" d="m173.646 41.124 61.952 73.83"/><path d="M200.977 73.695 199.9 69.19l-.588 2.522-2.587.142" fill="#99f"/><path stroke-width=".797" stroke-linecap="round" stroke-miterlimit="10" fill="none" stroke="#99f" d="m173.646 41.124 83.467 48.19"/><path d="m210.469 62.383-2.553-3.866.31 2.571-2.382 1.018" fill="#99f"/><path stroke-width=".797" stroke-linecap="round" stroke-miterlimit="10" fill="none" stroke="#99f" d="m173.646 41.124 94.916 16.736"/><path d="m215.52 48.507-3.722-2.76 1.17 2.31-1.89 1.77" fill="#99f"/><clipPath id="g"><path transform="matrix(1 0 0 -1 29.076 41.124)" d="M180.163-6.276c.732 4.15.732 8.401 0 12.552l11.865 2.092a48.206 48.206 0 0 0 0-16.736z"/></clipPath><g clip-path="url(#g)"><symbol id="i"><path stroke-width=".399" stroke-miterlimit="10" fill="none" stroke="#fff" d="m0 82.247 3.088-3.088"/></symbol><pattern id="j" patternUnits="userSpaceOnUse" patternContentUnits="userSpaceOnUse" x="0" y="0" width="2.989" height="2.989"><clipPath id="h"><path d="M-.996-.996h4.981v4.981H-.996z"/></clipPath><g clip-path="url(#h)"><g transform="matrix(1 0 0 -1 0 82.247)"><use xlink:href="#i"/><use y="-2.989" xlink:href="#i"/><use x="-2.989" xlink:href="#i"/><use x="-2.989" y="-2.989" xlink:href="#i"/></g></g></pattern><path transform="matrix(1 0 0 -1 0 82.247)" fill="url(#j)" d="M201.269 24.785h28.781v32.676h-28.781z"/></g><path stroke-width=".797" stroke-miterlimit="10" fill="none" stroke="#929292" d="M209.24 47.4c.731-4.15.731-8.401 0-12.552l11.864-2.092a48.206 48.206 0 0 1 0 16.736z"/></g><clipPath id="k"><path transform="matrix(1 0 0 -1 29.076 41.124)" d="M265.045-36.142v72.284h120.474v-72.284zm120.474 72.284"/></clipPath><g clip-path="url(#k)"><path d="M294.12 77.266V4.982h120.475v72.284zM414.596 4.982" fill="#ccf"/><path stroke-width=".797" stroke-miterlimit="10" fill="none" stroke="#929292" d="m306.168 71.243-1.723 4.306"/><path d="m303.483 77.954 3.463-3.078-2.5.673-1.347-2.212" fill="#929292"/><path stroke-width=".797" stroke-miterlimit="10" fill="none" stroke="#929292" d="m306.168 59.195-2.573 3.86"/><path d="m302.158 65.21 4.023-2.3-2.586.145-.862-2.443" fill="#929292"/><path stroke-width=".797" stroke-miterlimit="10" fill="none" stroke="#929292" d="m306.168 47.148-4.15 2.074"/><path d="M299.702 50.38h4.633l-2.316-1.158.463-2.548" fill="#929292"/><path stroke-width=".797" stroke-miterlimit="10" fill="none" stroke="#929292" d="m306.168 35.1-4.15-2.074"/><path d="m299.702 31.867 2.78 3.707-.463-2.548 2.316-1.159" fill="#929292"/><path stroke-width=".797" stroke-miterlimit="10" fill="none" stroke="#929292" d="m306.168 23.053-2.573-3.86"/><path d="m302.158 17.039.575 4.597.862-2.442 2.586.143" fill="#929292"/><path stroke-width=".797" stroke-miterlimit="10" fill="none" stroke="#929292" d="M306.168 11.005 304.446 6.7"/><path d="m303.483 4.295-.384 4.617 1.346-2.212 2.502.673" fill="#929292"/><path stroke-width=".797" stroke-miterlimit="10" fill="none" stroke="#929292" d="m324.24 71.243.91 4.548"/><path d="m325.658 78.33 1.219-4.47-1.727 1.931-2.337-1.117" fill="#929292"/><path stroke-width=".797" stroke-miterlimit="10" fill="none" stroke="#929292" d="m324.24 59.195 1.466 4.4"/><path d="m326.525 66.053.655-4.587-1.474 2.13-2.457-.82" fill="#929292"/><path stroke-width=".797" stroke-miterlimit="10" fill="none" stroke="#929292" d="m324.24 47.148 3.279 3.28"/><path d="m329.35 52.26-1.465-4.396-.366 2.564-2.564.366" fill="#929292"/><path stroke-width=".797" stroke-miterlimit="10" fill="none" stroke="#929292" d="m324.24 35.1 3.279-3.28"/><path d="m329.35 29.99-4.395 1.464 2.564.367.366 2.564" fill="#929292"/><path stroke-width=".797" stroke-miterlimit="10" fill="none" stroke="#929292" d="m324.24 23.053 1.466-4.4"/><path d="m326.525 16.196-3.276 3.276 2.457-.82 1.474 2.13" fill="#929292"/><path stroke-width=".797" stroke-miterlimit="10" fill="none" stroke="#929292" d="m324.24 11.005.91-4.549"/><path d="m325.658 3.916-2.845 3.657 2.337-1.117 1.727 1.93" fill="#929292"/><path stroke-width=".797" stroke-miterlimit="10" fill="none" stroke="#929292" d="m342.31 71.243 2.898 3.622"/><path d="m346.826 76.887-.971-4.53-.647 2.508-2.59.08" fill="#929292"/><path stroke-width=".797" stroke-miterlimit="10" fill="none" stroke="#929292" d="m342.31 59.195 3.711 2.783"/><path d="m348.093 63.532-2.072-4.144v2.59l-2.486.725" fill="#929292"/><path stroke-width=".797" stroke-miterlimit="10" fill="none" stroke="#929292" d="m342.31 47.148 4.502 1.125"/><path d="m349.325 48.9-3.519-3.015 1.006 2.388-2.01 1.633" fill="#929292"/><path stroke-width=".797" stroke-miterlimit="10" fill="none" stroke="#929292" d="m342.31 35.1 4.502-1.124"/><path d="m349.325 33.349-4.523-1.007 2.01 1.634-1.006 2.387" fill="#929292"/><path stroke-width=".797" stroke-miterlimit="10" fill="none" stroke="#929292" d="m342.31 23.053 3.711-2.783"/><path d="m348.093 18.716-4.558.829 2.486.725v2.59" fill="#929292"/><path stroke-width=".797" stroke-miterlimit="10" fill="none" stroke="#929292" d="m342.31 11.005 2.898-3.62"/><path d="m346.826 5.362-4.207 1.941 2.588.082.648 2.508" fill="#929292"/><path stroke-width=".797" stroke-miterlimit="10" fill="none" stroke="#929292" d="m360.382 71.243 3.773 2.695"/><path d="m366.263 75.444-2.168-4.095.06 2.59-2.468.782" fill="#929292"/><path stroke-width=".797" stroke-miterlimit="10" fill="none" stroke="#929292" d="m360.382 59.195 4.262 1.827"/><path d="m367.025 62.042-2.993-3.537.612 2.517-2.245 1.292" fill="#929292"/><path stroke-width=".797" stroke-miterlimit="10" fill="none" stroke="#929292" d="m360.382 47.148 4.592.656"/><path d="m367.538 48.17-3.81-2.637 1.246 2.27-1.832 1.832" fill="#929292"/><path stroke-width=".797" stroke-miterlimit="10" fill="none" stroke="#929292" d="m360.382 35.1 4.592-.655"/><path d="m367.538 34.079-4.396-1.466 1.832 1.832-1.246 2.27" fill="#929292"/><path stroke-width=".797" stroke-miterlimit="10" fill="none" stroke="#929292" d="m360.382 23.053 4.262-1.826"/><path d="m367.025 20.207-4.626-.273 2.245 1.293-.613 2.517" fill="#929292"/><path stroke-width=".797" stroke-miterlimit="10" fill="none" stroke="#929292" d="m360.382 11.005 3.773-2.694"/><path d="m366.263 6.806-4.577.722 2.47.783-.061 2.59" fill="#929292"/><path stroke-width=".797" stroke-miterlimit="10" fill="none" stroke="#929292" d="m378.453 71.243 4.149 2.074"/><path d="m384.918 74.475-2.78-3.706.464 2.548-2.317 1.158" fill="#929292"/><path stroke-width=".797" stroke-miterlimit="10" fill="none" stroke="#929292" d="m378.453 59.195 4.443 1.333"/><path d="m385.377 61.272-3.374-3.175.893 2.43-2.084 1.54" fill="#929292"/><path stroke-width=".797" stroke-miterlimit="10" fill="none" stroke="#929292" d="m378.453 47.148 4.614.46"/><path d="m385.644 47.866-3.918-2.473 1.34 2.216-1.752 1.907" fill="#929292"/><path stroke-width=".797" stroke-miterlimit="10" fill="none" stroke="#929292" d="m378.453 35.1 4.614-.46"/><path d="m385.644 34.382-4.33-1.65 1.753 1.908-1.34 2.216" fill="#929292"/><path stroke-width=".797" stroke-miterlimit="10" fill="none" stroke="#929292" d="m378.453 23.053 4.443-1.333"/><path d="m385.377 20.975-4.565-.794 2.084 1.539-.893 2.43" fill="#929292"/><path stroke-width=".797" stroke-miterlimit="10" fill="none" stroke="#929292" d="m378.453 11.005 4.149-2.074"/><path d="M384.918 7.773h-4.633L382.6 8.93l-.463 2.548" fill="#929292"/><path stroke-width=".797" stroke-miterlimit="10" fill="none" stroke="#929292" d="m396.524 71.243 4.33 1.665"/><path d="m403.271 73.838-3.124-3.422.706 2.492-2.194 1.376" fill="#929292"/><path stroke-width=".797" stroke-miterlimit="10" fill="none" stroke="#929292" d="m396.524 59.195 4.52 1.043"/><path d="m403.567 60.82-3.572-2.95 1.048 2.368-1.98 1.67" fill="#929292"/><path stroke-width=".797" stroke-miterlimit="10" fill="none" stroke="#929292" d="m396.524 47.148 4.625.355"/><path d="m403.731 47.702-3.973-2.384 1.39 2.185-1.708 1.947" fill="#929292"/><path stroke-width=".797" stroke-miterlimit="10" fill="none" stroke="#929292" d="m396.524 35.1 4.624-.355"/><path d="m403.731 34.546-4.29-1.748 1.707 1.947-1.39 2.185" fill="#929292"/><path stroke-width=".797" stroke-miterlimit="10" fill="none" stroke="#929292" d="m396.524 23.053 4.52-1.043"/><path d="m403.567 21.428-4.504-1.088 1.98 1.67-1.048 2.368" fill="#929292"/><path stroke-width=".797" stroke-miterlimit="10" fill="none" stroke="#929292" d="m396.524 11.005 4.33-1.665"/><path d="m403.271 8.41-4.612-.446 2.195 1.376-.707 2.492" fill="#929292"/><path stroke-width=".797" stroke-miterlimit="10" fill="none" stroke="#929292" d="m414.595 71.243 4.428 1.383"/><path d="m421.495 73.399-3.338-3.214.866 2.441-2.102 1.514" fill="#929292"/><path stroke-width=".797" stroke-miterlimit="10" fill="none" stroke="#929292" d="m414.595 59.195 4.559.855"/><path d="m421.7 60.527-3.692-2.8 1.146 2.323-1.91 1.75" fill="#929292"/><path stroke-width=".797" stroke-miterlimit="10" fill="none" stroke="#929292" d="m414.595 47.148 4.629.289"/><path d="m421.809 47.598-4.007-2.326 1.422 2.165-1.68 1.971" fill="#929292"/><path stroke-width=".797" stroke-miterlimit="10" fill="none" stroke="#929292" d="m414.595 35.1 4.629-.289"/><path d="m421.809 34.65-4.265-1.81 1.68 1.971-1.422 2.165" fill="#929292"/><path stroke-width=".797" stroke-miterlimit="10" fill="none" stroke="#929292" d="m414.595 23.053 4.559-.855"/><path d="m421.7 21.721-4.455-1.273 1.909 1.75-1.146 2.323" fill="#929292"/><path stroke-width=".797" stroke-miterlimit="10" fill="none" stroke="#929292" d="m414.595 11.005 4.428-1.383"/><path d="m421.495 8.85-4.574-.742 2.102 1.514-.866 2.441" fill="#929292"/><path stroke-width=".797" stroke-linecap="round" stroke-miterlimit="10" fill="none" stroke="#99f" d="m318.216 41.124 94.916-16.736"/><path d="m360.09 33.741-4.442-1.32 1.89 1.77-1.17 2.31" fill="#99f"/><path stroke-width=".797" stroke-linecap="round" stroke-miterlimit="10" fill="none" stroke="#99f" d="m318.216 41.124 83.467-48.19"/><path d="m355.039 19.865-4.626.277 2.382 1.018-.31 2.571" fill="#99f"/><path stroke-width=".797" stroke-linecap="round" stroke-miterlimit="10" fill="none" stroke="#99f" d="m318.216 41.124 61.952-73.83"/><path d="m345.547 8.553-4.252 1.842 2.587.142.588 2.522" fill="#99f"/><path stroke-width=".797" stroke-linecap="round" stroke-miterlimit="10" fill="none" stroke="#99f" d="m318.216 41.124 32.964-90.568"/><path d="m332.758 1.169-3.365 3.185 2.479-.751 1.416 2.169" fill="#99f"/><path stroke-width=".797" stroke-linecap="round" stroke-miterlimit="10" fill="none" stroke="#99f" d="M318.216 41.124v-96.38"/><path d="m318.216-1.396-2.073 4.144 2.073-1.554 2.072 1.554" fill="#99f"/><path stroke-width=".797" stroke-linecap="round" stroke-miterlimit="10" fill="none" stroke="#99f" d="M318.216 41.124 285.25-49.444"/><path d="m303.673 1.169-.53 4.603 1.416-2.17 2.479.752" fill="#99f"/><path stroke-width=".797" stroke-linecap="round" stroke-miterlimit="10" fill="none" stroke="#99f" d="m318.216 41.124-61.953-73.83"/><path d="m290.885 8.553 1.076 4.506.589-2.522 2.586-.142" fill="#99f"/><path stroke-width=".797" stroke-linecap="round" stroke-miterlimit="10" fill="none" stroke="#99f" d="m318.216 41.124-83.468-48.19"/><path d="m281.393 19.865 2.553 3.866-.31-2.571 2.382-1.018" fill="#99f"/><path stroke-width=".797" stroke-linecap="round" stroke-miterlimit="10" fill="none" stroke="#99f" d="m318.216 41.124-94.917-16.736"/><path d="m276.342 33.741 3.721 2.76-1.17-2.31 1.89-1.77" fill="#99f"/><path stroke-width=".797" stroke-linecap="round" stroke-miterlimit="10" fill="none" stroke="#99f" d="M318.216 41.124 223.299 57.86"/><path d="m276.342 48.507 4.44 1.32-1.89-1.77 1.171-2.31" fill="#99f"/><path stroke-width=".797" stroke-linecap="round" stroke-miterlimit="10" fill="none" stroke="#99f" d="m318.216 41.124-83.468 48.19"/><path d="m281.393 62.383 4.625-.277-2.382-1.018.31-2.571" fill="#99f"/><path stroke-width=".797" stroke-linecap="round" stroke-miterlimit="10" fill="none" stroke="#99f" d="m318.216 41.124-61.953 73.83"/><path d="m290.885 73.695 4.25-1.842-2.585-.142-.589-2.522" fill="#99f"/><path stroke-width=".797" stroke-linecap="round" stroke-miterlimit="10" fill="none" stroke="#99f" d="m318.216 41.124-32.965 90.568"/><path d="m303.673 81.08 3.365-3.186-2.479.751-1.416-2.169" fill="#99f"/><path stroke-width=".797" stroke-linecap="round" stroke-miterlimit="10" fill="none" stroke="#99f" d="M318.216 41.124v96.38"/><path d="m318.216 83.644 2.072-4.144-2.072 1.554-2.073-1.554" fill="#99f"/><path stroke-width=".797" stroke-linecap="round" stroke-miterlimit="10" fill="none" stroke="#99f" d="m318.216 41.124 32.964 90.568"/><path d="m332.758 81.08.53-4.604-1.416 2.17-2.479-.752" fill="#99f"/><path stroke-width=".797" stroke-linecap="round" stroke-miterlimit="10" fill="none" stroke="#99f" d="m318.216 41.124 61.952 73.83"/><path d="m345.547 73.695-1.077-4.506-.588 2.522-2.587.142" fill="#99f"/><path stroke-width=".797" stroke-linecap="round" stroke-miterlimit="10" fill="none" stroke="#99f" d="m318.216 41.124 83.467 48.19"/><path d="m355.039 62.383-2.553-3.866.31 2.571-2.383 1.018" fill="#99f"/><path stroke-width=".797" stroke-linecap="round" stroke-miterlimit="10" fill="none" stroke="#99f" d="m318.216 41.124 94.916 16.736"/><path d="m360.09 48.507-3.722-2.76 1.17 2.31-1.89 1.77" fill="#99f"/><clipPath id="l"><path transform="matrix(1 0 0 -1 29.076 41.124)" d="M348.462-10.46a60.257 60.257 0 0 1 0 20.92l11.865 2.092a72.311 72.311 0 0 0 0-25.104z"/></clipPath><g clip-path="url(#l)"><symbol id="n"><path stroke-width=".399" stroke-miterlimit="10" fill="none" stroke="#fff" d="m0 82.247 3.088-3.088"/></symbol><pattern id="o" patternUnits="userSpaceOnUse" patternContentUnits="userSpaceOnUse" x="0" y="0" width="2.989" height="2.989"><clipPath id="m"><path d="M-.996-.996h4.981v4.981H-.996z"/></clipPath><g clip-path="url(#m)"><g transform="matrix(1 0 0 -1 0 82.247)"><use xlink:href="#n"/><use y="-2.989" xlink:href="#n"/><use x="-2.989" xlink:href="#n"/><use x="-2.989" y="-2.989" xlink:href="#n"/></g></g></pattern><path transform="matrix(1 0 0 -1 0 82.247)" fill="url(#o)" d="M369.568 20.601h29.269v41.044h-29.269z"/></g><path stroke-width=".797" stroke-miterlimit="10" fill="none" stroke="#929292" d="M377.538 51.584a60.257 60.257 0 0 0 0-20.92l11.865-2.092a72.311 72.311 0 0 1 0 25.104z"/></g></svg>