<svg xmlns="http://www.w3.org/2000/svg" xmlns:xlink="http://www.w3.org/1999/xlink" width="588.836" height="103.992" viewBox="0 0 441.627 77.994"><path d="M5.38 73.013V4.981h136.065v68.032zM141.444 4.981" fill="#ccf"/><path stroke-width=".797" stroke-miterlimit="10" fill="none" stroke="#929292" d="M11.049 61.674h8.748"/><path d="m22.388 61.674-4.145-2.072 1.554 2.072-1.554 2.073" fill="#929292"/><path stroke-width=".797" stroke-miterlimit="10" fill="none" stroke="#929292" d="M11.049 44.666h8.748"/><path d="m22.388 44.666-4.145-2.072 1.554 2.072-1.554 2.072" fill="#929292"/><path stroke-width=".797" stroke-miterlimit="10" fill="none" stroke="#929292" d="M11.049 27.658h8.748"/><path d="m22.388 27.658-4.145-2.072 1.554 2.072-1.554 2.072" fill="#929292"/><path stroke-width=".797" stroke-miterlimit="10" fill="none" stroke="#929292" d="M11.049 10.65h8.748"/><path d="m22.388 10.65-4.145-2.072 1.554 2.072-1.554 2.072" fill="#929292"/><path stroke-width=".797" stroke-miterlimit="10" fill="none" stroke="#929292" d="M33.726 61.674h8.749"/><path d="m45.065 61.674-4.144-2.072 1.554 2.072-1.554 2.073" fill="#929292"/><path stroke-width=".797" stroke-miterlimit="10" fill="none" stroke="#929292" d="M33.726 44.666h8.749"/><path d="m45.065 44.666-4.144-2.072 1.554 2.072-1.554 2.072" fill="#929292"/><path stroke-width=".797" stroke-miterlimit="10" fill="none" stroke="#929292" d="M33.726 27.658h8.749"/><path d="m45.065 27.658-4.144-2.072 1.554 2.072-1.554 2.072" fill="#929292"/><path stroke-width=".797" stroke-miterlimit="10" fill="none" stroke="#929292" d="M33.726 10.65h8.749"/><path d="m45.065 10.65-4.144-2.072 1.554 2.072-1.554 2.072" fill="#929292"/><path stroke-width=".797" stroke-miterlimit="10" fill="none" stroke="#929292" d="M56.404 61.674h8.748"/><path d="m67.743 61.674-4.145-2.072 1.554 2.072-1.554 2.073" fill="#929292"/><path stroke-width=".797" stroke-miterlimit="10" fill="none" stroke="#929292" d="M56.404 44.666h8.748"/><path d="m67.743 44.666-4.145-2.072 1.554 2.072-1.554 2.072" fill="#929292"/><path stroke-width=".797" stroke-miterlimit="10" fill="none" stroke="#929292" d="M56.404 27.658h8.748"/><path d="m67.743 27.658-4.145-2.072 1.554 2.072-1.554 2.072" fill="#929292"/><path stroke-width=".797" stroke-miterlimit="10" fill="none" stroke="#929292" d="M56.404 10.65h8.748"/><path d="m67.743 10.65-4.145-2.072 1.554 2.072-1.554 2.072" fill="#929292"/><path stroke-width=".797" stroke-miterlimit="10" fill="none" stroke="#929292" d="M79.081 61.674h8.749"/><path d="m90.42 61.674-4.144-2.072 1.554 2.072-1.554 2.073" fill="#929292"/><path stroke-width=".797" stroke-miterlimit="10" fill="none" stroke="#929292" d="M79.081 44.666h8.749"/><path d="m90.42 44.666-4.144-2.072 1.554 2.072-1.554 2.072" fill="#929292"/><path stroke-width=".797" stroke-miterlimit="10" fill="none" stroke="#929292" d="M79.081 27.658h8.749"/><path d="m90.42 27.658-4.144-2.072 1.554 2.072-1.554 2.072" fill="#929292"/><path stroke-width=".797" stroke-miterlimit="10" fill="none" stroke="#929292" d="M79.081 10.65h8.749"/><path d="m90.42 10.65-4.144-2.072 1.554 2.072-1.554 2.072" fill="#929292"/><path stroke-width=".797" stroke-miterlimit="10" fill="none" stroke="#929292" d="M101.759 61.674h8.748"/><path d="m113.098 61.674-4.145-2.072 1.554 2.072-1.554 2.073" fill="#929292"/><path stroke-width=".797" stroke-miterlimit="10" fill="none" stroke="#929292" d="M101.759 44.666h8.748"/><path d="m113.098 44.666-4.145-2.072 1.554 2.072-1.554 2.072" fill="#929292"/><path stroke-width=".797" stroke-miterlimit="10" fill="none" stroke="#929292" d="M101.759 27.658h8.748"/><path d="m113.098 27.658-4.145-2.072 1.554 2.072-1.554 2.072" fill="#929292"/><path stroke-width=".797" stroke-miterlimit="10" fill="none" stroke="#929292" d="M101.759 10.65h8.748"/><path d="m113.098 10.65-4.145-2.072 1.554 2.072-1.554 2.072" fill="#929292"/><path stroke-width=".797" stroke-miterlimit="10" fill="none" stroke="#929292" d="M124.436 61.674h8.749"/><path d="m135.775 61.674-4.144-2.072 1.554 2.072-1.554 2.073" fill="#929292"/><path stroke-width=".797" stroke-miterlimit="10" fill="none" stroke="#929292" d="M124.436 44.666h8.749"/><path d="m135.775 44.666-4.144-2.072 1.554 2.072-1.554 2.072" fill="#929292"/><path stroke-width=".797" stroke-miterlimit="10" fill="none" stroke="#929292" d="M124.436 27.658h8.749"/><path d="m135.775 27.658-4.144-2.072 1.554 2.072-1.554 2.072" fill="#929292"/><path stroke-width=".797" stroke-miterlimit="10" fill="none" stroke="#929292" d="M124.436 10.65h8.749"/><path d="m135.775 10.65-4.144-2.072 1.554 2.072-1.554 2.072" fill="#929292"/><path stroke-width=".797" stroke-linecap="round" stroke-miterlimit="10" fill="none" stroke="#99f" d="M5.38 21.989h136.065"/><path d="m90.42 21.989-4.145-2.072 1.555 2.072-1.555 2.072" fill="#99f"/><path stroke-width=".797" stroke-linecap="round" stroke-miterlimit="10" fill="none" stroke="#99f" d="M5.38 33.327h136.065"/><path d="m90.42 33.327-4.145-2.072 1.555 2.072-1.555 2.073" fill="#99f"/><clipPath id="a"><path transform="matrix(1 0 0 -1 73.412 56.005)" d="M-45.355 22.678v11.338h11.339V22.678zm11.339 11.338"/></clipPath><g clip-path="url(#a)"><symbol id="c"><path stroke-width=".399" stroke-miterlimit="10" fill="none" stroke="#fff" d="m0 77.994 3.088-3.088"/></symbol><pattern id="d" patternUnits="userSpaceOnUse" patternContentUnits="userSpaceOnUse" x="0" y="0" width="2.989" height="2.989"><clipPath id="b"><path d="M-.996-.996h4.981v4.981H-.996z"/></clipPath><g clip-path="url(#b)"><g transform="matrix(1 0 0 -1 0 77.994)"><use xlink:href="#c"/><use y="-2.989" xlink:href="#c"/><use x="-2.989" xlink:href="#c"/><use x="-2.989" y="-2.989" xlink:href="#c"/></g></g></pattern><path transform="matrix(1 0 0 -1 0 77.994)" fill="url(#d)" d="M20.087 36.696h27.279v27.279H20.087z"/></g><path stroke-width=".797" stroke-miterlimit="10" fill="none" stroke="#929292" d="M28.057 33.327V21.99h11.339v11.338zM39.396 21.99"/><path d="M152.783 73.013V4.981H288.85v68.032zM288.85 4.981" fill="#ccf"/><path stroke-width=".797" stroke-miterlimit="10" fill="none" stroke="#929292" d="M158.453 61.674h8.748"/><path d="m169.792 61.674-4.145-2.072 1.554 2.072-1.554 2.073" fill="#929292"/><path stroke-width=".797" stroke-miterlimit="10" fill="none" stroke="#929292" d="M158.453 44.666h8.748"/><path d="m169.792 44.666-4.145-2.072 1.554 2.072-1.554 2.072" fill="#929292"/><path stroke-width=".797" stroke-miterlimit="10" fill="none" stroke="#929292" d="M158.453 27.658h8.748"/><path d="m169.792 27.658-4.145-2.072 1.554 2.072-1.554 2.072" fill="#929292"/><path stroke-width=".797" stroke-miterlimit="10" fill="none" stroke="#929292" d="M158.453 10.65h8.748"/><path d="m169.792 10.65-4.145-2.072 1.554 2.072-1.554 2.072" fill="#929292"/><path stroke-width=".797" stroke-miterlimit="10" fill="none" stroke="#929292" d="M181.13 61.674h8.749"/><path d="m192.469 61.674-4.144-2.072 1.554 2.072-1.554 2.073" fill="#929292"/><path stroke-width=".797" stroke-miterlimit="10" fill="none" stroke="#929292" d="M181.13 44.666h8.749"/><path d="m192.469 44.666-4.144-2.072 1.554 2.072-1.554 2.072" fill="#929292"/><path stroke-width=".797" stroke-miterlimit="10" fill="none" stroke="#929292" d="M181.13 27.658h8.749"/><path d="m192.469 27.658-4.144-2.072 1.554 2.072-1.554 2.072" fill="#929292"/><path stroke-width=".797" stroke-miterlimit="10" fill="none" stroke="#929292" d="M181.13 10.65h8.749"/><path d="m192.469 10.65-4.144-2.072 1.554 2.072-1.554 2.072" fill="#929292"/><path stroke-width=".797" stroke-miterlimit="10" fill="none" stroke="#929292" d="M203.808 61.674h8.748"/><path d="m215.147 61.674-4.145-2.072 1.554 2.072-1.554 2.073" fill="#929292"/><path stroke-width=".797" stroke-miterlimit="10" fill="none" stroke="#929292" d="M203.808 44.666h8.748"/><path d="m215.147 44.666-4.145-2.072 1.554 2.072-1.554 2.072" fill="#929292"/><path stroke-width=".797" stroke-miterlimit="10" fill="none" stroke="#929292" d="M203.808 27.658h8.748"/><path d="m215.147 27.658-4.145-2.072 1.554 2.072-1.554 2.072" fill="#929292"/><path stroke-width=".797" stroke-miterlimit="10" fill="none" stroke="#929292" d="M203.808 10.65h8.748"/><path d="m215.147 10.65-4.145-2.072 1.554 2.072-1.554 2.072" fill="#929292"/><path stroke-width=".797" stroke-miterlimit="10" fill="none" stroke="#929292" d="M226.485 61.674h8.749"/><path d="m237.824 61.674-4.144-2.072 1.554 2.072-1.554 2.073" fill="#929292"/><path stroke-width=".797" stroke-miterlimit="10" fill="none" stroke="#929292" d="M226.485 44.666h8.749"/><path d="m237.824 44.666-4.144-2.072 1.554 2.072-1.554 2.072" fill="#929292"/><path stroke-width=".797" stroke-miterlimit="10" fill="none" stroke="#929292" d="M226.485 27.658h8.749"/><path d="m237.824 27.658-4.144-2.072 1.554 2.072-1.554 2.072" fill="#929292"/><path stroke-width=".797" stroke-miterlimit="10" fill="none" stroke="#929292" d="M226.485 10.65h8.749"/><path d="m237.824 10.65-4.144-2.072 1.554 2.072-1.554 2.072" fill="#929292"/><path stroke-width=".797" stroke-miterlimit="10" fill="none" stroke="#929292" d="M249.163 61.674h8.748"/><path d="m260.502 61.674-4.145-2.072 1.554 2.072-1.554 2.073" fill="#929292"/><path stroke-width=".797" stroke-miterlimit="10" fill="none" stroke="#929292" d="M249.163 44.666h8.748"/><path d="m260.502 44.666-4.145-2.072 1.554 2.072-1.554 2.072" fill="#929292"/><path stroke-width=".797" stroke-miterlimit="10" fill="none" stroke="#929292" d="M249.163 27.658h8.748"/><path d="m260.502 27.658-4.145-2.072 1.554 2.072-1.554 2.072" fill="#929292"/><path stroke-width=".797" stroke-miterlimit="10" fill="none" stroke="#929292" d="M249.163 10.65h8.748"/><path d="m260.502 10.65-4.145-2.072 1.554 2.072-1.554 2.072" fill="#929292"/><path stroke-width=".797" stroke-miterlimit="10" fill="none" stroke="#929292" d="M271.84 61.674h8.749"/><path d="m283.18 61.674-4.145-2.072 1.554 2.072-1.554 2.073" fill="#929292"/><path stroke-width=".797" stroke-miterlimit="10" fill="none" stroke="#929292" d="M271.84 44.666h8.749"/><path d="m283.18 44.666-4.145-2.072 1.554 2.072-1.554 2.072" fill="#929292"/><path stroke-width=".797" stroke-miterlimit="10" fill="none" stroke="#929292" d="M271.84 27.658h8.749"/><path d="m283.18 27.658-4.145-2.072 1.554 2.072-1.554 2.072" fill="#929292"/><path stroke-width=".797" stroke-miterlimit="10" fill="none" stroke="#929292" d="M271.84 10.65h8.749"/><path d="m283.18 10.65-4.145-2.072 1.554 2.072-1.554 2.072" fill="#929292"/><path stroke-width=".797" stroke-linecap="round" stroke-miterlimit="10" fill="none" stroke="#99f" d="M152.783 21.989H288.85"/><path d="m237.824 21.989-4.145-2.072 1.555 2.072-1.555 2.072" fill="#99f"/><path stroke-width=".797" stroke-linecap="round" stroke-miterlimit="10" fill="none" stroke="#99f" d="M152.783 33.327H288.85"/><path d="m237.824 33.327-4.145-2.072 1.555 2.072-1.555 2.073" fill="#99f"/><clipPath id="e"><path transform="matrix(1 0 0 -1 73.412 56.005)" d="M147.404 22.678v11.338h11.339V22.678zm11.339 11.338"/></clipPath><g clip-path="url(#e)"><symbol id="g"><path stroke-width=".399" stroke-miterlimit="10" fill="none" stroke="#fff" d="m0 77.994 3.088-3.088"/></symbol><pattern id="h" patternUnits="userSpaceOnUse" patternContentUnits="userSpaceOnUse" x="0" y="0" width="2.989" height="2.989"><clipPath id="f"><path d="M-.996-.996h4.981v4.981H-.996z"/></clipPath><g clip-path="url(#f)"><g transform="matrix(1 0 0 -1 0 77.994)"><use xlink:href="#g"/><use y="-2.989" xlink:href="#g"/><use x="-2.989" xlink:href="#g"/><use x="-2.989" y="-2.989" xlink:href="#g"/></g></g></pattern><path transform="matrix(1 0 0 -1 0 77.994)" fill="url(#h)" d="M212.846 36.696h27.279v27.279h-27.279z"/></g><path stroke-width=".797" stroke-miterlimit="10" fill="none" stroke="#929292" d="M220.816 33.327V21.99h11.339v11.338zm11.339-11.338"/><path d="M300.187 73.013V4.981h136.066v68.032zM436.253 4.981" fill="#ccf"/><path stroke-width=".797" stroke-miterlimit="10" fill="none" stroke="#929292" d="M305.857 61.674h8.748"/><path d="m317.195 61.674-4.144-2.072 1.554 2.072-1.554 2.073" fill="#929292"/><path stroke-width=".797" stroke-miterlimit="10" fill="none" stroke="#929292" d="M305.857 44.666h8.748"/><path d="m317.195 44.666-4.144-2.072 1.554 2.072-1.554 2.072" fill="#929292"/><path stroke-width=".797" stroke-miterlimit="10" fill="none" stroke="#929292" d="M305.857 27.658h8.748"/><path d="m317.195 27.658-4.144-2.072 1.554 2.072-1.554 2.072" fill="#929292"/><path stroke-width=".797" stroke-miterlimit="10" fill="none" stroke="#929292" d="M305.857 10.65h8.748"/><path d="m317.195 10.65-4.144-2.072 1.554 2.072-1.554 2.072" fill="#929292"/><path stroke-width=".797" stroke-miterlimit="10" fill="none" stroke="#929292" d="M328.534 61.674h8.749"/><path d="m339.873 61.674-4.144-2.072 1.554 2.072-1.554 2.073" fill="#929292"/><path stroke-width=".797" stroke-miterlimit="10" fill="none" stroke="#929292" d="M328.534 44.666h8.749"/><path d="m339.873 44.666-4.144-2.072 1.554 2.072-1.554 2.072" fill="#929292"/><path stroke-width=".797" stroke-miterlimit="10" fill="none" stroke="#929292" d="M328.534 27.658h8.749"/><path d="m339.873 27.658-4.144-2.072 1.554 2.072-1.554 2.072" fill="#929292"/><path stroke-width=".797" stroke-miterlimit="10" fill="none" stroke="#929292" d="M328.534 10.65h8.749"/><path d="m339.873 10.65-4.144-2.072 1.554 2.072-1.554 2.072" fill="#929292"/><path stroke-width=".797" stroke-miterlimit="10" fill="none" stroke="#929292" d="M351.212 61.674h8.748"/><path d="m362.55 61.674-4.144-2.072 1.554 2.072-1.554 2.073" fill="#929292"/><path stroke-width=".797" stroke-miterlimit="10" fill="none" stroke="#929292" d="M351.212 44.666h8.748"/><path d="m362.55 44.666-4.144-2.072 1.554 2.072-1.554 2.072" fill="#929292"/><path stroke-width=".797" stroke-miterlimit="10" fill="none" stroke="#929292" d="M351.212 27.658h8.748"/><path d="m362.55 27.658-4.144-2.072 1.554 2.072-1.554 2.072" fill="#929292"/><path stroke-width=".797" stroke-miterlimit="10" fill="none" stroke="#929292" d="M351.212 10.65h8.748"/><path d="m362.55 10.65-4.144-2.072 1.554 2.072-1.554 2.072" fill="#929292"/><path stroke-width=".797" stroke-miterlimit="10" fill="none" stroke="#929292" d="M373.89 61.674h8.748"/><path d="m385.228 61.674-4.144-2.072 1.554 2.072-1.554 2.073" fill="#929292"/><path stroke-width=".797" stroke-miterlimit="10" fill="none" stroke="#929292" d="M373.89 44.666h8.748"/><path d="m385.228 44.666-4.144-2.072 1.554 2.072-1.554 2.072" fill="#929292"/><path stroke-width=".797" stroke-miterlimit="10" fill="none" stroke="#929292" d="M373.89 27.658h8.748"/><path d="m385.228 27.658-4.144-2.072 1.554 2.072-1.554 2.072" fill="#929292"/><path stroke-width=".797" stroke-miterlimit="10" fill="none" stroke="#929292" d="M373.89 10.65h8.748"/><path d="m385.228 10.65-4.144-2.072 1.554 2.072-1.554 2.072" fill="#929292"/><path stroke-width=".797" stroke-miterlimit="10" fill="none" stroke="#929292" d="M396.567 61.674h8.748"/><path d="m407.906 61.674-4.145-2.072 1.554 2.072-1.554 2.073" fill="#929292"/><path stroke-width=".797" stroke-miterlimit="10" fill="none" stroke="#929292" d="M396.567 44.666h8.748"/><path d="m407.906 44.666-4.145-2.072 1.554 2.072-1.554 2.072" fill="#929292"/><path stroke-width=".797" stroke-miterlimit="10" fill="none" stroke="#929292" d="M396.567 27.658h8.748"/><path d="m407.906 27.658-4.145-2.072 1.554 2.072-1.554 2.072" fill="#929292"/><path stroke-width=".797" stroke-miterlimit="10" fill="none" stroke="#929292" d="M396.567 10.65h8.748"/><path d="m407.906 10.65-4.145-2.072 1.554 2.072-1.554 2.072" fill="#929292"/><path stroke-width=".797" stroke-miterlimit="10" fill="none" stroke="#929292" d="M419.244 61.674h8.749"/><path d="m430.583 61.674-4.144-2.072 1.554 2.072-1.554 2.073" fill="#929292"/><path stroke-width=".797" stroke-miterlimit="10" fill="none" stroke="#929292" d="M419.244 44.666h8.749"/><path d="m430.583 44.666-4.144-2.072 1.554 2.072-1.554 2.072" fill="#929292"/><path stroke-width=".797" stroke-miterlimit="10" fill="none" stroke="#929292" d="M419.244 27.658h8.749"/><path d="m430.583 27.658-4.144-2.072 1.554 2.072-1.554 2.072" fill="#929292"/><path stroke-width=".797" stroke-miterlimit="10" fill="none" stroke="#929292" d="M419.244 10.65h8.749"/><path d="m430.583 10.65-4.144-2.072 1.554 2.072-1.554 2.072" fill="#929292"/><path stroke-width=".797" stroke-linecap="round" stroke-miterlimit="10" fill="none" stroke="#99f" d="M300.187 21.989h136.066"/><path d="m385.228 21.989-4.145-2.072 1.554 2.072-1.554 2.072" fill="#99f"/><path stroke-width=".797" stroke-linecap="round" stroke-miterlimit="10" fill="none" stroke="#99f" d="M300.187 33.327h136.066"/><path d="m385.228 33.327-4.145-2.072 1.554 2.072-1.554 2.073" fill="#99f"/><clipPath id="i"><path transform="matrix(1 0 0 -1 73.412 56.005)" d="M340.163 22.678v11.338h11.339V22.678zm11.339 11.338"/></clipPath><g clip-path="url(#i)"><symbol id="k"><path stroke-width=".399" stroke-miterlimit="10" fill="none" stroke="#fff" d="m0 77.994 3.088-3.088"/></symbol><pattern id="l" patternUnits="userSpaceOnUse" patternContentUnits="userSpaceOnUse" x="0" y="0" width="2.989" height="2.989"><clipPath id="j"><path d="M-.996-.996h4.981v4.981H-.996z"/></clipPath><g clip-path="url(#j)"><g transform="matrix(1 0 0 -1 0 77.994)"><use xlink:href="#k"/><use y="-2.989" xlink:href="#k"/><use x="-2.989" xlink:href="#k"/><use x="-2.989" y="-2.989" xlink:href="#k"/></g></g></pattern><path transform="matrix(1 0 0 -1 0 77.994)" fill="url(#l)" d="M405.605 36.696h27.279v27.279h-27.279z"/></g><path stroke-width=".797" stroke-miterlimit="10" fill="none" stroke="#929292" d="M413.575 33.327V21.99h11.339v11.338zm11.339-11.338"/></svg>