<svg xmlns="http://www.w3.org/2000/svg" xmlns:xlink="http://www.w3.org/1999/xlink" width="300.469" height="139.515" viewBox="0 0 225.352 104.636"><defs><symbol overflow="visible" id="a"><path style="stroke:none" d="M.453-7.422v.328h.36c.359 0 .703.032.703.438 0 .062-.016.14-.016.203v5.64c0 .438-.344.485-.688.485-.125 0-.25-.016-.359-.016v.328h6.172l.438-2.796h-.266c-.125.656-.188 1.484-.672 1.968-.484.5-1.25.5-1.89.5h-1.36c-.266 0-.469-.031-.469-.39v-2.97h.969c.375 0 .813.032 1.047.329.156.234.172.563.172.86v.093h.265v-2.875h-.265v.094c0 .297-.016.625-.172.86-.234.296-.672.312-1.047.312h-.969v-2.703c0-.329.219-.36.469-.36H4.25c.61 0 1.344 0 1.766.5.359.438.406 1.063.484 1.61h.266l-.297-2.438Zm0 0"/></symbol><symbol overflow="visible" id="b"><path style="stroke:none" d="M.36-4.688v.329H.53c.328 0 .656.03.656.546v3.016c0 .453-.296.453-.765.453H.359v.328h2.407v-.328h-.25c-.329 0-.579-.031-.579-.437v-2.031c0-.782.422-1.766 1.47-1.766.687 0 .78.703.78 1.344V-.75c0 .375-.296.406-.593.406h-.235v.328h2.407v-.328H5.5c-.281 0-.578 0-.578-.422v-2.468c0-.329 0-.657-.172-.954-.25-.484-.797-.625-1.313-.625-.687 0-1.359.5-1.546 1.11l-.016-1.11Zm0 0"/></symbol><symbol overflow="visible" id="c"><path style="stroke:none" d="M1.61-6.719c0 .735-.298 2.11-1.407 2.11v.234h.938v2.906c0 .328.015.657.171.938.266.437.766.625 1.235.625.875 0 1.062-.953 1.062-1.657v-.421h-.265c0 .156.015.328.015.484 0 .516-.109 1.344-.75 1.344-.625 0-.734-.766-.734-1.266v-2.953h1.547v-.328H1.875V-6.72Zm0 0"/></symbol><symbol overflow="visible" id="d"><path style="stroke:none" d="M.313-4.688v.329h.171c.329 0 .657.03.657.546v3.016c0 .453-.297.453-.766.453H.312v.328h2.594v-.328c-.125 0-.25.016-.39.016-.344 0-.657-.047-.657-.453v-1.485c0-.859.172-2.312 1.266-2.312.047 0 .094.016.14.016-.156.062-.25.25-.25.406a.47.47 0 0 0 .407.453c.312 0 .5-.203.5-.469 0-.422-.422-.64-.781-.64-.688 0-1.204.625-1.329 1.187l-.015-1.188Zm0 0"/></symbol><symbol overflow="visible" id="e"><path style="stroke:none" d="M2.547-4.86C1.157-4.702.312-3.561.312-2.327c0 1.156.891 2.437 2.391 2.437 1.36 0 2.39-1.171 2.39-2.453 0-1.281-.968-2.515-2.437-2.515Zm-1.36 2.766c-.015-.094-.015-.187-.015-.265 0-.875.203-2.266 1.531-2.266 1.14 0 1.516 1.078 1.516 2.125 0 .89-.11 2.266-1.453 2.344h-.063c-.875 0-1.406-.766-1.484-1.61-.016-.109-.016-.218-.032-.328Zm0 0"/></symbol><symbol overflow="visible" id="f"><path style="stroke:none" d="M.313-4.688v.329h.234c.312 0 .594.046.594.484v5.188c0 .453-.297.468-.829.468v.328H2.72v-.328h-.25c-.313 0-.578-.047-.578-.437V-.578c.25.453.89.672 1.375.672C4.578.094 5.64-1.063 5.64-2.36c0-1.204-.907-2.454-2.235-2.454-.61 0-1.11.235-1.547.72v-.72ZM4.75-2.171c-.031.828-.484 1.969-1.484 2.047h-.11c-.515 0-1.265-.5-1.265-1.047V-3c0-.14-.016-.266-.016-.406 0-.594.734-1.14 1.39-1.14 1.126 0 1.5 1.405 1.5 2.202 0 .047 0 .125-.015.172Zm0 0"/></symbol><symbol overflow="visible" id="g"><path style="stroke:none" d="M.422-4.688v.329h.172c.344 0 .61.046.61.546v3.016c0 .438-.282.453-.829.453v.328h2.281v-.328h-.172c-.296 0-.578-.031-.578-.375v-4.093Zm.89-2.578a.532.532 0 0 0-.468.532c0 .25.187.546.531.546a.533.533 0 0 0 .547-.546c0-.25-.172-.547-.531-.547-.032 0-.063.015-.079.015Zm0 0"/></symbol><symbol overflow="visible" id="h"><path style="stroke:none" d="M1.188-2.547h3.156c.11 0 .156-.047.156-.156 0-1.078-.578-2.156-1.906-2.156C1.28-4.86.313-3.672.313-2.422c0 1.188.859 2.516 2.328 2.516.828 0 1.53-.438 1.828-1.282.015-.046.031-.078.031-.125 0-.062-.063-.109-.11-.109-.187 0-.25.36-.312.484-.266.454-.781.782-1.312.782-.61 0-1.141-.438-1.375-.985-.188-.437-.204-.937-.204-1.406Zm.015-.219c0-.843.469-1.875 1.375-1.875.938 0 1.219 1.094 1.219 1.875Zm0 0"/></symbol><symbol overflow="visible" id="i"><path style="stroke:none" d="M1.25-.578c.39.562 1.375.812 2.016.812 1.156 0 2.14-.968 2.14-2.25 0-.937-.515-1.796-1.5-2.156-.14-.031-.281-.062-.422-.11l-.78-.171c-.188-.063-.407-.094-.595-.188-.5-.218-.812-.718-.859-1.265v-.032c0-.796.688-1.453 1.5-1.453 1.156 0 1.86.86 2.031 1.954.047.14 0 .453.188.453.093 0 .14-.063.14-.157v-2.375c0-.078-.015-.171-.109-.171-.125 0-.422.515-.531.78-.547-.484-.969-.78-1.719-.78-1.031 0-2.156.734-2.156 2.062 0 .875.547 1.656 1.36 1.969 1.03.406 2.593.14 2.796 1.86v.093c0 .86-.61 1.594-1.516 1.594-1.078 0-2.171-.625-2.343-1.86-.016-.11-.016-.187-.032-.281v-.14c-.015-.063-.062-.094-.125-.094-.109 0-.14.062-.14.156v2.312c0 .094 0 .235.14.235.157-.032.329-.547.516-.797Zm0 0"/></symbol><symbol overflow="visible" id="j"><path style="stroke:none" d="M.375-7.453v.328h.188c.359 0 .64.031.64.547v5.797c0 .406-.297.437-.61.437H.376v.328h2.36v-.328h-.25c-.297 0-.579-.031-.579-.422v-6.812Zm0 0"/></symbol><symbol overflow="visible" id="k"><path style="stroke:none" d="M3.328-7.453v.328h.125c.422 0 .703.016.703.672v2.312c-.36-.406-.812-.671-1.39-.671-1.297 0-2.391 1.109-2.391 2.468 0 1.203.922 2.438 2.281 2.438.594 0 1.047-.25 1.469-.719v.719l1.563-.11v-.328h-.141c-.36 0-.688-.031-.688-.547v-6.687ZM1.25-2.093v-.157c0-.813.11-1.625.86-2.14.218-.126.468-.173.703-.173.562 0 1.328.422 1.328 1.11 0 .14-.016.281-.016.422v1.812c0 .157-.063.235-.14.36-.282.421-.766.734-1.266.734-.828 0-1.328-.781-1.438-1.516-.015-.14-.015-.296-.031-.453Zm0 0"/></symbol><symbol overflow="visible" id="l"><path style="stroke:none" d="M.453-7.422v.297h.36c.359 0 .703.031.703.422 0 .078-.016.156-.016.219v5.671c0 .438-.344.485-.688.485-.125 0-.25-.016-.359-.016v.328h5.563l.296-2.796h-.265c-.11 1-.203 2.062-1.531 2.406-.313.062-.61.062-.922.062h-.797c-.219 0-.39-.047-.39-.36v-5.952c0-.438.374-.485.718-.485.11 0 .219.016.313.016h.296v-.328H2.25l-.266.031Zm0 0"/></symbol><symbol overflow="visible" id="m"><path style="stroke:none" d="M4.125-.688v2.032c0 .36-.14.437-.844.437v.328h2.422v-.328H5.47c-.328 0-.61-.031-.61-.453v-6.14l-.218.03-.125.25-.282.72c-.093-.11-.156-.25-.234-.36-.297-.39-.734-.64-1.234-.64-1.344 0-2.391 1.171-2.391 2.468 0 1.25 1 2.453 2.281 2.453.625 0 1.078-.343 1.469-.796ZM1.25-2.171v-.125c0-.906.438-2.25 1.61-2.25.703 0 1.203.734 1.296 1.344v1.734c0 .61-.64 1.157-1.093 1.297-.126.031-.25.047-.376.047C1.61-.156 1.329-1.609 1.25-2.172Zm0 0"/></symbol><symbol overflow="visible" id="n"><path style="stroke:none" d="M.36-4.688v.329H.5c.281 0 .61.015.672.328.016.11.016.234.016.36v2.187c0 .312.015.64.171.921.282.547.922.657 1.485.657.61 0 1.156-.375 1.36-.969l.015.969 1.547-.11v-.328h-.157c-.343 0-.687-.031-.687-.515v-3.954l-1.563.125v.329h.094c.375 0 .735.015.735.546v1.97c0 .796-.407 1.718-1.344 1.718-.422 0-.797-.14-.89-.688-.016-.218-.016-.421-.016-.625v-3.375l-.547.047Zm0 0"/></symbol><symbol overflow="visible" id="o"><path style="stroke:none" d="M6.484-.719c.125.266.5.703.641.703.078 0 .094-.078.094-.14V-2c0-.078-.016-.156-.016-.219 0-.406.281-.422.766-.422v-.328h-3v.328c.172 0 .36-.015.531-.015.438 0 .828.078.828.531 0 .094-.016.188-.016.266 0 .14.016.265.016.406 0 .828-.781 1.344-1.75 1.344-1.047 0-2-.594-2.516-1.547-.343-.625-.421-1.407-.421-2.11 0-1.046.234-2.203 1.109-2.937a2.715 2.715 0 0 1 1.734-.656c1.22 0 2.032.984 2.36 2.187.031.203 0 .578.218.578.141 0 .157-.078.157-.172V-7.53c0-.047-.016-.157-.11-.157-.093 0-.156.125-.203.188-.172.266-.36.516-.5.797-.531-.578-1.11-.938-1.875-.984h-.11C2.376-7.688.595-5.954.595-3.735.594-1.72 2.172.219 4.406.219c.813 0 1.5-.219 2.078-.938Zm0 0"/></symbol><symbol overflow="visible" id="p"><path style="stroke:none" d="M1.188-4.063c.28-.343.687-.578 1.14-.578.797 0 1.203.688 1.203 1.438v.36C2.297-2.844.47-2.439.47-1.048c0 .813.953 1.14 1.719 1.14h.14c.547-.046 1.14-.437 1.281-.937h.016c.031.453.328.89.828.89.469 0 .844-.374.89-.843v-.797h-.265v.547c0 .297-.047.75-.406.75-.328 0-.406-.437-.406-.703 0-.125.015-.25.015-.375V-3.265c0-1.016-.953-1.594-1.86-1.594-.687 0-1.624.359-1.624 1.234 0 .281.187.5.469.5a.46.46 0 0 0 .468-.469.47.47 0 0 0-.468-.469h-.079ZM3.53-2.625v1.094c0 .75-.515 1.36-1.234 1.406H2.25c-.5 0-.969-.406-.969-.938v-.046c.078-1.063 1.235-1.485 2.25-1.516Zm0 0"/></symbol><symbol overflow="visible" id="q"><path style="stroke:none" d="m.563-4.703-.11 1.75h.25c.031-.375.047-.828.297-1.14.25-.345.766-.376 1.203-.376h1.235c-.954 1.375-2 2.719-3 4.063-.063.062-.126.156-.126.25 0 .11.063.14.157.14h3.719l.171-2.03h-.265c-.032.468-.063 1-.328 1.343-.313.39-.844.437-1.329.437H1.204c.094-.156.203-.28.313-.421.875-1.22 1.796-2.407 2.671-3.625.063-.079.141-.157.141-.25 0-.11-.078-.141-.156-.141Zm0 0"/></symbol></defs><path style="fill:none;stroke-width:4.98138;stroke-linecap:butt;stroke-linejoin:miter;stroke:#000;stroke-opacity:1;stroke-miterlimit:10" d="M0-14.172h161.215" transform="matrix(1 0 0 -1 7.472 80.664)"/><path style="stroke:none;fill-rule:nonzero;fill:#000;fill-opacity:1" d="m177.555 94.836-14.188-7.094 5.32 7.094-5.32 7.094"/><g style="fill:#000;fill-opacity:1"><use xlink:href="#a" x="179.543" y="97.534"/><use xlink:href="#b" x="186.922" y="97.534"/></g><g style="fill:#000;fill-opacity:1"><use xlink:href="#c" x="192.643" y="97.534"/><use xlink:href="#d" x="196.862" y="97.534"/><use xlink:href="#e" x="201.082" y="97.534"/><use xlink:href="#f" x="206.506" y="97.534"/><use xlink:href="#g" x="212.532" y="97.534"/><use xlink:href="#h" x="215.547" y="97.534"/></g><path style="fill-rule:nonzero;fill:gray;fill-opacity:1;stroke-width:.3985;stroke-linecap:butt;stroke-linejoin:miter;stroke:#000;stroke-opacity:1;stroke-miterlimit:10" d="M2.126 0a2.125 2.125 0 1 1-4.25 0 2.125 2.125 0 0 1 4.25 0ZM2.126 5.668a2.126 2.126 0 1 1-4.25 0 2.125 2.125 0 1 1 4.25 0ZM2.126 11.34a2.125 2.125 0 1 1-4.25 0 2.126 2.126 0 1 1 4.25 0ZM2.126 17.008a2.125 2.125 0 1 1-4.25 0 2.125 2.125 0 0 1 4.25 0ZM2.126 22.676a2.126 2.126 0 1 1-4.25 0 2.125 2.125 0 1 1 4.25 0ZM2.126 28.348a2.125 2.125 0 1 1-4.25 0 2.126 2.126 0 1 1 4.25 0ZM2.126 34.016a2.125 2.125 0 1 1-4.25 0 2.125 2.125 0 0 1 4.25 0ZM2.126 39.684a2.126 2.126 0 1 1-4.25 0 2.125 2.125 0 1 1 4.25 0ZM2.126 45.355a2.125 2.125 0 1 1-4.25 0 2.126 2.126 0 1 1 4.25 0ZM2.126 51.023a2.125 2.125 0 1 1-4.25 0 2.125 2.125 0 0 1 4.25 0ZM2.126 56.691a2.126 2.126 0 1 1-4.25 0 2.125 2.125 0 1 1 4.25 0ZM7.794 0a2.125 2.125 0 1 1-4.25 0 2.125 2.125 0 0 1 4.25 0ZM7.794 5.668a2.126 2.126 0 1 1-4.25 0 2.125 2.125 0 1 1 4.25 0ZM7.794 11.34a2.125 2.125 0 1 1-4.25 0 2.126 2.126 0 1 1 4.25 0ZM7.794 17.008a2.125 2.125 0 1 1-4.25 0 2.125 2.125 0 0 1 4.25 0ZM7.794 22.676a2.126 2.126 0 1 1-4.25 0 2.125 2.125 0 1 1 4.25 0ZM7.794 28.348a2.125 2.125 0 1 1-4.25 0 2.126 2.126 0 1 1 4.25 0ZM7.794 34.016a2.125 2.125 0 1 1-4.25 0 2.125 2.125 0 0 1 4.25 0ZM7.794 39.684a2.126 2.126 0 1 1-4.25 0 2.125 2.125 0 1 1 4.25 0ZM7.794 45.355a2.125 2.125 0 1 1-4.25 0 2.126 2.126 0 1 1 4.25 0ZM7.794 51.023a2.125 2.125 0 1 1-4.25 0 2.125 2.125 0 0 1 4.25 0ZM7.794 56.691a2.126 2.126 0 1 1-4.25 0 2.125 2.125 0 1 1 4.25 0ZM13.466 0a2.125 2.125 0 0 1-2.125 2.125 2.126 2.126 0 1 1 0-4.25c1.171 0 2.125.95 2.125 2.125ZM13.466 5.668a2.128 2.128 0 1 1-4.254 0 2.128 2.128 0 0 1 4.254 0ZM13.466 11.34a2.127 2.127 0 1 1-4.255-.005 2.127 2.127 0 0 1 4.255.005ZM13.466 17.008a2.125 2.125 0 0 1-2.125 2.125 2.126 2.126 0 1 1 0-4.25c1.171 0 2.125.949 2.125 2.125ZM13.466 22.676a2.128 2.128 0 1 1-4.254 0 2.128 2.128 0 0 1 4.254 0ZM13.466 28.348a2.127 2.127 0 1 1-4.255-.005 2.127 2.127 0 0 1 4.255.005ZM13.466 34.016a2.125 2.125 0 0 1-2.125 2.125 2.126 2.126 0 1 1 0-4.25c1.171 0 2.125.949 2.125 2.125ZM13.466 39.684a2.128 2.128 0 1 1-4.254 0 2.128 2.128 0 0 1 4.254 0ZM13.466 45.355a2.127 2.127 0 1 1-4.255-.004 2.127 2.127 0 0 1 4.255.004ZM13.466 51.023a2.125 2.125 0 0 1-2.125 2.125 2.126 2.126 0 1 1 0-4.25c1.171 0 2.125.95 2.125 2.125ZM13.466 56.691a2.128 2.128 0 1 1-4.254 0 2.128 2.128 0 0 1 4.254 0ZM19.133 0a2.125 2.125 0 1 1-4.249 0 2.125 2.125 0 0 1 4.25 0ZM19.133 5.668a2.126 2.126 0 1 1-4.25 0 2.125 2.125 0 1 1 4.25 0ZM19.133 11.34a2.125 2.125 0 1 1-4.25 0 2.126 2.126 0 1 1 4.25 0ZM19.133 17.008a2.125 2.125 0 1 1-4.249 0 2.125 2.125 0 0 1 4.25 0ZM19.133 22.676a2.126 2.126 0 1 1-4.25 0 2.125 2.125 0 1 1 4.25 0ZM19.133 28.348a2.125 2.125 0 1 1-4.25 0 2.126 2.126 0 1 1 4.25 0ZM19.133 34.016a2.125 2.125 0 1 1-4.249 0 2.125 2.125 0 0 1 4.25 0ZM19.133 39.684a2.126 2.126 0 1 1-4.25 0 2.125 2.125 0 1 1 4.25 0ZM19.133 45.355a2.125 2.125 0 1 1-4.25 0 2.126 2.126 0 1 1 4.25 0ZM19.133 51.023a2.125 2.125 0 1 1-4.249 0 2.125 2.125 0 0 1 4.25 0ZM19.133 56.691a2.126 2.126 0 1 1-4.25 0 2.125 2.125 0 1 1 4.25 0ZM24.801 0a2.125 2.125 0 1 1-4.25 0 2.125 2.125 0 0 1 4.25 0ZM24.801 5.668a2.126 2.126 0 1 1-4.25 0 2.125 2.125 0 1 1 4.25 0ZM24.801 11.34a2.125 2.125 0 1 1-4.25 0 2.126 2.126 0 1 1 4.25 0ZM24.801 17.008a2.125 2.125 0 1 1-4.25 0 2.125 2.125 0 0 1 4.25 0ZM24.801 22.676a2.126 2.126 0 1 1-4.25 0 2.125 2.125 0 1 1 4.25 0ZM24.801 28.348a2.125 2.125 0 1 1-4.25 0 2.126 2.126 0 1 1 4.25 0ZM24.801 34.016a2.125 2.125 0 1 1-4.25 0 2.125 2.125 0 0 1 4.25 0ZM24.801 39.684a2.126 2.126 0 1 1-4.25 0 2.125 2.125 0 1 1 4.25 0ZM24.801 45.355a2.125 2.125 0 1 1-4.25 0 2.126 2.126 0 1 1 4.25 0ZM24.801 51.023a2.125 2.125 0 1 1-4.25 0 2.125 2.125 0 0 1 4.25 0ZM24.801 56.691a2.126 2.126 0 1 1-4.25 0 2.125 2.125 0 1 1 4.25 0ZM30.473 0a2.125 2.125 0 0 1-2.125 2.125 2.126 2.126 0 1 1 0-4.25c1.172 0 2.125.95 2.125 2.125ZM30.473 5.668a2.128 2.128 0 1 1-4.254 0 2.128 2.128 0 0 1 4.254 0ZM30.473 11.34a2.127 2.127 0 1 1-4.254-.005 2.127 2.127 0 0 1 4.254.005ZM30.473 17.008a2.125 2.125 0 0 1-2.125 2.125 2.126 2.126 0 1 1 0-4.25c1.172 0 2.125.949 2.125 2.125ZM30.473 22.676a2.128 2.128 0 1 1-4.254 0 2.128 2.128 0 0 1 4.254 0ZM30.473 28.348a2.127 2.127 0 1 1-4.254-.005 2.127 2.127 0 0 1 4.254.005ZM30.473 34.016a2.125 2.125 0 0 1-2.125 2.125 2.126 2.126 0 1 1 0-4.25c1.172 0 2.125.949 2.125 2.125ZM30.473 39.684a2.128 2.128 0 1 1-4.254 0 2.128 2.128 0 0 1 4.254 0ZM30.473 45.355a2.127 2.127 0 1 1-4.254-.004 2.127 2.127 0 0 1 4.254.004ZM30.473 51.023a2.125 2.125 0 0 1-2.125 2.125 2.126 2.126 0 1 1 0-4.25c1.172 0 2.125.95 2.125 2.125ZM30.473 56.691a2.128 2.128 0 1 1-4.254 0 2.128 2.128 0 0 1 4.254 0ZM36.141 0a2.125 2.125 0 1 1-4.25 0 2.125 2.125 0 0 1 4.25 0ZM36.141 5.668a2.126 2.126 0 1 1-4.25 0 2.125 2.125 0 1 1 4.25 0ZM36.141 11.34a2.125 2.125 0 1 1-4.25 0 2.126 2.126 0 1 1 4.25 0ZM36.141 17.008a2.125 2.125 0 1 1-4.25 0 2.125 2.125 0 0 1 4.25 0ZM36.141 22.676a2.126 2.126 0 1 1-4.25 0 2.125 2.125 0 1 1 4.25 0ZM36.141 28.348a2.125 2.125 0 1 1-4.25 0 2.126 2.126 0 1 1 4.25 0ZM36.141 34.016a2.125 2.125 0 1 1-4.25 0 2.125 2.125 0 0 1 4.25 0ZM36.141 39.684a2.126 2.126 0 1 1-4.25 0 2.125 2.125 0 1 1 4.25 0ZM36.141 45.355a2.125 2.125 0 1 1-4.25 0 2.126 2.126 0 1 1 4.25 0ZM36.141 51.023a2.125 2.125 0 1 1-4.25 0 2.125 2.125 0 0 1 4.25 0ZM36.141 56.691a2.126 2.126 0 1 1-4.25 0 2.125 2.125 0 1 1 4.25 0ZM41.81 0a2.125 2.125 0 1 1-4.25 0 2.125 2.125 0 0 1 4.25 0ZM41.81 5.668a2.126 2.126 0 1 1-4.25 0 2.125 2.125 0 1 1 4.25 0ZM41.81 11.34a2.125 2.125 0 1 1-4.25 0c0-1.176.952-2.13 2.124-2.13 1.176 0 2.125.954 2.125 2.13ZM41.81 17.008a2.125 2.125 0 1 1-4.25 0 2.125 2.125 0 0 1 4.25 0ZM41.81 22.676a2.126 2.126 0 1 1-4.25 0 2.125 2.125 0 1 1 4.25 0ZM41.81 28.348a2.125 2.125 0 1 1-4.25 0c0-1.176.952-2.13 2.124-2.13 1.176 0 2.125.954 2.125 2.13ZM41.81 34.016a2.125 2.125 0 1 1-4.25 0 2.125 2.125 0 0 1 4.25 0ZM41.81 39.684a2.126 2.126 0 1 1-4.25 0 2.125 2.125 0 1 1 4.25 0ZM41.81 45.355a2.125 2.125 0 1 1-4.25 0 2.126 2.126 0 1 1 4.25 0ZM41.81 51.023a2.125 2.125 0 1 1-4.25 0 2.125 2.125 0 0 1 4.25 0ZM41.81 56.691a2.126 2.126 0 1 1-4.25 0 2.125 2.125 0 1 1 4.25 0ZM47.481 0a2.125 2.125 0 0 1-2.125 2.125 2.126 2.126 0 1 1 0-4.25c1.172 0 2.125.95 2.125 2.125ZM47.481 5.668a2.128 2.128 0 1 1-4.254 0 2.128 2.128 0 0 1 4.254 0ZM47.481 11.34a2.127 2.127 0 1 1-4.254-.005 2.127 2.127 0 0 1 4.254.005ZM47.481 17.008a2.125 2.125 0 0 1-2.125 2.125 2.126 2.126 0 1 1 0-4.25c1.172 0 2.125.949 2.125 2.125ZM47.481 22.676a2.128 2.128 0 1 1-4.254 0 2.128 2.128 0 0 1 4.254 0ZM47.481 28.348a2.127 2.127 0 1 1-4.254-.005 2.127 2.127 0 0 1 4.254.005ZM47.481 34.016a2.125 2.125 0 0 1-2.125 2.125 2.126 2.126 0 1 1 0-4.25c1.172 0 2.125.949 2.125 2.125ZM47.481 39.684a2.128 2.128 0 1 1-4.254 0 2.128 2.128 0 0 1 4.254 0ZM47.481 45.355a2.127 2.127 0 1 1-4.254-.004 2.127 2.127 0 0 1 4.254.004ZM47.481 51.023a2.125 2.125 0 0 1-2.125 2.125 2.126 2.126 0 1 1 0-4.25c1.172 0 2.125.95 2.125 2.125ZM47.481 56.691a2.128 2.128 0 1 1-4.254 0 2.128 2.128 0 0 1 4.254 0ZM53.15 0a2.125 2.125 0 1 1-4.25 0 2.125 2.125 0 0 1 4.25 0ZM53.15 5.668a2.126 2.126 0 1 1-4.25 0 2.125 2.125 0 1 1 4.25 0ZM53.15 11.34a2.125 2.125 0 1 1-4.25 0 2.126 2.126 0 1 1 4.25 0ZM53.15 17.008a2.125 2.125 0 1 1-4.25 0 2.125 2.125 0 0 1 4.25 0ZM53.15 22.676a2.126 2.126 0 1 1-4.25 0 2.125 2.125 0 1 1 4.25 0ZM53.15 28.348a2.125 2.125 0 1 1-4.25 0 2.126 2.126 0 1 1 4.25 0ZM53.15 34.016a2.125 2.125 0 1 1-4.25 0 2.125 2.125 0 0 1 4.25 0ZM53.15 39.684a2.126 2.126 0 1 1-4.25 0 2.125 2.125 0 1 1 4.25 0ZM53.15 45.355a2.125 2.125 0 1 1-4.25 0 2.126 2.126 0 1 1 4.25 0ZM53.15 51.023a2.125 2.125 0 1 1-4.25 0 2.125 2.125 0 0 1 4.25 0ZM53.15 56.691a2.126 2.126 0 1 1-4.25 0 2.125 2.125 0 1 1 4.25 0ZM58.817 0a2.125 2.125 0 1 1-4.25 0 2.125 2.125 0 0 1 4.25 0ZM58.817 5.668a2.126 2.126 0 1 1-4.25 0 2.125 2.125 0 1 1 4.25 0ZM58.817 11.34a2.125 2.125 0 1 1-4.25 0 2.126 2.126 0 1 1 4.25 0ZM58.817 17.008a2.125 2.125 0 1 1-4.25 0 2.125 2.125 0 0 1 4.25 0ZM58.817 22.676a2.126 2.126 0 1 1-4.25 0 2.125 2.125 0 1 1 4.25 0ZM58.817 28.348a2.125 2.125 0 1 1-4.25 0 2.126 2.126 0 1 1 4.25 0ZM58.817 34.016a2.125 2.125 0 1 1-4.25 0 2.125 2.125 0 0 1 4.25 0ZM58.817 39.684a2.126 2.126 0 1 1-4.25 0 2.125 2.125 0 1 1 4.25 0ZM58.817 45.355a2.125 2.125 0 1 1-4.25 0 2.126 2.126 0 1 1 4.25 0ZM58.817 51.023a2.125 2.125 0 1 1-4.25 0 2.125 2.125 0 0 1 4.25 0ZM58.817 56.691a2.126 2.126 0 1 1-4.25 0 2.125 2.125 0 1 1 4.25 0Zm0 0" transform="matrix(1 0 0 -1 7.472 80.664)"/><g style="fill:#000;fill-opacity:1"><use xlink:href="#i" x="21.655" y="13.555"/><use xlink:href="#e" x="27.681" y="13.555"/><use xlink:href="#j" x="33.105" y="13.555"/><use xlink:href="#g" x="36.12" y="13.555"/><use xlink:href="#k" x="39.136" y="13.555"/><use xlink:href="#h" x="45.162" y="13.555"/></g><path style="fill-rule:nonzero;fill:gray;fill-opacity:1;stroke-width:.3985;stroke-linecap:butt;stroke-linejoin:miter;stroke:#000;stroke-opacity:1;stroke-miterlimit:10" d="M64.876 1.184a2.125 2.125 0 0 1-2.125 2.125 2.126 2.126 0 1 1 0-4.25c1.172 0 2.125.953 2.125 2.125ZM65.22 6.25a2.125 2.125 0 1 1-4.25 0 2.125 2.125 0 0 1 4.25 0ZM65.696 10.91a2.127 2.127 0 0 1-4.254 0c0-1.176.953-2.125 2.129-2.125 1.172 0 2.125.95 2.125 2.125ZM64.262 17.07c0 1.176-.949 2.125-2.125 2.125a2.122 2.122 0 0 1-2.125-2.125c0-1.176.95-2.125 2.125-2.125 1.176 0 2.125.95 2.125 2.125ZM65.415 23.414a2.125 2.125 0 1 1-4.25 0 2.126 2.126 0 1 1 4.25 0Zm0 0" transform="matrix(1 0 0 -1 7.472 80.664)"/><path style="fill-rule:nonzero;fill:gray;fill-opacity:1;stroke-width:.3985;stroke-linecap:butt;stroke-linejoin:miter;stroke:#000;stroke-opacity:1;stroke-miterlimit:10" d="M65.813 27.559a2.128 2.128 0 0 1-4.254 0c0-1.176.953-2.125 2.125-2.125 1.176 0 2.13.949 2.13 2.125ZM64.278 34.777a2.125 2.125 0 1 1-4.25 0 2.126 2.126 0 1 1 4.25 0Zm0 0" transform="matrix(1 0 0 -1 7.472 80.664)"/><path style="fill-rule:nonzero;fill:gray;fill-opacity:1;stroke-width:.3985;stroke-linecap:butt;stroke-linejoin:miter;stroke:#000;stroke-opacity:1;stroke-miterlimit:10" d="M63.508 38.68a2.128 2.128 0 0 1-4.253 0c0-1.176.953-2.125 2.125-2.125 1.175 0 2.128.949 2.128 2.125ZM64.657 45.422a2.125 2.125 0 1 1-4.25 0 2.125 2.125 0 0 1 4.25 0ZM63.098 52.258a2.125 2.125 0 1 1-4.25 0 2.125 2.125 0 0 1 4.25 0Zm0 0" transform="matrix(1 0 0 -1 7.472 80.664)"/><path style="fill-rule:nonzero;fill:gray;fill-opacity:1;stroke-width:.3985;stroke-linecap:butt;stroke-linejoin:miter;stroke:#000;stroke-opacity:1;stroke-miterlimit:10" d="M65.454 55.898a2.126 2.126 0 0 1-2.13 2.125 2.125 2.125 0 1 1 0-4.25c1.177 0 2.13.953 2.13 2.125ZM71.133 1.273a2.125 2.125 0 1 1-4.249 0 2.125 2.125 0 0 1 4.25 0Zm0 0" transform="matrix(1 0 0 -1 7.472 80.664)"/><path style="fill-rule:nonzero;fill:gray;fill-opacity:1;stroke-width:.3985;stroke-linecap:butt;stroke-linejoin:miter;stroke:#000;stroke-opacity:1;stroke-miterlimit:10" d="M69.626 4.34a2.128 2.128 0 0 1-4.254 0c0-1.176.953-2.125 2.125-2.125 1.176 0 2.129.949 2.129 2.125ZM71.282 10.262a2.126 2.126 0 1 1-4.25 0 2.125 2.125 0 1 1 4.25 0ZM70.602 16.23a2.125 2.125 0 1 1-4.25.001 2.125 2.125 0 0 1 4.25 0ZM70.239 21.64a2.125 2.125 0 0 1-2.125 2.126 2.126 2.126 0 1 1 0-4.25c1.172 0 2.125.949 2.125 2.125ZM68.934 28.574a2.125 2.125 0 1 1-4.25 0 2.125 2.125 0 0 1 4.25 0ZM69.087 33.766a2.126 2.126 0 0 1-2.13 2.125 2.125 2.125 0 1 1 0-4.25c1.176 0 2.13.953 2.13 2.125ZM70.243 39.742a2.126 2.126 0 1 1-4.25 0 2.125 2.125 0 1 1 4.25 0ZM70.75 46.367a2.125 2.125 0 1 1-4.249 0 2.125 2.125 0 0 1 4.25 0ZM70.434 52.129a2.126 2.126 0 1 1-4.25 0 2.125 2.125 0 1 1 4.25 0ZM68.895 57.094a2.126 2.126 0 0 1-2.129 2.125 2.125 2.125 0 1 1 0-4.25c1.176 0 2.13.953 2.13 2.125ZM75.2 1.277a2.126 2.126 0 0 1-2.129 2.125 2.125 2.125 0 1 1 0-4.25c1.176 0 2.129.953 2.129 2.125Zm0 0" transform="matrix(1 0 0 -1 7.472 80.664)"/><path style="fill-rule:nonzero;fill:gray;fill-opacity:1;stroke-width:.3985;stroke-linecap:butt;stroke-linejoin:miter;stroke:#000;stroke-opacity:1;stroke-miterlimit:10" d="M75.333 5.629a2.126 2.126 0 1 1-4.25 0 2.125 2.125 0 1 1 4.25 0ZM74.946 10.543a2.128 2.128 0 1 1-4.254 0 2.128 2.128 0 0 1 4.254 0ZM74.571 16.414a2.128 2.128 0 0 1-4.254 0c0-1.176.953-2.125 2.125-2.125 1.176 0 2.129.95 2.129 2.125ZM76.352 22.762a2.127 2.127 0 1 1-4.254-.005 2.127 2.127 0 0 1 4.254.005ZM76.016 27.73a2.125 2.125 0 1 1-4.25.001 2.125 2.125 0 0 1 4.25 0ZM75.102 34.414a2.125 2.125 0 1 1-4.25 0 2.125 2.125 0 0 1 4.25 0ZM74.59 39.23a2.125 2.125 0 1 1-4.249.001 2.125 2.125 0 0 1 4.25 0ZM75.966 44.715a2.128 2.128 0 0 1-4.254 0 2.128 2.128 0 1 1 4.254 0ZM76.532 51.46a2.125 2.125 0 0 1-2.125 2.126 2.126 2.126 0 1 1 0-4.25c1.172 0 2.125.95 2.125 2.125ZM75.032 57.289a2.125 2.125 0 1 1-4.25 0 2.125 2.125 0 0 1 4.25 0ZM81.77.543a2.125 2.125 0 1 1-4.25 0 2.125 2.125 0 0 1 4.25 0ZM81.094 5.976a2.128 2.128 0 1 1-4.253 0 2.128 2.128 0 0 1 4.253 0ZM81.598 10.648a2.125 2.125 0 1 1-4.25 0 2.125 2.125 0 0 1 4.25 0ZM80.423 16.172a2.125 2.125 0 1 1-4.25 0 2.126 2.126 0 1 1 4.25 0ZM82.739 22.125c0 1.176-.95 2.125-2.125 2.125a2.122 2.122 0 0 1-2.125-2.125c0-1.176.95-2.125 2.125-2.125 1.176 0 2.125.95 2.125 2.125ZM82.844 28.273a2.128 2.128 0 0 1-4.253 0 2.128 2.128 0 1 1 4.253 0ZM82.489 35.148a2.128 2.128 0 0 1-4.254 0c0-1.175.953-2.125 2.125-2.125 1.176 0 2.129.95 2.129 2.125ZM80.31 40.297a2.126 2.126 0 0 1-2.13 2.125 2.125 2.125 0 1 1 0-4.25c1.176 0 2.13.953 2.13 2.125ZM80.75 45.465a2.126 2.126 0 1 1-4.25 0 2.125 2.125 0 1 1 4.25 0Zm0 0" transform="matrix(1 0 0 -1 7.472 80.664)"/><path style="fill-rule:nonzero;fill:gray;fill-opacity:1;stroke-width:.3985;stroke-linecap:butt;stroke-linejoin:miter;stroke:#000;stroke-opacity:1;stroke-miterlimit:10" d="M81.239 49.695c0 1.176-.95 2.125-2.125 2.125a2.125 2.125 0 1 1 2.125-2.125ZM82.555 56.805a2.127 2.127 0 0 1-4.254 0c0-1.176.954-2.125 2.13-2.125 1.171 0 2.124.949 2.124 2.125ZM86.094.457a2.128 2.128 0 0 1-4.253 0 2.128 2.128 0 1 1 4.253 0ZM86.532 5.898a2.125 2.125 0 1 1-4.25 0 2.125 2.125 0 0 1 4.25 0ZM88.477 11.434a2.127 2.127 0 1 1-4.254-.005 2.127 2.127 0 0 1 4.254.005ZM86.856 16.758a2.125 2.125 0 0 1-2.125 2.125 2.126 2.126 0 1 1 0-4.25c1.172 0 2.125.953 2.125 2.125ZM86.59 23.973a2.125 2.125 0 0 1-2.124 2.125 2.126 2.126 0 1 1 0-4.25c1.171 0 2.125.949 2.125 2.125Zm0 0" transform="matrix(1 0 0 -1 7.472 80.664)"/><path style="fill-rule:nonzero;fill:gray;fill-opacity:1;stroke-width:.3985;stroke-linecap:butt;stroke-linejoin:miter;stroke:#000;stroke-opacity:1;stroke-miterlimit:10" d="M88.29 28.07a2.125 2.125 0 1 1-4.25 0 2.126 2.126 0 1 1 4.25 0ZM88.09 33.7a2.125 2.125 0 1 1-4.249 0 2.125 2.125 0 0 1 4.25 0ZM87.454 38.332a2.126 2.126 0 0 1-2.13 2.125 2.125 2.125 0 1 1 0-4.25c1.177 0 2.13.95 2.13 2.125ZM87.575 43.95a2.128 2.128 0 0 1-4.254 0c0-1.177.953-2.126 2.125-2.126 1.176 0 2.129.95 2.129 2.125ZM87.329 51.316a2.125 2.125 0 1 1-4.25 0 2.125 2.125 0 0 1 4.25 0ZM86.946 57.504a2.126 2.126 0 0 1-2.129 2.125 2.125 2.125 0 1 1 0-4.25c1.176 0 2.129.953 2.129 2.125ZM91.989.336c0 1.176-.95 2.125-2.125 2.125A2.122 2.122 0 0 1 87.739.336c0-1.176.95-2.125 2.125-2.125 1.176 0 2.125.95 2.125 2.125ZM92.118 6.812a2.128 2.128 0 1 1-4.254 0 2.128 2.128 0 0 1 4.254 0Zm0 0" transform="matrix(1 0 0 -1 7.472 80.664)"/><path style="fill-rule:nonzero;fill:gray;fill-opacity:1;stroke-width:.3985;stroke-linecap:butt;stroke-linejoin:miter;stroke:#000;stroke-opacity:1;stroke-miterlimit:10" d="M91.669 10.914a2.128 2.128 0 1 1-4.254 0 2.128 2.128 0 0 1 4.254 0ZM91.774 17.36a2.128 2.128 0 0 1-4.254 0 2.128 2.128 0 1 1 4.254 0ZM91.731 23.371a2.125 2.125 0 0 1-2.125 2.125 2.126 2.126 0 1 1 0-4.25c1.172 0 2.125.95 2.125 2.125ZM92.528 29.223a2.125 2.125 0 1 1-4.25 0 2.125 2.125 0 0 1 4.25 0ZM94.118 34.414a2.126 2.126 0 1 1-4.25 0 2.125 2.125 0 1 1 4.25 0Zm0 0" transform="matrix(1 0 0 -1 7.472 80.664)"/><path style="fill-rule:nonzero;fill:gray;fill-opacity:1;stroke-width:.3985;stroke-linecap:butt;stroke-linejoin:miter;stroke:#000;stroke-opacity:1;stroke-miterlimit:10" d="M93.466 38.836a2.127 2.127 0 0 1-4.254 0c0-1.176.953-2.125 2.129-2.125 1.171 0 2.125.95 2.125 2.125ZM93.005 45.727a2.125 2.125 0 1 1-4.25 0 2.125 2.125 0 0 1 4.25 0ZM94.102 50.238a2.125 2.125 0 1 1-4.25 0 2.126 2.126 0 1 1 4.25 0ZM93.934 57.855a2.125 2.125 0 1 1-4.25.001 2.125 2.125 0 0 1 4.25 0ZM98.864-.5a2.125 2.125 0 1 1-4.25 0 2.126 2.126 0 1 1 4.25 0ZM99.403 6.75a2.126 2.126 0 0 1-2.129 2.125 2.125 2.125 0 1 1 0-4.25c1.176 0 2.129.95 2.129 2.125ZM99.192 11.293a2.126 2.126 0 1 1-4.25 0 2.125 2.125 0 1 1 4.25 0ZM98.22 16.355a2.125 2.125 0 1 1-4.25 0 2.125 2.125 0 0 1 4.25 0ZM99.7 21.434a2.128 2.128 0 0 1-4.254 0 2.128 2.128 0 1 1 4.254 0ZM97.157 28.434c0 1.175-.95 2.125-2.125 2.125a2.125 2.125 0 1 1 2.125-2.125ZM99.747 35.094a2.125 2.125 0 1 1-4.25 0 2.125 2.125 0 0 1 4.25 0ZM98.27 40.027a2.128 2.128 0 1 1-4.254 0 2.128 2.128 0 0 1 4.254 0ZM97.669 46.746a2.125 2.125 0 0 1-2.125 2.125 2.126 2.126 0 1 1 0-4.25c1.172 0 2.125.953 2.125 2.125Zm0 0" transform="matrix(1 0 0 -1 7.472 80.664)"/><path style="fill-rule:nonzero;fill:gray;fill-opacity:1;stroke-width:.3985;stroke-linecap:butt;stroke-linejoin:miter;stroke:#000;stroke-opacity:1;stroke-miterlimit:10" d="M98.958 50.523a2.125 2.125 0 1 1-4.25 0 2.126 2.126 0 1 1 4.25 0ZM98.63 56.55a2.127 2.127 0 0 1-4.254 0c0-1.175.953-2.124 2.129-2.124 1.171 0 2.125.949 2.125 2.125ZM104.93-1.363a2.126 2.126 0 1 1-4.25 0 2.125 2.125 0 1 1 4.25 0ZM104.637 5.559a2.127 2.127 0 1 1-4.254-.005 2.127 2.127 0 0 1 4.254.005ZM102.934 10.652a2.125 2.125 0 1 1-4.25 0 2.125 2.125 0 0 1 4.25 0ZM104.079 17.234a2.125 2.125 0 1 1-4.25 0 2.126 2.126 0 1 1 4.25 0Zm0 0" transform="matrix(1 0 0 -1 7.472 80.664)"/><path style="fill-rule:nonzero;fill:gray;fill-opacity:1;stroke-width:.3985;stroke-linecap:butt;stroke-linejoin:miter;stroke:#000;stroke-opacity:1;stroke-miterlimit:10" d="M104.157 21.484a2.128 2.128 0 0 1-4.254 0c0-1.175.953-2.125 2.125-2.125 1.176 0 2.129.95 2.129 2.125ZM103.344 27.91a2.128 2.128 0 1 1-4.253 0 2.128 2.128 0 0 1 4.253 0ZM105.094 32.914a2.126 2.126 0 1 1-4.25 0 2.125 2.125 0 1 1 4.25 0ZM104.712 39.586a2.128 2.128 0 1 1-2.129-2.125c1.175 0 2.129.953 2.129 2.125ZM103.426 45.312a2.125 2.125 0 1 1-4.249.001 2.125 2.125 0 0 1 4.25 0ZM105.383 52.02a2.128 2.128 0 1 1-4.253 0 2.128 2.128 0 0 1 4.253 0ZM103.262 58.031a2.128 2.128 0 0 1-4.254 0c0-1.176.954-2.125 2.125-2.125 1.176 0 2.13.95 2.13 2.125ZM109.801-1.184a2.126 2.126 0 1 1-4.25 0 2.125 2.125 0 1 1 4.25 0ZM108.5 4.875a2.128 2.128 0 1 1-2.129-2.125c1.177 0 2.13.953 2.13 2.125ZM110.286 12.187a2.126 2.126 0 0 1-2.13 2.125 2.125 2.125 0 1 1 0-4.25c1.177 0 2.13.954 2.13 2.125ZM109.286 16.82a2.128 2.128 0 0 1-4.254 0 2.128 2.128 0 1 1 4.254 0ZM110.485 21.691a2.125 2.125 0 1 1-4.25 0 2.126 2.126 0 1 1 4.25 0ZM109.91 27.324a2.126 2.126 0 1 1-4.25 0 2.125 2.125 0 1 1 4.25 0ZM110.364 35.086a2.125 2.125 0 1 1-4.25 0 2.126 2.126 0 1 1 4.25 0ZM109.673 40.937a2.125 2.125 0 1 1-4.25 0 2.125 2.125 0 0 1 4.25 0ZM110.926 46.68a2.125 2.125 0 1 1-4.249 0 2.125 2.125 0 0 1 4.25 0ZM110.005 51.422a2.125 2.125 0 1 1-4.25 0 2.126 2.126 0 1 1 4.25 0ZM109.977 58.082a2.128 2.128 0 0 1-4.254 0 2.128 2.128 0 1 1 4.254 0ZM115.848-.074a2.125 2.125 0 1 1-4.25 0 2.125 2.125 0 0 1 4.25 0ZM115.235 5.336a2.125 2.125 0 1 1-4.25 0 2.125 2.125 0 0 1 4.25 0ZM116.446 11.105a2.125 2.125 0 1 1-4.25.001 2.125 2.125 0 0 1 4.25 0ZM114.153 18.035a2.126 2.126 0 1 1-4.25 0 2.125 2.125 0 1 1 4.25 0Zm0 0" transform="matrix(1 0 0 -1 7.472 80.664)"/><path style="fill-rule:nonzero;fill:gray;fill-opacity:1;stroke-width:.3985;stroke-linecap:butt;stroke-linejoin:miter;stroke:#000;stroke-opacity:1;stroke-miterlimit:10" d="M115.18 21.98a2.128 2.128 0 0 1-4.254 0c0-1.175.954-2.125 2.125-2.125 1.176 0 2.13.95 2.13 2.125ZM116.798 28a2.125 2.125 0 1 1-4.25 0 2.125 2.125 0 0 1 4.25 0ZM115.587 33.723a2.125 2.125 0 1 1-4.25 0 2.125 2.125 0 0 1 4.25 0ZM116.704 40.039a2.125 2.125 0 1 1-4.25 0 2.125 2.125 0 0 1 4.25 0ZM116.528 46.746a2.125 2.125 0 1 1-4.25 0 2.126 2.126 0 1 1 4.25 0ZM115.895 51.383a2.125 2.125 0 1 1-4.25 0 2.125 2.125 0 0 1 4.25 0ZM116.723 57.504a2.126 2.126 0 0 1-2.129 2.125 2.125 2.125 0 1 1 0-4.25c1.176 0 2.13.95 2.13 2.125Zm0 0" transform="matrix(1 0 0 -1 7.472 80.664)"/><g style="fill:#000;fill-opacity:1"><use xlink:href="#l" x="74.809" y="12.495"/><use xlink:href="#g" x="81.586" y="12.495"/><use xlink:href="#m" x="84.601" y="12.495"/><use xlink:href="#n" x="90.326" y="12.495"/><use xlink:href="#g" x="96.352" y="12.495"/><use xlink:href="#k" x="99.368" y="12.495"/><use xlink:href="#h" x="105.394" y="12.495"/></g><path style="fill-rule:nonzero;fill:gray;fill-opacity:1;stroke-width:.3985;stroke-linecap:butt;stroke-linejoin:miter;stroke:#000;stroke-opacity:1;stroke-miterlimit:10" d="M121.434 15.344a2.128 2.128 0 1 1-2.129-2.125c1.176 0 2.13.953 2.13 2.125ZM128.548 36.77a2.125 2.125 0 1 1-4.25 0 2.126 2.126 0 1 1 4.25 0ZM104.626 54.453a2.128 2.128 0 0 1-4.254 0c0-1.176.953-2.125 2.125-2.125 1.176 0 2.129.95 2.129 2.125ZM105.426 49.16c0 1.176-.949 2.125-2.125 2.125a2.125 2.125 0 1 1 2.125-2.125ZM161.087 22.703a2.128 2.128 0 1 1-4.254 0 2.128 2.128 0 0 1 4.254 0Zm0 0" transform="matrix(1 0 0 -1 7.472 80.664)"/><path style="fill-rule:nonzero;fill:gray;fill-opacity:1;stroke-width:.3985;stroke-linecap:butt;stroke-linejoin:miter;stroke:#000;stroke-opacity:1;stroke-miterlimit:10" d="M158.965 22.09a2.125 2.125 0 0 1-2.125 2.125 2.126 2.126 0 1 1 0-4.25c1.172 0 2.125.949 2.125 2.125ZM140.919 28.137a2.128 2.128 0 1 1-2.129-2.125c1.175 0 2.129.953 2.129 2.125ZM151.344 54.723a2.125 2.125 0 1 1-4.249 0 2.125 2.125 0 0 1 4.25 0ZM167.169 23.406a2.126 2.126 0 0 1-2.13 2.125 2.125 2.125 0 1 1 0-4.25c1.177 0 2.13.953 2.13 2.125ZM174.852 45.887a2.126 2.126 0 1 1-4.25 0 2.125 2.125 0 1 1 4.25 0ZM181.223 31.293a2.126 2.126 0 1 1-4.25 0 2.125 2.125 0 1 1 4.25 0ZM172.305 67.297a2.126 2.126 0 0 1-2.129 2.125 2.125 2.125 0 1 1 0-4.25c1.176 0 2.13.953 2.13 2.125ZM196.141 1.64a2.127 2.127 0 1 1-4.254-.004 2.127 2.127 0 0 1 4.254.005ZM200.09 11.742a2.128 2.128 0 1 1-2.129-2.125c1.176 0 2.13.953 2.13 2.125ZM196.02 65.012a2.125 2.125 0 1 1-4.25 0 2.126 2.126 0 1 1 4.25 0ZM172.262 58.805a2.125 2.125 0 1 1-4.25 0 2.126 2.126 0 1 1 4.25 0Zm0 0" transform="matrix(1 0 0 -1 7.472 80.664)"/><g style="fill:#000;fill-opacity:1"><use xlink:href="#o" x="139.827" y="13.555"/><use xlink:href="#p" x="148.336" y="13.555"/><use xlink:href="#q" x="153.76" y="13.555"/></g></svg>