<svg xmlns="http://www.w3.org/2000/svg" xmlns:xlink="http://www.w3.org/1999/xlink" width="137.784" height="170.343" viewBox="0 0 103.338 127.757"><defs><symbol overflow="visible" id="b"><path style="stroke:none" d="M.328-6.813v.297h.156c.36 0 .625.047.625.532v5.25c0 .375-.265.421-.546.421H.328v.297h2.219v-.296h-.25c-.281 0-.516-.047-.516-.438v-6.172Zm0 0"/></symbol><symbol overflow="visible" id="c"><path style="stroke:none" d="M.375-4.297v.313h.188c.28 0 .546.03.546.5v2.75c0 .359-.187.421-.78.421v.297h2.14v-.296h-.203c-.25 0-.485-.032-.485-.36v-3.734Zm.828-2.375a.523.523 0 0 0-.453.516c0 .297.25.531.531.531a.527.527 0 0 0 .532-.531.534.534 0 0 0-.532-.516h-.078Zm0 0"/></symbol><symbol overflow="visible" id="d"><path style="stroke:none" d="M1.188-.234v.015C.718-.125.28.312.28.781c0 .938 1.438 1.266 2.203 1.266.829 0 2.204-.297 2.204-1.328 0-.656-.454-1.094-1.047-1.266-.36-.11-.735-.125-1.11-.125h-.906c-.313-.031-.563-.344-.563-.656v-.063c0-.125.079-.39.172-.39.125.031.266.14.422.203.172.047.375.078.563.078.828 0 1.625-.61 1.625-1.453 0-.344-.14-.735-.422-.953v-.016c.281-.187.531-.375.89-.375.032 0 .063 0 .094.016a.262.262 0 0 0-.156.25c0 .156.14.297.297.297.172 0 .281-.141.281-.297a.487.487 0 0 0-.484-.485 1.5 1.5 0 0 0-.953.36.475.475 0 0 1-.11.078h-.015c-.063 0-.141-.078-.188-.11a1.8 1.8 0 0 0-.86-.218c-.78 0-1.624.547-1.624 1.453 0 .328.125.625.328.89.031.032.11.094.11.141 0 .047-.063.094-.079.14-.14.204-.203.454-.203.688 0 .313.14.719.438.86ZM.813.844V.75c0-.516.453-.828.984-.828h.781c.625 0 1.594.094 1.594.86 0 .718-1.078 1.03-1.688 1.03-.656 0-1.578-.296-1.671-.968Zm.53-3.594v-.125c0-.547.126-1.297.876-1.297.61 0 .86.578.86 1.219 0 .406-.079 1.219-.86 1.219-.25 0-.5-.125-.672-.344-.156-.188-.172-.438-.203-.672Zm0 0"/></symbol><symbol overflow="visible" id="e"><path style="stroke:none" d="M.313-4.297v.313h.156c.328 0 .625.03.625.5v2.75c0 .406-.282.421-.719.421H.312v.297h2.266v-.296h-.265c-.282 0-.516-.047-.516-.422v-1.813c0-.719.36-1.64 1.36-1.64.624 0 .687.687.687 1.109v2.39c0 .344-.281.375-.594.375h-.172v.297h2.25v-.296h-.25c-.266 0-.531-.047-.531-.391v-2.172c0-.328-.016-.672-.172-.969-.234-.437-.734-.562-1.188-.562-.609 0-1.25.422-1.437 1.015l-.016-1.015Zm0 0"/></symbol><symbol overflow="visible" id="f"><path style="stroke:none" d="M1.11-2.313h2.874c.11 0 .157-.062.157-.187 0-1.047-.641-1.969-1.766-1.969-1.219 0-2.094 1.094-2.094 2.282 0 .906.5 1.734 1.39 2.124.22.11.485.157.735.157h.031c.766 0 1.407-.422 1.672-1.188.016-.031.016-.078.016-.11 0-.062-.031-.109-.11-.109-.14 0-.202.329-.265.438a1.45 1.45 0 0 1-1.25.719c-.36 0-.688-.203-.953-.469-.406-.469-.438-1.11-.438-1.688Zm.015-.203c0-.78.406-1.734 1.234-1.734h.047c.969.094.969 1.125 1.063 1.734Zm0 0"/></symbol><symbol overflow="visible" id="g"><path style="stroke:none" d="M3.031-6.813v.297h.156c.344 0 .626.047.626.625l-.016 2.094c-.235-.406-.813-.61-1.266-.61C1.312-4.406.328-3.343.328-2.14c0 1.063.813 2.235 2.14 2.235.516 0 .985-.25 1.313-.64v.64l1.469-.11v-.296h-.172c-.297 0-.61-.032-.61-.5v-6.11Zm-1.86 4.907v-.14c0-.75.079-1.485.766-1.954.204-.11.438-.188.672-.188.485 0 1.172.407 1.172 1.032v2.047a.465.465 0 0 1-.125.312c-.25.39-.687.672-1.156.672-.719 0-1.188-.656-1.297-1.344-.016-.14-.016-.297-.031-.437Zm0 0"/></symbol><symbol overflow="visible" id="h"><path style="stroke:none" d="M1.828-6.078v.281a2.308 2.308 0 0 1-.703 1.578c-.031.047-.11.094-.11.157v.03c0 .048.079.079.094.079.157 0 .422-.36.547-.547.235-.39.407-.875.407-1.36 0-.39-.126-1.015-.61-1.062-.375 0-.594.188-.594.516 0 .312.22.531.532.531a.554.554 0 0 0 .437-.203Zm0 0"/></symbol><symbol overflow="visible" id="i"><path style="stroke:none" d="M1.11-2.313h2.874c.11 0 .157-.062.157-.187 0-1.047-.641-1.969-1.766-1.969-1.219 0-2.094 1.094-2.094 2.282 0 .906.5 1.734 1.39 2.124.22.11.485.157.735.157h.031c.766 0 1.407-.422 1.672-1.188.016-.031.016-.078.016-.11 0-.062-.031-.109-.11-.109-.14 0-.202.329-.265.438a1.45 1.45 0 0 1-1.25.719c-.36 0-.688-.203-.953-.469-.406-.469-.438-1.11-.438-1.688Zm.015-.203c0-.78.406-1.734 1.234-1.734h.047c.969.094.969 1.125 1.063 1.734Zm.328-2.375c.234-.109.484-.265.734-.406l.516-.297c.172-.093.438-.187.438-.437a.403.403 0 0 0-.375-.375H2.75c-.172.015-.281.172-.39.281-.282.266-1.047.938-1.047 1.047 0 .078.093.156.14.187Zm0 0"/></symbol><symbol overflow="visible" id="j"><path style="stroke:none" d="M3.578-3.86c-.265.016-.469.188-.469.454 0 .281.188.469.454.469.312 0 .468-.22.468-.5V-3.5c-.11-.734-.953-.969-1.531-.969-1.219 0-2.172 1.063-2.172 2.313 0 1.125.875 2.25 2.172 2.25.656 0 1.297-.36 1.563-1.047.03-.063.078-.156.078-.219 0-.078-.047-.125-.125-.125-.141 0-.235.375-.313.516a1.3 1.3 0 0 1-1.094.625C1.547-.156 1.22-1.22 1.172-2v-.125c0-.797.187-1.984 1.281-2.094h.078c.375 0 .766.11 1.047.36Zm0 0"/></symbol><symbol overflow="visible" id="k"><path style="stroke:none" d="M2.344-4.469C1.094-4.344.28-3.28.28-2.125.281-1 1.171.094 2.5.094c1.188 0 2.188-.969 2.188-2.235 0-1.171-.891-2.328-2.22-2.328h-.124ZM1.109-1.89v-.437c0-.766.25-1.922 1.375-1.922.813 0 1.266.688 1.36 1.438.015.218.015.437.015.656 0 .64-.078 1.453-.703 1.812-.203.14-.422.188-.656.188-.719 0-1.234-.563-1.344-1.344-.015-.125-.015-.266-.047-.39Zm0 0"/></symbol><symbol overflow="visible" id="l"><path style="stroke:none" d="M.313-4.297v.313h.14c.281 0 .578.015.64.312v2.313c0 .328.016.625.188.921.282.422.844.547 1.313.547.453 0 .86-.203 1.11-.562.062-.11.14-.203.171-.328v.875l1.453-.11v-.296h-.156c-.328 0-.625-.032-.625-.485v-3.61l-1.469.11v.313h.14c.329 0 .626.03.626.5v1.796c0 .735-.375 1.563-1.203 1.563-.563 0-.844-.14-.844-1.203v-3.078Zm0 0"/></symbol><symbol overflow="visible" id="m"><path style="stroke:none" d="M.313-4.297v.313h.156c.328 0 .625.03.625.5v2.75c0 .406-.282.421-.719.421H.312v.297h2.266v-.296h-.265c-.282 0-.516-.047-.516-.422v-1.813c0-.734.39-1.64 1.36-1.64.624 0 .702.656.702 1.109v2.375c0 .36-.296.39-.625.39h-.156v.297h2.25v-.296h-.25c-.281 0-.516-.047-.516-.422v-1.813c0-.734.391-1.64 1.344-1.64.64 0 .719.656.719 1.109v2.375c0 .36-.313.39-.64.39h-.141v.297h2.25v-.296H7.89c-.297 0-.579-.032-.579-.391v-2.25c0-.36-.015-.703-.25-1.031-.265-.329-.687-.422-1.093-.422-.64 0-1.172.375-1.438.953-.187-.703-.64-.953-1.328-.953-.64 0-1.25.406-1.453 1.015l-.016-1.015Zm0 0"/></symbol><symbol overflow="visible" id="n"><path style="stroke:none" d="M1.484-6.14c0 .687-.28 1.937-1.312 1.937v.219h.86v2.562c0 .328.03.672.187.953.218.406.687.563 1.125.563.812 0 .969-.906.969-1.547v-.36h-.235v.454c0 .437-.094 1.203-.687 1.203-.563 0-.657-.688-.657-1.125v-2.703h1.422v-.313H1.734V-6.14Zm0 0"/></symbol><symbol overflow="visible" id="o"><path style="stroke:none" d="M.39-6.14v.28h.313c.313 0 .61.032.61.376 0 .062-.016.125-.016.171v4.375c0 .594-.516.657-.906.657v.265H2.5V-.28c-.422 0-.938-.078-.938-.672 0-.094.016-.172.016-.25l.016-4.578c.047.187.125.375.203.547.531 1.28 1.031 2.593 1.547 3.89L3.75-.312c.047.109.078.296.234.296.157 0 .188-.203.235-.312.64-1.64 1.297-3.297 1.953-4.922.078-.188.172-.39.234-.594v5.14c0 .376-.281.423-.562.423H5.5v.265h2.547V-.28h-.344c-.281 0-.562-.031-.562-.406V-5.47c0-.343.296-.39.593-.39h.313v-.282H6.5l-.172.032-.094.14L4.22-.89c-.063-.14-.11-.296-.172-.453l-.375-.937c-.453-1.14-.906-2.297-1.36-3.438l-.093-.234c-.078-.14-.125-.188-.281-.188Zm0 0"/></symbol><symbol overflow="visible" id="p"><path style="stroke:none" d="M6.047-2.047c.172 0 .344 0 .344-.203 0-.188-.188-.188-.344-.188H1.109c-.156 0-.343 0-.343.188 0 .203.171.203.343.203Zm0 0"/></symbol><symbol overflow="visible" id="q"><path style="stroke:none" d="M7.625-2.047c-1.063.75-1.281 1.938-1.281 2.031 0 .125.125.125.187.125.11 0 .172 0 .203-.125.25-1.046.86-1.75 1.844-2.109.047-.016.125-.047.125-.125s-.062-.094-.125-.125c-1.125-.422-1.64-1.219-1.844-2.094-.03-.125-.062-.125-.203-.125-.078 0-.187 0-.187.125 0 .094.218 1.282 1.281 2.032H.844c-.156 0-.328 0-.328.187 0 .203.171.203.328.203Zm0 0"/></symbol><symbol overflow="visible" id="r"><path style="stroke:none" d="M4.313-3.313c0-.624-.329-.656-.407-.656-.234 0-.469.235-.469.438 0 .14.094.219.157.265.234.22.312.516.312.75 0 .391-.562 2.391-1.594 2.391-.687 0-.687-.625-.687-.797 0-.375.14-.844.453-1.656.14-.375.172-.469.172-.625a.739.739 0 0 0-.766-.766c-.859 0-1.218 1.281-1.218 1.39 0 .079.062.11.125.11.093 0 .109-.062.14-.172.188-.656.547-1.093.922-1.093.172 0 .219.109.219.296 0 .141-.047.313-.125.516-.313.875-.531 1.438-.531 1.89 0 .845.64 1.126 1.25 1.126 1.515 0 2.046-2.828 2.046-3.406Zm0 0"/></symbol><symbol overflow="visible" id="t"><path style="stroke:none" d="M1.625-.14c0 .296 0 1.03-.656 1.671-.047.047-.047.063-.047.094 0 .063.062.11.11.11.093 0 .827-.704.827-1.75 0-.563-.203-.954-.578-.954a.467.467 0 0 0-.484.485c0 .25.172.484.484.484a.46.46 0 0 0 .344-.14Zm0 0"/></symbol><symbol overflow="visible" id="u"><path style="stroke:none" d="M1.906-3.594h.86c.156 0 .265 0 .265-.156 0-.11-.094-.11-.25-.11h-.797l.36-1.5c0-.14-.11-.25-.266-.25-.297 0-.36.25-.39.344l-.344 1.407H.5c-.172 0-.281 0-.281.156 0 .11.093.11.25.11h.812L.656-1.142c-.062.266-.062.282-.062.407 0 .53.406.828.875.828.922 0 1.453-1.282 1.453-1.375 0-.047-.031-.11-.11-.11-.093 0-.109.032-.171.188-.266.64-.72 1.078-1.157 1.078-.187 0-.296-.11-.296-.406 0-.203.03-.313.062-.453Zm0 0"/></symbol><symbol overflow="visible" id="s"><path style="stroke:none" d="M3.063 2.14c0-.046-.032-.078-.079-.14C1.828.937 1.47-.672 1.47-2.25c0-1.375.265-3.063 1.531-4.266.047-.046.063-.062.063-.109a.107.107 0 0 0-.11-.11c-.11 0-.922.657-1.406 1.626-.422.859-.64 1.796-.64 2.859 0 .64.077 1.672.577 2.719.532 1.11 1.36 1.765 1.47 1.765.062 0 .108-.03.108-.093Zm0 0"/></symbol><symbol overflow="visible" id="v"><path style="stroke:none" d="M2.672-2.25c0-.734-.11-1.719-.578-2.719C1.563-6.079.734-6.734.625-6.734c-.094 0-.11.078-.11.109 0 .047.016.063.079.125.531.469 1.515 1.688 1.515 4.25C2.11-.969 1.875.813.58 2.031c-.016.016-.063.063-.063.11 0 .015.015.093.109.093.11 0 .922-.64 1.406-1.625.422-.859.64-1.78.64-2.859Zm0 0"/></symbol><clipPath id="a"><path d="M2 5h101.34v119H2Zm0 0"/></clipPath><clipPath id="w"><path d="M0 116h14v11.758H0Zm0 0"/></clipPath><clipPath id="x"><path d="M21 115h15v12.758H21Zm0 0"/></clipPath><clipPath id="y"><path d="M42 115h17v12.758H42Zm0 0"/></clipPath><clipPath id="z"><path d="M62 115h20v12.758H62Zm0 0"/></clipPath><clipPath id="A"><path d="M83 115h20.34v12.758H83Zm0 0"/></clipPath><clipPath id="B"><path d="M83 90h20.34v16H83Zm0 0"/></clipPath><clipPath id="C"><path d="M82 65h21.34v18H82Zm0 0"/></clipPath><clipPath id="D"><path d="M82 41h21.34v20H82Zm0 0"/></clipPath><clipPath id="E"><path d="M82 16h21.34v22H82Zm0 0"/></clipPath></defs><g clip-path="url(#a)"><path style="fill:none;stroke-width:.3985;stroke-linecap:butt;stroke-linejoin:miter;stroke:red;stroke-opacity:1;stroke-miterlimit:10" d="m113.39 27.211-.919.223-.914.226-.918.23-.914.231-.918.238-.914.239-.918.246-.914.25-.918.254-.914.258-.918.261-.914.266-.918.273-.914.278-.918.28-.914.29-.918.29-.914.3-.918.305-.914.308-.918.317-.914.32-.914.328-.918.336-.914.34-.918.351-.914.356-.918.363-.914.371-.918.38-.914.386-.918.394-.914.407-.918.41-.914.425-.918.43-.914.442-.918.453-.915.465-.917.472-.915.485-.918.5-.914.507-.918.524-.914.535-.918.55-.914.563-.918.582-.914.59-.914.613-.918.625-.914.645-.918.664-.914.684-.918.699-.914.722-.918.747-.914.765-.918.79-.914.816-.918.84-.914.867-.918.898-.914.926-.918.957-.914.992-.918 1.027-.914 1.063-.918 1.102-.914 1.144-.918 1.184-.914 1.234-.918 1.281-.914 1.332-.918 1.387-.914 1.441-.918 1.508-.914 1.575-.914 1.64-.918 1.719-.914 1.797-.918 1.883-.914 1.972-.918 2.078-.914 2.18-.918 2.3-.914 2.427-.918 2.554-.914 2.707-.918 2.864-.914 3.043-.918 3.226-.914 3.442-.918 3.675-.914 3.926-.918 4.207-.915 4.527-.917 4.875-.575 3.301" transform="matrix(1 0 0 -1 -15.229 145.254)"/></g><path style="stroke:none;fill-rule:nonzero;fill:red;fill-opacity:1" d="m7.48 9.379-1.023 3.414 1.363-1.45 1.778.903M71.148 109.531l2.336 2.692-.496-1.93 1.715-1.016"/><g style="fill:red;fill-opacity:1"><use xlink:href="#b" x="9.472" y="11.843"/><use xlink:href="#c" x="12.239" y="11.843"/><use xlink:href="#d" x="15.005" y="11.843"/><use xlink:href="#e" x="19.986" y="11.843"/><use xlink:href="#f" x="25.519" y="11.843"/></g><g style="fill:red;fill-opacity:1"><use xlink:href="#g" x="33.263" y="11.843"/><use xlink:href="#h" x="38.796" y="11.843"/><use xlink:href="#i" x="41.563" y="11.843"/><use xlink:href="#j" x="45.989" y="11.843"/><use xlink:href="#k" x="50.415" y="11.843"/><use xlink:href="#l" x="55.396" y="11.843"/><use xlink:href="#b" x="60.929" y="11.843"/><use xlink:href="#f" x="63.695" y="11.843"/></g><g style="fill:red;fill-opacity:1"><use xlink:href="#m" x="68.132" y="11.843"/><use xlink:href="#f" x="76.432" y="11.843"/><use xlink:href="#e" x="80.858" y="11.843"/></g><use xlink:href="#n" x="86.112" y="11.843" style="fill:red;fill-opacity:1"/><path style="fill-rule:nonzero;fill:#000;fill-opacity:1;stroke-width:.3985;stroke-linecap:butt;stroke-linejoin:miter;stroke:#000;stroke-opacity:1;stroke-miterlimit:10" d="M46.15 68.031a.798.798 0 1 1-1.592-.002.798.798 0 0 1 1.593.002Zm0 0" transform="matrix(1 0 0 -1 -15.229 145.254)"/><use xlink:href="#o" x="19.689" y="85.39" style="fill:#000;fill-opacity:1"/><use xlink:href="#p" x="27.583" y="62.324" style="fill:#000;fill-opacity:1"/><use xlink:href="#q" x="27.587" y="62.324" style="fill:#000;fill-opacity:1"/><use xlink:href="#r" x="29.792" y="66.185" style="fill:#000;fill-opacity:1"/><use xlink:href="#s" x="36.798" y="66.185" style="fill:#000;fill-opacity:1"/><use xlink:href="#o" x="40.382" y="66.185" style="fill:#000;fill-opacity:1"/><use xlink:href="#t" x="48.826" y="66.185" style="fill:#000;fill-opacity:1"/><use xlink:href="#u" x="52.919" y="66.185" style="fill:#000;fill-opacity:1"/><use xlink:href="#v" x="56.25" y="66.185" style="fill:#000;fill-opacity:1"/><g clip-path="url(#w)"><path style="fill:none;stroke-width:.3985;stroke-linecap:butt;stroke-linejoin:miter;stroke:#666;stroke-opacity:1;stroke-miterlimit:10" d="m22.678 22.676-.86.86" transform="matrix(1 0 0 -1 -15.229 145.254)"/></g><path style="stroke:none;fill-rule:nonzero;fill:#666;fill-opacity:1" d="m5.18 120.309 1.129 3.382.28-1.972 1.973-.281"/><path style="fill:none;stroke-width:.3985;stroke-linecap:butt;stroke-linejoin:miter;stroke:#666;stroke-opacity:1;stroke-miterlimit:10" d="M22.678 45.356 21.3 48.109" transform="matrix(1 0 0 -1 -15.229 145.254)"/><path style="stroke:none;fill-rule:nonzero;fill:#666;fill-opacity:1" d="M5.18 95.363v3.563l.89-1.781 1.961.355"/><path style="fill:none;stroke-width:.3985;stroke-linecap:butt;stroke-linejoin:miter;stroke:#666;stroke-opacity:1;stroke-miterlimit:10" d="m22.678 68.031-1.637 4.914" transform="matrix(1 0 0 -1 -15.229 145.254)"/><path style="stroke:none;fill-rule:nonzero;fill:#666;fill-opacity:1" d="m5.18 70.418-.504 3.527 1.136-1.636 1.887.629"/><path style="fill:none;stroke-width:.3985;stroke-linecap:butt;stroke-linejoin:miter;stroke:#666;stroke-opacity:1;stroke-miterlimit:10" d="m22.678 90.711-1.785 7.137" transform="matrix(1 0 0 -1 -15.229 145.254)"/><path style="stroke:none;fill-rule:nonzero;fill:#666;fill-opacity:1" d="m5.18 45.473-.774 3.48 1.258-1.547 1.836.774"/><path style="fill:none;stroke-width:.3985;stroke-linecap:butt;stroke-linejoin:miter;stroke:#666;stroke-opacity:1;stroke-miterlimit:10" d="m22.678 113.387-1.879 9.387" transform="matrix(1 0 0 -1 -15.229 145.254)"/><path style="stroke:none;fill-rule:nonzero;fill:#666;fill-opacity:1" d="m5.18 20.527-.938 3.438L5.57 22.48l1.797.86"/><g clip-path="url(#x)"><path style="fill:none;stroke-width:.3985;stroke-linecap:butt;stroke-linejoin:miter;stroke:#666;stroke-opacity:1;stroke-miterlimit:10" d="M45.354 22.676 42.6 24.055" transform="matrix(1 0 0 -1 -15.229 145.254)"/></g><path style="stroke:none;fill-rule:nonzero;fill:#666;fill-opacity:1" d="m25.59 120.309 2.14 2.851-.359-1.96 1.785-.891"/><path style="fill:none;stroke-width:.3985;stroke-linecap:butt;stroke-linejoin:miter;stroke:#666;stroke-opacity:1;stroke-miterlimit:10" d="m45.354 45.356-3.125 3.125" transform="matrix(1 0 0 -1 -15.229 145.254)"/><path style="stroke:none;fill-rule:nonzero;fill:#666;fill-opacity:1" d="m25.59 95.363 1.129 3.383.281-1.973 1.973-.28"/><path style="fill:none;stroke-width:.3985;stroke-linecap:butt;stroke-linejoin:miter;stroke:#666;stroke-opacity:1;stroke-miterlimit:10" d="m45.354 68.031-3.43 5.149" transform="matrix(1 0 0 -1 -15.229 145.254)"/><path style="stroke:none;fill-rule:nonzero;fill:#666;fill-opacity:1" d="m25.59 70.418.441 3.535.664-1.879 1.989.114"/><path style="fill:none;stroke-width:.3985;stroke-linecap:butt;stroke-linejoin:miter;stroke:#666;stroke-opacity:1;stroke-miterlimit:10" d="m45.354 90.711-3.645 7.29" transform="matrix(1 0 0 -1 -15.229 145.254)"/><path style="stroke:none;fill-rule:nonzero;fill:#666;fill-opacity:1" d="M25.59 45.473v3.562l.89-1.781 1.961.355"/><path style="fill:none;stroke-width:.3985;stroke-linecap:butt;stroke-linejoin:miter;stroke:#666;stroke-opacity:1;stroke-miterlimit:10" d="m45.354 113.387-3.793 9.492" transform="matrix(1 0 0 -1 -15.229 145.254)"/><path style="stroke:none;fill-rule:nonzero;fill:#666;fill-opacity:1" d="m25.59 20.527-.297 3.551 1.039-1.703 1.922.52"/><g clip-path="url(#y)"><path style="fill:none;stroke-width:.3985;stroke-linecap:butt;stroke-linejoin:miter;stroke:#666;stroke-opacity:1;stroke-miterlimit:10" d="m68.034 22.676-4.914 1.64" transform="matrix(1 0 0 -1 -15.229 145.254)"/></g><path style="stroke:none;fill-rule:nonzero;fill:#666;fill-opacity:1" d="m46 120.309 2.52 2.52-.63-1.891 1.637-1.133"/><path style="fill:none;stroke-width:.3985;stroke-linecap:butt;stroke-linejoin:miter;stroke:#666;stroke-opacity:1;stroke-miterlimit:10" d="m68.034 45.356-5.149 3.43" transform="matrix(1 0 0 -1 -15.229 145.254)"/><path style="stroke:none;fill-rule:nonzero;fill:#666;fill-opacity:1" d="m46 95.363 1.77 3.094-.114-1.988 1.88-.664"/><path style="fill:none;stroke-width:.3985;stroke-linecap:butt;stroke-linejoin:miter;stroke:#666;stroke-opacity:1;stroke-miterlimit:10" d="m68.034 68.031-5.395 5.395" transform="matrix(1 0 0 -1 -15.229 145.254)"/><path style="stroke:none;fill-rule:nonzero;fill:#666;fill-opacity:1" d="m46 70.418 1.129 3.383.281-1.973 1.973-.285"/><path style="fill:none;stroke-width:.3985;stroke-linecap:butt;stroke-linejoin:miter;stroke:#666;stroke-opacity:1;stroke-miterlimit:10" d="m68.034 90.711-5.61 7.477" transform="matrix(1 0 0 -1 -15.229 145.254)"/><path style="stroke:none;fill-rule:nonzero;fill:#666;fill-opacity:1" d="m46 45.473.637 3.507.558-1.914h1.992"/><path style="fill:none;stroke-width:.3985;stroke-linecap:butt;stroke-linejoin:miter;stroke:#666;stroke-opacity:1;stroke-miterlimit:10" d="m68.034 113.387-5.782 9.633" transform="matrix(1 0 0 -1 -15.229 145.254)"/><path style="stroke:none;fill-rule:nonzero;fill:#666;fill-opacity:1" d="m46 20.527.273 3.555.75-1.848 1.985.207"/><g clip-path="url(#z)"><path style="fill:none;stroke-width:.3985;stroke-linecap:butt;stroke-linejoin:miter;stroke:#666;stroke-opacity:1;stroke-miterlimit:10" d="m90.71 22.676-7.137 1.785" transform="matrix(1 0 0 -1 -15.229 145.254)"/></g><path style="stroke:none;fill-rule:nonzero;fill:#666;fill-opacity:1" d="m66.41 120.309 2.707 2.32-.773-1.836 1.547-1.258"/><path style="fill:none;stroke-width:.3985;stroke-linecap:butt;stroke-linejoin:miter;stroke:#666;stroke-opacity:1;stroke-miterlimit:10" d="M90.71 45.356 83.42 49" transform="matrix(1 0 0 -1 -15.229 145.254)"/><path style="stroke:none;fill-rule:nonzero;fill:#666;fill-opacity:1" d="m66.41 95.363 2.137 2.852-.356-1.961 1.782-.89"/><path style="fill:none;stroke-width:.3985;stroke-linecap:butt;stroke-linejoin:miter;stroke:#666;stroke-opacity:1;stroke-miterlimit:10" d="m90.71 68.031-7.477 5.61" transform="matrix(1 0 0 -1 -15.229 145.254)"/><path style="stroke:none;fill-rule:nonzero;fill:#666;fill-opacity:1" d="m66.41 70.418 1.594 3.187v-1.992l1.914-.558"/><path style="fill:none;stroke-width:.3985;stroke-linecap:butt;stroke-linejoin:miter;stroke:#666;stroke-opacity:1;stroke-miterlimit:10" d="m90.71 90.711-7.66 7.66" transform="matrix(1 0 0 -1 -15.229 145.254)"/><path style="stroke:none;fill-rule:nonzero;fill:#666;fill-opacity:1" d="m66.41 45.473 1.125 3.382.285-1.972 1.97-.285"/><path style="fill:none;stroke-width:.3985;stroke-linecap:butt;stroke-linejoin:miter;stroke:#666;stroke-opacity:1;stroke-miterlimit:10" d="m90.71 113.387-7.829 9.785" transform="matrix(1 0 0 -1 -15.229 145.254)"/><path style="stroke:none;fill-rule:nonzero;fill:#666;fill-opacity:1" d="m66.41 20.527.746 3.485.496-1.93 1.993-.062"/><g clip-path="url(#A)"><path style="fill:none;stroke-width:.3985;stroke-linecap:butt;stroke-linejoin:miter;stroke:#666;stroke-opacity:1;stroke-miterlimit:10" d="m113.39 22.676-9.388 1.879" transform="matrix(1 0 0 -1 -15.229 145.254)"/></g><path style="stroke:none;fill-rule:nonzero;fill:#666;fill-opacity:1" d="m86.82 120.309 2.813 2.187-.86-1.797 1.485-1.328"/><g clip-path="url(#B)"><path style="fill:none;stroke-width:.3985;stroke-linecap:butt;stroke-linejoin:miter;stroke:#666;stroke-opacity:1;stroke-miterlimit:10" d="m113.39 45.356-9.493 3.796" transform="matrix(1 0 0 -1 -15.229 145.254)"/></g><path style="stroke:none;fill-rule:nonzero;fill:#666;fill-opacity:1" d="m86.82 95.363 2.368 2.664-.52-1.925 1.703-1.036"/><g clip-path="url(#C)"><path style="fill:none;stroke-width:.3985;stroke-linecap:butt;stroke-linejoin:miter;stroke:#666;stroke-opacity:1;stroke-miterlimit:10" d="m113.39 68.031-9.634 5.782" transform="matrix(1 0 0 -1 -15.229 145.254)"/></g><path style="stroke:none;fill-rule:nonzero;fill:#666;fill-opacity:1" d="m86.82 70.418 1.914 3.008-.207-1.985 1.844-.75"/><g clip-path="url(#D)"><path style="fill:none;stroke-width:.3985;stroke-linecap:butt;stroke-linejoin:miter;stroke:#666;stroke-opacity:1;stroke-miterlimit:10" d="m113.39 90.711-9.786 7.824" transform="matrix(1 0 0 -1 -15.229 145.254)"/></g><path style="stroke:none;fill-rule:nonzero;fill:#666;fill-opacity:1" d="m86.82 45.473 1.493 3.234.062-1.988 1.93-.5"/><g clip-path="url(#E)"><path style="fill:none;stroke-width:.3985;stroke-linecap:butt;stroke-linejoin:miter;stroke:#666;stroke-opacity:1;stroke-miterlimit:10" d="m113.39 113.387-9.934 9.93" transform="matrix(1 0 0 -1 -15.229 145.254)"/></g><path style="stroke:none;fill-rule:nonzero;fill:#666;fill-opacity:1" d="m86.82 20.527 1.125 3.383.282-1.973 1.972-.285"/></svg>