<svg xmlns="http://www.w3.org/2000/svg" xmlns:xlink="http://www.w3.org/1999/xlink" width="232.46" height="217.379" viewBox="0 0 174.345 163.034"><clipPath id="a"><path transform="matrix(1 0 0 -1 -4.94 155.218)" d="M73.702 150.238c-42.52 0-63.78 0-63.78-51.024 0-102.049 90.737-76.537 127.56-51.025 36.824 25.513-21.26 102.05-63.78 102.05"/></clipPath><g clip-path="url(#a)"><path d="M-16.279 158.053V-46.044h170.081v204.097zM153.802-46.044" fill="#ccf"/><path stroke-width=".797" stroke-miterlimit="10" fill="none" stroke="#929292" d="m9.233 98.524.79 3.157"/><path d="m10.65 104.194 1.006-4.523-1.633 2.01-2.388-1.005" fill="#929292"/><path stroke-width=".797" stroke-miterlimit="10" fill="none" stroke="#929292" d="m9.233 70.178.992 5.95"/><path d="m10.65 78.682 1.363-4.428-1.788 1.873-2.3-1.192" fill="#929292"/><path stroke-width=".797" stroke-miterlimit="10" fill="none" stroke="#929292" d="m9.233 41.83 1.097 8.77"/><path d="m10.65 53.17 1.543-4.37-1.863 1.8-2.25-1.285" fill="#929292"/><path stroke-width=".797" stroke-miterlimit="10" fill="none" stroke="#929292" d="m9.233 13.484 1.16 11.597"/><path d="m10.65 27.658 1.65-4.33-1.907 1.753-2.216-1.34" fill="#929292"/><path stroke-width=".797" stroke-miterlimit="10" fill="none" stroke="#929292" d="m37.58 98.524 2.698 3.598"/><path d="m41.832 104.194-.828-4.559-.726 2.487h-2.59" fill="#929292"/><path stroke-width=".797" stroke-miterlimit="10" fill="none" stroke="#929292" d="m37.58 70.178 3.094 6.187"/><path d="M41.832 78.682V74.05l-1.158 2.316-2.548-.463" fill="#929292"/><path stroke-width=".797" stroke-miterlimit="10" fill="none" stroke="#929292" d="m37.58 41.83 3.343 8.915"/><path d="m41.832 53.17.485-4.608-1.394 2.183-2.486-.728" fill="#929292"/><path stroke-width=".797" stroke-miterlimit="10" fill="none" stroke="#929292" d="m37.58 13.484 3.508 11.693"/><path d="m41.832 27.658.794-4.564-1.538 2.083-2.43-.893" fill="#929292"/><path stroke-width=".797" stroke-miterlimit="10" fill="none" stroke="#929292" d="m65.927 98.524 5.065 4.052"/><path d="m73.014 104.194-1.942-4.207-.08 2.59-2.508.646" fill="#929292"/><path stroke-width=".797" stroke-miterlimit="10" fill="none" stroke="#929292" d="m65.927 70.178 5.429 6.514"/><path d="m73.014 78.682-1.061-4.51-.597 2.52-2.587.133" fill="#929292"/><path stroke-width=".797" stroke-miterlimit="10" fill="none" stroke="#929292" d="m65.927 41.83 5.714 9.144"/><path d="m73.014 53.17-.44-4.612-.933 2.416-2.58-.22" fill="#929292"/><path stroke-width=".797" stroke-miterlimit="10" fill="none" stroke="#929292" d="m65.927 13.484 5.929 11.858"/><path d="M73.014 27.658v-4.633l-1.158 2.317-2.548-.464" fill="#929292"/><path stroke-width=".797" stroke-miterlimit="10" fill="none" stroke="#929292" d="m94.274 98.524 7.673 4.385"/><path d="m104.196 104.194-2.57-3.855.321 2.57-2.377 1.028" fill="#929292"/><path stroke-width=".797" stroke-miterlimit="10" fill="none" stroke="#929292" d="m94.274 70.178 7.955 6.818"/><path d="m104.196 78.682-1.798-4.27-.169 2.585-2.528.561" fill="#929292"/><path stroke-width=".797" stroke-miterlimit="10" fill="none" stroke="#929292" d="m94.274 41.83 8.216 9.39"/><path d="m104.196 53.17-1.17-4.483-.536 2.534-2.583.195" fill="#929292"/><path stroke-width=".797" stroke-miterlimit="10" fill="none" stroke="#929292" d="m94.274 13.484 8.436 12.052"/><path d="m104.196 27.658-.68-4.583-.806 2.461-2.588-.085" fill="#929292"/><path stroke-width=".797" stroke-miterlimit="10" fill="none" stroke="#929292" d="m122.62 98.524 10.39 4.618"/><path d="m135.377 104.194-2.945-3.577.579 2.525-2.262 1.262" fill="#929292"/><path stroke-width=".797" stroke-miterlimit="10" fill="none" stroke="#929292" d="m122.62 70.178 10.602 7.067"/><path d="m135.377 78.682-2.298-4.023.143 2.586-2.442.863" fill="#929292"/><path stroke-width=".797" stroke-miterlimit="10" fill="none" stroke="#929292" d="m122.62 41.83 10.822 9.62"/><path d="m135.377 53.17-1.72-4.302-.215 2.581-2.539.517" fill="#929292"/><path stroke-width=".797" stroke-miterlimit="10" fill="none" stroke="#929292" d="m122.62 13.484 11.025 12.249"/><path d="m135.377 27.658-1.232-4.466-.5 2.541-2.58.231" fill="#929292"/><path stroke-width=".797" stroke-miterlimit="10" fill="none" stroke="#929292" d="m150.967 98.524 13.158 4.785"/><path d="m166.56 104.194-3.188-3.364.753 2.479-2.169 1.416" fill="#929292"/><path stroke-width=".797" stroke-miterlimit="10" fill="none" stroke="#929292" d="m150.967 70.178 13.318 7.264"/><path d="m166.56 78.682-2.647-3.803.372 2.563-2.356 1.075" fill="#929292"/><path stroke-width=".797" stroke-miterlimit="10" fill="none" stroke="#929292" d="m150.967 41.83 13.497 9.817"/><path d="m166.56 53.17-2.134-4.113.038 2.59-2.475.761" fill="#929292"/><path stroke-width=".797" stroke-miterlimit="10" fill="none" stroke="#929292" d="m150.967 13.484 13.676 12.432"/><path d="m166.56 27.658-1.674-4.32-.243 2.578-2.544.488" fill="#929292"/><path stroke-width=".797" stroke-linecap="round" stroke-miterlimit="10" fill="none" stroke="#99f" d="M37.58 13.484s.93 3.043 1.288 4.167c.358 1.124.931 2.871 1.288 3.932.358 1.06.931 2.708 1.288 3.71.358 1.002.931 2.561 1.289 3.51.357.948.93 2.425 1.288 3.325.357.9.93 2.304 1.288 3.158.357.853.93 2.184 1.288 2.996.357.811.93 2.08 1.288 2.852.357.772.93 1.98 1.288 2.715.358.736.93 1.886 1.288 2.588.358.703.93 1.804 1.288 2.475.358.67.931 1.717 1.288 2.358.358.641.931 1.648 1.288 2.262.358.614.931 1.576 1.289 2.163.357.588.93 1.509 1.288 2.072.357.564.93 1.448 1.288 1.989.357.54.93 1.39 1.288 1.908.357.52.93 1.335 1.288 1.834.357.5.93 1.284 1.288 1.764.357.48.93 1.235 1.288 1.697.358.462.93 1.188 1.288 1.633.358.445.93 1.146 1.288 1.575.358.43.931 1.106 1.288 1.52.358.414.931 1.066 1.289 1.465.357.4.93 1.028 1.288 1.414.357.385.93.993 1.288 1.366.357.373.93.961 1.288 1.322.357.36.93.93 1.288 1.278.357.349.93.899 1.288 1.237.357.337.93.87 1.288 1.197.358.327.93.843 1.288 1.16.358.317.93.817 1.288 1.124.358.308.931.793 1.288 1.09.358.299.931.77 1.289 1.059.357.289.93.744 1.288 1.025.357.28.93.725 1.288.998.357.272.93.703 1.288.968.357.264.93.683 1.288.94.357.258.93.665 1.288.915.357.25.93.647 1.288.89.358.244.93.63 1.288.867a151.403 151.403 0 0 0 2.576 1.663c.358.225.931.58 1.289.8a163.02 163.02 0 0 0 2.576 1.537 158.882 158.882 0 0 0 2.576 1.462 172.65 172.65 0 0 0 2.576 1.39 180.988 180.988 0 0 0 2.576 1.327c.358.18.931.465 1.288.641a179.972 179.972 0 0 0 2.577 1.235c.357.168.93.434 1.288.598a197.024 197.024 0 0 0 2.576 1.155 212.839 212.839 0 0 0 2.576 1.106 220.82 220.82 0 0 0 2.576 1.058 234.596 234.596 0 0 0 2.576 1.016 235.522 235.522 0 0 0 2.577.974 265.187 265.187 0 0 0 2.576.936 253.513 253.513 0 0 0 2.576.898 277.008 277.008 0 0 0 3.864 1.286 273.157 273.157 0 0 0 3.865 1.215 318.144 318.144 0 0 0 2.576.773 322.354 322.354 0 0 0 2.576.746 368.456 368.456 0 0 0 3.864 1.07 332.96 332.96 0 0 0 6.44 1.667 427.68 427.68 0 0 0 2.577.629 415.686 415.686 0 0 0 3.864.905 491.936 491.936 0 0 0 3.865.863 488.736 488.736 0 0 0 3.864.825"/><path stroke-width=".797" stroke-miterlimit="10" fill="none" stroke="#000" d="m65.927 70.178 5.429 6.514"/><path d="m73.014 78.682-1.061-4.51-.597 2.52-2.587.133"/><symbol id="b"><path d="M.611 0c.016 0 .038 0 .038.023S.627.046.611.046H.038C.022.046 0 .046 0 .023S.022 0 .038 0h.573z"/></symbol><symbol id="c"><path d="M.814.241A.375.375 0 0 1 .671.015C.671 0 .685 0 .694 0c.011 0 .02 0 .023.013.026.111.09.195.211.236.008.002.016.005.016.015 0 .01-.009.013-.013.014a.307.307 0 0 0-.212.227C.714.525.714.528.694.528c-.009 0-.023 0-.023-.015A.352.352 0 0 1 .814.287H.038C.022.287 0 .287 0 .264S.022.241.038.241h.776z"/></symbol><use xlink:href="#b" transform="matrix(7.9701 0 0 -7.9701 76.702 75.668)"/><use xlink:href="#c" transform="matrix(7.9701 0 0 -7.9701 76.471 77.589)"/><symbol id="d"><path d="M.467.374c0 .078-.045.078-.049.078C.394.452.366.426.366.4c0-.016.008-.023.017-.031A.105.105 0 0 0 .42.289C.42.243.354.028.239.028.196.028.161.051.161.114c0 .055.03.134.054.194C.227.34.23.348.23.366.23.42.186.451.14.451.041.451 0 .31 0 .298 0 .289.007.285.015.285c.013 0 .014.006.017.016.026.087.069.122.105.122C.152.423.161.414.161.39A.198.198 0 0 0 .142.319C.093.193.089.16.089.129.089.02.178 0 .235 0c.166 0 .232.298.232.374z"/></symbol><use xlink:href="#d" transform="matrix(7.9701 0 0 -7.9701 78.27 80.988)"/><symbol id="e"><path d="M.23 0c.008 0 .02 0 .02.012C.25.016.249.017.236.03.099.159.065.345.065.5c0 .288.119.423.17.469C.249.982.25.983.25.988.25.993.246 1 .236 1 .22 1 .17.949.162.94A.633.633 0 0 1 0 .5C0 .276.094.096.23 0z"/></symbol><use xlink:href="#e" transform="matrix(7.9701 0 0 -7.9701 85.29 82.9)"/><symbol id="f"><path d="M0 .683V.65l.036.001C.07.651.102.646.102.609L.101.59V.105C.101.039.043.033 0 .033V0l.066.003h.107L.236 0v.033C.191.033.134.041.134.108l.001.028.001.504C.142.62.152.6.16.58.237.4.312.215.383.035.388.022.393.001.411 0 .429 0 .434.021.44.034.512.217.588.4.664.582.672.603.685.627.69.648L.691.1.692.076C.692.038.658.032.625.032L.59.033V0l.074.003h.21v.03L.838.032C.804.032.772.037.772.074l.001.019v.513c0 .04.033.045.067.045L.874.65v.033H.701C.684.683.673.678.668.661L.657.635C.591.471.521.308.456.143.45.127.441.111.437.095.417.14.399.187.38.233L.216.635.206.66C.2.673.193.683.178.683H0z"/></symbol><use xlink:href="#f" transform="matrix(7.9701 0 0 -7.9701 88.154 80.9)"/><symbol id="g"><path d="M.466.187H.429C.427.173.417.107.402.096.395.09.314.09.3.09H.113l.128.104c.034.027.123.091.154.121.03.03.071.081.071.152 0 .125-.113.198-.247.198C.09.665 0 .58 0 .486 0 .435.043.429.054.429c.025 0 .054.018.054.054 0 .022-.013.054-.057.054.023.051.084.089.153.089A.154.154 0 0 0 .365.467C.365.396.318.323.248.259L.011.042C.001.032 0 .031 0 0h.435l.031.187z"/></symbol><use xlink:href="#g" transform="matrix(5.9776 0 0 -5.9776 95.945 82.015)"/><symbol id="h"><path d="M.095.208A.236.236 0 0 0 .019.024C.015.021.013.019.013.014.013.006.021 0 .028 0 .04 0 .123.079.123.196.123.26.099.304.055.304A.054.054 0 0 1 0 .249C0 .221.019.193.056.193c.024 0 .039.014.039.015z"/></symbol><symbol id="i"><path d="M.196.408h.098c.019 0 .031 0 .031.019 0 .014-.013.014-.03.014H.204L.24.583c.004.015.004.02.004.021 0 .021-.016.031-.033.031C.177.635.17.608.159.563L.128.441H.032C.013.441 0 .441 0 .422 0 .408.013.408.03.408h.09L.06.168C.054.143.045.108.045.094.045.034.094 0 .147 0c.107 0 .168.141.168.153C.315.164.306.166.3.166.289.166.288.162.281.147.261.099.211.028.15.028.129.028.117.042.117.075c0 .019.003.03.006.043l.073.29z"/></symbol><use xlink:href="#h" transform="matrix(7.9701 0 0 -7.9701 100.4 82.446)"/><use xlink:href="#i" transform="matrix(7.9701 0 0 -7.9701 103.627 80.988)"/><symbol id="j"><path d="M.249.5a.691.691 0 0 1-.078.327C.122.919.031 1 .013 1 .003 1 0 .993 0 .988 0 .984 0 .982.012.97.152.837.184.654.184.5.184.213.065.077.014.031.001.018 0 .017 0 .012 0 .007.003 0 .013 0c.016 0 .066.051.074.06C.221.2.249.38.249.5z"/></symbol><use xlink:href="#j" transform="matrix(7.9701 0 0 -7.9701 106.966 82.9)"/><path stroke-width=".797" stroke-miterlimit="10" fill="none" stroke="#000" d="m37.58 13.484 3.508 11.692"/><path d="m41.832 27.657.794-4.565-1.538 2.084-2.432-.893"/><use xlink:href="#b" transform="matrix(7.9701 0 0 -7.9701 45.521 24.644)"/><use xlink:href="#c" transform="matrix(7.9701 0 0 -7.9701 45.29 26.565)"/><use xlink:href="#d" transform="matrix(7.9701 0 0 -7.9701 47.09 29.965)"/><use xlink:href="#e" transform="matrix(7.9701 0 0 -7.9701 54.11 31.878)"/><use xlink:href="#f" transform="matrix(7.9701 0 0 -7.9701 56.973 29.877)"/><symbol id="k"><path d="M.238.635c0 .03-.004.03-.034.03C.138.601.036.601 0 .601V.562c.026 0 .092 0 .152.028V.085c0-.033 0-.046-.103-.046H.006V0c.055.004.133.004.189.004.056 0 .134 0 .189-.004v.039H.341C.238.039.238.052.238.085v.55z"/></symbol><use xlink:href="#k" transform="matrix(5.9776 0 0 -5.9776 65.057 30.992)"/><use xlink:href="#h" transform="matrix(7.9701 0 0 -7.9701 69.218 31.423)"/><use xlink:href="#i" transform="matrix(7.9701 0 0 -7.9701 72.446 29.965)"/><use xlink:href="#j" transform="matrix(7.9701 0 0 -7.9701 75.785 31.878)"/><path d="M38.576 13.484a.996.996 0 1 0-1.992 0 .996.996 0 0 0 1.992 0zm-.996 0"/><path stroke-width=".399" stroke-miterlimit="10" fill="none" stroke="#000" d="M38.576 13.484a.996.996 0 1 0-1.992 0 .996.996 0 0 0 1.992 0zm-.996 0"/><use xlink:href="#f" transform="matrix(7.9701 0 0 -7.9701 40.959 15.669)"/><use xlink:href="#k" transform="matrix(5.9776 0 0 -5.9776 49.044 16.784)"/><path d="M66.923 70.178a.996.996 0 1 0-1.992 0 .996.996 0 0 0 1.992 0zm-.996 0"/><path stroke-width=".399" stroke-miterlimit="10" fill="none" stroke="#000" d="M66.923 70.178a.996.996 0 1 0-1.992 0 .996.996 0 0 0 1.992 0zm-.996 0"/><use xlink:href="#f" transform="matrix(7.9701 0 0 -7.9701 60.365 66.075)"/><use xlink:href="#g" transform="matrix(5.9776 0 0 -5.9776 68.157 67.19)"/><path d="M123.466 107.964a.845.845 0 1 0-1.69 0 .845.845 0 0 0 1.69 0zm-.845 0"/><symbol id="l"><path d="M0 .683V.65l.036.001C.07.651.1.646.1.607v-.53C.1.037.068.032.034.032L0 .033V0h.544l.029.26H.542C.533.172.52.068.399.04.369.033.338.033.307.033H.23C.209.033.192.038.192.067v.539c0 .04.037.044.07.044h.056v.033H0z"/></symbol><symbol id="m"><path d="M.004.429V.396H.02C.052.396.076.39.076.347V.075C.076.034.05.033 0 .033V0l.061.003h.101L.218 0v.033H.204C.175.033.15.035.15.069V.44L.113.437.004.429M.09.67A.055.055 0 0 1 .096.56C.13.56.153.587.153.616a.055.055 0 0 1-.054.055L.09.67z"/></symbol><symbol id="n"><path d="M.092.226C.048.217 0 .176 0 .128 0 .023.165 0 .236 0c.083 0 .236.025.236.13C.472.255.339.274.24.274H.154c-.04 0-.065.031-.065.067v.005C.09.358.095.377.104.379c.004 0 .014-.007.02-.01A.183.183 0 0 1 .207.351c.08 0 .172.053.172.146 0 .029-.01.059-.028.082C.348.583.342.588.342.593c0 .014.059.035.091.035a.037.037 0 0 1-.01-.024c0-.017.015-.031.032-.031a.03.03 0 0 1 .031.031c0 .033-.028.053-.058.053A.165.165 0 0 1 .33.62C.327.618.323.613.318.613H.317C.313.613.304.62.297.624a.211.211 0 0 1-.089.021C.127.645.035.593.035.498.035.466.047.434.07.409.073.405.078.401.078.396V.395C.078.387.062.367.057.352A.15.15 0 0 1 .052.315c0-.038.014-.057.04-.089M.06.122.059.13c0 .055.058.078.104.078H.24C.315.208.402.202.413.134V.128c0-.04-.048-.071-.076-.08A.265.265 0 0 0 .233.03C.169.03.068.056.06.122m.054.359v.011c0 .057.018.123.093.123.063 0 .094-.053.094-.12C.301.436.272.381.207.381a.092.092 0 0 0-.07.032C.12.433.117.456.114.481z"/></symbol><symbol id="o"><path d="M0 .429V.396h.019c.029 0 .057-.004.057-.05V.075C.076.034.05.033 0 .033V0l.061.003h.105L.229 0v.033H.208C.177.033.153.036.153.074v.184c0 .074.049.154.145.154.057 0 .072-.05.072-.11V.071C.37.036.343.033.314.033h-.02V0l.063.003h.105L.523 0v.033h-.02C.474.033.447.036.447.072v.213A.208.208 0 0 1 .43.383C.405.427.353.44.306.44.245.44.169.407.147.344L.146.44.109.437 0 .429z"/></symbol><symbol id="p"><path d="M.089.239h.305c.013 0 .019.007.019.019 0 .05-.015.108-.051.145a.192.192 0 0 1-.137.053A.222.222 0 0 1 0 .231C0 .117.091 0 .235 0 .31 0 .39.047.411.121L.413.13a.015.015 0 0 1-.015.015C.379.145.376.113.367.101A.147.147 0 0 0 .243.033a.147.147 0 0 0-.13.077.272.272 0 0 0-.024.129M.09.266C.1.323.11.385.169.414a.114.114 0 0 0 .054.014C.288.428.332.374.342.302L.345.266H.09z"/></symbol><symbol id="q"><path d="M.294.693V.66h.011C.344.66.37.658.37.599V.393A.187.187 0 0 1 .236.45C.113.45 0 .354 0 .225 0 .102.103 0 .225 0a.19.19 0 0 1 .142.063V0L.52.01v.033H.504c-.03 0-.06.003-.06.05v.611L.294.693M.089.203v.014c0 .07.013.155.09.19A.141.141 0 0 0 .36.357C.363.352.366.348.367.342V.126C.367.075.285.028.233.028c-.074 0-.127.059-.139.13L.089.203z"/></symbol><symbol id="r"><path d="M.098.21A.232.232 0 0 0 .026.032C.021.027.014.021.014.014V.011A.013.013 0 0 1 .027 0C.044 0 .07.036.082.054a.26.26 0 0 1 .045.141C.127.238.11.304.056.304H.054C.019.304 0 .277 0 .248 0 .218.023.193.056.193.074.193.083.2.098.21z"/></symbol><symbol id="s"><path d="M.089.239h.305c.013 0 .019.007.019.019 0 .05-.015.108-.051.145a.192.192 0 0 1-.137.053A.222.222 0 0 1 0 .231C0 .117.091 0 .235 0 .31 0 .39.047.411.121L.413.13a.015.015 0 0 1-.015.015C.379.145.376.113.367.101A.147.147 0 0 0 .243.033a.147.147 0 0 0-.13.077.272.272 0 0 0-.024.129M.09.266C.1.323.11.385.169.414a.114.114 0 0 0 .054.014C.288.428.332.374.342.302L.345.266H.09m.036.235c.026.008.053.028.078.041l.055.03c.019.01.047.02.047.047C.306.64.289.661.267.661H.266C.233.659.167.578.122.538.118.534.111.53.111.524c0-.005.01-.016.015-.023z"/></symbol><symbol id="t"><path d="M.332.407A.046.046 0 0 1 .301.363c0-.028.02-.047.052-.047.028 0 .042.027.042.048 0 .073-.086.087-.147.091H.236A.232.232 0 0 1 0 .224.23.23 0 0 1 .232 0c.07 0 .139.036.167.105.002.007.008.016.008.024C.407.138.4.142.392.142.373.142.376.121.364.103A.139.139 0 0 0 .243.031C.14.031.089.129.089.23c0 .08.032.194.148.194A.213.213 0 0 0 .332.407z"/></symbol><symbol id="u"><path d="M.221.455C.106.443 0 .36 0 .218 0 .084.124 0 .239 0c.116 0 .233.09.233.221a.236.236 0 0 1-.238.234H.221M.089.203.088.229c0 .052.005.121.048.16a.15.15 0 0 0 .101.038C.339.427.383.342.383.238.383.183.381.122.343.077A.144.144 0 0 0 .236.031C.162.031.104.083.093.162L.089.203z"/></symbol><symbol id="v"><path d="M0 .44V.407h.013c.025 0 .056-.002.061-.03C.076.366.076.356.076.345V.148A.17.17 0 0 1 .092.062C.12.013.184 0 .233 0a.149.149 0 0 1 .139.082L.373.001l.15.01v.033H.504C.475.044.447.048.447.092v.359L.294.44V.407h.012C.34.407.37.405.37.357V.186C.37.106.327.029.241.029.206.029.16.038.155.089.153.107.153.125.153.143v.308L0 .44z"/></symbol><symbol id="w"><path d="M0 .683V.65h.013C.046.65.076.649.076.598V.097L.077.075C.077.035.045.033.01.033H0V0l.06.003h.104L.226 0v.033H.203C.175.033.15.036.15.072v.622L0 .683z"/></symbol><symbol id="x"><path d="M0 .429V.396h.019c.029 0 .057-.004.057-.05V.075C.076.034.05.033 0 .033V0l.061.003h.105L.229 0v.033H.208C.177.033.153.036.153.074v.183c0 .074.047.155.145.155.057 0 .073-.048.073-.109V.071C.371.036.344.033.315.033h-.02V0l.063.003h.105L.524 0v.033H.503C.472.033.448.036.448.074v.183c0 .074.047.155.145.155C.65.412.666.364.666.303V.071C.666.036.639.033.61.033H.59V0l.063.003h.105L.819 0v.033H.802c-.03 0-.059.003-.059.039v.214a.207.207 0 0 1-.016.095C.703.425.651.44.604.44.543.44.468.41.444.348H.443C.434.417.363.44.304.44.242.44.169.405.147.344L.146.44.109.437 0 .429z"/></symbol><symbol id="y"><path d="M.135.625C.135.554.101.435 0 .435V.407h.089V.149c0-.032.002-.064.019-.092C.132.016.182 0 .228 0c.084 0 .105.089.105.155v.036H.302L.303.149C.303.105.292.031.233.031.179.031.166.089.166.139v.268h.149V.44H.166v.185H.135z"/></symbol><use xlink:href="#l" transform="matrix(7.9701 0 0 -7.9701 32.467 117.847)"/><use xlink:href="#m" transform="matrix(7.9701 0 0 -7.9701 37.719 117.847)"/><use xlink:href="#n" transform="matrix(7.9701 0 0 -7.9701 39.974 119.48)"/><use xlink:href="#o" transform="matrix(7.9701 0 0 -7.9701 44.294 117.847)"/><use xlink:href="#p" transform="matrix(7.9701 0 0 -7.9701 48.909 117.935)"/><use xlink:href="#q" transform="matrix(7.9701 0 0 -7.9701 55.54 117.927)"/><use xlink:href="#r" transform="matrix(7.9701 0 0 -7.9701 60.697 114.739)"/><use xlink:href="#s" transform="matrix(7.9701 0 0 -7.9701 62.546 117.935)"/><use xlink:href="#t" transform="matrix(7.9701 0 0 -7.9701 66.356 117.927)"/><use xlink:href="#u" transform="matrix(7.9701 0 0 -7.9701 70.07 117.927)"/><use xlink:href="#v" transform="matrix(7.9701 0 0 -7.9701 74.39 117.935)"/><use xlink:href="#w" transform="matrix(7.9701 0 0 -7.9701 79.1 117.847)"/><use xlink:href="#p" transform="matrix(7.9701 0 0 -7.9701 81.355 117.935)"/><use xlink:href="#x" transform="matrix(7.9701 0 0 -7.9701 85.205 117.847)"/><use xlink:href="#p" transform="matrix(7.9701 0 0 -7.9701 92.17 117.935)"/><use xlink:href="#o" transform="matrix(7.9701 0 0 -7.9701 96.02 117.847)"/><use xlink:href="#y" transform="matrix(7.9701 0 0 -7.9701 100.332 117.927)"/><path stroke-width=".399" stroke-miterlimit="10" fill="none" stroke="#929292" d="m120.6 108.256-14.132 2.046"/></g></svg>