<svg xmlns="http://www.w3.org/2000/svg" xmlns:xlink="http://www.w3.org/1999/xlink" width="232.46" height="183.363" viewBox="0 0 174.345 137.522"><clipPath id="a"><path transform="matrix(1 0 0 -1 -30.452 118.367)" d="M99.214 113.387c-42.52 0-63.78 0-63.78-42.52 0-85.04 90.736-63.78 127.56-42.52 36.824 21.26-21.26 85.04-63.78 85.04"/></clipPath><g clip-path="url(#a)"><path d="M-16.279 132.54V-37.54h170.081v170.08zM153.802-37.54" fill="#ccf"/><path stroke-width=".797" stroke-linecap="round" stroke-miterlimit="10" fill="none" stroke="#99f" d="M12.068 4.98s.93 2.434 1.288 3.333c.358.9.931 2.299 1.288 3.147.358.848.931 2.166 1.288 2.968.358.801.931 2.05 1.289 2.809.357.759.93 1.94 1.288 2.659.357.72.93 1.842 1.288 2.525.357.684.93 1.75 1.288 2.399.357.649.93 1.661 1.288 2.279.357.618.93 1.585 1.288 2.174.357.589.93 1.51 1.288 2.072s.93 1.44 1.288 1.976.931 1.375 1.288 1.888c.358.513.931 1.32 1.288 1.811.358.491.931 1.26 1.289 1.73.357.47.93 1.207 1.288 1.658.357.45.93 1.156 1.288 1.588.357.433.93 1.113 1.288 1.528.357.416.93 1.067 1.288 1.467.357.4.93 1.028 1.288 1.412.357.384.93.988 1.288 1.357.358.37.93.95 1.288 1.307.358.356.93.916 1.288 1.26.358.343.931.884 1.288 1.215.358.331.931.853 1.289 1.172.357.32.93.823 1.288 1.132.357.309.93.795 1.288 1.093.357.298.93.768 1.288 1.056.357.289.93.744 1.288 1.023.357.28.93.72 1.288.99.357.27.93.696 1.288.957.358.262.93.675 1.288.928.358.254.93.654 1.288.9s.931.633 1.288.872c.358.238.931.616 1.289.847a135.776 135.776 0 0 0 2.576 1.618 139.428 139.428 0 0 0 2.576 1.527c.357.206.93.532 1.288.732a152.707 152.707 0 0 0 2.576 1.404c.358.19.93.49 1.288.675a158.797 158.797 0 0 0 2.577 1.296 171.034 171.034 0 0 0 2.576 1.23 179.846 179.846 0 0 0 2.576 1.17 181.635 181.635 0 0 0 2.576 1.113 202.727 202.727 0 0 0 2.576 1.061 205.502 205.502 0 0 0 2.576 1.012 218.296 218.296 0 0 0 2.577.967 232.243 232.243 0 0 0 2.576.923 238.063 238.063 0 0 0 2.576.885 255.822 255.822 0 0 0 2.576.847 280.44 280.44 0 0 0 2.576.813 268.99 268.99 0 0 0 3.865 1.157 296.753 296.753 0 0 0 2.576.734 301.358 301.358 0 0 0 2.576.705 367.606 367.606 0 0 0 2.576.68 356.776 356.776 0 0 0 3.865.97 420.643 420.643 0 0 0 2.576.62 346.244 346.244 0 0 0 10.305 2.265 489.92 489.92 0 0 0 2.576.52 495.362 495.362 0 0 0 3.864.749 475.953 475.953 0 0 0 9.017 1.612l1.288.217"/><path stroke-width=".797" stroke-miterlimit="10" fill="none" stroke="#000" d="m26.242 33.327 12.736 19.105"/><path d="m40.415 54.587-.575-4.598-.862 2.443-2.586-.144"/><symbol id="b"><path d="M.611 0c.016 0 .038 0 .038.023S.627.046.611.046H.038C.022.046 0 .046 0 .023S.022 0 .038 0h.573z"/></symbol><symbol id="c"><path d="M.814.241A.375.375 0 0 1 .671.015C.671 0 .685 0 .694 0c.011 0 .02 0 .023.013.026.111.09.195.211.236.008.002.016.005.016.015 0 .01-.009.013-.013.014a.307.307 0 0 0-.212.227C.714.525.714.528.694.528c-.009 0-.023 0-.023-.015A.352.352 0 0 1 .814.287H.038C.022.287 0 .287 0 .264S.022.241.038.241h.776z"/></symbol><use xlink:href="#b" transform="matrix(7.9701 0 0 -7.9701 29.461 58.78)"/><use xlink:href="#c" transform="matrix(7.9701 0 0 -7.9701 30.274 60.7)"/><symbol id="d"><path d="M.467.374c0 .078-.045.078-.049.078C.394.452.366.426.366.4c0-.016.008-.023.017-.031A.105.105 0 0 0 .42.289C.42.243.354.028.239.028.196.028.161.051.161.114c0 .055.03.134.054.194C.227.34.23.348.23.366.23.42.186.451.14.451.041.451 0 .31 0 .298 0 .289.007.285.015.285c.013 0 .014.006.017.016.026.087.069.122.105.122C.152.423.161.414.161.39A.198.198 0 0 0 .142.319C.093.193.089.16.089.129.089.02.178 0 .235 0c.166 0 .232.298.232.374z"/></symbol><use xlink:href="#d" transform="matrix(7.9701 0 0 -7.9701 29 64.1)"/><symbol id="e"><path d="M0 .683v-.04l.041.001C.075.644.106.639.106.603V.096L.107.078C.107.044.073.039.039.039L0 .04V0h.201l.07.003L.312 0v.04L.268.039C.234.039.206.045.206.083v.223h.217C.526.312.66.367.671.483v.008c0 .142-.177.193-.289.193L.317.683H0M.202.342v.271c0 .027.019.03.04.03h.111C.444.643.56.636.56.488A.136.136 0 0 0 .526.389C.484.347.417.342.363.342H.202z"/></symbol><use xlink:href="#e" transform="matrix(5.9776 0 0 -5.9776 33.283 65.329)"/><symbol id="f"><path d="M.23 0c.008 0 .02 0 .02.012C.25.016.249.017.236.03.099.159.065.345.065.5c0 .288.119.423.17.469C.249.982.25.983.25.988.25.993.246 1 .236 1 .22 1 .17.949.162.94A.633.633 0 0 1 0 .5C0 .276.094.096.23 0z"/></symbol><use xlink:href="#f" transform="matrix(7.9701 0 0 -7.9701 39.094 66.014)"/><symbol id="g"><path d="M.196.408h.098c.019 0 .031 0 .031.019 0 .014-.013.014-.03.014H.204L.24.583c.004.015.004.02.004.021 0 .021-.016.031-.033.031C.177.635.17.608.159.563L.128.441H.032C.013.441 0 .441 0 .422 0 .408.013.408.03.408h.09L.06.168C.054.143.045.108.045.094.045.034.094 0 .147 0c.107 0 .168.141.168.153C.315.164.306.166.3.166.289.166.288.162.281.147.261.099.211.028.15.028.129.028.117.042.117.075c0 .019.003.03.006.043l.073.29z"/></symbol><use xlink:href="#g" transform="matrix(7.9701 0 0 -7.9701 41.765 64.1)"/><symbol id="h"><path d="M.49.34c0 .073 0 .346-.245.346S0 .413 0 .34C0 .268 0 0 .245 0S.49.268.49.34M.245.032c-.042 0-.11.02-.134.103C.095.193.095.291.095.353c0 .067 0 .144.014.198.025.09.101.103.136.103A.135.135 0 0 0 .379.556.818.818 0 0 0 .395.353c0-.064 0-.165-.017-.221a.136.136 0 0 0-.133-.1z"/></symbol><use xlink:href="#h" transform="matrix(5.9776 0 0 -5.9776 44.983 65.254)"/><symbol id="i"><path d="M.249.5a.691.691 0 0 1-.078.327C.122.919.031 1 .013 1 .003 1 0 .993 0 .988 0 .984 0 .982.012.97.152.837.184.654.184.5.184.213.065.077.014.031.001.018 0 .017 0 .012 0 .007.003 0 .013 0c.016 0 .066.051.074.06C.221.2.249.38.249.5z"/></symbol><use xlink:href="#i" transform="matrix(7.9701 0 0 -7.9701 49.253 66.014)"/><path d="M27.238 33.327a.996.996 0 1 0-1.993 0 .996.996 0 0 0 1.993 0zm-.996 0"/><path stroke-width=".399" stroke-miterlimit="10" fill="none" stroke="#000" d="M27.238 33.327a.996.996 0 1 0-1.993 0 .996.996 0 0 0 1.993 0zm-.996 0"/><symbol id="j"><path d="M0 .683V.65l.037.001C.072.651.101.646.101.607v-.53C.101.037.068.032.034.032L0 .033V0h.294v.033L.256.032C.222.032.193.038.193.077v.235H.39c.101.007.217.065.227.173v.009c0 .13-.147.19-.265.19L.291.683H0M.19.342v.276C.19.645.208.65.229.65h.085C.402.65.513.645.513.494.513.363.416.342.332.342H.19z"/></symbol><symbol id="k"><path d="M.229.999A.156.156 0 0 1 .187.966C.056.853 0 .671 0 .501 0 .312.067.129.218.008.223.004.229 0 .236 0c.007 0 .012.005.012.012 0 .013-.027.031-.037.043-.11.119-.145.29-.145.45 0 .165.04.336.16.456.007.007.019.014.022.024v.003C.248.996.241 1 .234 1L.229.999z"/></symbol><use xlink:href="#j" transform="matrix(7.9701 0 0 -7.9701 27.476 30.452)"/><use xlink:href="#k" transform="matrix(7.9701 0 0 -7.9701 33.7 32.445)"/><use xlink:href="#g" transform="matrix(7.9701 0 0 -7.9701 36.366 30.54)"/><use xlink:href="#h" transform="matrix(5.9776 0 0 -5.9776 39.584 31.693)"/><use xlink:href="#i" transform="matrix(7.9701 0 0 -7.9701 43.854 32.453)"/><path stroke-width=".797" stroke-miterlimit="10" fill="none" stroke="#000" d="m54.588 61.673 12.019 8.012"/><path d="M68.762 71.122 66.463 67.1l.144 2.586-2.443.863"/><use xlink:href="#b" transform="matrix(7.9701 0 0 -7.9701 57.807 75.316)"/><use xlink:href="#c" transform="matrix(7.9701 0 0 -7.9701 58.62 77.237)"/><use xlink:href="#d" transform="matrix(7.9701 0 0 -7.9701 57.345 80.636)"/><use xlink:href="#e" transform="matrix(5.9776 0 0 -5.9776 61.63 81.864)"/><use xlink:href="#f" transform="matrix(7.9701 0 0 -7.9701 67.44 82.549)"/><use xlink:href="#g" transform="matrix(7.9701 0 0 -7.9701 70.112 80.636)"/><symbol id="l"><path d="M.238.635c0 .03-.004.03-.034.03C.138.601.036.601 0 .601V.562c.026 0 .092 0 .152.028V.085c0-.033 0-.046-.103-.046H.006V0c.055.004.133.004.189.004.056 0 .134 0 .189-.004v.039H.341C.238.039.238.052.238.085v.55z"/></symbol><use xlink:href="#l" transform="matrix(5.9776 0 0 -5.9776 73.694 81.663)"/><use xlink:href="#i" transform="matrix(7.9701 0 0 -7.9701 77.6 82.549)"/><path d="M55.585 61.673a.996.996 0 1 0-1.993 0 .996.996 0 0 0 1.993 0zm-.997 0"/><path stroke-width=".399" stroke-miterlimit="10" fill="none" stroke="#000" d="M55.585 61.673a.996.996 0 1 0-1.993 0 .996.996 0 0 0 1.993 0zm-.997 0"/><use xlink:href="#j" transform="matrix(7.9701 0 0 -7.9701 55.822 58.799)"/><use xlink:href="#k" transform="matrix(7.9701 0 0 -7.9701 62.046 60.792)"/><use xlink:href="#g" transform="matrix(7.9701 0 0 -7.9701 64.712 58.887)"/><use xlink:href="#l" transform="matrix(5.9776 0 0 -5.9776 68.294 59.914)"/><use xlink:href="#i" transform="matrix(7.9701 0 0 -7.9701 72.2 60.8)"/><path stroke-width=".797" stroke-miterlimit="10" fill="none" stroke="#000" d="m82.935 75.847 11.748 4.405"/><path d="m97.109 81.162-3.153-3.395.727 2.485-2.182 1.395"/><use xlink:href="#b" transform="matrix(7.9701 0 0 -7.9701 86.154 85.355)"/><use xlink:href="#c" transform="matrix(7.9701 0 0 -7.9701 86.967 87.276)"/><use xlink:href="#d" transform="matrix(7.9701 0 0 -7.9701 85.692 90.676)"/><use xlink:href="#e" transform="matrix(5.9776 0 0 -5.9776 89.977 91.904)"/><use xlink:href="#f" transform="matrix(7.9701 0 0 -7.9701 95.787 92.589)"/><use xlink:href="#g" transform="matrix(7.9701 0 0 -7.9701 98.458 90.676)"/><symbol id="m"><path d="M.466.187H.429C.427.173.417.107.402.096.395.09.314.09.3.09H.113l.128.104c.034.027.123.091.154.121.03.03.071.081.071.152 0 .125-.113.198-.247.198C.09.665 0 .58 0 .486 0 .435.043.429.054.429c.025 0 .054.018.054.054 0 .022-.013.054-.057.054.023.051.084.089.153.089A.154.154 0 0 0 .365.467C.365.396.318.323.248.259L.011.042C.001.032 0 .031 0 0h.435l.031.187z"/></symbol><use xlink:href="#m" transform="matrix(5.9776 0 0 -5.9776 101.747 91.703)"/><use xlink:href="#i" transform="matrix(7.9701 0 0 -7.9701 105.946 92.589)"/><path d="M83.932 75.847a.996.996 0 1 0-1.993 0 .996.996 0 0 0 1.993 0zm-.997 0"/><path stroke-width=".399" stroke-miterlimit="10" fill="none" stroke="#000" d="M83.932 75.847a.996.996 0 1 0-1.993 0 .996.996 0 0 0 1.993 0zm-.997 0"/><use xlink:href="#j" transform="matrix(7.9701 0 0 -7.9701 84.168 72.972)"/><use xlink:href="#k" transform="matrix(7.9701 0 0 -7.9701 90.392 74.965)"/><use xlink:href="#g" transform="matrix(7.9701 0 0 -7.9701 93.058 73.06)"/><use xlink:href="#m" transform="matrix(5.9776 0 0 -5.9776 96.347 74.087)"/><use xlink:href="#i" transform="matrix(7.9701 0 0 -7.9701 100.546 74.973)"/><path d="M17.733 16.318a.845.845 0 1 0-1.691 0 .845.845 0 0 0 1.69 0zm-.846 0"/><symbol id="n"><path d="M.02.676 0 .449h.031C.036.5.039.571.072.607c.033.034.091.037.136.037h.038C.271.644.299.643.299.61V.078C.299.037.259.033.221.033H.157V0h.376v.033H.469c-.04 0-.078.004-.078.045V.61c0 .031.023.034.057.034h.04C.55.644.623.636.644.552.653.518.656.483.659.449H.69L.67.676H.02z"/></symbol><symbol id="o"><path d="M0 .429V.396h.016c.03 0 .06-.003.06-.05V.075C.076.034.05.033 0 .033V0l.06.003h.114L.245 0v.033L.21.032C.178.032.15.037.15.073v.168c0 .071.039.171.126.171A.052.052 0 0 1 .26.376C.26.348.283.331.306.331c.025 0 .044.02.044.045C.35.419.308.44.271.44.214.44.155.387.144.335L.143.44.093.436 0 .429z"/></symbol><symbol id="p"><path d="M.09.402v.001c.032.015.06.024.097.024C.255.427.3.376.3.299V.276c-.124 0-.3-.04-.3-.165C0 .027.101 0 .166 0 .222 0 .284.025.31.081h.001c0-.042.035-.076.076-.076A.09.09 0 0 1 .48.096v.059H.449V.106C.449.08.444.043.413.043.381.043.377.08.377.102V.27l.001.037c0 .1-.103.148-.19.148C.134.455.033.439.033.359.033.337.046.31.076.31c.032 0 .051.021.051.047 0 .02-.012.04-.037.045M.3.25V.152A.121.121 0 0 0 .178.028C.133.028.086.059.082.106V.11c0 .109.135.135.218.14z"/></symbol><symbol id="q"><path d="M.106.633V.6h.021C.16.6.19.596.19.549V.24L.191.176C.191.123.187.028.116.028.099.028.083.033.067.037v.001c.018.007.027.025.027.043a.045.045 0 0 1-.047.046C.022.127 0 .11 0 .08 0 .022.067 0 .115 0c.067 0 .13.045.144.114a.26.26 0 0 1 .005.062v.468L.106.633m.095.241a.055.055 0 0 1 .006-.11c.034 0 .057.027.057.056A.055.055 0 0 1 .21.875L.201.874z"/></symbol><symbol id="r"><path d="M.089.239h.305c.013 0 .019.007.019.019 0 .05-.015.108-.051.145a.192.192 0 0 1-.137.053A.222.222 0 0 1 0 .231C0 .117.091 0 .235 0 .31 0 .39.047.411.121L.413.13a.015.015 0 0 1-.015.015C.379.145.376.113.367.101A.147.147 0 0 0 .243.033a.147.147 0 0 0-.13.077.272.272 0 0 0-.024.129M.09.266C.1.323.11.385.169.414a.114.114 0 0 0 .054.014C.288.428.332.374.342.302L.345.266H.09z"/></symbol><symbol id="s"><path d="M.332.407A.046.046 0 0 1 .301.363c0-.028.02-.047.052-.047.028 0 .042.027.042.048 0 .073-.086.087-.147.091H.236A.232.232 0 0 1 0 .224.23.23 0 0 1 .232 0c.07 0 .139.036.167.105.002.007.008.016.008.024C.407.138.4.142.392.142.373.142.376.121.364.103A.139.139 0 0 0 .243.031C.14.031.089.129.089.23c0 .08.032.194.148.194A.213.213 0 0 0 .332.407z"/></symbol><symbol id="t"><path d="M.135.625C.135.554.101.435 0 .435V.407h.089V.149c0-.032.002-.064.019-.092C.132.016.182 0 .228 0c.084 0 .105.089.105.155v.036H.302L.303.149C.303.105.292.031.233.031.179.031.166.089.166.139v.268h.149V.44H.166v.185H.135z"/></symbol><symbol id="u"><path d="M.221.455C.106.443 0 .36 0 .218 0 .084.124 0 .239 0c.116 0 .233.09.233.221a.236.236 0 0 1-.238.234H.221M.089.203.088.229c0 .052.005.121.048.16a.15.15 0 0 0 .101.038C.339.427.383.342.383.238.383.183.381.122.343.077A.144.144 0 0 0 .236.031C.162.031.104.083.093.162L.089.203z"/></symbol><symbol id="v"><path d="M.004.429V.396H.02C.052.396.076.39.076.347V.075C.076.034.05.033 0 .033V0l.061.003h.101L.218 0v.033H.204C.175.033.15.035.15.069V.44L.113.437.004.429M.09.67A.055.055 0 0 1 .096.56C.13.56.153.587.153.616a.055.055 0 0 1-.054.055L.09.67z"/></symbol><symbol id="w"><path d="M.294.693V.66h.011C.344.66.37.658.37.599V.393A.187.187 0 0 1 .236.45C.113.45 0 .354 0 .225 0 .102.103 0 .225 0a.19.19 0 0 1 .142.063V0L.52.01v.033H.504c-.03 0-.06.003-.06.05v.611L.294.693M.089.203v.014c0 .07.013.155.09.19A.141.141 0 0 0 .36.357C.363.352.366.348.367.342V.126C.367.075.285.028.233.028c-.074 0-.127.059-.139.13L.089.203z"/></symbol><use xlink:href="#n" transform="matrix(7.9701 0 0 -7.9701 36.393 18.282)"/><use xlink:href="#o" transform="matrix(7.9701 0 0 -7.9701 41.765 18.282)"/><use xlink:href="#p" transform="matrix(7.9701 0 0 -7.9701 45.144 18.362)"/><use xlink:href="#q" transform="matrix(7.9701 0 0 -7.9701 49.209 19.908)"/><use xlink:href="#r" transform="matrix(7.9701 0 0 -7.9701 52.317 18.37)"/><use xlink:href="#s" transform="matrix(7.9701 0 0 -7.9701 56.127 18.362)"/><use xlink:href="#t" transform="matrix(7.9701 0 0 -7.9701 59.77 18.362)"/><use xlink:href="#u" transform="matrix(7.9701 0 0 -7.9701 63.133 18.362)"/><use xlink:href="#v" transform="matrix(7.9701 0 0 -7.9701 67.46 18.282)"/><use xlink:href="#o" transform="matrix(7.9701 0 0 -7.9701 69.756 18.282)"/><use xlink:href="#r" transform="matrix(7.9701 0 0 -7.9701 73.015 18.37)"/><use xlink:href="#w" transform="matrix(7.9701 0 0 -7.9701 79.647 18.362)"/><use xlink:href="#r" transform="matrix(7.9701 0 0 -7.9701 84.301 18.37)"/><use xlink:href="#j" transform="matrix(7.9701 0 0 -7.9701 91.02 18.282)"/><path stroke-width=".399" stroke-miterlimit="10" fill="none" stroke="#929292" d="M18.928 16.318h14.173"/></g></svg>