<svg xmlns="http://www.w3.org/2000/svg" xmlns:xlink="http://www.w3.org/1999/xlink" width="336.584" height="154.195" viewBox="0 0 252.438 115.646"><defs><clipPath id="e"><path d="M93 28h31v81H93Zm0 0"/></clipPath><clipPath id="f"><path d="M148.047 68.488c0-21.918-17.766-39.683-39.684-39.683S68.676 46.57 68.676 68.488s17.77 39.684 39.687 39.684c21.918 0 39.684-17.766 39.684-39.684Zm0 0"/></clipPath><clipPath id="g"><path d="M106 66h5v5h-5Zm0 0"/></clipPath><clipPath id="h"><path d="M148.047 68.488c0-21.918-17.766-39.683-39.684-39.683S68.676 46.57 68.676 68.488s17.77 39.684 39.687 39.684c21.918 0 39.684-17.766 39.684-39.684Zm0 0"/></clipPath><clipPath id="j"><path d="M104 60h9v7h-9Zm0 0"/></clipPath><clipPath id="k"><path d="M148.047 68.488c0-21.918-17.766-39.683-39.684-39.683S68.676 46.57 68.676 68.488s17.77 39.684 39.687 39.684c21.918 0 39.684-17.766 39.684-39.684Zm0 0"/></clipPath><clipPath id="m"><path d="M107 68h2v19h-2Zm0 0"/></clipPath><clipPath id="n"><path d="M148.047 68.488c0-21.918-17.766-39.683-39.684-39.683S68.676 46.57 68.676 68.488s17.77 39.684 39.687 39.684c21.918 0 39.684-17.766 39.684-39.684Zm0 0"/></clipPath><clipPath id="o"><path d="M106 84h5v5h-5Zm0 0"/></clipPath><clipPath id="p"><path d="M148.047 68.488c0-21.918-17.766-39.683-39.684-39.683S68.676 46.57 68.676 68.488s17.77 39.684 39.687 39.684c21.918 0 39.684-17.766 39.684-39.684Zm0 0"/></clipPath><clipPath id="q"><path d="M74 74h7v1h-7Zm0 0"/></clipPath><clipPath id="r"><path d="M148.047 68.488c0-21.918-17.766-39.683-39.684-39.683S68.676 46.57 68.676 68.488s17.77 39.684 39.687 39.684c21.918 0 39.684-17.766 39.684-39.684Zm0 0"/></clipPath><clipPath id="t"><path d="M74 72h9v6h-9Zm0 0"/></clipPath><clipPath id="u"><path d="M148.047 68.488c0-21.918-17.766-39.683-39.684-39.683S68.676 46.57 68.676 68.488s17.77 39.684 39.687 39.684c21.918 0 39.684-17.766 39.684-39.684Zm0 0"/></clipPath><clipPath id="w"><path d="M76 76h5v5h-5Zm0 0"/></clipPath><clipPath id="x"><path d="M148.047 68.488c0-21.918-17.766-39.683-39.684-39.683S68.676 46.57 68.676 68.488s17.77 39.684 39.687 39.684c21.918 0 39.684-17.766 39.684-39.684Zm0 0"/></clipPath><clipPath id="z"><path d="M84 74h11v10H84Zm0 0"/></clipPath><clipPath id="A"><path d="M148.047 68.488c0-21.918-17.766-39.683-39.684-39.683S68.676 46.57 68.676 68.488s17.77 39.684 39.687 39.684c21.918 0 39.684-17.766 39.684-39.684Zm0 0"/></clipPath><clipPath id="D"><path d="M96 79h2v4h-2Zm0 0"/></clipPath><clipPath id="E"><path d="M148.047 68.488c0-21.918-17.766-39.683-39.684-39.683S68.676 46.57 68.676 68.488s17.77 39.684 39.687 39.684c21.918 0 39.684-17.766 39.684-39.684Zm0 0"/></clipPath><clipPath id="G"><path d="M99 75h4v6h-4Zm0 0"/></clipPath><clipPath id="H"><path d="M148.047 68.488c0-21.918-17.766-39.683-39.684-39.683S68.676 46.57 68.676 68.488s17.77 39.684 39.687 39.684c21.918 0 39.684-17.766 39.684-39.684Zm0 0"/></clipPath><clipPath id="J"><path d="M103 74h3v10h-3Zm0 0"/></clipPath><clipPath id="K"><path d="M148.047 68.488c0-21.918-17.766-39.683-39.684-39.683S68.676 46.57 68.676 68.488s17.77 39.684 39.687 39.684c21.918 0 39.684-17.766 39.684-39.684Zm0 0"/></clipPath><clipPath id="M"><path d="M162 23h90.438v91H162Zm0 0"/></clipPath><clipPath id="N"><path d="M167 93h9v14h-9Zm0 0"/></clipPath><clipPath id="O"><path d="M247.262 68.488c0-21.918-17.77-39.683-39.688-39.683-21.914 0-39.683 17.765-39.683 39.683s17.77 39.684 39.683 39.684c21.918 0 39.688-17.766 39.688-39.684Zm0 0"/></clipPath><clipPath id="P"><path d="M168 97h4v4h-4Zm0 0"/></clipPath><clipPath id="Q"><path d="M247.262 68.488c0-21.918-17.77-39.683-39.688-39.683-21.914 0-39.683 17.765-39.683 39.683s17.77 39.684 39.683 39.684c21.918 0 39.688-17.766 39.688-39.684Zm0 0"/></clipPath><clipPath id="S"><path d="M167 80h10v29h-10Zm0 0"/></clipPath><clipPath id="T"><path d="M247.262 68.488c0-21.918-17.77-39.683-39.688-39.683-21.914 0-39.683 17.765-39.683 39.683s17.77 39.684 39.683 39.684c21.918 0 39.688-17.766 39.688-39.684Zm0 0"/></clipPath><clipPath id="U"><path d="M168 84h4v4h-4Zm0 0"/></clipPath><clipPath id="V"><path d="M247.262 68.488c0-21.918-17.77-39.683-39.688-39.683-21.914 0-39.683 17.765-39.683 39.683s17.77 39.684 39.683 39.684c21.918 0 39.688-17.766 39.688-39.684Zm0 0"/></clipPath><clipPath id="W"><path d="M167 73h15v30h-15Zm0 0"/></clipPath><clipPath id="X"><path d="M247.262 68.488c0-21.918-17.77-39.683-39.688-39.683-21.914 0-39.683 17.765-39.683 39.683s17.77 39.684 39.683 39.684c21.918 0 39.688-17.766 39.688-39.684Zm0 0"/></clipPath><clipPath id="Y"><path d="M174 78h3v3h-3Zm0 0"/></clipPath><clipPath id="Z"><path d="M247.262 68.488c0-21.918-17.77-39.683-39.688-39.683-21.914 0-39.683 17.765-39.683 39.683s17.77 39.684 39.683 39.684c21.918 0 39.688-17.766 39.688-39.684Zm0 0"/></clipPath><clipPath id="aa"><path d="M179 67h16v32h-16Zm0 0"/></clipPath><clipPath id="ab"><path d="M247.262 68.488c0-21.918-17.77-39.683-39.688-39.683-21.914 0-39.683 17.765-39.683 39.683s17.77 39.684 39.683 39.684c21.918 0 39.688-17.766 39.688-39.684Zm0 0"/></clipPath><clipPath id="ac"><path d="M187 91h4v5h-4Zm0 0"/></clipPath><clipPath id="ad"><path d="M247.262 68.488c0-21.918-17.77-39.683-39.688-39.683-21.914 0-39.683 17.765-39.683 39.683s17.77 39.684 39.683 39.684c21.918 0 39.688-17.766 39.688-39.684Zm0 0"/></clipPath><clipPath id="ae"><path d="M183 71h4v4h-4Zm0 0"/></clipPath><clipPath id="af"><path d="M247.262 68.488c0-21.918-17.77-39.683-39.688-39.683-21.914 0-39.683 17.765-39.683 39.683s17.77 39.684 39.683 39.684c21.918 0 39.688-17.766 39.688-39.684Zm0 0"/></clipPath><clipPath id="ag"><path d="M167 57h11v40h-11Zm0 0"/></clipPath><clipPath id="ah"><path d="M247.262 68.488c0-21.918-17.77-39.683-39.688-39.683-21.914 0-39.683 17.765-39.683 39.683s17.77 39.684 39.683 39.684c21.918 0 39.688-17.766 39.688-39.684Zm0 0"/></clipPath><clipPath id="ai"><path d="M170 61h3v4h-3Zm0 0"/></clipPath><clipPath id="aj"><path d="M247.262 68.488c0-21.918-17.77-39.683-39.688-39.683-21.914 0-39.683 17.765-39.683 39.683s17.77 39.684 39.683 39.684c21.918 0 39.688-17.766 39.688-39.684Zm0 0"/></clipPath><clipPath id="ak"><path d="M167 41h14v40h-14Zm0 0"/></clipPath><clipPath id="al"><path d="M247.262 68.488c0-21.918-17.77-39.683-39.688-39.683-21.914 0-39.683 17.765-39.683 39.683s17.77 39.684 39.683 39.684c21.918 0 39.688-17.766 39.688-39.684Zm0 0"/></clipPath><clipPath id="am"><path d="M174 45h3v4h-3Zm0 0"/></clipPath><clipPath id="an"><path d="M247.262 68.488c0-21.918-17.77-39.683-39.688-39.683-21.914 0-39.683 17.765-39.683 39.683s17.77 39.684 39.683 39.684c21.918 0 39.688-17.766 39.688-39.684Zm0 0"/></clipPath><clipPath id="ao"><path d="M167 36h15v26h-15Zm0 0"/></clipPath><clipPath id="ap"><path d="M247.262 68.488c0-21.918-17.77-39.683-39.688-39.683-21.914 0-39.683 17.765-39.683 39.683s17.77 39.684 39.683 39.684c21.918 0 39.688-17.766 39.688-39.684Zm0 0"/></clipPath><clipPath id="aq"><path d="M174 40h4v4h-4Zm0 0"/></clipPath><clipPath id="ar"><path d="M247.262 68.488c0-21.918-17.77-39.683-39.688-39.683-21.914 0-39.683 17.765-39.683 39.683s17.77 39.684 39.683 39.684c21.918 0 39.688-17.766 39.688-39.684Zm0 0"/></clipPath><clipPath id="as"><path d="M167 82h19v18h-19Zm0 0"/></clipPath><clipPath id="at"><path d="M247.262 68.488c0-21.918-17.77-39.683-39.688-39.683-21.914 0-39.683 17.765-39.683 39.683s17.77 39.684 39.683 39.684c21.918 0 39.688-17.766 39.688-39.684Zm0 0"/></clipPath><clipPath id="au"><path d="M178 92h4v4h-4Zm0 0"/></clipPath><clipPath id="av"><path d="M247.262 68.488c0-21.918-17.77-39.683-39.688-39.683-21.914 0-39.683 17.765-39.683 39.683s17.77 39.684 39.683 39.684c21.918 0 39.688-17.766 39.688-39.684Zm0 0"/></clipPath><clipPath id="aw"><path d="M188 84h28v14h-28Zm0 0"/></clipPath><clipPath id="ax"><path d="M247.262 68.488c0-21.918-17.77-39.683-39.688-39.683-21.914 0-39.683 17.765-39.683 39.683s17.77 39.684 39.683 39.684c21.918 0 39.688-17.766 39.688-39.684Zm0 0"/></clipPath><clipPath id="ay"><path d="M208 89h5v4h-5Zm0 0"/></clipPath><clipPath id="az"><path d="M247.262 68.488c0-21.918-17.77-39.683-39.688-39.683-21.914 0-39.683 17.765-39.683 39.683s17.77 39.684 39.683 39.684c21.918 0 39.688-17.766 39.688-39.684Zm0 0"/></clipPath><clipPath id="aA"><path d="M192 90h4v4h-4Zm0 0"/></clipPath><clipPath id="aB"><path d="M247.262 68.488c0-21.918-17.77-39.683-39.688-39.683-21.914 0-39.683 17.765-39.683 39.683s17.77 39.684 39.683 39.684c21.918 0 39.688-17.766 39.688-39.684Zm0 0"/></clipPath><clipPath id="aC"><path d="M172 72h28v19h-28Zm0 0"/></clipPath><clipPath id="aD"><path d="M247.262 68.488c0-21.918-17.77-39.683-39.688-39.683-21.914 0-39.683 17.765-39.683 39.683s17.77 39.684 39.683 39.684c21.918 0 39.688-17.766 39.688-39.684Zm0 0"/></clipPath><clipPath id="aE"><path d="M176 83h5v4h-5Zm0 0"/></clipPath><clipPath id="aF"><path d="M247.262 68.488c0-21.918-17.77-39.683-39.688-39.683-21.914 0-39.683 17.765-39.683 39.683s17.77 39.684 39.683 39.684c21.918 0 39.688-17.766 39.688-39.684Zm0 0"/></clipPath><clipPath id="aG"><path d="M192 76h4v4h-4Zm0 0"/></clipPath><clipPath id="aH"><path d="M247.262 68.488c0-21.918-17.77-39.683-39.688-39.683-21.914 0-39.683 17.765-39.683 39.683s17.77 39.684 39.683 39.684c21.918 0 39.688-17.766 39.688-39.684Zm0 0"/></clipPath><clipPath id="aI"><path d="M170 52h28v21h-28Zm0 0"/></clipPath><clipPath id="aJ"><path d="M247.262 68.488c0-21.918-17.77-39.683-39.688-39.683-21.914 0-39.683 17.765-39.683 39.683s17.77 39.684 39.683 39.684c21.918 0 39.688-17.766 39.688-39.684Zm0 0"/></clipPath><clipPath id="aK"><path d="M173 57h5v4h-5Zm0 0"/></clipPath><clipPath id="aL"><path d="M247.262 68.488c0-21.918-17.77-39.683-39.688-39.683-21.914 0-39.683 17.765-39.683 39.683s17.77 39.684 39.683 39.684c21.918 0 39.688-17.766 39.688-39.684Zm0 0"/></clipPath><clipPath id="aM"><path d="M190 65h3v3h-3Zm0 0"/></clipPath><clipPath id="aN"><path d="M247.262 68.488c0-21.918-17.77-39.683-39.688-39.683-21.914 0-39.683 17.765-39.683 39.683s17.77 39.684 39.683 39.684c21.918 0 39.688-17.766 39.688-39.684Zm0 0"/></clipPath><clipPath id="aO"><path d="M173 55h19v14h-19Zm0 0"/></clipPath><clipPath id="aP"><path d="M247.262 68.488c0-21.918-17.77-39.683-39.688-39.683-21.914 0-39.683 17.765-39.683 39.683s17.77 39.684 39.683 39.684c21.918 0 39.688-17.766 39.688-39.684Zm0 0"/></clipPath><clipPath id="aQ"><path d="M176 59h5v5h-5Zm0 0"/></clipPath><clipPath id="aR"><path d="M247.262 68.488c0-21.918-17.77-39.683-39.688-39.683-21.914 0-39.683 17.765-39.683 39.683s17.77 39.684 39.683 39.684c21.918 0 39.688-17.766 39.688-39.684Zm0 0"/></clipPath><clipPath id="aS"><path d="M184 61h4v3h-4Zm0 0"/></clipPath><clipPath id="aT"><path d="M247.262 68.488c0-21.918-17.77-39.683-39.688-39.683-21.914 0-39.683 17.765-39.683 39.683s17.77 39.684 39.683 39.684c21.918 0 39.688-17.766 39.688-39.684Zm0 0"/></clipPath><clipPath id="aU"><path d="M178 42h15v26h-15Zm0 0"/></clipPath><clipPath id="aV"><path d="M247.262 68.488c0-21.918-17.77-39.683-39.688-39.683-21.914 0-39.683 17.765-39.683 39.683s17.77 39.684 39.683 39.684c21.918 0 39.688-17.766 39.688-39.684Zm0 0"/></clipPath><clipPath id="aW"><path d="M182 60h4v4h-4Zm0 0"/></clipPath><clipPath id="aX"><path d="M247.262 68.488c0-21.918-17.77-39.683-39.688-39.683-21.914 0-39.683 17.765-39.683 39.683s17.77 39.684 39.683 39.684c21.918 0 39.688-17.766 39.688-39.684Zm0 0"/></clipPath><clipPath id="aY"><path d="M185 46h4v4h-4Zm0 0"/></clipPath><clipPath id="aZ"><path d="M247.262 68.488c0-21.918-17.77-39.683-39.688-39.683-21.914 0-39.683 17.765-39.683 39.683s17.77 39.684 39.683 39.684c21.918 0 39.688-17.766 39.688-39.684Zm0 0"/></clipPath><clipPath id="ba"><path d="M167 35h28v23h-28Zm0 0"/></clipPath><clipPath id="bb"><path d="M247.262 68.488c0-21.918-17.77-39.683-39.688-39.683-21.914 0-39.683 17.765-39.683 39.683s17.77 39.684 39.683 39.684c21.918 0 39.688-17.766 39.688-39.684Zm0 0"/></clipPath><clipPath id="bc"><path d="M169 49h5v4h-5Zm0 0"/></clipPath><clipPath id="bd"><path d="M247.262 68.488c0-21.918-17.77-39.683-39.688-39.683-21.914 0-39.683 17.765-39.683 39.683s17.77 39.684 39.683 39.684c21.918 0 39.688-17.766 39.688-39.684Zm0 0"/></clipPath><clipPath id="be"><path d="M187 39h4v4h-4Zm0 0"/></clipPath><clipPath id="bf"><path d="M247.262 68.488c0-21.918-17.77-39.683-39.688-39.683-21.914 0-39.683 17.765-39.683 39.683s17.77 39.684 39.683 39.684c21.918 0 39.688-17.766 39.688-39.684Zm0 0"/></clipPath><clipPath id="bg"><path d="M183 94h21v13h-21Zm0 0"/></clipPath><clipPath id="bh"><path d="M247.262 68.488c0-21.918-17.77-39.683-39.688-39.683-21.914 0-39.683 17.765-39.683 39.683s17.77 39.684 39.683 39.684c21.918 0 39.688-17.766 39.688-39.684Zm0 0"/></clipPath><clipPath id="bi"><path d="M186 99h5v4h-5Zm0 0"/></clipPath><clipPath id="bj"><path d="M247.262 68.488c0-21.918-17.77-39.683-39.688-39.683-21.914 0-39.683 17.765-39.683 39.683s17.77 39.684 39.683 39.684c21.918 0 39.688-17.766 39.688-39.684Zm0 0"/></clipPath><clipPath id="bk"><path d="M196 99h3v3h-3Zm0 0"/></clipPath><clipPath id="bl"><path d="M247.262 68.488c0-21.918-17.77-39.683-39.688-39.683-21.914 0-39.683 17.765-39.683 39.683s17.77 39.684 39.683 39.684c21.918 0 39.688-17.766 39.688-39.684Zm0 0"/></clipPath><clipPath id="bm"><path d="M190 84h19v25h-19Zm0 0"/></clipPath><clipPath id="bn"><path d="M247.262 68.488c0-21.918-17.77-39.683-39.688-39.683-21.914 0-39.683 17.765-39.683 39.683s17.77 39.684 39.683 39.684c21.918 0 39.688-17.766 39.688-39.684Zm0 0"/></clipPath><clipPath id="bo"><path d="M201 88h4v4h-4Zm0 0"/></clipPath><clipPath id="bp"><path d="M247.262 68.488c0-21.918-17.77-39.683-39.688-39.683-21.914 0-39.683 17.765-39.683 39.683s17.77 39.684 39.683 39.684c21.918 0 39.688-17.766 39.688-39.684Zm0 0"/></clipPath><clipPath id="bq"><path d="M187 65h24v15h-24Zm0 0"/></clipPath><clipPath id="br"><path d="M247.262 68.488c0-21.918-17.77-39.683-39.688-39.683-21.914 0-39.683 17.765-39.683 39.683s17.77 39.684 39.683 39.684c21.918 0 39.688-17.766 39.688-39.684Zm0 0"/></clipPath><clipPath id="bs"><path d="M191 69h5v4h-5Zm0 0"/></clipPath><clipPath id="bt"><path d="M247.262 68.488c0-21.918-17.77-39.683-39.688-39.683-21.914 0-39.683 17.765-39.683 39.683s17.77 39.684 39.683 39.684c21.918 0 39.688-17.766 39.688-39.684Zm0 0"/></clipPath><clipPath id="bu"><path d="M203 72h4v4h-4Zm0 0"/></clipPath><clipPath id="bv"><path d="M247.262 68.488c0-21.918-17.77-39.683-39.688-39.683-21.914 0-39.683 17.765-39.683 39.683s17.77 39.684 39.683 39.684c21.918 0 39.688-17.766 39.688-39.684Zm0 0"/></clipPath><clipPath id="bw"><path d="M195 58h21v13h-21Zm0 0"/></clipPath><clipPath id="bx"><path d="M247.262 68.488c0-21.918-17.77-39.683-39.688-39.683-21.914 0-39.683 17.765-39.683 39.683s17.77 39.684 39.683 39.684c21.918 0 39.688-17.766 39.688-39.684Zm0 0"/></clipPath><clipPath id="by"><path d="M208 62h4v5h-4Zm0 0"/></clipPath><clipPath id="bz"><path d="M247.262 68.488c0-21.918-17.77-39.683-39.688-39.683-21.914 0-39.683 17.765-39.683 39.683s17.77 39.684 39.683 39.684c21.918 0 39.688-17.766 39.688-39.684Zm0 0"/></clipPath><clipPath id="bA"><path d="M199 63h4v3h-4Zm0 0"/></clipPath><clipPath id="bB"><path d="M247.262 68.488c0-21.918-17.77-39.683-39.688-39.683-21.914 0-39.683 17.765-39.683 39.683s17.77 39.684 39.683 39.684c21.918 0 39.688-17.766 39.688-39.684Zm0 0"/></clipPath><clipPath id="bC"><path d="M189 50h16v15h-16Zm0 0"/></clipPath><clipPath id="bD"><path d="M247.262 68.488c0-21.918-17.77-39.683-39.688-39.683-21.914 0-39.683 17.765-39.683 39.683s17.77 39.684 39.683 39.684c21.918 0 39.688-17.766 39.688-39.684Zm0 0"/></clipPath><clipPath id="bE"><path d="M196 57h5v4h-5Zm0 0"/></clipPath><clipPath id="bF"><path d="M247.262 68.488c0-21.918-17.77-39.683-39.688-39.683-21.914 0-39.683 17.765-39.683 39.683s17.77 39.684 39.683 39.684c21.918 0 39.688-17.766 39.688-39.684Zm0 0"/></clipPath><clipPath id="bG"><path d="M193 54h4v4h-4Zm0 0"/></clipPath><clipPath id="bH"><path d="M247.262 68.488c0-21.918-17.77-39.683-39.688-39.683-21.914 0-39.683 17.765-39.683 39.683s17.77 39.684 39.683 39.684c21.918 0 39.688-17.766 39.688-39.684Zm0 0"/></clipPath><clipPath id="bI"><path d="M182 42h20v31h-20Zm0 0"/></clipPath><clipPath id="bJ"><path d="M247.262 68.488c0-21.918-17.77-39.683-39.688-39.683-21.914 0-39.683 17.765-39.683 39.683s17.77 39.684 39.683 39.684c21.918 0 39.688-17.766 39.688-39.684Zm0 0"/></clipPath><clipPath id="bK"><path d="M186 65h4v4h-4Zm0 0"/></clipPath><clipPath id="bL"><path d="M247.262 68.488c0-21.918-17.77-39.683-39.688-39.683-21.914 0-39.683 17.765-39.683 39.683s17.77 39.684 39.683 39.684c21.918 0 39.688-17.766 39.688-39.684Zm0 0"/></clipPath><clipPath id="bM"><path d="M194 46h3v4h-3Zm0 0"/></clipPath><clipPath id="bN"><path d="M247.262 68.488c0-21.918-17.77-39.683-39.688-39.683-21.914 0-39.683 17.765-39.683 39.683s17.77 39.684 39.683 39.684c21.918 0 39.688-17.766 39.688-39.684Zm0 0"/></clipPath><clipPath id="bO"><path d="M186 29h20v20h-20Zm0 0"/></clipPath><clipPath id="bP"><path d="M247.262 68.488c0-21.918-17.77-39.683-39.688-39.683-21.914 0-39.683 17.765-39.683 39.683s17.77 39.684 39.683 39.684c21.918 0 39.688-17.766 39.688-39.684Zm0 0"/></clipPath><clipPath id="bQ"><path d="M191 40h4v4h-4Zm0 0"/></clipPath><clipPath id="bR"><path d="M247.262 68.488c0-21.918-17.77-39.683-39.688-39.683-21.914 0-39.683 17.765-39.683 39.683s17.77 39.684 39.683 39.684c21.918 0 39.688-17.766 39.688-39.684Zm0 0"/></clipPath><clipPath id="bS"><path d="M198 33h3v4h-3Zm0 0"/></clipPath><clipPath id="bT"><path d="M247.262 68.488c0-21.918-17.77-39.683-39.688-39.683-21.914 0-39.683 17.765-39.683 39.683s17.77 39.684 39.683 39.684c21.918 0 39.688-17.766 39.688-39.684Zm0 0"/></clipPath><clipPath id="bU"><path d="M191 89h22v12h-22Zm0 0"/></clipPath><clipPath id="bV"><path d="M247.262 68.488c0-21.918-17.77-39.683-39.688-39.683-21.914 0-39.683 17.765-39.683 39.683s17.77 39.684 39.683 39.684c21.918 0 39.688-17.766 39.688-39.684Zm0 0"/></clipPath><clipPath id="bW"><path d="M195 93h4v4h-4Zm0 0"/></clipPath><clipPath id="bX"><path d="M247.262 68.488c0-21.918-17.77-39.683-39.688-39.683-21.914 0-39.683 17.765-39.683 39.683s17.77 39.684 39.683 39.684c21.918 0 39.688-17.766 39.688-39.684Zm0 0"/></clipPath><clipPath id="bY"><path d="M205 93h4v4h-4Zm0 0"/></clipPath><clipPath id="bZ"><path d="M247.262 68.488c0-21.918-17.77-39.683-39.688-39.683-21.914 0-39.683 17.765-39.683 39.683s17.77 39.684 39.683 39.684c21.918 0 39.688-17.766 39.688-39.684Zm0 0"/></clipPath><clipPath id="ca"><path d="M191 86h24v23h-24Zm0 0"/></clipPath><clipPath id="cb"><path d="M247.262 68.488c0-21.918-17.77-39.683-39.688-39.683-21.914 0-39.683 17.765-39.683 39.683s17.77 39.684 39.683 39.684c21.918 0 39.688-17.766 39.688-39.684Zm0 0"/></clipPath><clipPath id="cc"><path d="M207 91h4v3h-4Zm0 0"/></clipPath><clipPath id="cd"><path d="M247.262 68.488c0-21.918-17.77-39.683-39.688-39.683-21.914 0-39.683 17.765-39.683 39.683s17.77 39.684 39.683 39.684c21.918 0 39.688-17.766 39.688-39.684Zm0 0"/></clipPath><clipPath id="ce"><path d="M199 69h28v18h-28Zm0 0"/></clipPath><clipPath id="cf"><path d="M247.262 68.488c0-21.918-17.77-39.683-39.688-39.683-21.914 0-39.683 17.765-39.683 39.683s17.77 39.684 39.683 39.684c21.918 0 39.688-17.766 39.688-39.684Zm0 0"/></clipPath><clipPath id="cg"><path d="M219 78h4v4h-4Zm0 0"/></clipPath><clipPath id="ch"><path d="M247.262 68.488c0-21.918-17.77-39.683-39.688-39.683-21.914 0-39.683 17.765-39.683 39.683s17.77 39.684 39.683 39.684c21.918 0 39.688-17.766 39.688-39.684Zm0 0"/></clipPath><clipPath id="ci"><path d="M203 73h4v4h-4Zm0 0"/></clipPath><clipPath id="cj"><path d="M247.262 68.488c0-21.918-17.77-39.683-39.688-39.683-21.914 0-39.683 17.765-39.683 39.683s17.77 39.684 39.683 39.684c21.918 0 39.688-17.766 39.688-39.684Zm0 0"/></clipPath><clipPath id="ck"><path d="M191 55h28v20h-28Zm0 0"/></clipPath><clipPath id="cl"><path d="M247.262 68.488c0-21.918-17.77-39.683-39.688-39.683-21.914 0-39.683 17.765-39.683 39.683s17.77 39.684 39.683 39.684c21.918 0 39.688-17.766 39.688-39.684Zm0 0"/></clipPath><clipPath id="cm"><path d="M195 60h5v4h-5Zm0 0"/></clipPath><clipPath id="cn"><path d="M247.262 68.488c0-21.918-17.77-39.683-39.688-39.683-21.914 0-39.683 17.765-39.683 39.683s17.77 39.684 39.683 39.684c21.918 0 39.688-17.766 39.688-39.684Zm0 0"/></clipPath><clipPath id="co"><path d="M211 67h4v4h-4Zm0 0"/></clipPath><clipPath id="cp"><path d="M247.262 68.488c0-21.918-17.77-39.683-39.688-39.683-21.914 0-39.683 17.765-39.683 39.683s17.77 39.684 39.683 39.684c21.918 0 39.688-17.766 39.688-39.684Zm0 0"/></clipPath><clipPath id="cq"><path d="M199 50h15v24h-15Zm0 0"/></clipPath><clipPath id="cr"><path d="M247.262 68.488c0-21.918-17.77-39.683-39.688-39.683-21.914 0-39.683 17.765-39.683 39.683s17.77 39.684 39.683 39.684c21.918 0 39.688-17.766 39.688-39.684Zm0 0"/></clipPath><clipPath id="cs"><path d="M203 66h4v5h-4Zm0 0"/></clipPath><clipPath id="ct"><path d="M247.262 68.488c0-21.918-17.77-39.683-39.688-39.683-21.914 0-39.683 17.765-39.683 39.683s17.77 39.684 39.683 39.684c21.918 0 39.688-17.766 39.688-39.684Zm0 0"/></clipPath><clipPath id="cu"><path d="M206 54h4v4h-4Zm0 0"/></clipPath><clipPath id="cv"><path d="M247.262 68.488c0-21.918-17.77-39.683-39.688-39.683-21.914 0-39.683 17.765-39.683 39.683s17.77 39.684 39.683 39.684c21.918 0 39.688-17.766 39.688-39.684Zm0 0"/></clipPath><clipPath id="cw"><path d="M202 43h28v36h-28Zm0 0"/></clipPath><clipPath id="cx"><path d="M247.262 68.488c0-21.918-17.77-39.683-39.688-39.683-21.914 0-39.683 17.765-39.683 39.683s17.77 39.684 39.683 39.684c21.918 0 39.688-17.766 39.688-39.684Zm0 0"/></clipPath><clipPath id="cy"><path d="M221 71h4v5h-4Zm0 0"/></clipPath><clipPath id="cz"><path d="M247.262 68.488c0-21.918-17.77-39.683-39.688-39.683-21.914 0-39.683 17.765-39.683 39.683s17.77 39.684 39.683 39.684c21.918 0 39.688-17.766 39.688-39.684Zm0 0"/></clipPath><clipPath id="cA"><path d="M206 47h4v4h-4Zm0 0"/></clipPath><clipPath id="cB"><path d="M247.262 68.488c0-21.918-17.77-39.683-39.688-39.683-21.914 0-39.683 17.765-39.683 39.683s17.77 39.684 39.683 39.684c21.918 0 39.688-17.766 39.688-39.684Zm0 0"/></clipPath><clipPath id="cC"><path d="M206 35h13v17h-13Zm0 0"/></clipPath><clipPath id="cD"><path d="M247.262 68.488c0-21.918-17.77-39.683-39.688-39.683-21.914 0-39.683 17.765-39.683 39.683s17.77 39.684 39.683 39.684c21.918 0 39.688-17.766 39.688-39.684Zm0 0"/></clipPath><clipPath id="cE"><path d="M211 44h4v4h-4Zm0 0"/></clipPath><clipPath id="cF"><path d="M247.262 68.488c0-21.918-17.77-39.683-39.688-39.683-21.914 0-39.683 17.765-39.683 39.683s17.77 39.684 39.683 39.684c21.918 0 39.688-17.766 39.688-39.684Zm0 0"/></clipPath><clipPath id="cG"><path d="M211 39h3v4h-3Zm0 0"/></clipPath><clipPath id="cH"><path d="M247.262 68.488c0-21.918-17.77-39.683-39.688-39.683-21.914 0-39.683 17.765-39.683 39.683s17.77 39.684 39.683 39.684c21.918 0 39.688-17.766 39.688-39.684Zm0 0"/></clipPath><clipPath id="cI"><path d="M208 88h23v21h-23Zm0 0"/></clipPath><clipPath id="cJ"><path d="M247.262 68.488c0-21.918-17.77-39.683-39.688-39.683-21.914 0-39.683 17.765-39.683 39.683s17.77 39.684 39.683 39.684c21.918 0 39.688-17.766 39.688-39.684Zm0 0"/></clipPath><clipPath id="cK"><path d="M212 100h5v5h-5Zm0 0"/></clipPath><clipPath id="cL"><path d="M247.262 68.488c0-21.918-17.77-39.683-39.688-39.683-21.914 0-39.683 17.765-39.683 39.683s17.77 39.684 39.683 39.684c21.918 0 39.688-17.766 39.688-39.684Zm0 0"/></clipPath><clipPath id="cM"><path d="M223 92h4v4h-4Zm0 0"/></clipPath><clipPath id="cN"><path d="M247.262 68.488c0-21.918-17.77-39.683-39.688-39.683-21.914 0-39.683 17.765-39.683 39.683s17.77 39.684 39.683 39.684c21.918 0 39.688-17.766 39.688-39.684Zm0 0"/></clipPath><clipPath id="cO"><path d="M192 78h29v21h-29Zm0 0"/></clipPath><clipPath id="cP"><path d="M247.262 68.488c0-21.918-17.77-39.683-39.688-39.683-21.914 0-39.683 17.765-39.683 39.683s17.77 39.684 39.683 39.684c21.918 0 39.688-17.766 39.688-39.684Zm0 0"/></clipPath><clipPath id="cQ"><path d="M196 91h5v4h-5Zm0 0"/></clipPath><clipPath id="cR"><path d="M247.262 68.488c0-21.918-17.77-39.683-39.688-39.683-21.914 0-39.683 17.765-39.683 39.683s17.77 39.684 39.683 39.684c21.918 0 39.688-17.766 39.688-39.684Zm0 0"/></clipPath><clipPath id="cS"><path d="M213 82h4v4h-4Zm0 0"/></clipPath><clipPath id="cT"><path d="M247.262 68.488c0-21.918-17.77-39.683-39.688-39.683-21.914 0-39.683 17.765-39.683 39.683s17.77 39.684 39.683 39.684c21.918 0 39.688-17.766 39.688-39.684Zm0 0"/></clipPath><clipPath id="cU"><path d="M206 66h12v15h-12Zm0 0"/></clipPath><clipPath id="cV"><path d="M247.262 68.488c0-21.918-17.77-39.683-39.688-39.683-21.914 0-39.683 17.765-39.683 39.683s17.77 39.684 39.683 39.684c21.918 0 39.688-17.766 39.688-39.684Zm0 0"/></clipPath><clipPath id="cW"><path d="M210 70h4v4h-4Zm0 0"/></clipPath><clipPath id="cX"><path d="M247.262 68.488c0-21.918-17.77-39.683-39.688-39.683-21.914 0-39.683 17.765-39.683 39.683s17.77 39.684 39.683 39.684c21.918 0 39.688-17.766 39.688-39.684Zm0 0"/></clipPath><clipPath id="cY"><path d="M210 72h4v4h-4Zm0 0"/></clipPath><clipPath id="cZ"><path d="M247.262 68.488c0-21.918-17.77-39.683-39.688-39.683-21.914 0-39.683 17.765-39.683 39.683s17.77 39.684 39.683 39.684c21.918 0 39.688-17.766 39.688-39.684Zm0 0"/></clipPath><clipPath id="da"><path d="M193 60h26v12h-26Zm0 0"/></clipPath><clipPath id="db"><path d="M247.262 68.488c0-21.918-17.77-39.683-39.688-39.683-21.914 0-39.683 17.765-39.683 39.683s17.77 39.684 39.683 39.684c21.918 0 39.688-17.766 39.688-39.684Zm0 0"/></clipPath><clipPath id="dc"><path d="M197 64h4v4h-4Zm0 0"/></clipPath><clipPath id="dd"><path d="M247.262 68.488c0-21.918-17.77-39.683-39.688-39.683-21.914 0-39.683 17.765-39.683 39.683s17.77 39.684 39.683 39.684c21.918 0 39.688-17.766 39.688-39.684Zm0 0"/></clipPath><clipPath id="de"><path d="M211 64h3v4h-3Zm0 0"/></clipPath><clipPath id="df"><path d="M247.262 68.488c0-21.918-17.77-39.683-39.688-39.683-21.914 0-39.683 17.765-39.683 39.683s17.77 39.684 39.683 39.684c21.918 0 39.688-17.766 39.688-39.684Zm0 0"/></clipPath><clipPath id="dg"><path d="M197 57h23v30h-23Zm0 0"/></clipPath><clipPath id="dh"><path d="M247.262 68.488c0-21.918-17.77-39.683-39.688-39.683-21.914 0-39.683 17.765-39.683 39.683s17.77 39.684 39.683 39.684c21.918 0 39.688-17.766 39.688-39.684Zm0 0"/></clipPath><clipPath id="di"><path d="M202 78h4v5h-4Zm0 0"/></clipPath><clipPath id="dj"><path d="M247.262 68.488c0-21.918-17.77-39.683-39.688-39.683-21.914 0-39.683 17.765-39.683 39.683s17.77 39.684 39.683 39.684c21.918 0 39.688-17.766 39.688-39.684Zm0 0"/></clipPath><clipPath id="dk"><path d="M212 61h4v4h-4Zm0 0"/></clipPath><clipPath id="dl"><path d="M247.262 68.488c0-21.918-17.77-39.683-39.688-39.683-21.914 0-39.683 17.765-39.683 39.683s17.77 39.684 39.683 39.684c21.918 0 39.688-17.766 39.688-39.684Zm0 0"/></clipPath><clipPath id="dm"><path d="M200 38h25v13h-25Zm0 0"/></clipPath><clipPath id="dn"><path d="M247.262 68.488c0-21.918-17.77-39.683-39.688-39.683-21.914 0-39.683 17.765-39.683 39.683s17.77 39.684 39.683 39.684c21.918 0 39.688-17.766 39.688-39.684Zm0 0"/></clipPath><clipPath id="do"><path d="M204 43h4v4h-4Zm0 0"/></clipPath><clipPath id="dp"><path d="M247.262 68.488c0-21.918-17.77-39.683-39.688-39.683-21.914 0-39.683 17.765-39.683 39.683s17.77 39.684 39.683 39.684c21.918 0 39.688-17.766 39.688-39.684Zm0 0"/></clipPath><clipPath id="dq"><path d="M217 42h3v4h-3Zm0 0"/></clipPath><clipPath id="dr"><path d="M247.262 68.488c0-21.918-17.77-39.683-39.688-39.683-21.914 0-39.683 17.765-39.683 39.683s17.77 39.684 39.683 39.684c21.918 0 39.688-17.766 39.688-39.684Zm0 0"/></clipPath><clipPath id="ds"><path d="M204 33h18v14h-18Zm0 0"/></clipPath><clipPath id="dt"><path d="M247.262 68.488c0-21.918-17.77-39.683-39.688-39.683-21.914 0-39.683 17.765-39.683 39.683s17.77 39.684 39.683 39.684c21.918 0 39.688-17.766 39.688-39.684Zm0 0"/></clipPath><clipPath id="du"><path d="M208 38h4v4h-4Zm0 0"/></clipPath><clipPath id="dv"><path d="M247.262 68.488c0-21.918-17.77-39.683-39.688-39.683-21.914 0-39.683 17.765-39.683 39.683s17.77 39.684 39.683 39.684c21.918 0 39.688-17.766 39.688-39.684Zm0 0"/></clipPath><clipPath id="dw"><path d="M214 37h4v4h-4Zm0 0"/></clipPath><clipPath id="dx"><path d="M247.262 68.488c0-21.918-17.77-39.683-39.688-39.683-21.914 0-39.683 17.765-39.683 39.683s17.77 39.684 39.683 39.684c21.918 0 39.688-17.766 39.688-39.684Zm0 0"/></clipPath><clipPath id="dy"><path d="M216 88h13v21h-13Zm0 0"/></clipPath><clipPath id="dz"><path d="M247.262 68.488c0-21.918-17.77-39.683-39.688-39.683-21.914 0-39.683 17.765-39.683 39.683s17.77 39.684 39.683 39.684c21.918 0 39.688-17.766 39.688-39.684Zm0 0"/></clipPath><clipPath id="dA"><path d="M221 104h4v4h-4Zm0 0"/></clipPath><clipPath id="dB"><path d="M247.262 68.488c0-21.918-17.77-39.683-39.688-39.683-21.914 0-39.683 17.765-39.683 39.683s17.77 39.684 39.683 39.684c21.918 0 39.688-17.766 39.688-39.684Zm0 0"/></clipPath><clipPath id="dC"><path d="M220 93h4v3h-4Zm0 0"/></clipPath><clipPath id="dD"><path d="M247.262 68.488c0-21.918-17.77-39.683-39.688-39.683-21.914 0-39.683 17.765-39.683 39.683s17.77 39.684 39.683 39.684c21.918 0 39.688-17.766 39.688-39.684Zm0 0"/></clipPath><clipPath id="dE"><path d="M211 80h16v15h-16Zm0 0"/></clipPath><clipPath id="dF"><path d="M247.262 68.488c0-21.918-17.77-39.683-39.688-39.683-21.914 0-39.683 17.765-39.683 39.683s17.77 39.684 39.683 39.684c21.918 0 39.688-17.766 39.688-39.684Zm0 0"/></clipPath><clipPath id="dG"><path d="M215 85h4v4h-4Zm0 0"/></clipPath><clipPath id="dH"><path d="M247.262 68.488c0-21.918-17.77-39.683-39.688-39.683-21.914 0-39.683 17.765-39.683 39.683s17.77 39.684 39.683 39.684c21.918 0 39.688-17.766 39.688-39.684Zm0 0"/></clipPath><clipPath id="dI"><path d="M219 86h3v4h-3Zm0 0"/></clipPath><clipPath id="dJ"><path d="M247.262 68.488c0-21.918-17.77-39.683-39.688-39.683-21.914 0-39.683 17.765-39.683 39.683s17.77 39.684 39.683 39.684c21.918 0 39.688-17.766 39.688-39.684Zm0 0"/></clipPath><clipPath id="dK"><path d="M212 75h23v34h-23Zm0 0"/></clipPath><clipPath id="dL"><path d="M247.262 68.488c0-21.918-17.77-39.683-39.688-39.683-21.914 0-39.683 17.765-39.683 39.683s17.77 39.684 39.683 39.684c21.918 0 39.688-17.766 39.688-39.684Zm0 0"/></clipPath><clipPath id="dM"><path d="M216 107h4v2h-4Zm0 0"/></clipPath><clipPath id="dN"><path d="M247.262 68.488c0-21.918-17.77-39.683-39.688-39.683-21.914 0-39.683 17.765-39.683 39.683s17.77 39.684 39.683 39.684c21.918 0 39.688-17.766 39.688-39.684Zm0 0"/></clipPath><clipPath id="dO"><path d="M227 79h4v4h-4Zm0 0"/></clipPath><clipPath id="dP"><path d="M247.262 68.488c0-21.918-17.77-39.683-39.688-39.683-21.914 0-39.683 17.765-39.683 39.683s17.77 39.684 39.683 39.684c21.918 0 39.688-17.766 39.688-39.684Zm0 0"/></clipPath><clipPath id="dQ"><path d="M223 67h14v19h-14Zm0 0"/></clipPath><clipPath id="dR"><path d="M247.262 68.488c0-21.918-17.77-39.683-39.688-39.683-21.914 0-39.683 17.765-39.683 39.683s17.77 39.684 39.683 39.684c21.918 0 39.688-17.766 39.688-39.684Zm0 0"/></clipPath><clipPath id="dS"><path d="M229 78h4v5h-4Zm0 0"/></clipPath><clipPath id="dT"><path d="M247.262 68.488c0-21.918-17.77-39.683-39.688-39.683-21.914 0-39.683 17.765-39.683 39.683s17.77 39.684 39.683 39.684c21.918 0 39.688-17.766 39.688-39.684Zm0 0"/></clipPath><clipPath id="dU"><path d="M227 71h4v4h-4Zm0 0"/></clipPath><clipPath id="dV"><path d="M247.262 68.488c0-21.918-17.77-39.683-39.688-39.683-21.914 0-39.683 17.765-39.683 39.683s17.77 39.684 39.683 39.684c21.918 0 39.688-17.766 39.688-39.684Zm0 0"/></clipPath><clipPath id="dW"><path d="M207 52h29v36h-29Zm0 0"/></clipPath><clipPath id="dX"><path d="M247.262 68.488c0-21.918-17.77-39.683-39.688-39.683-21.914 0-39.683 17.765-39.683 39.683s17.77 39.684 39.683 39.684c21.918 0 39.688-17.766 39.688-39.684Zm0 0"/></clipPath><clipPath id="dY"><path d="M211 80h5v4h-5Zm0 0"/></clipPath><clipPath id="dZ"><path d="M247.262 68.488c0-21.918-17.77-39.683-39.688-39.683-21.914 0-39.683 17.765-39.683 39.683s17.77 39.684 39.683 39.684c21.918 0 39.688-17.766 39.688-39.684Zm0 0"/></clipPath><clipPath id="ea"><path d="M228 56h4v4h-4Zm0 0"/></clipPath><clipPath id="eb"><path d="M247.262 68.488c0-21.918-17.77-39.683-39.688-39.683-21.914 0-39.683 17.765-39.683 39.683s17.77 39.684 39.683 39.684c21.918 0 39.688-17.766 39.688-39.684Zm0 0"/></clipPath><clipPath id="ec"><path d="M201 40h25v37h-25Zm0 0"/></clipPath><clipPath id="ed"><path d="M247.262 68.488c0-21.918-17.77-39.683-39.688-39.683-21.914 0-39.683 17.765-39.683 39.683s17.77 39.684 39.683 39.684c21.918 0 39.688-17.766 39.688-39.684Zm0 0"/></clipPath><clipPath id="ee"><path d="M206 68h4v5h-4Zm0 0"/></clipPath><clipPath id="ef"><path d="M247.262 68.488c0-21.918-17.77-39.683-39.688-39.683-21.914 0-39.683 17.765-39.683 39.683s17.77 39.684 39.683 39.684c21.918 0 39.688-17.766 39.688-39.684Zm0 0"/></clipPath><clipPath id="eg"><path d="M218 44h4v4h-4Zm0 0"/></clipPath><clipPath id="eh"><path d="M247.262 68.488c0-21.918-17.77-39.683-39.688-39.683-21.914 0-39.683 17.765-39.683 39.683s17.77 39.684 39.683 39.684c21.918 0 39.688-17.766 39.688-39.684Zm0 0"/></clipPath><clipPath id="ei"><path d="M204 35h29v25h-29Zm0 0"/></clipPath><clipPath id="ej"><path d="M247.262 68.488c0-21.918-17.77-39.683-39.688-39.683-21.914 0-39.683 17.765-39.683 39.683s17.77 39.684 39.683 39.684c21.918 0 39.688-17.766 39.688-39.684Zm0 0"/></clipPath><clipPath id="ek"><path d="M208 51h4v4h-4Zm0 0"/></clipPath><clipPath id="el"><path d="M247.262 68.488c0-21.918-17.77-39.683-39.688-39.683-21.914 0-39.683 17.765-39.683 39.683s17.77 39.684 39.683 39.684c21.918 0 39.688-17.766 39.688-39.684Zm0 0"/></clipPath><clipPath id="em"><path d="M225 39h4v3h-4Zm0 0"/></clipPath><clipPath id="en"><path d="M247.262 68.488c0-21.918-17.77-39.683-39.688-39.683-21.914 0-39.683 17.765-39.683 39.683s17.77 39.684 39.683 39.684c21.918 0 39.688-17.766 39.688-39.684Zm0 0"/></clipPath><clipPath id="eo"><path d="M226 96h13v12h-13Zm0 0"/></clipPath><clipPath id="ep"><path d="M247.262 68.488c0-21.918-17.77-39.683-39.688-39.683-21.914 0-39.683 17.765-39.683 39.683s17.77 39.684 39.683 39.684c21.918 0 39.688-17.766 39.688-39.684Zm0 0"/></clipPath><clipPath id="eq"><path d="M231 100h4v4h-4Zm0 0"/></clipPath><clipPath id="er"><path d="M247.262 68.488c0-21.918-17.77-39.683-39.688-39.683-21.914 0-39.683 17.765-39.683 39.683s17.77 39.684 39.683 39.684c21.918 0 39.688-17.766 39.688-39.684Zm0 0"/></clipPath><clipPath id="es"><path d="M231 100h3v4h-3Zm0 0"/></clipPath><clipPath id="et"><path d="M247.262 68.488c0-21.918-17.77-39.683-39.688-39.683-21.914 0-39.683 17.765-39.683 39.683s17.77 39.684 39.683 39.684c21.918 0 39.688-17.766 39.688-39.684Zm0 0"/></clipPath><clipPath id="eu"><path d="M231 74h17v16h-17Zm0 0"/></clipPath><clipPath id="ev"><path d="M247.262 68.488c0-21.918-17.77-39.683-39.688-39.683-21.914 0-39.683 17.765-39.683 39.683s17.77 39.684 39.683 39.684c21.918 0 39.688-17.766 39.688-39.684Zm0 0"/></clipPath><clipPath id="ew"><path d="M241 79h5v4h-5Zm0 0"/></clipPath><clipPath id="ex"><path d="M247.262 68.488c0-21.918-17.77-39.683-39.688-39.683-21.914 0-39.683 17.765-39.683 39.683s17.77 39.684 39.683 39.684c21.918 0 39.688-17.766 39.688-39.684Zm0 0"/></clipPath><clipPath id="ey"><path d="M235 82h4v4h-4Zm0 0"/></clipPath><clipPath id="ez"><path d="M247.262 68.488c0-21.918-17.77-39.683-39.688-39.683-21.914 0-39.683 17.765-39.683 39.683s17.77 39.684 39.683 39.684c21.918 0 39.688-17.766 39.688-39.684Zm0 0"/></clipPath><clipPath id="eA"><path d="M225 65h23v20h-23Zm0 0"/></clipPath><clipPath id="eB"><path d="M247.262 68.488c0-21.918-17.77-39.683-39.688-39.683-21.914 0-39.683 17.765-39.683 39.683s17.77 39.684 39.683 39.684c21.918 0 39.688-17.766 39.688-39.684Zm0 0"/></clipPath><clipPath id="eC"><path d="M241 70h5v4h-5Zm0 0"/></clipPath><clipPath id="eD"><path d="M247.262 68.488c0-21.918-17.77-39.683-39.688-39.683-21.914 0-39.683 17.765-39.683 39.683s17.77 39.684 39.683 39.684c21.918 0 39.688-17.766 39.688-39.684Zm0 0"/></clipPath><clipPath id="eE"><path d="M230 77h3v3h-3Zm0 0"/></clipPath><clipPath id="eF"><path d="M247.262 68.488c0-21.918-17.77-39.683-39.688-39.683-21.914 0-39.683 17.765-39.683 39.683s17.77 39.684 39.683 39.684c21.918 0 39.688-17.766 39.688-39.684Zm0 0"/></clipPath><clipPath id="eG"><path d="M233 61h15v30h-15Zm0 0"/></clipPath><clipPath id="eH"><path d="M247.262 68.488c0-21.918-17.77-39.683-39.688-39.683-21.914 0-39.683 17.765-39.683 39.683s17.77 39.684 39.683 39.684c21.918 0 39.688-17.766 39.688-39.684Zm0 0"/></clipPath><clipPath id="eI"><path d="M247 83h1v4h-1Zm0 0"/></clipPath><clipPath id="eJ"><path d="M247.262 68.488c0-21.918-17.77-39.683-39.688-39.683-21.914 0-39.683 17.765-39.683 39.683s17.77 39.684 39.683 39.684c21.918 0 39.688-17.766 39.688-39.684Zm0 0"/></clipPath><clipPath id="eK"><path d="M237 65h4v4h-4Zm0 0"/></clipPath><clipPath id="eL"><path d="M247.262 68.488c0-21.918-17.77-39.683-39.688-39.683-21.914 0-39.683 17.765-39.683 39.683s17.77 39.684 39.683 39.684c21.918 0 39.688-17.766 39.688-39.684Zm0 0"/></clipPath><clipPath id="eM"><path d="M213 53h27v39h-27Zm0 0"/></clipPath><clipPath id="eN"><path d="M247.262 68.488c0-21.918-17.77-39.683-39.688-39.683-21.914 0-39.683 17.765-39.683 39.683s17.77 39.684 39.683 39.684c21.918 0 39.688-17.766 39.688-39.684Zm0 0"/></clipPath><clipPath id="eO"><path d="M218 84h4v4h-4Zm0 0"/></clipPath><clipPath id="eP"><path d="M247.262 68.488c0-21.918-17.77-39.683-39.688-39.683-21.914 0-39.683 17.765-39.683 39.683s17.77 39.684 39.683 39.684c21.918 0 39.688-17.766 39.688-39.684Zm0 0"/></clipPath><clipPath id="eQ"><path d="M232 57h3v3h-3Zm0 0"/></clipPath><clipPath id="eR"><path d="M247.262 68.488c0-21.918-17.77-39.683-39.688-39.683-21.914 0-39.683 17.765-39.683 39.683s17.77 39.684 39.683 39.684c21.918 0 39.688-17.766 39.688-39.684Zm0 0"/></clipPath><clipPath id="eS"><path d="M236 40h12v17h-12Zm0 0"/></clipPath><clipPath id="eT"><path d="M247.262 68.488c0-21.918-17.77-39.683-39.688-39.683-21.914 0-39.683 17.765-39.683 39.683s17.77 39.684 39.683 39.684c21.918 0 39.688-17.766 39.688-39.684Zm0 0"/></clipPath><clipPath id="eU"><path d="M241 49h4v4h-4Zm0 0"/></clipPath><clipPath id="eV"><path d="M247.262 68.488c0-21.918-17.77-39.683-39.688-39.683-21.914 0-39.683 17.765-39.683 39.683s17.77 39.684 39.683 39.684c21.918 0 39.688-17.766 39.688-39.684Zm0 0"/></clipPath><clipPath id="eW"><path d="M240 44h4v4h-4Zm0 0"/></clipPath><clipPath id="eX"><path d="M247.262 68.488c0-21.918-17.77-39.683-39.688-39.683-21.914 0-39.683 17.765-39.683 39.683s17.77 39.684 39.683 39.684c21.918 0 39.688-17.766 39.688-39.684Zm0 0"/></clipPath><clipPath id="eY"><path d="M227 32h16v29h-16Zm0 0"/></clipPath><clipPath id="eZ"><path d="M247.262 68.488c0-21.918-17.77-39.683-39.688-39.683-21.914 0-39.683 17.765-39.683 39.683s17.77 39.684 39.683 39.684c21.918 0 39.688-17.766 39.688-39.684Zm0 0"/></clipPath><clipPath id="fa"><path d="M232 53h4v4h-4Zm0 0"/></clipPath><clipPath id="fb"><path d="M247.262 68.488c0-21.918-17.77-39.683-39.688-39.683-21.914 0-39.683 17.765-39.683 39.683s17.77 39.684 39.683 39.684c21.918 0 39.688-17.766 39.688-39.684Zm0 0"/></clipPath><clipPath id="fc"><path d="M235 36h4v4h-4Zm0 0"/></clipPath><clipPath id="fd"><path d="M247.262 68.488c0-21.918-17.77-39.683-39.688-39.683-21.914 0-39.683 17.765-39.683 39.683s17.77 39.684 39.683 39.684c21.918 0 39.688-17.766 39.688-39.684Zm0 0"/></clipPath><symbol overflow="visible" id="a"><path style="stroke:none" d="M3.422-5.422c.078-.344.11-.422.937-.422.25 0 .329 0 .329-.172 0-.109-.11-.109-.141-.109-.203 0-.438.016-.656.016-.22 0-.422.015-.641.015-.203 0-.422 0-.625-.015-.156 0-.438-.016-.594-.016-.047 0-.172 0-.172.156 0 .125.079.125.266.125.031 0 .203 0 .344.016.156.016.219.031.219.14 0 .032-.016.079-.047.172L1.437-.687c-.078.328-.093.406-.78.406-.157 0-.266 0-.266.172C.39 0 .484 0 .64 0h4.234c.219 0 .234-.016.297-.203.094-.219.734-1.922.734-2 0-.063-.062-.11-.125-.11-.093 0-.093.032-.172.22-.296.796-.687 1.812-2.265 1.812H2.28c-.094-.016-.125-.031-.125-.094 0-.016 0-.031.047-.203Zm0 0"/></symbol><symbol overflow="visible" id="c"><path style="stroke:none" d="M3.422-3.406c-.172-.328-.438-.563-.844-.563-1.047 0-2.203 1.25-2.203 2.61C.375-.375 1 .094 1.609.094c.579 0 1.047-.485 1.204-.656.093.5.546.656.828.656.265 0 .484-.11.687-.485.156-.296.281-.859.281-.89 0-.047-.03-.11-.109-.11-.11 0-.125.047-.156.22-.203.78-.39 1.046-.672 1.046-.235 0-.281-.219-.281-.406 0-.172.046-.36.125-.672l.218-.922c.063-.219.235-.89.266-1.031.031-.125.094-.344.094-.375 0-.14-.125-.25-.282-.25-.124 0-.343.062-.39.375Zm-.578 2.312c-.047.172-.047.172-.188.344-.328.39-.687.625-1.031.625-.438 0-.578-.453-.578-.844 0-.437.25-1.469.469-1.906.28-.531.703-.86 1.062-.86.594 0 .735.72.735.782a.368.368 0 0 1-.032.125Zm0 0"/></symbol><symbol overflow="visible" id="d"><path style="stroke:none" d="M.875-1.25c.11.828.438 1.36 1.047 1.36.547 0 1.094-.485 1.422-.782.015-.015.031-.031.031-.094 0-.046-.063-.125-.125-.125-.031 0-.047 0-.125.079-.578.546-.89.703-1.188.703-.125 0-.328 0-.453-.407a2.796 2.796 0 0 1-.109-.78c0-.141 0-.313.047-.47 0 0 0-.015.172-.187.39-.406.906-.984 1.265-1.531.704-1.079.766-1.875.766-2.125 0-.313-.078-.72-.547-.72-.406 0-.703.376-.828.532C1.422-4.766.844-2.875.844-1.719c0 .047 0 .11.015.157-.218.187-.421.375-.625.578C.22-.97.156-.906.125-.891c-.016.032-.031.063-.031.094s.031.14.11.14c.077 0 .421-.343.515-.452Zm.594-.938c.062-.359.375-1.734.672-2.53.109-.282.515-1.376.953-1.376.25 0 .297.235.297.453 0 .141-.032.704-.391 1.438-.531 1.047-1.516 2.016-1.531 2.016Zm0 0"/></symbol><symbol overflow="visible" id="y"><path style="stroke:none" d="M4.313-3.313c0-.624-.329-.656-.407-.656-.234 0-.469.235-.469.438 0 .14.094.219.157.265.234.22.312.516.312.75 0 .391-.562 2.391-1.594 2.391-.687 0-.687-.625-.687-.797 0-.375.14-.844.453-1.656.14-.375.172-.469.172-.625a.739.739 0 0 0-.766-.766c-.859 0-1.218 1.281-1.218 1.39 0 .079.062.11.125.11.093 0 .109-.062.14-.172.188-.656.547-1.093.922-1.093.172 0 .219.109.219.296 0 .141-.047.313-.125.516-.313.875-.531 1.438-.531 1.89 0 .845.64 1.126 1.25 1.126 1.515 0 2.046-2.828 2.046-3.406Zm0 0"/></symbol><symbol overflow="visible" id="F"><path style="stroke:none" d="M1.625-.14c0 .296 0 1.03-.656 1.671-.047.047-.047.063-.047.094 0 .063.062.11.11.11.093 0 .827-.704.827-1.75 0-.563-.203-.954-.578-.954a.467.467 0 0 0-.484.485c0 .25.172.484.484.484a.46.46 0 0 0 .344-.14Zm0 0"/></symbol><symbol overflow="visible" id="I"><path style="stroke:none" d="M1.906-3.594h.86c.156 0 .265 0 .265-.156 0-.11-.094-.11-.25-.11h-.797l.36-1.5c0-.14-.11-.25-.266-.25-.297 0-.36.25-.39.344l-.344 1.407H.5c-.172 0-.281 0-.281.156 0 .11.093.11.25.11h.812L.656-1.142c-.062.266-.062.282-.062.407 0 .53.406.828.875.828.922 0 1.453-1.282 1.453-1.375 0-.047-.031-.11-.11-.11-.093 0-.109.032-.171.188-.266.64-.72 1.078-1.157 1.078-.187 0-.296-.11-.296-.406 0-.203.03-.313.062-.453Zm0 0"/></symbol><symbol overflow="visible" id="b"><path style="stroke:none" d="M5.719-2.047c.125-.062.172-.094.172-.203 0-.11-.094-.156-.157-.203L.875-5.141c-.11-.046-.125-.062-.172-.062-.078 0-.187.062-.187.187 0 .11.062.157.187.22L5.297-2.25.703.313C.578.374.516.405.516.516c0 .187.187.187.25.187Zm2.812 0c.125-.062.172-.094.172-.203 0-.11-.078-.156-.156-.203l-4.86-2.688c-.093-.046-.124-.062-.171-.062-.079 0-.188.062-.188.187 0 .11.078.157.188.22L8.109-2.25 3.516.313c-.11.062-.188.093-.188.203 0 .187.188.187.25.187Zm0 0"/></symbol><symbol overflow="visible" id="s"><path style="stroke:none" d="M6.047-2.047c.172 0 .344 0 .344-.203 0-.188-.188-.188-.344-.188H1.109c-.156 0-.343 0-.343.188 0 .203.171.203.343.203Zm0 0"/></symbol><symbol overflow="visible" id="v"><path style="stroke:none" d="M7.625-2.047c-1.063.75-1.281 1.938-1.281 2.031 0 .125.125.125.187.125.11 0 .172 0 .203-.125.25-1.046.86-1.75 1.844-2.109.047-.016.125-.047.125-.125s-.062-.094-.125-.125c-1.125-.422-1.64-1.219-1.844-2.094-.03-.125-.062-.125-.203-.125-.078 0-.187 0-.187.125 0 .094.218 1.282 1.281 2.032H.844c-.156 0-.328 0-.328.187 0 .203.171.203.328.203Zm0 0"/></symbol><symbol overflow="visible" id="i"><path style="stroke:none" d="M4.422-2.5c0-1.063-.89-1.922-1.922-1.922-1.078 0-1.953.89-1.953 1.922A1.95 1.95 0 0 0 2.5-.562c1.031 0 1.922-.86 1.922-1.938Zm0 0"/></symbol><symbol overflow="visible" id="l"><path style="stroke:none" d="M.39-6.14v.28h.313c.313 0 .61.032.61.376 0 .062-.016.125-.016.171v4.375c0 .594-.516.657-.906.657v.265H2.5V-.28c-.422 0-.938-.078-.938-.672 0-.094.016-.172.016-.25l.016-4.578c.047.187.125.375.203.547.531 1.28 1.031 2.593 1.547 3.89L3.75-.312c.047.109.078.296.234.296.157 0 .188-.203.235-.312.64-1.64 1.297-3.297 1.953-4.922.078-.188.172-.39.234-.594v5.14c0 .376-.281.423-.562.423H5.5v.265h2.547V-.28h-.344c-.281 0-.562-.031-.562-.406V-5.47c0-.343.296-.39.593-.39h.313v-.282H6.5l-.172.032-.094.14L4.22-.89c-.063-.14-.11-.296-.172-.453l-.375-.937c-.453-1.14-.906-2.297-1.36-3.438l-.093-.234c-.078-.14-.125-.188-.281-.188Zm0 0"/></symbol><symbol overflow="visible" id="B"><path style="stroke:none" d="M3.063 2.14c0-.046-.032-.078-.079-.14C1.828.937 1.47-.672 1.47-2.25c0-1.375.265-3.063 1.531-4.266.047-.046.063-.062.063-.109a.107.107 0 0 0-.11-.11c-.11 0-.922.657-1.406 1.626-.422.859-.64 1.796-.64 2.859 0 .64.077 1.672.577 2.719.532 1.11 1.36 1.765 1.47 1.765.062 0 .108-.03.108-.093Zm0 0"/></symbol><symbol overflow="visible" id="C"><path style="stroke:none" d="M6.406-5.828v5.125c0 .328-.015.422-.703.422H5.5V0c.531-.031 1.14-.031 1.266-.031.062 0 .718 0 1.28.031v-.281h-.202c-.688 0-.703-.094-.703-.422v-4.719c0-.328.015-.422.703-.422h.203v-.281h-1.5c-.188 0-.25 0-.313.156L4.22-.875l-2-5.047c-.078-.187-.078-.203-.328-.203H.39v.281h.203c.687 0 .703.094.703.422v4.469c0 .25 0 .672-.906.672V0C.875-.016 1-.031 1.437-.031c.438 0 .579.015 1.063.031v-.281c-.922 0-.922-.422-.922-.672V-5.75l.016-.016L3.797-.203c.047.125.078.203.187.203.094 0 .141-.078.172-.156Zm0 0"/></symbol><symbol overflow="visible" id="L"><path style="stroke:none" d="M2.672-2.25c0-.734-.11-1.719-.578-2.719C1.563-6.079.734-6.734.625-6.734c-.094 0-.11.078-.11.109 0 .047.016.063.079.125.531.469 1.515 1.688 1.515 4.25C2.11-.969 1.875.813.58 2.031c-.016.016-.063.063-.063.11 0 .015.015.093.109.093.11 0 .922-.64 1.406-1.625.422-.859.64-1.78.64-2.859Zm0 0"/></symbol><symbol overflow="visible" id="R"><path style="stroke:none" d="M3.266-1.5c0-.75-.61-1.36-1.36-1.36-.734 0-1.343.61-1.343 1.36 0 .766.609 1.36 1.343 1.36.75 0 1.36-.594 1.36-1.36Zm0 0"/></symbol></defs><use xlink:href="#a" x="86.547" y="11.847" style="fill:#000;fill-opacity:1"/><use xlink:href="#b" x="95.378" y="11.847" style="fill:#000;fill-opacity:1"/><use xlink:href="#c" x="107.153" y="11.847" style="fill:#000;fill-opacity:1"/><use xlink:href="#b" x="114.595" y="11.847" style="fill:#000;fill-opacity:1"/><use xlink:href="#d" x="126.37" y="11.847" style="fill:#000;fill-opacity:1"/><path style="fill:none;stroke-width:5.97766;stroke-linecap:butt;stroke-linejoin:miter;stroke:#000;stroke-opacity:1;stroke-miterlimit:10" d="M0 39.684v9.922h39.687-9.922v9.922m3.969 0c0 .547-1.778.992-3.969.992s-3.969-.445-3.969-.992c0-.547 1.778-.992 3.97-.992 2.19 0 3.968.445 3.968.992Zm0 0" transform="matrix(1 0 0 -1 9.149 68.489)"/><path style="fill:none;stroke-width:.3985;stroke-linecap:butt;stroke-linejoin:miter;stroke:gray;stroke-opacity:1;stroke-miterlimit:10" d="M-.993 3.97 87.308 37.7M-.993-3.968l88.301-33.734M99.214.993 186.523 37.7M99.214-.991l87.309-36.711" transform="matrix(1 0 0 -1 9.149 68.489)"/><path style="fill:none;stroke-width:4.98138;stroke-linecap:butt;stroke-linejoin:miter;stroke:#00f;stroke-opacity:.5;stroke-miterlimit:10" d="M0 39.684v-79.37" transform="matrix(1 0 0 -1 9.149 68.489)"/><path style="fill:none;stroke-width:.3985;stroke-linecap:butt;stroke-linejoin:miter;stroke:#000;stroke-opacity:1;stroke-miterlimit:10" d="M3.968 0A3.97 3.97 0 1 1-3.97 0a3.97 3.97 0 0 1 7.94 0Zm0 0" transform="matrix(1 0 0 -1 9.149 68.489)"/><path style="fill:none;stroke-width:.3985;stroke-linecap:butt;stroke-linejoin:miter;stroke:gray;stroke-opacity:1;stroke-dasharray:2.98883,2.98883;stroke-miterlimit:10" d="M138.898 0c0 21.919-17.766 39.684-39.684 39.684S59.527 21.92 59.527.001s17.77-39.684 39.687-39.684c21.918 0 39.684 17.766 39.684 39.684Zm0 0" transform="matrix(1 0 0 -1 9.149 68.489)"/><g clip-path="url(#e)"><g clip-path="url(#f)"><path style="fill:none;stroke-width:29.8883;stroke-linecap:butt;stroke-linejoin:miter;stroke:#00f;stroke-opacity:.5;stroke-miterlimit:10" d="M99.214 198.427v-396.852" transform="matrix(1 0 0 -1 9.149 68.489)"/></g></g><g clip-path="url(#g)"><g clip-path="url(#h)"><use xlink:href="#i" x="105.87" y="70.703" style="fill:#000;fill-opacity:1"/></g></g><g clip-path="url(#j)"><g clip-path="url(#k)"><use xlink:href="#l" x="104.139" y="66.497" style="fill:#000;fill-opacity:1"/></g></g><g clip-path="url(#m)"><g clip-path="url(#n)"><path style="fill:none;stroke-width:.79701;stroke-linecap:butt;stroke-linejoin:miter;stroke:#000;stroke-opacity:1;stroke-miterlimit:10" d="M99.214 0v-17.253" transform="matrix(1 0 0 -1 9.149 68.489)"/></g></g><g clip-path="url(#o)"><g clip-path="url(#p)"><path style="stroke:none;fill-rule:nonzero;fill:#000;fill-opacity:1" d="m108.363 88.332 2.07-4.144-2.07 1.554-2.074-1.555"/></g></g><g clip-path="url(#q)"><g clip-path="url(#r)"><use xlink:href="#s" x="74.116" y="77.029" style="fill:#000;fill-opacity:1"/></g></g><g clip-path="url(#t)"><g clip-path="url(#u)"><use xlink:href="#v" x="74.12" y="77.029" style="fill:#000;fill-opacity:1"/></g></g><g clip-path="url(#w)"><g clip-path="url(#x)"><use xlink:href="#y" x="76.325" y="80.889" style="fill:#000;fill-opacity:1"/></g></g><g clip-path="url(#z)"><g style="fill:#000;fill-opacity:1" clip-path="url(#A)"><use xlink:href="#B" x="83.332" y="80.889"/><use xlink:href="#C" x="86.916" y="80.889"/></g></g><g clip-path="url(#D)"><g clip-path="url(#E)"><use xlink:href="#F" x="95.361" y="80.889" style="fill:#000;fill-opacity:1"/></g></g><g clip-path="url(#G)"><g clip-path="url(#H)"><use xlink:href="#I" x="99.454" y="80.889" style="fill:#000;fill-opacity:1"/></g></g><g clip-path="url(#J)"><g clip-path="url(#K)"><use xlink:href="#L" x="102.785" y="80.889" style="fill:#000;fill-opacity:1"/></g></g><path style="stroke:none;fill-rule:nonzero;fill:#00f;fill-opacity:.5" d="M247.262 68.488c0-21.918-17.77-39.683-39.688-39.683-21.914 0-39.683 17.765-39.683 39.683s17.77 39.684 39.683 39.684c21.918 0 39.688-17.766 39.688-39.684Zm0 0"/><g clip-path="url(#M)"><path style="fill:none;stroke-width:.3985;stroke-linecap:butt;stroke-linejoin:miter;stroke:gray;stroke-opacity:.5;stroke-dasharray:2.98883,2.98883;stroke-miterlimit:10" d="M238.113 0c0 21.919-17.77 39.684-39.688 39.684-21.914 0-39.683-17.765-39.683-39.683s17.77-39.684 39.683-39.684c21.918 0 39.688 17.766 39.688 39.684Zm0 0" transform="matrix(1 0 0 -1 9.149 68.489)"/></g><g clip-path="url(#N)"><g clip-path="url(#O)"><path style="fill:none;stroke-width:.3985;stroke-linecap:butt;stroke-linejoin:miter;stroke:#000;stroke-opacity:1;stroke-miterlimit:10" d="m160.906-30.261-12.68-2.227" transform="matrix(1 0 0 -1 9.149 68.489)"/></g></g><g clip-path="url(#P)"><g clip-path="url(#Q)"><use xlink:href="#R" x="168.144" y="100.173" style="fill:#000;fill-opacity:1"/></g></g><g clip-path="url(#S)"><g clip-path="url(#T)"><path style="fill:none;stroke-width:.3985;stroke-linecap:butt;stroke-linejoin:miter;stroke:#000;stroke-opacity:1;stroke-miterlimit:10" d="m161-17.554.257-27.039" transform="matrix(1 0 0 -1 9.149 68.489)"/></g></g><g clip-path="url(#U)"><g clip-path="url(#V)"><use xlink:href="#R" x="168.238" y="87.469" style="fill:#000;fill-opacity:1"/></g></g><g clip-path="url(#W)"><g clip-path="url(#X)"><path style="fill:none;stroke-width:.3985;stroke-linecap:butt;stroke-linejoin:miter;stroke:#000;stroke-opacity:1;stroke-miterlimit:10" d="M166.507-10.94 150.242-28.8" transform="matrix(1 0 0 -1 9.149 68.489)"/></g></g><g clip-path="url(#Y)"><g clip-path="url(#Z)"><use xlink:href="#R" x="173.743" y="80.856" style="fill:#000;fill-opacity:1"/></g></g><g clip-path="url(#aa)"><g clip-path="url(#ab)"><path style="fill:none;stroke-width:.3985;stroke-linecap:butt;stroke-linejoin:miter;stroke:#000;stroke-opacity:1;stroke-miterlimit:10" d="m175.75-4.816 4.355-19.937" transform="matrix(1 0 0 -1 9.149 68.489)"/></g></g><g clip-path="url(#ac)"><g clip-path="url(#ad)"><path style="stroke:none;fill-rule:nonzero;fill:#000;fill-opacity:1" d="m189.68 95.188.875-3.454-1.301 1.508-1.813-.828"/></g></g><g clip-path="url(#ae)"><g clip-path="url(#af)"><use xlink:href="#R" x="182.986" y="74.731" style="fill:#000;fill-opacity:1"/></g></g><g clip-path="url(#ag)"><g clip-path="url(#ah)"><path style="fill:none;stroke-width:.3985;stroke-linecap:butt;stroke-linejoin:miter;stroke:#000;stroke-opacity:1;stroke-miterlimit:10" d="m162.41 5.216-14.5-27.872" transform="matrix(1 0 0 -1 9.149 68.489)"/></g></g><g clip-path="url(#ai)"><g clip-path="url(#aj)"><use xlink:href="#R" x="169.646" y="64.701" style="fill:#000;fill-opacity:1"/></g></g><g clip-path="url(#ak)"><g clip-path="url(#al)"><path style="fill:none;stroke-width:.3985;stroke-linecap:butt;stroke-linejoin:miter;stroke:#000;stroke-opacity:1;stroke-miterlimit:10" d="M166.21 21.134 155.507-6.073" transform="matrix(1 0 0 -1 9.149 68.489)"/></g></g><g clip-path="url(#am)"><g clip-path="url(#an)"><use xlink:href="#R" x="173.446" y="48.781" style="fill:#000;fill-opacity:1"/></g></g><g clip-path="url(#ao)"><g clip-path="url(#ap)"><path style="fill:none;stroke-width:.3985;stroke-linecap:butt;stroke-linejoin:miter;stroke:#000;stroke-opacity:1;stroke-miterlimit:10" d="m166.89 26.692-12.562-14.008" transform="matrix(1 0 0 -1 9.149 68.489)"/></g></g><g clip-path="url(#aq)"><g clip-path="url(#ar)"><use xlink:href="#R" x="174.127" y="43.222" style="fill:#000;fill-opacity:1"/></g></g><g clip-path="url(#as)"><g clip-path="url(#at)"><path style="fill:none;stroke-width:.3985;stroke-linecap:butt;stroke-linejoin:miter;stroke:#000;stroke-opacity:1;stroke-miterlimit:10" d="m170.93-25.816-16.462 6.625" transform="matrix(1 0 0 -1 9.149 68.489)"/></g></g><g clip-path="url(#au)"><g clip-path="url(#av)"><use xlink:href="#R" x="178.166" y="95.732" style="fill:#000;fill-opacity:1"/></g></g><g clip-path="url(#aw)"><g clip-path="url(#ax)"><path style="fill:none;stroke-width:.3985;stroke-linecap:butt;stroke-linejoin:miter;stroke:#000;stroke-opacity:1;stroke-miterlimit:10" d="m184.68-23.671 16.413 1.66" transform="matrix(1 0 0 -1 9.149 68.489)"/></g></g><g clip-path="url(#ay)"><g clip-path="url(#az)"><path style="stroke:none;fill-rule:nonzero;fill:#000;fill-opacity:1" d="m212.227 90.297-3.332-1.266 1.347 1.469-1.027 1.703"/></g></g><g clip-path="url(#aA)"><g clip-path="url(#aB)"><use xlink:href="#R" x="191.918" y="93.585" style="fill:#000;fill-opacity:1"/></g></g><g clip-path="url(#aC)"><g clip-path="url(#aD)"><path style="fill:none;stroke-width:.3985;stroke-linecap:butt;stroke-linejoin:miter;stroke:#000;stroke-opacity:1;stroke-miterlimit:10" d="m185.07-9.542-15.668-7.2" transform="matrix(1 0 0 -1 9.149 68.489)"/></g></g><g clip-path="url(#aE)"><g clip-path="url(#aF)"><path style="stroke:none;fill-rule:nonzero;fill:#000;fill-opacity:1" d="m176.742 86.063 3.563.117-1.754-.95.422-1.949"/></g></g><g clip-path="url(#aG)"><g clip-path="url(#aH)"><use xlink:href="#R" x="192.309" y="79.455" style="fill:#000;fill-opacity:1"/></g></g><g clip-path="url(#aI)"><g clip-path="url(#aJ)"><path style="fill:none;stroke-width:.3985;stroke-linecap:butt;stroke-linejoin:miter;stroke:#000;stroke-opacity:1;stroke-miterlimit:10" d="m182.46 1.907-15.855 7.988" transform="matrix(1 0 0 -1 9.149 68.489)"/></g></g><g clip-path="url(#aK)"><g clip-path="url(#aL)"><path style="stroke:none;fill-rule:nonzero;fill:#000;fill-opacity:1" d="m173.973 57.7 2.132 2.855-.351-1.961 1.785-.887"/></g></g><g clip-path="url(#aM)"><g clip-path="url(#aN)"><use xlink:href="#R" x="189.699" y="68.007" style="fill:#000;fill-opacity:1"/></g></g><g clip-path="url(#aO)"><g clip-path="url(#aP)"><path style="fill:none;stroke-width:.3985;stroke-linecap:butt;stroke-linejoin:miter;stroke:#000;stroke-opacity:1;stroke-miterlimit:10" d="m176.726 6.036-7.16 1.129" transform="matrix(1 0 0 -1 9.149 68.489)"/></g></g><g clip-path="url(#aQ)"><g clip-path="url(#aR)"><path style="stroke:none;fill-rule:nonzero;fill:#000;fill-opacity:1" d="m176.746 61.016 2.902 2.07-.933-1.762 1.43-1.386"/></g></g><g clip-path="url(#aS)"><g clip-path="url(#aT)"><use xlink:href="#R" x="183.964" y="63.877" style="fill:#000;fill-opacity:1"/></g></g><g clip-path="url(#aU)"><g clip-path="url(#aV)"><path style="fill:none;stroke-width:.3985;stroke-linecap:butt;stroke-linejoin:miter;stroke:#000;stroke-opacity:1;stroke-miterlimit:10" d="m177.64 20.36-2.676-13.43" transform="matrix(1 0 0 -1 9.149 68.489)"/></g></g><g clip-path="url(#aW)"><g clip-path="url(#aX)"><path style="stroke:none;fill-rule:nonzero;fill:#000;fill-opacity:1" d="m183.727 63.516 2.183-2.817-1.797.86-1.328-1.48"/></g></g><g clip-path="url(#aY)"><g clip-path="url(#aZ)"><use xlink:href="#R" x="184.876" y="49.556" style="fill:#000;fill-opacity:1"/></g></g><g clip-path="url(#ba)"><g clip-path="url(#bb)"><path style="fill:none;stroke-width:.3985;stroke-linecap:butt;stroke-linejoin:miter;stroke:#000;stroke-opacity:1;stroke-miterlimit:10" d="m179.644 27.184-17.469-10.11" transform="matrix(1 0 0 -1 9.149 68.489)"/></g></g><g clip-path="url(#bc)"><g clip-path="url(#bd)"><path style="stroke:none;fill-rule:nonzero;fill:#000;fill-opacity:1" d="m169.598 52.41 3.558-.215-1.832-.78.235-1.981"/></g></g><g clip-path="url(#be)"><g clip-path="url(#bf)"><use xlink:href="#R" x="186.88" y="42.732" style="fill:#000;fill-opacity:1"/></g></g><g clip-path="url(#bg)"><g clip-path="url(#bh)"><path style="fill:none;stroke-width:.3985;stroke-linecap:butt;stroke-linejoin:miter;stroke:#000;stroke-opacity:1;stroke-miterlimit:10" d="m188.472-32.116-8.8-.22" transform="matrix(1 0 0 -1 9.149 68.489)"/></g></g><g clip-path="url(#bi)"><g clip-path="url(#bj)"><path style="stroke:none;fill-rule:nonzero;fill:#000;fill-opacity:1" d="m186.828 100.875 3.227 1.512-1.235-1.563 1.153-1.62"/></g></g><g clip-path="url(#bk)"><g clip-path="url(#bl)"><use xlink:href="#R" x="195.709" y="102.032" style="fill:#000;fill-opacity:1"/></g></g><g clip-path="url(#bm)"><g clip-path="url(#bn)"><path style="fill:none;stroke-width:.3985;stroke-linecap:butt;stroke-linejoin:miter;stroke:#000;stroke-opacity:1;stroke-miterlimit:10" d="m193.906-21.738-6.516-25.906" transform="matrix(1 0 0 -1 9.149 68.489)"/></g></g><g clip-path="url(#bo)"><g clip-path="url(#bp)"><use xlink:href="#R" x="201.144" y="91.653" style="fill:#000;fill-opacity:1"/></g></g><g clip-path="url(#bq)"><g clip-path="url(#br)"><path style="fill:none;stroke-width:.3985;stroke-linecap:butt;stroke-linejoin:miter;stroke:#000;stroke-opacity:1;stroke-miterlimit:10" d="M196.163-5.421 184.356-2.36" transform="matrix(1 0 0 -1 9.149 68.489)"/></g></g><g clip-path="url(#bs)"><g clip-path="url(#bt)"><path style="stroke:none;fill-rule:nonzero;fill:#000;fill-opacity:1" d="m191.578 70.344 2.684 2.344-.758-1.84 1.559-1.246"/></g></g><g clip-path="url(#bu)"><g clip-path="url(#bv)"><use xlink:href="#R" x="203.399" y="75.337" style="fill:#000;fill-opacity:1"/></g></g><g clip-path="url(#bw)"><g clip-path="url(#bx)"><path style="fill:none;stroke-width:.3985;stroke-linecap:butt;stroke-linejoin:miter;stroke:#000;stroke-opacity:1;stroke-miterlimit:10" d="m191.867 4.028 8.351-.008" transform="matrix(1 0 0 -1 9.149 68.489)"/></g></g><g clip-path="url(#by)"><g clip-path="url(#bz)"><path style="stroke:none;fill-rule:nonzero;fill:#000;fill-opacity:1" d="m211.36 64.473-3.184-1.598 1.191 1.594-1.195 1.594"/></g></g><g clip-path="url(#bA)"><g clip-path="url(#bB)"><use xlink:href="#R" x="199.103" y="65.885" style="fill:#000;fill-opacity:1"/></g></g><g clip-path="url(#bC)"><g clip-path="url(#bD)"><path style="fill:none;stroke-width:.3985;stroke-linecap:butt;stroke-linejoin:miter;stroke:#000;stroke-opacity:1;stroke-miterlimit:10" d="m185.527 12.56 3.937-3.31" transform="matrix(1 0 0 -1 9.149 68.489)"/></g></g><g clip-path="url(#bE)"><g clip-path="url(#bF)"><path style="stroke:none;fill-rule:nonzero;fill:#000;fill-opacity:1" d="m200.14 60.52-1.417-3.27-.11 1.988-1.941.453"/></g></g><g clip-path="url(#bG)"><g clip-path="url(#bH)"><use xlink:href="#R" x="192.763" y="57.356" style="fill:#000;fill-opacity:1"/></g></g><g clip-path="url(#bI)"><g clip-path="url(#bJ)"><path style="fill:none;stroke-width:.3985;stroke-linecap:butt;stroke-linejoin:miter;stroke:#000;stroke-opacity:1;stroke-miterlimit:10" d="m186.28 20.75-7.765-19.175" transform="matrix(1 0 0 -1 9.149 68.489)"/></g></g><g clip-path="url(#bK)"><g clip-path="url(#bL)"><path style="stroke:none;fill-rule:nonzero;fill:#000;fill-opacity:1" d="m186.918 68.762 2.672-2.356-1.926.508-1.027-1.707"/></g></g><g clip-path="url(#bM)"><g clip-path="url(#bN)"><use xlink:href="#R" x="193.517" y="49.166" style="fill:#000;fill-opacity:1"/></g></g><g clip-path="url(#bO)"><g clip-path="url(#bP)"><path style="fill:none;stroke-width:.3985;stroke-linecap:butt;stroke-linejoin:miter;stroke:#000;stroke-opacity:1;stroke-miterlimit:10" d="m190.285 33.442-7.051-7.348" transform="matrix(1 0 0 -1 9.149 68.489)"/></g></g><g clip-path="url(#bQ)"><g clip-path="url(#bR)"><path style="stroke:none;fill-rule:nonzero;fill:#000;fill-opacity:1" d="m191.004 43.832 3.355-1.195-1.976-.242-.324-1.97"/></g></g><g clip-path="url(#bS)"><g clip-path="url(#bT)"><use xlink:href="#R" x="197.522" y="36.473" style="fill:#000;fill-opacity:1"/></g></g><g clip-path="url(#bU)"><g clip-path="url(#bV)"><path style="fill:none;stroke-width:.3985;stroke-linecap:butt;stroke-linejoin:miter;stroke:#000;stroke-opacity:1;stroke-miterlimit:10" d="m197.773-26.546-9.332.25" transform="matrix(1 0 0 -1 9.149 68.489)"/></g></g><g clip-path="url(#bW)"><g clip-path="url(#bX)"><path style="stroke:none;fill-rule:nonzero;fill:#000;fill-opacity:1" d="m195.598 94.734 3.144 1.676-1.152-1.625 1.238-1.562"/></g></g><g clip-path="url(#bY)"><g clip-path="url(#bZ)"><use xlink:href="#R" x="205.01" y="96.458" style="fill:#000;fill-opacity:1"/></g></g><g clip-path="url(#ca)"><g clip-path="url(#cb)"><path style="fill:none;stroke-width:.3985;stroke-linecap:butt;stroke-linejoin:miter;stroke:#000;stroke-opacity:1;stroke-miterlimit:10" d="m200.12-24.038-12.035-21.34" transform="matrix(1 0 0 -1 9.149 68.489)"/></g></g><g clip-path="url(#cc)"><g clip-path="url(#cd)"><use xlink:href="#R" x="207.356" y="93.954" style="fill:#000;fill-opacity:1"/></g></g><g clip-path="url(#ce)"><g clip-path="url(#cf)"><path style="fill:none;stroke-width:.3985;stroke-linecap:butt;stroke-linejoin:miter;stroke:#000;stroke-opacity:1;stroke-miterlimit:10" d="m196.199-6.835 15.539-5.36" transform="matrix(1 0 0 -1 9.149 68.489)"/></g></g><g clip-path="url(#cg)"><g clip-path="url(#ch)"><path style="stroke:none;fill-rule:nonzero;fill:#000;fill-opacity:1" d="m222.77 81.332-2.497-2.547.614 1.899-1.653 1.117"/></g></g><g clip-path="url(#ci)"><g clip-path="url(#cj)"><use xlink:href="#R" x="203.435" y="76.748" style="fill:#000;fill-opacity:1"/></g></g><g clip-path="url(#ck)"><g clip-path="url(#cl)"><path style="fill:none;stroke-width:.3985;stroke-linecap:butt;stroke-linejoin:miter;stroke:#000;stroke-opacity:1;stroke-miterlimit:10" d="M204.081-.718 188.328 6.93" transform="matrix(1 0 0 -1 9.149 68.489)"/></g></g><g clip-path="url(#cm)"><g clip-path="url(#cn)"><path style="stroke:none;fill-rule:nonzero;fill:#000;fill-opacity:1" d="m195.688 60.691 2.171 2.825-.382-1.957 1.773-.91"/></g></g><g clip-path="url(#co)"><g clip-path="url(#cp)"><use xlink:href="#R" x="211.317" y="70.632" style="fill:#000;fill-opacity:1"/></g></g><g clip-path="url(#cq)"><g clip-path="url(#cr)"><path style="fill:none;stroke-width:.3985;stroke-linecap:butt;stroke-linejoin:miter;stroke:#000;stroke-opacity:1;stroke-miterlimit:10" d="M198.94 12.5 195.797.4" transform="matrix(1 0 0 -1 9.149 68.489)"/></g></g><g clip-path="url(#cs)"><g clip-path="url(#ct)"><path style="stroke:none;fill-rule:nonzero;fill:#000;fill-opacity:1" d="m204.441 70.02 2.344-2.688-1.84.758-1.242-1.559"/></g></g><g clip-path="url(#cu)"><g clip-path="url(#cv)"><use xlink:href="#R" x="206.178" y="57.413" style="fill:#000;fill-opacity:1"/></g></g><g clip-path="url(#cw)"><g clip-path="url(#cx)"><path style="fill:none;stroke-width:.3985;stroke-linecap:butt;stroke-linejoin:miter;stroke:#000;stroke-opacity:1;stroke-miterlimit:10" d="m199.081 19.38 15.415-24.235" transform="matrix(1 0 0 -1 9.149 68.489)"/></g></g><g clip-path="url(#cy)"><g clip-path="url(#cz)"><path style="stroke:none;fill-rule:nonzero;fill:#000;fill-opacity:1" d="m224.71 75.027-.362-3.547-.703 1.864-1.989-.153"/></g></g><g clip-path="url(#cA)"><g clip-path="url(#cB)"><use xlink:href="#R" x="206.318" y="50.534" style="fill:#000;fill-opacity:1"/></g></g><g clip-path="url(#cC)"><g clip-path="url(#cD)"><path style="fill:none;stroke-width:.3985;stroke-linecap:butt;stroke-linejoin:miter;stroke:#000;stroke-opacity:1;stroke-miterlimit:10" d="m203.335 27.325.348-4.504" transform="matrix(1 0 0 -1 9.149 68.489)"/></g></g><g clip-path="url(#cE)"><g clip-path="url(#cF)"><path style="stroke:none;fill-rule:nonzero;fill:#000;fill-opacity:1" d="m212.984 47.656 1.344-3.3-1.496 1.312-1.684-1.07"/></g></g><g clip-path="url(#cG)"><g clip-path="url(#cH)"><use xlink:href="#R" x="210.572" y="42.589" style="fill:#000;fill-opacity:1"/></g></g><g clip-path="url(#cI)"><g clip-path="url(#cJ)"><path style="fill:none;stroke-width:.3985;stroke-linecap:butt;stroke-linejoin:miter;stroke:#000;stroke-opacity:1;stroke-miterlimit:10" d="m215.902-25.523-10.719-8.914" transform="matrix(1 0 0 -1 9.149 68.489)"/></g></g><g clip-path="url(#cK)"><g clip-path="url(#cL)"><path style="stroke:none;fill-rule:nonzero;fill:#000;fill-opacity:1" d="m212.8 104.2 3.473-.813-1.941-.461-.098-1.992"/></g></g><g clip-path="url(#cM)"><g clip-path="url(#cN)"><use xlink:href="#R" x="223.14" y="95.438" style="fill:#000;fill-opacity:1"/></g></g><g clip-path="url(#cO)"><g clip-path="url(#cP)"><path style="fill:none;stroke-width:.3985;stroke-linecap:butt;stroke-linejoin:miter;stroke:#000;stroke-opacity:1;stroke-miterlimit:10" d="m205.882-15.277-16.48-9.328" transform="matrix(1 0 0 -1 9.149 68.489)"/></g></g><g clip-path="url(#cQ)"><g clip-path="url(#cR)"><path style="stroke:none;fill-rule:nonzero;fill:#000;fill-opacity:1" d="m196.816 94.078 3.559-.183-1.824-.801.254-1.977"/></g></g><g clip-path="url(#cS)"><g clip-path="url(#cT)"><use xlink:href="#R" x="213.118" y="85.192" style="fill:#000;fill-opacity:1"/></g></g><g clip-path="url(#cU)"><g clip-path="url(#cV)"><path style="fill:none;stroke-width:.3985;stroke-linecap:butt;stroke-linejoin:miter;stroke:#000;stroke-opacity:1;stroke-miterlimit:10" d="m202.535-5.933-.043 2.16" transform="matrix(1 0 0 -1 9.149 68.489)"/></g></g><g clip-path="url(#cW)"><g clip-path="url(#cX)"><path style="stroke:none;fill-rule:nonzero;fill:#000;fill-opacity:1" d="m211.598 70.27-1.528 3.218 1.57-1.226 1.618 1.16"/></g></g><g clip-path="url(#cY)"><g clip-path="url(#cZ)"><use xlink:href="#R" x="209.772" y="75.846" style="fill:#000;fill-opacity:1"/></g></g><g clip-path="url(#da)"><g clip-path="url(#db)"><path style="fill:none;stroke-width:.3985;stroke-linecap:butt;stroke-linejoin:miter;stroke:#000;stroke-opacity:1;stroke-miterlimit:10" d="m203.394 2.536-13.106.187" transform="matrix(1 0 0 -1 9.149 68.489)"/></g></g><g clip-path="url(#dc)"><g clip-path="url(#dd)"><path style="stroke:none;fill-rule:nonzero;fill:#000;fill-opacity:1" d="m197.445 65.738 3.164 1.637-1.172-1.61 1.22-1.578"/></g></g><g clip-path="url(#de)"><g clip-path="url(#df)"><use xlink:href="#R" x="210.629" y="67.38" style="fill:#000;fill-opacity:1"/></g></g><g clip-path="url(#dg)"><g clip-path="url(#dh)"><path style="fill:none;stroke-width:.3985;stroke-linecap:butt;stroke-linejoin:miter;stroke:#000;stroke-opacity:1;stroke-miterlimit:10" d="m204.742 5.7-10.57-17.961" transform="matrix(1 0 0 -1 9.149 68.489)"/></g></g><g clip-path="url(#di)"><g clip-path="url(#dj)"><path style="stroke:none;fill-rule:nonzero;fill:#000;fill-opacity:1" d="m202.313 82.469 2.988-1.942-1.98.223-.766-1.836"/></g></g><g clip-path="url(#dk)"><g clip-path="url(#dl)"><use xlink:href="#R" x="211.98" y="64.213" style="fill:#000;fill-opacity:1"/></g></g><g clip-path="url(#dm)"><g clip-path="url(#dn)"><path style="fill:none;stroke-width:.3985;stroke-linecap:butt;stroke-linejoin:miter;stroke:#000;stroke-opacity:1;stroke-miterlimit:10" d="m209.5 24.321-12.18-1.184" transform="matrix(1 0 0 -1 9.149 68.489)"/></g></g><g clip-path="url(#do)"><g clip-path="url(#dp)"><path style="stroke:none;fill-rule:nonzero;fill:#000;fill-opacity:1" d="m204.484 45.543 3.328 1.281-1.343-1.472 1.035-1.704"/></g></g><g clip-path="url(#dq)"><g clip-path="url(#dr)"><use xlink:href="#R" x="216.736" y="45.593" style="fill:#000;fill-opacity:1"/></g></g><g clip-path="url(#ds)"><g clip-path="url(#dt)"><path style="fill:none;stroke-width:.3985;stroke-linecap:butt;stroke-linejoin:miter;stroke:#000;stroke-opacity:1;stroke-miterlimit:10" d="m206.699 29.688-5.594-1.644" transform="matrix(1 0 0 -1 9.149 68.489)"/></g></g><g clip-path="url(#du)"><g clip-path="url(#dv)"><path style="stroke:none;fill-rule:nonzero;fill:#000;fill-opacity:1" d="m208.344 41.008 3.508.629-1.598-1.192.695-1.867"/></g></g><g clip-path="url(#dw)"><g clip-path="url(#dx)"><use xlink:href="#R" x="213.935" y="40.225" style="fill:#000;fill-opacity:1"/></g></g><g clip-path="url(#dy)"><g clip-path="url(#dz)"><path style="fill:none;stroke-width:.3985;stroke-linecap:butt;stroke-linejoin:miter;stroke:#000;stroke-opacity:1;stroke-miterlimit:10" d="m213.124-26.007.989-11.406" transform="matrix(1 0 0 -1 9.149 68.489)"/></g></g><g clip-path="url(#dA)"><g clip-path="url(#dB)"><path style="stroke:none;fill-rule:nonzero;fill:#000;fill-opacity:1" d="m223.434 107.89 1.312-3.316-1.484 1.328-1.692-1.05"/></g></g><g clip-path="url(#dC)"><g clip-path="url(#dD)"><use xlink:href="#R" x="220.36" y="95.922" style="fill:#000;fill-opacity:1"/></g></g><g clip-path="url(#dE)"><g clip-path="url(#dF)"><path style="fill:none;stroke-width:.3985;stroke-linecap:butt;stroke-linejoin:miter;stroke:#000;stroke-opacity:1;stroke-miterlimit:10" d="m211.382-19.894-3.379 1.824" transform="matrix(1 0 0 -1 9.149 68.489)"/></g></g><g clip-path="url(#dG)"><g clip-path="url(#dH)"><path style="stroke:none;fill-rule:nonzero;fill:#000;fill-opacity:1" d="m215.398 85.613 2.051 2.918-.297-1.972 1.809-.836"/></g></g><g clip-path="url(#dI)"><g clip-path="url(#dJ)"><use xlink:href="#R" x="218.619" y="89.806" style="fill:#000;fill-opacity:1"/></g></g><g clip-path="url(#dK)"><g clip-path="url(#dL)"><path style="fill:none;stroke-width:.3985;stroke-linecap:butt;stroke-linejoin:miter;stroke:#000;stroke-opacity:1;stroke-miterlimit:10" d="m220.007-12.374-11.246-27.852" transform="matrix(1 0 0 -1 9.149 68.489)"/></g></g><g clip-path="url(#dM)"><g clip-path="url(#dN)"><path style="stroke:none;fill-rule:nonzero;fill:#000;fill-opacity:1" d="m217.164 110.563 2.672-2.36-1.926.512-1.031-1.707"/></g></g><g clip-path="url(#dO)"><g clip-path="url(#dP)"><use xlink:href="#R" x="227.245" y="82.289" style="fill:#000;fill-opacity:1"/></g></g><g clip-path="url(#dQ)"><g clip-path="url(#dR)"><path style="fill:none;stroke-width:.3985;stroke-linecap:butt;stroke-linejoin:miter;stroke:#000;stroke-opacity:1;stroke-miterlimit:10" d="m219.566-4.796 2.426-6.883" transform="matrix(1 0 0 -1 9.149 68.489)"/></g></g><g clip-path="url(#dS)"><g clip-path="url(#dT)"><path style="stroke:none;fill-rule:nonzero;fill:#000;fill-opacity:1" d="m231.8 82.047.446-3.535-1.105 1.656-1.903-.598"/></g></g><g clip-path="url(#dU)"><g clip-path="url(#dV)"><use xlink:href="#R" x="226.803" y="74.71" style="fill:#000;fill-opacity:1"/></g></g><g clip-path="url(#dW)"><g clip-path="url(#dX)"><path style="fill:none;stroke-width:.3985;stroke-linecap:butt;stroke-linejoin:miter;stroke:#000;stroke-opacity:1;stroke-miterlimit:10" d="m220.706 10.204-16.765-23.938" transform="matrix(1 0 0 -1 9.149 68.489)"/></g></g><g clip-path="url(#dY)"><g clip-path="url(#dZ)"><path style="stroke:none;fill-rule:nonzero;fill:#000;fill-opacity:1" d="m211.945 83.855 3.133-1.699-1.988.067-.621-1.895"/></g></g><g clip-path="url(#ea)"><g clip-path="url(#eb)"><use xlink:href="#R" x="227.942" y="59.711" style="fill:#000;fill-opacity:1"/></g></g><g clip-path="url(#ec)"><g clip-path="url(#ed)"><path style="fill:none;stroke-width:.3985;stroke-linecap:butt;stroke-linejoin:miter;stroke:#000;stroke-opacity:1;stroke-miterlimit:10" d="m211.19 22.083-13.124-24.02" transform="matrix(1 0 0 -1 9.149 68.489)"/></g></g><g clip-path="url(#ee)"><g clip-path="url(#ef)"><path style="stroke:none;fill-rule:nonzero;fill:#000;fill-opacity:1" d="m206.258 72.172 2.93-2.031-1.973.285-.824-1.813"/></g></g><g clip-path="url(#eg)"><g clip-path="url(#eh)"><use xlink:href="#R" x="218.429" y="47.83" style="fill:#000;fill-opacity:1"/></g></g><g clip-path="url(#ei)"><g clip-path="url(#ej)"><path style="fill:none;stroke-width:.3985;stroke-linecap:butt;stroke-linejoin:miter;stroke:#000;stroke-opacity:1;stroke-miterlimit:10" d="m217.78 27.829-17.07-12.985" transform="matrix(1 0 0 -1 9.149 68.489)"/></g></g><g clip-path="url(#ek)"><g clip-path="url(#el)"><path style="stroke:none;fill-rule:nonzero;fill:#000;fill-opacity:1" d="m208.273 54.848 3.5-.66-1.914-.543-.015-1.993"/></g></g><g clip-path="url(#em)"><g clip-path="url(#en)"><use xlink:href="#R" x="225.017" y="42.087" style="fill:#000;fill-opacity:1"/></g></g><g clip-path="url(#eo)"><g clip-path="url(#ep)"><path style="fill:none;stroke-width:.3985;stroke-linecap:butt;stroke-linejoin:miter;stroke:#000;stroke-opacity:1;stroke-miterlimit:10" d="m223.413-33.355-.167.004" transform="matrix(1 0 0 -1 9.149 68.489)"/></g></g><g clip-path="url(#eq)"><g clip-path="url(#er)"><path style="stroke:none;fill-rule:nonzero;fill:#000;fill-opacity:1" d="m234.387 101.91-3.13-1.703 1.138 1.633-1.25 1.55"/></g></g><g clip-path="url(#es)"><g clip-path="url(#et)"><use xlink:href="#R" x="230.649" y="103.271" style="fill:#000;fill-opacity:1"/></g></g><g clip-path="url(#eu)"><g clip-path="url(#ev)"><path style="fill:none;stroke-width:.3985;stroke-linecap:butt;stroke-linejoin:miter;stroke:#000;stroke-opacity:1;stroke-miterlimit:10" d="m227.89-15.308 6.367 3.652" transform="matrix(1 0 0 -1 9.149 68.489)"/></g></g><g clip-path="url(#ew)"><g clip-path="url(#ex)"><path style="stroke:none;fill-rule:nonzero;fill:#000;fill-opacity:1" d="m245.137 79.152-3.559.203 1.828.79-.242 1.976"/></g></g><g clip-path="url(#ey)"><g clip-path="url(#ez)"><use xlink:href="#R" x="235.126" y="85.222" style="fill:#000;fill-opacity:1"/></g></g><g clip-path="url(#eA)"><g clip-path="url(#eB)"><path style="fill:none;stroke-width:.3985;stroke-linecap:butt;stroke-linejoin:miter;stroke:#000;stroke-opacity:1;stroke-miterlimit:10" d="m222.335-10.109 12.106 7.512" transform="matrix(1 0 0 -1 9.149 68.489)"/></g></g><g clip-path="url(#eC)"><g clip-path="url(#eD)"><path style="stroke:none;fill-rule:nonzero;fill:#000;fill-opacity:1" d="m245.285 70.035-3.55.328 1.855.723-.176 1.984"/></g></g><g clip-path="url(#eE)"><g clip-path="url(#eF)"><use xlink:href="#R" x="229.571" y="80.024" style="fill:#000;fill-opacity:1"/></g></g><g clip-path="url(#eG)"><g clip-path="url(#eH)"><path style="fill:none;stroke-width:.3985;stroke-linecap:butt;stroke-linejoin:miter;stroke:#000;stroke-opacity:1;stroke-miterlimit:10" d="m229.746 1.4 10.363-17.95" transform="matrix(1 0 0 -1 9.149 68.489)"/></g></g><g clip-path="url(#eI)"><g clip-path="url(#eJ)"><path style="stroke:none;fill-rule:nonzero;fill:#000;fill-opacity:1" d="m250.254 86.766-.215-3.559-.781 1.832-1.98-.238"/></g></g><g clip-path="url(#eK)"><g clip-path="url(#eL)"><use xlink:href="#R" x="236.982" y="68.516" style="fill:#000;fill-opacity:1"/></g></g><g clip-path="url(#eM)"><g clip-path="url(#eN)"><path style="fill:none;stroke-width:.3985;stroke-linecap:butt;stroke-linejoin:miter;stroke:#000;stroke-opacity:1;stroke-miterlimit:10" d="M224.261 9.802 210.394-17.5" transform="matrix(1 0 0 -1 9.149 68.489)"/></g></g><g clip-path="url(#eO)"><g clip-path="url(#eP)"><path style="stroke:none;fill-rule:nonzero;fill:#000;fill-opacity:1" d="m218.64 87.762 2.868-2.117-1.965.343-.879-1.789"/></g></g><g clip-path="url(#eQ)"><g clip-path="url(#eR)"><use xlink:href="#R" x="231.496" y="60.114" style="fill:#000;fill-opacity:1"/></g></g><g clip-path="url(#eS)"><g clip-path="url(#eT)"><path style="fill:none;stroke-width:.3985;stroke-linecap:butt;stroke-linejoin:miter;stroke:#000;stroke-opacity:1;stroke-miterlimit:10" d="m232.816 22.563 1.906-4.984" transform="matrix(1 0 0 -1 9.149 68.489)"/></g></g><g clip-path="url(#eU)"><g clip-path="url(#eV)"><path style="stroke:none;fill-rule:nonzero;fill:#000;fill-opacity:1" d="m244.586 52.773.348-3.546-1.063 1.683-1.914-.547"/></g></g><g clip-path="url(#eW)"><g clip-path="url(#eX)"><use xlink:href="#R" x="240.053" y="47.352" style="fill:#000;fill-opacity:1"/></g></g><g clip-path="url(#eY)"><g clip-path="url(#eZ)"><path style="fill:none;stroke-width:.3985;stroke-linecap:butt;stroke-linejoin:miter;stroke:#000;stroke-opacity:1;stroke-miterlimit:10" d="m227.765 30.184-3.32-16.593" transform="matrix(1 0 0 -1 9.149 68.489)"/></g></g><g clip-path="url(#fa)"><g clip-path="url(#fb)"><path style="stroke:none;fill-rule:nonzero;fill:#000;fill-opacity:1" d="m233.203 56.852 2.188-2.813-1.797.86-1.328-1.485"/></g></g><g clip-path="url(#fc)"><g clip-path="url(#fd)"><use xlink:href="#R" x="235.002" y="39.731" style="fill:#000;fill-opacity:1"/></g></g></svg>