<svg xmlns="http://www.w3.org/2000/svg" xmlns:xlink="http://www.w3.org/1999/xlink" width="240.587" height="127.2" viewBox="0 0 180.44 95.4"><defs><symbol overflow="visible" id="b"><path style="stroke:none" d="M1.516-5.922 1-3.953l.234.047c.11-.5.266-1.14.672-1.39.344-.204.797-.141 1.172-.079l.328.047c.219.031.422.094.375.406L2.984-.203c-.062.36-.406.344-.718.297C2.14.062 2.03.047 1.937.03l-.28-.047-.048.266 3.344.563L5 .546 4.422.453c-.36-.062-.688-.172-.625-.531l.797-4.719c.047-.281.187-.297.531-.234l.297.047c.578.093 1.203.265 1.266 1.093.015.297 0 .61-.032.891l.25.031.157-2.015Zm0 0"/></symbol><symbol overflow="visible" id="c"><path style="stroke:none" d="M.953-3.766.906-3.5l.078.016c.235.046.563.125.532.375 0 .125-.016.203-.032.312l-.296 1.75c-.047.281-.079.531.015.781.188.485.703.688 1.172.75.484.094 1.016-.125 1.25-.562l-.11.765 1.329.11L4.89.53 4.734.5c-.265-.047-.53-.125-.453-.516l.532-3.218-1.344-.11-.047.266.11.015c.28.047.546.126.484.547L3.719-.78c-.14.578-.61 1.156-1.281 1.047-.36-.063-.672-.188-.657-.657.016-.171.047-.328.063-.5l.468-2.75Zm0 0"/></symbol><symbol overflow="visible" id="d"><path style="stroke:none" d="m1.281-6.016-.047.282.141.015c.281.047.516.125.453.547L.938.141l.25.03.437-.484c.219.516.625.782 1.11.86C3.843.734 4.89-.047 5.077-1.125c.156-.938-.437-2.125-1.594-2.328-.468-.078-.906.031-1.343.36l.468-2.798Zm2.969 4.97c-.094.405-.203.765-.516 1.046-.296.234-.687.36-1.046.297a1.165 1.165 0 0 1-.86-.688.538.538 0 0 1-.062-.312l.328-1.969c.14-.375.812-.64 1.281-.562 1.031.171 1.016 1.328.906 2 0 .062-.015.125-.031.187Zm0 0"/></symbol><symbol overflow="visible" id="e"><path style="stroke:none" d="m1.36-1.86 2.624.438c.11.016.157-.031.172-.14.188-1.11-.406-1.891-1.328-2.047C1.75-3.781.75-2.97.578-1.891.391-.812 1.094.281 2.297.484c.625.094 1.344-.25 1.625-.828.031-.015.031-.062.031-.094.016-.062-.031-.109-.094-.124-.171-.032-.203.234-.328.343A1.33 1.33 0 0 1 2.36.234L2.297.22c-.469-.094-.813-.485-.938-.922-.125-.39-.062-.781 0-1.156Zm.046-.218c.094-.578.453-1.219 1.14-1.313a.446.446 0 0 1 .204 0c.766.125.922.97.797 1.672Zm0 0"/></symbol><symbol overflow="visible" id="f"><path style="stroke:none" d="m3.813-5.594-.047.282.078.015c.36.063.578.11.5.64L4.03-2.811a1.465 1.465 0 0 0-1.062-.72C1.875-3.718.813-2.936.625-1.843.469-.844 1.109.281 2.219.47c.422.062 1-.047 1.297-.375l-.094.578 1.36.11.046-.266-.14-.032C4.39.438 4.14.375 4.218-.03l.907-5.438ZM1.342-1.53l.032-.125c.11-.719.484-1.828 1.594-1.64.469.077 1.047.53.953 1.077-.016.11-.063.219-.078.328L3.609-.42c-.015.108-.078.171-.156.265-.297.281-.734.469-1.156.39-.344-.047-.625-.28-.797-.578-.188-.375-.172-.781-.156-1.187Zm0 0"/></symbol><symbol overflow="visible" id="g"><path style="stroke:none" d="M3.781-2.953c-.203.031-.39.11-.422.36-.046.218.079.421.344.468.235.031.453-.094.5-.36.11-.64-.625-.984-1.156-1.093l-.094-.016A2.041 2.041 0 0 0 .641-1.875C.453-.797 1.14.281 2.266.469 2.875.579 3.5.344 3.859-.234c.032-.063.094-.141.094-.203.016-.063-.047-.11-.11-.126-.155-.03-.187.204-.28.313-.297.36-.704.563-1.188.484-.969-.156-1.11-1.328-.984-2C1.5-2.5 1.953-3.5 2.937-3.328c.25.031.5.11.688.25.063.031.094.094.156.125Zm0 0"/></symbol><symbol overflow="visible" id="h"><path style="stroke:none" d="M2.797-3.61A2.104 2.104 0 0 0 .578-1.843C.438-.937.922.25 2.266.47c1.03.172 2.14-.485 2.328-1.625.172-1.063-.485-2.235-1.672-2.438-.047 0-.078-.015-.125-.015ZM1.312-1.53l.063-.36c.125-.718.5-1.656 1.531-1.484.688.125 1.047.75 1 1.469-.015.187-.031.375-.062.562-.078.453-.203.985-.594 1.313-.266.203-.61.312-.953.25-.64-.11-1.016-.672-1.031-1.407.03-.109.046-.218.046-.343Zm0 0"/></symbol><symbol overflow="visible" id="i"><path style="stroke:none" d="M.906-3.766.86-3.5 1-3.484c.266.046.516.125.453.546L1.047-.483c-.063.343-.297.328-.734.25L.266.03.875.11l1.547.266.047-.25-.297-.047c-.313-.062-.547-.14-.485-.453l.25-1.5c.157-.625.47-1.516 1.375-1.36-.124.032-.203.172-.218.297a.393.393 0 0 0 .312.47c.235.046.422-.126.453-.345.063-.374-.265-.624-.578-.671-.547-.094-1.047.312-1.25.78l.156-.968Zm0 0"/></symbol><symbol overflow="visible" id="j"><path style="stroke:none" d="M1.656-3.25c.282-.188.657-.219.969-.172.313.063.563.281.703.578.125.266.078.531.031.828l-.03.157c-.735-.032-1.454-.157-2.157.203a1.202 1.202 0 0 0-.656.843c-.11.72.703 1.11 1.28 1.204a1.311 1.311 0 0 0 1.329-.532c.016.375.188.735.594.813.531.078.828-.328.922-.813l.062-.406-.25-.047-.078.453c-.047.25-.14.579-.406.532-.297-.047-.25-.438-.219-.641l.281-1.734c.157-.922-.562-1.516-1.36-1.641-.546-.094-1.405 0-1.53.703-.032.235.078.438.406.5a.41.41 0 0 0 .422-.344c.047-.25-.125-.406-.313-.484Zm1.64 1.61-.155.859C3.047-.156 2.53.28 1.906.172h-.062c-.39-.11-.672-.484-.61-.86.141-.843 1.235-1.078 2.063-.953Zm0 0"/></symbol><symbol overflow="visible" id="k"><path style="stroke:none" d="M.953-3.766.906-3.5l.14.031c.25.047.516.125.454.547L1.094-.469c-.063.344-.297.313-.735.235L.313.03l.625.094 1.39.234.047-.25-.203-.03C1.906.03 1.703-.048 1.766-.36l.265-1.594c.11-.672.625-1.39 1.453-1.25.485.078.563.531.47 1.078L3.608-.031c-.062.297-.312.297-.609.25L2.875.187l-.047.266.625.094 1.39.234.048-.25L4.719.5C4.453.453 4.203.375 4.266.062l.328-2c.047-.265.078-.515-.016-.78-.14-.47-.594-.641-1.031-.72-.531-.093-1.156.188-1.438.672l.141-.89Zm0 0"/></symbol><symbol overflow="visible" id="l"><path style="stroke:none" d="M2.25-5.234c-.11.64-.578 1.64-1.453 1.5l-.031.218.765.125-.39 2.344c-.047.281-.079.547.03.797.141.422.563.64.97.703l.078.016c.687-.016.922-.719 1.015-1.25l.047-.328-.234-.032L3-.75c-.063.39-.266 1.047-.797.953-.469-.078-.484-.64-.422-1.094l.407-2.39 1.28.219.048-.266-1.282-.219.266-1.64Zm0 0"/></symbol><symbol overflow="visible" id="o"><path style="stroke:none" d="M3.063 2.14c0-.046-.032-.078-.079-.14C1.828.937 1.47-.672 1.47-2.25c0-1.375.265-3.063 1.531-4.266.047-.046.063-.062.063-.109a.107.107 0 0 0-.11-.11c-.11 0-.922.657-1.406 1.626-.422.859-.64 1.796-.64 2.859 0 .64.077 1.672.577 2.719.532 1.11 1.36 1.765 1.47 1.765.062 0 .108-.03.108-.093Zm0 0"/></symbol><symbol overflow="visible" id="r"><path style="stroke:none" d="M2.672-2.25c0-.734-.11-1.719-.578-2.719C1.563-6.079.734-6.734.625-6.734c-.094 0-.11.078-.11.109 0 .047.016.063.079.125.531.469 1.515 1.688 1.515 4.25C2.11-.969 1.875.813.58 2.031c-.016.016-.063.063-.063.11 0 .015.015.093.109.093.11 0 .922-.64 1.406-1.625.422-.859.64-1.78.64-2.859Zm0 0"/></symbol><symbol overflow="visible" id="p"><path style="stroke:none" d="M5.86-6.078c.03-.094.03-.125.03-.14 0-.016 0-.11-.109-.11-.047 0-.047.016-.156.14-.125.141-.016.016-.438.5-.328-.5-.843-.64-1.328-.64-1.156 0-2.25 1.031-2.25 2.11 0 .374.125.671.36.921.25.281.484.328 1.125.5l.75.188c.297.093.594.375.594.89 0 .797-.766 1.64-1.672 1.64-.516 0-1.594-.155-1.594-1.312 0-.078 0-.218.062-.484.016-.031.016-.047.016-.063 0-.03-.016-.093-.125-.093-.11 0-.125.047-.156.187L.5.094c0 .062.031.11.094.11C.64.203.656.187.766.062c.062-.063.312-.391.421-.5.47.593 1.297.64 1.563.64 1.234 0 2.313-1.156 2.313-2.297 0-1.11-.875-1.328-1.157-1.39l-.812-.22c-.297-.077-.844-.218-.844-.89 0-.687.719-1.484 1.61-1.484.359 0 .718.11.968.36.344.327.344.812.344 1.046 0 .297-.031.39-.031.469 0 .062.03.11.125.11.093 0 .093-.016.14-.188Zm0 0"/></symbol><symbol overflow="visible" id="w"><path style="stroke:none" d="M4.313-3.313c0-.624-.329-.656-.407-.656-.234 0-.469.235-.469.438 0 .14.094.219.157.265.234.22.312.516.312.75 0 .391-.562 2.391-1.594 2.391-.687 0-.687-.625-.687-.797 0-.375.14-.844.453-1.656.14-.375.172-.469.172-.625a.739.739 0 0 0-.766-.766c-.859 0-1.218 1.281-1.218 1.39 0 .079.062.11.125.11.093 0 .109-.062.14-.172.188-.656.547-1.093.922-1.093.172 0 .219.109.219.296 0 .141-.047.313-.125.516-.313.875-.531 1.438-.531 1.89 0 .845.64 1.126 1.25 1.126 1.515 0 2.046-2.828 2.046-3.406Zm0 0"/></symbol><symbol overflow="visible" id="q"><path style="stroke:none" d="M2.14-3.797c0-.187-.015-.187-.203-.187-.39.39-1 .39-1.218.39v.235c.156 0 .562 0 .922-.172v3.015c0 .204 0 .282-.625.282h-.25V0c.328-.031.796-.031 1.125-.031.328 0 .796 0 1.125.031v-.234h-.25c-.625 0-.625-.078-.625-.282Zm0 0"/></symbol><symbol overflow="visible" id="s"><path style="stroke:none" d="M3.219-1.125H3c-.016.094-.078.484-.156.547-.047.047-.531.047-.625.047h-1.11l.766-.625c.203-.172.734-.547.922-.735.172-.171.422-.484.422-.906 0-.75-.672-1.187-1.485-1.187-.765 0-1.296.515-1.296 1.078 0 .297.25.344.312.344a.32.32 0 0 0 .328-.329c0-.125-.078-.328-.344-.328.141-.297.5-.531.922-.531.625 0 .953.469.953.953 0 .422-.28.86-.687 1.25L.5-.25C.437-.187.437-.187.437 0h2.594Zm0 0"/></symbol><symbol overflow="visible" id="t"><path style="stroke:none" d="M4.094-2.25c0-1-.828-1.781-1.782-1.781A1.794 1.794 0 0 0 .516-2.25c0 1 .828 1.797 1.78 1.797A1.807 1.807 0 0 0 4.095-2.25Zm0 0"/></symbol><symbol overflow="visible" id="u"><path style="stroke:none" d="M6.047-2.047c.172 0 .344 0 .344-.203 0-.188-.188-.188-.344-.188H1.109c-.156 0-.343 0-.343.188 0 .203.171.203.343.203Zm0 0"/></symbol><symbol overflow="visible" id="v"><path style="stroke:none" d="M7.625-2.047c-1.063.75-1.281 1.938-1.281 2.031 0 .125.125.125.187.125.11 0 .172 0 .203-.125.25-1.046.86-1.75 1.844-2.109.047-.016.125-.047.125-.125s-.062-.094-.125-.125c-1.125-.422-1.64-1.219-1.844-2.094-.03-.125-.062-.125-.203-.125-.078 0-.187 0-.187.125 0 .094.218 1.282 1.281 2.032H.844c-.156 0-.328 0-.328.187 0 .203.171.203.328.203Zm0 0"/></symbol><clipPath id="a"><path d="M0 0h180.441v40H0Zm0 0"/></clipPath><clipPath id="m"><path d="M0 27h180.441v68.398H0Zm0 0"/></clipPath><clipPath id="n"><path d="M0 13h180.441v55H0Zm0 0"/></clipPath></defs><g clip-path="url(#a)"><path style="fill:none;stroke-width:.3985;stroke-linecap:butt;stroke-linejoin:miter;stroke:red;stroke-opacity:1;stroke-miterlimit:10" d="M-.001 14.173 170.08-14.174" transform="matrix(1 0 0 -1 5.181 19.353)"/></g><path style="stroke:none;fill-rule:nonzero;fill:red;fill-opacity:1" d="m89.059 19.16-2.883-2.098.918 1.77-1.442 1.375"/><use xlink:href="#b" x="57.845" y="11.938" style="fill:#000;fill-opacity:1"/><g style="fill:#000;fill-opacity:1"><use xlink:href="#c" x="63.647" y="12.905"/><use xlink:href="#d" x="68.696" y="13.746"/></g><use xlink:href="#e" x="74" y="14.63" style="fill:#000;fill-opacity:1"/><g style="fill:#000;fill-opacity:1"><use xlink:href="#f" x="81.067" y="15.808"/><use xlink:href="#e" x="86.115" y="16.649"/></g><g style="fill:#000;fill-opacity:1"><use xlink:href="#g" x="93.191" y="17.829"/><use xlink:href="#h" x="97.231" y="18.502"/><use xlink:href="#c" x="101.775" y="19.259"/><use xlink:href="#i" x="106.823" y="20.1"/><use xlink:href="#j" x="110.377" y="20.693"/><use xlink:href="#k" x="114.921" y="21.45"/></g><use xlink:href="#l" x="119.713" y="22.249" style="fill:#000;fill-opacity:1"/><g clip-path="url(#m)"><path style="fill:none;stroke-width:.3985;stroke-linecap:butt;stroke-linejoin:miter;stroke:red;stroke-opacity:1;stroke-miterlimit:10" d="M-.001-14.174 170.08-70.866" transform="matrix(1 0 0 -1 5.181 19.353)"/></g><path style="stroke:none;fill-rule:nonzero;fill:red;fill-opacity:1" d="m85.855 60.418-2.523-2.52.633 1.887-1.64 1.137"/><g clip-path="url(#n)"><path style="fill:none;stroke-width:.3985;stroke-linecap:butt;stroke-linejoin:miter;stroke:red;stroke-opacity:1;stroke-dasharray:2.98883,2.98883;stroke-miterlimit:10" d="M-.001.001 170.08-42.522" transform="matrix(1 0 0 -1 5.181 19.353)"/></g><path style="fill-rule:nonzero;fill:#bfbfbf;fill-opacity:.8;stroke-width:.3985;stroke-linecap:butt;stroke-linejoin:miter;stroke:#000;stroke-opacity:.8;stroke-miterlimit:10" d="M19.409-4.127c1.629 7.66-.777 14.656-5.371 15.632C9.444 12.482 4.4 7.068 2.772-.588c-1.629-7.657.777-14.657 5.371-15.633 4.594-.977 9.637 4.437 11.266 12.094Zm0 0" transform="matrix(1 0 0 -1 5.181 19.353)"/><use xlink:href="#o" x="8.045" y="47.225" style="fill:#000;fill-opacity:1"/><use xlink:href="#p" x="11.629" y="47.225" style="fill:#000;fill-opacity:1"/><use xlink:href="#q" x="17.258" y="48.221" style="fill:#000;fill-opacity:1"/><use xlink:href="#r" x="21.409" y="47.225" style="fill:#000;fill-opacity:1"/><path style="fill-rule:nonzero;fill:#bfbfbf;fill-opacity:.8;stroke-width:.3985;stroke-linecap:butt;stroke-linejoin:miter;stroke:#000;stroke-opacity:.8;stroke-miterlimit:10" d="M107.221-25.975c2.442 11.484-.543 21.851-6.668 23.152-6.129 1.305-13.07-6.953-15.511-18.437-2.442-11.485.543-21.852 6.668-23.153 6.125-1.3 13.07 6.953 15.511 18.438Zm0 0" transform="matrix(1 0 0 -1 5.181 19.353)"/><use xlink:href="#o" x="93.084" y="75.572" style="fill:#000;fill-opacity:1"/><use xlink:href="#p" x="96.668" y="75.572" style="fill:#000;fill-opacity:1"/><use xlink:href="#s" x="102.298" y="76.568" style="fill:#000;fill-opacity:1"/><use xlink:href="#r" x="106.449" y="75.572" style="fill:#000;fill-opacity:1"/><path style="fill:none;stroke-width:.79701;stroke-linecap:butt;stroke-linejoin:miter;stroke:#000;stroke-opacity:1;stroke-miterlimit:10" d="M11.339-2.834 37.17-9.293" transform="matrix(1 0 0 -1 5.181 19.353)"/><path style="stroke:none;fill-rule:nonzero;fill:#000;fill-opacity:1" d="m44.867 29.273-3.52-3.015 1.005 2.387-2.008 1.636"/><use xlink:href="#t" x="14.215" y="24.205" style="fill:#000;fill-opacity:1"/><use xlink:href="#u" x="40.258" y="22.425" style="fill:#000;fill-opacity:1"/><use xlink:href="#v" x="40.262" y="22.425" style="fill:#000;fill-opacity:1"/><use xlink:href="#w" x="40.552" y="26.286" style="fill:#000;fill-opacity:1"/><use xlink:href="#q" x="45.028" y="27.282" style="fill:#000;fill-opacity:1"/><path style="fill:none;stroke-width:.79701;stroke-linecap:butt;stroke-linejoin:miter;stroke:#000;stroke-opacity:1;stroke-miterlimit:10" d="m96.378-24.096 25.836-6.457" transform="matrix(1 0 0 -1 5.181 19.353)"/><path style="stroke:none;fill-rule:nonzero;fill:#000;fill-opacity:1" d="m129.906 50.535-3.52-3.015 1.009 2.386-2.012 1.633"/><use xlink:href="#t" x="99.254" y="45.465" style="fill:#000;fill-opacity:1"/><use xlink:href="#u" x="125.297" y="43.685" style="fill:#000;fill-opacity:1"/><use xlink:href="#v" x="125.301" y="43.685" style="fill:#000;fill-opacity:1"/><use xlink:href="#w" x="125.591" y="47.546" style="fill:#000;fill-opacity:1"/><use xlink:href="#s" x="130.067" y="48.542" style="fill:#000;fill-opacity:1"/></svg>