<svg xmlns="http://www.w3.org/2000/svg" xmlns:xlink="http://www.w3.org/1999/xlink" width="189.711" height="164.996" viewBox="0 0 142.283 123.747"><path d="M27.736 26.44c14.173 14.173 56.693 14.173 70.866 0v85.04H27.735z" fill="#ccf"/><path stroke-width=".797" stroke-linecap="round" stroke-miterlimit="10" fill="none" stroke="#99f" d="M27.736 26.44c14.173 14.173 56.693 14.173 70.866 0v85.04H27.735z"/><path stroke-width=".996" stroke-miterlimit="10" fill="none" stroke="#000" d="M27.736 12.266v99.214h70.866V12.266"/><path stroke-width="2.989" stroke-miterlimit="10" fill="none" stroke="#929292" d="M6.475 111.48h113.388"/><path stroke-width=".399" stroke-dasharray="6.97394,1.99255,.99628,1.99255" stroke-miterlimit="10" fill="none" stroke="#000" d="M63.169 118.567V5.179"/><path stroke-width=".399" stroke-miterlimit="10" fill="none" stroke="#000" d="M61.23 10.269c-2.942.401-4.46 1.621-3.388 2.724 1.07 1.104 4.324 1.673 7.266 1.27 2.942-.4 4.46-1.62 3.389-2.724-.574-.59-1.814-1.056-1.415-1.001"/><path d="m65.108 10.269 2.943 2.01-.969-1.741 1.4-1.418"/><symbol id="a"><path d="M.625.376c0 .031-.009.076-.048.076A.055.055 0 0 1 .524.399c0-.015.011-.024.022-.034a.109.109 0 0 0 .03-.078C.576.22.507.078.407.078a.098.098 0 0 0-.1.079.374.374 0 0 1 .037.117c0 .017-.008.03-.027.03C.272.304.266.193.266.161.231.119.19.078.132.078c-.064 0-.094.051-.094.11 0 .047.013.089.033.128C.1.374.139.412.139.428c0 .011-.009.019-.02.019C.1.447.085.418.074.4A.505.505 0 0 1 0 .153C0 .076.029.001.117.001c.086 0 .135.069.157.097C.289.043.33 0 .391 0c.082 0 .123.053.164.122.032.053.07.191.07.254z"/></symbol><use xlink:href="#a" transform="matrix(7.9701 0 0 -7.9701 70.217 12.065)"/><path stroke-width=".797" stroke-miterlimit="10" fill="none" stroke="#000" d="M77.342 68.96h11.584"/><path d="m91.516 68.96-4.145-2.072 1.555 2.072-1.555 2.072"/><symbol id="b"><path d="M.412.207a.206.206 0 1 1-.412 0 .206.206 0 1 1 .412 0z"/></symbol><use xlink:href="#b" transform="matrix(7.9701 0 0 -7.9701 75.695 70.437)"/><symbol id="c"><path d="M.611 0c.016 0 .038 0 .038.023S.627.046.611.046H.038C.022.046 0 .046 0 .023S.022 0 .038 0h.573z"/></symbol><symbol id="d"><path d="M.814.241A.375.375 0 0 1 .671.015C.671 0 .685 0 .694 0c.011 0 .02 0 .023.013.026.111.09.195.211.236.008.002.016.005.016.015 0 .01-.009.013-.013.014a.307.307 0 0 0-.212.227C.714.525.714.528.694.528c-.009 0-.023 0-.023-.015A.352.352 0 0 1 .814.287H.038C.022.287 0 .287 0 .264S.022.241.038.241h.776z"/></symbol><use xlink:href="#c" transform="matrix(7.9701 0 0 -7.9701 87.686 73.153)"/><use xlink:href="#d" transform="matrix(7.9701 0 0 -7.9701 88.045 75.074)"/><symbol id="e"><path d="M.345.119C.34.1.293.028.226.028.177.028.16.064.16.109a.69.69 0 0 0 .057.205.12.12 0 0 1 .013.052C.23.421.186.451.14.451.041.451 0 .31 0 .298 0 .289.007.285.015.285c.013 0 .014.006.017.016.026.089.07.122.105.122.015 0 .024-.01.024-.033S.152.344.139.309A.513.513 0 0 1 .088.124C.088.026.162 0 .221 0c.075 0 .121.06.125.065C.362.018.407 0 .443 0 .49 0 .513.04.52.055c.02.036.034.094.034.098C.554.159.55.166.538.166S.524.161.518.135C.505.085.487.028.446.028.423.028.414.047.414.075c0 .017.009.051.015.076l.025.103.02.076C.48.357.492.404.492.41c0 .025-.02.031-.032.031A.046.046 0 0 1 .417.408L.345.119z"/></symbol><use xlink:href="#e" transform="matrix(7.9701 0 0 -7.9701 87.224 78.473)"/><symbol id="f"><path d="M.223.309c.003.005.026.05.065.081C.3.398.329.418.375.418c.009 0 .041 0 .067-.015A.059.059 0 0 1 .401.349C.401.317.427.31.441.31.47.31.499.334.499.373c0 .053-.058.078-.122.078C.351.451.29.449.229.378.214.431.16.451.119.451.076.451.052.422.037.398A.36.36 0 0 1 0 .298C0 .287.009.283.018.283.034.283.035.29.04.306c.019.077.043.112.076.112.031 0 .036-.029.036-.05C.152.351.142.311.135.283a3.78 3.78 0 0 1-.022-.09L.093.117A1.203 1.203 0 0 1 .074.033C.074.011.091 0 .109 0c.02 0 .039.014.045.034L.2.216l.023.093z"/></symbol><use xlink:href="#f" transform="matrix(5.9776 0 0 -5.9776 92.253 79.449)"/><path stroke-width=".797" stroke-miterlimit="10" fill="none" stroke="#000" d="M77.342 68.96V57.377"/><path d="m77.342 54.786-2.072 4.145 2.072-1.554 2.073 1.554"/><use xlink:href="#c" transform="matrix(7.9701 0 0 -7.9701 73.443 45.56)"/><use xlink:href="#d" transform="matrix(7.9701 0 0 -7.9701 73.938 47.482)"/><use xlink:href="#e" transform="matrix(7.9701 0 0 -7.9701 72.981 50.882)"/><symbol id="g"><path d="M.114.1C.145.13.18.159.233.199c.068.052.108.083.151.123a.384.384 0 0 1 .095.115c0 .014-.014.014-.018.014-.01 0-.013-.002-.02-.013C.423.412.396.382.364.382.34.382.319.399.306.41.28.432.257.451.22.451.136.451.08.363.08.333.08.322.088.318.098.318c.013 0 .016.006.019.014.014.035.07.038.091.038A.305.305 0 0 0 .28.36C.331.35.342.35.364.349A1.091 1.091 0 0 0 .252.256 1.878 1.878 0 0 1 .099.132.411.411 0 0 1 0 .014C0 0 .015 0 .019 0c.01 0 .012.002.018.01.04.053.079.059.095.059.024 0 .041-.013.059-.028C.221.018.242 0 .278 0 .389 0 .46.122.46.158.46.167.451.172.441.172.427.172.425.166.422.156.402.101.336.081.289.081c-.024 0-.048.005-.074.01C.185.097.161.102.137.102.132.102.123.102.114.1z"/></symbol><use xlink:href="#g" transform="matrix(5.9776 0 0 -5.9776 78.093 51.858)"/><symbol id="h"><path d="M.707.354a.354.354 0 1 1-.708 0 .354.354 0 0 1 .708 0m-.57.239a.32.32 0 0 0 .433 0L.354.376.137.593M.115.137a.318.318 0 0 0-.084.217c0 .076.027.157.084.217L.332.354.115.137m.477.434A.318.318 0 0 0 .676.354.317.317 0 0 0 .592.137L.375.354l.217.217M.57.115a.32.32 0 0 0-.433 0l.216.217L.57.115z"/></symbol><use xlink:href="#h" transform="matrix(7.9701 0 0 -7.9701 81.3 64.896)"/><use xlink:href="#c" transform="matrix(7.9701 0 0 -7.9701 88.116 58.827)"/><use xlink:href="#d" transform="matrix(7.9701 0 0 -7.9701 88.539 60.748)"/><use xlink:href="#e" transform="matrix(7.9701 0 0 -7.9701 87.654 64.147)"/><symbol id="i"><path d="M.469.49C.469.606.42.714.32.714.164.714 0 .453 0 .224 0 .094.056 0 .149 0c.157 0 .32.265.32.49M.116.377c.065.248.156.304.203.304.07 0 .07-.12.07-.135 0-.009 0-.067-.027-.169H.116m.236-.04C.296.111.205.033.15.033.084.033.08.134.08.168s.004.078.026.169h.246z"/></symbol><use xlink:href="#i" transform="matrix(5.9776 0 0 -5.9776 92.772 65.533)"/><path stroke-width=".399" stroke-miterlimit="10" fill="none" stroke="#000" d="M63.169 68.96h12.18"/><path d="m77.342 68.96-3.188-1.594 1.196 1.594-1.196 1.594"/><symbol id="j"><path d="M.163.148a4.938 4.938 0 0 1 .041.166c.003.009.028.05.054.075a.126.126 0 0 0 .084.034A.065.065 0 0 0 .385.41.059.059 0 0 1 .336.355c0-.022.017-.037.039-.037.027 0 .057.022.057.062 0 .036-.031.071-.088.071A.175.175 0 0 1 .209.379C.189.451.121.451.111.451.075.451.05.428.034.397A.4.4 0 0 1 0 .298C0 .289.007.285.015.285c.013 0 .014.004.021.03.012.049.03.108.072.108C.134.423.14.398.14.376.14.358.135.339.127.306A5.408 5.408 0 0 0 .106.225L.069.075a.447.447 0 0 1-.01-.044C.059.008.078 0 .091 0c.035 0 .042.028.05.062l.022.086z"/></symbol><use xlink:href="#j" transform="matrix(7.9701 0 0 -7.9701 68.466 66.05)"/><symbol id="k"><path d="M0 .683V.65l.036.001C.07.651.102.646.102.609L.101.59V.105C.101.039.043.033 0 .033V0l.066.003h.107L.236 0v.033C.191.033.134.041.134.108l.001.028.001.504C.142.62.152.6.16.58.237.4.312.215.383.035.388.022.393.001.411 0 .429 0 .434.021.44.034.512.217.588.4.664.582.672.603.685.627.69.648L.691.1.692.076C.692.038.658.032.625.032L.59.033V0l.074.003h.21v.03L.838.032C.804.032.772.037.772.074l.001.019v.513c0 .04.033.045.067.045L.874.65v.033H.701C.684.683.673.678.668.661L.657.635C.591.471.521.308.456.143.45.127.441.111.437.095.417.14.399.187.38.233L.216.635.206.66C.2.673.193.683.178.683H0z"/></symbol><use xlink:href="#k" transform="matrix(7.9701 0 0 -7.9701 73.857 77.43)"/><path stroke-width=".399" stroke-miterlimit="10" fill="none" stroke="#000" d="M93.508 40.613h12.181"/><path d="m91.516 40.613 3.188 1.594-1.196-1.594 1.196-1.594"/><symbol id="l"><path d="M0 .683V.65l.036.001C.07.651.1.646.1.607v-.53C.1.037.068.032.034.032L0 .033V0h.544l.029.26H.542C.533.172.52.068.399.04.369.033.338.033.307.033H.23C.209.033.192.038.192.067v.539c0 .04.037.044.07.044h.056v.033H0z"/></symbol><symbol id="m"><path d="M.004.429V.396H.02C.052.396.076.39.076.347V.075C.076.034.05.033 0 .033V0l.061.003h.101L.218 0v.033H.204C.175.033.15.035.15.069V.44L.113.437.004.429M.09.67A.055.055 0 0 1 .096.56C.13.56.153.587.153.616a.055.055 0 0 1-.054.055L.09.67z"/></symbol><symbol id="n"><path d="M.367.254.368.072C.368.036.346.033.292.033V0l.063.003H.46L.521 0v.033h-.02C.47.033.445.036.445.075v.559L.418.632.379.547a.168.168 0 0 1-.147.087A.231.231 0 0 1 0 .408C0 .283.105.184.225.184c.05 0 .116.025.142.07m-.278.14v.01c0 .068.026.146.091.182.02.011.042.017.063.017.061 0 .12-.059.128-.12V.332C.371.272.3.226.263.216A.155.155 0 0 0 .232.212H.225C.156.217.111.285.096.346L.089.394z"/></symbol><symbol id="o"><path d="M0 .44V.407h.013c.025 0 .056-.002.061-.03C.076.366.076.356.076.345V.148A.17.17 0 0 1 .092.062C.12.013.184 0 .233 0a.149.149 0 0 1 .139.082L.373.001l.15.01v.033H.504C.475.044.447.048.447.092v.359L.294.44V.407h.012C.34.407.37.405.37.357V.186C.37.106.327.029.241.029.206.029.16.038.155.089.153.107.153.125.153.143v.308L0 .44z"/></symbol><symbol id="p"><path d="M.294.693V.66h.011C.344.66.37.658.37.599V.393A.187.187 0 0 1 .236.45C.113.45 0 .354 0 .225 0 .102.103 0 .225 0a.19.19 0 0 1 .142.063V0L.52.01v.033H.504c-.03 0-.06.003-.06.05v.611L.294.693M.089.203v.014c0 .07.013.155.09.19A.141.141 0 0 0 .36.357C.363.352.366.348.367.342V.126C.367.075.285.028.233.028c-.074 0-.127.059-.139.13L.089.203z"/></symbol><symbol id="q"><path d="M.089.239h.305c.013 0 .019.007.019.019 0 .05-.015.108-.051.145a.192.192 0 0 1-.137.053A.222.222 0 0 1 0 .231C0 .117.091 0 .235 0 .31 0 .39.047.411.121L.413.13a.015.015 0 0 1-.015.015C.379.145.376.113.367.101A.147.147 0 0 0 .243.033a.147.147 0 0 0-.13.077.272.272 0 0 0-.024.129M.09.266C.1.323.11.385.169.414a.114.114 0 0 0 .054.014C.288.428.332.374.342.302L.345.266H.09z"/></symbol><use xlink:href="#l" transform="matrix(7.9701 0 0 -7.9701 109.036 42.576)"/><use xlink:href="#m" transform="matrix(7.9701 0 0 -7.9701 114.288 42.576)"/><use xlink:href="#n" transform="matrix(7.9701 0 0 -7.9701 116.591 44.122)"/><use xlink:href="#o" transform="matrix(7.9701 0 0 -7.9701 121.102 42.664)"/><use xlink:href="#m" transform="matrix(7.9701 0 0 -7.9701 125.813 42.576)"/><use xlink:href="#p" transform="matrix(7.9701 0 0 -7.9701 128.116 42.656)"/><use xlink:href="#q" transform="matrix(7.9701 0 0 -7.9701 132.77 42.664)"/><path stroke-width=".797" stroke-miterlimit="10" fill="none" stroke="#000" d="M6.475 83.133v11.583"/><path d="m6.475 97.307 2.073-4.145-2.073 1.554-2.072-1.554"/><use xlink:href="#c" transform="matrix(7.9701 0 0 -7.9701 10.166 87.427)"/><use xlink:href="#d" transform="matrix(7.9701 0 0 -7.9701 9.935 89.348)"/><symbol id="r"><path d="M.475.573c.004.015.004.021.004.022C.479.618.46.626.447.626A.047.047 0 0 1 .402.587a.111.111 0 0 1-.098.058C.185.645.055.512.055.366.055.258.126.204.2.204c.046 0 .087.025.12.054L.298.168C.287.126.28.097.241.064.199.028.161.028.136.028a.354.354 0 0 0-.073.006.059.059 0 0 1 .032.05c0 .024-.018.037-.039.037A.057.057 0 0 1 0 .061C0 .004.078 0 .138 0 .28 0 .351.076.366.137l.109.436M.34.336C.333.308.311.288.29.269.281.262.243.232.202.232c-.04 0-.069.033-.069.093a.61.61 0 0 0 .052.202c.032.057.079.09.119.09.067 0 .085-.074.085-.083L.386.52.34.336z"/></symbol><use xlink:href="#r" transform="matrix(7.9701 0 0 -7.9701 11.708 94.293)"/></svg>