<svg xmlns="http://www.w3.org/2000/svg" xmlns:xlink="http://www.w3.org/1999/xlink" width="375.005" height="133.652" viewBox="0 0 281.254 100.239"><path stroke-width="1.196" stroke-linecap="round" stroke-miterlimit="10" fill="none" stroke="#369" d="M83.27 94.66V77.721"/><path d="M83.27 71.983c-.32 1.7-1.276 4.463-2.392 6.376h4.782c-1.116-1.913-2.072-4.676-2.39-6.376" fill="#369"/><path stroke-width="1.196" stroke-linecap="round" stroke-miterlimit="10" fill="none" stroke="#369" d="M44.15 55.541h16.94"/><path d="M66.828 55.541c-1.7-.318-4.463-1.275-6.376-2.39v4.781c1.913-1.115 4.676-2.072 6.376-2.39" fill="#369"/><symbol id="a"><path d="M.076.073C.068.041.066.033.026.033.012.033 0 .033 0 .014 0 .005.009 0 .014 0c.01 0 .014.003.088.003C.174.003.195 0 .202 0c.004 0 .019 0 .019.019 0 .014-.014.014-.026.014-.048 0-.048.006-.048.015 0 .007.018.078.048.195A.112.112 0 0 1 .293.184c.123 0 .251.142.251.287C.544.57.48.635.4.635.34.635.292.594.263.564.242.635.175.635.165.635.129.635.104.612.088.581A.4.4 0 0 1 .054.482c0-.009.007-.013.015-.013.013 0 .014.004.021.03.013.051.031.108.072.108C.187.607.194.584.194.56A.265.265 0 0 0 .188.518L.076.073M.26.502c.005.017.005.019.02.037.038.045.081.068.117.068.05 0 .069-.049.069-.094A.618.618 0 0 0 .414.31C.388.256.34.212.293.212.225.212.209.29.209.297a.11.11 0 0 0 .003.016L.26.502z"/></symbol><use xlink:href="#a" transform="matrix(7.9701 0 0 -7.9701 5.787 59.08)" fill="#369"/><symbol id="b"><path d="M.23 0c.008 0 .02 0 .02.012C.25.016.249.017.236.03.099.159.065.345.065.5c0 .288.119.423.17.469C.249.982.25.983.25.988.25.993.246 1 .236 1 .22 1 .17.949.162.94A.633.633 0 0 1 0 .5C0 .276.094.096.23 0z"/></symbol><use xlink:href="#b" transform="matrix(7.9701 0 0 -7.9701 11.06 59.527)" fill="#369"/><symbol id="c"><path d="M.469.409A.057.057 0 0 1 .423.355C.423.333.44.318.462.318s.056.017.056.06c0 .057-.063.073-.1.073C.371.451.333.418.31.379a.121.121 0 0 1-.115.072C.086.451.025.326.025.298.025.289.032.285.04.285c.012 0 .014.005.017.017C.08.375.14.423.192.423.231.423.25.395.25.359.25.339.238.293.23.261A14.164 14.164 0 0 0 .196.124C.182.07.146.028.101.028c-.004 0-.03 0-.051.014a.057.057 0 0 1 .046.054c0 .023-.018.037-.04.037C.029.133 0 .11 0 .072 0 .026.049 0 .1 0c.053 0 .09.04.108.072A.123.123 0 0 1 .324 0c.109 0 .169.125.169.153 0 .01-.008.013-.015.013C.466.166.464.159.461.149.441.082.384.028.326.028.293.028.269.05.269.092c0 .02.006.043.02.099l.034.137C.337.38.372.423.417.423c.005 0 .031 0 .052-.014z"/></symbol><use xlink:href="#c" transform="matrix(7.9701 0 0 -7.9701 13.789 57.614)" fill="#369"/><symbol id="d"><path d="M.249.5a.691.691 0 0 1-.078.327C.122.919.031 1 .013 1 .003 1 0 .993 0 .988 0 .984 0 .982.012.97.152.837.184.654.184.5.184.213.065.077.014.031.001.018 0 .017 0 .012 0 .007.003 0 .013 0c.016 0 .066.051.074.06C.221.2.249.38.249.5z"/></symbol><symbol id="e"><path d="M.294.693V.66C.362.66.37.653.37.604V.393a.179.179 0 0 1-.134.058A.232.232 0 0 1 0 .225C0 .102.1 0 .226 0c.059 0 .108.028.141.063V0l.152.01v.033C.451.043.443.05.443.099v.605L.294.693M.367.134c0-.018 0-.022-.015-.042A.15.15 0 0 0 .231.028a.13.13 0 0 0-.11.061.233.233 0 0 0-.032.135c0 .058.009.099.032.134a.145.145 0 0 0 .12.065.144.144 0 0 0 .126-.076V.134z"/></symbol><use xlink:href="#d" transform="matrix(7.9701 0 0 -7.9701 18.78 59.527)" fill="#369"/><use xlink:href="#e" transform="matrix(7.9701 0 0 -7.9701 23.282 57.614)" fill="#369"/><symbol id="f"><path d="M.488.581a.063.063 0 0 1 .004.023c0 .025-.02.031-.032.031A.046.046 0 0 1 .419.608 1.205 1.205 0 0 1 .403.546l-.06-.24C.342.303.299.222.226.222.177.222.16.258.16.303c0 .058.034.147.057.205A.12.12 0 0 1 .23.56C.23.615.186.645.14.645.041.645 0 .504 0 .492 0 .483.007.479.015.479c.013 0 .014.006.017.016.026.087.069.122.105.122.015 0 .024-.01.024-.033A.182.182 0 0 0 .146.522.611.611 0 0 1 .088.318C.088.22.162.194.221.194c.047 0 .081.021.105.044A.326.326 0 0 0 .264.095C.231.054.191.028.146.028.129.028.091.031.071.061a.057.057 0 0 1 .057.055C.128.14.11.153.089.153.067.153.032.136.032.087.032.04.075 0 .146 0a.27.27 0 0 1 .247.203l.095.378z"/></symbol><use xlink:href="#f" transform="matrix(7.9701 0 0 -7.9701 27.95 59.16)" fill="#369"/><use xlink:href="#e" transform="matrix(7.9701 0 0 -7.9701 32.461 57.614)" fill="#369"/><symbol id="g"><path d="M.101.097c.036.037.047.048.135.121.011.009.081.067.108.093a.448.448 0 0 1 .102.128c0 .009-.008.012-.015.012C.421.451.42.449.41.434.379.388.357.38.339.38.32.38.308.388.288.408.262.433.242.451.21.451.13.451.08.361.08.334c0-.001 0-.012.016-.012.01 0 .012.004.016.015.013.029.056.039.086.039A.26.26 0 0 0 .269.363C.311.352.32.352.343.352A1.262 1.262 0 0 0 .217.239C.175.204.133.17.106.144A.435.435 0 0 1 0 .012C0 .003.007 0 .015 0c.01 0 .012.003.017.01.02.03.051.061.089.061.023 0 .033-.009.052-.028C.205.012.223 0 .252 0c.104 0 .167.124.167.155 0 .009-.007.013-.015.013C.393.168.391.162.387.152.368.102.313.075.263.075a.291.291 0 0 0-.071.013C.15.099.14.099.125.099c-.01 0-.016 0-.024-.002z"/></symbol><use xlink:href="#g" transform="matrix(7.9701 0 0 -7.9701 37.237 57.614)" fill="#369"/><path stroke-width="1.196" stroke-linecap="round" stroke-miterlimit="10" fill="none" stroke="#369" d="M107.364 36.266 95.97 45.38"/><path d="M91.49 48.965c1.526-.813 4.281-1.792 6.472-2.116l-2.987-3.734c-.797 2.066-2.357 4.539-3.485 5.85" fill="#369"/><path d="M90.356 75.384V47.037L104.529 35.7v28.346zM62.009 75.384V47.037h28.347v28.347z" fill="#ccf"/><path d="M62.009 47.037h28.347L104.529 35.7H76.182z" fill="#ccf"/><path stroke-width=".797" stroke-linecap="round" stroke-miterlimit="10" fill="none" stroke="#99f" d="M90.356 75.384V47.037L104.529 35.7v28.346zM62.009 75.384V47.037h28.347v28.347zM62.009 47.037 76.182 35.7h28.347"/><path stroke-width=".797" stroke-linecap="round" stroke-dasharray="2.98883,2.98883" stroke-miterlimit="10" fill="none" stroke="#99f" d="M76.182 35.699v28.346L62.01 75.384M76.182 64.045h28.347"/><path stroke-width="1.196" stroke-linecap="round" stroke-miterlimit="10" fill="none" stroke="#369" d="M83.27 17.557v16.939"/><path d="M83.27 40.234c.318-1.7 1.274-4.463 2.39-6.376h-4.782c1.116 1.913 2.072 4.676 2.391 6.376" fill="#369"/><path stroke-width="1.196" stroke-linecap="round" stroke-miterlimit="10" fill="none" stroke="#369" d="M142.798 55.541H103.18"/><path d="M97.442 55.541c1.7.32 4.464 1.276 6.377 2.391V53.15c-1.913 1.116-4.676 2.073-6.377 2.391" fill="#369"/><use xlink:href="#a" transform="matrix(7.9701 0 0 -7.9701 145.594 59.08)" fill="#369"/><use xlink:href="#b" transform="matrix(7.9701 0 0 -7.9701 150.869 59.527)" fill="#369"/><use xlink:href="#c" transform="matrix(7.9701 0 0 -7.9701 153.596 57.614)" fill="#369"/><symbol id="h"><path d="M.377.331h.294c.014 0 .036 0 .036.023S.685.377.671.377H.377v.295c0 .014 0 .036-.023.036S.331.686.331.672V.377H.036C.022.377 0 .377 0 .354S.022.331.036.331h.295V.036C.331.022.331 0 .354 0s.023.022.023.036v.295z"/></symbol><use xlink:href="#h" transform="matrix(7.9701 0 0 -7.9701 160.46 58.363)" fill="#369"/><use xlink:href="#e" transform="matrix(7.9701 0 0 -7.9701 168.733 57.614)" fill="#369"/><use xlink:href="#c" transform="matrix(7.9701 0 0 -7.9701 173.418 57.614)" fill="#369"/><use xlink:href="#d" transform="matrix(7.9701 0 0 -7.9701 178.408 59.527)" fill="#369"/><use xlink:href="#e" transform="matrix(7.9701 0 0 -7.9701 182.911 57.614)" fill="#369"/><use xlink:href="#f" transform="matrix(7.9701 0 0 -7.9701 187.578 59.16)" fill="#369"/><use xlink:href="#e" transform="matrix(7.9701 0 0 -7.9701 192.09 57.614)" fill="#369"/><use xlink:href="#g" transform="matrix(7.9701 0 0 -7.9701 196.867 57.614)" fill="#369"/><path stroke-width="1.196" stroke-linecap="round" stroke-miterlimit="10" fill="none" stroke="#369" d="m60.308 73.91 11.394-9.115"/><path d="M76.182 61.21c-1.526.814-4.281 1.793-6.472 2.117l2.987 3.733c.797-2.066 2.357-4.538 3.485-5.85" fill="#369"/><path stroke-width=".399" stroke-miterlimit="10" fill="none" stroke="#000" d="M239.177 55.541h26.354"/><path d="m267.523 55.541-3.188-1.594 1.196 1.594-1.196 1.594"/><use xlink:href="#c" transform="matrix(7.9701 0 0 -7.9701 270.765 57.337)"/><path stroke-width=".399" stroke-miterlimit="10" fill="none" stroke="#000" d="m239.177 55.541 12.617-10.094"/><path d="m253.35 44.203-3.485.747 1.93.497.061 1.992"/><use xlink:href="#f" transform="matrix(7.9701 0 0 -7.9701 256.575 46.77)"/><path stroke-width=".399" stroke-miterlimit="10" fill="none" stroke="#000" d="M239.177 55.541V29.187"/><path d="m239.177 27.195-1.594 3.188 1.594-1.196 1.594 1.196"/><use xlink:href="#g" transform="matrix(7.9701 0 0 -7.9701 242.514 28.99)"/><path d="M96.446 49.45h1.993v-1.992h-1.993z"/><symbol id="i"><path d="M0 .623V.59h.016c.031 0 .06-.003.06-.042V.074C.076.034.048.033 0 .033V0l.061.003h.105L.229 0v.033H.206c-.029 0-.053.004-.053.04l.001.17C.176.205.239.184.286.184.407.184.52.281.52.409.52.52.431.634.302.634A.211.211 0 0 1 .15.573v.061L0 .623m.43-.23C.426.312.374.212.275.212c-.05 0-.122.049-.122.094v.16L.152.503c0 .056.074.1.134.1.1 0 .145-.115.145-.194L.43.393z"/></symbol><symbol id="j"><path d="M.09.402v.001c.032.015.06.024.097.024C.255.427.3.376.3.299V.276c-.124 0-.3-.04-.3-.165C0 .027.101 0 .166 0 .222 0 .284.025.31.081h.001c0-.042.035-.076.076-.076A.09.09 0 0 1 .48.096v.059H.449V.106C.449.08.444.043.413.043.381.043.377.08.377.102V.27l.001.037c0 .1-.103.148-.19.148C.134.455.033.439.033.359.033.337.046.31.076.31c.032 0 .051.021.051.047 0 .02-.012.04-.037.045M.3.25V.152A.121.121 0 0 0 .178.028C.133.028.086.059.082.106V.11c0 .109.135.135.218.14z"/></symbol><symbol id="k"><path d="M0 .429V.396h.016c.03 0 .06-.003.06-.05V.075C.076.034.05.033 0 .033V0l.06.003h.114L.245 0v.033L.21.032C.178.032.15.037.15.073v.168c0 .071.039.171.126.171A.052.052 0 0 1 .26.376C.26.348.283.331.306.331c.025 0 .044.02.044.045C.35.419.308.44.271.44.214.44.155.387.144.335L.143.44.093.436 0 .429z"/></symbol><symbol id="l"><path d="M.135.625C.135.554.101.435 0 .435V.407h.089V.149c0-.032.002-.064.019-.092C.132.016.182 0 .228 0c.084 0 .105.089.105.155v.036H.302L.303.149C.303.105.292.031.233.031.179.031.166.089.166.139v.268h.149V.44H.166v.185H.135z"/></symbol><symbol id="m"><path d="M.004.429V.396H.02C.052.396.076.39.076.347V.075C.076.034.05.033 0 .033V0l.061.003h.101L.218 0v.033H.204C.175.033.15.035.15.069V.44L.113.437.004.429M.09.67A.055.055 0 0 1 .096.56C.13.56.153.587.153.616a.055.055 0 0 1-.054.055L.09.67z"/></symbol><symbol id="n"><path d="M.332.407A.046.046 0 0 1 .301.363c0-.028.02-.047.052-.047.028 0 .042.027.042.048 0 .073-.086.087-.147.091H.236A.232.232 0 0 1 0 .224.23.23 0 0 1 .232 0c.07 0 .139.036.167.105.002.007.008.016.008.024C.407.138.4.142.392.142.373.142.376.121.364.103A.139.139 0 0 0 .243.031C.14.031.089.129.089.23c0 .08.032.194.148.194A.213.213 0 0 0 .332.407z"/></symbol><symbol id="o"><path d="M0 .44V.407h.013c.025 0 .056-.002.061-.03C.076.366.076.356.076.345V.148A.17.17 0 0 1 .092.062C.12.013.184 0 .233 0a.149.149 0 0 1 .139.082L.373.001l.15.01v.033H.504C.475.044.447.048.447.092v.359L.294.44V.407h.012C.34.407.37.405.37.357V.186C.37.106.327.029.241.029.206.029.16.038.155.089.153.107.153.125.153.143v.308L0 .44z"/></symbol><symbol id="p"><path d="M0 .683V.65h.013C.046.65.076.649.076.598V.097L.077.075C.077.035.045.033.01.033H0V0l.06.003h.104L.226 0v.033H.203C.175.033.15.036.15.072v.622L0 .683z"/></symbol><symbol id="q"><path d="M.089.239h.305c.013 0 .019.007.019.019 0 .05-.015.108-.051.145a.192.192 0 0 1-.137.053A.222.222 0 0 1 0 .231C0 .117.091 0 .235 0 .31 0 .39.047.411.121L.413.13a.015.015 0 0 1-.015.015C.379.145.376.113.367.101A.147.147 0 0 0 .243.033a.147.147 0 0 0-.13.077.272.272 0 0 0-.024.129M.09.266C.1.323.11.385.169.414a.114.114 0 0 0 .054.014C.288.428.332.374.342.302L.345.266H.09z"/></symbol><symbol id="r"><path d="M.294.693V.66h.011C.344.66.37.658.37.599V.393A.187.187 0 0 1 .236.45C.113.45 0 .354 0 .225 0 .102.103 0 .225 0a.19.19 0 0 1 .142.063V0L.52.01v.033H.504c-.03 0-.06.003-.06.05v.611L.294.693M.089.203v.014c0 .07.013.155.09.19A.141.141 0 0 0 .36.357C.363.352.366.348.367.342V.126C.367.075.285.028.233.028c-.074 0-.127.059-.139.13L.089.203z"/></symbol><symbol id="s"><path d="M.082.43H0V.397h.082V.07C.082.035.052.033.02.033H.006V0l.06.003H.17L.232 0v.033H.214C.183.033.156.036.156.07v.327h.221V.07C.377.035.347.033.315.033H.301V0l.06.003h.104L.527 0v.033H.504C.476.033.451.036.451.072v.622C.439.693.426.689.414.689H.409C.4.689.391.695.382.697A.296.296 0 0 1 .33.704H.313C.211.704.082.655.082.539V.43m.295 0H.153v.103c0 .09.07.138.146.143h.008A.505.505 0 0 0 .374.67C.362.658.355.648.355.631c0-.023.019-.032.022-.045L.378.569.377.534V.43z"/></symbol><use xlink:href="#i" transform="matrix(7.9701 0 0 -7.9701 140.513 13.005)"/><use xlink:href="#j" transform="matrix(7.9701 0 0 -7.9701 145.295 11.539)"/><use xlink:href="#k" transform="matrix(7.9701 0 0 -7.9701 149.447 11.459)"/><use xlink:href="#l" transform="matrix(7.9701 0 0 -7.9701 152.636 11.539)"/><use xlink:href="#m" transform="matrix(7.9701 0 0 -7.9701 156.095 11.459)"/><use xlink:href="#n" transform="matrix(7.9701 0 0 -7.9701 158.398 11.539)"/><use xlink:href="#o" transform="matrix(7.9701 0 0 -7.9701 162.2 11.547)"/><use xlink:href="#p" transform="matrix(7.9701 0 0 -7.9701 166.91 11.459)"/><use xlink:href="#q" transform="matrix(7.9701 0 0 -7.9701 169.166 11.547)"/><use xlink:href="#r" transform="matrix(7.9701 0 0 -7.9701 175.797 11.539)"/><use xlink:href="#q" transform="matrix(7.9701 0 0 -7.9701 180.451 11.547)"/><use xlink:href="#s" transform="matrix(7.9701 0 0 -7.9701 187.026 11.459)"/><use xlink:href="#o" transform="matrix(7.9701 0 0 -7.9701 191.825 11.547)"/><use xlink:href="#m" transform="matrix(7.9701 0 0 -7.9701 196.535 11.459)"/><use xlink:href="#r" transform="matrix(7.9701 0 0 -7.9701 198.838 11.539)"/><use xlink:href="#q" transform="matrix(7.9701 0 0 -7.9701 203.493 11.547)"/><use xlink:href="#e" transform="matrix(7.9701 0 0 -7.9701 140.52 21.01)"/><symbol id="t"><path d="M.285.377h.179c.016 0 .027 0 .037.008a.044.044 0 0 1 .015.03c0 .028-.025.028-.042.028H.172c-.021 0-.059 0-.108-.048A.298.298 0 0 1 0 .306C0 .297.007.294.015.294c.01 0 .012.003.018.011.049.072.108.072.131.072H.25L.164.1C.157.077.144.036.144.031.144.008.165 0 .177 0 .214 0 .22.035.223.05l.062.327z"/></symbol><use xlink:href="#t" transform="matrix(7.9701 0 0 -7.9701 145.178 21.027)"/><symbol id="u"><path d="M.672.212c.015 0 .035 0 .035.023S.683.258.668.258H.039C.024.258 0 .258 0 .235S.02.212.035.212h.637M.668 0c.015 0 .039 0 .039.023S.687.046.672.046H.035C.02.046 0 .046 0 .023S.024 0 .039 0h.629z"/></symbol><use xlink:href="#u" transform="matrix(7.9701 0 0 -7.9701 152.448 19.967)"/><use xlink:href="#e" transform="matrix(7.9701 0 0 -7.9701 161.191 21.01)"/><use xlink:href="#c" transform="matrix(7.9701 0 0 -7.9701 165.876 21.01)"/><symbol id="v"><path d="M.499.467c.012.012.014.017.014.024 0 .012-.01.023-.023.023C.481.514.477.51.466.499L.257.29.047.5C.035.512.03.514.023.514A.023.023 0 0 1 0 .491C0 .482.004.478.014.468l.21-.211L.015.048C.002.035 0 .03 0 .023 0 .01.011 0 .023 0c.009 0 .012.003.023.014l.21.21.218-.218A.035.035 0 0 1 .49 0c.013 0 .023.011.023.023 0 .008-.005.012-.005.013C.504.042.344.201.289.257l.21.21z"/></symbol><use xlink:href="#v" transform="matrix(7.9701 0 0 -7.9701 173.513 20.987)"/><use xlink:href="#e" transform="matrix(7.9701 0 0 -7.9701 181.017 21.01)"/><use xlink:href="#f" transform="matrix(7.9701 0 0 -7.9701 185.682 22.557)"/><use xlink:href="#v" transform="matrix(7.9701 0 0 -7.9701 193.04 20.987)"/><use xlink:href="#e" transform="matrix(7.9701 0 0 -7.9701 200.544 21.01)"/><use xlink:href="#g" transform="matrix(7.9701 0 0 -7.9701 205.32 21.01)"/><path stroke-width=".399" stroke-miterlimit="10" fill="none" stroke="#929292" d="m100.431 47.256 54.32-21.787"/></svg>