<svg xmlns="http://www.w3.org/2000/svg" xmlns:xlink="http://www.w3.org/1999/xlink" width="115.9pt" height="270.835" viewBox="0 0 115.9 203.126"><path d="M20.648 26.571v56.694h56.694V26.571z" fill="#ccf"/><path stroke-width=".797" stroke-linecap="round" stroke-miterlimit="10" fill="none" stroke="#99f" d="M20.648 26.571v56.694h56.694V26.571z"/><path stroke-width=".996" stroke-miterlimit="10" fill="none" stroke="#000" d="M20.648 12.398v70.867h56.694V12.398"/><path stroke-width="2.989" stroke-miterlimit="10" fill="none" stroke="#929292" d="M6.475 83.265h85.04"/><symbol id="a"><path d="M.611 0c.016 0 .038 0 .038.023S.627.046.611.046H.038C.022.046 0 .046 0 .023S.022 0 .038 0h.573z"/></symbol><symbol id="b"><path d="M.814.241A.375.375 0 0 1 .671.015C.671 0 .685 0 .694 0c.011 0 .02 0 .023.013.026.111.09.195.211.236.008.002.016.005.016.015 0 .01-.009.013-.013.014a.307.307 0 0 0-.212.227C.714.525.714.528.694.528c-.009 0-.023 0-.023-.015A.352.352 0 0 1 .814.287H.038C.022.287 0 .287 0 .264S.022.241.038.241h.776z"/></symbol><use xlink:href="#a" transform="matrix(7.9701 0 0 -7.9701 35.582 92.15)"/><use xlink:href="#b" transform="matrix(7.9701 0 0 -7.9701 35.351 94.07)"/><symbol id="c"><path d="M.349.391a.11.11 0 0 1-.099.06C.131.451 0 .312 0 .164 0 .06.067 0 .144 0c.064 0 .119.051.137.071C.299.002.367 0 .379 0c.046 0 .069.038.077.055.02.036.034.094.034.098C.49.159.486.166.474.166S.46.16.454.135C.44.08.421.028.382.028.359.028.35.047.35.075c0 .017.009.051.015.076L.39.254.41.33c.005.024.016.066.016.071 0 .023-.019.031-.032.031A.046.046 0 0 1 .349.391M.281.118C.231.049.179.028.147.028.101.028.078.07.078.122c0 .047.027.154.049.198.029.061.078.103.124.103C.316.423.335.35.335.338L.304.21C.291.163.291.161.281.118z"/></symbol><use xlink:href="#c" transform="matrix(7.9701 0 0 -7.9701 37.21 97.47)"/><symbol id="d"><path d="M.672.212c.015 0 .035 0 .035.023S.683.258.668.258H.039C.024.258 0 .258 0 .235S.02.212.035.212h.637M.668 0c.015 0 .039 0 .039.023S.687.046.672.046H.035C.02.046 0 .046 0 .023S.024 0 .039 0h.629z"/></symbol><use xlink:href="#d" transform="matrix(7.9701 0 0 -7.9701 46.172 96.427)"/><use xlink:href="#a" transform="matrix(7.9701 0 0 -7.9701 55.342 90.446)"/><use xlink:href="#b" transform="matrix(7.9701 0 0 -7.9701 55.111 92.367)"/><symbol id="e"><path d="M.448.34a.478.478 0 0 1-.044.236.196.196 0 0 1-.18.11C.098.686.052.592.038.564A.54.54 0 0 1 0 .34C0 .274.003.173.051.093A.199.199 0 0 1 .224 0c.048 0 .134.015.184.114.037.072.04.161.04.226M.224.028C.19.028.121.044.1.149.089.206.089.3.089.352c0 .069 0 .139.011.194.021.102.099.112.124.112C.258.658.327.641.347.55.359.495.359.42.359.352c0-.059 0-.149-.012-.205C.326.042.257.028.224.028z"/></symbol><use xlink:href="#e" transform="matrix(7.9701 0 0 -7.9701 57.085 97.558)"/><path stroke-width=".797" stroke-miterlimit="10" fill="none" stroke="#000" d="M91.515 26.571v18.67"/><path d="m91.515 47.831 2.072-4.144-2.072 1.554-2.072-1.554"/><use xlink:href="#a" transform="matrix(7.9701 0 0 -7.9701 95.205 34.408)"/><use xlink:href="#b" transform="matrix(7.9701 0 0 -7.9701 94.974 36.329)"/><symbol id="f"><path d="M.475.573c.004.015.004.021.004.022C.479.618.46.626.447.626A.047.047 0 0 1 .402.587a.111.111 0 0 1-.098.058C.185.645.055.512.055.366.055.258.126.204.2.204c.046 0 .087.025.12.054L.298.168C.287.126.28.097.241.064.199.028.161.028.136.028a.354.354 0 0 0-.073.006.059.059 0 0 1 .032.05c0 .024-.018.037-.039.037A.057.057 0 0 1 0 .061C0 .004.078 0 .138 0 .28 0 .351.076.366.137l.109.436M.34.336C.333.308.311.288.29.269.281.262.243.232.202.232c-.04 0-.069.033-.069.093a.61.61 0 0 0 .052.202c.032.057.079.09.119.09.067 0 .085-.074.085-.083L.386.52.34.336z"/></symbol><use xlink:href="#f" transform="matrix(7.9701 0 0 -7.9701 96.747 41.275)"/><path stroke-width=".399" stroke-miterlimit="10" fill="none" stroke="#a5a5a5" d="M48.995 14.39v12.181h12.18"/><path d="m48.995 12.398-1.594 3.188 1.594-1.195 1.594 1.195M63.168 26.571l-3.188-1.594 1.196 1.594-1.196 1.594" fill="#a5a5a5"/><symbol id="g"><path d="M.101.097c.036.037.047.048.135.121.011.009.081.067.108.093a.448.448 0 0 1 .102.128c0 .009-.008.012-.015.012C.421.451.42.449.41.434.379.388.357.38.339.38.32.38.308.388.288.408.262.433.242.451.21.451.13.451.08.361.08.334c0-.001 0-.012.016-.012.01 0 .012.004.016.015.013.029.056.039.086.039A.26.26 0 0 0 .269.363C.311.352.32.352.343.352A1.262 1.262 0 0 0 .217.239C.175.204.133.17.106.144A.435.435 0 0 1 0 .012C0 .003.007 0 .015 0c.01 0 .012.003.017.01.02.03.051.061.089.061.023 0 .033-.009.052-.028C.205.012.223 0 .252 0c.104 0 .167.124.167.155 0 .009-.007.013-.015.013C.393.168.391.162.387.152.368.102.313.075.263.075a.291.291 0 0 0-.071.013C.15.099.14.099.125.099c-.01 0-.016 0-.024-.002z"/></symbol><use xlink:href="#g" transform="matrix(7.9701 0 0 -7.9701 47.209 9.49)" fill="#a5a5a5"/><symbol id="h"><path d="M.469.409A.057.057 0 0 1 .423.355C.423.333.44.318.462.318s.056.017.056.06c0 .057-.063.073-.1.073C.371.451.333.418.31.379a.121.121 0 0 1-.115.072C.086.451.025.326.025.298.025.289.032.285.04.285c.012 0 .014.005.017.017C.08.375.14.423.192.423.231.423.25.395.25.359.25.339.238.293.23.261A14.164 14.164 0 0 0 .196.124C.182.07.146.028.101.028c-.004 0-.03 0-.051.014a.057.057 0 0 1 .046.054c0 .023-.018.037-.04.037C.029.133 0 .11 0 .072 0 .026.049 0 .1 0c.053 0 .09.04.108.072A.123.123 0 0 1 .324 0c.109 0 .169.125.169.153 0 .01-.008.013-.015.013C.466.166.464.159.461.149.441.082.384.028.326.028.293.028.269.05.269.092c0 .02.006.043.02.099l.034.137C.337.38.372.423.417.423c.005 0 .031 0 .052-.014z"/></symbol><use xlink:href="#h" transform="matrix(7.9701 0 0 -7.9701 61.04 23.663)" fill="#a5a5a5"/><path d="M20.648 131.454v65.198h56.694v-48.19z" fill="#ccf"/><path stroke-width=".797" stroke-linecap="round" stroke-miterlimit="10" fill="none" stroke="#99f" d="M20.648 131.454v65.198h56.694v-48.19z"/><path stroke-width=".996" stroke-miterlimit="10" fill="none" stroke="#000" d="M20.648 125.785v70.867h56.694v-70.867"/><path stroke-width="2.989" stroke-miterlimit="10" fill="none" stroke="#929292" d="M6.475 196.652h85.04"/><path stroke-width=".797" stroke-miterlimit="10" fill="none" stroke="#000" d="M91.515 196.652h11.583"/><path d="m105.689 196.652-4.145-2.072 1.554 2.072-1.554 2.072"/><use xlink:href="#a" transform="matrix(7.9701 0 0 -7.9701 102.155 188.42)"/><use xlink:href="#b" transform="matrix(7.9701 0 0 -7.9701 101.924 190.342)"/><use xlink:href="#c" transform="matrix(7.9701 0 0 -7.9701 103.782 193.742)"/><path stroke-width=".797" stroke-miterlimit="10" fill="none" stroke="#000" d="M91.515 139.959v18.67"/><path d="m91.515 161.219 2.072-4.145-2.072 1.554-2.072-1.554"/><use xlink:href="#a" transform="matrix(7.9701 0 0 -7.9701 95.205 147.794)"/><use xlink:href="#b" transform="matrix(7.9701 0 0 -7.9701 94.974 149.715)"/><use xlink:href="#f" transform="matrix(7.9701 0 0 -7.9701 96.747 154.66)"/><path stroke-width=".399" stroke-miterlimit="10" fill="none" stroke="#a5a5a5" d="M48.995 127.778v12.18h12.18"/><path d="m48.995 125.785-1.594 3.188 1.594-1.195 1.594 1.195M63.168 139.959l-3.188-1.594 1.196 1.594-1.196 1.594" fill="#a5a5a5"/><use xlink:href="#g" transform="matrix(7.9701 0 0 -7.9701 47.209 122.875)" fill="#a5a5a5"/><use xlink:href="#h" transform="matrix(7.9701 0 0 -7.9701 61.04 137.049)" fill="#a5a5a5"/></svg>