<svg xmlns="http://www.w3.org/2000/svg" xmlns:xlink="http://www.w3.org/1999/xlink" width="383.78" height="151.219" viewBox="0 0 287.835 113.414"><path d="M112.277 58.328v49.607H83.93V93.762h4.252v9.92h19.843V58.329z" fill="#ccf"/><path stroke-width=".797" stroke-linecap="round" stroke-miterlimit="10" fill="none" stroke="#99f" d="M112.277 58.328v49.607H83.93V93.762h4.252v9.92h19.843V58.329z"/><path stroke-width=".996" stroke-miterlimit="10" fill="none" stroke="#000" d="M112.277 37.068v70.867H83.93V79.588H55.583v7.087h-42.52v-42.52h42.52v31.181h32.6v28.347h19.842V37.068"/><path stroke-width=".797" stroke-miterlimit="10" fill="none" stroke="#000" d="M154.797 22.895v11.583"/><path d="m154.797 37.068 2.072-4.144-2.072 1.554-2.072-1.554"/><symbol id="a"><path d="M.611 0c.016 0 .038 0 .038.023S.627.046.611.046H.038C.022.046 0 .046 0 .023S.022 0 .038 0h.573z"/></symbol><symbol id="b"><path d="M.814.241A.375.375 0 0 1 .671.015C.671 0 .685 0 .694 0c.011 0 .02 0 .023.013.026.111.09.195.211.236.008.002.016.005.016.015 0 .01-.009.013-.013.014a.307.307 0 0 0-.212.227C.714.525.714.528.694.528c-.009 0-.023 0-.023-.015A.352.352 0 0 1 .814.287H.038C.022.287 0 .287 0 .264S.022.241.038.241h.776z"/></symbol><use xlink:href="#a" transform="matrix(7.9701 0 0 -7.9701 158.486 27.188)"/><use xlink:href="#b" transform="matrix(7.9701 0 0 -7.9701 158.255 29.109)"/><symbol id="c"><path d="M.475.573c.004.015.004.021.004.022C.479.618.46.626.447.626A.047.047 0 0 1 .402.587a.111.111 0 0 1-.098.058C.185.645.055.512.055.366.055.258.126.204.2.204c.046 0 .087.025.12.054L.298.168C.287.126.28.097.241.064.199.028.161.028.136.028a.354.354 0 0 0-.073.006.059.059 0 0 1 .032.05c0 .024-.018.037-.039.037A.057.057 0 0 1 0 .061C0 .004.078 0 .138 0 .28 0 .351.076.366.137l.109.436M.34.336C.333.308.311.288.29.269.281.262.243.232.202.232c-.04 0-.069.033-.069.093a.61.61 0 0 0 .052.202c.032.057.079.09.119.09.067 0 .085-.074.085-.083L.386.52.34.336z"/></symbol><use xlink:href="#c" transform="matrix(7.9701 0 0 -7.9701 160.028 34.055)"/><path stroke-width=".399" stroke-miterlimit="10" fill="none" stroke="#000" d="M98.104 60.72v30.65"/><path d="m98.104 58.727-1.594 3.188 1.594-1.196 1.594 1.196"/><path stroke-width=".399" stroke-miterlimit="10" fill="none" stroke="#000" d="M95.812 58.527h4.583"/><path d="m98.104 93.363 1.594-3.188-1.594 1.196-1.594-1.196"/><path stroke-width=".399" stroke-miterlimit="10" fill="none" stroke="#000" d="M100.395 93.562h-4.583"/><symbol id="d"><path d="M.235.674A.124.124 0 0 1 .239.69c0 .005-.004.014-.016.014L.165.699.109.695C.087.693.077.692.077.674.077.66.091.66.103.66.151.66.151.654.151.645c0-.003 0-.005-.005-.023L.004.053C0 .038 0 .032 0 .031 0 .014.014 0 .033 0c.016 0 .03.01.038.023a.652.652 0 0 1 .016.058L.11.17l.016.068c.015.058.015.06.037.092.034.049.081.093.148.093.036 0 .057-.021.057-.068A.862.862 0 0 0 .307.137C.294.104.294.098.294.085.294.028.341 0 .384 0c.098 0 .139.14.139.153 0 .01-.008.013-.015.013C.496.166.494.159.491.149.467.067.425.028.387.028c-.016 0-.024.01-.024.033a.19.19 0 0 0 .018.07A.815.815 0 0 1 .44.34C.44.415.388.451.316.451A.201.201 0 0 1 .161.374l.074.3z"/></symbol><use xlink:href="#d" transform="matrix(7.9701 0 0 -7.9701 90.69 78.892)"/><path d="M111.13 79.588a.845.845 0 1 0-1.691 0 .845.845 0 0 0 1.69 0zm-.846 0"/><symbol id="e"><path d="M0 .683V.65l.036.001C.07.651.1.646.1.607v-.53C.1.037.068.032.034.032L0 .033V0h.544l.029.26H.542C.533.172.52.068.399.04.369.033.338.033.307.033H.23C.209.033.192.038.192.067v.539c0 .04.037.044.07.044h.056v.033H0z"/></symbol><symbol id="f"><path d="M.004.429V.396H.02C.052.396.076.39.076.347V.075C.076.034.05.033 0 .033V0l.061.003h.101L.218 0v.033H.204C.175.033.15.035.15.069V.44L.113.437.004.429M.09.67A.055.055 0 0 1 .096.56C.13.56.153.587.153.616a.055.055 0 0 1-.054.055L.09.67z"/></symbol><symbol id="g"><path d="M.367.254.368.072C.368.036.346.033.292.033V0l.063.003H.46L.521 0v.033h-.02C.47.033.445.036.445.075v.559L.418.632.379.547a.168.168 0 0 1-.147.087A.231.231 0 0 1 0 .408C0 .283.105.184.225.184c.05 0 .116.025.142.07m-.278.14v.01c0 .068.026.146.091.182.02.011.042.017.063.017.061 0 .12-.059.128-.12V.332C.371.272.3.226.263.216A.155.155 0 0 0 .232.212H.225C.156.217.111.285.096.346L.089.394z"/></symbol><symbol id="h"><path d="M0 .44V.407h.013c.025 0 .056-.002.061-.03C.076.366.076.356.076.345V.148A.17.17 0 0 1 .092.062C.12.013.184 0 .233 0a.149.149 0 0 1 .139.082L.373.001l.15.01v.033H.504C.475.044.447.048.447.092v.359L.294.44V.407h.012C.34.407.37.405.37.357V.186C.37.106.327.029.241.029.206.029.16.038.155.089.153.107.153.125.153.143v.308L0 .44z"/></symbol><symbol id="i"><path d="M.294.693V.66h.011C.344.66.37.658.37.599V.393A.187.187 0 0 1 .236.45C.113.45 0 .354 0 .225 0 .102.103 0 .225 0a.19.19 0 0 1 .142.063V0L.52.01v.033H.504c-.03 0-.06.003-.06.05v.611L.294.693M.089.203v.014c0 .07.013.155.09.19A.141.141 0 0 0 .36.357C.363.352.366.348.367.342V.126C.367.075.285.028.233.028c-.074 0-.127.059-.139.13L.089.203z"/></symbol><symbol id="j"><path d="M.089.239h.305c.013 0 .019.007.019.019 0 .05-.015.108-.051.145a.192.192 0 0 1-.137.053A.222.222 0 0 1 0 .231C0 .117.091 0 .235 0 .31 0 .39.047.411.121L.413.13a.015.015 0 0 1-.015.015C.379.145.376.113.367.101A.147.147 0 0 0 .243.033a.147.147 0 0 0-.13.077.272.272 0 0 0-.024.129M.09.266C.1.323.11.385.169.414a.114.114 0 0 0 .054.014C.288.428.332.374.342.302L.345.266H.09z"/></symbol><use xlink:href="#e" transform="matrix(7.9701 0 0 -7.9701 128.869 69.498)"/><use xlink:href="#f" transform="matrix(7.9701 0 0 -7.9701 134.12 69.498)"/><use xlink:href="#g" transform="matrix(7.9701 0 0 -7.9701 136.424 71.044)"/><use xlink:href="#h" transform="matrix(7.9701 0 0 -7.9701 140.935 69.586)"/><use xlink:href="#f" transform="matrix(7.9701 0 0 -7.9701 145.646 69.498)"/><use xlink:href="#i" transform="matrix(7.9701 0 0 -7.9701 147.95 69.578)"/><use xlink:href="#j" transform="matrix(7.9701 0 0 -7.9701 152.604 69.586)"/><path stroke-width=".399" stroke-miterlimit="10" fill="none" stroke="#929292" d="m112.195 78.87 13.327-5.016"/><symbol id="k"><path d="M.572.082h.002C.587.058.623.021.637.021c.008 0 .011.008.011.016v.168l-.001.02c0 .038.033.038.075.038v.033L.658.293H.423v-.03l.054.001c.043 0 .08-.006.08-.048L.556.193V.155C.556.117.548.089.506.063a.271.271 0 0 0-.359.109.4.4 0 0 0-.043.195c0 .097.026.192.102.261.044.04.109.064.17.064C.501.692.59.589.613.463.615.45.615.437.632.437c.014 0 .016.007.016.017v.253c0 .008-.001.018-.012.018C.616.725.568.639.567.637c-.06.05-.106.088-.2.088A.367.367 0 0 1 0 .364.367.367 0 0 1 .372 0c.069 0 .169.02.2.082z"/></symbol><symbol id="l"><path d="M.09.402v.001c.032.015.06.024.097.024C.255.427.3.376.3.299V.276c-.124 0-.3-.04-.3-.165C0 .027.101 0 .166 0 .222 0 .284.025.31.081h.001c0-.042.035-.076.076-.076A.09.09 0 0 1 .48.096v.059H.449V.106C.449.08.444.043.413.043.381.043.377.08.377.102V.27l.001.037c0 .1-.103.148-.19.148C.134.455.033.439.033.359.033.337.046.31.076.31c.032 0 .051.021.051.047 0 .02-.012.04-.037.045M.3.25V.152A.121.121 0 0 0 .178.028C.133.028.086.059.082.106V.11c0 .109.135.135.218.14z"/></symbol><symbol id="m"><path d="M.028.43.016.263h.031C.051.327.062.393.15.4c.022.002.045.002.067.002H.3C.201.284.106.16.012.04.007.033 0 .025 0 .016 0 .005.01 0 .02 0h.362l.017.193H.368C.363.123.356.044.253.033.23.031.207.031.184.031H.098c.096.12.192.24.286.36.005.007.012.015.012.024C.396.428.383.43.374.43H.028z"/></symbol><symbol id="n"><path d="M.06.043A.165.165 0 0 1 .174 0c.079 0 .175.029.175.141v.007C.344.209.295.252.241.27.183.288.055.282.055.359c0 .058.076.071.118.071C.234.43.284.4.291.329.291.321.292.31.306.31c.013 0 .017.011.017.022L.322.35v.09c0 .008-.005.015-.014.015C.29.455.281.431.27.431H.268C.253.436.239.446.221.45a.231.231 0 0 1-.046.005C.104.455.001.434.001.328V.321C.004.285.027.26.055.239.133.187.283.22.295.119.295.049.233.028.177.028.102.028.049.082.036.151.033.161.033.176.017.176.002.176.001.166.001.157V.034L0 .02C0 .01.003 0 .014 0c.009 0 .018.011.023.017l.006.006.017.02z"/></symbol><symbol id="o"><path d="M.221.455C.106.443 0 .36 0 .218 0 .084.124 0 .239 0c.116 0 .233.09.233.221a.236.236 0 0 1-.238.234H.221M.089.203.088.229c0 .052.005.121.048.16a.15.15 0 0 0 .101.038C.339.427.383.342.383.238.383.183.381.122.343.077A.144.144 0 0 0 .236.031C.162.031.104.083.093.162L.089.203z"/></symbol><symbol id="p"><path d="M0 .623V.59h.016c.031 0 .06-.003.06-.042V.074C.076.034.048.033 0 .033V0l.061.003h.105L.229 0v.033H.206c-.029 0-.053.004-.053.04l.001.17C.176.205.239.184.286.184.407.184.52.281.52.409.52.52.431.634.302.634A.211.211 0 0 1 .15.573v.061L0 .623m.43-.23C.426.312.374.212.275.212c-.05 0-.122.049-.122.094v.16L.152.503c0 .056.074.1.134.1.1 0 .145-.115.145-.194L.43.393z"/></symbol><symbol id="q"><path d="M0 .429V.396h.016c.03 0 .06-.003.06-.05V.075C.076.034.05.033 0 .033V0l.06.003h.114L.245 0v.033L.21.032C.178.032.15.037.15.073v.168c0 .071.039.171.126.171A.052.052 0 0 1 .26.376C.26.348.283.331.306.331c.025 0 .044.02.044.045C.35.419.308.44.271.44.214.44.155.387.144.335L.143.44.093.436 0 .429z"/></symbol><symbol id="r"><path d="M0 .429V.396h.019c.029 0 .057-.004.057-.05V.075C.076.034.05.033 0 .033V0l.061.003h.105L.229 0v.033H.208C.177.033.153.036.153.074v.184c0 .074.049.154.145.154.057 0 .072-.05.072-.11V.071C.37.036.343.033.314.033h-.02V0l.063.003h.105L.523 0v.033h-.02C.474.033.447.036.447.072v.213A.208.208 0 0 1 .43.383C.405.427.353.44.306.44.245.44.169.407.147.344L.146.44.109.437 0 .429z"/></symbol><use xlink:href="#k" transform="matrix(7.9701 0 0 -7.9701 18.257 58.08)"/><use xlink:href="#l" transform="matrix(7.9701 0 0 -7.9701 24.777 57.992)"/><use xlink:href="#m" transform="matrix(7.9701 0 0 -7.9701 28.881 57.912)"/><use xlink:href="#n" transform="matrix(7.9701 0 0 -7.9701 35.513 57.992)"/><use xlink:href="#o" transform="matrix(7.9701 0 0 -7.9701 38.812 57.992)"/><use xlink:href="#h" transform="matrix(7.9701 0 0 -7.9701 43.132 58)"/><use xlink:href="#n" transform="matrix(7.9701 0 0 -7.9701 47.786 57.992)"/><use xlink:href="#p" transform="matrix(7.9701 0 0 -7.9701 19.729 68.923)"/><use xlink:href="#q" transform="matrix(7.9701 0 0 -7.9701 24.431 67.377)"/><use xlink:href="#j" transform="matrix(7.9701 0 0 -7.9701 27.691 67.465)"/><use xlink:href="#n" transform="matrix(7.9701 0 0 -7.9701 31.493 67.457)"/><use xlink:href="#n" transform="matrix(7.9701 0 0 -7.9701 34.832 67.457)"/><use xlink:href="#f" transform="matrix(7.9701 0 0 -7.9701 38.228 67.377)"/><use xlink:href="#o" transform="matrix(7.9701 0 0 -7.9701 40.483 67.457)"/><use xlink:href="#r" transform="matrix(7.9701 0 0 -7.9701 44.803 67.377)"/><symbol id="s"><path d="M.076.073C.068.041.066.033.026.033.012.033 0 .033 0 .014 0 .005.009 0 .014 0c.01 0 .014.003.088.003C.174.003.195 0 .202 0c.004 0 .019 0 .019.019 0 .014-.014.014-.026.014-.048 0-.048.006-.048.015 0 .007.018.078.048.195A.112.112 0 0 1 .293.184c.123 0 .251.142.251.287C.544.57.48.635.4.635.34.635.292.594.263.564.242.635.175.635.165.635.129.635.104.612.088.581A.4.4 0 0 1 .054.482c0-.009.007-.013.015-.013.013 0 .014.004.021.03.013.051.031.108.072.108C.187.607.194.584.194.56A.265.265 0 0 0 .188.518L.076.073M.26.502c.005.017.005.019.02.037.038.045.081.068.117.068.05 0 .069-.049.069-.094A.618.618 0 0 0 .414.31C.388.256.34.212.293.212.225.212.209.29.209.297a.11.11 0 0 0 .003.016L.26.502z"/></symbol><use xlink:href="#s" transform="matrix(7.9701 0 0 -7.9701 12.174 78.395)"/><symbol id="t"><path d="M.003.429v-.04h.014C.054.389.078.386.078.326V.079C.078.044.059.04 0 .04V0l.056.003h.173V.04H.206C.181.04.158.043.158.074V.44L.003.429m.091.246a.06.06 0 0 1 .008-.12c.034 0 .061.028.061.06a.06.06 0 0 1-.06.061L.094.675z"/></symbol><symbol id="u"><path d="M0 .429v-.04h.016C.052.389.079.385.079.326V.08C.079.041.053.04 0 .04V0l.058.003h.184V.04H.217C.189.04.163.043.163.075v.181c0 .09.073.151.157.151h.002c.075 0 .08-.063.08-.11v-.22C.402.043.375.04.345.04H.323V0l.058.003h.184V.04H.539C.512.04.486.044.486.076v.212C.486.326.483.371.454.4.422.432.375.44.332.44.265.44.189.412.157.347L.156.44 0 .429z"/></symbol><symbol id="v"><path d="M.144.625C.144.544.101.433 0 .433V.4h.097V.15c0-.033.002-.065.021-.094C.145.015.197 0 .244 0c.072 0 .122.058.122.146L.365.191H.328L.329.149C.329.105.315.036.253.036.195.036.181.094.181.142V.4h.165v.04H.181v.185H.144z"/></symbol><use xlink:href="#t" transform="matrix(5.9776 0 0 -5.9776 17.01 78.157)"/><use xlink:href="#u" transform="matrix(5.9776 0 0 -5.9776 19.102 78.157)"/><use xlink:href="#v" transform="matrix(5.9776 0 0 -5.9776 22.796 78.217)"/><symbol id="w"><path d="M.628.289C.64.295.649.301.649.314.649.327.64.333.628.339L.041.621C.028.628.026.628.023.628A.023.023 0 0 1 0 .605C0 .592.009.586.021.58L.573.314.021.048C.009.042 0 .036 0 .023 0 .01.01 0 .023 0c.003 0 .005 0 .018.007l.587.282z"/></symbol><use xlink:href="#w" transform="matrix(7.9701 0 0 -7.9701 29.892 77.36)"/><use xlink:href="#s" transform="matrix(7.9701 0 0 -7.9701 38.819 78.395)"/><symbol id="x"><path d="M.11.41v.001c.03.006.058.011.088.011.056 0 .13-.023.13-.118V.28C.202.28 0 .248 0 .115 0 .027.107 0 .179 0c.06 0 .133.023.16.08H.34C.34.037.378.005.417.005c.047 0 .101.026.109.077v.073H.489V.097C.489.074.476.048.45.048.415.048.412.087.412.109v.155l.001.038c0 .113-.118.153-.211.153C.137.455.037.448.037.369.037.345.053.32.085.32c.028 0 .049.021.049.049C.134.386.126.403.11.41M.328.25V.171c0-.028 0-.053-.015-.078C.289.054.24.033.194.033.15.033.088.059.088.116c0 .103.154.134.24.134z"/></symbol><symbol id="y"><path d="M0 .429v-.04h.016C.052.389.079.385.079.326V.08C.079.041.053.04 0 .04V0l.058.003h.184V.04H.217C.189.04.163.043.163.075v.181c0 .091.074.151.158.151h.002c.071 0 .08-.058.08-.106V.077C.403.043.376.04.346.04H.324V0l.058.003h.184V.04H.541C.513.04.487.043.487.075v.181c0 .091.074.151.158.151h.002c.07 0 .08-.056.08-.105V.077C.727.043.7.04.67.04H.648V0l.058.003H.89V.04H.866C.837.04.811.043.811.077v.215a.165.165 0 0 1-.019.09C.763.429.705.44.654.44.58.44.53.412.481.349.473.422.381.441.333.441.265.441.18.406.157.346L.156.44 0 .429z"/></symbol><use xlink:href="#x" transform="matrix(5.9776 0 0 -5.9776 43.663 77.899)"/><use xlink:href="#v" transform="matrix(5.9776 0 0 -5.9776 47.148 77.899)"/><use xlink:href="#y" transform="matrix(5.9776 0 0 -5.9776 50.178 77.839)"/><symbol id="z"><path d="M0 .033V0l.053.003H.15L.214 0v.033C.185.033.145.046.145.082c0 .012.005.025.009.037L.189.21c.004.009.004.019.019.019h.25C.47.229.471.218.475.209L.498.148.522.086C.524.079.529.071.529.063c0-.029-.052-.03-.08-.03V0h.274v.033H.7C.677.033.652.034.637.047.624.06.619.08.613.096.541.289.466.48.395.673.388.691.384.714.361.714.339.714.335.691.329.674.264.506.201.337.137.168L.118.116C.094.05.054.034 0 .033m.209.229.123.326.123-.326H.209z"/></symbol><symbol id="A"><path d="M.135.625C.135.554.101.435 0 .435V.407h.089V.149c0-.032.002-.064.019-.092C.132.016.182 0 .228 0c.084 0 .105.089.105.155v.036H.302L.303.149C.303.105.292.031.233.031.179.031.166.089.166.139v.268h.149V.44H.166v.185H.135z"/></symbol><symbol id="B"><path d="M0 .429V.396h.019c.029 0 .057-.004.057-.05V.075C.076.034.05.033 0 .033V0l.061.003h.105L.229 0v.033H.208C.177.033.153.036.153.074v.183c0 .074.047.155.145.155.057 0 .073-.048.073-.109V.071C.371.036.344.033.315.033h-.02V0l.063.003h.105L.524 0v.033H.503C.472.033.448.036.448.074v.183c0 .074.047.155.145.155C.65.412.666.364.666.303V.071C.666.036.639.033.61.033H.59V0l.063.003h.105L.819 0v.033H.802c-.03 0-.059.003-.059.039v.214a.207.207 0 0 1-.016.095C.703.425.651.44.604.44.543.44.468.41.444.348H.443C.434.417.363.44.304.44.242.44.169.405.147.344L.146.44.109.437 0 .429z"/></symbol><symbol id="C"><path d="M0 .683V.65h.018C.05.65.076.646.076.6V.098L.077.076C.077.034.046.033.006.033H0V0l.061.003h.105L.229 0v.033H.208C.177.033.153.036.153.074v.184c0 .074.049.154.145.154.057 0 .072-.05.072-.11V.071C.37.036.343.033.314.033h-.02V0l.063.003h.105L.523 0v.033H.504C.476.033.447.036.447.071v.217a.197.197 0 0 1-.015.09C.409.425.356.44.307.44.248.44.176.411.151.352L.15.694 0 .683z"/></symbol><symbol id="D"><path d="M.089.239h.305c.013 0 .019.007.019.019 0 .05-.015.108-.051.145a.192.192 0 0 1-.137.053A.222.222 0 0 1 0 .231C0 .117.091 0 .235 0 .31 0 .39.047.411.121L.413.13a.015.015 0 0 1-.015.015C.379.145.376.113.367.101A.147.147 0 0 0 .243.033a.147.147 0 0 0-.13.077.272.272 0 0 0-.024.129M.09.266C.1.323.11.385.169.414a.114.114 0 0 0 .054.014C.288.428.332.374.342.302L.345.266H.09m.226.235c.005.007.015.018.015.023a2.763 2.763 0 0 1-.113.11C.206.645.194.66.176.661H.175C.153.661.136.64.136.619c0-.027.028-.037.047-.047l.055-.03C.263.529.29.509.316.501z"/></symbol><symbol id="E"><path d="M.09.402v.001c.032.015.06.024.097.024C.255.427.3.376.3.299V.276c-.124 0-.3-.04-.3-.165C0 .027.101 0 .166 0 .222 0 .284.025.31.081h.001c0-.042.035-.076.076-.076A.09.09 0 0 1 .48.096v.059H.449V.106C.449.08.444.043.413.043.381.043.377.08.377.102V.27l.001.037c0 .1-.103.148-.19.148C.134.455.033.439.033.359.033.337.046.31.076.31c.032 0 .051.021.051.047 0 .02-.012.04-.037.045M.3.25V.152A.121.121 0 0 0 .178.028C.133.028.086.059.082.106V.11c0 .109.135.135.218.14M.301.5c.005.007.015.018.015.023a2.763 2.763 0 0 1-.113.11C.191.644.179.659.161.66H.16C.138.66.121.639.121.618c0-.027.028-.037.047-.047l.055-.03C.248.528.275.508.301.5z"/></symbol><symbol id="F"><path d="M0 .683V.65h.013C.046.65.076.649.076.598V.097L.077.075C.077.035.045.033.01.033H0V0l.06.003h.104L.226 0v.033H.203C.175.033.15.036.15.072v.622L0 .683z"/></symbol><use xlink:href="#z" transform="matrix(7.9701 0 0 -7.9701 86.907 20.125)"/><use xlink:href="#A" transform="matrix(7.9701 0 0 -7.9701 92.892 20.205)"/><use xlink:href="#B" transform="matrix(7.9701 0 0 -7.9701 96.344 20.125)"/><use xlink:href="#o" transform="matrix(7.9701 0 0 -7.9701 103.31 20.205)"/><use xlink:href="#n" transform="matrix(7.9701 0 0 -7.9701 107.581 20.205)"/><use xlink:href="#p" transform="matrix(7.9701 0 0 -7.9701 110.92 21.671)"/><use xlink:href="#C" transform="matrix(7.9701 0 0 -7.9701 115.671 20.125)"/><use xlink:href="#D" transform="matrix(7.9701 0 0 -7.9701 120.286 20.213)"/><use xlink:href="#q" transform="matrix(7.9701 0 0 -7.9701 124.087 20.125)"/><use xlink:href="#j" transform="matrix(7.9701 0 0 -7.9701 127.347 20.213)"/><use xlink:href="#E" transform="matrix(7.9701 0 0 -7.9701 134.05 20.205)"/><use xlink:href="#F" transform="matrix(7.9701 0 0 -7.9701 82.99 29.589)"/><use xlink:href="#l" transform="matrix(7.9701 0 0 -7.9701 85.365 29.669)"/><use xlink:href="#p" transform="matrix(7.9701 0 0 -7.9701 92.339 31.135)"/><use xlink:href="#q" transform="matrix(7.9701 0 0 -7.9701 97.041 29.589)"/><use xlink:href="#j" transform="matrix(7.9701 0 0 -7.9701 100.3 29.677)"/><use xlink:href="#n" transform="matrix(7.9701 0 0 -7.9701 104.103 29.669)"/><use xlink:href="#n" transform="matrix(7.9701 0 0 -7.9701 107.442 29.669)"/><use xlink:href="#f" transform="matrix(7.9701 0 0 -7.9701 110.837 29.589)"/><use xlink:href="#o" transform="matrix(7.9701 0 0 -7.9701 113.093 29.669)"/><use xlink:href="#r" transform="matrix(7.9701 0 0 -7.9701 117.413 29.589)"/><use xlink:href="#s" transform="matrix(7.9701 0 0 -7.9701 124.433 31.143)"/><use xlink:href="#x" transform="matrix(5.9776 0 0 -5.9776 129.27 30.647)"/><use xlink:href="#v" transform="matrix(5.9776 0 0 -5.9776 132.755 30.647)"/><use xlink:href="#y" transform="matrix(5.9776 0 0 -5.9776 135.785 30.587)"/><path d="M168.97 93.762v14.173h113.388V93.762z" fill="#ccf"/><path stroke-width=".797" stroke-linecap="round" stroke-miterlimit="10" fill="none" stroke="#99f" d="M168.97 93.762v14.173h113.388V93.762z"/><path d="M222.12 107.935V15.808h7.088v92.127z" fill="#ccf"/><path stroke-width=".996" stroke-miterlimit="10" fill="none" stroke="#000" d="M222.12 100.848V8.721c.242-2.753 6.847-2.753 7.088 0v92.127"/><path stroke-width=".996" stroke-miterlimit="10" fill="none" stroke="#000" d="M168.97 90.927v17.008h113.388V90.927"/><path stroke-width=".399" stroke-miterlimit="10" fill="none" stroke="#000" d="M218.578 91.77V17.8"/><path d="m218.578 93.762 1.594-3.188-1.594 1.195-1.594-1.195M218.578 15.808l-1.594 3.188 1.594-1.196 1.594 1.196"/><use xlink:href="#d" transform="matrix(7.9701 0 0 -7.9701 211.161 57.632)"/><path stroke-width="1.196" stroke-linecap="round" stroke-miterlimit="10" fill="none" stroke="#369" d="M211.49 83.132v4.891"/><path d="M211.49 93.762c.32-1.7 1.276-4.464 2.392-6.377H209.1c1.116 1.913 2.072 4.676 2.39 6.377" fill="#369"/><path stroke-width="1.196" stroke-linecap="round" stroke-miterlimit="10" fill="none" stroke="#369" d="M197.317 83.132v4.891"/><path d="M197.317 93.762c.32-1.7 1.276-4.464 2.391-6.377h-4.782c1.116 1.913 2.073 4.676 2.391 6.377" fill="#369"/><path stroke-width="1.196" stroke-linecap="round" stroke-miterlimit="10" fill="none" stroke="#369" d="M239.838 83.132v4.891"/><path d="M239.838 93.762c.318-1.7 1.275-4.464 2.39-6.377h-4.781c1.115 1.913 2.072 4.676 2.39 6.377" fill="#369"/><path stroke-width="1.196" stroke-linecap="round" stroke-miterlimit="10" fill="none" stroke="#369" d="M254.011 83.132v4.891"/><path d="M254.011 93.762c.319-1.7 1.275-4.464 2.391-6.377h-4.782c1.116 1.913 2.072 4.676 2.391 6.377" fill="#369"/><path stroke-width="1.196" stroke-linecap="round" stroke-miterlimit="10" fill="none" stroke="#369" d="M268.184 83.132v4.891"/><path d="M268.184 93.762c.32-1.7 1.276-4.464 2.392-6.377h-4.783c1.116 1.913 2.073 4.676 2.391 6.377" fill="#369"/><path stroke-width="1.196" stroke-linecap="round" stroke-miterlimit="10" fill="none" stroke="#369" d="M183.144 83.132v4.891"/><path d="M183.144 93.762c.319-1.7 1.275-4.464 2.391-6.377h-4.782c1.116 1.913 2.072 4.676 2.391 6.377" fill="#369"/><use xlink:href="#s" transform="matrix(7.9701 0 0 -7.9701 174.319 80.14)" fill="#369"/><use xlink:href="#x" transform="matrix(5.9776 0 0 -5.9776 179.155 79.643)" fill="#369"/><use xlink:href="#v" transform="matrix(5.9776 0 0 -5.9776 182.64 79.643)" fill="#369"/><use xlink:href="#y" transform="matrix(5.9776 0 0 -5.9776 185.67 79.583)" fill="#369"/><path d="M226.51 51.241a.845.845 0 1 0-1.691 0 .845.845 0 0 0 1.69 0zm-.846 0"/><symbol id="G"><path d="M0 .683V.65l.036.001C.071.651.101.646.101.606V.093L.102.074C.102.037.069.032.036.032L0 .033V0h.294v.033L.256.032C.222.032.193.038.193.078v.261h.321V.078C.514.037.48.033.441.033H.413V0h.294v.033L.671.032C.637.032.605.037.605.074l.001.019v.513c0 .04.033.045.067.045L.707.65v.033H.413V.65l.038.001C.485.651.514.645.514.605V.372H.193v.233c0 .041.034.045.073.045h.028v.033H0z"/></symbol><symbol id="H"><path d="M.092.226C.048.217 0 .176 0 .128 0 .023.165 0 .236 0c.083 0 .236.025.236.13C.472.255.339.274.24.274H.154c-.04 0-.065.031-.065.067v.005C.09.358.095.377.104.379c.004 0 .014-.007.02-.01A.183.183 0 0 1 .207.351c.08 0 .172.053.172.146 0 .029-.01.059-.028.082C.348.583.342.588.342.593c0 .014.059.035.091.035a.037.037 0 0 1-.01-.024c0-.017.015-.031.032-.031a.03.03 0 0 1 .031.031c0 .033-.028.053-.058.053A.165.165 0 0 1 .33.62C.327.618.323.613.318.613H.317C.313.613.304.62.297.624a.211.211 0 0 1-.089.021C.127.645.035.593.035.498.035.466.047.434.07.409.073.405.078.401.078.396V.395C.078.387.062.367.057.352A.15.15 0 0 1 .052.315c0-.038.014-.057.04-.089M.06.122.059.13c0 .055.058.078.104.078H.24C.315.208.402.202.413.134V.128c0-.04-.048-.071-.076-.08A.265.265 0 0 0 .233.03C.169.03.068.056.06.122m.054.359v.011c0 .057.018.123.093.123.063 0 .094-.053.094-.12C.301.436.272.381.207.381a.092.092 0 0 0-.07.032C.12.433.117.456.114.481z"/></symbol><use xlink:href="#G" transform="matrix(7.9701 0 0 -7.9701 242.179 43.355)"/><use xlink:href="#H" transform="matrix(7.9701 0 0 -7.9701 248.403 44.989)"/><symbol id="I"><path d="M0 .683v-.04h.015C.048.643.078.64.078.593V.101L.079.078C.079.043.05.04.022.04H0V0l.056.003h.18V.04H.212C.178.04.158.044.158.08v.614L0 .683z"/></symbol><symbol id="J"><path d="M.4.253V.078C.4.049.391.04.322.04V0h.24v.04H.538C.509.04.484.043.484.078v.556L.452.632.44.61.414.549H.412C.382.606.311.634.252.634.13.634.009.548 0 .421V.412C0 .281.115.184.246.184.305.184.361.209.4.253M.095.395.094.411c0 .091.068.181.164.187h.005A.142.142 0 0 0 .389.517.143.143 0 0 0 .404.478V.34C.404.282.334.235.287.221.275.219.264.217.252.217H.244C.152.224.103.313.095.395z"/></symbol><use xlink:href="#I" transform="matrix(5.9776 0 0 -5.9776 252.785 44.762)"/><use xlink:href="#t" transform="matrix(5.9776 0 0 -5.9776 254.889 44.762)"/><use xlink:href="#J" transform="matrix(5.9776 0 0 -5.9776 256.933 45.922)"/><path stroke-width=".199" stroke-miterlimit="10" fill="none" stroke="#929292" d="m227.583 50.545 11.258-4.089"/><path d="M226.51 8.721a.845.845 0 1 0-1.691 0 .845.845 0 0 0 1.69 0zm-.846 0"/><symbol id="K"><path d="M0 .704V.671h.022C.044.671.069.67.082.657.095.644.1.625.107.609.187.42.263.23.341.04.348.022.353 0 .376 0 .398 0 .403.023.41.04c.077.183.148.37.227.551.016.041.042.08.114.08v.033L.701.701H.606L.542.704V.671A.08.08 0 0 0 .6.649L.606.64A.032.032 0 0 0 .61.624C.61.609.602.594.596.58L.464.259.427.168C.42.151.41.134.406.116H.405C.401.131.394.146.388.16L.352.247.246.504C.23.545.209.587.195.629a.028.028 0 0 0-.003.013v.003C.197.67.236.671.263.671h.006v.033H0z"/></symbol><use xlink:href="#K" transform="matrix(7.9701 0 0 -7.9701 242.206 11.625)"/><use xlink:href="#f" transform="matrix(7.9701 0 0 -7.9701 248.702 11.458)"/><use xlink:href="#i" transform="matrix(7.9701 0 0 -7.9701 251.005 11.538)"/><use xlink:href="#j" transform="matrix(7.9701 0 0 -7.9701 255.66 11.546)"/><path stroke-width=".199" stroke-miterlimit="10" fill="none" stroke="#929292" d="M227.705 8.721h11.339"/></svg>