<svg xmlns="http://www.w3.org/2000/svg" xmlns:xlink="http://www.w3.org/1999/xlink" width="192.585" height="148.224" viewBox="0 0 144.439 111.168"><path d="M38.239 25.32v79.372h70.867V25.321z" fill="#ccf"/><path stroke-width=".797" stroke-linecap="round" stroke-miterlimit="10" fill="none" stroke="#99f" d="M38.239 25.32v79.372h70.867V25.321z"/><path stroke-width=".996" stroke-miterlimit="10" fill="none" stroke="#000" d="M38.239 5.478v99.214h70.867V5.478"/><path stroke-width="2.989" stroke-miterlimit="10" fill="none" stroke="#929292" d="M16.978 104.692h113.388"/><symbol id="a"><path d="M0 .683V.647l.038.001C.073.648.103.643.103.605V.094L.104.076C.104.04.071.035.038.035L0 .036V0h.301v.036L.259.035C.226.035.198.041.198.079V.31h.174c.097 0 .211.033.257.131A.124.124 0 0 1 .64.495C.64.631.471.684.364.684L.302.683H0M.194.342v.275c0 .026.018.03.039.03h.094C.416.647.533.642.533.496.533.459.528.419.502.391.462.348.398.342.343.342H.194z"/></symbol><symbol id="b"><path d="M.229.455C.114.443 0 .361 0 .222V.213C.007.079.13 0 .248 0 .361 0 .483.08.49.213v.005C.49.357.374.455.24.455H.229M.091.205.09.229c0 .055.005.12.053.162a.154.154 0 0 0 .1.036.156.156 0 0 0 .12-.053C.394.338.399.286.399.243.399.187.398.123.358.079A.15.15 0 0 0 .245.032c-.077 0-.136.049-.15.132L.091.205z"/></symbol><symbol id="c"><path d="M.061.043A.18.18 0 0 1 .182 0c.076 0 .179.027.179.14v.011C.347.332.056.247.056.361c0 .058.081.07.123.07.061 0 .114-.03.121-.1V.326C.3.319.302.31.316.31s.019.01.019.023L.334.35v.084c0 .011-.001.021-.015.021C.312.455.303.447.297.441L.29.435C.288.433.284.43.281.43.275.43.268.436.263.439a.21.21 0 0 1-.082.016C.109.455 0 .437 0 .327V.32C.031.153.289.249.305.119.305.049.241.028.184.028.102.028.053.082.037.153.033.163.036.175.017.175.001.175 0 .165 0 .156V.019C0 .009.003 0 .013 0 .03 0 .055.034.061.043z"/></symbol><symbol id="d"><path d="M.004.429V.393h.004c.035 0 .067-.001.067-.05V.077C.075.037.051.036 0 .036V0h.219v.036H.198C.174.036.151.039.151.07v.37L.114.437.004.429m.085.243C.06.669.04.642.04.615c0-.03.024-.057.057-.057s.058.027.058.058c0 .03-.024.057-.057.057L.089.672z"/></symbol><symbol id="e"><path d="M.139.625C.139.546.101.432 0 .432V.404h.093V.148c0-.032.002-.064.019-.091C.138.016.188 0 .234 0 .27 0 .302.016.323.046a.18.18 0 0 1 .025.107v.038H.314L.315.149C.315.108.305.032.244.032.188.032.173.089.173.141v.263h.156V.44H.173v.185H.139z"/></symbol><symbol id="f"><path d="M0 .429V.393h.014C.045.393.075.39.075.343V.077C.075.037.051.036 0 .036V0h.23v.036H.209C.18.036.155.039.155.072v.186c0 .07.046.154.152.154.058 0 .076-.047.076-.108V.073C.383.038.354.036.322.036H.308V0h.23v.036H.517C.49.036.463.039.463.074v.218c0 .03-.001.061-.017.088C.421.427.365.44.316.44.252.44.172.406.149.341L.148.44.097.436 0 .429z"/></symbol><symbol id="g"><path d="M.311.693V.657h.02c.031 0 .055-.005.055-.06V.393A.2.2 0 0 1 .243.45C.115.45 0 .351 0 .224 0 .101.108 0 .233 0a.21.21 0 0 1 .149.061V0l.155.01v.036H.524c-.03 0-.062.003-.062.05v.608L.311.693M.091.204v.013c0 .073.012.153.1.193.019.008.04.012.06.012.052 0 .132-.036.132-.099L.382.285V.126C.382.114.376.106.37.096A.163.163 0 0 0 .24.028C.166.028.111.084.097.157L.091.204z"/></symbol><symbol id="h"><path d="M.102.212a.236.236 0 0 0-.074-.18C.022.027.014.021.014.013V.012A.014.014 0 0 1 .028 0c.017 0 .045.037.058.056A.255.255 0 0 1 .13.2C.13.246.113.308.057.308.021.308 0 .28 0 .25 0 .217.025.193.058.193.075.193.09.2.102.212z"/></symbol><symbol id="i"><path d="M.091.238h.316c.017 0 .022.006.022.021C.429.367.36.455.234.455A.228.228 0 0 1 0 .228C0 .092.121 0 .244 0c.073 0 .162.041.182.119a.036.036 0 0 1 .002.01v.003C.427.14.42.144.412.144.392.144.388.109.375.093A.157.157 0 0 0 .249.032H.246a.156.156 0 0 0-.108.049C.098.123.091.182.091.238m.001.026C.103.34.136.426.233.426A.116.116 0 0 0 .326.381.2.2 0 0 0 .359.264H.092m.02.263.02-.028.138.074c.02.011.048.02.048.049a.044.044 0 0 1-.042.042C.261.664.248.652.237.641L.205.612C.174.584.142.556.112.527z"/></symbol><symbol id="j"><path d="M.382.252V.074C.382.046.375.036.307.036V0h.23v.036H.515C.487.036.462.04.462.076v.558L.433.632.427.624.394.547C.366.604.3.634.239.634.117.634.006.54 0 .42V.411C0 .288.104.184.233.184c.058 0 .111.024.149.068M.091.394v.01c0 .085.05.198.161.198h.006A.146.146 0 0 0 .386.48V.334C.386.249.272.212.239.212H.232C.169.218.122.273.103.33.096.351.094.372.091.394z"/></symbol><symbol id="k"><path d="M0 .44V.404h.009C.035.404.073.402.073.373.075.361.075.349.075.337V.15C.075.035.144 0 .238 0c.056 0 .12.025.148.087L.387.001l.151.01v.036H.524C.494.047.463.05.463.095v.356L.308.44V.404c.042 0 .075 0 .075-.05V.187C.383.106.338.029.247.029c-.035 0-.081.007-.09.059C.155.105.155.123.155.14v.311L0 .44z"/></symbol><symbol id="l"><path d="M0 .683V.647h.018c.031 0 .057-.004.057-.05V.099L.076.077c0-.04-.03-.041-.07-.041H0V0h.226v.036H.202C.174.036.151.039.151.073v.621L0 .683z"/></symbol><symbol id="m"><path d="M0 .693V.657h.015c.031 0 .06-.004.06-.055V.01l.033.001.036.059C.184.026.234 0 .294 0c.123 0 .243.095.243.227a.23.23 0 0 1-.386.164v.313L0 .693M.445.205a.198.198 0 0 0-.039-.12.155.155 0 0 0-.119-.056.148.148 0 0 0-.117.059C.162.099.155.109.155.123V.34c.008.044.086.082.14.082.119 0 .151-.114.151-.198L.445.205z"/></symbol><symbol id="n"><path d="M0 .429V.393h.014C.045.393.075.39.075.343V.077C.075.037.051.036 0 .036V0h.245v.036L.211.035c-.033 0-.06.005-.06.041v.078L.15.212c0 .079.026.2.135.2V.411C.273.404.268.39.268.376.268.348.289.33.314.33c.027 0 .045.022.045.044C.359.417.319.44.28.44.216.44.158.385.145.33L.144.44.094.436 0 .429z"/></symbol><symbol id="o"><path d="M.091.238h.316c.017 0 .022.006.022.021C.429.367.36.455.234.455A.228.228 0 0 1 0 .228C0 .092.121 0 .244 0c.073 0 .162.041.182.119a.036.036 0 0 1 .002.01v.003C.427.14.42.144.412.144.392.144.388.109.375.093A.157.157 0 0 0 .249.032H.246a.156.156 0 0 0-.108.049C.098.123.091.182.091.238m.001.026C.103.34.136.426.233.426A.116.116 0 0 0 .326.381.2.2 0 0 0 .359.264H.092z"/></symbol><use xlink:href="#a" transform="matrix(6.9738 0 0 -6.9738 40.308 20.971)"/><use xlink:href="#b" transform="matrix(6.9738 0 0 -6.9738 45.316 21.04)"/><use xlink:href="#c" transform="matrix(6.9738 0 0 -6.9738 49.326 21.04)"/><use xlink:href="#d" transform="matrix(6.9738 0 0 -6.9738 52.554 20.971)"/><use xlink:href="#e" transform="matrix(6.9738 0 0 -6.9738 54.619 21.04)"/><use xlink:href="#d" transform="matrix(6.9738 0 0 -6.9738 57.917 20.971)"/><use xlink:href="#b" transform="matrix(6.9738 0 0 -6.9738 60.058 21.04)"/><use xlink:href="#f" transform="matrix(6.9738 0 0 -6.9738 64.124 20.971)"/><use xlink:href="#g" transform="matrix(6.9738 0 0 -6.9738 71.154 21.04)"/><use xlink:href="#h" transform="matrix(6.9738 0 0 -6.9738 75.966 18.28)"/><use xlink:href="#i" transform="matrix(6.9738 0 0 -6.9738 77.765 21.04)"/><use xlink:href="#j" transform="matrix(6.9738 0 0 -6.9738 81.35 22.324)"/><use xlink:href="#k" transform="matrix(6.9738 0 0 -6.9738 85.59 21.048)"/><use xlink:href="#d" transform="matrix(6.9738 0 0 -6.9738 90.004 20.971)"/><use xlink:href="#l" transform="matrix(6.9738 0 0 -6.9738 92.256 20.971)"/><use xlink:href="#d" transform="matrix(6.9738 0 0 -6.9738 94.509 20.971)"/><use xlink:href="#m" transform="matrix(6.9738 0 0 -6.9738 96.713 21.04)"/><use xlink:href="#n" transform="matrix(6.9738 0 0 -6.9738 101.113 20.971)"/><use xlink:href="#o" transform="matrix(6.9738 0 0 -6.9738 104.16 21.04)"/><path stroke-width=".797" stroke-miterlimit="10" fill="none" stroke="#000" d="M116.192 76.345v8.04"/><path d="m116.192 86.975 2.072-4.144-2.072 1.554-2.072-1.554"/><symbol id="p"><path d="M.611 0c.016 0 .038 0 .038.023S.627.046.611.046H.038C.022.046 0 .046 0 .023S.022 0 .038 0h.573z"/></symbol><symbol id="q"><path d="M.814.241A.375.375 0 0 1 .671.015C.671 0 .685 0 .694 0c.011 0 .02 0 .023.013.026.111.09.195.211.236.008.002.016.005.016.015 0 .01-.009.013-.013.014a.307.307 0 0 0-.212.227C.714.525.714.528.694.528c-.009 0-.023 0-.023-.015A.352.352 0 0 1 .814.287H.038C.022.287 0 .287 0 .264S.022.241.038.241h.776z"/></symbol><use xlink:href="#p" transform="matrix(7.9701 0 0 -7.9701 119.882 78.867)"/><use xlink:href="#q" transform="matrix(7.9701 0 0 -7.9701 119.651 80.788)"/><symbol id="r"><path d="M.475.573c.004.015.004.021.004.022C.479.618.46.626.447.626A.047.047 0 0 1 .402.587a.111.111 0 0 1-.098.058C.185.645.055.512.055.366.055.258.126.204.2.204c.046 0 .087.025.12.054L.298.168C.287.126.28.097.241.064.199.028.161.028.136.028a.354.354 0 0 0-.073.006.059.059 0 0 1 .032.05c0 .024-.018.037-.039.037A.057.057 0 0 1 0 .061C0 .004.078 0 .138 0 .28 0 .351.076.366.137l.109.436M.34.336C.333.308.311.288.29.269.281.262.243.232.202.232c-.04 0-.069.033-.069.093a.61.61 0 0 0 .052.202c.032.057.079.09.119.09.067 0 .085-.074.085-.083L.386.52.34.336z"/></symbol><use xlink:href="#r" transform="matrix(7.9701 0 0 -7.9701 121.424 85.734)"/><path d="M60.916 76.345V50.833h25.512v25.512zm25.512-25.512" fill="#cbcbcb"/><path stroke-width="1.993" stroke-miterlimit="10" fill="none" stroke="#000" d="M60.916 74.353V52.826c0-1.1.892-1.993 1.993-1.993h21.526c1.1 0 1.993.892 1.993 1.993v21.527c0 1.1-.892 1.992-1.993 1.992H62.91c-1.1 0-1.993-.892-1.993-1.992zm25.512-23.52"/><path stroke-width="1.196" stroke-linecap="round" stroke-miterlimit="10" fill="none" stroke="#369" d="M73.672 36.66v8.434"/><path d="M73.672 50.833c.319-1.7 1.275-4.463 2.391-6.376h-4.782c1.116 1.913 2.072 4.676 2.391 6.376" fill="#369"/><use xlink:href="#p" transform="matrix(7.9701 0 0 -7.9701 77.362 39.184)" fill="#369"/><use xlink:href="#q" transform="matrix(7.9701 0 0 -7.9701 77.131 41.105)" fill="#369"/><symbol id="s"><path d="M.267.324h.104C.453.324.457.308.457.279c0-.007 0-.017-.007-.043A.089.089 0 0 1 .448.221c0-.001 0-.014.015-.014.012 0 .015.01.018.023l.053.214A.124.124 0 0 1 .538.46c0 .004-.003.014-.016.014C.51.474.508.465.505.453.485.375.462.357.373.357H.276l.063.252c.009.036.01.038.051.038h.147C.656.647.69.622.69.536.69.515.685.489.685.47.685.458.692.453.7.453c.014 0 .015.009.017.026l.018.17a.097.097 0 0 1 .001.017C.736.68.724.68.706.68H.193C.175.68.162.68.162.662c0-.015.012-.015.029-.015.007 0 .021 0 .038-.002C.25.643.253.641.253.631a.074.074 0 0 0-.004-.02L.116.079C.107.041.105.033.031.033.012.033 0 .033 0 .014 0 .01.003 0 .016 0l.067.003h.138L.295 0c.007 0 .021 0 .021.019 0 .014-.012.014-.033.014s-.029 0-.052.002C.204.038.201.041.201.053c0 .001 0 .007.004.022l.062.249z"/></symbol><use xlink:href="#s" transform="matrix(7.9701 0 0 -7.9701 78.019 46.439)" fill="#369"/><symbol id="t"><path d="M.484.302C.484.4.428.441.327.441A.193.193 0 0 1 .158.352v.342L0 .683V.644C.07.644.079.637.079.588V.082C.079.039.069.039 0 .039V0a2.002 2.002 0 0 0 .241 0v.039c-.069 0-.079 0-.079.043v.176c0 .11.094.151.156.151.067 0 .083-.042.083-.104V.082C.401.039.391.039.322.039V0a2.002 2.002 0 0 0 .241 0v.039c-.069 0-.079 0-.079.043v.22z"/></symbol><symbol id="u"><path d="M.411.308c0 .093-.095.148-.207.148C.156.456.038.451.038.367.038.34.056.318.087.318c.029 0 .048.022.048.048 0 .018-.008.035-.026.043.033.015.083.015.093.015.071 0 .126-.042.126-.118V.28C.282.278.202.276.129.25.063.227 0 .182 0 .115 0 .026.106 0 .184 0 .268 0 .318.042.34.08.347.028.38.005.415.005c.004 0 .111 0 .111.095v.055H.489V.102c0-.01 0-.055-.039-.055S.411.092.411.102v.206M.328.152c0-.104-.103-.12-.135-.12-.054 0-.105.033-.105.083 0 .056.054.129.24.135V.152z"/></symbol><symbol id="v"><path d="M.322.44V.401c.07 0 .079-.007.079-.056V.178C.401.087.338.032.261.032.166.032.162.074.162.123v.328L0 .44V.401C.079.401.079.392.079.333V.177c0-.068 0-.112.045-.145A.218.218 0 0 1 .254 0C.317 0 .37.025.405.082V0l.158.01v.039c-.07 0-.079.007-.079.056v.346L.322.44z"/></symbol><symbol id="w"><path d="M.182.402h.164v.039H.182v.184H.145C.144.536.101.438 0 .434V.402h.099V.135C.099.03.178 0 .246 0c.069 0 .119.055.119.136v.055H.328V.138C.328.067.291.035.254.035c-.072 0-.072.081-.072.1v.267z"/></symbol><use xlink:href="#t" transform="matrix(5.9776 0 0 -5.9776 85.506 47.845)" fill="#369"/><use xlink:href="#u" transform="matrix(5.9776 0 0 -5.9776 89.552 47.905)" fill="#369"/><use xlink:href="#v" transform="matrix(5.9776 0 0 -5.9776 93.199 47.905)" fill="#369"/><use xlink:href="#w" transform="matrix(5.9776 0 0 -5.9776 97.078 47.905)" fill="#369"/><path stroke-width="1.196" stroke-linecap="round" stroke-miterlimit="10" fill="none" stroke="#369" d="M107.688 62.172H92.166"/><path d="M86.428 62.172c1.7.319 4.463 1.275 6.376 2.39v-4.781c-1.913 1.116-4.676 2.072-6.376 2.39" fill="#369"/><use xlink:href="#p" transform="matrix(7.9701 0 0 -7.9701 111.378 58.444)" fill="#369"/><use xlink:href="#q" transform="matrix(7.9701 0 0 -7.9701 111.147 60.365)" fill="#369"/><use xlink:href="#s" transform="matrix(7.9701 0 0 -7.9701 112.034 65.699)" fill="#369"/><symbol id="x"><path d="M.326.693V.654c.07 0 .079-.007.079-.056V.395a.214.214 0 0 1-.147.056C.118.451 0 .351 0 .225 0 .101.111 0 .246 0c.06 0 .112.022.155.062V0l.162.01v.039c-.07 0-.079.007-.079.056v.599L.326.693M.401.138c0-.019 0-.022-.016-.042A.173.173 0 0 0 .252.032a.156.156 0 0 0-.119.055.223.223 0 0 0-.038.138c0 .182.134.194.169.194A.164.164 0 0 0 .387.364C.401.347.401.345.401.326V.138z"/></symbol><symbol id="y"><path d="M.158.224c0 .093.048.183.137.185A.047.047 0 0 1 .282.375c0-.027.02-.047.047-.047s.047.02.047.047c0 .04-.038.066-.082.066C.234.441.183.405.152.338H.151v.103L0 .43V.391C.07.391.079.384.079.335V.082C.079.039.069.039 0 .039V0a2.571 2.571 0 0 0 .256 0v.039H.234c-.075 0-.076.01-.076.044v.141z"/></symbol><symbol id="z"><path d="M.514.223c0 .125-.112.233-.257.233C.111.456 0 .348 0 .223 0 .101.113 0 .257 0c.144 0 .257.101.257.223M.257.035C.095.035.095.184.095.232c0 .031 0 .1.037.141a.165.165 0 0 0 .125.051.163.163 0 0 0 .126-.052C.419.331.419.264.419.232c0-.048 0-.197-.162-.197z"/></symbol><symbol id="A"><path d="M.163.616a.06.06 0 0 1-.06.06.06.06 0 0 1-.06-.06.06.06 0 0 1 .06-.06c.035 0 .06.03.06.06M.004.43V.391C.07.391.079.384.079.335V.082C.079.039.069.039 0 .039V0c.029.002.107.004.117.004C.127.004.203.002.229 0v.039c-.062 0-.071 0-.071.042v.36L.004.43z"/></symbol><symbol id="B"><path d="M.421.236c.022 0 .03 0 .03.024 0 .077-.043.196-.209.196A.234.234 0 0 1 0 .229C0 .103.115 0 .256 0 .4 0 .451.108.451.13c0 .005-.002.016-.019.016C.419.146.417.14.413.128.383.054.308.035.262.035a.164.164 0 0 0-.13.061C.095.143.095.209.095.236h.326m-.324.03C.108.4.2.424.241.424.37.424.377.295.378.266H.097z"/></symbol><use xlink:href="#x" transform="matrix(5.9776 0 0 -5.9776 119.468 67.165)" fill="#369"/><use xlink:href="#y" transform="matrix(5.9776 0 0 -5.9776 123.533 67.105)" fill="#369"/><use xlink:href="#z" transform="matrix(5.9776 0 0 -5.9776 126.354 67.165)" fill="#369"/><use xlink:href="#A" transform="matrix(5.9776 0 0 -5.9776 130.102 67.105)" fill="#369"/><use xlink:href="#w" transform="matrix(5.9776 0 0 -5.9776 132.039 67.165)" fill="#369"/><use xlink:href="#B" transform="matrix(5.9776 0 0 -5.9776 134.992 67.165)" fill="#369"/><path stroke-width="1.196" stroke-linecap="round" stroke-miterlimit="10" fill="none" stroke="#369" d="M73.672 101.857V82.084"/><path d="M73.672 76.345c-.319 1.7-1.275 4.464-2.391 6.376h4.782c-1.116-1.912-2.072-4.675-2.391-6.376" fill="#369"/><use xlink:href="#p" transform="matrix(7.9701 0 0 -7.9701 51.808 85.373)" fill="#369"/><use xlink:href="#q" transform="matrix(7.9701 0 0 -7.9701 51.577 87.294)" fill="#369"/><use xlink:href="#s" transform="matrix(7.9701 0 0 -7.9701 52.465 92.628)" fill="#369"/><symbol id="C"><path d="M.158.704 0 .693V.654C.07.654.079.647.079.598V.01h.037l.035.061A.197.197 0 0 1 .305 0c.139 0 .258.099.258.226 0 .122-.108.225-.246.225A.232.232 0 0 1 .158.392v.312M.162.342c.031.05.091.077.149.077A.154.154 0 0 0 .428.366a.212.212 0 0 0 .04-.14C.468.037.322.032.3.032a.15.15 0 0 0-.123.062C.162.114.162.116.162.135v.207z"/></symbol><symbol id="D"><path d="M.352.428c0 .017 0 .028-.016.028-.005 0-.007 0-.022-.012L.296.429a.2.2 0 0 1-.109.027C.03.456 0 .377 0 .332 0 .234.118.215.194.203.239.196.326.182.326.116.326.077.296.032.194.032.098.032.058.088.038.163.035.172.033.178.019.178 0 .178 0 .169 0 .149V.028C0 .011 0 0 .016 0c.006 0 .007.001.026.019l.023.024C.114 0 .174 0 .194 0c.148 0 .187.08.187.139 0 .04-.02.07-.042.089C.297.265.257.272.197.282.122.294.055.306.055.357c0 .029.027.07.131.07.07 0 .123-.026.129-.097C.316.317.317.309.333.309c.019 0 .019.009.019.028v.091z"/></symbol><use xlink:href="#C" transform="matrix(5.9776 0 0 -5.9776 59.922 94.094)" fill="#369"/><use xlink:href="#u" transform="matrix(5.9776 0 0 -5.9776 63.998 94.094)" fill="#369"/><use xlink:href="#D" transform="matrix(5.9776 0 0 -5.9776 67.585 94.094)" fill="#369"/><path stroke-width="1.196" stroke-linecap="round" stroke-miterlimit="10" fill="none" stroke="#369" d="M39.656 62.172h15.521"/><path d="M60.916 62.172c-1.7-.319-4.463-1.275-6.376-2.391v4.782c1.913-1.116 4.676-2.072 6.376-2.391" fill="#369"/><use xlink:href="#p" transform="matrix(7.9701 0 0 -7.9701 6.68 57.863)" fill="#369"/><use xlink:href="#q" transform="matrix(7.9701 0 0 -7.9701 6.448 59.784)" fill="#369"/><use xlink:href="#s" transform="matrix(7.9701 0 0 -7.9701 7.335 65.118)" fill="#369"/><symbol id="E"><path d="M.112.381a.23.23 0 0 1 .114-.03c.111 0 .188.071.188.147 0 .056-.041.093-.043.095.045.03.088.032.103.032C.471.621.467.617.467.603.467.585.48.57.5.57c.022 0 .034.016.034.034 0 .022-.019.053-.063.053A.2.2 0 0 1 .348.611a.217.217 0 0 1-.121.035C.119.646.039.577.039.498c0-.031.013-.067.049-.1a.127.127 0 0 1-.029-.08C.059.263.094.233.1.228.061.217 0 .185 0 .129 0 .052.121 0 .259 0c.128 0 .259.046.259.131C.518.156.51.22.43.253.373.277.316.277.222.277c-.024 0-.063 0-.071.002A.063.063 0 0 0 .1.343c0 .021.01.035.012.038m.115.003C.144.384.123.445.123.498c0 .019 0 .115.103.115C.315.613.33.543.33.499.33.48.33.384.227.384M.283.206c.031 0 .17-.002.17-.077C.453.08.371.033.259.033.151.033.065.078.065.13c0 .025.023.076.107.076h.111z"/></symbol><symbol id="F"><path d="M.356.413A.047.047 0 0 1 .335.372c0-.026.019-.048.048-.048.031 0 .049.022.049.049 0 .08-.106.083-.169.083C.078.456 0 .324 0 .226 0 .101.111 0 .251 0 .41 0 .445.119.445.13.445.144.43.144.426.144.413.144.411.139.407.129.401.114.39.085.356.062A.169.169 0 0 0 .262.035C.185.035.095.09.095.227a.22.22 0 0 0 .044.142c.045.052.098.052.128.052A.378.378 0 0 0 .356.413z"/></symbol><use xlink:href="#E" transform="matrix(5.9776 0 0 -5.9776 14.721 67.75)" fill="#369"/><use xlink:href="#u" transform="matrix(5.9776 0 0 -5.9776 18.48 66.584)" fill="#369"/><use xlink:href="#v" transform="matrix(5.9776 0 0 -5.9776 22.127 66.584)" fill="#369"/><use xlink:href="#F" transform="matrix(5.9776 0 0 -5.9776 26.114 66.584)" fill="#369"/><use xlink:href="#t" transform="matrix(5.9776 0 0 -5.9776 29.24 66.524)" fill="#369"/><use xlink:href="#B" transform="matrix(5.9776 0 0 -5.9776 33.192 66.584)" fill="#369"/></svg>