<svg xmlns="http://www.w3.org/2000/svg" xmlns:xlink="http://www.w3.org/1999/xlink" width="172.023" height="172.023" viewBox="0 0 129.017 129.017"><path d="M4.98 124.036V4.98h119.057v119.056zM124.038 4.98" fill="#ccf"/><path d="m101.927 64.508-.036-1.08-.102-1.093-.169-1.104-.232-1.114-.297-1.122-.361-1.129-.419-1.133-.475-1.136-.528-1.138-.577-1.136-.625-1.133-.666-1.127-.704-1.12-.738-1.11-.766-1.098-.793-1.084-.814-1.064-.832-1.047-.846-1.024-.856-1-.863-.976-.868-.946-.871-.914-.87-.884-.867-.849-.864-.813-.861-.774-.856-.735-.85-.694-.847-.653-.843-.61-.838-.566-.838-.519-.838-.476-.838-.43-.842-.383-.847-.338-.856-.29-.865-.246-.876-.198-.89-.156-.906-.111-.923-.066-.942-.024-.962.017-.983.057-1.005.097-1.026.136-1.048.171-1.067.205-1.089.24-1.108.27-1.124.303-1.139.332-1.15.359-1.162.384-1.167.408-1.17.432-1.168.454-1.164.474-1.155.493-1.142.51-1.126.527-1.103.544-1.08.558-1.05.572-1.017.585-.982.599-.94.611-.9.623-.854.636-.808.646-.76.658-.709.67-.657.682-.607.695-.557.706-.506.719-.457.732-.406.746-.36.76-.318.774-.276.79-.236.805-.199.82-.165.838-.136.855-.11.871-.086.89-.065.907-.048.924-.034.943-.024.96-.016.978-.008.996-.005 1.012-.001 1.03v1.044l-.001 1.06v3.258l.003 1.11.004 1.118.008 1.125.016 1.131.024 1.135.035 1.137.047 1.137.065 1.136.087 1.13.109 1.124.136 1.115.165 1.104.199 1.09.236 1.075.276 1.056.317 1.036.36 1.013.407.989.457.96.505.93.557.9.606.866.658.832.71.793.759.754.808.716.854.674.9.631.94.588.982.542 1.018.498 1.05.453 1.079.406 1.104.362 1.125.314 1.142.268 1.155.222 1.164.177 1.169.133 1.17.088 1.166.045 1.16.003 1.151-.037 1.14-.077 1.124-.116 1.108-.153 1.089-.19 1.067-.222 1.048-.256 1.026-.287 1.005-.317.983-.345.962-.372.942-.396.923-.42.906-.443.89-.464.877-.484.864-.502.856-.518.847-.535.842-.551.838-.566.838-.578.838-.593.839-.605.842-.617.847-.628.85-.642.856-.652.86-.664.865-.676.867-.688.87-.7.87-.713.87-.726.862-.739.856-.753.846-.767.832-.782.814-.797.793-.812.767-.83.737-.846.704-.863.667-.88.624-.898.577-.916.528-.933.476-.952.419-.97.36-.986.298-1.004.233-1.021.167-1.038.103-1.052.034-1.066" fill="#ccf"/><path stroke-width=".399" stroke-miterlimit="10" fill="none" stroke="#000" d="m101.927 64.508-.036-1.08-.102-1.093-.169-1.104-.232-1.114-.297-1.122-.361-1.129-.419-1.133-.475-1.136-.528-1.138-.577-1.136-.625-1.133-.666-1.127-.704-1.12-.738-1.11-.766-1.098-.793-1.084-.814-1.064-.832-1.047-.846-1.024-.856-1-.863-.976-.868-.946-.871-.914-.87-.884-.867-.849-.864-.813-.861-.774-.856-.735-.85-.694-.847-.653-.843-.61-.838-.566-.838-.519-.838-.476-.838-.43-.842-.383-.847-.338-.856-.29-.865-.246-.876-.198-.89-.156-.906-.111-.923-.066-.942-.024-.962.017-.983.057-1.005.097-1.026.136-1.048.171-1.067.205-1.089.24-1.108.27-1.124.303-1.139.332-1.15.359-1.162.384-1.167.408-1.17.432-1.168.454-1.164.474-1.155.493-1.142.51-1.126.527-1.103.544-1.08.558-1.05.572-1.017.585-.982.599-.94.611-.9.623-.854.636-.808.646-.76.658-.709.67-.657.682-.607.695-.557.706-.506.719-.457.732-.406.746-.36.76-.318.774-.276.79-.236.805-.199.82-.165.838-.136.855-.11.871-.086.89-.065.907-.048.924-.034.943-.024.96-.016.978-.008.996-.005 1.012-.001 1.03v1.044l-.001 1.06v3.258l.003 1.11.004 1.118.008 1.125.016 1.131.024 1.135.035 1.137.047 1.137.065 1.136.087 1.13.109 1.124.136 1.115.165 1.104.199 1.09.236 1.075.276 1.056.317 1.036.36 1.013.407.989.457.96.505.93.557.9.606.866.658.832.71.793.759.754.808.716.854.674.9.631.94.588.982.542 1.018.498 1.05.453 1.079.406 1.104.362 1.125.314 1.142.268 1.155.222 1.164.177 1.169.133 1.17.088 1.166.045 1.16.003 1.151-.037 1.14-.077 1.124-.116 1.108-.153 1.089-.19 1.067-.222 1.048-.256 1.026-.287 1.005-.317.983-.345.962-.372.942-.396.923-.42.906-.443.89-.464.877-.484.864-.502.856-.518.847-.535.842-.551.838-.566.838-.578.838-.593.839-.605.842-.617.847-.628.85-.642.856-.652.86-.664.865-.676.867-.688.87-.7.87-.713.87-.726.862-.739.856-.753.846-.767.832-.782.814-.797.793-.812.767-.83.737-.846.704-.863.667-.88.624-.898.577-.916.528-.933.476-.952.419-.97.36-.986.298-1.004.233-1.021.167-1.038.103-1.052.034-1.066"/><path stroke-width=".797" stroke-linecap="round" stroke-miterlimit="10" fill="none" stroke="#99f" d="M101.927 64.508s-.017-.779-.036-1.08a22.25 22.25 0 0 0-.102-1.093 23.834 23.834 0 0 0-.169-1.104c-.056-.307-.159-.803-.232-1.114-.074-.31-.206-.81-.297-1.122a29.905 29.905 0 0 0-.361-1.129 33.527 33.527 0 0 0-.419-1.133c-.124-.315-.336-.82-.475-1.136-.139-.315-.375-.822-.528-1.138a44.48 44.48 0 0 0-.577-1.136c-.167-.315-.446-.82-.625-1.133-.179-.314-.476-.816-.666-1.127a60.79 60.79 0 0 0-.704-1.12c-.2-.31-.529-.804-.738-1.11a70.32 70.32 0 0 0-.766-1.098c-.216-.303-.57-.786-.793-1.084a81.572 81.572 0 0 0-.814-1.064c-.229-.293-.6-.76-.832-1.047-.233-.287-.61-.743-.846-1.024a92.307 92.307 0 0 0-.856-1 89.662 89.662 0 0 0-.863-.976c-.24-.266-.627-.688-.868-.946a84.283 84.283 0 0 0-1.74-1.798 67.583 67.583 0 0 0-1.731-1.662 56.748 56.748 0 0 0-1.717-1.509 50.775 50.775 0 0 0-.852-.694 44.162 44.162 0 0 0-.846-.653 34.162 34.162 0 0 0-1.681-1.176 30.53 30.53 0 0 0-.838-.519c-.232-.138-.605-.35-.838-.476a25.37 25.37 0 0 0-.838-.43 23.38 23.38 0 0 0-.842-.383c-.234-.1-.611-.25-.847-.338a21.147 21.147 0 0 0-.856-.29 20.638 20.638 0 0 0-.865-.246c-.242-.061-.631-.15-.876-.198a21.56 21.56 0 0 0-.89-.156c-.25-.037-.652-.087-.906-.111a22.945 22.945 0 0 0-.923-.066 25.571 25.571 0 0 0-.942-.024 27.58 27.58 0 0 0-.962.017c-.27.01-.707.036-.983.057a32.9 32.9 0 0 0-1.005.097 37.544 37.544 0 0 0-2.074.307c-.294.052-.768.143-1.067.205a53.747 53.747 0 0 0-2.197.51 64.275 64.275 0 0 0-2.263.635c-.318.096-.83.256-1.15.359-.321.103-.839.274-1.162.384-.323.11-.842.292-1.167.408-.324.117-.845.309-1.17.432-.324.122-.844.325-1.168.454-.323.128-.842.34-1.164.474a91.59 91.59 0 0 0-1.155.493c-.319.139-.827.366-1.142.51-.314.143-.816.378-1.126.527a71.031 71.031 0 0 0-2.183 1.102c-.295.157-.762.412-1.05.572-.286.16-.74.421-1.017.585-.277.164-.715.43-.982.599-.266.168-.685.44-.94.611-.256.171-.656.449-.9.623-.243.175-.623.458-.854.636-.23.178-.59.465-.808.646-.218.18-.556.474-.76.658-.203.184-.519.482-.709.67-.19.187-.482.491-.657.682a22.3 22.3 0 0 0-.607.695c-.162.194-.41.508-.557.706-.147.197-.373.518-.506.719-.134.201-.337.527-.457.732-.12.205-.3.537-.406.746-.107.21-.267.547-.36.76-.095.213-.236.557-.318.774-.083.217-.205.569-.276.79a20.4 20.4 0 0 0-.236.805 22.4 22.4 0 0 0-.199.82c-.05.23-.123.604-.165.838-.042.235-.102.615-.136.855a35.151 35.151 0 0 0-.196 1.76 48.1 48.1 0 0 0-.113 1.832 84.212 84.212 0 0 0-.058 1.903 138.707 138.707 0 0 0-.029 2.986l-.001 1.03v1.044l-.001 1.06v3.258l.003 1.11a258.014 258.014 0 0 0 .028 3.375 131.267 131.267 0 0 0 .059 2.272 79.411 79.411 0 0 0 .113 2.272 59.932 59.932 0 0 0 .196 2.254c.033.31.094.807.135 1.115.042.308.115.8.165 1.104.05.305.138.79.199 1.09.06.301.165.78.236 1.075.071.296.193.766.276 1.056.082.29.223.752.317 1.036.094.284.254.735.36 1.013.106.278.287.719.407.989s.323.697.457.96c.133.262.358.676.505.93.148.254.396.655.557.9.161.245.43.63.606.866s.469.606.658.832c.19.225.506.578.71.793.203.215.541.55.759.754.217.204.577.523.808.716.23.192.611.493.854.674.244.181.644.462.9.631.255.169.674.43.94.588.268.156.705.398.982.542.278.145.73.366 1.018.498.287.132.754.334 1.05.453.295.12.776.3 1.079.406.303.107.795.268 1.104.362.309.093.81.233 1.125.314.314.08.823.2 1.142.268.319.068.833.167 1.155.222.322.055.84.134 1.164.177.324.042.845.102 1.169.133.324.03.845.07 1.17.088.324.019.843.039 1.166.045.323.007.84.008 1.16.003.321-.004.834-.021 1.151-.037.318-.016.826-.05 1.14-.077.314-.027.814-.078 1.124-.116.31-.037.803-.106 1.108-.153.305-.048.79-.133 1.089-.19.299-.057.774-.155 1.067-.222.294-.066.76-.18 1.048-.256.287-.075.745-.203 1.026-.287a38.61 38.61 0 0 0 1.005-.317c.275-.092.713-.246.983-.345.27-.1.697-.265.962-.372.264-.106.683-.283.942-.396.259-.113.67-.3.923-.42.254-.12.657-.317.906-.443.25-.126.645-.333.89-.464.245-.132.635-.347.877-.484a58.009 58.009 0 0 0 1.72-1.02 69.11 69.11 0 0 0 1.689-1.086 100.793 100.793 0 0 0 2.514-1.737 151.287 151.287 0 0 0 5.095-3.808 203.628 203.628 0 0 0 1.731-1.364 168.714 168.714 0 0 0 1.74-1.413 105.87 105.87 0 0 0 1.732-1.465 83.576 83.576 0 0 0 1.701-1.52c.233-.215.604-.563.833-.782.228-.219.591-.573.814-.797.223-.223.576-.585.793-.812.216-.228.558-.597.767-.83.209-.232.537-.609.737-.846.2-.237.514-.621.704-.863.19-.242.488-.633.667-.88.18-.246.458-.646.624-.898.167-.252.423-.66.577-.916.153-.257.389-.672.528-.933.14-.262.351-.685.476-.952.124-.266.31-.698.419-.97.108-.27.269-.71.36-.986.091-.276.224-.723.298-1.004.073-.281.177-.736.233-1.021.055-.286.13-.748.167-1.038.038-.29.084-.758.103-1.052.02-.294.034-1.066.034-1.066"/><path stroke-width="1.196" stroke-linecap="round" stroke-miterlimit="10" fill="none" stroke="#369" d="M101.927 64.508h-7.87"/><path d="M88.318 64.508c1.7.319 4.463 1.275 6.376 2.391v-4.782c-1.913 1.116-4.676 2.072-6.376 2.391" fill="#369"/><path stroke-width="1.196" stroke-linecap="round" stroke-miterlimit="10" fill="none" stroke="#369" d="m79.816 32.499-3.314 5.656"/><path d="M73.6 43.106c1.135-1.306 3.357-3.206 5.287-4.292l-4.126-2.418c-.004 2.214-.576 5.082-1.16 6.71" fill="#369"/><path stroke-width="1.196" stroke-linecap="round" stroke-miterlimit="10" fill="none" stroke="#369" d="m45.8 37.6 4.551 7.98"/><path d="M53.194 50.565c-.566-1.635-1.103-4.509-1.082-6.723l-4.154 2.369c1.917 1.109 4.117 3.035 5.236 4.354" fill="#369"/><path stroke-width="1.196" stroke-linecap="round" stroke-miterlimit="10" fill="none" stroke="#369" d="M33.895 64.508h7.87"/><path d="M47.504 64.508c-1.7-.319-4.463-1.275-6.376-2.391v4.782c1.913-1.116 4.676-2.072 6.376-2.391" fill="#369"/><path stroke-width="1.196" stroke-linecap="round" stroke-miterlimit="10" fill="none" stroke="#369" d="m45.8 96.517 3.735-7.79"/><path d="M52.016 83.553c-1.023 1.395-3.08 3.473-4.913 4.715l4.312 2.068c-.179-2.208.153-5.112.6-6.783" fill="#369"/><path stroke-width="1.196" stroke-linecap="round" stroke-miterlimit="10" fill="none" stroke="#369" d="m79.816 91.416-4.112-5.9"/><path d="M72.422 80.809c.711 1.577 1.506 4.39 1.685 6.597l3.923-2.734c-2.01-.931-4.374-2.65-5.608-3.863" fill="#369"/><path stroke-width="1.196" stroke-linecap="round" stroke-miterlimit="10" fill="none" stroke="#369" d="M101.927 64.508h-7.87"/><path d="M88.318 64.508c1.7.319 4.463 1.275 6.376 2.391v-4.782c-1.913 1.116-4.676 2.072-6.376 2.391" fill="#369"/><path stroke-width=".797" stroke-miterlimit="10" fill="none" stroke="red" d="m79.816 32.499 4.906-8.37"/><path d="m86.032 21.895-3.884 2.527 2.574-.293 1.002 2.389" fill="red"/><symbol id="a"><path d="M.611 0c.016 0 .038 0 .038.023S.627.046.611.046H.038C.022.046 0 .046 0 .023S.022 0 .038 0h.573z"/></symbol><symbol id="b"><path d="M.814.241A.375.375 0 0 1 .671.015C.671 0 .685 0 .694 0c.011 0 .02 0 .023.013.026.111.09.195.211.236.008.002.016.005.016.015 0 .01-.009.013-.013.014a.307.307 0 0 0-.212.227C.714.525.714.528.694.528c-.009 0-.023 0-.023-.015A.352.352 0 0 1 .814.287H.038C.022.287 0 .287 0 .264S.022.241.038.241h.776z"/></symbol><use xlink:href="#a" transform="matrix(7.9701 0 0 -7.9701 89.721 19.899)" fill="red"/><use xlink:href="#b" transform="matrix(7.9701 0 0 -7.9701 89.49 21.82)" fill="red"/><symbol id="c"><path d="m.17.174.016.068C.2.296.2.297.223.33c.033.049.08.093.147.093.036 0 .057-.021.057-.068A.862.862 0 0 0 .366.137C.353.104.353.098.353.085.353.028.4 0 .443 0c.098 0 .139.14.139.153 0 .01-.008.013-.015.013C.555.166.553.159.55.149.526.067.484.028.446.028.43.028.422.038.422.061a.19.19 0 0 0 .018.07.815.815 0 0 1 .059.209c0 .075-.052.111-.124.111A.203.203 0 0 1 .213.364C.206.419.162.451.111.451.075.451.05.428.034.397A.395.395 0 0 1 0 .298C0 .289.007.285.015.285c.013 0 .014.004.021.03.012.049.03.108.072.108C.134.423.14.398.14.376.14.358.135.339.127.306A5.408 5.408 0 0 0 .106.225L.069.075a.447.447 0 0 1-.01-.044C.059.008.078 0 .091 0c.018 0 .033.012.04.024.003.006.011.04.016.061L.17.174z"/></symbol><use xlink:href="#c" transform="matrix(7.9701 0 0 -7.9701 90.924 25.22)" fill="red"/><symbol id="d"><path d="M.095.236h.338c.016 0 .019.012.019.022C.452.364.38.455.246.455.125.455 0 .37 0 .228 0 .092.129 0 .255 0c.078 0 .167.036.194.118a.032.032 0 0 1 .003.014C.451.141.442.146.433.146.415.146.407.112.394.095A.166.166 0 0 0 .273.036h-.01c-.06 0-.12.033-.147.087a.256.256 0 0 0-.021.113m.002.031c.004.082.062.155.148.155.089 0 .13-.075.134-.155H.097z"/></symbol><symbol id="e"><path d="M.006.43V.39h.021A.134.134 0 0 0 .08.382C.097.374.109.358.122.345L.191.27C.208.252.243.22.243.211V.21C.243.201.207.17.191.153.167.128.145.1.117.078A.197.197 0 0 0 0 .04V0h.193v.04C.18.04.174.053.174.062c0 .024.022.041.038.058.019.021.043.041.059.063h.001C.303.14.379.079.379.059.379.047.364.041.353.04V0h.22v.04H.552C.489.04.471.068.441.102.407.139.375.176.339.212.333.219.327.227.319.233v.001c.037.03.07.079.108.11A.186.186 0 0 0 .552.39v.04H.36V.39L.369.387a.023.023 0 0 0 .01-.019C.379.343.351.32.332.301.319.288.307.272.293.261.279.287.204.342.2.368v.003C.2.384.216.389.226.39v.04h-.22z"/></symbol><symbol id="f"><path d="M.144.625C.144.544.101.433 0 .433V.4h.097V.15c0-.033.002-.065.021-.094C.145.015.197 0 .244 0c.072 0 .122.058.122.146L.365.191H.328L.329.149C.329.105.315.036.253.036.195.036.181.094.181.142V.4h.165v.04H.181v.185H.144z"/></symbol><use xlink:href="#d" transform="matrix(5.9776 0 0 -5.9776 97.769 22.38)" fill="red"/><use xlink:href="#e" transform="matrix(5.9776 0 0 -5.9776 100.961 22.321)" fill="red"/><use xlink:href="#f" transform="matrix(5.9776 0 0 -5.9776 104.81 22.38)" fill="red"/><symbol id="g"><path d="M0 .704V.671h.022C.044.671.069.67.082.657.095.644.1.625.107.609.187.42.263.23.341.04.348.022.353 0 .376 0 .398 0 .403.023.41.04c.077.183.148.37.227.551.016.041.042.08.114.08v.033L.701.701H.606L.542.704V.671A.08.08 0 0 0 .6.649L.606.64A.032.032 0 0 0 .61.624C.61.609.602.594.596.58L.464.259.427.168C.42.151.41.134.406.116H.405C.401.131.394.146.388.16L.352.247.246.504C.23.545.209.587.195.629a.028.028 0 0 0-.003.013v.003C.197.67.236.671.263.671h.006v.033H0z"/></symbol><symbol id="h"><path d="M.221.455C.106.443 0 .36 0 .218 0 .084.124 0 .239 0c.116 0 .233.09.233.221a.236.236 0 0 1-.238.234H.221M.089.203.088.229c0 .052.005.121.048.16a.15.15 0 0 0 .101.038C.339.427.383.342.383.238.383.183.381.122.343.077A.144.144 0 0 0 .236.031C.162.031.104.083.093.162L.089.203z"/></symbol><symbol id="i"><path d="M0 .683V.65h.013C.046.65.076.649.076.598V.097L.077.075C.077.035.045.033.01.033H0V0l.06.003h.104L.226 0v.033H.203C.175.033.15.036.15.072v.622L0 .683z"/></symbol><symbol id="j"><path d="M0 .44V.407h.013c.025 0 .056-.002.061-.03C.076.366.076.356.076.345V.148A.17.17 0 0 1 .092.062C.12.013.184 0 .233 0a.149.149 0 0 1 .139.082L.373.001l.15.01v.033H.504C.475.044.447.048.447.092v.359L.294.44V.407h.012C.34.407.37.405.37.357V.186C.37.106.327.029.241.029.206.029.16.038.155.089.153.107.153.125.153.143v.308L0 .44z"/></symbol><symbol id="k"><path d="M0 .429V.396h.019c.029 0 .057-.004.057-.05V.075C.076.034.05.033 0 .033V0l.061.003h.105L.229 0v.033H.208C.177.033.153.036.153.074v.183c0 .074.047.155.145.155.057 0 .073-.048.073-.109V.071C.371.036.344.033.315.033h-.02V0l.063.003h.105L.524 0v.033H.503C.472.033.448.036.448.074v.183c0 .074.047.155.145.155C.65.412.666.364.666.303V.071C.666.036.639.033.61.033H.59V0l.063.003h.105L.819 0v.033H.802c-.03 0-.059.003-.059.039v.214a.207.207 0 0 1-.016.095C.703.425.651.44.604.44.543.44.468.41.444.348H.443C.434.417.363.44.304.44.242.44.169.405.147.344L.146.44.109.437 0 .429z"/></symbol><symbol id="l"><path d="M.089.239h.305c.013 0 .019.007.019.019 0 .05-.015.108-.051.145a.192.192 0 0 1-.137.053A.222.222 0 0 1 0 .231C0 .117.091 0 .235 0 .31 0 .39.047.411.121L.413.13a.015.015 0 0 1-.015.015C.379.145.376.113.367.101A.147.147 0 0 0 .243.033a.147.147 0 0 0-.13.077.272.272 0 0 0-.024.129M.09.266C.1.323.11.385.169.414a.114.114 0 0 0 .054.014C.288.428.332.374.342.302L.345.266H.09z"/></symbol><use xlink:href="#g" transform="matrix(7.9701 0 0 -7.9701 46.231 67.412)"/><use xlink:href="#h" transform="matrix(7.9701 0 0 -7.9701 51.93 67.325)"/><use xlink:href="#i" transform="matrix(7.9701 0 0 -7.9701 56.258 67.245)"/><use xlink:href="#j" transform="matrix(7.9701 0 0 -7.9701 58.6 67.333)"/><use xlink:href="#k" transform="matrix(7.9701 0 0 -7.9701 63.303 67.245)"/><use xlink:href="#l" transform="matrix(7.9701 0 0 -7.9701 70.27 67.333)"/><use xlink:href="#g" transform="matrix(7.9701 0 0 -7.9701 76.797 67.412)"/><symbol id="m"><path d="M0 .68V.647l.037.001C.072.648.101.643.101.604V.077C.101.037.068.032.034.032L0 .033V0h.319v.033L.273.032c-.052 0-.08.005-.08.051v.241h.095C.323.324.363.321.382.292.396.271.397.242.397.216V.207h.031v.267H.397V.465C.397.409.385.367.323.359.304.357.284.357.265.357H.193v.254c0 .034.019.036.042.036h.122c.062 0 .138 0 .177-.057C.562.551.567.499.573.453h.031L.575.68H0z"/></symbol><symbol id="n"><path d="M.004.429V.396H.02C.052.396.076.39.076.347V.075C.076.034.05.033 0 .033V0l.061.003h.101L.218 0v.033H.204C.175.033.15.035.15.069V.44L.113.437.004.429M.09.67A.055.055 0 0 1 .096.56C.13.56.153.587.153.616a.055.055 0 0 1-.054.055L.09.67z"/></symbol><symbol id="o"><path d="M.294.693V.66h.011C.344.66.37.658.37.599V.393A.187.187 0 0 1 .236.45C.113.45 0 .354 0 .225 0 .102.103 0 .225 0a.19.19 0 0 1 .142.063V0L.52.01v.033H.504c-.03 0-.06.003-.06.05v.611L.294.693M.089.203v.014c0 .07.013.155.09.19A.141.141 0 0 0 .36.357C.363.352.366.348.367.342V.126C.367.075.285.028.233.028c-.074 0-.127.059-.139.13L.089.203z"/></symbol><symbol id="p"><path d="M.005.43V.397h.012A.139.139 0 0 0 .071.389C.089.38.102.363.114.348L.177.272C.192.253.226.221.226.21.226.2.195.17.179.152.128.095.085.033 0 .033V0l.044.003h.082L.181 0v.033C.164.037.157.048.157.061c0 .021.018.039.031.053l.038.044c.007.009.016.017.022.027C.257.177.264.167.272.158L.335.082C.341.074.35.066.35.056.35.043.333.034.32.033V0l.061.003h.096L.527 0v.033H.516A.132.132 0 0 0 .46.042C.441.051.428.07.415.086.375.132.34.184.297.227.296.229.294.231.294.234v.001c0 .008.029.036.043.052.052.061.095.11.172.11V.43L.465.427H.382L.327.43V.397C.343.395.351.383.351.369.351.339.314.31.297.289.289.28.277.262.271.262.267.262.264.267.262.27L.204.339C.196.348.182.361.182.374c0 .014.017.022.03.023V.43L.15.427H.056L.005.43z"/></symbol><symbol id="q"><path d="M.135.625C.135.554.101.435 0 .435V.407h.089V.149c0-.032.002-.064.019-.092C.132.016.182 0 .228 0c.084 0 .105.089.105.155v.036H.302L.303.149C.303.105.292.031.233.031.179.031.166.089.166.139v.268h.149V.44H.166v.185H.135z"/></symbol><symbol id="r"><path d="M.089.239h.305c.013 0 .019.007.019.019 0 .05-.015.108-.051.145a.192.192 0 0 1-.137.053A.222.222 0 0 1 0 .231C0 .117.091 0 .235 0 .31 0 .39.047.411.121L.413.13a.015.015 0 0 1-.015.015C.379.145.376.113.367.101A.147.147 0 0 0 .243.033a.147.147 0 0 0-.13.077.272.272 0 0 0-.024.129M.09.266C.1.323.11.385.169.414a.114.114 0 0 0 .054.014C.288.428.332.374.342.302L.345.266H.09m.036.235c.026.008.053.028.078.041l.055.03c.019.01.047.02.047.047C.306.64.289.661.267.661H.266C.233.659.167.578.122.538.118.534.111.53.111.524c0-.005.01-.016.015-.023z"/></symbol><symbol id="s"><path d="M0 .429V.396h.016c.03 0 .06-.003.06-.05V.075C.076.034.05.033 0 .033V0l.06.003h.114L.245 0v.033L.21.032C.178.032.15.037.15.073v.168c0 .071.039.171.126.171A.052.052 0 0 1 .26.376C.26.348.283.331.306.331c.025 0 .044.02.044.045C.35.419.308.44.271.44.214.44.155.387.144.335L.143.44.093.436 0 .429z"/></symbol><use xlink:href="#m" transform="matrix(7.9701 0 0 -7.9701 35.4 119.338)"/><use xlink:href="#i" transform="matrix(7.9701 0 0 -7.9701 40.9 119.338)"/><use xlink:href="#j" transform="matrix(7.9701 0 0 -7.9701 43.242 119.426)"/><use xlink:href="#n" transform="matrix(7.9701 0 0 -7.9701 47.953 119.338)"/><use xlink:href="#o" transform="matrix(7.9701 0 0 -7.9701 50.256 119.418)"/><use xlink:href="#l" transform="matrix(7.9701 0 0 -7.9701 54.91 119.426)"/><use xlink:href="#l" transform="matrix(7.9701 0 0 -7.9701 61.494 119.426)"/><use xlink:href="#p" transform="matrix(7.9701 0 0 -7.9701 65.16 119.338)"/><use xlink:href="#q" transform="matrix(7.9701 0 0 -7.9701 69.655 119.418)"/><use xlink:href="#r" transform="matrix(7.9701 0 0 -7.9701 73.019 119.426)"/><use xlink:href="#s" transform="matrix(7.9701 0 0 -7.9701 76.82 119.338)"/><use xlink:href="#n" transform="matrix(7.9701 0 0 -7.9701 80.176 119.338)"/><use xlink:href="#l" transform="matrix(7.9701 0 0 -7.9701 82.431 119.426)"/><use xlink:href="#j" transform="matrix(7.9701 0 0 -7.9701 86.28 119.426)"/><use xlink:href="#s" transform="matrix(7.9701 0 0 -7.9701 90.935 119.338)"/></svg>