<svg xmlns="http://www.w3.org/2000/svg" xmlns:xlink="http://www.w3.org/1999/xlink" width="336.849" height="154.241" viewBox="0 0 252.637 115.681"><symbol id="a"><path d="M.338.605C.347.639.349.65.441.65c.028 0 .038 0 .038.019 0 .002-.002.014-.017.014L.39.68H.318C.214.68.19.683.183.683c-.004 0-.02 0-.02-.019C.163.65.176.65.192.65.225.65.254.65.254.634L.25.616.116.079C.107.041.105.033.031.033.012.033 0 .033 0 .014 0 0 .013 0 .03 0h.483c.025 0 .026.001.034.02.01.028.083.216.083.226C.63.255.622.26.615.26.604.26.602.253.595.238.559.145.516.033.337.033H.21C.201.035.198.035.198.042.198.05.2.058.202.064l.136.541z"/></symbol><use xlink:href="#a" transform="matrix(7.9701 0 0 -7.9701 88.729 11.513)"/><symbol id="b"><path d="M.6.319C.613.326.62.33.62.343.62.356.611.362.6.368l-.557.31C.029.686.028.686.023.686.014.686 0 .68 0 .663 0 .65.008.646.019.64L.55.343.021.047C.007.039 0 .035 0 .023 0 .01.009 0 .023 0 .03 0 .032.001.042.007L.6.319m.324 0c.013.007.02.011.02.024 0 .013-.009.019-.02.025l-.557.31C.353.686.352.686.347.686.338.686.324.68.324.663.324.65.332.646.343.64L.874.343.345.047C.331.039.324.035.324.023.324.01.333 0 .347 0c.007 0 .009.001.019.007l.558.312z"/></symbol><use xlink:href="#b" transform="matrix(7.9701 0 0 -7.9701 96.911 12.254)"/><symbol id="c"><path d="M.349.391a.11.11 0 0 1-.099.06C.131.451 0 .312 0 .164 0 .06.067 0 .144 0c.064 0 .119.051.137.071C.299.002.367 0 .379 0c.046 0 .069.038.077.055.02.036.034.094.034.098C.49.159.486.166.474.166S.46.16.454.135C.44.08.421.028.382.028.359.028.35.047.35.075c0 .017.009.051.015.076L.39.254.41.33c.005.024.016.066.016.071 0 .023-.019.031-.032.031A.046.046 0 0 1 .349.391M.281.118C.231.049.179.028.147.028.101.028.078.07.078.122c0 .047.027.154.049.198.029.061.078.103.124.103C.316.423.335.35.335.338L.304.21C.291.163.291.161.281.118z"/></symbol><use xlink:href="#c" transform="matrix(7.9701 0 0 -7.9701 107.605 11.593)"/><use xlink:href="#b" transform="matrix(7.9701 0 0 -7.9701 114.582 12.254)"/><symbol id="d"><path d="M.155.211.184.24c.07.07.117.134.142.171a.45.45 0 0 1 .078.222C.404.68.386.716.34.716.218.716.086.397.086.209L.087.187.018.123C.001.106 0 .105 0 .101 0 .095.007.085.015.085c.003 0 .005 0 .02.013l.055.05C.1.088.128 0 .212 0 .25 0 .288.019.315.037.33.048.38.085.38.096.38.102.375.113.365.113.36.113.357.11.349.103.308.066.26.028.214.028.16.028.15.098.15.161c0 .007 0 .025.002.045l.003.005M.16.259C.17.316.204.46.236.541.248.572.293.688.34.688.364.688.374.669.374.636c0-.012 0-.095-.079-.215C.242.34.166.265.16.259z"/></symbol><use xlink:href="#d" transform="matrix(7.9701 0 0 -7.9701 125.005 11.609)"/><path stroke-width="5.978" stroke-miterlimit="10" fill="none" stroke="#000" d="M9.149 28.839v-9.922h39.685-9.921V8.996m3.968 0c0-.548-1.776-.992-3.968-.992s-3.968.444-3.968.992 1.776.992 3.968.992 3.968-.444 3.968-.992zm-3.968 0"/><path stroke-width=".399" stroke-miterlimit="10" fill="none" stroke="#929292" d="m8.157 64.556 88.3-33.733M8.157 72.492l88.3 33.733"/><path stroke-width="4.981" stroke-miterlimit="10" fill="none" stroke="#ccf" d="M9.149 28.839v79.37"/><path stroke-width=".399" stroke-miterlimit="10" fill="none" stroke="#000" d="M13.117 68.524a3.968 3.968 0 1 0-7.936 0 3.968 3.968 0 0 0 7.936 0zm-3.968 0"/><path stroke-width=".399" stroke-dasharray="2.98883,2.98883" stroke-miterlimit="10" fill="none" stroke="#929292" d="M148.047 68.524c0-21.918-17.767-39.685-39.685-39.685-21.917 0-39.684 17.767-39.684 39.685 0 21.918 17.767 39.685 39.684 39.685 21.918 0 39.685-17.767 39.685-39.685zm-39.685 0"/><clipPath id="e"><path transform="matrix(1 0 0 -1 9.149 68.524)" d="M138.898 0c0 21.918-17.767 39.685-39.685 39.685C77.296 39.685 59.53 21.918 59.53 0c0-21.918 17.767-39.685 39.684-39.685 21.918 0 39.685 17.767 39.685 39.685zM99.213 0"/></clipPath><g clip-path="url(#e)"><path stroke-width="29.888" stroke-miterlimit="10" fill="none" stroke="#ccf" d="M108.362-129.903v396.854"/><symbol id="f"><path d="M.412.207a.206.206 0 1 1-.412 0 .206.206 0 1 1 .412 0z"/></symbol><use xlink:href="#f" transform="matrix(7.9701 0 0 -7.9701 106.714 70.001)"/><symbol id="g"><path d="M0 .683V.65l.036.001C.07.651.102.646.102.609L.101.59V.105C.101.039.043.033 0 .033V0l.066.003h.107L.236 0v.033C.191.033.134.041.134.108l.001.028.001.504C.142.62.152.6.16.58.237.4.312.215.383.035.388.022.393.001.411 0 .429 0 .434.021.44.034.512.217.588.4.664.582.672.603.685.627.69.648L.691.1.692.076C.692.038.658.032.625.032L.59.033V0l.074.003h.21v.03L.838.032C.804.032.772.037.772.074l.001.019v.513c0 .04.033.045.067.045L.874.65v.033H.701C.684.683.673.678.668.661L.657.635C.591.471.521.308.456.143.45.127.441.111.437.095.417.14.399.187.38.233L.216.635.206.66C.2.673.193.683.178.683H0z"/></symbol><use xlink:href="#g" transform="matrix(7.9701 0 0 -7.9701 104.876 65.527)"/><path stroke-width=".797" stroke-miterlimit="10" fill="none" stroke="#000" d="M108.362 68.524v17.254"/><path d="m108.362 88.368 2.073-4.145-2.073 1.555-2.072-1.555"/><symbol id="h"><path d="M.611 0c.016 0 .038 0 .038.023S.627.046.611.046H.038C.022.046 0 .046 0 .023S.022 0 .038 0h.573z"/></symbol><symbol id="i"><path d="M.814.241A.375.375 0 0 1 .671.015C.671 0 .685 0 .694 0c.011 0 .02 0 .023.013.026.111.09.195.211.236.008.002.016.005.016.015 0 .01-.009.013-.013.014a.307.307 0 0 0-.212.227C.714.525.714.528.694.528c-.009 0-.023 0-.023-.015A.352.352 0 0 1 .814.287H.038C.022.287 0 .287 0 .264S.022.241.038.241h.776z"/></symbol><use xlink:href="#h" transform="matrix(7.9701 0 0 -7.9701 76.442 75.43)"/><use xlink:href="#i" transform="matrix(7.9701 0 0 -7.9701 76.211 77.352)"/><symbol id="j"><path d="M.467.374c0 .078-.045.078-.049.078C.394.452.366.426.366.4c0-.016.008-.023.017-.031A.105.105 0 0 0 .42.289C.42.243.354.028.239.028.196.028.161.051.161.114c0 .055.03.134.054.194C.227.34.23.348.23.366.23.42.186.451.14.451.041.451 0 .31 0 .298 0 .289.007.285.015.285c.013 0 .014.006.017.016.026.087.069.122.105.122C.152.423.161.414.161.39A.198.198 0 0 0 .142.319C.093.193.089.16.089.129.089.02.178 0 .235 0c.166 0 .232.298.232.374z"/></symbol><use xlink:href="#j" transform="matrix(7.9701 0 0 -7.9701 78.01 80.752)"/><symbol id="k"><path d="M.23 0c.008 0 .02 0 .02.012C.25.016.249.017.236.03.099.159.065.345.065.5c0 .288.119.423.17.469C.249.982.25.983.25.988.25.993.246 1 .236 1 .22 1 .17.949.162.94A.633.633 0 0 1 0 .5C0 .276.094.096.23 0z"/></symbol><symbol id="l"><path d="M.205.66C.197.68.196.683.168.683H0V.65h.022C.099.65.101.639.101.602V.107c0-.026 0-.074-.101-.074V0c.045.003.092.003.118.003.026 0 .073 0 .118-.003v.033C.135.033.135.081.135.107v.531l.001.001.252-.615C.394.011.398 0 .412 0 .425 0 .43.012.435.024L.69.647.691.646V.081C.691.044.689.033.612.033H.59V0c.079.003.081.003.142.003.061 0 .063 0 .142-.003v.033H.852C.775.033.773.044.773.081v.521c0 .037.002.048.079.048h.022v.033H.705C.678.683.676.68.669.662L.437.095.205.66z"/></symbol><use xlink:href="#k" transform="matrix(7.9701 0 0 -7.9701 85.03 82.665)"/><use xlink:href="#l" transform="matrix(7.9701 0 0 -7.9701 87.892 80.672)"/><symbol id="m"><path d="M.095.208A.236.236 0 0 0 .019.024C.015.021.013.019.013.014.013.006.021 0 .028 0 .04 0 .123.079.123.196.123.26.099.304.055.304A.054.054 0 0 1 0 .249C0 .221.019.193.056.193c.024 0 .039.014.039.015z"/></symbol><symbol id="n"><path d="M.196.408h.098c.019 0 .031 0 .031.019 0 .014-.013.014-.03.014H.204L.24.583c.004.015.004.02.004.021 0 .021-.016.031-.033.031C.177.635.17.608.159.563L.128.441H.032C.013.441 0 .441 0 .422 0 .408.013.408.03.408h.09L.06.168C.054.143.045.108.045.094.045.034.094 0 .147 0c.107 0 .168.141.168.153C.315.164.306.166.3.166.289.166.288.162.281.147.261.099.211.028.15.028.129.028.117.042.117.075c0 .019.003.03.006.043l.073.29z"/></symbol><use xlink:href="#m" transform="matrix(7.9701 0 0 -7.9701 95.99 82.21)"/><use xlink:href="#n" transform="matrix(7.9701 0 0 -7.9701 99.218 80.752)"/><symbol id="o"><path d="M.249.5a.691.691 0 0 1-.078.327C.122.919.031 1 .013 1 .003 1 0 .993 0 .988 0 .984 0 .982.012.97.152.837.184.654.184.5.184.213.065.077.014.031.001.018 0 .017 0 .012 0 .007.003 0 .013 0c.016 0 .066.051.074.06C.221.2.249.38.249.5z"/></symbol><use xlink:href="#o" transform="matrix(7.9701 0 0 -7.9701 102.557 82.665)"/></g><path d="M247.26 68.524c0-21.918-17.767-39.685-39.684-39.685-21.918 0-39.685 17.767-39.685 39.685 0 21.918 17.767 39.685 39.685 39.685 21.917 0 39.685-17.767 39.685-39.685zm-39.684 0" fill="#ccf"/><path stroke-width=".797" stroke-linecap="round" stroke-miterlimit="10" fill="none" stroke="#99f" d="M247.26 68.524c0-21.918-17.767-39.685-39.684-39.685-21.918 0-39.685 17.767-39.685 39.685 0 21.918 17.767 39.685 39.685 39.685 21.917 0 39.685-17.767 39.685-39.685zm-39.684 0"/><clipPath id="p"><path transform="matrix(1 0 0 -1 9.149 68.524)" d="M238.112 0c0 21.918-17.768 39.685-39.685 39.685-21.918 0-39.685-17.767-39.685-39.685 0-21.918 17.767-39.685 39.685-39.685 21.917 0 39.685 17.767 39.685 39.685zm-39.685 0"/></clipPath><g clip-path="url(#p)"><path stroke-width=".399" stroke-miterlimit="10" fill="none" stroke="#000" d="m182.7 95.662.082.01"/><path d="m184.762 95.898-2.986-1.946 1.006 1.72-1.369 1.447"/><symbol id="q"><path d="M.486.243a.243.243 0 1 1-.487 0 .243.243 0 0 1 .487 0z"/></symbol><use xlink:href="#q" transform="matrix(4.9813 0 0 -4.9813 181.487 96.854)"/><path stroke-width=".399" stroke-miterlimit="10" fill="none" stroke="#000" d="m179.736 86.44-9.428 7.599"/><path d="m168.757 95.29 3.483-.76-1.932-.491-.07-1.991"/><use xlink:href="#q" transform="matrix(4.9813 0 0 -4.9813 178.523 87.632)"/><path stroke-width=".399" stroke-miterlimit="10" fill="none" stroke="#000" d="m182.806 80.614-7.282 27.741"/><path d="m175.019 110.283 2.35-2.68-1.845.752-1.238-1.56"/><use xlink:href="#q" transform="matrix(4.9813 0 0 -4.9813 181.593 81.807)"/><path stroke-width=".399" stroke-miterlimit="10" fill="none" stroke="#000" d="m180.804 68.312-7.71 14.22"/><path d="m172.145 84.283 2.92-2.042-1.97.29-.832-1.81"/><use xlink:href="#q" transform="matrix(4.9813 0 0 -4.9813 179.592 69.505)"/><path stroke-width=".399" stroke-miterlimit="10" fill="none" stroke="#000" d="m171.512 58.178-4.96 19.334"/><path d="m166.056 79.442 2.337-2.692-1.841.762-1.247-1.554"/><use xlink:href="#q" transform="matrix(4.9813 0 0 -4.9813 170.3 59.371)"/><path stroke-width=".399" stroke-miterlimit="10" fill="none" stroke="#000" d="m176.093 44.305-4.166 17.912"/><path d="m171.476 64.158 2.275-2.744-1.824.803-1.281-1.525"/><use xlink:href="#q" transform="matrix(4.9813 0 0 -4.9813 174.88 45.5)"/><path stroke-width=".399" stroke-miterlimit="10" fill="none" stroke="#000" d="m179.336 35.019-4.56-2.02"/><path d="m172.954 32.191 2.269 2.749-.448-1.942 1.739-.973"/><use xlink:href="#q" transform="matrix(4.9813 0 0 -4.9813 178.124 36.212)"/><path stroke-width=".399" stroke-miterlimit="10" fill="none" stroke="#000" d="m180.487 95.429 10.62 18.213"/><path d="m192.11 115.363-.229-3.557-.774 1.836-1.98-.23"/><use xlink:href="#q" transform="matrix(4.9813 0 0 -4.9813 179.274 96.621)"/><path stroke-width=".399" stroke-miterlimit="10" fill="none" stroke="#000" d="m182.56 91.786 10.43 25.793"/><use xlink:href="#q" transform="matrix(4.9813 0 0 -4.9813 181.348 92.98)"/><path stroke-width=".399" stroke-miterlimit="10" fill="none" stroke="#000" d="m189.81 73.535-17.57 10.843"/><path d="m170.544 85.425 3.55-.318-1.855-.729.18-1.984"/><use xlink:href="#q" transform="matrix(4.9813 0 0 -4.9813 188.596 74.728)"/><path stroke-width=".399" stroke-miterlimit="10" fill="none" stroke="#000" d="m191.97 67.937-7.737 21.79"/><path d="m183.566 91.605 2.569-2.471-1.902.593-1.102-1.66"/><use xlink:href="#q" transform="matrix(4.9813 0 0 -4.9813 190.758 69.13)"/><path stroke-width=".399" stroke-miterlimit="10" fill="none" stroke="#000" d="m182.143 60.597-.353 8.201"/><path d="m181.704 70.789 1.73-3.117-1.644 1.126-1.541-1.263"/><use xlink:href="#q" transform="matrix(4.9813 0 0 -4.9813 180.93 61.791)"/><path stroke-width=".399" stroke-miterlimit="10" fill="none" stroke="#000" d="m184.062 45.325 16.786 1.641"/><path d="m202.831 47.16-3.017-1.896 1.034 1.702-1.344 1.47"/><use xlink:href="#q" transform="matrix(4.9813 0 0 -4.9813 182.85 46.52)"/><path stroke-width=".399" stroke-miterlimit="10" fill="none" stroke="#000" d="m189.494 43.179-13.518 27.388"/><path d="m175.094 72.354 2.84-2.153-1.958.366-.9-1.777"/><use xlink:href="#q" transform="matrix(4.9813 0 0 -4.9813 188.28 44.372)"/><path stroke-width=".399" stroke-miterlimit="10" fill="none" stroke="#000" d="m202.435 103.122 14.279 9.382"/><path d="m218.379 113.598-1.789-3.083.124 1.989-1.875.676"/><use xlink:href="#q" transform="matrix(4.9813 0 0 -4.9813 201.222 104.315)"/><path stroke-width=".399" stroke-miterlimit="10" fill="none" stroke="#000" d="m192.4 85.534 15.085 5.061"/><path d="m209.374 91.229-2.515-2.525.626 1.891-1.64 1.131"/><use xlink:href="#q" transform="matrix(4.9813 0 0 -4.9813 191.188 86.727)"/><path stroke-width=".399" stroke-miterlimit="10" fill="none" stroke="#000" d="m191.441 81.462 17.259 2.401"/><path d="m210.673 84.138-2.938-2.018.965 1.743-1.404 1.414"/><use xlink:href="#q" transform="matrix(4.9813 0 0 -4.9813 190.228 82.655)"/><path stroke-width=".399" stroke-miterlimit="10" fill="none" stroke="#000" d="m192.54 72.066-6.478 1.179"/><path d="m184.102 73.601 3.421.998-1.46-1.354.89-1.782"/><use xlink:href="#q" transform="matrix(4.9813 0 0 -4.9813 191.327 73.26)"/><path stroke-width=".399" stroke-miterlimit="10" fill="none" stroke="#000" d="m196.743 60.73 13.262 10.83"/><path d="m211.548 72.82-1.46-3.25-.083 1.99-1.934.479"/><use xlink:href="#q" transform="matrix(4.9813 0 0 -4.9813 195.53 61.924)"/><path stroke-width=".399" stroke-miterlimit="10" fill="none" stroke="#000" d="m198.792 50.733-11.073 19.85"/><path d="m186.748 72.324 2.945-2.008-1.974.268-.81-1.82"/><use xlink:href="#q" transform="matrix(4.9813 0 0 -4.9813 197.58 51.926)"/><path stroke-width=".399" stroke-miterlimit="10" fill="none" stroke="#000" d="m192.256 36.442-12.14 9.923"/><path d="m178.573 47.626 3.477-.783-1.934-.478-.083-1.99"/><use xlink:href="#q" transform="matrix(4.9813 0 0 -4.9813 191.043 37.636)"/><path stroke-width=".399" stroke-miterlimit="10" fill="none" stroke="#000" d="m205.133 99.716.042-1.12"/><path d="m205.1 100.588 1.713-3.125-1.638 1.134-1.547-1.255"/><use xlink:href="#q" transform="matrix(4.9813 0 0 -4.9813 203.92 100.91)"/><path stroke-width=".399" stroke-miterlimit="10" fill="none" stroke="#000" d="m201.617 91.35 7.111.939"/><path d="m210.704 92.55-2.952-1.998.976 1.737-1.393 1.423"/><use xlink:href="#q" transform="matrix(4.9813 0 0 -4.9813 200.404 92.543)"/><path stroke-width=".399" stroke-miterlimit="10" fill="none" stroke="#000" d="m213.692 80.526-10.482-.074"/><path d="m201.218 80.438 3.176 1.616-1.184-1.602 1.207-1.585"/><use xlink:href="#q" transform="matrix(4.9813 0 0 -4.9813 212.479 81.72)"/><path stroke-width=".399" stroke-miterlimit="10" fill="none" stroke="#000" d="m214.4 70.964-5.428 10.151"/><path d="m208.033 82.872 2.909-2.06-1.97.303-.841-1.806"/><use xlink:href="#q" transform="matrix(4.9813 0 0 -4.9813 213.187 72.157)"/><path stroke-width=".399" stroke-miterlimit="10" fill="none" stroke="#000" d="m212.735 53.921 15.867 8.149"/><path d="m230.375 62.98-2.108-2.874.335 1.964-1.791.872"/><use xlink:href="#q" transform="matrix(4.9813 0 0 -4.9813 211.522 55.115)"/><path stroke-width=".399" stroke-miterlimit="10" fill="none" stroke="#000" d="m209.735 53.64 14.23 17.647"/><path d="m225.215 72.839-.76-3.483-.49 1.931-1.991.07"/><use xlink:href="#q" transform="matrix(4.9813 0 0 -4.9813 208.522 54.833)"/><path stroke-width=".399" stroke-miterlimit="10" fill="none" stroke="#000" d="m209.105 33.808-8.39 7.484"/><path d="m199.228 42.619 3.44-.933-1.953-.394-.169-1.985"/><use xlink:href="#q" transform="matrix(4.9813 0 0 -4.9813 207.892 35.001)"/><path stroke-width=".399" stroke-miterlimit="10" fill="none" stroke="#000" d="m223.347 97.6-1.37 5.428"/><path d="m221.488 104.96 2.326-2.7-1.838.768-1.252-1.55"/><use xlink:href="#q" transform="matrix(4.9813 0 0 -4.9813 222.134 98.792)"/><path stroke-width=".399" stroke-miterlimit="10" fill="none" stroke="#000" d="m214.316 84.786 8.885-7.452"/><path d="m224.728 76.054-3.467.827 1.94.453.108 1.99"/><use xlink:href="#q" transform="matrix(4.9813 0 0 -4.9813 213.102 85.98)"/><path stroke-width=".399" stroke-miterlimit="10" fill="none" stroke="#000" d="m218.673 75.727 1.644 18.295"/><path d="m220.495 96.007 1.302-3.318-1.48 1.333-1.695-1.048"/><use xlink:href="#q" transform="matrix(4.9813 0 0 -4.9813 217.459 76.92)"/><path stroke-width=".399" stroke-miterlimit="10" fill="none" stroke="#000" d="m211.787 66.604 16.808 3.421"/><path d="m230.547 70.422-2.806-2.197.854 1.8-1.49 1.324"/><use xlink:href="#q" transform="matrix(4.9813 0 0 -4.9813 210.574 67.798)"/><path stroke-width=".399" stroke-miterlimit="10" fill="none" stroke="#000" d="m211.518 60.449 7.243 25.997"/><path d="m219.296 88.365.68-3.499-1.215 1.58-1.856-.724"/><use xlink:href="#q" transform="matrix(4.9813 0 0 -4.9813 210.305 61.642)"/><path stroke-width=".399" stroke-miterlimit="10" fill="none" stroke="#000" d="m211.687 51.493-16.825 23.614"/><path d="m193.706 76.73 3.148-1.672-1.992.049-.604-1.899"/><use xlink:href="#q" transform="matrix(4.9813 0 0 -4.9813 210.474 52.686)"/><path stroke-width=".399" stroke-miterlimit="10" fill="none" stroke="#000" d="m218.252 36.27 1.012 15.224"/><path d="m219.396 53.482 1.38-3.287-1.512 1.299-1.67-1.087"/><use xlink:href="#q" transform="matrix(4.9813 0 0 -4.9813 217.039 37.463)"/><path stroke-width=".399" stroke-miterlimit="10" fill="none" stroke="#000" d="m221.207 96.71-16.067 18.046"/><path d="m203.815 116.244 3.31-1.32-1.985-.168-.395-1.952"/><use xlink:href="#q" transform="matrix(4.9813 0 0 -4.9813 219.994 97.902)"/><path stroke-width=".399" stroke-miterlimit="10" fill="none" stroke="#000" d="m228.461 93.312-.475-2.884"/><path d="m227.662 88.462-1.054 3.404 1.378-1.438 1.767.92"/><use xlink:href="#q" transform="matrix(4.9813 0 0 -4.9813 227.248 94.505)"/><path stroke-width=".399" stroke-miterlimit="10" fill="none" stroke="#000" d="m226.732 73.677-8.178 2.79"/><path d="m216.668 77.11 3.532.48-1.646-1.123.617-1.894"/><use xlink:href="#q" transform="matrix(4.9813 0 0 -4.9813 225.519 74.87)"/><path stroke-width=".399" stroke-miterlimit="10" fill="none" stroke="#000" d="m227.15 64.921 9.272 21.284"/><path d="m237.217 88.032.189-3.56-.984 1.733-1.939-.46"/><use xlink:href="#q" transform="matrix(4.9813 0 0 -4.9813 225.937 66.114)"/><path stroke-width=".399" stroke-miterlimit="10" fill="none" stroke="#000" d="m226.439 58.248-8.36-3.1"/><path d="m216.211 54.454 2.435 2.603-.567-1.91 1.675-1.079"/><use xlink:href="#q" transform="matrix(4.9813 0 0 -4.9813 225.225 59.441)"/><path stroke-width=".399" stroke-miterlimit="10" fill="none" stroke="#000" d="m221.21 51.814-11.2 2.528"/><path d="m208.066 54.781 3.46.853-1.516-1.292.815-1.818"/><use xlink:href="#q" transform="matrix(4.9813 0 0 -4.9813 219.997 53.007)"/><path stroke-width=".399" stroke-miterlimit="10" fill="none" stroke="#000" d="m230.272 41.831-11.88 25.58"/><path d="m217.552 69.217 2.789-2.22-1.95.413-.941-1.755"/><use xlink:href="#q" transform="matrix(4.9813 0 0 -4.9813 229.059 43.025)"/><path stroke-width=".399" stroke-miterlimit="10" fill="none" stroke="#000" d="m243.848 98.647-5.032-4.785"/><path d="m237.372 92.489 1.212 3.352.232-1.98 1.964-.33"/><use xlink:href="#q" transform="matrix(4.9813 0 0 -4.9813 242.635 99.84)"/><path stroke-width=".399" stroke-miterlimit="10" fill="none" stroke="#000" d="m232.882 84.686-16.76-4.905"/><path d="m214.21 79.221 2.611 2.425-.7-1.865 1.596-1.194"/><use xlink:href="#q" transform="matrix(4.9813 0 0 -4.9813 231.669 85.88)"/><path stroke-width=".399" stroke-miterlimit="10" fill="none" stroke="#000" d="m236.603 73.532-5.176 5.035"/><path d="m230 79.957 3.396-1.081-1.969-.309-.254-1.976"/><use xlink:href="#q" transform="matrix(4.9813 0 0 -4.9813 235.39 74.725)"/><path stroke-width=".399" stroke-miterlimit="10" fill="none" stroke="#000" d="m230.42 67.973 17.956 27.849"/><path d="m249.456 97.497-.388-3.543-.692 1.868-1.988-.141"/><use xlink:href="#q" transform="matrix(4.9813 0 0 -4.9813 229.207 69.166)"/><path stroke-width=".399" stroke-miterlimit="10" fill="none" stroke="#000" d="m233.941 58.89-6.194 2.195"/><path d="m225.87 61.75 3.537.438-1.66-1.103.595-1.901"/><use xlink:href="#q" transform="matrix(4.9813 0 0 -4.9813 232.728 60.083)"/><path stroke-width=".399" stroke-miterlimit="10" fill="none" stroke="#000" d="m245.256 50.915-5.705-2.315"/><path d="m237.705 47.85 2.355 2.676-.509-1.926 1.707-1.028"/><use xlink:href="#q" transform="matrix(4.9813 0 0 -4.9813 244.043 52.108)"/><path stroke-width=".399" stroke-miterlimit="10" fill="none" stroke="#000" d="m243.488 33.844 3.405 17.694"/><path d="m247.27 53.494.962-3.431-1.339 1.475-1.791-.873"/><use xlink:href="#q" transform="matrix(4.9813 0 0 -4.9813 242.275 35.038)"/></g><path stroke-width=".399" stroke-miterlimit="10" fill="none" stroke="#929292" d="m108.362 67.532 87.308-36.709M108.362 69.516l87.308 36.709"/></svg>